<svg xmlns="http://www.w3.org/2000/svg" width="24" height="24" id="svg9"><defs id="defs3"><style id="current-color-scheme">.ColorScheme-Text{color:#dfdfdf}.ColorScheme-Highlight{color:#4285f4}</style></defs><g transform="matrix(1.14286 0 0 1.14286 -202.857 -934.769)" id="g7"><path id="path823" d="M181.875 821.423s-1.75 0-1.75 1.79v7.835c0 1.75 1.75 1.75 1.75 1.75h5.25l2.625 3.5 3.5-3.5h.875s1.75 0 1.75-1.75c0 0 .01-6.121.023-7.858.012-1.767-1.773-1.767-1.773-1.767z" class="ColorScheme-Text" color="#dfdfdf" fill-opacity=".094"/><path class="ColorScheme-Text" d="M182.75 822.298s-1.75 0-1.75 1.79v6.085c0 1.75 1.75 1.75 1.75 1.75h4.375l2.625 3.5 2.625-3.5h.875s1.75 0 1.75-1.75c0 0 .01-4.371.023-6.108.012-1.767-1.773-1.767-1.773-1.767z" id="path5" color="#dfdfdf" fill="#fefefe" fill-opacity=".99"/></g></svg>