<svg xmlns="http://www.w3.org/2000/svg" width="24" height="24" id="svg9"><defs id="defs3"><style id="current-color-scheme">.ColorScheme-Text{color:#dfdfdf}.ColorScheme-Highlight{color:#4285f4}</style></defs><g transform="matrix(1.14286 0 0 1.14286 -202.857 -934.769)" id="g7"><path id="path823" d="M181.875 821.423s-1.75 0-1.75 1.79v7.835c0 1.75 1.75 1.75 1.75 1.75h5.25l2.625 3.5 3.5-3.5h.875s1.75 0 1.75-1.75c0 0 .01-6.121.023-7.858.012-1.767-1.773-1.767-1.773-1.767z" class="ColorScheme-Text" color="#dfdfdf" fill-opacity=".094"/><path d="M5.975 4.98s-2 0-2 2.045v5.221A3.5 3.5 0 0 1 7 10.5a3.5 3.5 0 0 1 3.5 3.5 3.5 3.5 0 0 1-.615 1.98h1.09l3 4 3-4h1s2 0 2-2c0 0 .011-4.995.025-6.98.014-2.02-2.025-2.02-2.025-2.02z" transform="matrix(.875 0 0 .875 177.5 817.923)" id="path5" color="#dfdfdf" fill="#fefefe" fill-opacity=".995" stroke-width="1.143"/><circle style="isolation:auto;mix-blend-mode:normal;marker:none" id="path970" cx="183.625" cy="830.173" r="2.625" color="#000" display="block" overflow="visible" fill="#14a2ff" stroke-width="1.168" paint-order="fill markers stroke"/></g></svg>