<svg xmlns="http://www.w3.org/2000/svg" xmlns:xlink="http://www.w3.org/1999/xlink" height="96" viewBox="0 0 96 96" width="96"><title>Template icons dark</title><defs><linearGradient id="a"><stop offset="0" stop-color="#496fa4"/><stop offset="1" stop-color="#343b41"/></linearGradient><linearGradient id="b"><stop offset="0" stop-color="#2b84d0"/><stop offset="1" stop-color="#1767a9"/></linearGradient><linearGradient gradientTransform="matrix(.93432 0 0 .93432 10.25 8.24)" xlink:href="#c" id="g" x1="171.608" y1="145.557" x2="182.334" y2="137.027" gradientUnits="userSpaceOnUse"/><linearGradient id="c"><stop offset="0" stop-color="#fff"/><stop offset="1" stop-color="#fff" stop-opacity="0"/></linearGradient><linearGradient gradientTransform="matrix(.93432 0 0 .93432 10.432 12.266)" xlink:href="#c" id="f" x1="141.393" y1="166.845" x2="131.722" y2="175.073" gradientUnits="userSpaceOnUse"/><linearGradient xlink:href="#a" id="d" x1="99.818" y1="164.367" x2="220.995" y2="164.367" gradientUnits="userSpaceOnUse"/><linearGradient xlink:href="#b" id="e" gradientUnits="userSpaceOnUse" x1="115.452" y1="160" x2="204.026" y2="160.174"/></defs><g transform="translate(-112 -112)"><path style="isolation:auto;mix-blend-mode:normal;marker:none" d="M160 205.009l-39.99-23.09v-46.178L160 112.65l39.993 23.09v46.178z" color="#000" display="block" overflow="visible" fill-opacity=".018" stroke-width=".09"/><path style="isolation:auto;mix-blend-mode:normal;marker:none" d="M122.003 180.768v1.868L160 204.575l37.997-21.939v-1.868L160 202.706z" color="#000" overflow="visible" fill="#131a20" fill-opacity=".092" stroke-width=".086"/><path style="isolation:auto;mix-blend-mode:normal;marker:none" d="M192.612 192.612l-44.549 11.936-32.611-32.611 11.936-44.549 44.549-11.936 32.611 32.611z" transform="rotate(45 148.122 164.921) scale(.95134)" color="#000" display="block" overflow="visible" fill="url(#d)" stroke-width=".068"/><path transform="rotate(45 96.152 186.447) scale(.76107)" d="M192.612 192.612l-44.549 11.936-32.611-32.611 11.936-44.549 44.549-11.936 32.611 32.611z" style="isolation:auto;mix-blend-mode:normal;marker:none" color="#000" display="block" overflow="visible" fill="url(#e)" stroke-width=".068"/><path style="isolation:auto;mix-blend-mode:normal;marker:none" d="M129.602 176.38v-35.1L160 123.73l30.398 17.55z" color="#000" overflow="visible" fill="#fff" fill-opacity=".058" stroke-width=".052"/><path style="isolation:auto;mix-blend-mode:normal;marker:none" d="M160 123.729l-30.398 17.551v4.672L160 128.4l30.398 17.55v-4.67z" color="#000" display="block" overflow="visible" fill-opacity=".466" stroke-width=".052"/><path style="isolation:auto;mix-blend-mode:normal;marker:none" d="M129.602 176.385v1.45L160 195.387l30.398-17.552v-1.45L160 193.936z" color="#000" display="block" overflow="visible" fill="#faf8fb" fill-opacity=".24" stroke-width=".052"/><path style="isolation:auto;mix-blend-mode:normal;marker:none" d="M160 114.953l-37.997 21.939v.934L160 115.888l37.997 21.938v-.934z" color="#000" display="block" overflow="visible" fill="#fff" fill-opacity=".267" stroke-width=".064"/><path d="M167.465 127.97v5.876h-15.043v-5.64h-.594v5.64h-8.943v-.108h-.537v.108h-.57v.447h.57v8.5h-12.221v.508h12.22v8.441h-9.001v-12.015h-.477v12.015h-3.11v.563h3.11v13.763l-2.883-.047-.008.563 2.89.047v11.47h.478v-11.462l9.001.146v8.72h-7.285l-.008.507h7.293v7.455h.537v-.431l8.944.083v6.027h.593v-4.298l15.043.246v4.519l.594.008v-5.976l9.224-.159v.268l.002-.268.684.012.008-.45-.688-.01-.165-7.026h11.748l.01-.506h-11.754l.056-8.154 9.579.156-.118 10.735.356.004.117-10.733 2.266.037.01-.56-2.27-.038.135-14.648h1.914v-.563h-1.908l.105-11.441-.357-.004-.106 11.445h-9.613l.059-8.441h12.393v-.508h-12.39l.06-8.5h.726v-.447H168.06v-5.865zm-24.58 6.323h8.943v8.5h-8.943zm9.537 0h15.043v8.5h-15.043zm15.637 0h8.998v8.5h-8.998zm-25.174 9.008h8.943v8.441h-8.943zm9.537 0h15.043v8.441h-15.043zm15.637 0h8.998v8.441h-8.998zm-34.713 9.004h9.002v13.918l-9.002-.147zm9.539 0h8.943v14.072l-8.943-.145zm9.537 0h15.043v14.328l-15.043-.246zm15.637 0h8.998v14.484l-8.998-.146zm9.23 0h9.611l-.134 14.642-9.578-.156zm-34.404 14.49l8.943.144v8.567h-8.943zm9.537.154l15.043.244v8.313h-15.043zm15.637.254l8.998.147v8.156h-8.998zm-25.174 8.809h8.943v6.66l-8.943-.083zm9.537 0h15.043v8.633l-15.043-.245zm15.637 0h8.998l.226 7.025-9.224.159z" style="line-height:normal;font-variant-ligatures:normal;font-variant-position:normal;font-variant-caps:normal;font-variant-numeric:normal;font-variant-alternates:normal;font-feature-settings:normal;text-indent:0;text-align:start;text-decoration-line:none;text-decoration-style:solid;text-decoration-color:#000;text-transform:none;text-orientation:mixed;shape-padding:0;isolation:auto;mix-blend-mode:normal" color="#000" font-weight="400" font-family="sans-serif" white-space="normal" overflow="visible" opacity=".276" fill="#fff" fill-opacity=".309" fill-rule="evenodd" stroke-width=".474"/><path d="M159.566 198.084a.665.665 0 0 0-.084.838l-1.094 1.095.186.185 1.094-1.094a.665.665 0 0 0 .922-.922l1.094-1.094-.186-.186-1.094 1.095a.665.665 0 0 0-.838.083zm.141.142a.462.462 0 0 1 .263-.13v.208a.257.257 0 0 0-.184.185h-.21a.462.462 0 0 1 .131-.263zm.397-.13a.461.461 0 0 1 .391.393h-.208a.257.257 0 0 0-.183-.184zm-.527.526h.21a.257.257 0 0 0 .183.183v.209a.462.462 0 0 1-.393-.392zm.527.182a.257.257 0 0 0 .182-.182h.209a.462.462 0 0 1-.391.391z" style="isolation:auto;mix-blend-mode:normal;marker:none" color="#000" display="block" overflow="visible" fill="#fff" fill-opacity=".435" stroke-width=".004" stroke-opacity=".965"/><path style="isolation:auto;mix-blend-mode:normal;marker:none" d="M160.506 198.084a.665.665 0 0 0-.838-.083l-1.094-1.095-.186.186 1.095 1.095a.665.665 0 0 0 .921.921l1.094 1.094.186-.185-1.095-1.095a.665.665 0 0 0-.083-.838zm-.141.142a.462.462 0 0 1 .13.262h-.209a.257.257 0 0 0-.185-.184v-.209c.097.014.19.057.264.13zm.13.396a.462.462 0 0 1-.393.392v-.21a.256.256 0 0 0 .184-.183zm-.527-.527v.21a.257.257 0 0 0-.182.184h-.21a.462.462 0 0 1 .392-.394zm-.182.527a.258.258 0 0 0 .182.182v.21a.462.462 0 0 1-.39-.392z" color="#000" overflow="visible" fill="#fff" fill-opacity=".435" stroke-width=".004" stroke-opacity=".965"/><path d="M139.72 164.813c-.098-.038-.182.019-.241.099l-.91 1.241.01.005a4.77 4.77 0 0 0-.962.018l-.972-1.198c-.063-.077-.15-.13-.246-.086l-1.405.624c-.096.043-.115.142-.1.24l.23 1.495a4.77 4.77 0 0 0-.693.713l-1.494-.156c-.1-.01-.198.015-.236.113l-.552 1.435c-.037.099.02.182.1.241l1.186.87a4.77 4.77 0 0 0 .02 1.04l-1.14.925c-.077.063-.129.15-.086.247l.625 1.404c.042.096.141.116.24.1l1.43-.22a4.77 4.77 0 0 0 .771.737l-.15 1.44c-.01.1.015.199.113.237l1.435.551c.099.038.182-.02.241-.1l.858-1.17a4.77 4.77 0 0 0 1.054-.033l.923 1.137c.064.077.15.13.247.086l1.404-.624c.096-.043.116-.143.101-.241l-.226-1.463a4.77 4.77 0 0 0 .693-.743l1.49.154c.1.01.198-.014.236-.112l.551-1.435c.038-.098-.019-.183-.1-.242l-1.23-.9a4.77 4.77 0 0 0-.03-.966l1.194-.968c.077-.063.13-.15.087-.247l-.625-1.404c-.042-.096-.142-.116-.241-.1l-1.52.234.003.013a4.77 4.77 0 0 0-.698-.663h.004l.16-1.542c.01-.1-.014-.198-.113-.236l-1.434-.551zm-1.116 5.026a1.105 1.105 0 0 1 .634 1.428 1.105 1.105 0 0 1-1.427.634 1.105 1.105 0 0 1-.635-1.427 1.105 1.105 0 0 1 1.428-.635z" style="isolation:auto;mix-blend-mode:normal;marker:none" color="#000" overflow="visible" fill="none" stroke="url(#f)" stroke-width=".202" stroke-linecap="round" stroke-linejoin="round" paint-order="stroke fill markers"/><path style="isolation:auto;mix-blend-mode:normal;marker:none" d="M175.134 134.504c-.11-.002-.174.085-.203.186l-.45 1.558.01.002a5.027 5.027 0 0 0-.945.366l-1.396-.833c-.09-.054-.196-.074-.275.004l-1.164 1.127c-.08.077-.063.182-.012.274l.769 1.396a5.027 5.027 0 0 0-.427.956l-1.536.388c-.102.026-.19.086-.193.197l-.025 1.62c-.002.11.084.173.186.202l1.489.432a5.027 5.027 0 0 0 .396 1.022l-.792 1.328c-.054.09-.074.196.004.276l1.127 1.163c.077.08.182.064.274.013l1.335-.737a5.027 5.027 0 0 0 1.03.45l.375 1.48c.026.103.086.191.197.193l1.62.026c.11.002.173-.085.202-.186l.426-1.469a5.027 5.027 0 0 0 1.03-.415l1.326.79c.09.055.196.075.276-.003l1.163-1.127c.08-.077.063-.183.013-.275l-.754-1.366a5.027 5.027 0 0 0 .417-.987l1.53-.387c.103-.026.191-.086.193-.196l.026-1.62c.002-.111-.085-.175-.186-.204l-1.544-.445a5.027 5.027 0 0 0-.38-.945l.83-1.39c.055-.091.075-.197-.003-.276l-1.127-1.164c-.077-.08-.183-.063-.275-.012l-1.42.783.009.011a5.027 5.027 0 0 0-.931-.402l.004-.001-.401-1.584c-.026-.102-.086-.19-.197-.193l-1.62-.025zm.716 5.38a1.164 1.164 0 0 1 1.146 1.182 1.164 1.164 0 0 1-1.183 1.146 1.164 1.164 0 0 1-1.146-1.183 1.164 1.164 0 0 1 1.183-1.145z" color="#000" overflow="visible" fill="none" stroke="url(#g)" stroke-width=".213" stroke-linecap="round" stroke-linejoin="round" paint-order="stroke fill markers"/><path style="isolation:auto;mix-blend-mode:normal;marker:none" d="M159.702 119.747a.473.473 0 0 0-.06.597l-.778.778.132.132.779-.779a.473.473 0 0 0 .655-.655l.779-.779-.133-.132-.778.78a.473.473 0 0 0-.597.058zm.1.1a.328.328 0 0 1 .187-.092v.149a.183.183 0 0 0-.131.131h-.149a.33.33 0 0 1 .093-.187zm.282-.092a.329.329 0 0 1 .279.28h-.149a.183.183 0 0 0-.13-.131zm-.374.375h.149a.182.182 0 0 0 .13.13v.149a.33.33 0 0 1-.28-.279zm.374.13a.182.182 0 0 0 .13-.13h.149a.328.328 0 0 1-.279.278z" color="#000" display="block" overflow="visible" fill="#fff" fill-opacity=".435" stroke-width=".003" stroke-opacity=".965"/><path d="M160.37 119.747a.473.473 0 0 0-.596-.06l-.778-.778-.132.132.778.78a.473.473 0 0 0 .656.655l.779.778.132-.132-.78-.779a.473.473 0 0 0-.058-.596zm-.1.1a.328.328 0 0 1 .093.188h-.149a.183.183 0 0 0-.131-.132v-.148a.33.33 0 0 1 .187.093zm.093.283a.329.329 0 0 1-.28.279v-.15a.183.183 0 0 0 .13-.13zm-.375-.375v.15a.182.182 0 0 0-.13.13h-.149a.33.33 0 0 1 .279-.28zm-.13.375a.182.182 0 0 0 .13.13v.148a.328.328 0 0 1-.278-.278z" style="isolation:auto;mix-blend-mode:normal;marker:none" color="#000" display="block" overflow="visible" fill="#fff" fill-opacity=".435" stroke-width=".003" stroke-opacity=".965"/><g fill="#fff" stroke-width=".176"><path d="M156.014 166.971c-.371.39-.868.686-1.412.73-.172-.077-.33.248-.459.012-.344-.066-.709-.113-.996-.334-.865-.533-1.293-1.698-.916-2.654.315-.885 1.22-1.541 2.171-1.487 1.028.03 2.005.834 2.142 1.87.108.657-.073 1.37-.53 1.863zm.147-3.356c-.938-.968-2.666-.991-3.62-.033-.895.842-1.091 2.35-.366 3.36.603.901 1.798 1.367 2.846 1.058.23-.061.45-.154.653-.278.222.005.345-.305.537-.416.615-.63.883-1.579.661-2.435a2.527 2.527 0 0 0-.71-1.255M155.457 155.627c-.942.637-2.351.39-3.02-.53-.618-.802-.578-2.019.083-2.783.597-.74 1.69-1.009 2.563-.634a2.237 2.237 0 1 1 .375 3.947zm.027.419c.752-.415 1.289-1.208 1.352-2.07a2.612 2.612 0 0 0-4.137-2.334c-.826.589-1.239 1.683-1.015 2.67.197.98 1.014 1.787 1.99 1.989.609.138 1.26.041 1.81-.255zM167.671 166.94c-.65.69-1.754.882-2.597.448-.83-.407-1.356-1.363-1.217-2.284.059-.448.258-.875.56-1.21.015-.119.225-.234.327-.328.78-.582 1.94-.567 2.701.043.786.595 1.083 1.735.688 2.639a2.211 2.211 0 0 1-.462.693zm.22-3.432c-.756-.76-1.997-.957-2.958-.483-.387.185-.73.466-.98.816-.03.134-.197.31-.25.475-.45.947-.243 2.158.51 2.891.734.787 1.98 1.005 2.948.542.909-.407 1.53-1.371 1.516-2.368a2.623 2.623 0 0 0-.785-1.873M163.157 160.584c-.322 1.125-1.329 2.026-2.484 2.21-.206-.008-.081.29-.221.08-.203-.095-.572-.007-.656.072-.106-.309-.544-.077-.79-.278-1.266-.45-2.173-1.755-2.111-3.105.028-1.439 1.133-2.789 2.56-3.046 1.159-.241 2.429.213 3.156 1.152a3.22 3.22 0 0 1 .546 2.915zm.45-.283c.129-.69.038-1.411-.22-2.06-.142-.051-.171.092-.089-.1-.06-.335-.332-.583-.525-.85-.869-1-2.316-1.446-3.596-1.09-1.333.34-2.4 1.514-2.603 2.876-.213 1.256.294 2.606 1.311 3.382.29.202.692.524.998.504.051-.14.076.245.262.133.272.109.701.139.886.054.34.202.767-.044 1.13-.087 1.239-.378 2.234-1.479 2.446-2.762"/><path d="M177.002 162.24a1.945 1.945 0 0 0-.149-.033c-.485-.078-.99-.047-1.542.096a6.018 6.018 0 0 0-1.4.576l-.185-.05-.015.224c-.003.046-.018.096-.03.142a4.425 4.425 0 0 1-.2.672l-.09.275a2.754 2.754 0 0 1-.08.24c-.02.05-.038.106-.059.167a4.076 4.076 0 0 1-.195.502l-.021.045a.748.748 0 0 0-.058.142l-.042.156.174.073c.487 1.06 1.13 1.811 1.926 2.239l.08.037.038.018c-.013.096-.079.307-.234.574l-.31.528c-.187.294-.358.435-.395.473a2.261 2.261 0 0 0-.133-.102 3.655 3.655 0 0 0-1.448-.583c-.516-.105-1.02-.11-1.492-.094l-.117-.1-.119.148a1.054 1.054 0 0 1-.114.123c-.38.435-.646.733-.645.734-.013.012-.303.278-.71.665-.038.028-.081.066-.144.122l-.132.12.135.162c.007.548.037 1.008.144 1.452.127.54.33.992.616 1.378l.094.12c-.047.08-.194.248-.444.422l-.529.334c-.26.163-.472.235-.562.249l-.073-.134c-.226-.413-.563-.787-1.03-1.144a5.638 5.638 0 0 0-1.325-.74l-.058-.133-.17.072a1.46 1.46 0 0 0-.164.078c-.25.119-.465.198-.65.266-.168.063-.26.095-.261.095l-.35.124a4.94 4.94 0 0 1-.57.175l-.104.026-.06.016-.187.038.05.215c-.228.441-.4.907-.515 1.393-.112.576-.122 1.055-.037 1.486.006.056.016.11.03.167-.081.05-.286.128-.586.17l-.607.089c-.231.018-.45.008-.586-.028l-.034-.01.003-.071.003-.086a3.75 3.75 0 0 0-.443-1.478 6.366 6.366 0 0 0-.883-1.25l-.054-.129-.147-.008a24.326 24.326 0 0 0-.845-.03l-1.267-.17-.127-.02-.18-.049-.057.213c-.933.708-1.52 1.503-1.742 2.364l-.027.118-.008.035c-.087.013-.318.005-.609-.094l-.587-.197a2.292 2.292 0 0 1-.477-.227l-.07-.061a2.43 2.43 0 0 1 .065-.148c.335-.848.333-1.884-.004-3.001l.096-.152-.206-.083-.068-.033-.066-.031c-.513-.296-.857-.492-.858-.492-.005-.004-.088-.058-.24-.14a9.017 9.017 0 0 1-.226-.158c-.106-.074-.226-.16-.34-.233a1.065 1.065 0 0 0-.108-.086l-.198-.148-.123.175c-.835.192-1.865.525-2.59 1.37l-.036.04-.066.08c-.108-.038-.301-.154-.509-.345l-.226-.21c-.103-.1-.204-.21-.21-.217-.216-.222-.329-.413-.36-.5.039-.031.079-.065.118-.101.836-.756 1.14-1.826 1.302-2.698l.138-.073-.649-.874a3.632 3.632 0 0 0-.144-.236c-.013-.021-.214-.362-.503-.832l-.051-.102-.027-.05-.072-.178-.214.097c-1.126-.291-2.11-.257-2.914.097-.057.02-.11.044-.16.07-.064-.064-.194-.238-.297-.537l-.216-.578c-.096-.278-.117-.432-.118-.513l.005-.095c.049-.01.1-.023.14-.04.883-.256 1.676-.883 2.358-1.862l.187-.01-.069-.226a1.12 1.12 0 0 1-.031-.15c-.098-.59-.154-.98-.155-.985 0-.002-.015-.096-.034-.255-.006-.076-.01-.166-.017-.27a16.593 16.593 0 0 0-.027-.446l-.003-.048c-.004-.05-.007-.1-.017-.147l-.03-.152-.178.004a8.313 8.313 0 0 0-.57-.419 5.017 5.017 0 0 0-.652-.38 3.697 3.697 0 0 0-1.477-.375l-.145.001c-.035-.084-.075-.304-.056-.611l.032-.314c.016-.144.037-.294.038-.298.04-.322.114-.52.16-.6l.04.01.106.023a3.6 3.6 0 0 0 1.542-.103c.45-.11.91-.3 1.402-.574l.145.04.093-.35c.052-.25.118-.454.171-.617l.1-.311s.037-.094.113-.31c.05-.156.118-.37.219-.6.03-.046.057-.106.087-.174l.075-.17-.196-.086c-.485-1.062-1.13-1.815-1.923-2.24a2.338 2.338 0 0 0-.13-.061c.014-.099.08-.309.232-.57l.325-.536c.164-.267.329-.41.405-.457l.036.03.085.066c.41.276.895.471 1.44.582.466.091.92.1 1.493.08l.144.12.112-.177.032-.04.051-.065c.392-.443.655-.732.654-.732.01-.01.297-.277.74-.683l.232-.237-.129-.15c.001-.434-.017-.94-.134-1.45a3.639 3.639 0 0 0-.711-1.502c.05-.084.197-.25.44-.426l.527-.325c.286-.174.49-.238.573-.25l.032.067.034.07c.238.421.578.796 1.04 1.144.37.277.818.527 1.334.743l.08.111.197-.086c.025-.013.052-.026.11-.049.194-.104.367-.166.52-.22l.124-.046c.166-.057.26-.093.26-.093.003-.001.102-.036.241-.094l.111-.038c.154-.052.345-.118.59-.175l.062-.017.112-.031.174-.064-.07-.19c.25-.49.413-.942.498-1.378a3.542 3.542 0 0 0 .015-1.65c.083-.05.291-.133.598-.181l.595-.09c.255-.016.518.012.621.044l.002.04.006.11a3.77 3.77 0 0 0 .437 1.49c.232.452.562.87.862 1.225l-.01.153.263.004.1.003c.295.02.544.027.72.031a2.5 2.5 0 0 1 .254.028s.391.056.965.128l.106.02.065.012.194.052.042-.227c.906-.684 1.506-1.498 1.737-2.36l.037-.144c.084-.015.303-.012.606.094l.589.197c.201.072.38.156.476.226l.071.06a3.316 3.316 0 0 0-.061.142c-.34.844-.339 1.86.004 3.021l-.064.14.206.098.096.047c.52.292.864.494.87.498.003.001.087.048.221.13.122.08.272.185.455.312l.122.08.093.079.195.159.14-.183c1.193-.26 2.019-.696 2.584-1.358a.91.91 0 0 0 .106-.124c.106.034.3.151.511.342 0 0 .112.107.228.208.106.098.201.209.21.22.21.22.323.407.356.495l-.12.098c-.863.798-1.162 1.935-1.309 2.739l-.075.094.069.111a.819.819 0 0 0 .104.142c.101.143.196.27.278.38l.142.191c.086.148.15.236.153.237.02.034.211.367.516.856a.79.79 0 0 0 .084.162l.104.143.16-.104c1.104.291 2.115.258 2.932-.098l.14-.068c.064.06.196.235.301.54l.209.58c.07.191.114.383.117.517v.083a3.233 3.233 0 0 0-.155.043c-.873.26-1.666.891-2.357 1.879l-.135.032.029.173c.01.06.021.125.03.16.096.59.151.984.154.998 0 .004.02.1.04.241.004.175.021.43.046.722l.01.36.223-.016c.189.157.38.296.562.412.205.144.425.274.658.39.522.238.992.36 1.463.374H177.177c.03.085.066.292.053.618 0 .003-.008.145-.03.297l-.034.31c-.036.309-.113.515-.163.595zm.564-.859c.025-.162.033-.325.034-.327.016-.415-.02-.925-.292-.998l-.08-.007c-.048.003-.096.002-.147.001h-.048c-.413-.013-.846-.125-1.311-.34a4.557 4.557 0 0 1-.61-.362 5.3 5.3 0 0 1-.588-.436l-.045-.037c-.025-.29-.04-.538-.047-.725a3.279 3.279 0 0 0-.044-.28c-.004-.023-.06-.414-.156-1.005l-.009-.041c.648-.94 1.383-1.536 2.187-1.775.048-.015.096-.027.141-.038l.034-.01c.1-.01.264-.084.243-.448a2.106 2.106 0 0 0-.14-.628l-.207-.576c-.12-.351-.346-.733-.576-.794a.244.244 0 0 0-.178.015l-.19.094c-.74.322-1.675.346-2.705.07l-.101-.028-.005-.007c-.318-.506-.51-.843-.525-.865-.004-.005-.061-.081-.148-.23a9.164 9.164 0 0 0-.156-.213c-.081-.107-.174-.23-.29-.392l-.023-.027c.218-1.2.589-1.988 1.194-2.547l.153-.125a.251.251 0 0 0 .102-.184c.024-.279-.352-.697-.462-.81 0 0-.11-.13-.236-.247-.113-.099-.22-.2-.224-.205-.245-.222-.5-.383-.683-.432-.189-.05-.287.023-.344.092a.77.77 0 0 1-.113.14c-.53.622-1.312 1.023-2.457 1.264l-.049.01-.002-.003-.144-.099a23.228 23.228 0 0 0-.467-.32 4.995 4.995 0 0 0-.238-.14c-.01-.006-.354-.208-.864-.493l-.06-.033c-.33-1.096-.338-2.043-.028-2.816.024-.056.051-.121.076-.169.058-.1.07-.263-.208-.47a2.351 2.351 0 0 0-.577-.278l-.59-.197a2.331 2.331 0 0 0-.168-.053c-.131-.035-.576-.138-.791.009-.065.044-.105.107-.108.152l-.052.196c-.214.799-.788 1.56-1.66 2.201l-.048.037-.007-.002c-.59-.075-.977-.13-.978-.13-.003-.001-.11-.02-.295-.033-.18-.004-.423-.01-.73-.031h-.052c-.294-.345-.619-.752-.842-1.186a3.404 3.404 0 0 1-.396-1.35l-.005-.092-.006-.075c.01-.087-.017-.243-.301-.32a2.394 2.394 0 0 0-.725-.044l-.613.092c-.12.018-.724.125-.881.366a.251.251 0 0 0-.037.203 3.206 3.206 0 0 1 0 1.551c-.084.428-.248.871-.503 1.355l-.026.05c-.238.055-.436.122-.595.177l-.12.04a5.542 5.542 0 0 1-.239.094c-.002 0-.093.035-.26.093l-.123.045a3.506 3.506 0 0 0-.54.23l-.076.03a5.901 5.901 0 0 1-1.276-.706c-.427-.322-.726-.649-.935-1.02l-.027-.056a1.688 1.688 0 0 0-.07-.137.262.262 0 0 0-.167-.131c-.26-.07-.713.182-.896.293l-.539.333c-.283.202-.595.5-.621.725a.257.257 0 0 0 .064.206c.04.042.078.086.12.149.259.35.444.767.552 1.238.091.4.128.828.124 1.436v.063a96.13 96.13 0 0 0-.735.68s-.267.292-.688.772l-.007.01c-.569.02-1.012.014-1.456-.072a3.625 3.625 0 0 1-1.299-.522l-.063-.05-.095-.074-.09-.046c-.283-.075-.652.386-.808.642l-.326.54c-.061.104-.362.638-.268.916a.255.255 0 0 0 .148.158c.063.023.12.05.165.073.73.393 1.33 1.109 1.785 2.128l.017.04a6.129 6.129 0 0 0-.255.691c-.06.167-.095.257-.099.266l-.105.324a5.979 5.979 0 0 0-.18.646l-.011.045c-.474.27-.93.46-1.363.566a3.243 3.243 0 0 1-1.37.1l-.104-.025c-.096-.022-.21-.048-.305.016-.234.157-.32.722-.341.888 0 0-.022.157-.038.31l-.033.319c-.014.213-.033.914.296 1.002l.266.01c.431.014.884.13 1.324.34.203.096.406.214.605.351.241.165.43.306.595.442l.04.034.001.009c.013.161.021.31.028.438.006.107.01.2.018.285.02.175.036.275.036.276.001.007.058.398.155.984l.01.066c-.64.939-1.378 1.535-2.208 1.777-.046.018-.114.03-.172.04-.152.033-.228.185-.225.45.003.159.048.364.14.632l.216.578c.12.35.345.73.574.79.069.02.138.01.193-.022a.963.963 0 0 1 .174-.082c.754-.33 1.678-.353 2.748-.067l.062.017.002.005c.31.511.514.857.522.87.003.002.055.079.146.237l.467.623c-.15.823-.425 1.848-1.198 2.546a1.542 1.542 0 0 1-.16.132.264.264 0 0 0-.086.195c-.01.288.36.69.468.802 0 0 .11.122.225.232l.23.212c.243.225.5.387.685.437.196.053.29-.03.333-.09a1.02 1.02 0 0 1 .09-.11l.035-.044c.526-.611 1.285-1 2.46-1.264l.037-.008.013.011c.132.089.25.173.353.246.089.064.168.12.25.173.148.08.223.13.238.138l.885.507.037.018c.33 1.059.342 2.032.038 2.803a2.074 2.074 0 0 0-.08.187c-.057.1-.069.262.208.47.14.097.341.195.57.277l.592.2c.053.017.105.033.156.046.131.036.577.14.798.002.065-.04.107-.1.118-.157l.025-.105.024-.103c.205-.794.762-1.534 1.656-2.2l.048-.035h.003l.995.14.289.032c.177.003.42.011.725.025l.053.002c.367.416.637.796.847 1.194.232.436.366.884.4 1.312l-.002.06a3.17 3.17 0 0 0-.006.163c.003.097.06.227.31.295.177.047.437.061.724.037l.617-.09c.167-.023.724-.118.878-.356a.251.251 0 0 0 .033-.208 1.016 1.016 0 0 1-.04-.191c-.08-.408-.07-.828.032-1.356.112-.471.284-.928.513-1.36l.025-.045c.248-.058.457-.132.61-.188l.349-.122.293-.108c.164-.06.389-.143.667-.275l.036-.02c.494.196.926.434 1.284.71.426.324.73.66.946 1.057.03.056.062.114.077.13.026.076.089.133.174.155.216.058.601-.114.89-.295l.538-.338c.282-.198.593-.489.62-.717a.254.254 0 0 0-.056-.2c-.033-.04-.083-.1-.12-.152a3.292 3.292 0 0 1-.555-1.246c-.104-.43-.129-.884-.136-1.435v-.044l.008-.006c.432-.409.724-.677.738-.69 0 0 .27-.303.644-.735l.06-.059c.461-.015.953-.015 1.449.087.495.088.93.26 1.304.521.05.036.097.072.15.119l.093.048c.328.088.734-.519.815-.647l.314-.534c.085-.147.356-.646.268-.915a.251.251 0 0 0-.141-.157l-.091-.042-.079-.036c-.724-.39-1.322-1.104-1.78-2.124l-.02-.048c.096-.203.157-.386.207-.533.019-.057.036-.109.054-.156.061-.164.088-.262.088-.263.003-.01.035-.102.084-.257.086-.218.158-.46.211-.709l.015-.06c.453-.256.894-.44 1.35-.561.5-.13.954-.159 1.386-.09.068.013.125.03.202.049a.27.27 0 0 0 .207-.054c.233-.173.314-.715.333-.878l.032-.307"/><path d="M165.987 155.892c-.752.013-1.506-.381-1.905-1.021a2.243 2.243 0 0 1-.12-2.224c-.13-.054-.188-.103-.01-.046.18-.157.266-.425.47-.577.676-.656 1.779-.811 2.603-.348.764.41 1.257 1.281 1.175 2.15-.068.999-.882 1.889-1.875 2.033-.112.02-.225.03-.338.033zm.008.37a2.723 2.723 0 0 0 1.195-.308c-.072-.124-.104-.184.025-.054.23-.017.388-.257.573-.381.72-.694.988-1.816.634-2.755-.358-1.01-1.382-1.746-2.46-1.725-.915-.002-1.822.506-2.258 1.319-.176.106.254.192-.006.136-.209.065-.19.384-.277.565-.061.265-.082.54-.058.811.139.012.23.046.031.057-.04.212.066.449.127.657.344.944 1.281 1.626 2.284 1.673.063.004.127.006.19.006"/></g><circle style="isolation:auto;mix-blend-mode:normal;marker:none" cx="194.128" cy="140.015" r="1.828" color="#000" display="block" overflow="visible" fill="#fdfeff" fill-opacity=".198" stroke-width=".466" stroke-linejoin="round"/><circle style="isolation:auto;mix-blend-mode:normal;marker:none" cx="125.781" cy="139.453" r="1.828" color="#000" display="block" overflow="visible" fill="#fdfeff" fill-opacity=".198" stroke-width=".466" stroke-linejoin="round"/><circle r="1.828" cy="179.017" cx="125.781" style="isolation:auto;mix-blend-mode:normal;marker:none" color="#000" display="block" overflow="visible" fill="#fdfeff" fill-opacity=".198" stroke-width=".466" stroke-linejoin="round"/><circle style="isolation:auto;mix-blend-mode:normal;marker:none" cx="160.095" cy="198.612" r="1.828" color="#000" display="block" overflow="visible" opacity=".276" fill="#2b84d0" stroke="#fff" stroke-width=".466" stroke-linejoin="round"/><circle r="1.828" cy="179.111" cx="193.566" style="isolation:auto;mix-blend-mode:normal;marker:none" color="#000" display="block" overflow="visible" fill="#fdfeff" fill-opacity=".198" stroke-width=".466" stroke-linejoin="round"/><circle r="1.828" cy="120.046" cx="160.001" style="isolation:auto;mix-blend-mode:normal;marker:none" color="#000" display="block" overflow="visible" opacity=".276" fill="#2b84d0" stroke="#fff" stroke-width=".466" stroke-linejoin="round"/></g></svg>