<svg xmlns:osb="http://www.openswatchbook.org/uri/2009/osb" xmlns="http://www.w3.org/2000/svg" xmlns:xlink="http://www.w3.org/1999/xlink" height="96" viewBox="0 0 96 96" width="96"><title>Template icons dark</title><defs><linearGradient id="h"><stop offset="0" stop-color="#f72424" stop-opacity=".066"/><stop offset="1" stop-color="#f72424" stop-opacity=".118"/></linearGradient><linearGradient id="g" osb:paint="solid"><stop offset="0" stop-opacity=".196"/></linearGradient><linearGradient id="f" osb:paint="solid"><stop offset="0" stop-color="#fff" stop-opacity=".162"/></linearGradient><linearGradient id="e" osb:paint="solid"><stop offset="0" stop-opacity=".009"/></linearGradient><linearGradient id="d" osb:paint="solid"><stop offset="0" stop-opacity=".026"/></linearGradient><linearGradient id="b"><stop offset="0" stop-color="#fa2727"/><stop offset="1" stop-color="#fb4e4e"/></linearGradient><linearGradient id="a"><stop offset="0" stop-color="#fa2727"/><stop offset="1" stop-color="#d90101"/></linearGradient><linearGradient xlink:href="#a" id="k" gradientUnits="userSpaceOnUse" gradientTransform="matrix(2.19434 0 0 2.19615 107.378 109.173)" x1="24.117" y1="4.931" x2="24.058" y2="42.556"/><linearGradient xlink:href="#b" id="q" gradientUnits="userSpaceOnUse" gradientTransform="matrix(2.50782 0 0 2.19615 97.007 108.932)" x1="33.094" y1="10.504" x2="29.904" y2="14.147"/><linearGradient xlink:href="#c" id="n" gradientUnits="userSpaceOnUse" gradientTransform="matrix(2.19434 0 0 2.19615 107.378 109.173)" x1="23.981" y1="23.144" x2="45.855" y2="1.287"/><linearGradient xlink:href="#c" id="m" gradientUnits="userSpaceOnUse" gradientTransform="matrix(2.19434 0 0 2.19615 107.378 109.173)" x1="23.981" y1="23.144" x2="2.106" y2="45"/><linearGradient xlink:href="#c" id="l" gradientUnits="userSpaceOnUse" gradientTransform="matrix(2.19434 0 0 2.19615 107.378 109.173)" x1="23.981" y1="23.144" x2="45.855" y2="45"/><linearGradient id="c"><stop offset="0" stop-opacity="0"/><stop offset="1" stop-opacity=".102"/></linearGradient><linearGradient xlink:href="#c" id="o" gradientUnits="userSpaceOnUse" gradientTransform="matrix(2.19434 0 0 2.19615 107.378 109.173)" x1="23.981" y1="23.144" x2="2.106" y2="1.287"/><linearGradient xlink:href="#d" id="j" x1="126" y1="161.5" x2="194" y2="161.5" gradientUnits="userSpaceOnUse"/><linearGradient xlink:href="#e" id="i" x1="125" y1="161.5" x2="195" y2="161.5" gradientUnits="userSpaceOnUse"/><linearGradient xlink:href="#f" id="r" x1="127" y1="120.5" x2="169" y2="120.5" gradientUnits="userSpaceOnUse"/><linearGradient xlink:href="#g" id="p" x1="166" y1="133.472" x2="193" y2="133.472" gradientUnits="userSpaceOnUse"/></defs><path d="M125 118h44l26 26v61h-70z" style="isolation:auto;mix-blend-mode:normal;marker:none" color="#000" overflow="visible" fill="url(#i)" stroke-width=".879" paint-order="fill markers stroke" transform="translate(-112 -112)"/><path style="isolation:auto;mix-blend-mode:normal;marker:none" d="M126 119h43l25 25v60h-68v-85z" color="#000" overflow="visible" fill="url(#j)" stroke-width=".852" paint-order="fill markers stroke" transform="translate(-112 -112)"/><path d="M127 120h42l24 24v59h-66v-83z" style="isolation:auto;mix-blend-mode:normal;marker:none" color="#000" overflow="visible" fill="url(#k)" stroke-width=".829" paint-order="fill markers stroke" transform="translate(-112 -112)"/><path style="isolation:auto;mix-blend-mode:normal;marker:none" d="M127 120h42l24 24v59h-66z" color="#000" overflow="visible" fill="url(#l)" stroke-width=".829" paint-order="fill markers stroke" transform="translate(-112 -112)"/><path d="M127 120h42l24 24v59h-66z" style="isolation:auto;mix-blend-mode:normal;marker:none" color="#000" overflow="visible" fill="url(#m)" stroke-width=".829" paint-order="fill markers stroke" transform="translate(-112 -112)"/><path style="isolation:auto;mix-blend-mode:normal;marker:none" d="M127 120h42l24 24v59h-66z" color="#000" overflow="visible" fill="url(#n)" stroke-width=".829" paint-order="fill markers stroke" transform="translate(-112 -112)"/><path d="M127 120h42l24 24v59h-66z" style="isolation:auto;mix-blend-mode:normal;marker:none" color="#000" overflow="visible" fill="url(#o)" stroke-width=".829" paint-order="fill markers stroke" transform="translate(-112 -112)"/><path d="M169 120l24 24-27 2.945z" fill="url(#p)" fill-rule="evenodd" stroke-width="2.195" transform="translate(-112 -112)"/><path d="M169 120l24 24h-24z" fill="url(#q)" fill-rule="evenodd" stroke-width="2.347" transform="translate(-112 -112)"/><path d="M68.537 55.744c-.81-.798-2.608-1.221-5.344-1.257-1.853-.02-4.082.142-6.426.47-1.05-.605-2.132-1.264-2.982-2.058-2.285-2.134-4.192-5.096-5.38-8.352.077-.304.143-.572.204-.845 0 0 1.287-7.31.947-9.782a2.856 2.856 0 0 0-.167-.7l-.112-.288c-.35-.807-1.036-1.663-2.113-1.616l-.63-.02h-.018c-1.2 0-2.178.613-2.435 1.53-.78 2.878.025 7.182 1.484 12.757l-.373.908c-1.045 2.547-2.355 5.113-3.51 7.376l-.15.294a123.869 123.869 0 0 1-3.318 6.109l-1.032.545c-.075.04-1.845.976-2.26 1.227-3.52 2.101-5.852 4.487-6.24 6.38-.122.605-.03 1.378.596 1.736l.998.503c.433.216.89.326 1.358.326 2.507 0 5.417-3.123 9.427-10.12 4.63-1.507 9.9-2.76 14.52-3.451 3.52 1.982 7.85 3.359 10.582 3.359.485 0 .904-.046 1.244-.136.524-.14.965-.438 1.235-.844.53-.797.637-1.897.493-3.022-.042-.334-.31-.747-.598-1.029zM31.09 69.085c.457-1.25 2.267-3.721 4.943-5.914.168-.137.583-.525.962-.886-2.798 4.463-4.672 6.242-5.905 6.8zM46.94 32.589c.806 0 1.264 2.031 1.302 3.935.038 1.905-.407 3.242-.96 4.23-.457-1.464-.678-3.772-.678-5.28 0 0-.034-2.885.336-2.885zM42.21 58.597a169.732 169.732 0 0 0 1.743-3.189 60.727 60.727 0 0 0 3.058-6.674c1.36 2.476 3.056 4.581 5.048 6.268.249.21.512.422.789.633-4.052.801-7.554 1.777-10.638 2.962zm25.548-.229c-.247.155-.954.244-1.409.244-1.467 0-3.283-.671-5.829-1.762.978-.073 1.875-.11 2.68-.11 1.471 0 1.907-.005 3.347.361 1.44.367 1.457 1.113 1.21 1.267z" fill="#fffcfd" stroke-width="1.26"/><path style="isolation:auto;mix-blend-mode:normal;marker:none" color="#000" display="block" overflow="visible" fill="url(#r)" stroke-width=".2" paint-order="fill markers stroke" d="M127 120h42v1h-42z" transform="translate(-112 -112)"/></svg>