<svg xmlns:osb="http://www.openswatchbook.org/uri/2009/osb" xmlns="http://www.w3.org/2000/svg" xmlns:xlink="http://www.w3.org/1999/xlink" height="96" viewBox="0 0 96 96" width="96" enable-background="new"><title>Template icons dark</title><defs><linearGradient id="g" osb:paint="solid"><stop offset="0" stop-opacity=".196"/></linearGradient><linearGradient id="f" osb:paint="solid"><stop offset="0" stop-color="#fff" stop-opacity=".469"/></linearGradient><linearGradient id="e" osb:paint="solid"><stop offset="0" stop-opacity=".009"/></linearGradient><linearGradient id="d" osb:paint="solid"><stop offset="0" stop-opacity=".022"/></linearGradient><linearGradient id="b"><stop offset="0" stop-color="#92cbd1"/><stop offset="1" stop-color="#41bda9"/></linearGradient><linearGradient id="a"><stop offset="0" stop-color="#44e9b3"/><stop offset="1" stop-color="#43a8ce"/></linearGradient><linearGradient xlink:href="#a" id="j" gradientUnits="userSpaceOnUse" gradientTransform="matrix(2.19434 0 0 2.19615 107.378 109.173)" x1="24.117" y1="4.931" x2="24.058" y2="42.556"/><linearGradient xlink:href="#b" id="p" gradientUnits="userSpaceOnUse" gradientTransform="matrix(2.50782 0 0 2.19615 97.007 108.932)" x1="33.094" y1="10.504" x2="29.904" y2="14.147"/><linearGradient xlink:href="#c" id="m" gradientUnits="userSpaceOnUse" gradientTransform="matrix(2.19434 0 0 2.19615 107.378 109.173)" x1="23.981" y1="23.144" x2="45.855" y2="1.287"/><linearGradient xlink:href="#c" id="l" gradientUnits="userSpaceOnUse" gradientTransform="matrix(2.19434 0 0 2.19615 107.378 109.173)" x1="23.981" y1="23.144" x2="2.106" y2="45"/><linearGradient xlink:href="#c" id="k" gradientUnits="userSpaceOnUse" gradientTransform="matrix(2.19434 0 0 2.19615 107.378 109.173)" x1="23.981" y1="23.144" x2="45.855" y2="45"/><linearGradient id="c"><stop offset="0" stop-opacity="0"/><stop offset="1" stop-opacity=".102"/></linearGradient><linearGradient xlink:href="#c" id="n" gradientUnits="userSpaceOnUse" gradientTransform="matrix(2.19434 0 0 2.19615 107.378 109.173)" x1="23.981" y1="23.144" x2="2.106" y2="1.287"/><linearGradient xlink:href="#d" id="i" x1="126" y1="161.5" x2="194" y2="161.5" gradientUnits="userSpaceOnUse"/><linearGradient xlink:href="#e" id="h" x1="125" y1="161.5" x2="195" y2="161.5" gradientUnits="userSpaceOnUse"/><linearGradient xlink:href="#f" id="r" x1="127" y1="120.5" x2="169" y2="120.5" gradientUnits="userSpaceOnUse"/><linearGradient xlink:href="#g" id="o" x1="166" y1="133.472" x2="193" y2="133.472" gradientUnits="userSpaceOnUse"/><filter id="q" x="-.062" width="1.125" y="-.278" height="1.555" color-interpolation-filters="sRGB"><feGaussianBlur stdDeviation="1.712"/></filter></defs><path d="M125 118h44l26 26v61h-70z" style="isolation:auto;mix-blend-mode:normal;marker:none" color="#000" overflow="visible" fill="url(#h)" stroke-width=".879" paint-order="fill markers stroke" enable-background="accumulate" transform="translate(-112 -112)"/><path style="isolation:auto;mix-blend-mode:normal;marker:none" d="M126 119h43l25 25v60h-68v-85z" color="#000" overflow="visible" fill="url(#i)" stroke-width=".852" paint-order="fill markers stroke" enable-background="accumulate" transform="translate(-112 -112)"/><path d="M127 120h42l24 24v59h-66v-83z" style="isolation:auto;mix-blend-mode:normal;marker:none" color="#000" overflow="visible" fill="url(#j)" stroke-width=".829" paint-order="fill markers stroke" enable-background="accumulate" transform="translate(-112 -112)"/><path style="isolation:auto;mix-blend-mode:normal;marker:none" d="M127 120h42l24 24v59h-66z" color="#000" overflow="visible" fill="url(#k)" stroke-width=".829" paint-order="fill markers stroke" enable-background="accumulate" transform="translate(-112 -112)"/><path d="M127 120h42l24 24v59h-66z" style="isolation:auto;mix-blend-mode:normal;marker:none" color="#000" overflow="visible" fill="url(#l)" stroke-width=".829" paint-order="fill markers stroke" enable-background="accumulate" transform="translate(-112 -112)"/><path style="isolation:auto;mix-blend-mode:normal;marker:none" d="M127 120h42l24 24v59h-66z" color="#000" overflow="visible" fill="url(#m)" stroke-width=".829" paint-order="fill markers stroke" enable-background="accumulate" transform="translate(-112 -112)"/><path d="M127 120h42l24 24v59h-66z" style="isolation:auto;mix-blend-mode:normal;marker:none" color="#000" overflow="visible" fill="url(#n)" stroke-width=".829" paint-order="fill markers stroke" enable-background="accumulate" transform="translate(-112 -112)"/><path d="M169 120l24 24-27 2.945z" fill="url(#o)" fill-rule="evenodd" stroke-width="2.195" transform="translate(-112 -112)"/><path d="M169 120l24 24h-24z" fill="url(#p)" fill-rule="evenodd" stroke-width="2.347" transform="translate(-112 -112)"/><path d="M126.785 162.895s8.22-8.978 16.44-8.978 24.659 14.802 32.879 14.802c8.22 0 16.44-5.824 16.44-5.824" transform="matrix(.90581 0 0 1.0121 -96.632 -110.249)" fill="none" fill-rule="evenodd" stroke="#fff" stroke-width="2" filter="url(#q)"/><path d="M15.583 54.72s8.22-8.978 16.44-8.978c8.219 0 24.659 14.802 32.878 14.802 8.22 0 16.44-5.824 16.44-5.824" fill="none" fill-rule="evenodd" stroke="#fff" stroke-opacity=".518"/><path transform="matrix(.88339 0 0 1.01867 -93.041 -106.54)" d="M126.134 163.016s23.19-11.51 34.923-10.787c11.735.723 17.11 12.51 22.727 12.39 5.616-.12 9.54-3.894 9.54-3.894" fill="none" fill-rule="evenodd" stroke="#fff" stroke-width="2" filter="url(#q)"/><path d="M16.577 59.462S38.191 47.88 49.128 48.608c10.937.728 15.947 12.588 21.182 12.467 5.235-.121 8.893-3.918 8.893-3.918" fill="none" fill-rule="evenodd" stroke="#fff" stroke-opacity=".366"/><path d="M126.134 163.016s37.626-12.067 47.42-10.184c9.794 1.883 11.88 9.255 19.77 7.893" transform="matrix(.88724 0 0 1.01903 -93.442 -106.59)" fill="none" fill-rule="evenodd" stroke="#fff" stroke-width="2" filter="url(#q)"/><path d="M16.577 59.462s34.626-11.885 43.47-9.883c8.845 2.002 8.456 6.238 19.156 7.578" fill="none" fill-rule="evenodd" stroke="#fff" stroke-opacity=".366"/><path transform="matrix(.88105 0 0 1.02497 -92.63 -107.65)" d="M126.134 163.016s16.799-2.421 25.421-1.382c8.623 1.04 32.187 11.064 42.29 1.864" fill="none" fill-rule="evenodd" stroke="#fff" stroke-width="2" filter="url(#q)"/><path d="M16.577 59.462s14.017-1.687 23.694-1.39c9.678.296 24.743 10.212 39.053 2.36" fill="none" fill-rule="evenodd" stroke="#fff" stroke-opacity=".366"/><path style="isolation:auto;mix-blend-mode:normal;marker:none" color="#000" display="block" overflow="visible" fill="url(#r)" stroke-width=".2" paint-order="fill markers stroke" enable-background="accumulate" d="M127 120h42v1h-42z" transform="translate(-112 -112)"/></svg>