<svg xmlns:osb="http://www.openswatchbook.org/uri/2009/osb" xmlns="http://www.w3.org/2000/svg" xmlns:xlink="http://www.w3.org/1999/xlink" height="96" viewBox="0 0 96 96" width="96"><title>Template icons dark</title><defs><linearGradient id="g" osb:paint="solid"><stop offset="0" stop-opacity=".196"/></linearGradient><linearGradient id="f" osb:paint="solid"><stop offset="0" stop-color="#fff" stop-opacity=".782"/></linearGradient><linearGradient id="e" osb:paint="solid"><stop offset="0" stop-opacity="0"/></linearGradient><linearGradient id="d" osb:paint="solid"><stop offset="0" stop-opacity=".157"/></linearGradient><linearGradient id="b"><stop offset="0" stop-color="#fff"/><stop offset="1" stop-color="#dfdfdf"/></linearGradient><linearGradient id="a"><stop offset="0" stop-color="#f0f0f0"/><stop offset="1" stop-color="#fff"/></linearGradient><linearGradient xlink:href="#a" id="k" gradientUnits="userSpaceOnUse" gradientTransform="matrix(2.19434 0 0 2.19615 107.378 109.173)" x1="24.117" y1="4.931" x2="24.058" y2="42.556"/><linearGradient xlink:href="#b" id="q" gradientUnits="userSpaceOnUse" gradientTransform="matrix(2.50782 0 0 2.19615 97.007 108.932)" x1="33.094" y1="10.504" x2="29.904" y2="14.147"/><linearGradient xlink:href="#c" id="n" gradientUnits="userSpaceOnUse" gradientTransform="matrix(2.19434 0 0 2.19615 107.378 109.173)" x1="23.981" y1="23.144" x2="45.855" y2="1.287"/><linearGradient xlink:href="#c" id="m" gradientUnits="userSpaceOnUse" gradientTransform="matrix(2.19434 0 0 2.19615 107.378 109.173)" x1="23.981" y1="23.144" x2="2.106" y2="45"/><linearGradient xlink:href="#c" id="l" gradientUnits="userSpaceOnUse" gradientTransform="matrix(2.19434 0 0 2.19615 107.378 109.173)" x1="23.981" y1="23.144" x2="45.855" y2="45"/><linearGradient id="c"><stop offset="0" stop-opacity="0"/><stop offset="1" stop-opacity=".038"/></linearGradient><linearGradient xlink:href="#c" id="o" gradientUnits="userSpaceOnUse" gradientTransform="matrix(2.19434 0 0 2.19615 107.378 109.173)" x1="23.981" y1="23.144" x2="2.106" y2="1.287"/><linearGradient xlink:href="#d" id="j" x1="126" y1="161.5" x2="194" y2="161.5" gradientUnits="userSpaceOnUse"/><linearGradient xlink:href="#e" id="i" x1="125" y1="161.5" x2="195" y2="161.5" gradientUnits="userSpaceOnUse"/><linearGradient xlink:href="#f" id="s" x1="127" y1="120.5" x2="169" y2="120.5" gradientUnits="userSpaceOnUse"/><linearGradient xlink:href="#g" id="p" x1="166" y1="133.472" x2="193" y2="133.472" gradientUnits="userSpaceOnUse"/><linearGradient id="h" osb:paint="solid"><stop offset="0" stop-opacity=".084"/></linearGradient><linearGradient gradientTransform="matrix(.99982 0 0 1.0003 .017 -.055)" xlink:href="#h" id="r" gradientUnits="userSpaceOnUse" x1="188" y1="173.5" x2="189" y2="173.5"/></defs><path d="M125 118h44l26 26v61h-70z" style="isolation:auto;mix-blend-mode:normal;marker:none" color="#000" overflow="visible" fill="url(#i)" stroke-width=".879" paint-order="fill markers stroke" transform="translate(-112 -112)"/><path style="isolation:auto;mix-blend-mode:normal;marker:none" d="M126 119h43l25 25v60h-68v-85z" color="#000" overflow="visible" fill="url(#j)" stroke-width=".852" paint-order="fill markers stroke" transform="translate(-112 -112)"/><path d="M127 120h42l24 24v59h-66v-83z" style="isolation:auto;mix-blend-mode:normal;marker:none" color="#000" overflow="visible" fill="url(#k)" stroke-width=".829" paint-order="fill markers stroke" transform="translate(-112 -112)"/><path style="isolation:auto;mix-blend-mode:normal;marker:none" d="M127 120h42l24 24v59h-66z" color="#000" overflow="visible" fill="url(#l)" stroke-width=".829" paint-order="fill markers stroke" transform="translate(-112 -112)"/><path d="M127 120h42l24 24v59h-66z" style="isolation:auto;mix-blend-mode:normal;marker:none" color="#000" overflow="visible" fill="url(#m)" stroke-width=".829" paint-order="fill markers stroke" transform="translate(-112 -112)"/><path style="isolation:auto;mix-blend-mode:normal;marker:none" d="M127 120h42l24 24v59h-66z" color="#000" overflow="visible" fill="url(#n)" stroke-width=".829" paint-order="fill markers stroke" transform="translate(-112 -112)"/><path d="M127 120h42l24 24v59h-66z" style="isolation:auto;mix-blend-mode:normal;marker:none" color="#000" overflow="visible" fill="url(#o)" stroke-width=".829" paint-order="fill markers stroke" transform="translate(-112 -112)"/><path d="M169 120l24 24-27 2.945z" fill="url(#p)" fill-rule="evenodd" stroke-width="2.195" transform="translate(-112 -112)"/><path d="M169 120l24 24h-24z" fill="url(#q)" fill-rule="evenodd" stroke-width="2.347" transform="translate(-112 -112)"/><path style="isolation:auto;mix-blend-mode:normal;marker:none" d="M127.994 119.98v3.002h-1v1h1v3h-1v1.001h1v3.001h-1v1h1v3.001h-1v1h1v3.001h-1v1h1v3.002h-1v1h1v3h-1v1.001h1v3h-1v1.001h1v3.001h-1v1h1v3.001h-1v1h1v3.001h-1v1h1v3.002h-1v1h1v3h-1v1.001h1v3.001h-1v1h1v3.001h-1v1h1V183h-1v1h1v3.002h-1v1h1v3h-1v1.001h1v3h-1v1.001h1v3.001h-1v1h1v3.001h1v-3h3v3h1v-3h2.999v3h1v-3h3v3h.999v-3h3v3h1v-3h2.999v3h1v-3h2.999v3h1v-3h3v3h.999v-3h3v3h1v-3h2.999v3h1v-3h2.999v3h1v-3h3v3h1v-3h2.999v3h1v-3h2.999v2.907h1v-2.908h3v3.001h.999v-3h3v3h1v-3h3.998v-1h-3.999v-3.002h4v-1h-4v-3.001h4v-1h-4V188h4v-1h-4V184h4v-1h-4v-3.002h4v-1h-4v-3h4v-1.001h-4v-3h4v-1.001h-4v-3.001h4v-1h-4v-3.001h4v-1h-4v-3.001h4v-1h-4v-3.002h4v-1h-4v-3h4v-1.001h-4v-3.001h4v-1h-4v-3.001h-1v3h-3v-3h-.999v3h-3v-3.094h-1v3.095h-2.999v-3.001h-1v3h-2.999v-3h-1v3h-3v-27.007h-.999v3h-3v-3h-1v3h-2.999v-3h-1v3h-2.999v-3h-1v3h-3v-3h-1v3h-2.999v-3h-1v3h-2.999v-3h-1v3h-3v-3h-.999v3h-3v-3h-1v3h-2.999v-3h-1v3h-2.999v-3zm1 4.002h3v3h-3zm4 0h2.999v3h-3zm3.999 0h3v3h-3zm3.999 0h3v3h-3zm4 0h2.999v3h-3zm3.998 0h3v3h-3zm4 0h3v3h-3zm3.999 0h3v3h-3zm4 0h2.999v3h-3zm3.999 0h2.999v3h-3zm-35.994 4.001h3v3.001h-3zm4 0h2.999v3.001h-3zm3.999 0h2.999v3.001h-3zm3.999 0h3v3.001h-3zm4 0h2.999v3.001h-3zm3.998 0h3v3.001h-3zm4 0h3v3.001h-3zm3.999 0h3v3.001h-3zm4 0h2.999v3.001h-3zm3.999 0h2.999v3.001h-3zm-35.994 4.001h3v3.001h-3zm4 0h2.999v3.001h-3zm3.999 0h2.999v3.001h-3zm3.999 0h3v3.001h-3zm4 0h2.999v3.001h-3zm3.998 0h3v3.001h-3zm4 0h3v3.001h-3zm3.999 0h3v3.001h-3zm4 0h2.999v3.001h-3zm3.999 0h2.999v3.001h-3zm-35.994 4.001h3v3.001h-3zm4 0h2.999v3.001h-3zm3.999 0h2.999v3.001h-3zm3.999 0h3v3.001h-3zm4 0h2.999v3.001h-3zm3.998 0h3v3.001h-3zm4 0h3v3.001h-3zm3.999 0h3v3.001h-3zm4 0h2.999v3.001h-3zm3.999 0h2.999v3.001h-3zm-35.994 4.002h3v3h-3zm4 0h2.999v3h-3zm3.999 0h2.999v3h-3zm3.999 0h3v3h-3zm4 0h2.999v3h-3zm3.998 0h3v3h-3zm4 0h3v3h-3zm3.999 0h3v3h-3zm4 0h2.999v3h-3zm3.999 0h2.999v3h-3zm-35.994 4h3v3.002h-3zm4 0h2.999v3.002h-3zm3.999 0h2.999v3.002h-3zm3.999 0h3v3.002h-3zm4 0h2.999v3.002h-3zm3.998 0h3v3.002h-3zm4 0h3v3.002h-3zm3.999 0h3v3.002h-3zm4 0h2.999v3.002h-3zm3.999 0h2.999v3.002h-3zm-35.994 4.002h3v3h-3zm4 0h2.999v3h-3zm3.999 0h2.999v3h-3zm3.999 0h3v3h-3zm4 0h2.999v3h-3zm3.998 0h3v3h-3zm4 0h3v3h-3zm3.999 0h3v3h-3zm4 0h2.999v3h-3zm3.999 0h2.999v3h-3zm3.999 0h3v3h-3zm4 0h2.999v3h-3zm3.998 0h3v3h-3zm4 0h3v3h-3zm3.999 0h3v3h-3zm-55.99 4.001h3v3.001h-3zm4 0h2.999v3.001h-3zm3.999 0h2.999v3.001h-3zm3.999 0h3v3.001h-3zm4 0h2.999v3.001h-3zm3.998 0h3v3.001h-3zm4 0h3v3.001h-3zm3.999 0h3v3.001h-3zm4 0h2.999v3.001h-3zm3.999 0h2.999v3.001h-3zm3.999 0h3v3.001h-3zm4 0h2.999v3.001h-3zm3.998 0h3v3.001h-3zm4 0h3v3.001h-3zm3.999 0h3v3.001h-3zm-55.99 4.001h3v3.001h-3zm4 0h2.999v3.001h-3zm3.999 0h2.999v3.001h-3zm3.999 0h3v3.001h-3zm4 0h2.999v3.001h-3zm3.998 0h3v3.001h-3zm4 0h3v3.001h-3zm3.999 0h3v3.001h-3zm4 0h2.999v3.001h-3zm3.999 0h2.999v3.001h-3zm3.999 0h3v3.001h-3zm4 0h2.999v3.001h-3zm3.998 0h3v3.001h-3zm4 0h3v3.001h-3zm3.999 0h3v3.001h-3zm-55.99 4.002h3v3h-3zm4 0h2.999v3h-3zm3.999 0h2.999v3h-3zm3.999 0h3v3h-3zm4 0h2.999v3h-3zm3.998 0h3v3h-3zm4 0h3v3h-3zm3.999 0h3v3h-3zm4 0h2.999v3h-3zm3.999 0h2.999v3h-3zm3.999 0h3v3h-3zm4 0h2.999v3h-3zm3.998 0h3v3h-3zm4 0h3v3h-3zm3.999 0h3v3h-3zm-55.99 4h3v3.002h-3zm4 0h2.999v3.002h-3zm3.999 0h2.999v3.002h-3zm3.999 0h3v3.002h-3zm4 0h2.999v3.002h-3zm3.998 0h3v3.002h-3zm4 0h3v3.002h-3zm3.999 0h3v3.002h-3zm4 0h2.999v3.002h-3zm3.999 0h2.999v3.002h-3zm3.999 0h3v3.002h-3zm4 0h2.999v3.002h-3zm3.998 0h3v3.002h-3zm4 0h3v3.002h-3zm3.999 0h3v3.002h-3zm-55.99 4.002h3v3h-3zm4 0h2.999v3h-3zm3.999 0h2.999v3h-3zm3.999 0h3v3h-3zm4 0h2.999v3h-3zm3.998 0h3v3h-3zm4 0h3v3h-3zm3.999 0h3v3h-3zm4 0h2.999v3h-3zm3.999 0h2.999v3h-3zm3.999 0h3v3h-3zm4 0h2.999v3h-3zm3.998 0h3v3h-3zm4 0h3v3h-3zm3.999 0h3v3h-3zm-55.99 4.001h3v3.001h-3zm4 0h2.999v3.001h-3zm3.999 0h2.999v3.001h-3zm3.999 0h3v3.001h-3zm4 0h2.999v3.001h-3zm3.998 0h3v3.001h-3zm4 0h3v3.001h-3zm3.999 0h3v3.001h-3zm4 0h2.999v3.001h-3zm3.999 0h2.999v3.001h-3zm3.999 0h3v3.001h-3zm4 0h2.999v3.001h-3zm3.998 0h3v3.001h-3zm4 0h3v3.001h-3zm3.999 0h3v3.001h-3zm-55.99 4.001h3v3.001h-3zm4 0h2.999v3.001h-3zm3.999 0h2.999v3.001h-3zm3.999 0h3v3.001h-3zm4 0h2.999v3.001h-3zm3.998 0h3v3.001h-3zm4 0h3v3.001h-3zm3.999 0h3v3.001h-3zm4 0h2.999v3.001h-3zm3.999 0h2.999v3.001h-3zm3.999 0h3v3.001h-3zm4 0h2.999v3.001h-3zm3.998 0h3v3.001h-3zm4 0h3v3.001h-3zm3.999 0h3v3.001h-3zm-55.99 4.001h3V183h-3zm4 0h2.999V183h-3zm3.999 0h2.999V183h-3zm3.999 0h3V183h-3zm4 0h2.999V183h-3zm3.998 0h3V183h-3zm4 0h3V183h-3zm3.999 0h3V183h-3zm4 0h2.999V183h-3zm3.999 0h2.999V183h-3zm3.999 0h3V183h-3zm4 0h2.999V183h-3zm3.998 0h3V183h-3zm4 0h3V183h-3zm3.999 0h3V183h-3zM128.994 184h3v3h-3zm4 0h2.999v3h-3zm3.999 0h2.999v3h-3zm3.999 0h3v3h-3zm4 0h2.999v3h-3zm3.998 0h3v3h-3zm4 0h3v3h-3zm3.999 0h3v3h-3zm4 0h2.999v3h-3zm3.999 0h2.999v3h-3zm3.999 0h3v3h-3zm4 0h2.999v3h-3zm3.998 0h3v3h-3zm4 0h3v3h-3zm3.999 0h3v3h-3zm-55.99 4h3v3.002h-3zm4 0h2.999v3.002h-3zm3.999 0h2.999v3.002h-3zm3.999 0h3v3.002h-3zm4 0h2.999v3.002h-3zm3.998 0h3v3.002h-3zm4 0h3v3.002h-3zm3.999 0h3v3.002h-3zm4 0h2.999v3.002h-3zm3.999 0h2.999v3.002h-3zm3.999 0h3v3.002h-3zm4 0h2.999v3.002h-3zm3.998 0h3v3.002h-3zm4 0h3v3.002h-3zm3.999 0h3v3.002h-3zm-55.99 4.002h3v3h-3zm4 0h2.999v3h-3zm3.999 0h2.999v3h-3zm3.999 0h3v3h-3zm4 0h2.999v3h-3zm3.998 0h3v3h-3zm4 0h3v3h-3zm3.999 0h3v3h-3zm4 0h2.999v3h-3zm3.999 0h2.999v3h-3zm3.999 0h3v3h-3zm4 0h2.999v3h-3zm3.998 0h3v3h-3zm4 0h3v3h-3zm3.999 0h3v3h-3zm-55.99 4.001h3v3.001h-3zm4 0h2.999v3.001h-3zm3.999 0h2.999v3.001h-3zm3.999 0h3v3.001h-3zm4 0h2.999v3.001h-3zm3.998 0h3v3.001h-3zm4 0h3v3.001h-3zm3.999 0h3v3.001h-3zm4 0h2.999v3.001h-3zm3.999 0h2.999v3.001h-3zm3.999 0h3v3.001h-3zm4 0h2.999v3.001h-3zm3.998 0h3v3.001h-3zm4 0h3v3.001h-3zm3.999 0h3v3.001h-3z" color="#000" overflow="visible" opacity=".4" fill="url(#r)" stroke-width=".84" stroke-opacity=".344" paint-order="fill markers stroke" transform="translate(-112 -112)"/><path style="line-height:1000%" d="M49.316 55.058q-5.745 0-7.961 1.314-2.216 1.313-2.216 4.482 0 2.525 1.65 4.02 1.674 1.468 4.534 1.468 3.941 0 6.312-2.782 2.396-2.809 2.396-7.446v-1.056zm9.455-1.959v16.464h-4.74v-4.38q-1.623 2.628-4.045 3.89-2.422 1.237-5.926 1.237-4.431 0-7.06-2.474-2.601-2.499-2.601-6.672 0-4.87 3.246-7.343 3.272-2.473 9.739-2.473h6.647v-.464q0-3.272-2.164-5.05-2.139-1.803-6.03-1.803-2.472 0-4.817.592-2.344.593-4.509 1.778v-4.38q2.603-1.005 5.05-1.494 2.448-.515 4.766-.515 6.261 0 9.353 3.246 3.091 3.246 3.091 9.841z" font-size="53.333" font-family="sans-serif" letter-spacing="0" word-spacing="0" fill="#9dc3ef" fill-opacity=".63" stroke="#82a9e5" stroke-width=".594" stroke-opacity=".995"/><path style="line-height:normal;font-variant-ligatures:normal;font-variant-position:normal;font-variant-caps:normal;font-variant-numeric:normal;font-variant-alternates:normal;font-feature-settings:normal;text-indent:0;text-align:start;text-decoration-line:none;text-decoration-style:solid;text-decoration-color:#000;text-transform:none;text-orientation:mixed;shape-padding:0;isolation:auto;mix-blend-mode:normal" d="M37.185 32.136c-.087 0-.18.008-.279.023-.097.016-.2.039-.313.07v.265c.112-.038.213-.066.306-.083.092-.018.18-.026.26-.026a.55.55 0 0 1 .34.091.3.3 0 0 1 .12.257c0 .11-.036.193-.113.251a.552.552 0 0 1-.335.087h-.266v.244h.255c.16 0 .285.037.375.11.09.072.137.173.137.301 0 .14-.05.246-.147.32-.097.072-.238.11-.423.11-.107 0-.208-.013-.306-.037a1.038 1.038 0 0 1-.27-.109v.284c.103.037.205.064.301.081.098.018.193.03.284.03.274 0 .484-.06.632-.178.149-.118.222-.285.222-.5 0-.141-.04-.26-.12-.356a.563.563 0 0 0-.33-.188.545.545 0 0 0 .296-.174.466.466 0 0 0 .104-.307.497.497 0 0 0-.197-.414c-.13-.102-.309-.152-.533-.152zm2.079.039l-.91 1.385v.286h.987v.516h.294v-.516h.311v-.245h-.311v-1.426zm.077.259V33.6h-.748zm-6.539 2.259v3.957h.99v-3.957zm11.872 0v3.957h.99v-3.957zm-9.893 1.978v.99h8.842v-.99zm26.712 5.936v.99h4.946v-.99zm1.978 1.865v24.847h.99V44.472zm7.102 10.989a.635.635 0 0 0-.563.291c-.128.194-.193.474-.193.843 0 .368.065.65.193.844.13.194.318.29.563.29a.631.631 0 0 0 .56-.29c.13-.194.195-.476.195-.844 0-.369-.065-.65-.195-.843a.631.631 0 0 0-.56-.291zm1.808 0c-.086 0-.18.012-.284.036-.103.025-.215.06-.334.109v.3a1.78 1.78 0 0 1 .33-.148.987.987 0 0 1 .294-.048c.13 0 .236.037.317.11a.364.364 0 0 1 .123.284c0 .071-.02.144-.058.219a1.365 1.365 0 0 1-.197.268c-.05.057-.17.183-.365.379-.193.195-.347.351-.46.468v.249h1.39v-.25h-1.032c.238-.243.422-.43.552-.566.131-.135.208-.219.232-.247.089-.11.15-.204.184-.284a.647.647 0 0 0 .052-.255c0-.19-.068-.34-.203-.454-.135-.113-.315-.17-.541-.17zm-3.818.04l-.524.105v.27l.526-.106v1.667h-.483v.25h1.26v-.25h-.483v-1.936zm2.01.193c.153 0 .267.076.344.226.077.15.115.374.115.675 0 .3-.038.526-.115.676-.077.15-.191.224-.344.224-.153 0-.267-.074-.344-.224-.076-.15-.114-.377-.114-.676 0-.3.037-.525.114-.675.077-.15.191-.226.344-.226zm-9.08 14.614v.99h4.946v-.99zm-30.1 2.522v3.957h.99V72.83zm28.604 0v3.957h.99V72.83zm-26.205 1.436v.989h24.847v-.99zm12.844 2.902c-.086 0-.181.012-.285.037-.103.024-.215.06-.334.108v.3a1.78 1.78 0 0 1 .33-.148.987.987 0 0 1 .294-.048c.131 0 .238.037.32.11a.362.362 0 0 1 .121.284.473.473 0 0 1-.056.219 1.38 1.38 0 0 1-.199.268c-.05.057-.171.185-.365.38-.193.196-.346.35-.458.467v.249h1.387v-.25H46.36c.239-.243.422-.43.553-.566.13-.135.21-.217.234-.245.089-.11.15-.204.183-.284a.655.655 0 0 0 .05-.257c0-.19-.066-.34-.2-.454-.135-.113-.317-.17-.543-.17zm-1.91.04l-.521.105v.27l.525-.106v1.667h-.483v.25h1.258v-.25h-.483v-1.936zm3.291 0v1.098c.082-.037.162-.064.24-.081.079-.018.158-.027.237-.027.17 0 .302.044.4.133.099.089.15.21.15.361 0 .153-.051.273-.15.362a.574.574 0 0 1-.4.133 1.168 1.168 0 0 1-.57-.141v.298c.102.03.2.054.294.07.096.015.19.022.282.022.267 0 .472-.065.619-.195.146-.13.22-.313.22-.549 0-.228-.072-.409-.215-.543-.142-.133-.335-.2-.58-.2a.697.697 0 0 0-.127.011.684.684 0 0 0-.13.033v-.535h.891v-.25z" color="#000" font-weight="400" font-family="sans-serif" white-space="normal" overflow="visible" fill="#83a9e5" fill-rule="evenodd" stroke-width=".989"/><path style="isolation:auto;mix-blend-mode:normal;marker:none" color="#000" display="block" overflow="visible" fill="url(#s)" stroke-width=".2" paint-order="fill markers stroke" d="M127 120h42v1h-42z" transform="translate(-112 -112)"/></svg>