<svg xmlns:osb="http://www.openswatchbook.org/uri/2009/osb" xmlns="http://www.w3.org/2000/svg" xmlns:xlink="http://www.w3.org/1999/xlink" height="96" viewBox="0 0 96 96" width="96"><title>Template icons dark</title><defs><linearGradient id="l"><stop offset="0" stop-color="#fe7dee"/><stop offset="1" stop-color="#5390fe"/></linearGradient><linearGradient id="g" osb:paint="solid"><stop offset="0" stop-opacity=".196"/></linearGradient><linearGradient id="f" osb:paint="solid"><stop offset="0" stop-color="#fff" stop-opacity=".782"/></linearGradient><linearGradient id="e" osb:paint="solid"><stop offset="0" stop-opacity=".018"/></linearGradient><linearGradient id="d" osb:paint="solid"><stop offset="0" stop-opacity=".157"/></linearGradient><linearGradient id="b"><stop offset="0" stop-color="#fff"/><stop offset="1" stop-color="#dfdfdf"/></linearGradient><linearGradient id="a"><stop offset="0" stop-color="#f0f0f0"/><stop offset="1" stop-color="#fff"/></linearGradient><linearGradient xlink:href="#a" id="o" gradientUnits="userSpaceOnUse" gradientTransform="matrix(2.19434 0 0 2.19615 107.378 109.173)" x1="24.117" y1="4.931" x2="24.058" y2="42.556"/><linearGradient xlink:href="#b" id="r" gradientUnits="userSpaceOnUse" gradientTransform="matrix(2.50782 0 0 2.19615 97.007 108.932)" x1="33.094" y1="10.504" x2="29.904" y2="14.147"/><linearGradient id="c"><stop offset="0" stop-opacity="0"/><stop offset="1" stop-opacity=".022"/></linearGradient><linearGradient xlink:href="#d" id="n" x1="126" y1="161.5" x2="194" y2="161.5" gradientUnits="userSpaceOnUse"/><linearGradient xlink:href="#e" id="m" x1="125" y1="161.5" x2="195" y2="161.5" gradientUnits="userSpaceOnUse"/><linearGradient xlink:href="#f" id="v" x1="127" y1="120.5" x2="169" y2="120.5" gradientUnits="userSpaceOnUse"/><linearGradient xlink:href="#g" id="q" x1="166" y1="133.472" x2="193" y2="133.472" gradientUnits="userSpaceOnUse"/><linearGradient id="k"><stop offset="0" stop-color="#f598f8"/><stop offset="1" stop-color="#398bef"/></linearGradient><linearGradient id="h"><stop offset="0" stop-color="#d7d7d7" stop-opacity=".231"/><stop offset=".146" stop-opacity=".199"/><stop offset=".456" stop-color="#fff" stop-opacity=".251"/><stop offset=".66" stop-opacity=".131"/><stop offset=".834" stop-color="#a2a2a2" stop-opacity=".161"/><stop offset="1" stop-opacity=".152"/></linearGradient><linearGradient id="i"><stop offset="0" stop-color="#d7d7d7" stop-opacity=".231"/><stop offset=".231" stop-opacity=".11"/><stop offset=".472" stop-color="#fff" stop-opacity=".147"/><stop offset=".717" stop-opacity=".131"/><stop offset=".834" stop-color="#a2a2a2" stop-opacity=".161"/><stop offset="1" stop-opacity=".152"/></linearGradient><linearGradient id="j"><stop offset="0" stop-color="#d7d7d7" stop-opacity=".231"/><stop offset=".146" stop-opacity=".257"/><stop offset=".456" stop-color="#fff" stop-opacity=".251"/><stop offset=".66" stop-opacity=".131"/><stop offset=".834" stop-color="#a2a2a2" stop-opacity=".161"/><stop offset="1" stop-opacity=".152"/></linearGradient><linearGradient xlink:href="#i" id="t" gradientUnits="userSpaceOnUse" gradientTransform="matrix(0 -1.1569 1.1569 0 -11.829 349.927)" x1="137.107" y1="127.59" x2="127" y2="120"/><linearGradient xlink:href="#j" id="u" gradientUnits="userSpaceOnUse" gradientTransform="matrix(-1.1569 0 0 -1.1569 339.927 341.829)" x1="139.48" y1="120.419" x2="128.375" y2="135.042"/><linearGradient xlink:href="#h" id="s" gradientUnits="userSpaceOnUse" gradientTransform="matrix(1.1569 0 0 1.1569 -19.927 -18.829)" x1="142.626" y1="120.944" x2="127.746" y2="132.839"/><linearGradient xlink:href="#k" id="p" x1="23.375" y1="41.2" x2="23.566" y2="13.14" gradientUnits="userSpaceOnUse" gradientTransform="matrix(1.27093 0 0 2.25432 129.496 98.18)"/></defs><path d="M125 118h44l26 26v61h-70z" style="isolation:auto;mix-blend-mode:normal;marker:none" color="#000" overflow="visible" fill="url(#m)" stroke-width=".879" paint-order="fill markers stroke" transform="translate(-112 -112)"/><path style="isolation:auto;mix-blend-mode:normal;marker:none" d="M126 119h43l25 25v60h-68v-85z" color="#000" overflow="visible" fill="url(#n)" stroke-width=".852" paint-order="fill markers stroke" transform="translate(-112 -112)"/><path d="M127 120h42l24 24v59h-66v-83z" style="isolation:auto;mix-blend-mode:normal;marker:none" color="#000" overflow="visible" fill="url(#o)" stroke-width=".829" paint-order="fill markers stroke" transform="translate(-112 -112)"/><path style="isolation:auto;mix-blend-mode:normal;marker:none" d="M133 128h40.185l13.812 12.845v54.153H133z" color="#000" overflow="visible" fill="url(#p)" stroke-width="1.554" transform="translate(-112 -112)"/><path style="isolation:auto;mix-blend-mode:normal;marker:none" d="M42.604 21.592l.353 1.006-1.07-.028 1.048.198-.56.912.693-.807.514.94-.353-1.005 1.07.028-1.048-.198.56-.913-.693.808zm11.972.706l.353 1.002-1.07-.025 1.045.195-.557.916.693-.81.514.94-.353-1.006 1.07.028-1.048-.195.56-.915-.696.81zm11.759 1.407l.352 1.006-1.07-.028 1.049.198-.56.912.696-.807.51.94-.352-1.005 1.07.025-1.046-.195.557-.913-.693.808zm6.477.21l.356 1.006-1.07-.028 1.046.198-.56.913.696-.808.51.94-.353-1.005 1.07.028-1.045-.198.557-.912-.693.807zm-48.162.783l1.002 2.853-3.038-.075 2.973.557L24 30.628l1.97-2.295 1.455 2.67-1.006-2.856 3.041.078-2.973-.557 1.587-2.595-1.97 2.295zm14.926 2.104l.356 1.005-1.07-.024 1.045.194-.56.913.696-.807.51.94-.352-1.005 1.07.028-1.046-.198.557-.913-.693.807zm13.426 1.847l-7.199 6.8c-2.31 1.394-.642 2.193.334.207l6.964-6.902zm.46 3.613l-7.198 6.8c-2.077 2.072-.474 1.629.334.207l6.964-6.902z" color="#000" display="block" overflow="visible" fill="#fff" fill-opacity=".435" stroke-width=".94"/><path d="M169 120l24 24-27 2.945z" fill="url(#q)" fill-rule="evenodd" stroke-width="2.195" transform="translate(-112 -112)"/><path d="M169 120l24 24h-24z" fill="url(#r)" fill-rule="evenodd" stroke-width="2.347" transform="translate(-112 -112)"/><g color="#000" fill="#fff" stroke-width=".516" stroke-opacity=".168"><path style="isolation:auto;mix-blend-mode:normal;marker:none" d="M36 56l36 27H21V72z" overflow="visible" fill-opacity=".414" paint-order="markers stroke fill"/><path d="M60 52l15 12v19H28z" style="isolation:auto;mix-blend-mode:normal;marker:none" overflow="visible" paint-order="markers stroke fill"/></g><g opacity=".4" color="#000"><path style="isolation:auto;mix-blend-mode:normal;marker:none" d="M15 29L36 8h1L15 30z" display="block" overflow="visible" fill-opacity=".304" stroke-width="1.108" paint-order="fill markers stroke"/><path d="M127 120h21l-21 21z" style="isolation:auto;mix-blend-mode:normal;marker:none" display="block" overflow="visible" fill="url(#s)" stroke-width="1.032" paint-order="fill markers stroke" transform="translate(-112 -112)"/><path d="M36 91L15 70v-1l22 22z" style="isolation:auto;mix-blend-mode:normal;marker:none" display="block" overflow="visible" fill-opacity=".304" stroke-width="1.108" paint-order="fill markers stroke"/><path style="isolation:auto;mix-blend-mode:normal;marker:none" d="M127 203v-21l21 21z" display="block" overflow="visible" fill="url(#t)" stroke-width="1.032" paint-order="fill markers stroke" transform="translate(-112 -112)"/><path style="isolation:auto;mix-blend-mode:normal;marker:none" d="M81 70L60 91h-1l22-22z" display="block" overflow="visible" fill-opacity=".304" stroke-width="1.108" paint-order="fill markers stroke"/><path d="M193 203h-21l21-21z" style="isolation:auto;mix-blend-mode:normal;marker:none" display="block" overflow="visible" fill="url(#u)" stroke-width="1.032" paint-order="fill markers stroke" transform="translate(-112 -112)"/></g><path style="isolation:auto;mix-blend-mode:normal;marker:none" color="#000" display="block" overflow="visible" fill="url(#v)" stroke-width=".2" paint-order="fill markers stroke" d="M127 120h42v1h-42z" transform="translate(-112 -112)"/></svg>