<svg xmlns:osb="http://www.openswatchbook.org/uri/2009/osb" xmlns="http://www.w3.org/2000/svg" xmlns:xlink="http://www.w3.org/1999/xlink" height="96" viewBox="0 0 96 96" width="96"><title>Template icons dark</title><defs><linearGradient id="q" osb:paint="solid"><stop offset="0"/></linearGradient><linearGradient id="m"><stop offset="0" stop-color="#707070"/><stop offset="1" stop-color="#fff"/></linearGradient><linearGradient id="l"><stop offset="0" stop-color="#c1c1c1"/><stop offset="1" stop-color="#9f9f9f"/></linearGradient><linearGradient id="j"><stop offset="0" stop-color="#dfdfdf"/><stop offset=".489" stop-color="#aeaeae" stop-opacity=".459"/><stop offset="1" stop-color="#dfdfdf"/></linearGradient><linearGradient id="h" osb:paint="solid"><stop offset="0" stop-opacity=".196"/></linearGradient><linearGradient id="g" osb:paint="solid"><stop offset="0" stop-color="#fff" stop-opacity=".307"/></linearGradient><linearGradient id="f" osb:paint="solid"><stop offset="0" stop-opacity=".078"/></linearGradient><linearGradient id="e" osb:paint="solid"><stop offset="0" stop-opacity=".14"/></linearGradient><linearGradient id="b"><stop offset="0" stop-color="#fff"/><stop offset="1" stop-color="#dfdfdf"/></linearGradient><linearGradient id="a"><stop offset="0" stop-color="#f0f0f0"/><stop offset="1" stop-color="#fff"/></linearGradient><linearGradient xlink:href="#a" id="t" gradientUnits="userSpaceOnUse" gradientTransform="matrix(2.19434 0 0 2.19615 107.378 109.173)" x1="24.117" y1="4.931" x2="24.058" y2="42.556"/><linearGradient xlink:href="#b" id="z" gradientUnits="userSpaceOnUse" gradientTransform="matrix(2.50782 0 0 2.19615 97.007 108.932)" x1="33.094" y1="10.504" x2="29.904" y2="14.147"/><linearGradient id="d"><stop offset="0" stop-color="#fff" stop-opacity=".046"/><stop offset="1" stop-color="#fff" stop-opacity=".059"/></linearGradient><linearGradient xlink:href="#c" id="w" gradientUnits="userSpaceOnUse" gradientTransform="matrix(2.19434 0 0 2.19615 107.378 109.173)" x1="23.981" y1="23.144" x2="45.855" y2="1.287"/><linearGradient xlink:href="#c" id="v" gradientUnits="userSpaceOnUse" gradientTransform="matrix(2.19434 0 0 2.19615 107.378 109.173)" x1="23.981" y1="23.144" x2="2.106" y2="45"/><linearGradient xlink:href="#c" id="u" gradientUnits="userSpaceOnUse" gradientTransform="matrix(2.19434 0 0 2.19615 107.378 109.173)" x1="23.981" y1="23.144" x2="45.855" y2="45"/><linearGradient id="c"><stop offset="0" stop-opacity="0"/><stop offset="1" stop-opacity=".018"/></linearGradient><linearGradient xlink:href="#c" id="x" gradientUnits="userSpaceOnUse" gradientTransform="matrix(2.19434 0 0 2.19615 107.378 109.173)" x1="23.981" y1="23.144" x2="2.106" y2="1.287"/><linearGradient xlink:href="#e" id="s" x1="126" y1="161.5" x2="194" y2="161.5" gradientUnits="userSpaceOnUse"/><linearGradient xlink:href="#f" id="r" x1="125" y1="161.5" x2="195" y2="161.5" gradientUnits="userSpaceOnUse"/><linearGradient xlink:href="#g" id="A" x1="127" y1="120.5" x2="169" y2="120.5" gradientUnits="userSpaceOnUse"/><linearGradient xlink:href="#h" id="y" x1="166" y1="133.472" x2="193" y2="133.472" gradientUnits="userSpaceOnUse"/><linearGradient id="i"><stop offset="0" stop-color="#dfdfdf"/><stop offset=".489" stop-color="silver" stop-opacity=".459"/><stop offset="1" stop-color="#dfdfdf"/></linearGradient><linearGradient id="k"><stop offset="0" stop-color="#2e2e2e"/><stop offset="1" stop-color="#b7b7b7"/></linearGradient><linearGradient id="n"><stop offset="0" stop-color="#444"/><stop offset="1" stop-color="#ececec"/></linearGradient><linearGradient id="o"><stop offset="0" stop-color="#737373"/><stop offset="1" stop-color="#eee"/></linearGradient><linearGradient id="p"><stop offset="0" stop-color="#a7a7a7"/><stop offset=".505" stop-color="#5b5b5b"/><stop offset="1" stop-color="#303030"/></linearGradient><linearGradient xlink:href="#n" id="B" x1="158.822" y1="98.639" x2="158.822" y2="88.728" gradientUnits="userSpaceOnUse" gradientTransform="matrix(1.07772 0 0 .90037 -12.594 9.605)"/><linearGradient xlink:href="#o" id="C" x1="160.167" y1="110.428" x2="160.167" y2="94.122" gradientUnits="userSpaceOnUse" gradientTransform="matrix(.84789 0 0 .84296 23.882 13.537)"/><linearGradient xlink:href="#p" id="D" x1="158.671" y1="97.368" x2="158.671" y2="90.163" gradientUnits="userSpaceOnUse" gradientTransform="matrix(.75437 0 0 .75437 38.724 23.007)"/><linearGradient xlink:href="#i" id="E" x1="155.296" y1="153.204" x2="165.174" y2="153.204" gradientUnits="userSpaceOnUse"/><linearGradient xlink:href="#i" id="J" gradientUnits="userSpaceOnUse" x1="155.296" y1="153.204" x2="165.174" y2="153.204" gradientTransform="translate(0 -.184)"/><linearGradient xlink:href="#i" id="P" gradientUnits="userSpaceOnUse" x1="155.296" y1="153.204" x2="165.174" y2="153.204" gradientTransform="translate(0 6)"/><linearGradient xlink:href="#i" id="Q" gradientUnits="userSpaceOnUse" gradientTransform="translate(0 12)" x1="155.296" y1="153.204" x2="165.174" y2="153.204"/><linearGradient xlink:href="#i" id="T" gradientUnits="userSpaceOnUse" x1="155.296" y1="153.204" x2="165.174" y2="153.204" gradientTransform="translate(0 17.678)"/><linearGradient xlink:href="#i" id="V" gradientUnits="userSpaceOnUse" gradientTransform="translate(0 23.678)" x1="155.296" y1="153.204" x2="165.174" y2="153.204"/><linearGradient xlink:href="#i" id="W" gradientUnits="userSpaceOnUse" gradientTransform="translate(0 29.678)" x1="155.296" y1="153.204" x2="165.174" y2="153.204"/><linearGradient xlink:href="#i" id="F" gradientUnits="userSpaceOnUse" x1="155.296" y1="153.204" x2="165.174" y2="153.204"/><linearGradient xlink:href="#i" id="G" gradientUnits="userSpaceOnUse" x1="155.296" y1="153.204" x2="165.174" y2="153.204"/><linearGradient xlink:href="#i" id="H" gradientUnits="userSpaceOnUse" x1="155.296" y1="153.204" x2="165.174" y2="153.204"/><linearGradient xlink:href="#i" id="I" gradientUnits="userSpaceOnUse" x1="155.296" y1="153.204" x2="165.174" y2="153.204"/><linearGradient xlink:href="#i" id="K" gradientUnits="userSpaceOnUse" x1="155.296" y1="153.204" x2="165.174" y2="153.204"/><linearGradient xlink:href="#i" id="L" gradientUnits="userSpaceOnUse" x1="155.296" y1="153.204" x2="165.174" y2="153.204"/><linearGradient xlink:href="#i" id="M" gradientUnits="userSpaceOnUse" x1="155.296" y1="153.204" x2="165.174" y2="153.204"/><linearGradient xlink:href="#i" id="N" gradientUnits="userSpaceOnUse" x1="155.296" y1="153.204" x2="165.174" y2="153.204"/><linearGradient xlink:href="#i" id="O" gradientUnits="userSpaceOnUse" gradientTransform="translate(0 6)" x1="155.296" y1="153.204" x2="165.174" y2="153.204"/><linearGradient xlink:href="#i" id="R" gradientUnits="userSpaceOnUse" gradientTransform="translate(0 17.678)" x1="155.296" y1="153.204" x2="165.174" y2="153.204"/><linearGradient xlink:href="#i" id="S" gradientUnits="userSpaceOnUse" gradientTransform="translate(0 17.678)" x1="155.296" y1="153.204" x2="165.174" y2="153.204"/><linearGradient xlink:href="#i" id="U" gradientUnits="userSpaceOnUse" gradientTransform="translate(0 23.678)" x1="155.296" y1="153.204" x2="165.174" y2="153.204"/></defs><path d="M125 118h44l26 26v61h-70z" style="isolation:auto;mix-blend-mode:normal;marker:none" color="#000" overflow="visible" fill="url(#r)" stroke-width=".879" paint-order="fill markers stroke" transform="translate(-112 -112)"/><path style="isolation:auto;mix-blend-mode:normal;marker:none" d="M126 119h43l25 25v60h-68v-85z" color="#000" overflow="visible" fill="url(#s)" stroke-width=".852" paint-order="fill markers stroke" transform="translate(-112 -112)"/><path d="M127 120h42l24 24v59h-66v-83z" style="isolation:auto;mix-blend-mode:normal;marker:none" color="#000" overflow="visible" fill="url(#t)" stroke-width=".829" paint-order="fill markers stroke" transform="translate(-112 -112)"/><path style="isolation:auto;mix-blend-mode:normal;marker:none" d="M127 120h42l24 24v59h-66z" color="#000" overflow="visible" fill="url(#u)" stroke-width=".829" paint-order="fill markers stroke" transform="translate(-112 -112)"/><path d="M127 120h42l24 24v59h-66z" style="isolation:auto;mix-blend-mode:normal;marker:none" color="#000" overflow="visible" fill="url(#v)" stroke-width=".829" paint-order="fill markers stroke" transform="translate(-112 -112)"/><path style="isolation:auto;mix-blend-mode:normal;marker:none" d="M127 120h42l24 24v59h-66z" color="#000" overflow="visible" fill="url(#w)" stroke-width=".829" paint-order="fill markers stroke" transform="translate(-112 -112)"/><path d="M127 120h42l24 24v59h-66z" style="isolation:auto;mix-blend-mode:normal;marker:none" color="#000" overflow="visible" fill="url(#x)" stroke-width=".829" paint-order="fill markers stroke" transform="translate(-112 -112)"/><path style="isolation:auto;mix-blend-mode:normal;marker:none" d="M54 8v44.377c0 3.324-2.676 6-6 6s-6-2.676-6-6V8z" color="#000" display="block" overflow="visible" fill-opacity=".848" stroke-width=".326" paint-order="fill markers stroke"/><path d="M58 8v46c0 3.71-4.621 8-10 8-5.378 0-10-4.29-10-8V8z" style="isolation:auto;mix-blend-mode:normal;marker:none" color="#000" display="block" overflow="visible" fill-opacity=".094" stroke-width=".5" stroke-dasharray="3,3" stroke-opacity=".667" paint-order="fill markers stroke"/><path d="M169 120l24 24-27 2.945z" fill="url(#y)" fill-rule="evenodd" stroke-width="2.195" transform="translate(-112 -112)"/><path d="M169 120l24 24h-24z" fill="url(#z)" fill-rule="evenodd" stroke-width="2.347" transform="translate(-112 -112)"/><path style="isolation:auto;mix-blend-mode:normal;marker:none" color="#000" display="block" overflow="visible" fill="url(#A)" stroke-width=".2" paint-order="fill markers stroke" d="M127 120h42v1h-42z" transform="translate(-112 -112)"/><g transform="matrix(1.3256 0 0 1.3256 -162.041 -74.492)" color="#000"><path d="M158.45 89.573c1.956 0 3.947 1.353 3.53 2.95l-.927 3.555c-.307 1.177-1.161 2.175-2.603 2.175-1.442 0-2.296-.998-2.603-2.175l-.928-3.555c-.416-1.597 1.575-2.95 3.53-2.95z" style="isolation:auto;mix-blend-mode:normal;marker:none" display="block" overflow="visible" fill="url(#B)" stroke="#2c2c2c" stroke-width=".373" paint-order="fill markers stroke"/><path style="isolation:auto;mix-blend-mode:normal;marker:none" d="M158.45 92.404c-1.546 0-2.545 1.257-2.79 2.774l-1.33 8.218c-.363 2.24 1.838 4.096 4.12 4.096s4.482-1.856 4.12-4.096l-1.33-8.218c-.246-1.517-1.245-2.774-2.79-2.774zm0 .844a1.973 1.962 0 0 1 1.972 1.961 1.973 1.962 0 0 1-1.972 1.964 1.973 1.962 0 0 1-1.973-1.964 1.973 1.962 0 0 1 1.973-1.96zm0 6.717a3.424 3.404 0 0 1 3.423 3.405 3.424 3.404 0 0 1-3.423 3.404 3.424 3.404 0 0 1-3.426-3.404 3.424 3.404 0 0 1 3.426-3.405z" display="block" overflow="visible" fill-opacity=".215" stroke-width=".143" stroke-opacity=".995" paint-order="fill markers stroke"/><path d="M158.45 93.223c-1.378 0-2.269 1.12-2.488 2.472l-1.185 7.327c-.324 1.997 1.638 3.652 3.673 3.652 2.034 0 3.996-1.655 3.673-3.652l-1.186-7.327c-.219-1.352-1.11-2.472-2.487-2.472zm0 .752a1.76 1.749 0 0 1 1.758 1.748 1.76 1.749 0 0 1-1.758 1.75 1.76 1.749 0 0 1-1.76-1.75 1.76 1.749 0 0 1 1.76-1.748zm0 5.988a3.053 3.035 0 0 1 3.052 3.036 3.053 3.035 0 0 1-3.052 3.034 3.053 3.035 0 0 1-3.054-3.034 3.053 3.035 0 0 1 3.054-3.036z" style="isolation:auto;mix-blend-mode:normal;marker:none" display="block" overflow="visible" fill="url(#C)" stroke="#646464" stroke-width=".128" stroke-opacity=".995" paint-order="fill markers stroke"/><rect ry=".754" y="90.896" x="157.695" height="6.035" width="1.509" style="isolation:auto;mix-blend-mode:normal;marker:none" display="block" overflow="visible" fill="url(#D)" stroke-width=".623" paint-order="fill markers stroke"/></g><g transform="matrix(1 0 0 .72149 -112.296 -81.435)" fill="url(#E)" color="#000" stroke-width=".654" stroke-opacity=".957"><path style="isolation:auto;mix-blend-mode:normal;marker:none" d="M159.296 138.704v-1h2v-2h-2v-1h-4v4z" display="block" overflow="visible" fill="url(#F)" paint-order="fill markers stroke"/><path d="M161.296 131.704v1h-2v2h2v1h4v-4z" style="isolation:auto;mix-blend-mode:normal;marker:none" display="block" overflow="visible" fill="url(#G)" paint-order="fill markers stroke"/><path style="isolation:auto;mix-blend-mode:normal;marker:none" d="M159.296 132.704v-1h2v-2h-2v-1h-4v4z" display="block" overflow="visible" fill="url(#H)" paint-order="fill markers stroke"/><path style="isolation:auto;mix-blend-mode:normal;marker:none" d="M161.296 125.704v1h-2v2h2v1h4v-4z" display="block" overflow="visible" fill="url(#I)" paint-order="fill markers stroke"/><path d="M159.296 126.52v-1h6v-1.414h-10v2.414z" style="isolation:auto;mix-blend-mode:normal;marker:none" display="block" overflow="visible" fill="url(#J)" paint-order="fill markers stroke"/><path style="isolation:auto;mix-blend-mode:normal;marker:none" d="M161.296 143.704v1h-2v2h2v1h4v-4z" display="block" overflow="visible" fill="url(#K)" paint-order="fill markers stroke"/><path d="M159.296 144.704v-1h2v-2h-2v-1h-4v4z" style="isolation:auto;mix-blend-mode:normal;marker:none" display="block" overflow="visible" fill="url(#L)" paint-order="fill markers stroke"/><path d="M161.296 137.704v1h-2v2h2v1h4v-4z" style="isolation:auto;mix-blend-mode:normal;marker:none" display="block" overflow="visible" fill="url(#M)" paint-order="fill markers stroke"/><path style="isolation:auto;mix-blend-mode:normal;marker:none" d="M159.296 150.704v-1h2v-2h-2v-1h-4v4z" display="block" overflow="visible" fill="url(#N)" paint-order="fill markers stroke"/><path d="M161.296 149.704v1h-2v2h2v1h4v-4z" style="isolation:auto;mix-blend-mode:normal;marker:none" display="block" overflow="visible" fill="url(#O)" paint-order="fill markers stroke"/><path d="M159.296 156.704v-1h2v-2h-2v-1h-4v4z" style="isolation:auto;mix-blend-mode:normal;marker:none" display="block" overflow="visible" fill="url(#P)" paint-order="fill markers stroke"/><path style="isolation:auto;mix-blend-mode:normal;marker:none" d="M161.296 155.704v1h-2v2h2v1h4v-4z" display="block" overflow="visible" fill="url(#Q)" paint-order="fill markers stroke"/><path d="M161.296 161.382v1h-2v2h2v1h4v-4z" style="isolation:auto;mix-blend-mode:normal;marker:none" display="block" overflow="visible" fill="url(#R)" paint-order="fill markers stroke"/><path style="isolation:auto;mix-blend-mode:normal;marker:none" d="M159.296 162.382v-1h2v-2h-2v-1h-4v4z" display="block" overflow="visible" fill="url(#S)" paint-order="fill markers stroke"/><path d="M159.296 168.382v-1h2v-2h-2v-1h-4v4z" style="isolation:auto;mix-blend-mode:normal;marker:none" display="block" overflow="visible" fill="url(#T)" paint-order="fill markers stroke"/><path style="isolation:auto;mix-blend-mode:normal;marker:none" d="M161.296 167.382v1h-2v2h2v1h4v-4z" display="block" overflow="visible" fill="url(#U)" paint-order="fill markers stroke"/><path style="isolation:auto;mix-blend-mode:normal;marker:none" d="M159.296 174.382v-1h2v-2h-2v-1h-4v4z" display="block" overflow="visible" fill="url(#V)" paint-order="fill markers stroke"/><path d="M161.296 173.382v1h-2v2h2v1h4v-4z" style="isolation:auto;mix-blend-mode:normal;marker:none" display="block" overflow="visible" fill="url(#W)" paint-order="fill markers stroke"/></g></svg>