<svg xmlns:osb="http://www.openswatchbook.org/uri/2009/osb" xmlns="http://www.w3.org/2000/svg" xmlns:xlink="http://www.w3.org/1999/xlink" height="96" viewBox="0 0 96 96" width="96"><title>Template icons dark</title><defs><linearGradient id="g" osb:paint="solid"><stop offset="0" stop-opacity=".196"/></linearGradient><linearGradient id="f" osb:paint="solid"><stop offset="0" stop-color="#fff" stop-opacity=".302"/></linearGradient><linearGradient id="e" osb:paint="solid"><stop offset="0" stop-opacity=".013"/></linearGradient><linearGradient id="d" osb:paint="solid"><stop offset="0" stop-opacity=".031"/></linearGradient><linearGradient id="b"><stop offset="0" stop-color="#f8c6c6"/><stop offset="1" stop-color="#f8a28d"/></linearGradient><linearGradient id="a"><stop offset="0" stop-color="#fa8484"/><stop offset="1" stop-color="#f9a874"/></linearGradient><linearGradient xlink:href="#a" id="l" gradientUnits="userSpaceOnUse" gradientTransform="matrix(2.19434 0 0 2.19615 107.378 109.173)" x1="24.117" y1="4.931" x2="24.058" y2="42.556"/><linearGradient xlink:href="#b" id="s" gradientUnits="userSpaceOnUse" gradientTransform="matrix(2.50782 0 0 2.19615 97.007 108.932)" x1="33.094" y1="10.504" x2="29.904" y2="14.147"/><linearGradient xlink:href="#c" id="o" gradientUnits="userSpaceOnUse" gradientTransform="matrix(2.19434 0 0 2.19615 107.378 109.173)" x1="23.981" y1="23.144" x2="45.855" y2="1.287"/><linearGradient xlink:href="#c" id="n" gradientUnits="userSpaceOnUse" gradientTransform="matrix(2.19434 0 0 2.19615 107.378 109.173)" x1="23.981" y1="23.144" x2="2.106" y2="45"/><linearGradient xlink:href="#c" id="m" gradientUnits="userSpaceOnUse" gradientTransform="matrix(2.19434 0 0 2.19615 107.378 109.173)" x1="23.981" y1="23.144" x2="45.855" y2="45"/><linearGradient id="c"><stop offset="0" stop-opacity="0"/><stop offset="1" stop-opacity=".102"/></linearGradient><linearGradient xlink:href="#c" id="p" gradientUnits="userSpaceOnUse" gradientTransform="matrix(2.19434 0 0 2.19615 107.378 109.173)" x1="23.981" y1="23.144" x2="2.106" y2="1.287"/><linearGradient xlink:href="#d" id="k" x1="126" y1="161.5" x2="194" y2="161.5" gradientUnits="userSpaceOnUse"/><linearGradient xlink:href="#e" id="j" x1="125" y1="161.5" x2="195" y2="161.5" gradientUnits="userSpaceOnUse"/><linearGradient xlink:href="#f" id="t" x1="127" y1="120.5" x2="169" y2="120.5" gradientUnits="userSpaceOnUse"/><linearGradient xlink:href="#g" id="r" x1="166" y1="133.472" x2="193" y2="133.472" gradientUnits="userSpaceOnUse"/><linearGradient id="h"><stop offset="0" stop-opacity="0"/><stop offset="1" stop-opacity=".083"/></linearGradient><linearGradient gradientTransform="matrix(1.5 0 0 1.48214 -62.047 -79.462)" xlink:href="#h" id="q" x1="127" y1="161.5" x2="148.031" y2="161.5" gradientUnits="userSpaceOnUse"/><linearGradient id="i"><stop offset="0" stop-color="#e33a2f" stop-opacity=".929"/><stop offset="1" stop-color="#d97754" stop-opacity=".984"/></linearGradient></defs><path d="M125 118h44l26 26v61h-70z" style="isolation:auto;mix-blend-mode:normal;marker:none" color="#000" overflow="visible" fill="url(#j)" stroke-width=".879" paint-order="fill markers stroke" transform="translate(-112 -112)"/><path style="isolation:auto;mix-blend-mode:normal;marker:none" d="M126 119h43l25 25v60h-68v-85z" color="#000" overflow="visible" fill="url(#k)" stroke-width=".852" paint-order="fill markers stroke" transform="translate(-112 -112)"/><path d="M127 120h42l24 24v59h-66v-83z" style="isolation:auto;mix-blend-mode:normal;marker:none" color="#000" overflow="visible" fill="url(#l)" stroke-width=".829" paint-order="fill markers stroke" transform="translate(-112 -112)"/><path style="isolation:auto;mix-blend-mode:normal;marker:none" d="M127 120h42l24 24v59h-66z" color="#000" overflow="visible" fill="url(#m)" stroke-width=".829" paint-order="fill markers stroke" transform="translate(-112 -112)"/><path d="M127 120h42l24 24v59h-66z" style="isolation:auto;mix-blend-mode:normal;marker:none" color="#000" overflow="visible" fill="url(#n)" stroke-width=".829" paint-order="fill markers stroke" transform="translate(-112 -112)"/><path style="isolation:auto;mix-blend-mode:normal;marker:none" d="M127 120h42l24 24v59h-66z" color="#000" overflow="visible" fill="url(#o)" stroke-width=".829" paint-order="fill markers stroke" transform="translate(-112 -112)"/><path d="M127 120h42l24 24v59h-66z" style="isolation:auto;mix-blend-mode:normal;marker:none" color="#000" overflow="visible" fill="url(#p)" stroke-width=".829" paint-order="fill markers stroke" transform="translate(-112 -112)"/><path style="isolation:auto;mix-blend-mode:normal;marker:none" d="M127 120h33v83h-33v-83z" color="#000" overflow="visible" fill="url(#q)" stroke-width="1.236" paint-order="fill markers stroke" transform="translate(-112 -112)"/><path d="M28 35.983h40l-4 36-16 8-16-8z" fill="#f9f9f9" fill-opacity=".245" fill-rule="evenodd" stroke="#fff" stroke-width=".5" stroke-opacity=".464"/><path d="M169 120l24 24-27 2.945z" fill="url(#r)" fill-rule="evenodd" stroke-width="2.195" transform="translate(-112 -112)"/><path d="M169 120l24 24h-24z" fill="url(#s)" fill-rule="evenodd" stroke-width="2.347" transform="translate(-112 -112)"/><path style="isolation:auto;mix-blend-mode:normal;marker:none" color="#000" display="block" overflow="visible" fill="url(#t)" stroke-width=".2" paint-order="fill markers stroke" d="M127 120h42v1h-42z" transform="translate(-112 -112)"/><g fill="#e44d26"><path d="M34.744 42.01h26.533l-.126 1.421-.241 2.686-.106 1.19H40.534l.483 5.425H60.321l-.129 1.422L58.948 68.1l-.08.895-10.841 3.004-.024.007-10.851-3.012-.742-8.317h5.317l.377 4.224 5.9 1.593.004-.002 5.909-1.595.614-6.87H36.173L34.871 43.43l-.127-1.42z" fill="#761616" fill-opacity=".464"/><path d="M34.747 41.01h26.532l-.126 1.421-.24 2.686-.107 1.19h-20.27l.484 5.424h19.304l-.13 1.423-1.244 13.945-.08.895L48.03 71l-.025.006-10.85-3.012-.743-8.317h5.317l.378 4.224 5.899 1.594.005-.003 5.908-1.594.615-6.87H36.175L34.874 42.43l-.127-1.421z" fill="#e8e8e8"/></g></svg>