<svg xmlns:osb="http://www.openswatchbook.org/uri/2009/osb" xmlns="http://www.w3.org/2000/svg" xmlns:xlink="http://www.w3.org/1999/xlink" height="96" viewBox="0 0 96 96" width="96"><title>Template icons dark</title><defs><linearGradient id="g" osb:paint="solid"><stop offset="0" stop-opacity=".196"/></linearGradient><linearGradient id="f" osb:paint="solid"><stop offset="0" stop-color="#fff" stop-opacity=".052"/></linearGradient><linearGradient id="e" osb:paint="solid"><stop offset="0" stop-opacity=".009"/></linearGradient><linearGradient id="d" osb:paint="solid"><stop offset="0" stop-opacity=".022"/></linearGradient><linearGradient id="b"><stop offset="0" stop-color="#525764"/><stop offset="1" stop-color="#464c57"/></linearGradient><linearGradient id="a"><stop offset="0" stop-color="#494f5a"/><stop offset="1" stop-color="#494e5a"/></linearGradient><linearGradient xlink:href="#a" id="j" gradientUnits="userSpaceOnUse" gradientTransform="matrix(2.19434 0 0 2.19615 107.378 109.173)" x1="24.117" y1="4.931" x2="24.058" y2="42.556"/><linearGradient xlink:href="#b" id="p" gradientUnits="userSpaceOnUse" gradientTransform="matrix(2.50782 0 0 2.19615 97.007 108.932)" x1="33.094" y1="10.504" x2="29.904" y2="14.147"/><linearGradient xlink:href="#c" id="m" gradientUnits="userSpaceOnUse" gradientTransform="matrix(2.19434 0 0 2.19615 107.378 109.173)" x1="23.981" y1="23.144" x2="45.855" y2="1.287"/><linearGradient xlink:href="#c" id="l" gradientUnits="userSpaceOnUse" gradientTransform="matrix(2.19434 0 0 2.19615 107.378 109.173)" x1="23.981" y1="23.144" x2="2.106" y2="45"/><linearGradient xlink:href="#c" id="k" gradientUnits="userSpaceOnUse" gradientTransform="matrix(2.19434 0 0 2.19615 107.378 109.173)" x1="23.981" y1="23.144" x2="45.855" y2="45"/><linearGradient id="c"><stop offset="0" stop-opacity="0"/><stop offset="1" stop-opacity=".102"/></linearGradient><linearGradient xlink:href="#c" id="n" gradientUnits="userSpaceOnUse" gradientTransform="matrix(2.19434 0 0 2.19615 107.378 109.173)" x1="23.981" y1="23.144" x2="2.106" y2="1.287"/><linearGradient xlink:href="#d" id="i" x1="126" y1="161.5" x2="194" y2="161.5" gradientUnits="userSpaceOnUse"/><linearGradient xlink:href="#e" id="h" x1="125" y1="161.5" x2="195" y2="161.5" gradientUnits="userSpaceOnUse"/><linearGradient xlink:href="#f" id="q" x1="127" y1="120.5" x2="169" y2="120.5" gradientUnits="userSpaceOnUse"/><linearGradient xlink:href="#g" id="o" x1="166" y1="133.472" x2="193" y2="133.472" gradientUnits="userSpaceOnUse"/></defs><path d="M125 118h44l26 26v61h-70z" style="isolation:auto;mix-blend-mode:normal;marker:none" color="#000" overflow="visible" fill="url(#h)" stroke-width=".879" paint-order="fill markers stroke" transform="translate(-112 -112)"/><path style="isolation:auto;mix-blend-mode:normal;marker:none" d="M126 119h43l25 25v60h-68v-85z" color="#000" overflow="visible" fill="url(#i)" stroke-width=".852" paint-order="fill markers stroke" transform="translate(-112 -112)"/><path d="M127 120h42l24 24v59h-66v-83z" style="isolation:auto;mix-blend-mode:normal;marker:none" color="#000" overflow="visible" fill="url(#j)" stroke-width=".829" paint-order="fill markers stroke" transform="translate(-112 -112)"/><path style="isolation:auto;mix-blend-mode:normal;marker:none" d="M127 120h42l24 24v59h-66z" color="#000" overflow="visible" fill="url(#k)" stroke-width=".829" paint-order="fill markers stroke" transform="translate(-112 -112)"/><path d="M127 120h42l24 24v59h-66z" style="isolation:auto;mix-blend-mode:normal;marker:none" color="#000" overflow="visible" fill="url(#l)" stroke-width=".829" paint-order="fill markers stroke" transform="translate(-112 -112)"/><path style="isolation:auto;mix-blend-mode:normal;marker:none" d="M127 120h42l24 24v59h-66z" color="#000" overflow="visible" fill="url(#m)" stroke-width=".829" paint-order="fill markers stroke" transform="translate(-112 -112)"/><path d="M127 120h42l24 24v59h-66z" style="isolation:auto;mix-blend-mode:normal;marker:none" color="#000" overflow="visible" fill="url(#n)" stroke-width=".829" paint-order="fill markers stroke" transform="translate(-112 -112)"/><path d="M169 120l24 24-27 2.945z" fill="url(#o)" fill-rule="evenodd" stroke-width="2.195" transform="translate(-112 -112)"/><path d="M169 120l24 24h-24z" fill="url(#p)" fill-rule="evenodd" stroke-width="2.347" transform="translate(-112 -112)"/><path style="isolation:auto;mix-blend-mode:normal;marker:none" color="#000" display="block" overflow="visible" fill="url(#q)" stroke-width=".2" paint-order="fill markers stroke" d="M127 120h42v1h-42z" transform="translate(-112 -112)"/><path style="line-height:120.00000477%;isolation:auto;mix-blend-mode:normal;marker:none" color="#000" font-size="2.667" font-family="sans-serif" letter-spacing="0" word-spacing="0" overflow="visible" fill="#121823" fill-opacity=".11" stroke-width=".638" paint-order="fill markers stroke" d="M15 8h10v83H15z"/><text style="line-height:162.99999952%;text-align:end" x="134.448" y="137.322" font-size="4" font-family="sans-serif" letter-spacing="0" word-spacing="0" text-anchor="end" fill="#fff" fill-opacity=".966" stroke-width=".5" transform="translate(-112 -112)"><tspan x="134.448" y="137.322" style="line-height:162.99999952%;-inkscape-font-specification:sans-serif;text-align:end" font-weight="400">1.</tspan> <tspan x="134.448" y="143.842" style="line-height:162.99999952%;-inkscape-font-specification:sans-serif;text-align:end" font-weight="400">2.</tspan> <tspan x="134.448" y="150.362" style="line-height:162.99999952%;-inkscape-font-specification:sans-serif;text-align:end" font-weight="400">3.</tspan> <tspan x="134.448" y="156.882" style="line-height:162.99999952%;-inkscape-font-specification:sans-serif;text-align:end" font-weight="400">4.</tspan> <tspan x="134.448" y="163.402" style="line-height:162.99999952%;-inkscape-font-specification:sans-serif;text-align:end" font-weight="400">5.</tspan> <tspan x="134.448" y="169.922" style="line-height:162.99999952%;-inkscape-font-specification:sans-serif;text-align:end" font-weight="400">6.</tspan> <tspan x="134.448" y="176.442" style="line-height:162.99999952%;-inkscape-font-specification:sans-serif;text-align:end" font-weight="400">7.</tspan> <tspan x="134.448" y="182.962" style="line-height:162.99999952%;-inkscape-font-specification:sans-serif;text-align:end" font-weight="400">8.</tspan> <tspan x="134.448" y="189.482" style="line-height:162.99999952%;-inkscape-font-specification:sans-serif;text-align:end" font-weight="400">9.</tspan></text><g style="line-height:120.00000477%" font-size="2.667" font-family="sans-serif" letter-spacing="0" word-spacing="0" fill="#344f67" fill-opacity=".89" stroke-width="1.251"><path style="line-height:120.00000477%" d="M29.1 23.898l-2.088.758v.27l2.088.758v-.297l-1.682-.594 1.682-.598zm19.336 5.508v.905h.277v-.905zm.615 0v.905h.277v-.905zM29.1 29.9l-2.088.758v.27l2.088.758v-.297l-1.682-.594 1.682-.598zm16.574.424v.274h2.088v-.274zm0 .664v.278h2.088v-.278zM29.1 35.902l-2.088.758v.27l2.088.757v-.296l-1.682-.594 1.682-.598zm9.037 0v.297l1.678.598-1.678.594v.296l2.088-.757v-.27zm19.418 5.51v.902h.277v-.902zm.615 0v.902h.277v-.902zm10.654 0v.902h.278v-.902zm.616 0v.902h.277v-.902zm-37.545.492l-2.088.758v.27l2.088.757v-.296l-1.682-.594 1.682-.598zm38.5 0v.297l1.675.598-1.675.594v.296l2.087-.757v-.27zm-15.602.424v.274h2.088v-.274zm0 .664v.278h2.088v-.278zm7.697 4.422l-.845 2.74h.275l.848-2.74zm-30.595.492l-2.088.758v.27l2.088.757v-.296l-1.682-.594 1.682-.598zm7.226 0v.297l1.678.598-1.678.594v.296l2.088-.757v-.27zm22.17 0l-2.088.758v.27l2.088.757v-.296L59.61 48.8l1.682-.598zm8.354 0v.297l1.677.598-1.677.594v.296l2.087-.757v-.27zm-39.346 5.51l-.846 2.74h.276l.847-2.74zm-1.2.492l-2.087.758v.27l2.088.757v-.297l-1.682-.593 1.682-.598zm10.165 0v.297l1.677.598-1.677.593v.297l2.088-.757v-.27zM29.1 59.91l-2.088.758v.271l2.088.756V61.4l-1.682-.595 1.682-.598zm8.953 0v.297l1.678.598-1.678.595v.295l2.088-.756v-.271zm-7.754 7.512l-.846 2.74h.276l.847-2.74zm-1.2.494l-2.087.756v.271l2.088.756v-.295l-1.682-.595 1.682-.598zm10.08 0v.295l1.678.598-1.677.595v.295l2.088-.756v-.271zm-8.88 5.508l-.846 2.74h.276l.847-2.74zm-1.2.494l-2.087.756v.271l2.088.758v-.297l-1.682-.595 1.682-.598zm9.436 0v.295l1.676.598-1.676.595v.297l2.088-.758v-.271z" fill="#c3f7fe"/><path style="line-height:120.00000477%" d="M34.668 23.361c-.342 0-.615.115-.82.344-.204.228-.307.534-.307.918s.103.69.307.918c.205.228.478.342.82.342.34 0 .614-.114.818-.342.204-.23.307-.535.307-.918 0-.384-.103-.69-.307-.918-.204-.229-.477-.344-.818-.344zm2.686 0c-.368 0-.658.112-.87.338-.211.225-.318.533-.318.924 0 .39.107.698.318.924.212.225.502.336.87.336a1.335 1.335 0 0 0 .773-.234v-.344c-.11.103-.23.181-.355.232a1.042 1.042 0 0 1-.399.076c-.278 0-.49-.084-.639-.254-.147-.17-.22-.416-.22-.736 0-.321.073-.567.22-.736.148-.17.361-.256.64-.256.14 0 .273.025.398.076s.244.13.355.232v-.347a1.28 1.28 0 0 0-.363-.172 1.397 1.397 0 0 0-.41-.059zm-7.399.043v1.067l.035.582h.264l.033-.582v-1.067zm1.16 0v2.432h.676c.47 0 .814-.098 1.035-.295.222-.196.332-.505.332-.924 0-.417-.11-.722-.33-.918-.22-.196-.566-.295-1.037-.295zm7.186 0v.278h.863v2.154h.332v-2.154h.861v-.258l.846 1.254v1.158h.33v-1.158l.862-1.274h-.354l-.67 1-.674-1h-.34zm4.416 0v2.432h.328v-.977h.414c.273 0 .478-.06.617-.183.14-.123.211-.305.211-.545 0-.238-.07-.418-.21-.541-.14-.124-.345-.186-.618-.186zm2.012 0v2.432h1.566v-.277h-1.236v-.881h1.158v-.276h-1.158v-.72h1.207v-.278zm-10.061.225c.239 0 .427.088.566.266.14.178.211.42.211.728 0 .306-.07.549-.21.727a.68.68 0 0 1-.567.267.69.69 0 0 1-.57-.267c-.14-.178-.21-.42-.21-.727s.07-.55.21-.728a.689.689 0 0 1 .57-.266zm-3.225.047h.399c.335 0 .58.074.736.226.157.151.235.39.235.715 0 .328-.078.569-.235.72-.155.153-.4.23-.736.23h-.399zm11.602 0h.414c.153 0 .272.04.356.119.083.08.125.19.125.336 0 .147-.042.26-.125.34-.084.08-.203.117-.356.117h-.414zm-13.09 1.746v.414h.332v-.414z" fill="#c382ff" fill-opacity="1"/><path style="line-height:120.00000477%" d="M47.877 23.303v2.533h.3v-1.031c0-.178.048-.32.141-.422a.49.49 0 0 1 .383-.154c.135 0 .236.043.303.128.067.086.102.216.102.39v1.089h.298v-1.1c0-.252-.052-.443-.16-.572-.107-.13-.267-.195-.476-.195a.678.678 0 0 0-.336.082.732.732 0 0 0-.254.244v-.992zm2.123.191v.518h-.219v.234h.22v.99c0 .228.044.384.132.471.088.086.247.129.478.129h.309v-.25h-.309c-.124 0-.208-.022-.25-.065-.04-.042-.058-.136-.058-.285v-.99h.617v-.234h-.617v-.518zm2.191.475a.695.695 0 0 0-.341.08.67.67 0 0 0-.244.246v-.283h-.303v1.824h.303v-1.031c0-.177.044-.317.134-.42a.458.458 0 0 1 .366-.156c.129 0 .223.042.285.126.062.084.093.215.093.391v1.09h.301v-1.031c0-.178.045-.319.135-.422a.466.466 0 0 1 .37-.154c.126 0 .22.042.282.126.062.085.092.216.092.391v1.09h.3v-1.1c0-.245-.05-.436-.153-.568a.522.522 0 0 0-.44-.2.686.686 0 0 0-.367.096.792.792 0 0 0-.27.3.585.585 0 0 0-.207-.294.553.553 0 0 0-.335-.101zM38.43 29.305v2.533h.3v-2.533zm1.566.666c-.098 0-.2.011-.303.033-.103.02-.208.051-.318.094v.277a1.213 1.213 0 0 1 .59-.15c.164 0 .29.037.38.113a.392.392 0 0 1 .137.32v.03h-.42c-.272 0-.477.051-.615.156-.136.104-.205.257-.205.463 0 .175.055.316.164.421.111.105.259.157.446.157a.819.819 0 0 0 .375-.078.66.66 0 0 0 .255-.246v.277h.3v-1.04-.001c-.001-.277-.066-.485-.196-.621-.13-.137-.326-.205-.59-.205zm2.283 0a.68.68 0 0 0-.336.082.727.727 0 0 0-.252.244v-.283h-.302v1.824h.302v-1.031c0-.178.046-.317.14-.42a.492.492 0 0 1 .382-.157c.135 0 .235.044.303.13.067.085.101.215.101.388v1.09h.3v-1.1c0-.252-.054-.443-.161-.572-.108-.13-.267-.195-.477-.195zm1.854 0a.66.66 0 0 0-.541.256c-.137.17-.205.397-.205.68 0 .28.068.505.205.675a.66.66 0 0 0 .54.256.712.712 0 0 0 .349-.08.614.614 0 0 0 .236-.24v.148c0 .207-.049.363-.147.465-.097.103-.245.154-.441.154a1.01 1.01 0 0 1-.262-.035 1.176 1.176 0 0 1-.26-.106v.291c.088.033.179.058.272.073.093.016.193.023.299.023.284 0 .495-.074.633-.226.137-.151.207-.383.207-.694v-1.597h-.301v.277a.614.614 0 0 0-.236-.24.712.712 0 0 0-.348-.08zm.074.25a.44.44 0 0 1 .375.18c.09.119.135.286.135.503 0 .216-.045.385-.135.504a.44.44 0 0 1-.375.18.446.446 0 0 1-.377-.18c-.089-.12-.133-.288-.133-.504 0-.217.044-.384.133-.504.09-.119.216-.18.377-.18zm-4.023.7h.298v.067a.701.701 0 0 1-.152.471.497.497 0 0 1-.398.176.421.421 0 0 1-.287-.094.325.325 0 0 1-.104-.254c0-.133.047-.228.14-.283.094-.055.26-.082.503-.082zm3.922 10.388v2.533h.3v-1.03c0-.178.048-.318.14-.421a.492.492 0 0 1 .384-.157c.134 0 .235.043.302.13.068.085.102.215.102.388v1.09h.299v-1.1c0-.252-.053-.443-.16-.572-.108-.13-.267-.195-.477-.195a.686.686 0 0 0-.338.082.734.734 0 0 0-.252.246v-.994zm9.333.191v.52h-.218v.232h.218v.99c0 .228.045.386.133.473.088.086.248.127.479.127h.306v-.25h-.306c-.125 0-.209-.022-.25-.065-.04-.042-.06-.136-.06-.285v-.99h.616v-.233h-.617V41.5zm-10.373.475c-.284 0-.507.085-.671.255-.163.17-.245.404-.245.702 0 .293.08.526.243.699.161.172.38.26.654.26.1 0 .196-.01.285-.03.09-.02.176-.048.26-.088v-.277a1.19 1.19 0 0 1-.256.106.976.976 0 0 1-.256.035.572.572 0 0 1-.453-.186c-.107-.124-.162-.297-.162-.52 0-.222.054-.394.162-.517.107-.124.259-.185.453-.185.087 0 .171.01.256.035.086.022.171.058.256.105v-.281a1.194 1.194 0 0 0-.256-.084 1.237 1.237 0 0 0-.27-.03zm3.807 0c-.098 0-.198.011-.3.033-.104.02-.21.051-.32.094v.277a1.21 1.21 0 0 1 .59-.15c.165 0 .292.037.382.113a.392.392 0 0 1 .136.32v.03h-.42c-.272 0-.479.051-.617.156-.137.104-.205.26-.205.464 0 .176.057.317.166.422.11.105.259.157.446.157a.819.819 0 0 0 .375-.079.66.66 0 0 0 .255-.246v.276h.3v-1.04c0-.277-.066-.486-.196-.622-.13-.137-.328-.205-.592-.205zm2.31 0a.772.772 0 0 0-.369.082.61.61 0 0 0-.246.246v-.284h-.3v1.823h.3v-.961c0-.206.047-.363.137-.473a.477.477 0 0 1 .39-.166c.049 0 .09.004.13.014.04.009.077.023.111.043l-.002-.309c-.03-.005-.057-.007-.082-.01s-.048-.006-.068-.006zm1.05 0c-.224 0-.397.047-.518.14a.47.47 0 0 0-.182.397c0 .14.04.252.123.334.083.08.217.14.403.18l.105.023c.186.04.305.083.36.127.055.043.081.104.081.185a.233.233 0 0 1-.113.207.617.617 0 0 1-.326.07 1.24 1.24 0 0 1-.318-.04 1.664 1.664 0 0 1-.328-.131v.308c.117.038.228.068.334.086.106.02.208.03.306.03.235 0 .42-.05.553-.149a.472.472 0 0 0 .201-.402.448.448 0 0 0-.135-.348c-.089-.083-.24-.148-.453-.193l-.101-.024c-.161-.035-.27-.072-.323-.111a.195.195 0 0 1-.08-.164c0-.091.038-.16.112-.205a.658.658 0 0 1 .336-.069 1.165 1.165 0 0 1 .547.129v-.283a1.322 1.322 0 0 0-.27-.072 1.92 1.92 0 0 0-.315-.026zm1.923 0c-.273 0-.49.087-.652.263-.16.175-.242.413-.242.711 0 .289.084.516.254.686.17.17.402.256.693.256a1.789 1.789 0 0 0 .674-.14v-.284a1.486 1.486 0 0 1-.322.127 1.307 1.307 0 0 1-.334.043c-.2 0-.353-.055-.465-.162-.111-.109-.173-.267-.186-.473h1.377v-.147c0-.27-.071-.485-.215-.642-.142-.159-.336-.238-.582-.238zm.004.254c.148 0 .267.048.356.146a.57.57 0 0 1 .136.393l-1.066.002a.598.598 0 0 1 .172-.399.566.566 0 0 1 .402-.142zm-5.097.697h.298v.066a.701.701 0 0 1-.152.47.497.497 0 0 1-.398.177.42.42 0 0 1-.287-.092.325.325 0 0 1-.104-.254c0-.134.045-.228.139-.283.093-.056.262-.084.504-.084z" fill="#f7fd93"/><path style="line-height:120.00000477%" d="M29.756 29.305v2.533h.3v-1.031a.6.6 0 0 1 .141-.42.492.492 0 0 1 .383-.157c.135 0 .236.044.303.13.067.085.1.215.1.388v1.09h.3v-1.1c0-.252-.054-.443-.162-.572-.107-.13-.265-.195-.474-.195a.687.687 0 0 0-.338.082.727.727 0 0 0-.252.244v-.992zm6.687 0v2.533h.3v-2.533zm-4.564.191v.518h-.22v.234h.22v.99c0 .228.045.384.133.471.088.086.247.129.478.129h.307v-.25h-.307c-.125 0-.208-.022-.25-.065-.04-.042-.06-.136-.06-.285v-.99h.617v-.234h-.617v-.518zm2.19.475a.687.687 0 0 0-.34.08.681.681 0 0 0-.247.248v-.285h-.3v1.824h.3v-1.031c0-.177.047-.317.137-.42a.454.454 0 0 1 .363-.157c.13 0 .226.043.288.127.061.084.093.215.093.391v1.09h.301v-1.031c0-.178.045-.317.135-.42a.463.463 0 0 1 .367-.157c.127 0 .221.043.283.127.062.085.094.216.094.391v1.09h.3v-1.1c0-.245-.05-.436-.154-.568a.522.522 0 0 0-.439-.2.693.693 0 0 0-.37.096.788.788 0 0 0-.267.3.585.585 0 0 0-.207-.294.56.56 0 0 0-.338-.101zm-4.313 5.336v2.533h.3v-1.03c0-.178.048-.318.141-.421a.492.492 0 0 1 .383-.157c.135 0 .236.044.303.13.067.085.1.215.1.388v1.09h.3v-1.1c0-.252-.054-.443-.162-.572-.107-.13-.265-.195-.474-.195a.686.686 0 0 0-.338.082.733.733 0 0 0-.252.246v-.994zm7.426 0v.986a.615.615 0 0 0-.24-.24.702.702 0 0 0-.346-.08c-.22 0-.4.087-.54.263-.137.176-.204.407-.204.694 0 .286.067.517.205.693a.658.658 0 0 0 .539.266c.134 0 .25-.028.345-.08a.628.628 0 0 0 .24-.243v.274h.3v-2.533zm-4.534.666c-.273 0-.492.087-.654.263-.16.175-.24.41-.24.71 0 .288.085.517.254.687.17.17.4.254.691.254.116 0 .231-.012.344-.035.113-.024.223-.058.33-.104v-.283a1.487 1.487 0 0 1-.322.127 1.306 1.306 0 0 1-.334.04c-.199 0-.353-.052-.465-.16-.11-.108-.173-.266-.186-.472h1.377v-.147c0-.27-.071-.485-.214-.642-.143-.159-.335-.238-.58-.238zm1.928 0c-.097 0-.2.011-.303.033-.103.02-.208.051-.318.094v.277a1.214 1.214 0 0 1 .59-.15c.164 0 .29.037.38.113a.392.392 0 0 1 .138.32v.03h-.42c-.273 0-.478.051-.616.156-.136.104-.205.257-.205.463 0 .175.055.316.164.421.111.105.259.157.446.157a.819.819 0 0 0 .375-.078.654.654 0 0 0 .256-.245v.276h.298V36.8c0-.277-.065-.485-.195-.622s-.326-.205-.59-.205zm2.094.25c.158 0 .284.063.375.19.091.124.137.296.137.517 0 .22-.046.393-.137.52a.44.44 0 0 1-.375.187.44.44 0 0 1-.375-.188c-.09-.126-.135-.299-.135-.52 0-.22.045-.392.135-.517a.439.439 0 0 1 .375-.19zm-4.02.004c.148 0 .267.048.356.146.09.098.136.229.139.393l-1.069.002a.598.598 0 0 1 .172-.399.566.566 0 0 1 .402-.142zm2.114.697h.299v.066a.701.701 0 0 1-.153.471.497.497 0 0 1-.398.176.42.42 0 0 1-.287-.092.33.33 0 0 1-.104-.256c0-.133.047-.228.14-.283.094-.055.26-.082.503-.082zm3.095 4.576v.52h-.22v.232h.22v.99c0 .228.043.386.131.473.088.086.248.127.479.127h.308v-.25h-.308c-.125 0-.207-.022-.248-.065-.04-.042-.06-.136-.06-.285v-.99h.616v-.232h-.617v-.52zm-4.421.475a.687.687 0 0 0-.34.08.681.681 0 0 0-.246.248v-.283h-.301v1.822h.3v-1.03c0-.176.045-.316.135-.42a.46.46 0 0 1 .366-.158c.129 0 .225.045.287.13.062.083.092.212.092.388v1.09h.3v-1.03c0-.177.045-.318.135-.421a.467.467 0 0 1 .37-.157c.126 0 .22.045.282.13.062.084.094.213.094.388v1.09h.3v-1.1c0-.245-.05-.434-.153-.566a.527.527 0 0 0-.442-.201.686.686 0 0 0-.367.095.791.791 0 0 0-.27.3.582.582 0 0 0-.205-.294.56.56 0 0 0-.337-.101zm3.138 0c-.273 0-.492.088-.654.263-.16.175-.24.413-.24.711 0 .29.084.517.254.686.17.17.4.256.691.256a1.789 1.789 0 0 0 .674-.14v-.284a1.487 1.487 0 0 1-.322.127 1.307 1.307 0 0 1-.334.043c-.2 0-.353-.055-.465-.162-.111-.109-.173-.267-.186-.473h1.377v-.146c0-.272-.071-.486-.215-.643-.142-.158-.334-.238-.58-.238zm3.237 0c-.098 0-.198.011-.301.033-.103.02-.21.051-.32.094v.277a1.21 1.21 0 0 1 .59-.15c.163 0 .29.037.38.113a.392.392 0 0 1 .137.32v.03h-.42c-.273 0-.477.051-.615.156-.137.104-.205.26-.205.465 0 .175.054.316.164.421.11.105.26.157.447.157a.819.819 0 0 0 .375-.078.655.655 0 0 0 .254-.247v.276h.3v-1.04c0-.277-.064-.485-.195-.622-.13-.137-.328-.205-.591-.205zm-3.235.254c.148 0 .267.048.356.146.09.098.136.229.138.393l-1.068.002a.598.598 0 0 1 .172-.399.566.566 0 0 1 .402-.142zm3.424.697h.297v.066c0 .196-.05.353-.15.471a.497.497 0 0 1-.399.176.42.42 0 0 1-.287-.092.325.325 0 0 1-.104-.254c0-.133.046-.228.14-.283.093-.056.26-.084.503-.084zm-6.13 4.385v.379h.298v-.38zm2.234 0v2.533h.298V47.31zm28.289 0v.379h.298v-.38zm2.234 0v2.533h.299V47.31zm-34.072.193v.518h-.221v.232h.22v.99c0 .228.044.386.132.473.087.086.249.127.48.127h.307v-.25h-.307c-.125 0-.209-.02-.25-.063-.04-.042-.06-.138-.06-.287v-.99h.617v-.232h-.618v-.518zm2.234 0v.518h-.22v.232h.22v.99c0 .228.043.386.13.473.089.086.248.127.48.127h.308v-.25H35.4c-.124 0-.206-.02-.248-.063-.04-.042-.06-.138-.06-.287v-.99h.617v-.232h-.617v-.518zm28.29 0v.518h-.22v.232h.22v.99c0 .228.044.386.132.473.088.086.247.127.478.127h.307v-.25h-.307c-.124 0-.208-.02-.25-.063-.04-.042-.06-.138-.06-.287v-.99h.617v-.232h-.617v-.518zm2.234 0v.518h-.22v.232h.22v.99c0 .228.044.386.132.473.088.086.248.127.479.127h.306v-.25h-.306c-.125 0-.209-.02-.25-.063-.04-.042-.06-.138-.06-.287v-.99h.616v-.232h-.617v-.518zm-27.522.473c-.274 0-.49.087-.652.263-.161.175-.24.413-.24.711 0 .29.084.518.253.688.17.17.4.254.692.254a1.789 1.789 0 0 0 .674-.14v-.284a1.486 1.486 0 0 1-.323.127 1.307 1.307 0 0 1-.334.043c-.198 0-.353-.055-.465-.162-.11-.109-.172-.267-.185-.473h1.377v-.146c0-.272-.072-.486-.215-.643-.142-.159-.337-.238-.582-.238zm30.525 0c-.273 0-.492.087-.654.263-.16.175-.24.413-.24.711 0 .29.084.518.254.688.17.17.4.254.691.254a1.789 1.789 0 0 0 .674-.14v-.284a1.486 1.486 0 0 1-.322.127 1.307 1.307 0 0 1-.334.043c-.199 0-.353-.055-.465-.162-.11-.109-.173-.267-.186-.473h1.377v-.146c0-.272-.071-.486-.215-.643-.142-.159-.334-.238-.58-.238zm-34.447.045v1.822h.299v-1.822zm30.524 0v1.822h.298v-1.822zm-26.598.209c.148 0 .266.048.355.146.09.098.137.229.14.393l-1.07.002a.598.598 0 0 1 .173-.399.566.566 0 0 1 .402-.142zm30.523 0c.148 0 .267.048.356.146.09.098.136.229.139.393l-1.069.002a.598.598 0 0 1 .172-.399.566.566 0 0 1 .402-.142zm-37.437 5.082v2.535h.3v-1.032c0-.178.048-.318.141-.421a.49.49 0 0 1 .383-.155c.135 0 .236.043.303.13.067.085.1.213.1.386v1.092h.3v-1.102c0-.252-.054-.443-.162-.572-.107-.13-.265-.195-.475-.195a.686.686 0 0 0-.337.082.733.733 0 0 0-.252.246v-.994zm7.426 0v.986a.615.615 0 0 0-.24-.24.701.701 0 0 0-.346-.08c-.22 0-.4.087-.54.263-.137.176-.204.407-.204.694 0 .286.067.519.205.695a.656.656 0 0 0 .539.264c.134 0 .25-.026.345-.079a.634.634 0 0 0 .24-.244v.276h.3v-2.535zm-4.534.666c-.273 0-.492.087-.654.263-.16.175-.24.413-.24.711 0 .289.084.518.254.688.17.17.4.254.691.254a1.782 1.782 0 0 0 .674-.14v-.284a1.487 1.487 0 0 1-.322.127 1.307 1.307 0 0 1-.334.043c-.199 0-.353-.055-.465-.162-.11-.109-.173-.267-.186-.473h1.377v-.146c0-.272-.071-.486-.214-.643-.143-.159-.335-.238-.58-.238zm1.928 0c-.098 0-.2.011-.303.033-.103.02-.208.051-.318.093v.278a1.213 1.213 0 0 1 .59-.15c.164 0 .29.039.38.115.092.075.138.18.138.318v.03h-.42c-.273 0-.478.051-.616.156-.136.104-.205.26-.205.464 0 .176.055.317.164.422.111.105.259.157.446.157a.819.819 0 0 0 .375-.079.66.66 0 0 0 .256-.246v.278h.298v-1.041c0-.278-.065-.487-.195-.623-.13-.137-.326-.205-.59-.205zm2.094.252c.158 0 .284.061.375.187.091.125.137.297.137.518 0 .22-.046.393-.137.52a.44.44 0 0 1-.375.187.44.44 0 0 1-.375-.188c-.09-.126-.135-.299-.135-.52 0-.22.045-.392.135-.517a.437.437 0 0 1 .375-.187zm-4.02.002c.148 0 .267.048.356.146.09.098.136.229.139.393l-1.069.002a.598.598 0 0 1 .172-.399.566.566 0 0 1 .402-.142zm2.114.697h.299v.066a.701.701 0 0 1-.153.47.497.497 0 0 1-.398.177.42.42 0 0 1-.287-.092.325.325 0 0 1-.104-.254c0-.134.047-.228.14-.283.094-.056.26-.084.503-.084zm-6.135 4.385v2.535h.3v-.274a.631.631 0 0 0 .239.242.72.72 0 0 0 .346.079.65.65 0 0 0 .537-.264c.139-.176.209-.407.209-.693 0-.287-.07-.52-.21-.696a.65.65 0 0 0-.536-.263.707.707 0 0 0-.346.08.623.623 0 0 0-.238.242v-.988zm5.367 0v.988a.62.62 0 0 0-.584-.322c-.22 0-.4.087-.539.263-.138.176-.207.409-.207.696 0 .286.07.517.207.693a.656.656 0 0 0 .54.264.706.706 0 0 0 .343-.079.628.628 0 0 0 .24-.242v.274h.299v-2.535zm-2.533.666c-.262 0-.467.084-.615.254-.148.169-.221.405-.221.705 0 .298.073.532.22.703.15.17.354.254.616.254.26 0 .466-.085.615-.254.149-.17.223-.405.223-.703 0-.3-.074-.536-.223-.705-.149-.17-.355-.254-.615-.254zm3.234.044l.739 1.795-.055.137c-.056.146-.105.236-.15.276a.284.284 0 0 1-.192.058h-.178v.252h.24a.491.491 0 0 0 .323-.1c.08-.066.163-.208.248-.425l.8-1.992h-.318l-.568 1.425-.57-1.425zm-5.258.208c.159 0 .283.061.374.187.09.125.136.3.136.52 0 .22-.045.393-.136.52a.433.433 0 0 1-.374.185.438.438 0 0 1-.375-.186c-.09-.126-.134-.3-.134-.52 0-.22.044-.394.134-.519a.437.437 0 0 1 .375-.187zm4.045 0c.159 0 .284.061.375.187.092.125.137.3.137.52 0 .22-.045.393-.137.52a.438.438 0 0 1-.375.185.438.438 0 0 1-.375-.186c-.09-.126-.134-.3-.134-.52 0-.22.044-.394.134-.519a.437.437 0 0 1 .375-.187zm-2.021.002a.45.45 0 0 1 .38.19c.094.127.14.299.14.515 0 .217-.046.387-.14.513a.45.45 0 0 1-.38.19.453.453 0 0 1-.383-.188c-.092-.126-.137-.297-.137-.515 0-.219.046-.391.139-.516a.45.45 0 0 1 .38-.19zm-1.707 7.084v2.535h.3v-.274a.631.631 0 0 0 .239.242c.097.053.21.079.344.079a.653.653 0 0 0 .539-.264c.139-.176.209-.407.209-.694 0-.286-.07-.517-.21-.693a.655.655 0 0 0-.538-.265.7.7 0 0 0-.344.08.623.623 0 0 0-.238.242v-.988zm5.367 0v.988a.62.62 0 0 0-.584-.323c-.22 0-.4.09-.539.266-.138.176-.207.407-.207.693 0 .287.07.518.207.694a.656.656 0 0 0 .54.264.706.706 0 0 0 .343-.079.628.628 0 0 0 .24-.242v.274h.299v-2.536zm-2.533.666c-.262 0-.467.086-.615.255-.148.17-.221.404-.221.704 0 .298.073.532.22.703.15.169.354.254.616.254.26 0 .466-.085.615-.254.149-.17.223-.405.223-.703 0-.3-.074-.534-.223-.704-.149-.169-.355-.255-.615-.255zm3.234.044l.739 1.795-.055.137c-.056.146-.105.238-.15.277a.29.29 0 0 1-.194.059h-.176v.25h.24a.491.491 0 0 0 .323-.1c.08-.066.163-.206.248-.423l.8-1.995h-.318l-.568 1.426-.57-1.426zm-5.258.207c.159 0 .283.064.373.19.092.125.137.297.137.517 0 .22-.045.394-.137.52a.435.435 0 0 1-.373.188.44.44 0 0 1-.375-.188c-.09-.126-.134-.3-.134-.52 0-.22.044-.392.134-.517a.439.439 0 0 1 .375-.19zm4.045 0c.159 0 .284.064.375.19.092.125.137.297.137.517 0 .22-.045.394-.137.52a.44.44 0 0 1-.375.188.44.44 0 0 1-.375-.188c-.09-.126-.134-.3-.134-.52 0-.22.044-.392.134-.517a.439.439 0 0 1 .375-.19zm-2.021.004c.16 0 .287.063.38.19.094.126.14.298.14.514 0 .217-.046.387-.14.513a.45.45 0 0 1-.38.19.452.452 0 0 1-.383-.188c-.092-.126-.137-.297-.137-.515 0-.219.046-.391.139-.516a.448.448 0 0 1 .38-.188zm-2.834 5.082v2.534h.3v-1.032c0-.178.048-.318.141-.421a.49.49 0 0 1 .383-.155c.135 0 .236.043.303.13.067.085.1.213.1.386v1.092h.3v-1.102c0-.252-.054-.441-.162-.57-.107-.13-.265-.195-.475-.195a.685.685 0 0 0-.337.08.733.733 0 0 0-.252.246v-.992zm6.687 0v2.534h.3v-2.534zm-4.564.192v.517h-.22v.233h.22v.99c0 .228.045.386.133.473.088.086.247.129.478.129h.307v-.25h-.307c-.125 0-.208-.023-.25-.065-.04-.042-.06-.138-.06-.287v-.99h.617v-.232h-.617v-.518zm2.19.475a.687.687 0 0 0-.34.078.681.681 0 0 0-.247.248v-.284h-.3v1.825h.3v-1.032c0-.177.045-.316.135-.42a.458.458 0 0 1 .365-.156c.13 0 .226.043.288.127.061.084.093.213.093.389v1.092h.301v-1.032c0-.178.045-.318.135-.421a.461.461 0 0 1 .367-.155c.127 0 .221.043.283.127.062.085.094.214.094.389v1.092h.3v-1.102c0-.245-.05-.434-.154-.566a.522.522 0 0 0-.44-.2.693.693 0 0 0-.368.096.781.781 0 0 0-.268.297.585.585 0 0 0-.207-.293.558.558 0 0 0-.338-.1z" fill="#66efff" fill-opacity="1"/><path style="line-height:120.00000477%" d="M50.73 29.97c-.273 0-.492.088-.654.264-.16.175-.24.41-.24.71 0 .288.084.517.254.687.17.17.4.254.691.254.116 0 .231-.012.344-.035.113-.024.225-.058.332-.104v-.283a1.487 1.487 0 0 1-.322.127 1.306 1.306 0 0 1-.334.04c-.199 0-.355-.052-.467-.16-.11-.108-.173-.266-.186-.472h1.38v-.147c0-.27-.074-.485-.217-.642-.143-.159-.335-.238-.58-.238zm2.168 0a.687.687 0 0 0-.337.083.727.727 0 0 0-.252.244v-.283h-.303v1.824h.303v-1.031c0-.178.045-.317.138-.42a.492.492 0 0 1 .383-.157c.135 0 .236.044.303.13.067.085.101.215.101.388v1.09h.301v-1.1c0-.252-.054-.443-.162-.572-.107-.13-.265-.195-.475-.195zm-2.166.255c.148 0 .267.048.356.146.09.098.136.229.139.393l-1.069.002a.599.599 0 0 1 .174-.399.561.561 0 0 1 .4-.142zM67.44 41.367c-.242 0-.432.057-.57.17a.564.564 0 0 0-.208.461c0 .139.04.257.117.354.08.096.191.162.332.197a.656.656 0 0 0-.37.215.6.6 0 0 0-.135.394c0 .236.071.417.214.543.145.126.351.19.62.19.268 0 .473-.064.617-.19.144-.126.216-.307.216-.543a.598.598 0 0 0-.132-.394.653.653 0 0 0-.371-.215.59.59 0 0 0 .328-.197.54.54 0 0 0 .119-.354.564.564 0 0 0-.207-.46c-.138-.114-.328-.17-.57-.17zm-8.38.045v1.518c0 .317.079.555.235.716.157.162.39.245.697.245.306 0 .537-.083.694-.245.157-.161.236-.4.236-.716v-1.518h-.33v1.477c0 .26-.046.447-.14.562-.095.114-.25.172-.46.172-.211 0-.364-.058-.459-.172-.094-.115-.14-.302-.14-.562v-1.477zm2.145 0v.275h.863v2.155h.33v-2.155h.864v-.275zm2.375 0v2.43h.33v-1.16h.963v-.278h-.963v-.717h1.067v-.275zm3.86.215a.48.48 0 0 1 .33.107c.08.071.12.17.12.295 0 .126-.04.223-.12.293a.48.48 0 0 1-.33.108.483.483 0 0 1-.333-.108.373.373 0 0 1-.117-.293c0-.126.04-.224.117-.295.08-.07.19-.107.333-.107zm0 1.06c.157 0 .28.042.369.125.09.084.136.2.136.346a.453.453 0 0 1-.136.346.52.52 0 0 1-.37.125.52.52 0 0 1-.369-.125.451.451 0 0 1-.132-.346c0-.146.043-.262.132-.346a.52.52 0 0 1 .37-.125zm-2.102.108v.267h.877v-.267z" fill="#f8bebe"/><path style="line-height:120.00000477%" d="M41.889 47.414v2.43h.676c.469 0 .815-.097 1.037-.293.221-.197.332-.505.332-.924 0-.417-.112-.723-.332-.918-.22-.197-.566-.295-1.037-.295zm15.96.09v.517h-.22v.233h.22v.99c0 .228.046.386.133.473.088.086.248.127.479.127h.307v-.25h-.307c-.125 0-.209-.02-.25-.063-.04-.042-.06-.138-.06-.287v-.99h.617v-.233h-.618v-.517zm-15.63.18h.396c.336 0 .581.076.737.228.156.151.234.39.234.715 0 .328-.078.567-.234.719-.156.152-.401.228-.737.228h-.396zm2.93.293c-.262 0-.467.084-.616.253-.147.17-.22.404-.22.704 0 .298.073.534.22.705.149.169.354.254.615.254s.467-.085.616-.254c.148-.17.222-.407.222-.705 0-.3-.074-.534-.222-.704-.149-.169-.355-.253-.616-.253zm2.119 0c-.285 0-.508.085-.672.255-.163.17-.244.404-.244.702 0 .293.08.526.242.699.162.172.38.26.654.26.101 0 .196-.01.285-.03.09-.02.176-.049.26-.088v-.277a1.176 1.176 0 0 1-.254.105.99.99 0 0 1-.258.036.572.572 0 0 1-.453-.186c-.107-.124-.16-.297-.16-.52 0-.222.053-.394.16-.517.108-.124.259-.186.453-.186a1.114 1.114 0 0 1 .512.14v-.278a1.255 1.255 0 0 0-.525-.115zm4.043 0a.687.687 0 0 0-.34.08.681.681 0 0 0-.246.248v-.284h-.301v1.825h.3v-1.032c0-.177.047-.316.137-.42a.454.454 0 0 1 .364-.156c.129 0 .225.043.287.127.062.084.093.213.093.389v1.092h.301v-1.032c0-.178.045-.318.135-.421a.461.461 0 0 1 .367-.155c.127 0 .222.043.283.127.062.085.094.214.094.389v1.092h.3v-1.102c0-.245-.05-.434-.153-.566a.523.523 0 0 0-.44-.201.693.693 0 0 0-.369.095.788.788 0 0 0-.268.299.585.585 0 0 0-.207-.293.56.56 0 0 0-.337-.101zm3.138 0c-.273 0-.49.087-.652.263-.16.175-.242.413-.242.711 0 .289.084.518.254.688.17.169.402.254.693.254a1.789 1.789 0 0 0 .674-.14v-.284a1.486 1.486 0 0 1-.322.127 1.307 1.307 0 0 1-.334.043c-.2 0-.353-.055-.465-.162-.111-.109-.175-.267-.188-.473h1.38v-.147c0-.271-.072-.485-.216-.642-.142-.159-.336-.238-.582-.238zm2.168 0a.687.687 0 0 0-.338.082.733.733 0 0 0-.252.246v-.284h-.3v1.823h.3v-1.03c0-.178.048-.318.141-.422a.49.49 0 0 1 .383-.154c.134 0 .235.041.303.127.067.086.1.216.1.389v1.09h.3v-1.1c0-.252-.055-.443-.162-.572-.108-.13-.265-.196-.475-.196zm-8.33.044v1.104c0 .25.054.442.162.572.109.13.27.196.479.196a.676.676 0 0 0 .334-.08.744.744 0 0 0 .254-.249v.28h.299V48.02h-.3v1.034a.601.601 0 0 1-.142.421.49.49 0 0 1-.383.155c-.134 0-.235-.043-.302-.13-.068-.086-.1-.215-.1-.388v-1.092zm-3.139.21a.45.45 0 0 1 .381.19c.094.127.139.296.139.513 0 .217-.045.39-.139.515a.45.45 0 0 1-.38.19.449.449 0 0 1-.381-.188c-.093-.126-.139-.3-.139-.517 0-.219.045-.39.139-.514a.45.45 0 0 1 .38-.19zm9.305 0c.148 0 .267.048.356.146a.57.57 0 0 1 .136.392l-1.068.002a.599.599 0 0 1 .174-.398.566.566 0 0 1 .402-.143z" fill="#f8f8f8" fill-opacity=".974"/></g></svg>