<svg xmlns:osb="http://www.openswatchbook.org/uri/2009/osb" xmlns="http://www.w3.org/2000/svg" xmlns:xlink="http://www.w3.org/1999/xlink" height="96" viewBox="0 0 96 96" width="96"><title>Template icons dark</title><defs><linearGradient id="g" osb:paint="solid"><stop offset="0" stop-opacity=".196"/></linearGradient><linearGradient id="f" osb:paint="solid"><stop offset="0" stop-color="#fff" stop-opacity=".208"/></linearGradient><linearGradient id="e" osb:paint="solid"><stop offset="0" stop-opacity=".004"/></linearGradient><linearGradient id="d" osb:paint="solid"><stop offset="0" stop-opacity=".026"/></linearGradient><linearGradient id="b"><stop offset="0" stop-color="#bf72f7"/><stop offset="1" stop-color="#ae37d5"/></linearGradient><linearGradient id="a"><stop offset="0" stop-color="#e730f4"/><stop offset="1" stop-color="#894bed"/></linearGradient><linearGradient xlink:href="#a" id="p" gradientUnits="userSpaceOnUse" gradientTransform="matrix(2.19434 0 0 2.19615 107.378 109.173)" x1="24.117" y1="4.931" x2="24.058" y2="42.556"/><linearGradient xlink:href="#b" id="C" gradientUnits="userSpaceOnUse" gradientTransform="matrix(2.50782 0 0 2.19615 97.007 108.932)" x1="33.094" y1="10.504" x2="29.904" y2="14.147"/><linearGradient xlink:href="#c" id="s" gradientUnits="userSpaceOnUse" gradientTransform="matrix(2.19434 0 0 2.19615 107.378 109.173)" x1="23.981" y1="23.144" x2="45.855" y2="1.287"/><linearGradient xlink:href="#c" id="r" gradientUnits="userSpaceOnUse" gradientTransform="matrix(2.19434 0 0 2.19615 107.378 109.173)" x1="23.981" y1="23.144" x2="2.106" y2="45"/><linearGradient xlink:href="#c" id="q" gradientUnits="userSpaceOnUse" gradientTransform="matrix(2.19434 0 0 2.19615 107.378 109.173)" x1="23.981" y1="23.144" x2="45.855" y2="45"/><linearGradient id="c"><stop offset="0" stop-opacity="0"/><stop offset="1" stop-opacity=".102"/></linearGradient><linearGradient xlink:href="#c" id="t" gradientUnits="userSpaceOnUse" gradientTransform="matrix(2.19434 0 0 2.19615 107.378 109.173)" x1="23.981" y1="23.144" x2="2.106" y2="1.287"/><linearGradient xlink:href="#d" id="o" x1="126" y1="161.5" x2="194" y2="161.5" gradientUnits="userSpaceOnUse"/><linearGradient xlink:href="#e" id="n" x1="125" y1="161.5" x2="195" y2="161.5" gradientUnits="userSpaceOnUse"/><linearGradient xlink:href="#f" id="D" x1="127" y1="120.5" x2="169" y2="120.5" gradientUnits="userSpaceOnUse"/><linearGradient xlink:href="#g" id="B" x1="166" y1="133.472" x2="193" y2="133.472" gradientUnits="userSpaceOnUse"/><linearGradient id="m"><stop offset="0" stop-color="#fff"/><stop offset="1" stop-color="#b5b2b5"/></linearGradient><linearGradient id="h"><stop offset="0" stop-color="#1d1f23"/><stop offset=".361" stop-color="#515359"/><stop offset="1" stop-color="#484848"/></linearGradient><linearGradient id="i"><stop offset="0" stop-color="#a5a6ad"/><stop offset="1" stop-color="#ded7de"/></linearGradient><linearGradient id="j"><stop offset="0" stop-color="#ada6ad"/><stop offset="1" stop-color="#ded7de"/></linearGradient><linearGradient id="k"><stop offset="0" stop-color="#242424"/><stop offset="1" stop-color="#3a333a"/></linearGradient><linearGradient id="l"><stop offset="0" stop-color="#211721"/><stop offset="1" stop-color="#332f39"/></linearGradient><linearGradient xlink:href="#h" id="A" gradientUnits="userSpaceOnUse" gradientTransform="matrix(.61744 0 0 .61744 122.739 115.732)" x1="14.128" y1="36.045" x2="14.128" y2="11.771"/><linearGradient xlink:href="#i" id="z" x1="64.483" y1="994.038" x2="64.483" y2="980.267" gradientUnits="userSpaceOnUse" gradientTransform="matrix(.61744 0 0 .61744 124.962 -474.7)"/><linearGradient xlink:href="#i" id="y" gradientUnits="userSpaceOnUse" gradientTransform="matrix(.61744 0 0 .61744 126.92 -474.821)" x1="64.483" y1="994.038" x2="64.483" y2="980.267"/><linearGradient xlink:href="#j" id="x" gradientUnits="userSpaceOnUse" gradientTransform="matrix(.61744 0 0 .61744 126.92 -474.821)" x1="40.574" y1="978.823" x2="40.574" y2="962.158"/><linearGradient xlink:href="#j" id="w" gradientUnits="userSpaceOnUse" gradientTransform="matrix(.61744 0 0 .61744 124.962 -474.7)" x1="40.574" y1="978.823" x2="40.574" y2="962.158"/><linearGradient xlink:href="#k" id="v" gradientUnits="userSpaceOnUse" gradientTransform="matrix(.61744 0 0 .57885 122.739 -437.591)" x1="52.891" y1="995.124" x2="52.891" y2="980.244"/><linearGradient xlink:href="#l" id="u" x1="49.087" y1="22.098" x2="49.087" y2="7.789" gradientUnits="userSpaceOnUse" gradientTransform="matrix(.61744 0 0 .61744 122.739 115.114)"/><radialGradient xlink:href="#m" id="E" cx="-3.76" cy="21.906" fx="-3.76" fy="21.906" r="3.906" gradientUnits="userSpaceOnUse" gradientTransform="matrix(.46306 -.44201 .44327 .46437 123.325 117.707)"/></defs><g transform="translate(-112 -112)"><path d="M125 118h44l26 26v61h-70z" style="isolation:auto;mix-blend-mode:normal;marker:none" color="#000" overflow="visible" fill="url(#n)" stroke-width=".879" paint-order="fill markers stroke"/><path style="isolation:auto;mix-blend-mode:normal;marker:none" d="M126 119h43l25 25v60h-68v-85z" color="#000" overflow="visible" fill="url(#o)" stroke-width=".852" paint-order="fill markers stroke"/><path d="M127 120h42l24 24v59h-66v-83z" style="isolation:auto;mix-blend-mode:normal;marker:none" color="#000" overflow="visible" fill="url(#p)" stroke-width=".829" paint-order="fill markers stroke"/><path style="isolation:auto;mix-blend-mode:normal;marker:none" d="M127 120h42l24 24v59h-66z" color="#000" overflow="visible" fill="url(#q)" stroke-width=".829" paint-order="fill markers stroke"/><path d="M127 120h42l24 24v59h-66z" style="isolation:auto;mix-blend-mode:normal;marker:none" color="#000" overflow="visible" fill="url(#r)" stroke-width=".829" paint-order="fill markers stroke"/><path style="isolation:auto;mix-blend-mode:normal;marker:none" d="M127 120h42l24 24v59h-66z" color="#000" overflow="visible" fill="url(#s)" stroke-width=".829" paint-order="fill markers stroke"/><path d="M127 120h42l24 24v59h-66z" style="isolation:auto;mix-blend-mode:normal;marker:none" color="#000" overflow="visible" fill="url(#t)" stroke-width=".829" paint-order="fill markers stroke"/><path d="M127 120v10h52l-10-10z" fill="url(#u)" stroke-width=".617"/><path d="M127 130h52l10 10h-62z" fill="url(#v)" stroke-width=".617"/><path d="M127.913 120.65L128 140l9.407.057-.066-10.07z" fill-opacity=".995" stroke-width=".617"/><path d="M138 120l10 10h10l-10-10z" fill="url(#w)" stroke-width=".617"/><path d="M159 120l10 10h9.742l-9.828-10z" fill="url(#x)" stroke-width=".617"/><path d="M169 130l-10 10h10l10-10z" fill="url(#y)" stroke-width=".617"/><path d="M148 130l-10 10h10l10-10z" fill="url(#z)" stroke-width=".617"/><path d="M126.913 120.65L127 140l9.407.057-.066-10.07z" fill="url(#A)" stroke-width=".617"/><path d="M169 120l24 24-27 2.945z" fill="url(#B)" fill-rule="evenodd" stroke-width="2.195"/><path d="M169 120l24 24h-24z" fill="url(#C)" fill-rule="evenodd" stroke-width="2.347"/><path style="isolation:auto;mix-blend-mode:normal;marker:none" color="#000" display="block" overflow="visible" fill="url(#D)" stroke-width=".2" paint-order="fill markers stroke" d="M127 120h42v1h-42z"/><path style="isolation:auto;mix-blend-mode:normal;marker:none" color="#000" display="block" overflow="visible" fill-opacity=".224" stroke-width=".71" stroke-dasharray="4.26169772,4.26169772" stroke-opacity=".667" paint-order="fill markers stroke" d="M127 140h42v2.018h-42z"/><path style="isolation:auto;mix-blend-mode:normal;marker:none" color="#000" display="block" overflow="visible" fill-opacity=".224" stroke-width=".504" stroke-dasharray="3.02478065,3.02478065" stroke-opacity=".667" paint-order="fill markers stroke" d="M127 140h42v1.017h-42z"/><circle cx="131.365" cy="131.257" r="2.508" fill-opacity=".245" stroke-width=".642"/><circle cx="131.365" cy="130.529" r="2.508" fill="url(#E)" stroke-width=".642"/></g></svg>