<svg xmlns:osb="http://www.openswatchbook.org/uri/2009/osb" xmlns="http://www.w3.org/2000/svg" xmlns:xlink="http://www.w3.org/1999/xlink" height="64" viewBox="0 0 64 64" width="64"><title>Template icons dark</title><defs><linearGradient id="f" osb:paint="solid"><stop offset="0"/></linearGradient><linearGradient id="c" osb:paint="solid"><stop offset="0" stop-opacity=".018"/></linearGradient><linearGradient id="e"><stop offset="0" stop-opacity=".128"/><stop offset="1" stop-opacity=".392"/></linearGradient><linearGradient id="a"><stop offset="0" stop-color="#66a3e2"/><stop offset="1" stop-color="#69a5e3"/></linearGradient><linearGradient id="b" osb:paint="solid"><stop offset="0" stop-color="#525e7d"/></linearGradient><linearGradient id="d"><stop offset="0" stop-opacity="0"/><stop offset=".25" stop-opacity=".091"/><stop offset="1" stop-opacity="0"/></linearGradient><linearGradient id="j" osb:paint="solid"><stop offset="0" stop-color="#4b78a7"/></linearGradient><linearGradient id="g"><stop offset="0" stop-color="#404552" stop-opacity="0"/><stop offset="1" stop-color="#404552" stop-opacity=".839"/></linearGradient><linearGradient id="h"><stop offset="0" stop-color="#404552" stop-opacity=".036"/><stop offset="1" stop-color="#404552" stop-opacity=".979"/></linearGradient><linearGradient id="i"><stop offset="0" stop-color="#828282"/><stop offset=".253" stop-color="#fff"/><stop offset=".522" stop-color="#717171"/><stop offset=".785" stop-color="#717171"/><stop offset="1" stop-color="#4c4c4c"/></linearGradient><linearGradient xlink:href="#c" id="k" gradientUnits="userSpaceOnUse" gradientTransform="matrix(1.01967 0 0 1.03029 6.062 -69.829)" x1="64.666" y1="133.777" x2="88.203" y2="133.777"/><linearGradient xlink:href="#b" id="l" gradientUnits="userSpaceOnUse" gradientTransform="matrix(.66667 0 0 .66667 37.326 -26.667)" x1="116" y1="160" x2="204" y2="160"/><linearGradient xlink:href="#d" id="m" gradientUnits="userSpaceOnUse" gradientTransform="matrix(1.3232 0 0 1.32502 111.799 46.216)" x1="13" y1="17" x2="13" y2="11"/><linearGradient xlink:href="#a" id="n" gradientUnits="userSpaceOnUse" gradientTransform="translate(64.326)" x1="87.674" y1="59" x2="87.674" y2="106"/><linearGradient xlink:href="#j" id="q" gradientUnits="userSpaceOnUse" gradientTransform="matrix(.79833 0 0 .79833 -22.239 -29.48)" x1="428" y1="172" x2="468.094" y2="172"/><linearGradient xlink:href="#j" id="o" gradientUnits="userSpaceOnUse" gradientTransform="matrix(.79833 0 0 .79833 -22.239 -29.48)" x1="428" y1="172" x2="468.094" y2="172"/><linearGradient xlink:href="#j" id="p" gradientUnits="userSpaceOnUse" gradientTransform="matrix(.79833 0 0 .79833 -22.239 -29.48)" x1="428" y1="172" x2="468.094" y2="172"/></defs><path d="M117 52c-2 0-3 1-3 3l-.007 49c0 2 1.007 3 3.007 3h54c2 0 3-1 3-3V61c0-2-1-3-3-3h-24l-8-6z" style="marker:none" fill="url(#k)" paint-order="fill markers stroke" transform="translate(-112 -48)"/><path d="M118 53c-2 0-3 1-3 3v47c0 2 1 3 3 3h52c2 0 3-1 3-3V62c0-1.333-1.667-3-3-3h-23l-8-6z" fill="url(#l)" transform="translate(-112 -48)"/><path d="M118 53c-2 0-3 1-3 3v47c0 2 1 3 3 3h52c2 0 3-1 3-3V62c0-1.333-1.667-3-3-3h-23l-8-6z" fill="url(#m)" transform="translate(-112 -48)"/><path d="M170 59c1.333 0 3 1.66 3 3v41c0 2-1 3-3 3h-52c-2 0-3-1-3-3V69c0-1.333 1.667-3 3-3h21l8-7z" style="marker:none" fill="url(#n)" paint-order="fill markers stroke" transform="translate(-112 -48)"/><path d="M6 5C4 5 3 6 3 8.183 3 6 4 6 6 6h21l7 5h1l-8-6z" fill="#fff" fill-opacity=".328"/><path d="M35 11l-8 7H6c-1.333 0-3 1.667-3 3 0-1.333 1.667-2 3-2h21.024L35 12h23c1.333 0 3 .667 3 2 0-1.333-1.667-3-3-3z" fill="#fff" fill-opacity=".37"/><path style="isolation:auto;mix-blend-mode:normal;marker:none" d="M8 8h17s2 0 2 2-2 2-2 2l-17 .032S6 12 6 10s2-2 2-2z" color="#000" display="block" overflow="visible" fill-opacity=".078" paint-order="fill markers stroke"/><path style="isolation:auto;mix-blend-mode:normal;marker:none" d="M8 8s-2 0-2 2c0-1 2-1.5 2-1.5h17s2 .5 2 1.5c0-2-2-2-2-2z" color="#000" display="block" overflow="visible" fill-opacity=".157" paint-order="fill markers stroke"/><path d="M25 12s2.012 0 2-2c0 1-2 1.5-2 1.5H8S6 11 6 10c0 2 2 2.031 2 2.031z" style="isolation:auto;mix-blend-mode:normal;marker:none" color="#000" display="block" overflow="visible" fill="#e7e7e7" fill-opacity=".235" paint-order="fill markers stroke"/><path style="line-height:normal;text-indent:0;text-align:start;text-decoration-line:none;text-decoration-style:solid;text-decoration-color:#000;text-transform:none;isolation:auto;mix-blend-mode:normal;marker:none" d="M131 74v27h23V83l-8-9zm2 2h13v7h6v16.087L133 99z" color="#000" font-weight="400" font-family="sans-serif" white-space="normal" overflow="visible" fill="url(#o)" paint-order="fill markers stroke" transform="translate(-112 -48)"/><path style="isolation:auto;mix-blend-mode:normal;marker:none" d="M144 78v7h6v12h-15V78z" color="#000" display="block" overflow="visible" opacity=".4" fill="url(#p)" paint-order="fill markers stroke" transform="translate(-112 -48)"/><path d="M160 97l.063-18L152 70h-15v4h2v-2h13v7h6v16h-4v2z" style="line-height:normal;text-indent:0;text-align:start;text-decoration-line:none;text-decoration-style:solid;text-decoration-color:#000;text-transform:none;isolation:auto;mix-blend-mode:normal;marker:none" color="#000" font-weight="400" font-family="sans-serif" white-space="normal" overflow="visible" opacity=".8" fill="url(#q)" paint-order="fill markers stroke" transform="translate(-112 -48)"/></svg>