<svg xmlns:osb="http://www.openswatchbook.org/uri/2009/osb" xmlns="http://www.w3.org/2000/svg" xmlns:xlink="http://www.w3.org/1999/xlink" height="64" viewBox="0 0 64 64" width="64"><title>Template icons dark</title><defs><linearGradient id="f" osb:paint="solid"><stop offset="0"/></linearGradient><linearGradient id="c" osb:paint="solid"><stop offset="0" stop-opacity=".018"/></linearGradient><linearGradient id="e"><stop offset="0" stop-opacity=".128"/><stop offset="1" stop-opacity=".392"/></linearGradient><linearGradient id="a"><stop offset="0" stop-color="#66a3e2"/><stop offset="1" stop-color="#69a5e3"/></linearGradient><linearGradient id="b" osb:paint="solid"><stop offset="0" stop-color="#525e7d"/></linearGradient><linearGradient id="d"><stop offset="0" stop-opacity="0"/><stop offset=".25" stop-opacity=".091"/><stop offset="1" stop-opacity="0"/></linearGradient><linearGradient id="j" osb:paint="solid"><stop offset="0" stop-color="#4b78a7"/></linearGradient><linearGradient id="g"><stop offset="0" stop-color="#404552" stop-opacity="0"/><stop offset="1" stop-color="#404552" stop-opacity=".839"/></linearGradient><linearGradient id="h"><stop offset="0" stop-color="#404552" stop-opacity=".036"/><stop offset="1" stop-color="#404552" stop-opacity=".979"/></linearGradient><linearGradient id="i"><stop offset="0" stop-color="#828282"/><stop offset=".253" stop-color="#fff"/><stop offset=".522" stop-color="#717171"/><stop offset=".785" stop-color="#717171"/><stop offset="1" stop-color="#4c4c4c"/></linearGradient><linearGradient xlink:href="#c" id="k" gradientUnits="userSpaceOnUse" gradientTransform="matrix(1.01967 0 0 1.03029 454.062 -69.829)" x1="64.666" y1="133.777" x2="88.203" y2="133.777"/><linearGradient xlink:href="#b" id="l" gradientUnits="userSpaceOnUse" gradientTransform="matrix(.66667 0 0 .66667 485.326 -26.667)" x1="116" y1="160" x2="204" y2="160"/><linearGradient xlink:href="#d" id="m" gradientUnits="userSpaceOnUse" gradientTransform="matrix(1.3232 0 0 1.32502 559.799 46.216)" x1="13" y1="17" x2="13" y2="11"/><linearGradient xlink:href="#a" id="n" gradientUnits="userSpaceOnUse" gradientTransform="translate(512.326)" x1="87.674" y1="59" x2="87.674" y2="105.638"/><linearGradient xlink:href="#j" id="q" gradientUnits="userSpaceOnUse" gradientTransform="matrix(.56396 0 0 .56396 10.398 -9.553)" x1="428" y1="182" x2="468.094" y2="182"/><linearGradient xlink:href="#j" id="p" gradientUnits="userSpaceOnUse" gradientTransform="matrix(.56396 0 0 .56396 339.713 -10.68)" x1="428" y1="172" x2="468.094" y2="172"/><linearGradient xlink:href="#j" id="o" gradientUnits="userSpaceOnUse" gradientTransform="matrix(.56396 0 0 .56396 339.713 -10.68)" x1="428" y1="172" x2="468.094" y2="172"/></defs><path style="marker:none" d="M565 52c-2 0-3 1-3 3l-.007 49c0 2 1.007 3 3.007 3h54c2 0 3-1 3-3V61c0-2-1-3-3-3h-24l-8-6z" fill="url(#k)" paint-order="fill markers stroke" transform="translate(-560 -48)"/><path d="M566 53c-2 0-3 1-3 3v47c0 2 1 3 3 3h52c2 0 3-1 3-3V62c0-1.333-1.667-3-3-3h-23l-8-6z" fill="url(#l)" transform="translate(-560 -48)"/><path d="M566 53c-2 0-3 1-3 3v47c0 2 1 3 3 3h52c2 0 3-1 3-3V62c0-1.333-1.667-3-3-3h-23l-8-6z" fill="url(#m)" transform="translate(-560 -48)"/><path style="marker:none" d="M618 59c1.333 0 3 1.66 3 3v41c0 2-1 3-3 3h-52c-2 0-3-1-3-3V69c0-1.333 1.667-3 3-3h21l8-7z" fill="url(#n)" paint-order="fill markers stroke" transform="translate(-560 -48)"/><path d="M6 5C4 5 3 6 3 8.183 3 6 4 6 6 6h21l7 5h1l-8-6z" fill="#fff" fill-opacity=".328"/><path d="M35 11l-8 7H6c-1.333 0-3 1.667-3 3 0-1.333 1.667-2 3-2h21.024L35 12h23c1.333 0 3 .667 3 2 0-1.333-1.667-3-3-3z" fill="#fff" fill-opacity=".37"/><path d="M8 8h17s2 0 2 2-2 2-2 2l-17 .032S6 12 6 10s2-2 2-2z" style="isolation:auto;mix-blend-mode:normal;marker:none" color="#000" display="block" overflow="visible" fill-opacity=".078" paint-order="fill markers stroke"/><path d="M8 8s-2 0-2 2c0-1 2-1.5 2-1.5h17s2 .5 2 1.5c0-2-2-2-2-2z" style="isolation:auto;mix-blend-mode:normal;marker:none" color="#000" display="block" overflow="visible" fill-opacity=".157" paint-order="fill markers stroke"/><path style="isolation:auto;mix-blend-mode:normal;marker:none" d="M25 12s2.012 0 2-2c0 1-2 1.5-2 1.5H8S6 11 6 10c0 2 2 2.031 2 2.031z" color="#000" display="block" overflow="visible" fill="#e7e7e7" fill-opacity=".235" paint-order="fill markers stroke"/><path style="isolation:auto;mix-blend-mode:normal;marker:none" d="M600.27 71.675a5.647 5.647 0 0 0-5.64 5.64c0 .913.223 1.775.61 2.54l-6.505 2.583a5.64 5.64 0 0 0-4.087-1.758 5.64 5.64 0 0 0 0 11.28 5.64 5.64 0 0 0 4.126-1.806l6.438 2.606c-.37.75-.582 1.59-.582 2.48a5.647 5.647 0 0 0 5.64 5.64 5.647 5.647 0 0 0 5.639-5.64c0-3.108-2.531-5.639-5.64-5.639a5.62 5.62 0 0 0-4.188 1.876l-6.417-2.593a5.64 5.64 0 0 0 .623-2.564 5.64 5.64 0 0 0-.61-2.548l6.457-2.637a5.62 5.62 0 0 0 4.135 1.819 5.647 5.647 0 0 0 5.64-5.64c0-3.108-2.531-5.64-5.64-5.64zm0 2.661a2.973 2.973 0 0 1 2.977 2.978 2.973 2.973 0 0 1-2.978 2.978 2.973 2.973 0 0 1-2.978-2.978 2.973 2.973 0 0 1 2.978-2.978zm-15.631 9.023a2.97 2.97 0 0 1 2.96 2.96 2.97 2.97 0 0 1-2.96 2.962 2.97 2.97 0 0 1-2.961-2.961 2.97 2.97 0 0 1 2.96-2.961zm15.63 8.6a3.276 3.276 0 0 1 3.282 3.282 3.276 3.276 0 0 1-3.282 3.281 3.276 3.276 0 0 1-3.281-3.281 3.276 3.276 0 0 1 3.281-3.282z" color="#000" overflow="visible" fill="url(#o)" transform="translate(-560 -48)"/><path style="isolation:auto;mix-blend-mode:normal;marker:none" d="M600.27 71.675a5.647 5.647 0 0 0-5.64 5.64c0 .085.011.168.015.254.162-2.965 2.62-5.33 5.624-5.33 3.014 0 5.477 2.38 5.625 5.357.007-.094.014-.187.014-.282a5.647 5.647 0 0 0-5.64-5.64zm-2.969 5.85a2.973 2.973 0 0 0 2.968 3.19 2.973 2.973 0 0 0 2.978-2.977c0-.072-.007-.142-.01-.212a2.97 2.97 0 0 1-2.968 2.766 2.97 2.97 0 0 1-2.968-2.766zm-2.257 2.445l-6.309 2.468a5.64 5.64 0 0 0-4.087-1.758 5.64 5.64 0 0 0-5.64 5.64c0 .095.01.188.014.282a5.635 5.635 0 0 1 5.625-5.358 5.64 5.64 0 0 1 4.088 1.758l6.506-2.584a5.747 5.747 0 0 1-.197-.448zm-5.171 4.248l-.195.118c.357.704.551 1.476.591 2.262.007-.093.018-.185.018-.278 0-.723-.146-1.434-.414-2.102zm-8.184 2.313c-.007.07-.01.14-.01.212a2.97 2.97 0 0 0 2.96 2.96 2.97 2.97 0 0 0 2.96-2.96c0-.072-.006-.142-.01-.212a2.969 2.969 0 0 1-2.95 2.75 2.969 2.969 0 0 1-2.95-2.75zm8.17 2.47c-.06.151-.12.302-.195.447l6.417 2.593a5.621 5.621 0 0 1 4.188-1.876c3.014 0 5.477 2.38 5.625 5.358.007-.094.015-.187.015-.282a5.647 5.647 0 0 0-5.64-5.64 5.62 5.62 0 0 0-4.188 1.876zm5.162 4.208a5.555 5.555 0 0 0-.391 2.032c0 .103.01.203.015.305a5.602 5.602 0 0 1 .567-2.222zm1.98 2.272a2.74 2.74 0 0 0-.013.24 3.276 3.276 0 0 0 3.281 3.282 3.276 3.276 0 0 0 3.282-3.281c0-.081-.007-.161-.012-.24a3.273 3.273 0 0 1-3.27 3.04 3.273 3.273 0 0 1-3.269-3.04z" color="#000" display="block" overflow="visible" fill="url(#p)" transform="translate(-560 -48)"/><path style="isolation:auto;mix-blend-mode:normal;marker:none" d="M600.27 73.913a2.973 2.973 0 0 0-2.979 2.978c0 .071.007.141.01.211a2.97 2.97 0 0 1 2.968-2.766 2.97 2.97 0 0 1 2.967 2.766c.007-.07.011-.14.011-.211a2.973 2.973 0 0 0-2.978-2.978zm-5.625 3.092c-.007.103-.015.205-.015.31 0 .74.152 1.443.414 2.09l.197-.115a5.605 5.605 0 0 1-.596-2.285zm11.25.027c-.149 2.978-2.612 5.358-5.626 5.358a5.619 5.619 0 0 1-4.135-1.819l-6.456 2.637c.073.145.134.296.195.446l6.261-2.519a5.619 5.619 0 0 0 4.135 1.819 5.647 5.647 0 0 0 5.64-5.64c0-.095-.01-.188-.014-.282zm-21.256 5.904a2.97 2.97 0 0 0-2.961 2.96c0 .072.007.142.01.212a2.969 2.969 0 0 1 2.95-2.749c1.557 0 2.84 1.22 2.95 2.75.008-.07.011-.14.011-.212a2.97 2.97 0 0 0-2.96-2.96zm5.63 3.099a5.635 5.635 0 0 1-.605 2.285l.196.118c.275-.672.425-1.39.427-2.118 0-.096-.013-.19-.017-.285zm-11.247.003c-.007.094-.014.186-.014.282a5.64 5.64 0 0 0 5.64 5.64 5.64 5.64 0 0 0 4.126-1.806l6.247 2.492c.06-.153.12-.304.192-.45l-6.44-2.606a5.64 5.64 0 0 1-4.125 1.805 5.635 5.635 0 0 1-5.626-5.357zm21.247 5.44a3.276 3.276 0 0 0-3.281 3.281c0 .082.007.161.012.241a3.273 3.273 0 0 1 3.27-3.04 3.273 3.273 0 0 1 3.268 3.04c.007-.08.012-.16.012-.24a3.276 3.276 0 0 0-3.281-3.282zm5.625 3.48c-.148 2.978-2.611 5.358-5.625 5.358-3.005 0-5.464-2.368-5.624-5.334-.007.086-.015.171-.015.259a5.647 5.647 0 0 0 5.64 5.64 5.647 5.647 0 0 0 5.639-5.64c0-.095-.01-.188-.014-.282z" color="#000" display="block" overflow="visible" fill="url(#q)" transform="translate(-560 -48)"/></svg>