<svg xmlns:osb="http://www.openswatchbook.org/uri/2009/osb" xmlns="http://www.w3.org/2000/svg" xmlns:xlink="http://www.w3.org/1999/xlink" height="64" viewBox="0 0 64 64" width="64"><title>Template icons dark</title><defs><linearGradient id="f" osb:paint="solid"><stop offset="0"/></linearGradient><linearGradient id="c" osb:paint="solid"><stop offset="0" stop-opacity=".018"/></linearGradient><linearGradient id="e"><stop offset="0" stop-opacity=".128"/><stop offset="1" stop-opacity=".392"/></linearGradient><linearGradient id="a"><stop offset="0" stop-color="#66a3e2"/><stop offset="1" stop-color="#69a5e3"/></linearGradient><linearGradient id="b" osb:paint="solid"><stop offset="0" stop-color="#525e7d"/></linearGradient><linearGradient id="d"><stop offset="0" stop-opacity="0"/><stop offset=".25" stop-opacity=".091"/><stop offset="1" stop-opacity="0"/></linearGradient><linearGradient id="j" osb:paint="solid"><stop offset="0" stop-color="#4b78a7"/></linearGradient><linearGradient id="g"><stop offset="0" stop-color="#404552" stop-opacity="0"/><stop offset="1" stop-color="#404552" stop-opacity=".839"/></linearGradient><linearGradient id="h"><stop offset="0" stop-color="#404552" stop-opacity=".036"/><stop offset="1" stop-color="#404552" stop-opacity=".979"/></linearGradient><linearGradient id="i"><stop offset="0" stop-color="#828282"/><stop offset=".253" stop-color="#fff"/><stop offset=".522" stop-color="#717171"/><stop offset=".785" stop-color="#717171"/><stop offset="1" stop-color="#4c4c4c"/></linearGradient><linearGradient xlink:href="#c" id="k" gradientUnits="userSpaceOnUse" gradientTransform="matrix(1.01967 0 0 1.03029 582.062 -69.829)" x1="64.666" y1="133.777" x2="88.203" y2="133.777"/><linearGradient xlink:href="#b" id="l" gradientUnits="userSpaceOnUse" gradientTransform="matrix(.66667 0 0 .66667 613.326 -26.667)" x1="116" y1="160" x2="204" y2="160"/><linearGradient xlink:href="#d" id="m" gradientUnits="userSpaceOnUse" gradientTransform="matrix(1.3232 0 0 1.32502 687.799 46.216)" x1="13" y1="17" x2="13" y2="11"/><linearGradient xlink:href="#a" id="n" gradientUnits="userSpaceOnUse" gradientTransform="translate(640.326)" x1="87.674" y1="59" x2="87.674" y2="105.89"/><linearGradient xlink:href="#j" id="q" gradientUnits="userSpaceOnUse" gradientTransform="matrix(.62041 0 0 .62041 299.41 -20.185)" x1="428" y1="172" x2="468.094" y2="172"/><linearGradient xlink:href="#j" id="p" gradientUnits="userSpaceOnUse" gradientTransform="matrix(.62041 0 0 .62041 -62.873 -18.944)" x1="428" y1="182" x2="468.094" y2="182"/><linearGradient xlink:href="#j" id="o" gradientUnits="userSpaceOnUse" gradientTransform="matrix(.62041 0 0 .62041 441.283 -22.956)" x1="428" y1="172" x2="468.094" y2="172"/></defs><path style="marker:none" d="M693 52c-2 0-3 1-3 3l-.007 49c0 2 1.007 3 3.007 3h54c2 0 3-1 3-3V61c0-2-1-3-3-3h-24l-8-6z" fill="url(#k)" paint-order="fill markers stroke" transform="translate(-688 -48)"/><path d="M694 53c-2 0-3 1-3 3v47c0 2 1 3 3 3h52c2 0 3-1 3-3V62c0-1.333-1.667-3-3-3h-23l-8-6z" fill="url(#l)" transform="translate(-688 -48)"/><path d="M694 53c-2 0-3 1-3 3v47c0 2 1 3 3 3h52c2 0 3-1 3-3V62c0-1.333-1.667-3-3-3h-23l-8-6z" fill="url(#m)" transform="translate(-688 -48)"/><path style="marker:none" d="M746 59c1.333 0 3 1.66 3 3v41c0 2-1 3-3 3h-52c-2 0-3-1-3-3V69c0-1.333 1.667-3 3-3h21l8-7z" fill="url(#n)" paint-order="fill markers stroke" transform="translate(-688 -48)"/><path d="M6 5C4 5 3 6 3 8.183 3 6 4 6 6 6h21l7 5h1l-8-6z" fill="#fff" fill-opacity=".328"/><path d="M35 11l-8 7H6c-1.333 0-3 1.667-3 3 0-1.333 1.667-2 3-2h21.024L35 12h23c1.333 0 3 .667 3 2 0-1.333-1.667-3-3-3z" fill="#fff" fill-opacity=".37"/><path d="M8 8h17s2 0 2 2-2 2-2 2l-17 .032S6 12 6 10s2-2 2-2z" style="isolation:auto;mix-blend-mode:normal;marker:none" color="#000" display="block" overflow="visible" fill-opacity=".078" paint-order="fill markers stroke"/><path d="M8 8s-2 0-2 2c0-1 2-1.5 2-1.5h17s2 .5 2 1.5c0-2-2-2-2-2z" style="isolation:auto;mix-blend-mode:normal;marker:none" color="#000" display="block" overflow="visible" fill-opacity=".157" paint-order="fill markers stroke"/><path style="isolation:auto;mix-blend-mode:normal;marker:none" d="M25 12s2.012 0 2-2c0 1-2 1.5-2 1.5H8S6 11 6 10c0 2 2 2.031 2 2.031z" color="#000" display="block" overflow="visible" fill="#e7e7e7" fill-opacity=".235" paint-order="fill markers stroke"/><path style="marker:none" d="M720.3 70.03c-8.05 0-14.576 6.526-14.576 14.576S712.25 99.18 720.3 99.18s14.576-6.525 14.576-14.575c0-8.05-6.526-14.576-14.576-14.576zm0 2.008c6.94 0 12.567 5.627 12.567 12.568 0 6.94-5.626 12.567-12.567 12.567-6.94 0-12.567-5.627-12.567-12.567 0-6.941 5.626-12.568 12.567-12.568zm-2.055 1.8v13.3h12.746V84.92h-10.53V73.837z" color="#000" fill="url(#o)" fill-rule="evenodd" transform="translate(-688 -48)"/><path style="marker:none" d="M720.3 71.484c-6.94 0-12.568 5.627-12.568 12.568 0 .093.007.184.007.277.148-6.813 5.714-12.29 12.562-12.29 6.848 0 12.412 5.477 12.56 12.29 0-.093.008-.184.008-.277 0-6.941-5.627-12.568-12.568-12.568zm-14.569 12.845c0 .092-.007.184-.007.277 0 8.05 6.526 14.576 14.576 14.576s14.575-6.526 14.575-14.576c0-.093-.007-.185-.008-.277-.148 7.921-6.61 14.298-14.568 14.298-7.957 0-14.42-6.377-14.569-14.298zm12.514 2.254v.555h12.746v-.555z" color="#000" fill="url(#p)" fill-rule="evenodd" transform="translate(-688 -48)"/><path style="marker:none" d="M720.3 70.03c-8.05 0-14.576 6.526-14.576 14.576 0 .093.007.184.007.277.149-7.922 6.613-14.299 14.57-14.299s14.42 6.377 14.568 14.299c0-.093.008-.184.008-.277 0-8.05-6.526-14.576-14.576-14.576zm-2.055 3.807v.554h2.216v-.554zm-10.506 11.046c0 .092-.007.184-.007.277 0 6.94 5.627 12.567 12.568 12.567 6.94 0 12.568-5.626 12.568-12.567 0-.093-.007-.185-.008-.277-.148 6.812-5.713 12.29-12.56 12.29-6.848 0-12.414-5.478-12.562-12.29zm12.722.038v.554h10.53v-.554z" color="#000" fill="url(#q)" fill-rule="evenodd" transform="translate(-688 -48)"/></svg>