<svg xmlns:osb="http://www.openswatchbook.org/uri/2009/osb" xmlns="http://www.w3.org/2000/svg" xmlns:xlink="http://www.w3.org/1999/xlink" height="64" viewBox="0 0 64 64" width="64"><title>Template icons dark</title><defs><linearGradient id="f" osb:paint="solid"><stop offset="0"/></linearGradient><linearGradient id="c" osb:paint="solid"><stop offset="0" stop-opacity=".018"/></linearGradient><linearGradient id="e"><stop offset="0" stop-opacity=".128"/><stop offset="1" stop-opacity=".392"/></linearGradient><linearGradient id="a"><stop offset="0" stop-color="#66a3e2"/><stop offset="1" stop-color="#69a5e3"/></linearGradient><linearGradient id="b" osb:paint="solid"><stop offset="0" stop-color="#525e7d"/></linearGradient><linearGradient id="d"><stop offset="0" stop-opacity="0"/><stop offset=".25" stop-opacity=".091"/><stop offset="1" stop-opacity="0"/></linearGradient><linearGradient id="j" osb:paint="solid"><stop offset="0" stop-color="#4b78a7"/></linearGradient><linearGradient id="g"><stop offset="0" stop-color="#404552" stop-opacity="0"/><stop offset="1" stop-color="#404552" stop-opacity=".839"/></linearGradient><linearGradient id="h"><stop offset="0" stop-color="#404552" stop-opacity=".036"/><stop offset="1" stop-color="#404552" stop-opacity=".979"/></linearGradient><linearGradient id="i"><stop offset="0" stop-color="#828282"/><stop offset=".253" stop-color="#fff"/><stop offset=".522" stop-color="#717171"/><stop offset=".785" stop-color="#717171"/><stop offset="1" stop-color="#4c4c4c"/></linearGradient><linearGradient xlink:href="#c" id="k" gradientUnits="userSpaceOnUse" gradientTransform="matrix(1.01967 0 0 1.03029 518.062 -69.829)" x1="64.666" y1="133.777" x2="88.203" y2="133.777"/><linearGradient xlink:href="#b" id="l" gradientUnits="userSpaceOnUse" gradientTransform="matrix(.66667 0 0 .66667 549.326 -26.667)" x1="116" y1="160" x2="204" y2="160"/><linearGradient xlink:href="#d" id="m" gradientUnits="userSpaceOnUse" gradientTransform="matrix(1.3232 0 0 1.32502 623.799 46.216)" x1="13" y1="17" x2="13" y2="11"/><linearGradient xlink:href="#a" id="n" gradientUnits="userSpaceOnUse" gradientTransform="translate(576.326)" x1="87.674" y1="59" x2="87.674" y2="105.89"/><linearGradient gradientTransform="matrix(-.76701 0 0 .76701 1514.397 -47.54)" xlink:href="#g" id="t" x1="1135" y1="205.5" x2="1140" y2="205.5" gradientUnits="userSpaceOnUse"/><linearGradient gradientTransform="matrix(.76701 0 0 .76701 -203.716 -47.54)" xlink:href="#h" id="s" x1="1135" y1="205.5" x2="1140" y2="205.5" gradientUnits="userSpaceOnUse"/><linearGradient gradientTransform="matrix(.76701 0 0 .76701 -203.716 -47.54)" xlink:href="#i" id="r" gradientUnits="userSpaceOnUse" x1="1134" y1="205" x2="1134" y2="206"/><linearGradient gradientTransform="matrix(.76701 0 0 .76701 -203.716 -47.54)" xlink:href="#i" id="q" gradientUnits="userSpaceOnUse" x1="1108" y1="205" x2="1108" y2="206.142"/><linearGradient gradientTransform="matrix(.76701 0 0 .76701 -203.716 -47.54)" xlink:href="#i" id="p" gradientUnits="userSpaceOnUse" x1="1118" y1="202" x2="1121.953" y2="202"/><linearGradient gradientTransform="matrix(.76701 0 0 .76701 -203.716 -47.54)" xlink:href="#i" id="o" gradientUnits="userSpaceOnUse" x1="1120" y1="204" x2="1120" y2="207"/></defs><path d="M629 52c-2 0-3 1-3 3l-.007 49c0 2 1.007 3 3.007 3h54c2 0 3-1 3-3V61c0-2-1-3-3-3h-24l-8-6z" style="marker:none" fill="url(#k)" paint-order="fill markers stroke" transform="translate(-624 -48)"/><path d="M630 53c-2 0-3 1-3 3v47c0 2 1 3 3 3h52c2 0 3-1 3-3V62c0-1.333-1.667-3-3-3h-23l-8-6z" fill="url(#l)" transform="translate(-624 -48)"/><path d="M630 53c-2 0-3 1-3 3v47c0 2 1 3 3 3h52c2 0 3-1 3-3V62c0-1.333-1.667-3-3-3h-23l-8-6z" fill="url(#m)" transform="translate(-624 -48)"/><path d="M682 59c1.333 0 3 1.66 3 3v41c0 2-1 3-3 3h-52c-2 0-3-1-3-3V69c0-1.333 1.667-3 3-3h21l8-7z" style="marker:none" fill="url(#n)" paint-order="fill markers stroke" transform="translate(-624 -48)"/><path d="M6 5C4 5 3 6 3 8.183 3 6 4 6 6 6h21l7 5h1l-8-6z" fill="#fff" fill-opacity=".328"/><path d="M35 11l-8 7H6c-1.333 0-3 1.667-3 3 0-1.333 1.667-2 3-2h21.024L35 12h23c1.333 0 3 .667 3 2 0-1.333-1.667-3-3-3z" fill="#fff" fill-opacity=".37"/><path style="isolation:auto;mix-blend-mode:normal;marker:none" d="M8 8h17s2 0 2 2-2 2-2 2l-17 .032S6 12 6 10s2-2 2-2z" color="#000" display="block" overflow="visible" fill-opacity=".078" paint-order="fill markers stroke"/><path style="isolation:auto;mix-blend-mode:normal;marker:none" d="M8 8s-2 0-2 2c0-1 2-1.5 2-1.5h17s2 .5 2 1.5c0-2-2-2-2-2z" color="#000" display="block" overflow="visible" fill-opacity=".157" paint-order="fill markers stroke"/><path d="M25 12s2.012 0 2-2c0 1-2 1.5-2 1.5H8S6 11 6 10c0 2 2 2.031 2 2.031z" style="isolation:auto;mix-blend-mode:normal;marker:none" color="#000" display="block" overflow="visible" fill="#e7e7e7" fill-opacity=".235" paint-order="fill markers stroke"/><path style="isolation:auto;mix-blend-mode:normal;marker:none" d="M649.944 108.932h10.792c.41 0 .74.33.74.74v1.588c0 .41-.33.74-.74.74h-10.792c-.41 0-.74-.33-.74-.74v-1.588c0-.41.33-.74.74-.74z" color="#000" display="block" overflow="visible" fill="url(#o)" transform="translate(-624 -48)"/><path style="isolation:auto;mix-blend-mode:normal;marker:none" d="M653.04 105.84h4.601v3.542s-1.518.333-2.289.334c-.779 0-2.313-.334-2.313-.334z" color="#000" display="block" overflow="visible" fill="url(#p)" transform="translate(-624 -48)"/><path style="isolation:auto;mix-blend-mode:normal;marker:none" d="M640 109.699h9.204v1.534H640z" color="#000" display="block" overflow="visible" fill="url(#q)" transform="translate(-624 -48)"/><path style="isolation:auto;mix-blend-mode:normal;marker:none" d="M661.476 109.699h9.205v1.534h-9.205z" color="#000" display="block" overflow="visible" fill="url(#r)" transform="translate(-624 -48)"/><path style="isolation:auto;mix-blend-mode:normal;marker:none" d="M29.04 57.843h4.601v1.555H29.04zM37.476 61.699h.767v1.534h-.767z" color="#000" display="block" overflow="visible" fill-opacity=".406"/><path d="M29.027 60.957s.834.3 2.292.3c1.458 0 2.31-.3 2.31-.3v.408s-.79.334-2.289.334c-1.498 0-2.313-.334-2.313-.334z" style="isolation:auto;mix-blend-mode:normal;marker:none" color="#000" display="block" overflow="visible" fill-opacity=".26"/><path style="isolation:auto;mix-blend-mode:normal;marker:none" d="M24.437 61.699h.767v1.534h-.767zM27.505 60.932h.767V64h-.767z" color="#000" display="block" overflow="visible" fill-opacity=".406"/><path style="isolation:auto;mix-blend-mode:normal;marker:none" d="M666.846 109.699h3.835v1.534h-3.835z" color="#000" display="block" overflow="visible" fill="url(#s)" transform="translate(-624 -48)"/><path style="isolation:auto;mix-blend-mode:normal;marker:none" d="M643.835 109.699H640v1.534h3.835z" color="#000" display="block" overflow="visible" fill="url(#t)" transform="translate(-624 -48)"/><path style="isolation:auto;mix-blend-mode:normal;marker:none" d="M29.04 57.843h4.601v.777H29.04z" color="#000" display="block" overflow="visible" fill-opacity=".406"/><path style="isolation:auto;mix-blend-mode:normal;marker:none" d="M28.272 57.097h6.136l2.301.767H25.971z" color="#000" display="block" overflow="visible" fill="#ebebeb" fill-opacity=".276"/><path style="isolation:auto;mix-blend-mode:normal;marker:none" d="M28.272 60.932h-.153V64h.153z" color="#000" display="block" overflow="visible" fill="#fff" fill-opacity=".167"/><path d="M27.668 60.932h-.163V64h.163z" style="isolation:auto;mix-blend-mode:normal;marker:none" color="#000" display="block" overflow="visible" fill="#090909" fill-opacity=".385"/><path d="M35.175 60.932h.767V64h-.767z" style="isolation:auto;mix-blend-mode:normal;marker:none" color="#000" display="block" overflow="visible" fill-opacity=".406"/><path d="M35.942 60.932h-.153V64h.153z" style="isolation:auto;mix-blend-mode:normal;marker:none" color="#000" display="block" overflow="visible" fill="#fff" fill-opacity=".167"/><path style="isolation:auto;mix-blend-mode:normal;marker:none" d="M35.338 60.932h-.163V64h.163z" color="#000" display="block" overflow="visible" fill="#090909" fill-opacity=".385"/></svg>