<svg xmlns="http://www.w3.org/2000/svg" xmlns:xlink="http://www.w3.org/1999/xlink" height="64" viewBox="0 0 64 64" width="64"><title>Template icons dark</title><defs><linearGradient id="a"><stop offset="0" stop-color="#4ba8dc"/><stop offset="1" stop-color="#32b69b"/></linearGradient><radialGradient xlink:href="#a" id="b" cx="15.714" cy="18.264" fx="15.714" fy="18.264" r="21.545" gradientUnits="userSpaceOnUse" gradientTransform="matrix(1.88019 0 0 1.83619 40.065 38.976)"/></defs><g transform="translate(-48 -48)"><path d="M105.982 79.965c0-14.386-11.663-26.048-26.049-26.048S53.885 65.579 53.885 79.965c0 14.386 11.662 26.048 26.048 26.048 14.386 0 26.049-11.662 26.049-26.048" fill="url(#b)" stroke-width=".035"/><path d="M55.783 89.623c.146.032.276.1.422.13 2.617.535 5.325.817 8.1.817 2.774 0 5.483-.282 8.099-.817a39.888 39.888 0 0 0 14.372-6.047A40.38 40.38 0 0 0 97.63 72.85a40.108 40.108 0 0 0 3.707-6.828c.084-.198.112-.423.193-.623-4.681-6.927-12.607-11.482-21.597-11.482-14.386 0-26.048 11.662-26.048 26.048 0 3.42.7 6.667 1.898 9.658z" fill="#90e2a3" fill-opacity=".505" stroke-width=".035"/><path d="M79.483 54.239l-4.539.123-4.02 1.35 3.098 1.058 2.371-.492.202.785.516 1.351-.929 1.106.207 2.21 1.442.491.93-2.58 1.751-.368 1.961-1.595-1.548-2.948zm-10.177 3.587l-3.643 1.398-5.867 4.195-2.427 4.094-1.923 3.094.101 7.39.81-.4.202-3.394.707 5.293 2.023 1.198 1.72 1.296 1.215 1.598 2.48-.294-.403.395.545 1.996-1.308 1.1.438 1.895 2.396 3.796 1.415.2 1.2.998.871 3.895.545 2.095 2.659 4.395 3.042.846-1.997-2.744-.435-1.996 1.633-1.797 1.308-3.197 2.07-.299 1.309-3.894 1.633-1.398-1.416-1.797-5.011-.9-.653-2.196-2.399-.099-1.525-1.698-1.96-.1-2.617-.8-1.317 1.284-1.794-1.084-.507-1.597-1.719-.6.505-1.695-1.618 1.097-.81-.6.101-3.394 2.63-1.198 1.213.2.306 2.295 1.213-.2.303-3.793 2.024-.6V70.31l2.326-1.797 2.529-.101-.91-1.896 3.44-1.2-2.124-2.695-1.315.6-.406-1.899-1.315.4-1.922 3.794-.707-1.497-1.315-1.198 2.932-1.997s2.023-.7 2.428-.7c.405 0 1.214.9 1.214.9l1.62-1.198-.508-1.4-2.021.2zm21.85.9l-2.226.298.709 3.796 1.62.2 1.617 1.296V62.92l-1.416-2.096 2.832 1.797.1 2.296-2.528.3-1.113 2.098 1.113 1.895-2.63-.298.506 2.995 1.518.698 1.82-1.696.305-2.197 1.214.299 1.314 1.299-.91 1.296 1.516.402.507-1.499.81 1.5 1.01-1.1.81 1.696 1.518.401-.103 1.896-2.225-.897-.505.599-2.733-.999-.706-1.299-4.947.988-3.177 4.868.707 3.881 2.826 2.786 3.983-.641 1.518 1.698-.91 2.697.706 3.295-2.021 2.796-1.822 4.294 2.73-.5 4.35-4.095 2.125-3.895 1.418-3.993 1.617-1.797-1.314-1.299-1.214-7.09 1.416 2.697v3.496l1.314-1.499-.403-4.893-1.012-2.795-1.012-3.895-3.242-4.572-1.815-2.816-3.643-1.799z" fill="#207fa2" fill-opacity=".927" stroke-width=".033"/><path d="M79.298 54.28l-4.658.105-4.129 1.165 2.964.422 2.434-.422.425 1.165.53 1.162-.955.954.211 1.905 1.483.423.954-2.224 1.799-.315 2.012-1.376-1.59-2.541zm-10.48 2.224l-3.811 1.48-6.138 4.446-2.542 4.338-2.01 3.284.105 7.832.847-.425.214-3.6.74 5.612.214.127 1.9 1.142 1.803 1.377 1.27 1.694 2.495-.3-.381.407.531 2.116-1.272 1.163.316 1.49.11.522 2.33 4.021 1.373.214 1.165 1.056.847 4.13.53 2.221 1.904 2.964 2.964 1.694-1.27-2.01-.424-2.118 1.59-1.906 1.269-3.386 2.01-.317 1.269-4.129 1.59-1.483-1.376-1.903-4.872-.954-.107-.394-.526-1.936-2.33-.104-1.48-1.798-1.903-.107-2.544-.847-1.247 1.325-1.82-1.112-.53-1.694L59.82 80l.384-1.302.148-.496-1.145.783-.55.382-.234-.178-.613-.458.107-3.602 2.75-1.27 1.272.214.315 2.435 1.27-.214.32-4.02 2.114-.635V69.73l2.437-1.903 2.645-.107-.95-2.012 3.599-1.269-2.224-2.86-1.376.637-.425-2.01-1.376.422-2.01 4.025-.74-1.59-1.378-1.27 3.07-2.116s2.118-.74 2.541-.74c.423 0 1.27.951 1.27.951l1.694-1.272-.53-1.48-2.116.211zm22.863.95l-2.33.319.742 4.022 1.692.21 1.694 1.377v-1.48l-1.48-2.224 2.963 1.903.107 2.437-2.646.315-1.165 2.223 1.165 2.013-2.752-.318.53 3.174 1.584.743 1.908-1.801.315-2.328 1.272.318 1.376 1.374-.954 1.379.804.213.786.209.53-1.587.844 1.587 1.06-1.165.848 1.801 1.584.422-.104 2.012-2.328-.954-.531.636-2.857-1.058-.519-.966-.221-.41-4.233.954-3.284 4.869.209 2.083.216 2.15 3.175 3.067 3.281-.529 1.587 1.801-.951 2.857.74 3.492-2.116 2.964-1.908 4.553 2.86-.529 4.552-4.34 2.224-4.128 1.48-4.235 1.692-1.906-1.374-1.373-1.27-7.517 1.481 2.859v3.704l1.376-1.588-.422-5.186-1.06-2.964-1.059-4.126-2.696-3.859-.695-.99-1.9-2.986-3.81-1.905z" fill="#f6fef6" stroke-width=".033"/><ellipse transform="matrix(.91812 -.3963 .33231 .94317 0 0)" ry="7.534" rx="30.345" cy="95.968" cx="50.332" style="isolation:auto;mix-blend-mode:normal;marker:none" color="#000" overflow="visible" fill="none" fill-opacity=".359" stroke="#000" stroke-width=".652" stroke-dasharray="1.30394494,.65197247,.32598623,.65197247" stroke-opacity=".161" paint-order="fill markers stroke"/><ellipse style="isolation:auto;mix-blend-mode:normal;marker:none" cx="107.55" cy="37.162" rx="32.93" ry="8.176" transform="matrix(.91225 .40963 -.47132 .88196 0 0)" color="#000" overflow="visible" fill="none" fill-opacity=".359" stroke="#000" stroke-width=".643" stroke-dasharray="1.28597419,.64298709,.32149355,.64298709" stroke-opacity=".161" paint-order="fill markers stroke"/><ellipse transform="matrix(.3554 .93471 -.95692 .29037 0 0)" ry="7.962" rx="32.069" cy="-40.302" cx="98.545" style="isolation:auto;mix-blend-mode:normal;marker:none" color="#000" overflow="visible" fill="none" fill-opacity=".359" stroke="#000" stroke-width=".652" stroke-dasharray="1.30394494,.65197247,.32598623,.65197247" stroke-opacity=".161" paint-order="fill markers stroke"/><ellipse style="isolation:auto;mix-blend-mode:normal;marker:none" cx="23.212" cy="-103.366" rx="31.531" ry="7.828" transform="matrix(-.50039 .8658 -.82939 -.55867 0 0)" color="#000" overflow="visible" fill="none" fill-opacity=".359" stroke="#000" stroke-width=".641" stroke-dasharray="1.28208491,.64104245,.32052122,.64104245" stroke-opacity=".161" paint-order="fill markers stroke"/><ellipse style="isolation:auto;mix-blend-mode:normal;marker:none" cx="49.919" cy="95.341" rx="30.345" ry="7.534" transform="matrix(.91812 -.3963 .33231 .94317 0 0)" color="#000" overflow="visible" fill="none" fill-opacity=".359" stroke="#fff" stroke-width=".652" stroke-dasharray="1.30394494,.65197247,.32598623,.65197247" paint-order="fill markers stroke"/><ellipse transform="matrix(.91225 .40963 -.47132 .88196 0 0)" ry="8.176" rx="32.93" cy="37.014" cx="106.839" style="isolation:auto;mix-blend-mode:normal;marker:none" color="#000" overflow="visible" fill="none" fill-opacity=".359" stroke="#fff" stroke-width=".643" stroke-dasharray="1.28597419,.64298709,.32149355,.64298709" paint-order="fill markers stroke"/><ellipse style="isolation:auto;mix-blend-mode:normal;marker:none" cx="97.964" cy="-39.905" rx="32.069" ry="7.962" transform="matrix(.3554 .93471 -.95692 .29037 0 0)" color="#000" overflow="visible" fill="none" fill-opacity=".359" stroke="#fff" stroke-width=".652" stroke-dasharray="1.30394494,.65197247,.32598623,.65197247" paint-order="fill markers stroke"/><ellipse transform="matrix(-.50039 .8658 -.82939 -.55867 0 0)" ry="7.828" rx="31.531" cy="-102.654" cx="23.185" style="isolation:auto;mix-blend-mode:normal;marker:none" color="#000" overflow="visible" fill="none" fill-opacity=".359" stroke="#fff" stroke-width=".641" stroke-dasharray="1.28208491,.64104245,.32052122,.64104245" paint-order="fill markers stroke"/></g></svg>