<svg xmlns="http://www.w3.org/2000/svg" height="64" viewBox="0 0 64 64" width="64"><title>Template icons dark</title><g transform="translate(-48 -48)"><path fill="none" stroke-width=".5" d="M48 48h64v64H48z"/><rect ry="1.231" rx="1.32" width="50" height="53" x="55" y="54" fill="#636a78" stroke-width=".637" stroke-opacity=".267"/><rect y="53.5" x="54.5" height="54" width="51" rx="2" ry="2" fill="none" stroke="#272a2f" stroke-opacity=".784"/><path d="M58.494 56.494c-.554 0-1 .446-1 1v6c0 .554.446 1 1 1h43c.554 0 1-.446 1-1v-6c0-.554-.446-1-1-1zm0 10c-.554 0-1 .446-1 1v6c0 .554.446 1 1 1h43.012c.554 0 1-.446 1-1v-6c0-.554-.446-1-1-1zm0 10.012c-.554 0-1 .446-1 1v5.988c0 .554.446 1 1 1h43.012c.554 0 1-.446 1-1v-5.988c0-.554-.446-1-1-1zm0 10c-.554 0-1 .446-1 1v5.988c0 .554.446 1 1 1h43.012c.554 0 1-.446 1-1v-5.988c0-.554-.446-1-1-1zm0 10c-.554 0-1 .446-1 1v5.988c0 .554.446 1 1 1h43.012c.554 0 1-.446 1-1v-5.988c0-.554-.446-1-1-1z" fill-opacity=".157" stroke="#484e57"/><path d="M58.994 57.994v5h1v-5zm2 0v5h1v-5zm2 0v5h1v-5zm2 0v5h1v-5zm2 0v5h1v-5zm-8 10v5h1.002v-5zm2.002 0v5h1v-5zm2 0v5h1v-5zm2 0v5h1v-5zm2 0v5h1v-5zm-8.002 10.01v4.992h1.002v-4.992zm2.002 0v4.992h1v-4.992zm2 0v4.992h1v-4.992zm2 0v4.992h1v-4.992zm2 0v4.992h1.002v-4.992zm-8.002 10v4.992h1.002v-4.992zm2.002 0v4.992h1v-4.992zm2 0v4.992h1v-4.992zm2 0v4.992h1v-4.992zm2 0v4.992h1v-4.992zm-8.002 10v4.992h1.002v-4.992zm2.002 0v4.992h1v-4.992zm2 0v4.992h1v-4.992zm2 0v4.992h1v-4.992zm2 0v4.992h1.002v-4.992zM99.494 59.994a.5.5 0 0 0-.5.5.5.5 0 0 0 .5.5.5.5 0 0 0 .5-.5.5.5 0 0 0-.5-.5zm.01 10a.5.5 0 0 0-.5.5.5.5 0 0 0 .5.5.5.5 0 0 0 .5-.5.5.5 0 0 0-.5-.5zm-.035 10.008a.5.5 0 0 0-.465.498.5.5 0 0 0 .5.5.5.5 0 0 0 .5-.5.5.5 0 0 0-.5-.498.5.5 0 0 0-.035 0zm0 10a.5.5 0 0 0-.465.498.5.5 0 0 0 .5.5.5.5 0 0 0 .5-.5.5.5 0 0 0-.5-.498.5.5 0 0 0-.035 0zm0 10a.5.5 0 0 0-.465.498.5.5 0 0 0 .5.5.5.5 0 0 0 .5-.5.5.5 0 0 0-.5-.498.5.5 0 0 0-.035 0z" fill-opacity=".296" stroke-width=".495" stroke-opacity=".784"/><path d="M90.494 59.994a.5.5 0 0 0-.5.5.5.5 0 0 0 .5.5.5.5 0 0 0 .5-.5.5.5 0 0 0-.5-.5zm3 0a.5.5 0 0 0-.5.5.5.5 0 0 0 .5.5.5.5 0 0 0 .5-.5.5.5 0 0 0-.5-.5zm3 0a.5.5 0 0 0-.5.5.5.5 0 0 0 .5.5.5.5 0 0 0 .5-.5.5.5 0 0 0-.5-.5zm-5.992 10a.5.5 0 0 0-.5.5.5.5 0 0 0 .5.5.5.5 0 0 0 .5-.5.5.5 0 0 0-.5-.5zm3.002 0a.5.5 0 0 0-.5.5.5.5 0 0 0 .5.5.5.5 0 0 0 .5-.5.5.5 0 0 0-.5-.5zm3 0a.5.5 0 0 0-.5.5.5.5 0 0 0 .5.5.5.5 0 0 0 .5-.5.5.5 0 0 0-.5-.5zm-6.037 10.008a.5.5 0 0 0-.465.498.5.5 0 0 0 .5.5.5.5 0 0 0 .5-.5.5.5 0 0 0-.5-.498.5.5 0 0 0-.035 0zm3.002 0a.5.5 0 0 0-.465.498.5.5 0 0 0 .5.5.5.5 0 0 0 .5-.5.5.5 0 0 0-.5-.498.5.5 0 0 0-.035 0zm3 0a.5.5 0 0 0-.465.498.5.5 0 0 0 .5.5.5.5 0 0 0 .5-.5.5.5 0 0 0-.5-.498.5.5 0 0 0-.035 0zm-6.002 10a.5.5 0 0 0-.465.498.5.5 0 0 0 .5.5.5.5 0 0 0 .5-.5.5.5 0 0 0-.5-.498.5.5 0 0 0-.035 0zm3.002 0a.5.5 0 0 0-.465.498.5.5 0 0 0 .5.5.5.5 0 0 0 .5-.5.5.5 0 0 0-.5-.498.5.5 0 0 0-.035 0zm3 0a.5.5 0 0 0-.465.498.5.5 0 0 0 .5.5.5.5 0 0 0 .5-.5.5.5 0 0 0-.5-.498.5.5 0 0 0-.035 0zm-6.002 10a.5.5 0 0 0-.465.498.5.5 0 0 0 .5.5.5.5 0 0 0 .5-.5.5.5 0 0 0-.5-.498.5.5 0 0 0-.035 0zm3.002 0a.5.5 0 0 0-.465.498.5.5 0 0 0 .5.5.5.5 0 0 0 .5-.5.5.5 0 0 0-.5-.498.5.5 0 0 0-.035 0zm3 0a.5.5 0 0 0-.465.498.5.5 0 0 0 .5.5.5.5 0 0 0 .5-.5.5.5 0 0 0-.5-.498.5.5 0 0 0-.035 0z" fill="#66d7ec" stroke-width=".495" stroke-opacity=".784"/><path d="M70.994 58.994v3h17v-3zm.004 10v3h17.004v-3zm0 10.008v2.996h17.004v-2.996zm0 10v2.996h17.004v-2.996zm0 10v2.996h17.004v-2.996z" fill-opacity=".176" stroke-width=".495" stroke-opacity=".784"/></g></svg>