<svg xmlns="http://www.w3.org/2000/svg" xmlns:xlink="http://www.w3.org/1999/xlink" height="64" viewBox="0 0 64 64" width="64"><title>Template icons dark</title><defs><linearGradient id="o"><stop offset="0" stop-opacity=".11"/><stop offset=".59" stop-opacity=".154"/><stop offset="1" stop-opacity="0"/></linearGradient><linearGradient id="n"><stop offset="0" stop-color="#fff"/><stop offset=".193" stop-color="#e0e0e0" stop-opacity=".918"/><stop offset=".493" stop-color="#c4c4c4" stop-opacity=".896"/><stop offset=".786" stop-color="#e0e0e0" stop-opacity=".945"/><stop offset="1" stop-color="#fff"/></linearGradient><linearGradient id="m"><stop offset="0" stop-color="#a3afbb"/><stop offset="1" stop-color="#73787d"/></linearGradient><linearGradient id="f"><stop offset="0" stop-color="#eceaea"/><stop offset="1" stop-color="#5e5e5e" stop-opacity=".729"/></linearGradient><linearGradient id="e"><stop offset="0" stop-color="#b7aaa5"/><stop offset="1" stop-color="#282828" stop-opacity=".828"/></linearGradient><linearGradient id="d"><stop offset="0" stop-color="#fff" stop-opacity="0"/><stop offset=".522" stop-color="#fff" stop-opacity=".161"/><stop offset="1" stop-color="#eee" stop-opacity="0"/></linearGradient><linearGradient id="c"><stop offset="0" stop-color="#4d4d4d"/><stop offset=".279" stop-color="#141414"/><stop offset=".515" stop-color="#494949"/><stop offset="1" stop-color="#f0f0f0"/></linearGradient><linearGradient id="b"><stop offset="0" stop-color="#fff" stop-opacity=".349"/><stop offset="1" stop-opacity=".453"/></linearGradient><linearGradient id="a"><stop offset="0" stop-color="#454545"/><stop offset=".327" stop-color="#404040"/><stop offset=".77" stop-color="#393939"/><stop offset="1" stop-color="#c6c6c6"/></linearGradient><linearGradient id="i"><stop offset="0"/><stop offset="1" stop-opacity="0"/></linearGradient><linearGradient id="g"><stop offset="0" stop-color="#555753"/><stop offset="1" stop-color="#d3d7cf" stop-opacity="0"/></linearGradient><linearGradient id="p"><stop offset="0" stop-color="#fff"/><stop offset="1" stop-color="#91999f"/></linearGradient><linearGradient id="q"><stop offset="0" stop-color="#dfe2dc"/><stop offset="1" stop-color="#86917a"/></linearGradient><linearGradient id="h"><stop offset="0" stop-color="#939a9d"/><stop offset="1" stop-color="#fff"/></linearGradient><linearGradient id="j"><stop offset="0" stop-color="#f8f8f8" stop-opacity=".155"/><stop offset=".498" stop-color="#b0b2b6" stop-opacity=".175"/><stop offset=".838" stop-color="#5b5e62" stop-opacity=".33"/><stop offset="1" stop-color="#fff" stop-opacity=".155"/></linearGradient><linearGradient id="k"><stop offset="0" stop-color="#e6e7e7"/><stop offset="1" stop-color="#676b73"/></linearGradient><linearGradient id="l"><stop offset="0" stop-color="silver"/><stop offset="1" stop-color="#abacb0"/></linearGradient><linearGradient xlink:href="#m" id="s" x1="161" y1="126" x2="161" y2="141" gradientUnits="userSpaceOnUse" gradientTransform="translate(-26.641 -28.668) scale(.66667)"/><linearGradient gradientTransform="translate(-26.641 -25.335) scale(.66667)" xlink:href="#n" id="r" x1="127.937" y1="160" x2="192.189" y2="160" gradientUnits="userSpaceOnUse"/></defs><g color="#000" stroke-linecap="round" stroke-linejoin="round"><path d="M57.364 12.207l-8.026 42.938c-5.469 11.683-32.482 7.987-34.519 0L6.793 12.207c0-10.559 50.571-10.315 50.571 0z" style="isolation:auto;mix-blend-mode:normal;marker:none" overflow="visible" fill-opacity=".082" stroke-width=".123" stroke-opacity=".964"/><path style="isolation:auto;mix-blend-mode:normal;marker:none" d="M104.026 61.332L96.426 102c-5.18 11.065-30.764 7.564-32.694 0l-7.6-40.667c0-10 47.894-9.769 47.894 0z" overflow="visible" fill="url(#r)" stroke-width=".117" stroke-opacity=".964" transform="translate(-48 -48)"/><path d="M56.026 13.332l-1.27 6.802c-11.396 5.865-32.73 6.532-45.365-.062l-1.26-6.74c0-10 47.895-9.769 47.895 0z" style="isolation:auto;mix-blend-mode:normal;marker:none" overflow="visible" fill="#434666" fill-opacity=".209" stroke-width=".117" stroke-opacity=".964"/><path style="isolation:auto;mix-blend-mode:normal;marker:none" d="M103.11 60.743a22.991 6.077 0 0 1-22.99 6.077 22.991 6.077 0 0 1-22.992-6.077 22.991 6.077 0 0 1 22.991-6.077 22.991 6.077 0 0 1 22.991 6.077z" overflow="visible" fill="url(#s)" stroke="#fff" transform="translate(-48 -48)"/><path d="M48.66 52.747L48.424 54c-5.18 11.065-30.763 7.564-32.693 0l-.192-1.027c3.153 8.36 29.153 9.694 33.12-.225z" style="isolation:auto;mix-blend-mode:normal;marker:none" overflow="visible" fill="#151634" fill-opacity=".187" stroke-width=".117" stroke-opacity=".964"/></g></svg>