<svg xmlns="http://www.w3.org/2000/svg" xmlns:xlink="http://www.w3.org/1999/xlink" height="64" viewBox="0 0 64 64" width="64" enable-background="new"><title>Template icons dark</title><defs><linearGradient id="r"><stop offset="0" stop-color="#fff"/><stop offset=".169" stop-color="#fbfbfb"/><stop offset=".265" stop-color="#c3c3c3"/><stop offset=".35" stop-color="#f9f9f9"/><stop offset=".588" stop-color="#f5f5f5"/><stop offset=".7" stop-color="#c1c1c1"/><stop offset=".809" stop-color="#f7f7f7"/><stop offset="1" stop-color="#fff"/></linearGradient><linearGradient id="q"><stop offset="0" stop-opacity=".137"/><stop offset=".508" stop-opacity=".154"/><stop offset="1" stop-opacity="0"/></linearGradient><linearGradient id="p"><stop offset="0" stop-opacity=".11"/><stop offset=".59" stop-opacity=".154"/><stop offset="1" stop-opacity="0"/></linearGradient><linearGradient id="o"><stop offset="0" stop-opacity="0"/><stop offset=".453" stop-opacity=".198"/><stop offset="1" stop-opacity="0"/></linearGradient><linearGradient id="n"><stop offset="0" stop-color="#fff"/><stop offset=".193" stop-color="#e0e0e0" stop-opacity=".918"/><stop offset=".493" stop-color="#c4c4c4" stop-opacity=".896"/><stop offset=".786" stop-color="#e0e0e0" stop-opacity=".945"/><stop offset="1" stop-color="#fff"/></linearGradient><linearGradient id="m"><stop offset="0" stop-color="#a3afbb"/><stop offset="1" stop-color="#73787d"/></linearGradient><linearGradient id="f"><stop offset="0" stop-color="#eceaea"/><stop offset="1" stop-color="#5e5e5e" stop-opacity=".729"/></linearGradient><linearGradient id="e"><stop offset="0" stop-color="#b7aaa5"/><stop offset="1" stop-color="#282828" stop-opacity=".828"/></linearGradient><linearGradient id="d"><stop offset="0" stop-color="#fff" stop-opacity="0"/><stop offset=".522" stop-color="#fff" stop-opacity=".161"/><stop offset="1" stop-color="#eee" stop-opacity="0"/></linearGradient><linearGradient id="c"><stop offset="0" stop-color="#4d4d4d"/><stop offset=".279" stop-color="#141414"/><stop offset=".515" stop-color="#494949"/><stop offset="1" stop-color="#f0f0f0"/></linearGradient><linearGradient id="b"><stop offset="0" stop-color="#fff" stop-opacity=".349"/><stop offset="1" stop-opacity=".453"/></linearGradient><linearGradient id="a"><stop offset="0" stop-color="#454545"/><stop offset=".327" stop-color="#404040"/><stop offset=".77" stop-color="#393939"/><stop offset="1" stop-color="#c6c6c6"/></linearGradient><linearGradient id="i"><stop offset="0"/><stop offset="1" stop-opacity="0"/></linearGradient><linearGradient id="g"><stop offset="0" stop-color="#555753"/><stop offset="1" stop-color="#d3d7cf" stop-opacity="0"/></linearGradient><linearGradient id="s"><stop offset="0" stop-color="#fff"/><stop offset="1" stop-color="#91999f"/></linearGradient><linearGradient id="t"><stop offset="0" stop-color="#dfe2dc"/><stop offset="1" stop-color="#86917a"/></linearGradient><linearGradient x1="22.009" y1="36.51" x2="23.585" y2="14.412" id="T" xlink:href="#h" gradientUnits="userSpaceOnUse" gradientTransform="matrix(-1 0 0 1 -164.713 28.24)"/><linearGradient id="h"><stop offset="0" stop-color="#939a9d"/><stop offset="1" stop-color="#fff"/></linearGradient><linearGradient x1="24.366" y1="20.246" x2="32.601" y2="28.555" id="U" xlink:href="#h" gradientUnits="userSpaceOnUse" gradientTransform="matrix(-1 0 0 1 -164.713 28.24)"/><linearGradient x1="25.633" y1="10.612" x2="38.714" y2="18.39" id="V" xlink:href="#i" gradientUnits="userSpaceOnUse" gradientTransform="matrix(-1 0 0 1 -164.713 28.24)"/><linearGradient id="j"><stop offset="0" stop-color="#f8f8f8" stop-opacity=".155"/><stop offset=".498" stop-color="#b0b2b6" stop-opacity=".175"/><stop offset=".838" stop-color="#5b5e62" stop-opacity=".33"/><stop offset="1" stop-color="#fff" stop-opacity=".155"/></linearGradient><linearGradient id="k"><stop offset="0" stop-color="#e6e7e7"/><stop offset="1" stop-color="#676b73"/></linearGradient><linearGradient id="l"><stop offset="0" stop-color="silver"/><stop offset="1" stop-color="#abacb0"/></linearGradient><linearGradient xlink:href="#o" id="A" gradientUnits="userSpaceOnUse" x1="155.904" y1="170.471" x2="175.213" y2="170.469"/><linearGradient xlink:href="#r" id="z" x1="128" y1="133.199" x2="192.472" y2="133.199" gradientUnits="userSpaceOnUse" gradientTransform="translate(-26.527 -25.677) scale(.66667)"/><linearGradient gradientTransform="translate(-80 -76)" xlink:href="#q" id="y" x1="132" y1="154.11" x2="178.961" y2="152" gradientUnits="userSpaceOnUse"/><linearGradient xlink:href="#m" id="v" x1="161" y1="126" x2="161" y2="141" gradientUnits="userSpaceOnUse" gradientTransform="translate(-26.641 -28.668) scale(.66667)"/><linearGradient gradientTransform="translate(-26.641 -25.335) scale(.66667)" xlink:href="#n" id="u" x1="127.937" y1="160" x2="192.189" y2="160" gradientUnits="userSpaceOnUse"/><linearGradient xlink:href="#h" id="E" gradientUnits="userSpaceOnUse" gradientTransform="matrix(-1 0 0 1 -164.713 28.24)" x1="22.009" y1="36.51" x2="23.585" y2="14.412"/><linearGradient xlink:href="#h" id="F" gradientUnits="userSpaceOnUse" gradientTransform="matrix(-1 0 0 1 -164.713 28.24)" x1="24.366" y1="20.246" x2="32.601" y2="28.555"/><linearGradient xlink:href="#i" id="G" gradientUnits="userSpaceOnUse" gradientTransform="matrix(-1 0 0 1 -164.713 28.24)" x1="25.633" y1="10.612" x2="38.714" y2="18.39"/><linearGradient xlink:href="#h" id="J" gradientUnits="userSpaceOnUse" gradientTransform="matrix(-1 0 0 1 -164.713 28.24)" x1="22.009" y1="36.51" x2="23.585" y2="14.412"/><linearGradient xlink:href="#h" id="K" gradientUnits="userSpaceOnUse" gradientTransform="matrix(-1 0 0 1 -164.713 28.24)" x1="24.366" y1="20.246" x2="32.601" y2="28.555"/><linearGradient xlink:href="#i" id="L" gradientUnits="userSpaceOnUse" gradientTransform="matrix(-1 0 0 1 -164.713 28.24)" x1="25.633" y1="10.612" x2="38.714" y2="18.39"/><linearGradient xlink:href="#h" id="O" gradientUnits="userSpaceOnUse" gradientTransform="matrix(-1 0 0 1 -164.713 28.24)" x1="22.009" y1="36.51" x2="23.585" y2="14.412"/><linearGradient xlink:href="#h" id="P" gradientUnits="userSpaceOnUse" gradientTransform="matrix(-1 0 0 1 -164.713 28.24)" x1="24.366" y1="20.246" x2="32.601" y2="28.555"/><linearGradient xlink:href="#i" id="Q" gradientUnits="userSpaceOnUse" gradientTransform="matrix(-1 0 0 1 -164.713 28.24)" x1="25.633" y1="10.612" x2="38.714" y2="18.39"/><linearGradient xlink:href="#o" id="w" gradientUnits="userSpaceOnUse" x1="155.904" y1="170.471" x2="186.967" y2="171.248"/><radialGradient cx="23.688" cy="14.211" r="22.597" fx="23.688" fy="14.211" id="C" xlink:href="#s" gradientUnits="userSpaceOnUse" gradientTransform="matrix(-2.13567 0 0 2.1106 -137.811 12.57)"/><radialGradient cx="20.09" cy="10.854" r="22.597" fx="20.09" fy="10.854" id="D" xlink:href="#t" gradientUnits="userSpaceOnUse" gradientTransform="matrix(-1.79027 0 0 1.76926 -148.9 16.29)"/><radialGradient cx="23.688" cy="14.211" r="22.597" fx="23.688" fy="14.211" id="H" xlink:href="#s" gradientUnits="userSpaceOnUse" gradientTransform="matrix(-2.13567 0 0 2.1106 -137.811 12.57)"/><radialGradient cx="20.09" cy="10.854" r="22.597" fx="20.09" fy="10.854" id="I" xlink:href="#t" gradientUnits="userSpaceOnUse" gradientTransform="matrix(-1.79027 0 0 1.76926 -148.9 16.29)"/><radialGradient cx="23.688" cy="14.211" r="22.597" fx="23.688" fy="14.211" id="M" xlink:href="#s" gradientUnits="userSpaceOnUse" gradientTransform="matrix(-2.13567 0 0 2.1106 -137.811 12.57)"/><radialGradient cx="20.09" cy="10.854" r="22.597" fx="20.09" fy="10.854" id="N" xlink:href="#t" gradientUnits="userSpaceOnUse" gradientTransform="matrix(-1.79027 0 0 1.76926 -148.9 16.29)"/><radialGradient cx="23.688" cy="14.211" r="22.597" fx="23.688" fy="14.211" id="R" xlink:href="#s" gradientUnits="userSpaceOnUse" gradientTransform="matrix(-2.13567 0 0 2.1106 -137.811 12.57)"/><radialGradient cx="20.09" cy="10.854" r="22.597" fx="20.09" fy="10.854" id="S" xlink:href="#t" gradientUnits="userSpaceOnUse" gradientTransform="matrix(-1.79027 0 0 1.76926 -148.9 16.29)"/><filter id="x" x="-.059" width="1.117" y="-.156" height="1.311" color-interpolation-filters="sRGB"><feGaussianBlur stdDeviation="2.013"/></filter><clipPath id="B"><ellipse ry="10.067" rx="26.236" cy="18.469" cx="127.216" style="isolation:auto;mix-blend-mode:normal;marker:none" color="#000" display="block" overflow="visible" fill-opacity=".577" stroke-width=".965" enable-background="accumulate"/></clipPath></defs><path d="M56.82 12.666L48.967 54.68c-5.352 11.43-31.783 7.814-33.776 0L7.338 12.666c0-2.876 3.834-4.933 9.367-6.186.698-.158.355-.765 1.102-.898 1.916-.34 2.933-1.28 5.107-1.439.58-.042.647 1.395 1.24 1.367 2.05-.095 4.073-.134 6.233-.114.442.004.74-1.114 1.184-1.105 1.656.034 2.887-.165 4.528-.025.487.042.597 1.07 1.08 1.121.973.105 1.738.22 2.693.346.476.063 1.035-3.766 1.504-3.698 2.86.42 4.565.915 6.899 2.165.514.275.272.859.77 1.168.375.232.89.438 1.457.635.186.065.983-.997 1.177-.933 1.151.376 1.782 1.869 2.446 2.361.685.509-.175 1.366.388 1.869 1.385 1.236 2.307 2.417 2.307 3.366z" style="isolation:auto;mix-blend-mode:normal;marker:none" color="#000" display="block" overflow="visible" fill-opacity=".082" stroke-width=".121" stroke-linecap="round" stroke-linejoin="round" stroke-opacity=".964" enable-background="accumulate"/><path style="isolation:auto;mix-blend-mode:normal;marker:none" d="M104.026 61.332L96.426 102c-5.18 11.065-30.764 7.564-32.694 0l-7.6-40.667c0-10 47.894-9.769 47.894 0z" color="#000" overflow="visible" fill="url(#u)" stroke-width=".117" stroke-linecap="round" stroke-linejoin="round" stroke-opacity=".964" enable-background="accumulate" transform="translate(-48 -48)"/><path d="M56.026 13.332l-1.27 6.802c-11.396 5.865-32.73 6.532-45.365-.062l-1.26-6.74c0-10 47.895-9.769 47.895 0z" style="isolation:auto;mix-blend-mode:normal;marker:none" color="#000" overflow="visible" fill="#434666" fill-opacity=".209" stroke-width=".117" stroke-linecap="round" stroke-linejoin="round" stroke-opacity=".964" enable-background="accumulate"/><path style="isolation:auto;mix-blend-mode:normal;marker:none" d="M103.11 60.743a22.991 6.077 0 0 1-22.99 6.077 22.991 6.077 0 0 1-22.992-6.077 22.991 6.077 0 0 1 22.991-6.077 22.991 6.077 0 0 1 22.991 6.077z" color="#000" overflow="visible" fill="url(#v)" stroke="#fff" stroke-linecap="round" stroke-linejoin="round" enable-background="accumulate" transform="translate(-48 -48)"/><path d="M179.971 172.331l3.678-8.915-8.721-5.888-1.637 11.984-6.283-6.715s-12.76 6.976-12.411 7.5c.349.525 6.07 14.672 6.07 14.672l3.352-12.14 9.27-.592z" transform="rotate(-79.641 29.683 132.481) scale(.66667)" opacity=".731" fill="url(#w)" fill-rule="evenodd" filter="url(#x)"/><path d="M49.827 76.504l24.567 7.716 26.456-9.606 8.725-6.394-31.402 10.174H66.835z" transform="translate(-21.307 -22.668) scale(.66667)" opacity=".76" fill="url(#y)" fill-rule="evenodd" filter="url(#x)"/><path d="M10.693 13.768s.23 4.377 21.23 4.538c16.103.123 21.752-4.307 21.752-4.307l-2.667-2.667-4.315.667-5.806-.709-3.527 3.528c-.252.252-.728 2.9-2.576 2.9s-3.304-.716-3.64-1.052c-.336-.336-3.044-2.667-3.044-2.667l-3.59-1.449s-3.231 2.318-3.231 3.137c0 .82-3.258-1.688-3.258-1.688l-1.995-2.373-4.115.924-1.218 1.302s.23-.315 0-.084z" fill-opacity=".286" fill-rule="evenodd" stroke-width=".667"/><path d="M58.807 62.092s.23 4.377 21.23 4.538c16.103.124 21.752-4.307 21.752-4.307l-2.667-2.666-4.429 1.066-5.692-1.108-3.527 3.527c-.252.252-2.333 3.466-2.333 3.466s-3.547-1.282-3.883-1.618c-.336-.336-3.044-2.667-3.044-2.667l-3.59-1.448s-2.989 2.642-2.989 3.46c0 .82-3.5-2.012-3.5-2.012l-1.995-2.372-4.115.924-1.218 1.301s.23-.315 0-.084z" fill="url(#z)" fill-rule="evenodd" stroke-width=".667" transform="translate(-48 -48)"/><path transform="rotate(-5.185 -694.19 840.233) scale(.66667)" d="M179.971 172.331l3.678-8.915-3.73-.553-11.387 7 2.269-15.86s-18.027 11.583-14.907 11.247c17.96-1.933 3.785 10.42 3.785 10.42l4.34-2.84 9.27-.593z" opacity=".641" fill="url(#A)" fill-rule="evenodd" filter="url(#x)"/><path style="isolation:auto;mix-blend-mode:normal;marker:none" d="M54.746 12.353a22.467 6.077 0 0 1-22.414 5.8 22.467 6.077 0 0 1-22.416-5.687 22.467 6.077 0 0 0-.05.276 22.467 6.077 0 0 0 22.466 6.079 22.467 6.077 0 0 0 22.467-6.079 22.467 6.077 0 0 0-.053-.389z" color="#000" overflow="visible" fill-opacity=".181" stroke-width=".989" stroke-linecap="round" stroke-linejoin="round" enable-background="accumulate"/><path d="M48.66 52.747L48.424 54c-5.18 11.065-30.763 7.564-32.693 0l-.192-1.027c3.153 8.36 29.153 9.694 33.12-.225z" style="isolation:auto;mix-blend-mode:normal;marker:none" color="#000" overflow="visible" fill="#151634" fill-opacity=".187" stroke-width=".117" stroke-linecap="round" stroke-linejoin="round" stroke-opacity=".964" enable-background="accumulate"/><g transform="matrix(.8856 0 0 .8856 -80.51 -6.79)" clip-path="url(#B)" color="#000" fill-rule="evenodd"><path d="M-173.729 65.81l1.768 2.828-3.712 1.591-2.652-2.121-11.844.884-3.712 4.95-3.359-5.48-4.243 2.297-5.656-.707 1.414-3.005-3.89-3.889 5.48-6.187-5.303.707-2.298-2.121 3.006.53 3.182-5.48 4.596-1.06-3.713-1.238-.176-3.182 7.248-6.364 2.651-8.485 12.021 3.535 3.005 7.071 1.06-2.298 3.006.177v2.828l3.536-4.066 4.773 5.127V49.9l-8.309 7.248 5.303 3.005-.176 3.005z" style="marker:none" overflow="visible" fill="url(#C)" stroke="url(#D)" transform="matrix(-.50094 0 0 .50094 18.809 -1.829)"/><path d="M-184.158 50.96l.883 6.541-2.12 3.359 4.595 1.414 2.652 5.303-12.02.884-2.83 4.066-2.297-6.187 4.419-2.828 6.718 1.944-2.652-3.535 1.414-6.188z" style="marker:none" overflow="visible" opacity=".77" fill="url(#E)" transform="matrix(-.50094 0 0 .50094 18.809 -1.829)"/><path d="M-185.22 52.021l-4.419 6.894-7.247-4.95-4.42 2.475-3.535-3.005-3.182 2.829 3.005-4.95 6.894-1.591 8.662-4.243s12.375 3.713 11.667 3.713c-.707 0-10.253.176-10.253.176l-1.59-2.298-4.243 1.945z" style="marker:none" overflow="visible" opacity=".618" fill="url(#F)" transform="matrix(-.50094 0 0 .50094 18.809 -1.829)"/><path d="M116.11 14.047l-5.225 1.771-.709 1.948 3.01 2.126 2.835-2.745z" style="marker:none" overflow="visible" fill="#fff"/><path d="M-194.412 32.045l-2.298 7.425-4.242 3.712 8.662-1.944s2.475 2.828 1.414 2.828c-1.06 0-12.551 1.414-12.551 1.414l.177 2.298 16.263-3.005-7.071-6.54z" style="marker:none" overflow="visible" opacity=".135" fill="url(#G)" transform="matrix(-.50094 0 0 .50094 18.809 -1.829)"/><path d="M105.04 19.449l-.443 4.428.974-3.011 2.568.797.62-1.328 3.1.442.708-.62-4.516-.177-.443 1.24-1.948-.974zM112.567 26.002l1.505 1.771 3.454-2.302 2.125 1.151 3.454 3.277-3.808-2.923-1.86-.531-3.63 2.48z" style="marker:none" overflow="visible" fill="#fff"/><g><path d="M-173.729 65.81l1.768 2.828-3.712 1.591-2.652-2.121-11.844.884-3.712 4.95-3.359-5.48-4.243 2.297-5.656-.707 1.414-3.005-3.89-3.889 5.48-6.187-5.303.707-2.298-2.121 3.006.53 3.182-5.48 4.596-1.06-3.713-1.238-.176-3.182 7.248-6.364 2.651-8.485 12.021 3.535 3.005 7.071 1.06-2.298 3.006.177v2.828l3.536-4.066 4.773 5.127V49.9l-8.309 7.248 5.303 3.005-.176 3.005z" style="marker:none" overflow="visible" fill="url(#H)" stroke="url(#I)" transform="matrix(-.50094 0 0 .50094 18.542 6.402)"/><path d="M-184.158 50.96l.883 6.541-2.12 3.359 4.595 1.414 2.652 5.303-12.02.884-2.83 4.066-2.297-6.187 4.419-2.828 6.718 1.944-2.652-3.535 1.414-6.188z" style="marker:none" overflow="visible" opacity=".77" fill="url(#J)" transform="matrix(-.50094 0 0 .50094 18.542 6.402)"/><path d="M-185.22 52.021l-4.419 6.894-7.247-4.95-4.42 2.475-3.535-3.005-3.182 2.829 3.005-4.95 6.894-1.591 8.662-4.243s12.375 3.713 11.667 3.713c-.707 0-10.253.176-10.253.176l-1.59-2.298-4.243 1.945z" style="marker:none" overflow="visible" opacity=".618" fill="url(#K)" transform="matrix(-.50094 0 0 .50094 18.542 6.402)"/><path d="M115.842 22.277l-5.225 1.771-.708 1.949 3.01 2.125 2.835-2.745z" style="marker:none" overflow="visible" fill="#fff"/><path d="M-194.412 32.045l-2.298 7.425-4.242 3.712 8.662-1.944s2.475 2.828 1.414 2.828c-1.06 0-12.551 1.414-12.551 1.414l.177 2.298 16.263-3.005-7.071-6.54z" style="marker:none" overflow="visible" opacity=".135" fill="url(#L)" transform="matrix(-.50094 0 0 .50094 18.542 6.402)"/><path d="M104.773 27.68l-.443 4.427.974-3.011 2.568.797.62-1.328 3.1.442.708-.62-4.516-.177-.443 1.24-1.948-.974zM112.3 34.232l1.505 1.771 3.454-2.302 2.125 1.151 3.454 3.277-3.808-2.923-1.86-.531-3.63 2.48z" style="marker:none" overflow="visible" fill="#fff"/></g><g><path d="M-173.729 65.81l1.768 2.828-3.712 1.591-2.652-2.121-11.844.884-3.712 4.95-3.359-5.48-4.243 2.297-5.656-.707 1.414-3.005-3.89-3.889 5.48-6.187-5.303.707-2.298-2.121 3.006.53 3.182-5.48 4.596-1.06-3.713-1.238-.176-3.182 7.248-6.364 2.651-8.485 12.021 3.535 3.005 7.071 1.06-2.298 3.006.177v2.828l3.536-4.066 4.773 5.127V49.9l-8.309 7.248 5.303 3.005-.176 3.005z" style="marker:none" overflow="visible" fill="url(#M)" stroke="url(#N)" transform="translate(235.648 -4.513) scale(.50094)"/><path d="M-184.158 50.96l.883 6.541-2.12 3.359 4.595 1.414 2.652 5.303-12.02.884-2.83 4.066-2.297-6.187 4.419-2.828 6.718 1.944-2.652-3.535 1.414-6.188z" style="marker:none" overflow="visible" opacity=".77" fill="url(#O)" transform="translate(235.648 -4.513) scale(.50094)"/><path d="M-185.22 52.021l-4.419 6.894-7.247-4.95-4.42 2.475-3.535-3.005-3.182 2.829 3.005-4.95 6.894-1.591 8.662-4.243s12.375 3.713 11.667 3.713c-.707 0-10.253.176-10.253.176l-1.59-2.298-4.243 1.945z" style="marker:none" overflow="visible" opacity=".618" fill="url(#P)" transform="translate(235.648 -4.513) scale(.50094)"/><path d="M138.348 11.363l5.224 1.771.709 1.948-3.011 2.125-2.834-2.745z" style="marker:none" overflow="visible" fill="#fff"/><path d="M-194.412 32.045l-2.298 7.425-4.242 3.712 8.662-1.944s2.475 2.828 1.414 2.828c-1.06 0-12.551 1.414-12.551 1.414l.177 2.298 16.263-3.005-7.071-6.54z" style="marker:none" overflow="visible" opacity=".135" fill="url(#Q)" transform="translate(235.648 -4.513) scale(.50094)"/><path d="M149.417 16.765l.443 4.427-.974-3.01-2.568.797-.62-1.329-3.1.443-.708-.62 4.516-.177.443 1.24 1.948-.974zM141.89 23.318l-1.506 1.77-3.453-2.302-2.126 1.152-3.453 3.276 3.808-2.922 1.86-.531 3.63 2.48z" style="marker:none" overflow="visible" fill="#fff"/></g><g><path d="M-173.729 65.81l1.768 2.828-3.712 1.591-2.652-2.121-11.844.884-3.712 4.95-3.359-5.48-4.243 2.297-5.656-.707 1.414-3.005-3.89-3.889 5.48-6.187-5.303.707-2.298-2.121 3.006.53 3.182-5.48 4.596-1.06-3.713-1.238-.176-3.182 7.248-6.364 2.651-8.485 12.021 3.535 3.005 7.071 1.06-2.298 3.006.177v2.828l3.536-4.066 4.773 5.127V49.9l-8.309 7.248 5.303 3.005-.176 3.005z" style="marker:none" overflow="visible" fill="url(#R)" stroke="url(#S)" transform="matrix(0 -.50094 -.50094 0 151.613 -70.805)"/><path d="M-184.158 50.96l.883 6.541-2.12 3.359 4.595 1.414 2.652 5.303-12.02.884-2.83 4.066-2.297-6.187 4.419-2.828 6.718 1.944-2.652-3.535 1.414-6.188z" style="marker:none" overflow="visible" opacity=".77" fill="url(#T)" transform="matrix(0 -.50094 -.50094 0 151.613 -70.805)"/><path d="M-185.22 52.021l-4.419 6.894-7.247-4.95-4.42 2.475-3.535-3.005-3.182 2.829 3.005-4.95 6.894-1.591 8.662-4.243s12.375 3.713 11.667 3.713c-.707 0-10.253.176-10.253.176l-1.59-2.298-4.243 1.945z" style="marker:none" overflow="visible" opacity=".618" fill="url(#U)" transform="matrix(0 -.50094 -.50094 0 151.613 -70.805)"/><path d="M135.738 26.495l-1.772-5.224-1.948-.709-2.125 3.011 2.745 2.834z" style="marker:none" overflow="visible" fill="#fff"/><path d="M-194.412 32.045l-2.298 7.425-4.242 3.712 8.662-1.944s2.475 2.828 1.414 2.828c-1.06 0-12.551 1.414-12.551 1.414l.177 2.298 16.263-3.005-7.071-6.54z" style="marker:none" overflow="visible" opacity=".135" fill="url(#V)" transform="matrix(0 -.50094 -.50094 0 151.613 -70.805)"/><path d="M130.336 15.426l-4.428-.443 3.01.974-.796 2.568 1.328.62-.443 3.1.62.708.177-4.516-1.24-.443.975-1.948zM123.783 22.953l-1.771 1.506 2.302 3.453-1.151 2.126-3.277 3.453 2.923-3.808.53-1.86-2.479-3.63z" style="marker:none" overflow="visible" fill="#fff"/></g></g></svg>