<svg xmlns:osb="http://www.openswatchbook.org/uri/2009/osb" xmlns="http://www.w3.org/2000/svg" xmlns:xlink="http://www.w3.org/1999/xlink" viewBox="0 0 16 16" id="svg6"><defs id="defs3051"><style id="current-color-scheme">.ColorScheme-Text{color:#f2f2f2}</style><linearGradient gradientTransform="translate(69 516)" xlink:href="#default_color" id="linearGradient849" x1="3" y1="-436.5" x2="15" y2="-436.5" gradientUnits="userSpaceOnUse"/><linearGradient id="default_color" osb:paint="solid"><stop offset="0" id="stop823"/></linearGradient><linearGradient xlink:href="#default_color" id="linearGradient846" gradientUnits="userSpaceOnUse" gradientTransform="translate(67 515)" x1="3" y1="-436.5" x2="15" y2="-436.5"/></defs><path style="isolation:auto;mix-blend-mode:normal;marker:none;font-variant-east_asian:normal" d="M2 1v14h8v-1H3V2h7v3h3v5h1V5l-4-4H2z" id="rect7694-2-8-5-4" color="#000" overflow="visible" opacity=".64" fill="url(#linearGradient846)" stroke-width=".13" stroke-linecap="round" stroke-linejoin="round" stroke-opacity=".964"/><path id="path9212" d="M4 3h5v3h3v5h-2v2H4z" style="isolation:auto;mix-blend-mode:normal;marker:none" color="#000" overflow="visible" opacity=".1" fill="url(#linearGradient849)" stroke-width=".13" stroke-linecap="round" stroke-linejoin="round" stroke-opacity=".964"/><path style="marker:none;font-variant-east_asian:normal" d="M12.906 10.815l-.479 1.346-1.289-.614.614 1.29-1.346.478 1.346.478-.614 1.29 1.29-.614.478 1.346.478-1.346 1.29.614-.614-1.29 1.346-.478-1.346-.479.614-1.289-1.29.614z" class="ColorScheme-Text" id="path4" color="#f2f2f2" opacity=".64" fill="url(#linearGradient846)" stroke-width=".13" stroke-linecap="round" stroke-linejoin="round" stroke-opacity=".964"/></svg>