<svg xmlns:osb="http://www.openswatchbook.org/uri/2009/osb" xmlns="http://www.w3.org/2000/svg" xmlns:xlink="http://www.w3.org/1999/xlink" viewBox="0 0 16 16" id="svg6"><defs id="defs3051"><style id="current-color-scheme">.ColorScheme-Text{color:#f2f2f2}</style><linearGradient xlink:href="#default_color" id="linearGradient846" gradientUnits="userSpaceOnUse" gradientTransform="translate(67 515)" x1="3" y1="-436.5" x2="15" y2="-436.5"/><linearGradient id="default_color" osb:paint="solid"><stop offset="0" id="stop823"/></linearGradient></defs><path style="font-variant-east_asian:normal;marker:none" d="M2 2v11h3v1h2v-1H6V5h6v1h1V4h-1V2H2zm1 1h8v1H5v8H3V3zm8.004 4a2 2 0 0 0-2 2v2h-1v3h6v-3h-1V9a2 2 0 0 0-2-2zm0 1a1 1 0 0 1 1 1v2h-2V9a1 1 0 0 1 1-1z" class="ColorScheme-Text" id="path4" fill="url(#linearGradient846)" opacity=".64" stroke-width=".13" stroke-linecap="round" stroke-linejoin="round" stroke-opacity=".964"/></svg>