<svg xmlns:osb="http://www.openswatchbook.org/uri/2009/osb" xmlns="http://www.w3.org/2000/svg" xmlns:xlink="http://www.w3.org/1999/xlink" viewBox="0 0 16 16" id="svg6"><defs id="defs3051"><style id="current-color-scheme">.ColorScheme-Text{color:#f2f2f2}</style><linearGradient xlink:href="#default_color" id="linearGradient846" gradientUnits="userSpaceOnUse" gradientTransform="translate(67 515)" x1="3" y1="-436.5" x2="15" y2="-436.5"/><linearGradient id="default_color" osb:paint="solid"><stop offset="0" id="stop823"/></linearGradient></defs><path style="font-variant-east_asian:normal;marker:none" d="M5 2c-.433.75-.652.75-.219 1.5L7.406 8l-1.5 2.219A2 2 0 1 0 7 12c0-.405-.137-.779-.344-1.094-.005-.008.005-.024 0-.031l.438-.625c.802-.025.914-.593 1.406-.594h.031l.031.063.782 1.156v.031A2.003 2.003 0 0 0 8.998 12a2 2 0 1 0 1.096-1.781L8.594 8s2.635-4.508 2.625-4.5c.433-.75.212-.75-.221-1.5l-3 5.125L5 2zm2.998 6H8a.5.5 0 0 1 .5.5.507.507 0 0 1-.438.5h-.124a.509.509 0 0 1-.44-.5.5.5 0 0 1 .5-.5zm-3 3a1 1 0 1 1 0 2 1 1 0 0 1 0-2zm6 0a1 1 0 1 1 0 2 1 1 0 0 1 0-2z" class="ColorScheme-Text" id="path4" fill="url(#linearGradient846)" opacity=".64" stroke-width=".13" stroke-linecap="round" stroke-linejoin="round" stroke-opacity=".964"/></svg>