<svg xmlns:osb="http://www.openswatchbook.org/uri/2009/osb" xmlns="http://www.w3.org/2000/svg" xmlns:xlink="http://www.w3.org/1999/xlink" viewBox="0 0 16 16" id="svg6"><defs id="defs3051"><style id="current-color-scheme">.ColorScheme-Text{color:#f2f2f2}</style><linearGradient xlink:href="#default_color" id="linearGradient846" gradientUnits="userSpaceOnUse" gradientTransform="translate(67 515)" x1="3" y1="-436.5" x2="15" y2="-436.5"/><linearGradient id="default_color" osb:paint="solid"><stop offset="0" id="stop823"/></linearGradient></defs><path style="font-variant-east_asian:normal;marker:none" d="M6.5 2C4.007 2 2 4.01 2 6.5 2 8.993 4.01 11 6.5 11a4.462 4.462 0 0 0 2.795-.994l3.998 3.998.707-.707-3.998-3.998A4.46 4.46 0 0 0 11 6.5C11 4.007 8.99 2 6.5 2zm0 1C8.439 3 10 4.561 10 6.5S8.439 10 6.5 10A3.492 3.492 0 0 1 3 6.5C3 4.561 4.561 3 6.5 3z" class="ColorScheme-Text" id="path4" fill="url(#linearGradient846)" opacity=".64" stroke-width=".13" stroke-linecap="round" stroke-linejoin="round" stroke-opacity=".964"/></svg>