<svg xmlns="http://www.w3.org/2000/svg" viewBox="0 0 16 16" id="svg6" width="16" height="16"><defs id="defs3051"><style id="current-color-scheme">.ColorScheme-Text{color:#f2f2f2}</style></defs><path d="M7.514 1.596L.57 9c-.57 1 .073 1 .751 1H3v4.456l.498.544H12.436l.564-.674V10h2.026c.33 0 1.078-.404.637-1l-7.15-7.448c-.441-.275-.513-.26-1 .044zM8 2.508L13.56 9H12v5H6h.01H4V9H2.492z" id="path822" opacity=".661" fill="#010101" fill-rule="evenodd"/><path d="M8 4L4 9h1v4h6V9h1z" id="path833" opacity=".159" fill-rule="evenodd"/><path d="M11 3h1v1h-1z" id="path835" opacity=".558" fill="#080808" fill-rule="evenodd"/></svg>