<svg xmlns:osb="http://www.openswatchbook.org/uri/2009/osb" xmlns="http://www.w3.org/2000/svg" xmlns:xlink="http://www.w3.org/1999/xlink" viewBox="0 0 16 16" id="svg6"><defs id="defs3051"><style id="current-color-scheme">.ColorScheme-Text{color:#f2f2f2}</style><linearGradient xlink:href="#default_color" id="linearGradient846" gradientUnits="userSpaceOnUse" gradientTransform="translate(67 515)" x1="3" y1="-436.5" x2="15" y2="-436.5"/><linearGradient id="default_color" osb:paint="solid"><stop offset="0" id="stop823"/></linearGradient></defs><path style="font-variant-east_asian:normal;marker:none" d="M6.834 3.256l3.879 3.855L14 10.398V14h-3.602L3 6.503c-.292-.308-.402-1.118.069-1.806L4.72 3.08c.652-.681 1.49-.447 2.113.176zM7.65 5.49L5.49 7.65l3.174 3.176 2.049-2.275L9.27 7.11zm3.69 3.62L9.2 11.36l1.558 1.56h1.441l.72-.72v-1.442z" class="ColorScheme-Text" id="path4" color="#f2f2f2" fill="url(#linearGradient846)" opacity=".64" stroke-width=".13" stroke-linecap="round" stroke-linejoin="round" stroke-opacity=".964"/><path id="path7654" class="ColorScheme-Text" d="M22.33 1.795l5.111 5.111 3.287 3.288v3.601h-3.601l-8.399-8.398zm2.049 3.49l-2.16 2.16 3.173 3.176v-.675l1.014.021h1.035V8.346L26 6.906zm4.076 4.075v1.62h-2.027l-.022.653 1.08 1.082h1.442l.72-.72v-1.442z" style="font-variant-east_asian:normal;marker:none" color="#f2f2f2" fill="url(#linearGradient846)" opacity=".64" stroke-width=".13" stroke-linecap="round" stroke-linejoin="round" stroke-opacity=".964"/><path style="isolation:auto;mix-blend-mode:normal;marker:none;font-variant-east_asian:normal" id="rect7658" color="#000" display="block" overflow="visible" opacity=".64" fill="url(#linearGradient846)" stroke-width=".13" stroke-linecap="round" stroke-linejoin="round" stroke-opacity=".964" d="M2 13h1v1H2z"/><path id="rect7660" style="isolation:auto;mix-blend-mode:normal;marker:none;font-variant-east_asian:normal" color="#000" display="block" overflow="visible" opacity=".64" fill="url(#linearGradient846)" stroke-width=".13" stroke-linecap="round" stroke-linejoin="round" stroke-opacity=".964" d="M4 13h1v1H4z"/><path style="isolation:auto;mix-blend-mode:normal;marker:none;font-variant-east_asian:normal" id="rect7662" color="#000" display="block" overflow="visible" opacity=".64" fill="url(#linearGradient846)" stroke-width=".13" stroke-linecap="round" stroke-linejoin="round" stroke-opacity=".964" d="M6 13h1v1H6z"/><path style="font-variant-east_asian:normal;marker:none" d="M3.082 6.63l1.652 1.723 3.619-3.596-1.805-1.764c-.49-.43-1.373-.49-1.85.106L3.019 4.72c-.4.523-.404 1.486.063 1.91z" id="path7666" fill="url(#linearGradient846)" fill-rule="evenodd" stroke-width=".13" stroke-linecap="round" stroke-linejoin="round" stroke-opacity=".964" opacity=".64"/></svg>