<svg xmlns:osb="http://www.openswatchbook.org/uri/2009/osb" xmlns="http://www.w3.org/2000/svg" xmlns:xlink="http://www.w3.org/1999/xlink" viewBox="0 0 16 16" id="svg6"><defs id="defs3051"><style id="current-color-scheme">.ColorScheme-Text{color:#f2f2f2}</style><symbol id="symbol17195"><title id="title17191">Settings</title><path d="M38.86 25.95c.08-.64.14-1.29.14-1.95s-.06-1.31-.14-1.95l4.23-3.31c.38-.3.49-.84.24-1.28l-4-6.93c-.25-.43-.77-.61-1.22-.43l-4.98 2.01c-1.03-.79-2.16-1.46-3.38-1.97L29 4.84c-.09-.47-.5-.84-1-.84h-8c-.5 0-.91.37-.99.84l-.75 5.3a14.8 14.8 0 0 0-3.38 1.97L9.9 10.1a1 1 0 0 0-1.22.43l-4 6.93c-.25.43-.14.97.24 1.28l4.22 3.31C9.06 22.69 9 23.34 9 24s.06 1.31.14 1.95l-4.22 3.31c-.38.3-.49.84-.24 1.28l4 6.93c.25.43.77.61 1.22.43l4.98-2.01c1.03.79 2.16 1.46 3.38 1.97l.75 5.3c.08.47.49.84.99.84h8c.5 0 .91-.37.99-.84l.75-5.3a14.8 14.8 0 0 0 3.38-1.97l4.98 2.01a1 1 0 0 0 1.22-.43l4-6.93c.25-.43.14-.97-.24-1.28l-4.22-3.31zM24 31c-3.87 0-7-3.13-7-7s3.13-7 7-7 7 3.13 7 7-3.13 7-7 7z" id="path17193"/></symbol><linearGradient xlink:href="#default_color" id="linearGradient846" gradientUnits="userSpaceOnUse" gradientTransform="translate(67 515)" x1="3" y1="-436.5" x2="15" y2="-436.5"/><linearGradient id="default_color" osb:paint="solid"><stop offset="0" id="stop823"/></linearGradient></defs><path d="M28.1-10.034c-.933 0-1.716.638-1.938 1.5h-6.063v1h6.063a2.001 2.001 0 0 0 3.875 0h2.062v-1h-2.062a2.001 2.001 0 0 0-1.938-1.5zm-5 7c-.933 0-1.716.638-1.938 1.5h-1.063v1h1.063a2.001 2.001 0 0 0 3.875 0H32.099v-1h-7.062a2.001 2.001 0 0 0-1.938-1.5zm0 1a1 1 0 1 1 0 2 1 1 0 0 1 0-2z" class="ColorScheme-Text" id="path4" color="#f2f2f2" fill="currentColor"/><use id="use32985" style="font-variant-east_asian:normal;marker:none" xlink:href="#symbol17195" width="100%" height="100%" transform="matrix(.35973 0 0 .35973 -.635 -.828)" fill="url(#linearGradient846)" opacity=".64" stroke-width=".361" stroke-linecap="round" stroke-linejoin="round" stroke-opacity=".964"/></svg>