<svg xmlns:osb="http://www.openswatchbook.org/uri/2009/osb" xmlns="http://www.w3.org/2000/svg" xmlns:xlink="http://www.w3.org/1999/xlink" width="22" height="22"><defs><linearGradient id="a"><stop offset="0" stop-color="#fff"/><stop offset="1" stop-color="#e6e6e6"/></linearGradient><linearGradient xlink:href="#b" id="c" gradientUnits="userSpaceOnUse" gradientTransform="translate(67 515)" x1="3" y1="-436.5" x2="15" y2="-436.5"/><linearGradient id="b" osb:paint="solid"><stop offset="0"/></linearGradient></defs><g transform="translate(0 6)" style="marker:none" opacity=".64" fill="url(#c)" stroke-width=".13" stroke-linecap="round" stroke-linejoin="round" stroke-opacity=".964" color="#000"><path d="M6-1C4.892-1 4-.108 4 1v10c0 1.108.892 2 2 2h10c1.108 0 2-.892 2-2V1c0-1.108-.892-2-2-2zm0 1h10c.554 0 1 .446 1 1v9c0 .554-.446 1-1 1H6c-.554 0-1-.446-1-1V1c0-.554.446-1 1-1zm7 1l-1 2h1l2-2zm-.344 2.994c-.79 0-1.549.257-2.281.75l.375.85c.312-.21.616-.36.906-.469.298-.116.57-.156.875-.156.45 0 .792.104 1.031.343.24.233.438.549.438.97v.306c-.21-.08-.52-.144-.781-.188a4.011 4.011 0 0 0-.781-.062c-.356 0-.672.038-.97.125-.29.087-.563.215-.78.375-.21.16-.353.345-.47.562-.115.218-.187.55-.187.819 0 .254.062.501.156.719.102.217.209.402.376.562.174.16.392.28.624.375.24.087.506.125.782.125.428 0 .817-.076 1.187-.25.377-.181.684-.448.938-.781l.031.344a.743.743 0 0 0 .219.437c.123.109.299.173.531.188.08 0 .187.007.281 0 .102-.008.197-.01.313-.032V8.875c-.124-.007-.303-.036-.354-.094A.498.498 0 0 1 15 8.47V6.338c0-.747-.096-1.32-.531-1.719-.435-.399-1.03-.625-1.813-.625zm-.09 3.07c.218 0 .608.05.833.094.232.044.398.106.601.186v.75c0 .145-.129.307-.281.437-.427.38-.941.43-1.438.469-.326 0-.734.018-.945-.17-.21-.197-.336-.422-.336-.705 0-.305.294-.569.563-.75a1.67 1.67 0 0 1 1.003-.31z" style="marker:none" overflow="visible" opacity=".106"/><path d="M6-2c-1.108 0-2 .892-2 2v10c0 1.108.892 2 2 2h10c1.108 0 2-.892 2-2V0c0-1.108-.892-2-2-2zm0 1h10c.554 0 1 .446 1 1v9c0 .554-.446 1-1 1H6c-.554 0-1-.446-1-1V0c0-.554.446-1 1-1zm7 1l-1 2h1l2-2zm-.344 2.994c-.79 0-1.549.257-2.281.75l.375.85c.312-.21.616-.36.906-.469.298-.116.57-.156.875-.156.45 0 .792.104 1.031.344.24.232.438.548.438.968v.307c-.21-.08-.52-.144-.781-.188a4.011 4.011 0 0 0-.781-.062c-.356 0-.672.038-.97.125-.29.087-.563.215-.78.375-.21.16-.353.345-.47.562-.115.218-.187.55-.187.819 0 .254.062.501.156.718.102.218.209.403.376.563.174.16.392.28.624.375.24.087.506.125.782.125.428 0 .817-.076 1.187-.25.377-.181.684-.448.938-.781l.031.343a.743.743 0 0 0 .219.438c.123.109.299.173.531.188.08 0 .187.007.281 0 .102-.008.197-.01.313-.032V7.875c-.124-.007-.303-.036-.354-.094A.498.498 0 0 1 15 7.47V5.338c0-.747-.096-1.32-.531-1.719-.435-.399-1.03-.625-1.813-.625zm-.09 3.07c.218 0 .608.05.833.094.232.044.398.106.601.186v.75c0 .145-.129.307-.281.437-.427.38-.941.43-1.438.469-.326 0-.734.018-.945-.17-.21-.197-.336-.422-.336-.705 0-.305.294-.569.563-.75a1.67 1.67 0 0 1 1.003-.31z" style="marker:none" overflow="visible"/></g></svg>