<svg xmlns:osb="http://www.openswatchbook.org/uri/2009/osb" xmlns="http://www.w3.org/2000/svg" xmlns:xlink="http://www.w3.org/1999/xlink" viewBox="0 0 16 16" id="svg6"><defs id="defs3051"><style id="current-color-scheme">.ColorScheme-Text{color:#f2f2f2}</style><linearGradient xlink:href="#default_color" id="linearGradient846" gradientUnits="userSpaceOnUse" gradientTransform="translate(67 515)" x1="3" y1="-436.5" x2="15" y2="-436.5"/><linearGradient id="default_color" osb:paint="solid"><stop offset="0" id="stop823"/></linearGradient></defs><path style="font-variant-east_asian:normal;marker:none" d="M4 2v5h2v2H4v5h8V9h-2V7h2V2H4zm1 1h6v3H5V3zM2 4v1h1V4H2zm11 0v1h1V4h-1zM7 7h2v2H7V7zm-2 3h6v3H5v-3zm-3 1v1h1v-1H2zm4 0v1h4v-1H6zm7 0v1h1v-1h-1z" class="ColorScheme-Text" id="path4" fill="url(#linearGradient846)" opacity=".64" stroke-width=".13" stroke-linecap="round" stroke-linejoin="round" stroke-opacity=".964"/></svg>