<svg xmlns:osb="http://www.openswatchbook.org/uri/2009/osb" xmlns="http://www.w3.org/2000/svg" xmlns:xlink="http://www.w3.org/1999/xlink" viewBox="0 0 16 16" id="svg6"><defs id="defs3051"><style id="current-color-scheme">.ColorScheme-Text{color:#f2f2f2}</style><linearGradient xlink:href="#default_color" id="linearGradient846" gradientUnits="userSpaceOnUse" gradientTransform="translate(67 515)" x1="3" y1="-436.5" x2="15" y2="-436.5"/><linearGradient id="default_color" osb:paint="solid"><stop offset="0" id="stop823"/></linearGradient></defs><path style="font-variant-east_asian:normal;marker:none" d="M8.172 1.672l-.707.707.95.95.67.671H5v1h4.086l-.672.672-.95.95.708.706.95-.95L11 4.5 9.121 2.621l-.95-.95zM3.5 5a.5.5 0 1 0 0 1 .5.5 0 0 0 0-1zm6.969 1.563l-3.906 3.906L10.092 14 14 10.094l-3.531-3.531zM2.5 8a.5.5 0 1 0 0 1 .5.5 0 0 0 0-1zm1 3a.5.5 0 1 0 0 1 .5.5 0 0 0 0-1zm3 1a.5.5 0 1 0 0 1 .5.5 0 0 0 0-1z" class="ColorScheme-Text" id="path4" fill="url(#linearGradient846)" opacity=".64" stroke-width=".13" stroke-linecap="round" stroke-linejoin="round" stroke-opacity=".964"/></svg>