<svg xmlns:osb="http://www.openswatchbook.org/uri/2009/osb" xmlns="http://www.w3.org/2000/svg" xmlns:xlink="http://www.w3.org/1999/xlink" viewBox="0 0 16 16" id="svg6"><defs id="defs3051"><style id="current-color-scheme">.ColorScheme-Text{color:#f2f2f2}</style><linearGradient xlink:href="#default_color" id="linearGradient846" gradientUnits="userSpaceOnUse" gradientTransform="translate(67 515)" x1="3" y1="-436.5" x2="15" y2="-436.5"/><linearGradient id="default_color" osb:paint="solid"><stop offset="0" id="stop823"/></linearGradient></defs><path style="font-variant-east_asian:normal;marker:none" d="M10 2.5c-.932 0-1.716.637-1.938 1.5H2v1h6.063a2.001 2.001 0 0 0 3.874 0H14V4h-2.063A2.001 2.001 0 0 0 10 2.5zm-5 7c-.932 0-1.716.637-1.938 1.5H2v1h1.063a2.001 2.001 0 0 0 3.874 0H14v-1H6.937A2.001 2.001 0 0 0 5 9.5zm0 1a1 1 0 1 1 0 2 1 1 0 0 1 0-2z" class="ColorScheme-Text" id="path4" fill="url(#linearGradient846)" opacity=".64" stroke-width=".13" stroke-linecap="round" stroke-linejoin="round" stroke-opacity=".964"/></svg>