<svg xmlns:osb="http://www.openswatchbook.org/uri/2009/osb" xmlns="http://www.w3.org/2000/svg" xmlns:xlink="http://www.w3.org/1999/xlink" height="8" viewBox="0 0 8 8" width="8"><title>Template icons dark</title><defs><linearGradient id="d" osb:paint="solid"><stop offset="0" stop-color="#070707" stop-opacity=".119"/></linearGradient><linearGradient id="b" osb:paint="solid"><stop offset="0" stop-opacity=".119"/></linearGradient><linearGradient id="a" osb:paint="solid"><stop offset="0" stop-color="#ff1e3e"/></linearGradient><linearGradient id="c" osb:paint="solid"><stop offset="0" stop-color="#fff"/></linearGradient><linearGradient xlink:href="#a" id="f" gradientUnits="userSpaceOnUse" gradientTransform="translate(-86.955 -86.955) scale(.31818)" x1="25" y1="36" x2="47" y2="36"/><linearGradient xlink:href="#b" id="e" x1="-80" y1="-76" x2="-72" y2="-76" gradientUnits="userSpaceOnUse"/><linearGradient xlink:href="#c" id="g" x1="29.463" y1="36" x2="42.537" y2="36" gradientUnits="userSpaceOnUse"/></defs><g color="#000" transform="translate(80 80)"><rect style="isolation:auto;mix-blend-mode:normal;marker:none" width="8" height="8" x="-80" y="-80" ry="0" display="block" overflow="visible" opacity=".5" fill="url(#e)" stroke-width=".325" stroke-linecap="round" stroke-opacity=".963"/><rect ry="0" y="-80" x="-80" height="8" width="8" style="isolation:auto;mix-blend-mode:normal;marker:none" display="block" overflow="visible" fill="url(#e)" stroke-width=".325" stroke-linecap="round" stroke-opacity=".963"/><rect style="isolation:auto;mix-blend-mode:normal;marker:none" width="7" height="7" x="-79" y="-79" ry="0" display="block" overflow="visible" fill="url(#f)" stroke-width=".284" stroke-linecap="round" stroke-opacity=".963"/><path style="isolation:auto;mix-blend-mode:normal;marker:none;font-variant-east_asian:normal" d="M-78-78v1h1v-1zm1 1v1h1v-1zm1 1v1h1v-1zm1 0h1v-1h-1zm1-1h1v-1h-1zm-1 2v1h1v-1zm1 1v1h1v-1zm-2-1h-1v1h1zm-1 1h-1v1h1z" display="block" overflow="visible" fill="url(#g)" stroke-width=".76" stroke-opacity=".995"/></g></svg>