<svg xmlns:osb="http://www.openswatchbook.org/uri/2009/osb" xmlns="http://www.w3.org/2000/svg" height="16" viewBox="0 0 16 16" width="16"><title>Template icons dark</title><defs><linearGradient id="h"><stop offset="0" stop-color="#f72424" stop-opacity=".066"/><stop offset="1" stop-color="#f72424" stop-opacity=".118"/></linearGradient><linearGradient id="g" osb:paint="solid"><stop offset="0" stop-opacity=".196"/></linearGradient><linearGradient id="f" osb:paint="solid"><stop offset="0" stop-color="#fff" stop-opacity=".162"/></linearGradient><linearGradient id="e" osb:paint="solid"><stop offset="0" stop-opacity=".009"/></linearGradient><linearGradient id="d" osb:paint="solid"><stop offset="0" stop-opacity=".026"/></linearGradient><linearGradient id="b"><stop offset="0" stop-color="#fa2727"/><stop offset="1" stop-color="#fb4e4e"/></linearGradient><linearGradient id="a"><stop offset="0" stop-color="#fa2727"/><stop offset="1" stop-color="#d90101"/></linearGradient><linearGradient id="c"><stop offset="0" stop-opacity="0"/><stop offset="1" stop-opacity=".102"/></linearGradient></defs><g fill="#fa2727" stroke-width=".231"><path style="isolation:auto;mix-blend-mode:normal;marker:none" d="M2 1v14h12V5l-4-4zm1 1h7v3h3v9H3z" color="#000" overflow="visible" paint-order="fill markers stroke"/><path d="M12.602 9.167c-.186-.183-.599-.28-1.227-.289-.425-.005-.937.033-1.475.108-.242-.139-.49-.29-.685-.472-.525-.49-.963-1.17-1.235-1.918.017-.07.033-.131.047-.194 0 0 .295-1.678.217-2.246a.656.656 0 0 0-.038-.16l-.026-.067c-.08-.185-.238-.381-.485-.37l-.145-.005h-.004c-.276 0-.5.14-.559.351-.18.66.006 1.649.34 2.929l-.085.208a23.03 23.03 0 0 1-.806 1.694l-.034.067a28.44 28.44 0 0 1-.762 1.403l-.237.125c-.017.01-.424.224-.519.282-.808.482-1.344 1.03-1.432 1.465-.029.139-.008.316.136.398l.23.116c.099.05.204.075.311.075.576 0 1.244-.717 2.165-2.324a21.56 21.56 0 0 1 3.333-.792c.808.455 1.802.77 2.43.77.111 0 .207-.01.285-.03.12-.032.222-.1.284-.194.122-.183.146-.436.113-.694a.464.464 0 0 0-.137-.236zM4.004 12.23c.105-.287.52-.855 1.135-1.358.039-.031.134-.12.221-.203-.642 1.024-1.073 1.433-1.356 1.56zm3.64-8.38c.184 0 .29.467.298.904.009.437-.093.744-.22.971-.105-.336-.156-.866-.156-1.212 0 0-.008-.663.077-.663zM6.557 9.822c.129-.23.263-.474.4-.732.334-.632.545-1.126.702-1.533A5.063 5.063 0 0 0 9 9.142c-.93.184-1.734.408-2.442.68zm5.865-.053c-.056.036-.219.056-.323.056-.337 0-.754-.154-1.338-.404.224-.017.43-.025.615-.025.338 0 .438-.002.768.082.33.085.335.256.278.291z" style="marker:none" paint-order="fill markers stroke"/><path d="M3 2h7v3h3v9H3z" style="isolation:auto;mix-blend-mode:normal;marker:none" color="#000" overflow="visible" opacity=".1" paint-order="fill markers stroke"/></g></svg>