<svg xmlns:osb="http://www.openswatchbook.org/uri/2009/osb" xmlns="http://www.w3.org/2000/svg" xmlns:xlink="http://www.w3.org/1999/xlink" height="16" viewBox="0 0 16 16" width="16"><title>Template icons dark</title><defs><linearGradient id="g" osb:paint="solid"><stop offset="0" stop-opacity=".196"/></linearGradient><linearGradient id="f" osb:paint="solid"><stop offset="0" stop-color="#fff" stop-opacity=".469"/></linearGradient><linearGradient id="e" osb:paint="solid"><stop offset="0" stop-opacity=".009"/></linearGradient><linearGradient id="d" osb:paint="solid"><stop offset="0" stop-opacity=".022"/></linearGradient><linearGradient id="b"><stop offset="0" stop-color="#92cbd1"/><stop offset="1" stop-color="#41bda9"/></linearGradient><linearGradient id="a"><stop offset="0" stop-color="#44e9b3"/><stop offset="1" stop-color="#43a8ce"/></linearGradient><linearGradient id="c"><stop offset="0" stop-opacity="0"/><stop offset="1" stop-opacity=".102"/></linearGradient><linearGradient xlink:href="#a" id="h" gradientUnits="userSpaceOnUse" gradientTransform="matrix(.74629 0 0 .7469 -33.962 -33.796)" x1="-30.881" y1="-54.745" x2="-41.893" y2="-32.902"/></defs><path style="isolation:auto;mix-blend-mode:normal;marker:none" d="M-57.882-69.88l-.101 7.954c-.026 2.05-1.774 2.706-2.69 2.706-2.677 0-2.639-3.182 0-3.229.554 0 1.623-.107 1.64-.763 0 0 .118-3.034-.026-3.425-.39-.062-6.729 1.767-6.914 1.994-.02.535 0 4.869 0 4.869 0 2.029-1.774 2.705-2.69 2.705-2.697 0-2.639-3.18 0-3.228.554 0 1.353-.146 1.486-.619v-7.183c0-.353.236-.665.572-.774l7.58-2.152c1.143 0 .925.689 1.143 1.145z" color="#000" overflow="visible" fill="url(#h)" stroke-width=".282" paint-order="fill markers stroke" transform="translate(72 72)"/></svg>