<svg xmlns:osb="http://www.openswatchbook.org/uri/2009/osb" xmlns="http://www.w3.org/2000/svg" height="16" viewBox="0 0 16 16" width="16"><title>Template icons dark</title><defs><linearGradient id="g" osb:paint="solid"><stop offset="0" stop-opacity=".196"/></linearGradient><linearGradient id="f" osb:paint="solid"><stop offset="0" stop-color="#fff" stop-opacity=".782"/></linearGradient><linearGradient id="e" osb:paint="solid"><stop offset="0" stop-opacity="0"/></linearGradient><linearGradient id="d" osb:paint="solid"><stop offset="0" stop-opacity=".157"/></linearGradient><linearGradient id="b"><stop offset="0" stop-color="#fff"/><stop offset="1" stop-color="#dfdfdf"/></linearGradient><linearGradient id="a"><stop offset="0" stop-color="#f0f0f0"/><stop offset="1" stop-color="#fff"/></linearGradient><linearGradient id="c"><stop offset="0" stop-opacity="0"/><stop offset="1" stop-opacity=".038"/></linearGradient><linearGradient id="h" osb:paint="solid"><stop offset="0" stop-opacity=".084"/></linearGradient></defs><path style="line-height:1000%" d="M8.805 7.985q-2.017 0-2.795.461-.778.462-.778 1.574 0 .887.58 1.411.587.516 1.591.516 1.384 0 2.216-.977.841-.986.841-2.614v-.371zm3.32-.687v5.78H10.46V11.54q-.57.922-1.42 1.366-.85.434-2.08.434-1.556 0-2.478-.869-.914-.877-.914-2.342 0-1.71 1.14-2.578 1.148-.868 3.419-.868h2.333V6.52q0-1.149-.76-1.773-.75-.633-2.116-.633-.868 0-1.691.208-.824.208-1.583.624V3.408q.913-.353 1.773-.524.859-.181 1.673-.181 2.198 0 3.283 1.14 1.086 1.14 1.086 3.455z" font-size="53.333" font-family="sans-serif" letter-spacing="0" word-spacing="0" fill="#3f89df" stroke="#3d88df" stroke-width=".313"/></svg>