<svg xmlns:osb="http://www.openswatchbook.org/uri/2009/osb" xmlns="http://www.w3.org/2000/svg" xmlns:xlink="http://www.w3.org/1999/xlink" height="16" viewBox="0 0 16 16" width="16"><title>Template icons dark</title><defs><linearGradient id="g" osb:paint="solid"><stop offset="0" stop-opacity=".196"/></linearGradient><linearGradient id="f" osb:paint="solid"><stop offset="0" stop-color="#fff" stop-opacity=".302"/></linearGradient><linearGradient id="e" osb:paint="solid"><stop offset="0" stop-opacity=".013"/></linearGradient><linearGradient id="d" osb:paint="solid"><stop offset="0" stop-opacity=".031"/></linearGradient><linearGradient id="b"><stop offset="0" stop-color="#f8c6c6"/><stop offset="1" stop-color="#f8a28d"/></linearGradient><linearGradient id="a"><stop offset="0" stop-color="#fa8484"/><stop offset="1" stop-color="#f9a874"/></linearGradient><linearGradient id="c"><stop offset="0" stop-opacity="0"/><stop offset="1" stop-opacity=".102"/></linearGradient><linearGradient id="h"><stop offset="0" stop-opacity="0"/><stop offset="1" stop-opacity=".083"/></linearGradient><linearGradient xlink:href="#i" id="j" x1="-32.114" y1="-39.117" x2="-32.114" y2="-25.117" gradientUnits="userSpaceOnUse"/><linearGradient id="i"><stop offset="0" stop-color="#e33a2f" stop-opacity=".929"/><stop offset="1" stop-color="#d97754" stop-opacity=".984"/></linearGradient></defs><g stroke-width=".062"><path d="M-38.114-39.117l1 12 5 2 4.976-2.023 1.024-11.977zm2.5 3h7.059l-.103 1.37-5.456-.021v1.651h5.393l-.393 4-3 1-3-1v-2h1v1l2 .394 2-.394v-2h-5z" fill="url(#j)" transform="translate(40.114 40.117)"/><path d="M3 13l5 2 .007-2.002L8 12l-3-1V9h1v1l2 .394V8H5l-.5-4H8V1H2zm3-7.652V7h2V5.37z" fill="#8d3000" fill-opacity=".13"/></g></svg>