<svg xmlns:osb="http://www.openswatchbook.org/uri/2009/osb" xmlns="http://www.w3.org/2000/svg" xmlns:xlink="http://www.w3.org/1999/xlink" height="48" viewBox="0 0 48 48" width="48"><title>Template icons dark</title><defs><linearGradient id="h"><stop offset="0" stop-color="#f72424" stop-opacity=".066"/><stop offset="1" stop-color="#f72424" stop-opacity=".118"/></linearGradient><linearGradient id="g" osb:paint="solid"><stop offset="0" stop-opacity=".196"/></linearGradient><linearGradient id="f" osb:paint="solid"><stop offset="0" stop-color="#fff" stop-opacity=".162"/></linearGradient><linearGradient id="e" osb:paint="solid"><stop offset="0" stop-opacity=".009"/></linearGradient><linearGradient id="d" osb:paint="solid"><stop offset="0" stop-opacity=".026"/></linearGradient><linearGradient id="b"><stop offset="0" stop-color="#fa2727"/><stop offset="1" stop-color="#fb4e4e"/></linearGradient><linearGradient id="a"><stop offset="0" stop-color="#fa2727"/><stop offset="1" stop-color="#d90101"/></linearGradient><linearGradient xlink:href="#a" id="j" gradientUnits="userSpaceOnUse" x1="24.117" y1="4.931" x2="24.058" y2="42.556" gradientTransform="matrix(1.11943 0 0 1.12035 -2.944 -2.694)"/><linearGradient xlink:href="#c" id="k" gradientUnits="userSpaceOnUse" gradientTransform="matrix(1.11943 0 0 1.12035 -2.944 -2.694)" x1="26.073" y1="18.962" x2="34.374" y2="10.815"/><linearGradient xlink:href="#b" id="m" gradientUnits="userSpaceOnUse" x1="34.176" y1="10.276" x2="30.758" y2="13.691" gradientTransform="matrix(1.27935 0 0 1.12035 -8.235 -2.817)"/><linearGradient id="c"><stop offset="0" stop-opacity="0"/><stop offset="1" stop-opacity=".102"/></linearGradient><linearGradient xlink:href="#d" id="i" x1="126" y1="161.5" x2="194" y2="161.5" gradientUnits="userSpaceOnUse"/><linearGradient xlink:href="#g" id="l" x1="166" y1="133.472" x2="193" y2="133.472" gradientUnits="userSpaceOnUse"/></defs><path d="M6 2h22l13 13v31H6z" style="isolation:auto;mix-blend-mode:normal;marker:none" color="#000" overflow="visible" fill="url(#i)" stroke-width=".852" paint-order="fill markers stroke"/><path style="isolation:auto;mix-blend-mode:normal;marker:none" d="M7 3h21l12 12v30H6.992z" color="#000" overflow="visible" fill="url(#j)" stroke-width=".423" paint-order="fill markers stroke"/><path d="M7 3h21l12 12v30H6.992z" style="isolation:auto;mix-blend-mode:normal;marker:none" color="#000" overflow="visible" fill="url(#k)" stroke-width=".423" paint-order="fill markers stroke"/><path d="M28 3l12 12-14 2z" fill="url(#l)" fill-rule="evenodd" stroke-width="2.195"/><path d="M28 3l12 12H28z" fill="url(#m)" fill-rule="evenodd" stroke-width="1.197"/><path d="M33.359 28.388c-.4-.394-1.286-.602-2.634-.62-.912-.01-2.01.07-3.166.232-.517-.298-1.05-.623-1.469-1.014-1.126-1.052-2.066-2.511-2.651-4.116.038-.15.07-.281.1-.416 0 0 .635-3.602.467-4.82a1.407 1.407 0 0 0-.082-.345l-.055-.141c-.173-.398-.511-.82-1.041-.797l-.311-.01h-.009c-.591 0-1.073.303-1.2.755-.384 1.417.013 3.538.732 6.285l-.184.447c-.515 1.255-1.16 2.52-1.73 3.635l-.074.145a61.034 61.034 0 0 1-1.634 3.01l-.509.268c-.037.02-.909.48-1.113.604-1.735 1.036-2.884 2.212-3.075 3.145-.06.297-.015.678.294.855l.491.247c.214.107.439.161.67.161 1.235 0 2.669-1.539 4.644-4.986a46.27 46.27 0 0 1 7.155-1.7c1.734.976 3.868 1.654 5.214 1.654.24 0 .445-.023.613-.067.258-.068.476-.216.608-.415.261-.393.314-.935.244-1.49-.022-.164-.153-.367-.295-.506zM14.908 34.96c.225-.616 1.117-1.834 2.435-2.914.083-.067.287-.259.474-.436-1.379 2.199-2.302 3.075-2.91 3.35zm7.809-17.983c.397 0 .623 1.001.641 1.94.02.938-.2 1.596-.473 2.084-.225-.722-.334-1.859-.334-2.603 0 0-.017-1.42.166-1.42zm-2.33 12.815c.277-.495.565-1.017.859-1.571a29.921 29.921 0 0 0 1.507-3.289c.67 1.22 1.505 2.258 2.487 3.089.123.103.252.208.389.312-1.997.395-3.722.875-5.242 1.459zm12.588-.112c-.121.076-.47.12-.694.12-.723 0-1.618-.331-2.872-.869a18.03 18.03 0 0 1 1.32-.054c.725 0 .94-.003 1.65.178.709.181.718.549.596.625z" fill="#fffcfd" stroke-width=".621"/></svg>