<svg xmlns="http://www.w3.org/2000/svg" xmlns:xlink="http://www.w3.org/1999/xlink" height="48" viewBox="0 0 48 48" width="48"><title>Template icons dark</title><defs><linearGradient id="a"><stop offset="0" stop-color="#496fa4"/><stop offset="1" stop-color="#343b41"/></linearGradient><linearGradient id="b"><stop offset="0" stop-color="#2b84d0"/><stop offset="1" stop-color="#1767a9"/></linearGradient><linearGradient xlink:href="#a" id="d" x1="99.818" y1="164.367" x2="220.995" y2="164.367" gradientUnits="userSpaceOnUse"/><linearGradient xlink:href="#b" id="e" gradientUnits="userSpaceOnUse" x1="115.452" y1="160" x2="204.026" y2="160.174"/><linearGradient id="c"><stop offset="0" stop-color="#fff"/><stop offset="1" stop-color="#fff" stop-opacity="0"/></linearGradient></defs><g color="#000"><path style="isolation:auto;mix-blend-mode:normal;marker:none" d="M192.612 192.612l-44.549 11.936-32.611-32.611 11.936-44.549 44.549-11.936 32.611 32.611z" transform="rotate(45 120.019 -15.773) scale(.50074)" display="block" overflow="visible" fill="url(#d)" stroke-width=".068"/><path transform="rotate(45 92.665 -4.442) scale(.40059)" d="M192.612 192.612l-44.549 11.936-32.611-32.611 11.936-44.549 44.549-11.936 32.611 32.611z" style="isolation:auto;mix-blend-mode:normal;marker:none" display="block" overflow="visible" fill="url(#e)" stroke-width=".068"/><path style="isolation:auto;mix-blend-mode:normal;marker:none" d="M8 33.056V14.58l16-9.238 16 9.238z" display="block" overflow="visible" fill="#fff" fill-opacity=".058" stroke-width=".027"/><path style="isolation:auto;mix-blend-mode:normal;marker:none" d="M24 5.343L8 14.581v2.46L24 7.8l16 9.24v-2.46z" display="block" overflow="visible" fill-opacity=".466" stroke-width=".027"/><path style="isolation:auto;mix-blend-mode:normal;marker:none" d="M8 33.056v.491l16 9.238 16-9.238v-.491l-16 9.238z" display="block" overflow="visible" fill="#faf8fb" fill-opacity=".262" stroke-width=".027"/><path style="isolation:auto;mix-blend-mode:normal;marker:none" d="M24 .724L4 12.271v.492L24 1.216l20 11.547v-.492z" display="block" overflow="visible" fill="#fff" fill-opacity=".267" stroke-width=".034"/><path style="isolation:auto;mix-blend-mode:normal;marker:none" d="M4 35.366v.983l20 11.547L44 36.35v-.983L24 46.913z" display="block" overflow="visible" fill="#131a20" fill-opacity=".092" stroke-width=".086"/><path d="M26.106 15.567c-.137-.052-.255.027-.337.139l-1.266 1.728.013.006a6.64 6.64 0 0 0-1.338.024l-1.353-1.666c-.087-.108-.209-.18-.343-.12l-1.955.868c-.134.06-.16.198-.14.335l.32 2.081a6.64 6.64 0 0 0-.963.992l-2.081-.217c-.138-.013-.276.021-.328.158l-.768 1.997c-.052.137.027.253.139.335l1.65 1.211a6.64 6.64 0 0 0 .03 1.448l-1.587 1.288c-.108.088-.18.21-.121.344l.87 1.954c.058.134.196.161.334.14l1.99-.307a6.64 6.64 0 0 0 1.074 1.026l-.208 2.006c-.014.138.02.276.157.328l1.997.768c.137.052.254-.027.336-.14l1.194-1.628c.49.039.982.023 1.468-.046l1.285 1.582c.087.108.21.18.343.12l1.955-.869c.134-.059.161-.198.14-.335l-.315-2.037c.357-.31.68-.656.964-1.034l2.076.214c.138.014.275-.02.327-.156l.768-1.997c.052-.137-.027-.255-.139-.337l-1.712-1.253a6.639 6.639 0 0 0-.043-1.344l1.662-1.348c.108-.088.18-.21.121-.344l-.87-1.954c-.059-.134-.198-.162-.335-.14L29 19.712l.005.018a6.64 6.64 0 0 0-.971-.923h.005l.222-2.146c.014-.139-.02-.275-.156-.328l-1.998-.768zm-1.378 6.538a2.03 2.03 0 1 1-1.457 3.79 2.03 2.03 0 0 1 1.457-3.79z" style="isolation:auto;mix-blend-mode:normal;marker:none" overflow="visible" fill="none" stroke="#fff" stroke-width=".4" stroke-linecap="square" stroke-linejoin="round" stroke-opacity=".729" paint-order="stroke fill markers"/><path style="isolation:auto;mix-blend-mode:normal;marker:none" d="M34.418 14.019c-.042-.016-.077.008-.102.042l-.384.523.004.002a2.012 2.012 0 0 0-.406.008l-.41-.506c-.026-.032-.063-.054-.104-.036l-.592.263c-.04.018-.049.06-.042.102l.097.63c-.108.09-.206.19-.293.301l-.63-.066c-.042-.004-.084.007-.1.048l-.232.605c-.016.042.008.077.042.102l.5.367a2.01 2.01 0 0 0 .009.439l-.481.39c-.033.027-.055.064-.037.104l.264.593c.018.04.06.049.101.042l.603-.093c.097.115.206.22.326.31l-.063.609c-.005.042.006.084.047.1l.606.232c.041.016.076-.008.101-.042l.362-.494c.149.012.298.007.445-.014l.39.48c.026.033.063.055.104.036l.592-.263c.04-.018.049-.06.043-.102l-.096-.617c.108-.094.206-.199.292-.314l.63.066c.041.004.083-.006.099-.048l.232-.605c.016-.042-.008-.077-.042-.102l-.519-.38c.01-.136.006-.272-.013-.407l.504-.409c.033-.027.055-.063.037-.104l-.264-.592c-.018-.041-.06-.05-.102-.043l-.641.1.001.004a2.012 2.012 0 0 0-.294-.28l.002.001.067-.65c.004-.043-.006-.084-.048-.1l-.605-.233zM34 16a.615.615 0 1 1-.442 1.149A.615.615 0 0 1 34 16zM13.08 28.019c-.042-.016-.078.008-.103.042l-.384.523.004.002a2.012 2.012 0 0 0-.405.008l-.41-.506c-.027-.032-.064-.054-.104-.036l-.593.263c-.04.018-.048.06-.042.102l.097.63c-.108.09-.206.19-.292.301l-.63-.066c-.043-.004-.084.007-.1.048l-.233.605c-.016.042.008.077.042.102l.5.367a2.01 2.01 0 0 0 .01.439l-.482.39c-.032.027-.054.064-.036.104l.263.593c.018.04.06.049.101.042l.604-.093c.096.115.206.22.325.31l-.063.609c-.004.042.006.084.048.1l.605.232c.042.016.077-.008.102-.042l.362-.494c.148.012.297.007.445-.014l.389.48c.027.033.063.055.104.036l.592-.263c.041-.018.05-.06.043-.102l-.096-.617c.109-.094.207-.199.293-.314l.629.066c.042.004.083-.006.099-.048l.233-.605c.015-.042-.008-.077-.042-.102l-.52-.38c.01-.136.006-.272-.012-.407l.504-.409c.032-.027.054-.063.036-.104l-.263-.592c-.018-.041-.06-.05-.102-.043l-.642.1.002.004a2.012 2.012 0 0 0-.295-.28l.002.001.067-.65c.004-.043-.006-.084-.047-.1l-.605-.233zM12.66 30a.615.615 0 1 1-.441 1.149A.615.615 0 0 1 12.66 30z" overflow="visible" fill="none" stroke="#fff" stroke-width=".121" stroke-linecap="square" stroke-linejoin="round" stroke-opacity=".729" paint-order="stroke fill markers"/><circle style="isolation:auto;mix-blend-mode:normal;marker:none" cx="41.963" cy="13.915" r=".962" display="block" overflow="visible" opacity=".456" fill="#fbfcfe" stroke-width=".245" stroke-linejoin="round"/><circle style="isolation:auto;mix-blend-mode:normal;marker:none" cx="5.988" cy="13.619" r=".962" display="block" overflow="visible" opacity=".456" fill="#fbfcfe" stroke-width=".245" stroke-linejoin="round"/><circle r=".962" cy="34.444" cx="5.988" style="isolation:auto;mix-blend-mode:normal;marker:none" display="block" overflow="visible" opacity=".456" fill="#fbfcfe" stroke-width=".245" stroke-linejoin="round"/><circle style="isolation:auto;mix-blend-mode:normal;marker:none" cx="24.05" cy="44.758" r=".962" display="block" overflow="visible" opacity=".456" fill="#fbfcfe" stroke-width=".245" stroke-linejoin="round"/><circle r=".962" cy="34.493" cx="41.667" style="isolation:auto;mix-blend-mode:normal;marker:none" display="block" overflow="visible" opacity=".456" fill="#fbfcfe" stroke-width=".245" stroke-linejoin="round"/><circle r=".962" cy="3.404" cx="24" style="isolation:auto;mix-blend-mode:normal;marker:none" display="block" overflow="visible" opacity=".456" fill="#fbfcfe" stroke-width=".245" stroke-linejoin="round"/></g></svg>