<svg xmlns:osb="http://www.openswatchbook.org/uri/2009/osb" xmlns="http://www.w3.org/2000/svg" xmlns:xlink="http://www.w3.org/1999/xlink" height="48" viewBox="0 0 48 48" width="48"><title>Template icons dark</title><defs><linearGradient id="g" osb:paint="solid"><stop offset="0" stop-opacity=".196"/></linearGradient><linearGradient id="f" osb:paint="solid"><stop offset="0" stop-color="#fff" stop-opacity=".302"/></linearGradient><linearGradient id="e" osb:paint="solid"><stop offset="0" stop-opacity=".009"/></linearGradient><linearGradient id="d" osb:paint="solid"><stop offset="0" stop-opacity=".026"/></linearGradient><linearGradient id="b"><stop offset="0" stop-color="#9af5b5"/><stop offset="1" stop-color="#56ee83"/></linearGradient><linearGradient id="a"><stop offset="0" stop-color="#42ec81"/><stop offset="1" stop-color="#3add5c"/></linearGradient><linearGradient xlink:href="#a" id="j" gradientUnits="userSpaceOnUse" x1="24.117" y1="4.931" x2="24.058" y2="42.556" gradientTransform="matrix(1.11943 0 0 1.12035 -2.944 -2.694)"/><linearGradient xlink:href="#c" id="k" gradientUnits="userSpaceOnUse" gradientTransform="matrix(1.11943 0 0 1.12035 -2.944 -2.694)" x1="26.073" y1="18.962" x2="34.374" y2="10.815"/><linearGradient xlink:href="#b" id="m" gradientUnits="userSpaceOnUse" x1="34.176" y1="10.276" x2="30.758" y2="13.691" gradientTransform="matrix(1.27935 0 0 1.12035 -8.235 -2.817)"/><linearGradient id="c"><stop offset="0" stop-opacity="0"/><stop offset="1" stop-opacity=".102"/></linearGradient><linearGradient xlink:href="#d" id="i" x1="126" y1="161.5" x2="194" y2="161.5" gradientUnits="userSpaceOnUse"/><linearGradient xlink:href="#g" id="l" x1="166" y1="133.472" x2="193" y2="133.472" gradientUnits="userSpaceOnUse"/><linearGradient id="h"><stop offset="0" stop-opacity="0"/><stop offset="1" stop-opacity=".083"/></linearGradient><linearGradient gradientTransform="matrix(.77308 0 0 .75 -90.44 -97.933)" xlink:href="#h" id="n" x1="127" y1="161.5" x2="148.031" y2="161.5" gradientUnits="userSpaceOnUse"/></defs><path d="M6 2h22l13 13v31H6z" style="isolation:auto;mix-blend-mode:normal;marker:none" color="#000" overflow="visible" fill="url(#i)" stroke-width=".852" paint-order="fill markers stroke"/><path style="isolation:auto;mix-blend-mode:normal;marker:none" d="M7 3h21l12 12v30H6.992z" color="#000" overflow="visible" fill="url(#j)" stroke-width=".423" paint-order="fill markers stroke"/><path d="M7 3h21l12 12v30H6.992z" style="isolation:auto;mix-blend-mode:normal;marker:none" color="#000" overflow="visible" fill="url(#k)" stroke-width=".423" paint-order="fill markers stroke"/><path d="M28 3l12 12-14 2z" fill="url(#l)" fill-rule="evenodd" stroke-width="2.195"/><path d="M28 3l12 12H28z" fill="url(#m)" fill-rule="evenodd" stroke-width="1.197"/><path style="isolation:auto;mix-blend-mode:normal;marker:none" d="M6.992 3H24v42H6.992V3z" color="#000" overflow="visible" fill="url(#n)" stroke-width=".631" paint-order="fill markers stroke"/><path style="isolation:auto;mix-blend-mode:normal;marker:none" d="M12.008 40.386l-.004-.908a.611.611 0 0 1 .614-.614h3.909c.34 0 .476.29.477.63l.004.892a.611.611 0 0 1-.614.614H12.62a.613.613 0 0 1-.613-.614z" color="#000" overflow="visible" fill-opacity=".208" stroke-width=".016"/><path style="isolation:auto;mix-blend-mode:normal;marker:none" d="M12 39.386l.004-9.767c0-.34.274-.615.614-.613l3.772.013c.34.001.614.274.614.614l.004 9.753c0 .34-.274.614-.614.614h-3.78a.612.612 0 0 1-.614-.614z" color="#000" overflow="visible" fill="#fff" fill-opacity=".979" stroke-width=".013"/><path style="isolation:auto;mix-blend-mode:normal;marker:none" d="M21.011 40.386l-.007-.853c-.003-.34 0-.669.206-.669h3.907c.34 0 .877.362.887.702l.023.82a.607.607 0 0 1-.614.614h-3.787a.615.615 0 0 1-.615-.614z" color="#000" overflow="visible" fill-opacity=".208" stroke-width=".016"/><path style="isolation:auto;mix-blend-mode:normal;marker:none" d="M21.004 39.355V24.621c0-.34.274-.61.614-.613l3.772-.033a.61.61 0 0 1 .614.614l.023 14.797c0 .34-.274.614-.614.614l-3.813.004c-.34 0-.594-.25-.596-.649z" color="#000" overflow="visible" fill="#fff" fill-opacity=".979" stroke-width=".013"/><path style="isolation:auto;mix-blend-mode:normal;marker:none" d="M29.975 40.386l.029-.908c.01-.34.07-.614.41-.614h3.908c.34 0 .682.307.682.646v.854c0 .34-.274.612-.614.614L30.588 41a.604.604 0 0 1-.613-.614z" color="#000" overflow="visible" fill-opacity=".208" stroke-width=".016"/><path style="isolation:auto;mix-blend-mode:normal;marker:none" d="M30.067 39.386l-.063-19.725a.614.614 0 0 1 .614-.613L34.39 19a.61.61 0 0 1 .614.614v19.772c0 .34-.274.614-.614.614h-3.709a.613.613 0 0 1-.614-.614z" color="#000" overflow="visible" fill="#fafafa" stroke-width=".013"/></svg>