<svg xmlns:osb="http://www.openswatchbook.org/uri/2009/osb" xmlns="http://www.w3.org/2000/svg" xmlns:xlink="http://www.w3.org/1999/xlink" height="48" viewBox="0 0 48 48" width="48" enable-background="new"><title>Template icons dark</title><defs><linearGradient id="g" osb:paint="solid"><stop offset="0" stop-opacity=".196"/></linearGradient><linearGradient id="f" osb:paint="solid"><stop offset="0" stop-color="#fff" stop-opacity=".469"/></linearGradient><linearGradient id="e" osb:paint="solid"><stop offset="0" stop-opacity=".009"/></linearGradient><linearGradient id="d" osb:paint="solid"><stop offset="0" stop-opacity=".022"/></linearGradient><linearGradient id="b"><stop offset="0" stop-color="#92cbd1"/><stop offset="1" stop-color="#41bda9"/></linearGradient><linearGradient id="a"><stop offset="0" stop-color="#44e9b3"/><stop offset="1" stop-color="#43a8ce"/></linearGradient><linearGradient xlink:href="#a" id="i" gradientUnits="userSpaceOnUse" x1="24.117" y1="4.931" x2="24.058" y2="42.556" gradientTransform="matrix(1.11943 0 0 1.12035 -2.944 -2.694)"/><linearGradient xlink:href="#c" id="j" gradientUnits="userSpaceOnUse" gradientTransform="matrix(1.11943 0 0 1.12035 -2.944 -2.694)" x1="26.073" y1="18.962" x2="34.374" y2="10.815"/><linearGradient xlink:href="#b" id="l" gradientUnits="userSpaceOnUse" x1="34.176" y1="10.276" x2="30.758" y2="13.691" gradientTransform="matrix(1.27935 0 0 1.12035 -8.235 -2.817)"/><linearGradient id="c"><stop offset="0" stop-opacity="0"/><stop offset="1" stop-opacity=".102"/></linearGradient><linearGradient xlink:href="#d" id="h" x1="126" y1="161.5" x2="194" y2="161.5" gradientUnits="userSpaceOnUse"/><linearGradient xlink:href="#g" id="k" x1="166" y1="133.472" x2="193" y2="133.472" gradientUnits="userSpaceOnUse"/><filter id="m" x="-.037" width="1.074" y="-.163" height="1.327" color-interpolation-filters="sRGB"><feGaussianBlur stdDeviation=".491"/></filter><filter id="n" x="-.026" width="1.052" y="-.302" height="1.604" color-interpolation-filters="sRGB"><feGaussianBlur stdDeviation=".332"/></filter></defs><path d="M6 2h22l13 13v31H6z" style="isolation:auto;mix-blend-mode:normal;marker:none" color="#000" overflow="visible" fill="url(#h)" stroke-width=".852" paint-order="fill markers stroke" enable-background="accumulate"/><path style="isolation:auto;mix-blend-mode:normal;marker:none" d="M7 3h21l12 12v30H6.992z" color="#000" overflow="visible" fill="url(#i)" stroke-width=".423" paint-order="fill markers stroke" enable-background="accumulate"/><path d="M7 3h21l12 12v30H6.992z" style="isolation:auto;mix-blend-mode:normal;marker:none" color="#000" overflow="visible" fill="url(#j)" stroke-width=".423" paint-order="fill markers stroke" enable-background="accumulate"/><path d="M28 3l12 12-14 2z" fill="url(#k)" fill-rule="evenodd" stroke-width="2.195"/><path d="M28 3l12 12H28z" fill="url(#l)" fill-rule="evenodd" stroke-width="1.197"/><path d="M7.16 26.621s4.104-4.484 8.21-4.484c4.105 0 12.315 7.393 16.42 7.393 4.106 0 8.21-2.909 8.21-2.909" fill="none" fill-rule="evenodd" stroke="#fff" stroke-width=".819" stroke-opacity=".578"/><path d="M7.656 28.99s10.794-5.785 16.257-5.421c5.462.363 7.964 6.286 10.579 6.226 2.614-.06 4.44-1.957 4.44-1.957" fill="none" fill-rule="evenodd" stroke="#fff" stroke-width=".819" stroke-opacity=".578"/><path d="M7.656 28.99s17.293-5.937 21.71-4.937c4.417 1 4.223 3.116 9.567 3.785" fill="none" fill-rule="evenodd" stroke="#fff" stroke-width=".819" stroke-opacity=".578"/><path d="M7.656 30.057s5.76-2.216 10.593-2.068c4.833.148 14.661 7.45 21.143 1.135" fill="none" fill-rule="evenodd" stroke="#fff" stroke-width=".819" stroke-opacity=".578"/><path d="M7.93 26.772s4.01-4.38 8.02-4.38c4.009 0 12.028 7.22 16.037 7.22 4.01 0 8.02-2.84 8.02-2.84" fill="none" fill-rule="evenodd" stroke="#fff" stroke-width=".8" filter="url(#m)"/><path d="M8.416 30.128s5.755-2.338 10.475-2.193c4.72.144 15.012 7.535 20.261 1.714" transform="translate(-.96 -.79) scale(1.02388)" fill="none" fill-rule="evenodd" stroke="#fff" stroke-width=".8" stroke-opacity=".943" filter="url(#n)"/></svg>