<svg xmlns:osb="http://www.openswatchbook.org/uri/2009/osb" xmlns="http://www.w3.org/2000/svg" xmlns:xlink="http://www.w3.org/1999/xlink" height="48" viewBox="0 0 48 48" width="48"><title>Template icons dark</title><defs><linearGradient id="g" osb:paint="solid"><stop offset="0" stop-opacity=".196"/></linearGradient><linearGradient id="f" osb:paint="solid"><stop offset="0" stop-color="#fff" stop-opacity=".782"/></linearGradient><linearGradient id="e" osb:paint="solid"><stop offset="0" stop-opacity="0"/></linearGradient><linearGradient id="d" osb:paint="solid"><stop offset="0" stop-opacity=".157"/></linearGradient><linearGradient id="b"><stop offset="0" stop-color="#fff"/><stop offset="1" stop-color="#dfdfdf"/></linearGradient><linearGradient id="a"><stop offset="0" stop-color="#f0f0f0"/><stop offset="1" stop-color="#fff"/></linearGradient><linearGradient xlink:href="#a" id="j" gradientUnits="userSpaceOnUse" x1="24.117" y1="4.931" x2="24.058" y2="42.556" gradientTransform="matrix(1.11943 0 0 1.12035 -2.944 -2.694)"/><linearGradient xlink:href="#c" id="k" gradientUnits="userSpaceOnUse" gradientTransform="matrix(1.11943 0 0 1.12035 -2.944 -2.694)" x1="26.073" y1="18.962" x2="34.374" y2="10.815"/><linearGradient xlink:href="#b" id="m" gradientUnits="userSpaceOnUse" x1="34.176" y1="10.276" x2="30.758" y2="13.691" gradientTransform="matrix(1.27935 0 0 1.12035 -8.235 -2.817)"/><linearGradient id="c"><stop offset="0" stop-opacity="0"/><stop offset="1" stop-opacity=".038"/></linearGradient><linearGradient xlink:href="#d" id="i" x1="126" y1="161.5" x2="194" y2="161.5" gradientUnits="userSpaceOnUse"/><linearGradient xlink:href="#g" id="l" x1="166" y1="133.472" x2="193" y2="133.472" gradientUnits="userSpaceOnUse"/><linearGradient id="h" osb:paint="solid"><stop offset="0" stop-opacity=".084"/></linearGradient><linearGradient gradientTransform="matrix(.50032 0 0 .50586 -56.547 -57.712)" xlink:href="#h" id="n" gradientUnits="userSpaceOnUse" x1="188" y1="173.5" x2="189" y2="173.5"/></defs><path d="M6 2h22l13 13v31H6z" style="isolation:auto;mix-blend-mode:normal;marker:none" color="#000" overflow="visible" fill="url(#i)" stroke-width=".852" paint-order="fill markers stroke"/><path style="isolation:auto;mix-blend-mode:normal;marker:none" d="M7 3h21l12 12v30H6.992z" color="#000" overflow="visible" fill="url(#j)" stroke-width=".423" paint-order="fill markers stroke"/><path d="M7 3h21l12 12v30H6.992z" style="isolation:auto;mix-blend-mode:normal;marker:none" color="#000" overflow="visible" fill="url(#k)" stroke-width=".423" paint-order="fill markers stroke"/><path d="M28 3l12 12-14 2z" fill="url(#l)" fill-rule="evenodd" stroke-width="2.195"/><path d="M28 3l12 12H28z" fill="url(#m)" fill-rule="evenodd" stroke-width="1.197"/><path style="isolation:auto;mix-blend-mode:normal;marker:none" d="M7.494 2.992V4.51h-.5v.505h.5v1.518h-.5v.506h.5v1.517h-.5v.506h.5v1.518h-.5v.506h.5v1.517h-.5v.506h.5v1.518h-.5v.506h.5v1.517h-.5v.506h.5v1.518h-.5v.506h.5v1.517h-.5v.506h.5v1.518h-.5v.505h.5v1.518h-.5v.506h.5v1.518h-.5v.505h.5v1.518h-.5v.506h.5v1.517h-.5v.506h.5v1.518h-.5v.506h.5v1.517h-.5v.506h.5v1.518h-.5v.506h.5v1.517h-.5v.506h.5v1.518h-.5v.506h.5v1.517h-.5v.506h.5v1.518h.5V43.46h1.5v1.518h.501V43.46h1.501v1.518h.5V43.46h1.501v1.518h.5V43.46H15.5v1.518h.5V43.46h1.5v1.518H18V43.46h1.501v1.518h.5V43.46h1.501v1.518h.5V43.46h1.502v1.518h.5V43.46h1.501v1.518h.5V43.46h1.501v1.518h.5V43.46h1.502v1.518h.5V43.46h1.5v1.518h.501V43.46h1.501v1.47h.5v-1.47h1.501v1.518h.5V43.46h1.502v1.518h.5V43.46h2.001v-.506h-2.001v-1.517h2.001v-.506h-2.001v-1.518h2.001v-.506h-2.001v-1.517h2.001v-.506h-2.001v-1.518h2.001v-.506h-2.001v-1.517h2.001v-.506h-2.001V31.32h2.001v-.506h-2.001v-1.517h2.001v-.506h-2.001v-1.518h2.001v-.505h-2.001V25.25h2.001v-.506h-2.001v-1.518h2.001v-.505h-2.001v-1.518h2.001v-.506h-2.001V19.18h2.001v-.506h-2.001v-1.518h2.001v-.506h-2.001v-1.517h-.5v1.517h-1.501v-1.517h-.5v1.517H34.01v-1.565h-.5v1.565h-1.5v-1.517h-.501v1.517h-1.501v-1.517h-.5v1.517h-1.501V2.992h-.5V4.51h-1.502V2.992h-.5V4.51h-1.5V2.992h-.501V4.51h-1.501V2.992h-.5V4.51h-1.501V2.992h-.5V4.51H18V2.992h-.5V4.51h-1.501V2.992h-.5V4.51h-1.501V2.992h-.5V4.51h-1.502V2.992h-.5V4.51h-1.5V2.992h-.501V4.51H7.994V2.992zm.5 2.023h1.5v1.518h-1.5zm2.001 0h1.501v1.518h-1.5zm2.001 0h1.501v1.518h-1.5zm2.002 0h1.5v1.518h-1.5zm2.001 0h1.5v1.518H16zm2.001 0h1.501v1.518h-1.5zm2.002 0h1.5v1.518h-1.5zm2 0h1.502v1.518h-1.501zm2.002 0h1.501v1.518h-1.5zm2.001 0h1.501v1.518h-1.5zM7.994 7.04h1.5v1.517h-1.5zm2.001 0h1.501v1.517h-1.5zm2.001 0h1.501v1.517h-1.5zm2.002 0h1.5v1.517h-1.5zm2.001 0h1.5v1.517H16zm2.001 0h1.501v1.517h-1.5zm2.002 0h1.5v1.517h-1.5zm2 0h1.502v1.517h-1.501zm2.002 0h1.501v1.517h-1.5zm2.001 0h1.501v1.517h-1.5zM7.994 9.062h1.5v1.518h-1.5zm2.001 0h1.501v1.518h-1.5zm2.001 0h1.501v1.518h-1.5zm2.002 0h1.5v1.518h-1.5zm2.001 0h1.5v1.518H16zm2.001 0h1.501v1.518h-1.5zm2.002 0h1.5v1.518h-1.5zm2 0h1.502v1.518h-1.501zm2.002 0h1.501v1.518h-1.5zm2.001 0h1.501v1.518h-1.5zM7.994 11.086h1.5v1.517h-1.5zm2.001 0h1.501v1.517h-1.5zm2.001 0h1.501v1.517h-1.5zm2.002 0h1.5v1.517h-1.5zm2.001 0h1.5v1.517H16zm2.001 0h1.501v1.517h-1.5zm2.002 0h1.5v1.517h-1.5zm2 0h1.502v1.517h-1.501zm2.002 0h1.501v1.517h-1.5zm2.001 0h1.501v1.517h-1.5zM7.994 13.109h1.5v1.518h-1.5zm2.001 0h1.501v1.518h-1.5zm2.001 0h1.501v1.518h-1.5zm2.002 0h1.5v1.518h-1.5zm2.001 0h1.5v1.518H16zm2.001 0h1.501v1.518h-1.5zm2.002 0h1.5v1.518h-1.5zm2 0h1.502v1.518h-1.501zm2.002 0h1.501v1.518h-1.5zm2.001 0h1.501v1.518h-1.5zM7.994 15.133h1.5v1.517h-1.5zm2.001 0h1.501v1.517h-1.5zm2.001 0h1.501v1.517h-1.5zm2.002 0h1.5v1.517h-1.5zm2.001 0h1.5v1.517H16zm2.001 0h1.501v1.517h-1.5zm2.002 0h1.5v1.517h-1.5zm2 0h1.502v1.517h-1.501zm2.002 0h1.501v1.517h-1.5zm2.001 0h1.501v1.517h-1.5zM7.994 17.156h1.5v1.518h-1.5zm2.001 0h1.501v1.518h-1.5zm2.001 0h1.501v1.518h-1.5zm2.002 0h1.5v1.518h-1.5zm2.001 0h1.5v1.518H16zm2.001 0h1.501v1.518h-1.5zm2.002 0h1.5v1.518h-1.5zm2 0h1.502v1.518h-1.501zm2.002 0h1.501v1.518h-1.5zm2.001 0h1.501v1.518h-1.5zm2.002 0h1.5v1.518h-1.5zm2 0h1.502v1.518h-1.501zm2.002 0h1.501v1.518h-1.5zm2.001 0h1.501v1.518h-1.5zm2.002 0h1.5v1.518h-1.5zM7.994 19.18h1.5v1.517h-1.5zm2.001 0h1.501v1.517h-1.5zm2.001 0h1.501v1.517h-1.5zm2.002 0h1.5v1.517h-1.5zm2.001 0h1.5v1.517H16zm2.001 0h1.501v1.517h-1.5zm2.002 0h1.5v1.517h-1.5zm2 0h1.502v1.517h-1.501zm2.002 0h1.501v1.517h-1.5zm2.001 0h1.501v1.517h-1.5zm2.002 0h1.5v1.517h-1.5zm2 0h1.502v1.517h-1.501zm2.002 0h1.501v1.517h-1.5zm2.001 0h1.501v1.517h-1.5zm2.002 0h1.5v1.517h-1.5zM7.994 21.203h1.5v1.518h-1.5zm2.001 0h1.501v1.518h-1.5zm2.001 0h1.501v1.518h-1.5zm2.002 0h1.5v1.518h-1.5zm2.001 0h1.5v1.518H16zm2.001 0h1.501v1.518h-1.5zm2.002 0h1.5v1.518h-1.5zm2 0h1.502v1.518h-1.501zm2.002 0h1.501v1.518h-1.5zm2.001 0h1.501v1.518h-1.5zm2.002 0h1.5v1.518h-1.5zm2 0h1.502v1.518h-1.501zm2.002 0h1.501v1.518h-1.5zm2.001 0h1.501v1.518h-1.5zm2.002 0h1.5v1.518h-1.5zM7.994 23.226h1.5v1.518h-1.5zm2.001 0h1.501v1.518h-1.5zm2.001 0h1.501v1.518h-1.5zm2.002 0h1.5v1.518h-1.5zm2.001 0h1.5v1.518H16zm2.001 0h1.501v1.518h-1.5zm2.002 0h1.5v1.518h-1.5zm2 0h1.502v1.518h-1.501zm2.002 0h1.501v1.518h-1.5zm2.001 0h1.501v1.518h-1.5zm2.002 0h1.5v1.518h-1.5zm2 0h1.502v1.518h-1.501zm2.002 0h1.501v1.518h-1.5zm2.001 0h1.501v1.518h-1.5zm2.002 0h1.5v1.518h-1.5zM7.994 25.25h1.5v1.518h-1.5zm2.001 0h1.501v1.518h-1.5zm2.001 0h1.501v1.518h-1.5zm2.002 0h1.5v1.518h-1.5zm2.001 0h1.5v1.518H16zm2.001 0h1.501v1.518h-1.5zm2.002 0h1.5v1.518h-1.5zm2 0h1.502v1.518h-1.501zm2.002 0h1.501v1.518h-1.5zm2.001 0h1.501v1.518h-1.5zm2.002 0h1.5v1.518h-1.5zm2 0h1.502v1.518h-1.501zm2.002 0h1.501v1.518h-1.5zm2.001 0h1.501v1.518h-1.5zm2.002 0h1.5v1.518h-1.5zM7.994 27.273h1.5v1.518h-1.5zm2.001 0h1.501v1.518h-1.5zm2.001 0h1.501v1.518h-1.5zm2.002 0h1.5v1.518h-1.5zm2.001 0h1.5v1.518H16zm2.001 0h1.501v1.518h-1.5zm2.002 0h1.5v1.518h-1.5zm2 0h1.502v1.518h-1.501zm2.002 0h1.501v1.518h-1.5zm2.001 0h1.501v1.518h-1.5zm2.002 0h1.5v1.518h-1.5zm2 0h1.502v1.518h-1.501zm2.002 0h1.501v1.518h-1.5zm2.001 0h1.501v1.518h-1.5zm2.002 0h1.5v1.518h-1.5zM7.994 29.297h1.5v1.517h-1.5zm2.001 0h1.501v1.517h-1.5zm2.001 0h1.501v1.517h-1.5zm2.002 0h1.5v1.517h-1.5zm2.001 0h1.5v1.517H16zm2.001 0h1.501v1.517h-1.5zm2.002 0h1.5v1.517h-1.5zm2 0h1.502v1.517h-1.501zm2.002 0h1.501v1.517h-1.5zm2.001 0h1.501v1.517h-1.5zm2.002 0h1.5v1.517h-1.5zm2 0h1.502v1.517h-1.501zm2.002 0h1.501v1.517h-1.5zm2.001 0h1.501v1.517h-1.5zm2.002 0h1.5v1.517h-1.5zM7.994 31.32h1.5v1.518h-1.5zm2.001 0h1.501v1.518h-1.5zm2.001 0h1.501v1.518h-1.5zm2.002 0h1.5v1.518h-1.5zm2.001 0h1.5v1.518H16zm2.001 0h1.501v1.518h-1.5zm2.002 0h1.5v1.518h-1.5zm2 0h1.502v1.518h-1.501zm2.002 0h1.501v1.518h-1.5zm2.001 0h1.501v1.518h-1.5zm2.002 0h1.5v1.518h-1.5zm2 0h1.502v1.518h-1.501zm2.002 0h1.501v1.518h-1.5zm2.001 0h1.501v1.518h-1.5zm2.002 0h1.5v1.518h-1.5zM7.994 33.344h1.5v1.517h-1.5zm2.001 0h1.501v1.517h-1.5zm2.001 0h1.501v1.517h-1.5zm2.002 0h1.5v1.517h-1.5zm2.001 0h1.5v1.517H16zm2.001 0h1.501v1.517h-1.5zm2.002 0h1.5v1.517h-1.5zm2 0h1.502v1.517h-1.501zm2.002 0h1.501v1.517h-1.5zm2.001 0h1.501v1.517h-1.5zm2.002 0h1.5v1.517h-1.5zm2 0h1.502v1.517h-1.501zm2.002 0h1.501v1.517h-1.5zm2.001 0h1.501v1.517h-1.5zm2.002 0h1.5v1.517h-1.5zM7.994 35.367h1.5v1.518h-1.5zm2.001 0h1.501v1.518h-1.5zm2.001 0h1.501v1.518h-1.5zm2.002 0h1.5v1.518h-1.5zm2.001 0h1.5v1.518H16zm2.001 0h1.501v1.518h-1.5zm2.002 0h1.5v1.518h-1.5zm2 0h1.502v1.518h-1.501zm2.002 0h1.501v1.518h-1.5zm2.001 0h1.501v1.518h-1.5zm2.002 0h1.5v1.518h-1.5zm2 0h1.502v1.518h-1.501zm2.002 0h1.501v1.518h-1.5zm2.001 0h1.501v1.518h-1.5zm2.002 0h1.5v1.518h-1.5zM7.994 37.391h1.5v1.517h-1.5zm2.001 0h1.501v1.517h-1.5zm2.001 0h1.501v1.517h-1.5zm2.002 0h1.5v1.517h-1.5zm2.001 0h1.5v1.517H16zm2.001 0h1.501v1.517h-1.5zm2.002 0h1.5v1.517h-1.5zm2 0h1.502v1.517h-1.501zm2.002 0h1.501v1.517h-1.5zm2.001 0h1.501v1.517h-1.5zm2.002 0h1.5v1.517h-1.5zm2 0h1.502v1.517h-1.501zm2.002 0h1.501v1.517h-1.5zm2.001 0h1.501v1.517h-1.5zm2.002 0h1.5v1.517h-1.5zM7.994 39.414h1.5v1.518h-1.5zm2.001 0h1.501v1.518h-1.5zm2.001 0h1.501v1.518h-1.5zm2.002 0h1.5v1.518h-1.5zm2.001 0h1.5v1.518H16zm2.001 0h1.501v1.518h-1.5zm2.002 0h1.5v1.518h-1.5zm2 0h1.502v1.518h-1.501zm2.002 0h1.501v1.518h-1.5zm2.001 0h1.501v1.518h-1.5zm2.002 0h1.5v1.518h-1.5zm2 0h1.502v1.518h-1.501zm2.002 0h1.501v1.518h-1.5zm2.001 0h1.501v1.518h-1.5zm2.002 0h1.5v1.518h-1.5zM7.994 41.438h1.5v1.517h-1.5zm2.001 0h1.501v1.517h-1.5zm2.001 0h1.501v1.517h-1.5zm2.002 0h1.5v1.517h-1.5zm2.001 0h1.5v1.517H16zm2.001 0h1.501v1.517h-1.5zm2.002 0h1.5v1.517h-1.5zm2 0h1.502v1.517h-1.501zm2.002 0h1.501v1.517h-1.5zm2.001 0h1.501v1.517h-1.5zm2.002 0h1.5v1.517h-1.5zm2 0h1.502v1.517h-1.501zm2.002 0h1.501v1.517h-1.5zm2.001 0h1.501v1.517h-1.5zm2.002 0h1.5v1.517h-1.5z" color="#000" overflow="visible" opacity=".4" fill="url(#n)" stroke-width=".423" stroke-opacity=".344" paint-order="fill markers stroke"/><path style="line-height:1000%" d="M24.35 26.8q-2.905 0-4.026.664-1.12.664-1.12 2.267 0 1.277.834 2.032.846.743 2.293.743 1.993 0 3.192-1.407 1.212-1.42 1.212-3.765v-.535zm4.782-.99v8.325h-2.397V31.92q-.821 1.329-2.046 1.967-1.225.626-2.997.626-2.24 0-3.57-1.251-1.316-1.264-1.316-3.375 0-2.462 1.642-3.713 1.655-1.25 4.925-1.25h3.362v-.235q0-1.655-1.095-2.554-1.081-.912-3.049-.912-1.25 0-2.436.3t-2.28.899v-2.215q1.316-.508 2.553-.756 1.238-.26 2.41-.26 3.167 0 4.73 1.641 1.564 1.642 1.564 4.977z" font-size="53.333" font-family="sans-serif" letter-spacing="0" word-spacing="0" fill="#6399d6" fill-opacity=".63" stroke="#82a9e5" stroke-width=".3" stroke-opacity=".995"/><path style="line-height:normal;font-variant-ligatures:normal;font-variant-position:normal;font-variant-caps:normal;font-variant-numeric:normal;font-variant-alternates:normal;font-feature-settings:normal;text-indent:0;text-align:start;text-decoration-line:none;text-decoration-style:solid;text-decoration-color:#000;text-transform:none;text-orientation:mixed;shape-padding:0;isolation:auto;mix-blend-mode:normal" d="M18.215 15.208a.924.924 0 0 0-.14.011c-.05.008-.102.02-.159.036v.133c.056-.018.108-.033.155-.042a.698.698 0 0 1 .132-.012c.075 0 .132.015.172.046.04.03.06.073.06.13a.15.15 0 0 1-.058.127.28.28 0 0 1-.169.044h-.134v.123h.129c.081 0 .144.018.19.055.045.037.068.088.068.153a.19.19 0 0 1-.074.161.35.35 0 0 1-.214.056.627.627 0 0 1-.154-.019.522.522 0 0 1-.137-.054v.143a1.014 1.014 0 0 0 .296.056c.138 0 .245-.03.32-.09a.305.305 0 0 0 .112-.253.271.271 0 0 0-.06-.18.285.285 0 0 0-.168-.095.276.276 0 0 0 .15-.088.236.236 0 0 0 .053-.155.251.251 0 0 0-.1-.21.426.426 0 0 0-.27-.076zm1.052.02l-.46.7v.144h.499v.261h.148v-.26h.158v-.125h-.158v-.72zm.039.13v.59h-.378zM15.999 16.5v2.002h.5V16.5zm6.004 0v2.002h.5V16.5zM17 17.501v.5h4.471v-.5zm13.508 3.002v.5h2.502v-.5zm1 .943v12.566h.501V21.446zm3.592 5.557a.321.321 0 0 0-.284.148c-.066.098-.098.24-.098.426s.032.329.098.427c.065.098.16.146.284.146a.32.32 0 0 0 .283-.146c.066-.098.099-.241.099-.427 0-.187-.033-.329-.099-.426a.32.32 0 0 0-.283-.148zm.915 0a.623.623 0 0 0-.144.019c-.052.012-.109.03-.17.054v.152a.903.903 0 0 1 .168-.074.5.5 0 0 1 .149-.025.23.23 0 0 1 .16.056.184.184 0 0 1 .062.144c0 .036-.01.073-.029.11a.688.688 0 0 1-.1.136 6.03 6.03 0 0 1-.184.191 30.65 30.65 0 0 0-.233.237v.126h.703v-.126h-.522l.28-.286.117-.126a.619.619 0 0 0 .092-.143.328.328 0 0 0 .027-.13.285.285 0 0 0-.103-.229.411.411 0 0 0-.273-.086zm-1.931.02l-.265.053v.137l.266-.053v.843h-.245v.126h.637v-.126h-.244v-.98zm1.016.098c.077 0 .135.039.174.115a.77.77 0 0 1 .059.34c0 .152-.02.267-.06.343-.038.075-.096.113-.173.113-.077 0-.135-.038-.174-.113a.786.786 0 0 1-.058-.342c0-.152.02-.266.058-.341.039-.076.097-.115.174-.115zm-4.592 7.39v.501h2.502v-.5zm-15.221 1.276v2.001h.5v-2zm14.465 0v2.001h.5v-2zm-13.253.726v.5h12.566v-.5zm6.496 1.468a.629.629 0 0 0-.144.018 1.19 1.19 0 0 0-.17.055v.152a.901.901 0 0 1 .168-.075.5.5 0 0 1 .149-.024c.066 0 .12.019.16.056a.183.183 0 0 1 .062.143c0 .036-.009.073-.028.11a.7.7 0 0 1-.1.137 5.65 5.65 0 0 1-.185.192l-.232.236v.126h.702v-.126h-.522l.28-.287.118-.124a.618.618 0 0 0 .092-.144.332.332 0 0 0 .026-.13.284.284 0 0 0-.102-.23.414.414 0 0 0-.274-.085zm-.966.02l-.264.053v.137l.266-.054v.844h-.244v.126h.636v-.126h-.244V38zm1.664 0v.555a.625.625 0 0 1 .242-.054.29.29 0 0 1 .202.067c.05.045.075.106.075.183a.234.234 0 0 1-.075.183.29.29 0 0 1-.202.067.616.616 0 0 1-.289-.071v.15c.052.016.101.027.149.035a.887.887 0 0 0 .143.012.455.455 0 0 0 .312-.099.353.353 0 0 0 .112-.277.359.359 0 0 0-.109-.275.411.411 0 0 0-.293-.101.36.36 0 0 0-.13.022v-.27h.45V38z" color="#000" font-weight="400" font-family="sans-serif" white-space="normal" overflow="visible" fill="#83a9e5" fill-rule="evenodd" stroke-width=".5"/></svg>