<svg xmlns:osb="http://www.openswatchbook.org/uri/2009/osb" xmlns="http://www.w3.org/2000/svg" xmlns:xlink="http://www.w3.org/1999/xlink" height="48" viewBox="0 0 48 48" width="48"><title>Template icons dark</title><defs><linearGradient id="l"><stop offset="0" stop-color="#fe7dee"/><stop offset="1" stop-color="#5390fe"/></linearGradient><linearGradient id="g" osb:paint="solid"><stop offset="0" stop-opacity=".196"/></linearGradient><linearGradient id="f" osb:paint="solid"><stop offset="0" stop-color="#fff" stop-opacity=".782"/></linearGradient><linearGradient id="e" osb:paint="solid"><stop offset="0" stop-opacity=".018"/></linearGradient><linearGradient id="d" osb:paint="solid"><stop offset="0" stop-opacity=".157"/></linearGradient><linearGradient id="b"><stop offset="0" stop-color="#fff"/><stop offset="1" stop-color="#dfdfdf"/></linearGradient><linearGradient id="a"><stop offset="0" stop-color="#f0f0f0"/><stop offset="1" stop-color="#fff"/></linearGradient><linearGradient xlink:href="#a" id="n" gradientUnits="userSpaceOnUse" x1="24.117" y1="4.931" x2="24.058" y2="42.556" gradientTransform="matrix(1.11943 0 0 1.12035 -2.944 -2.694)"/><linearGradient xlink:href="#c" id="o" gradientUnits="userSpaceOnUse" gradientTransform="matrix(1.11943 0 0 1.12035 -2.944 -2.694)" x1="26.073" y1="18.962" x2="34.374" y2="10.815"/><linearGradient xlink:href="#b" id="r" gradientUnits="userSpaceOnUse" x1="34.176" y1="10.276" x2="30.758" y2="13.691" gradientTransform="matrix(1.27935 0 0 1.12035 -8.235 -2.817)"/><linearGradient id="c"><stop offset="0" stop-opacity="0"/><stop offset="1" stop-opacity=".022"/></linearGradient><linearGradient xlink:href="#d" id="m" x1="126" y1="161.5" x2="194" y2="161.5" gradientUnits="userSpaceOnUse"/><linearGradient xlink:href="#g" id="q" x1="166" y1="133.472" x2="193" y2="133.472" gradientUnits="userSpaceOnUse"/><linearGradient id="k"><stop offset="0" stop-color="#f598f8"/><stop offset="1" stop-color="#398bef"/></linearGradient><linearGradient id="h"><stop offset="0" stop-color="#d7d7d7" stop-opacity=".231"/><stop offset=".146" stop-opacity=".199"/><stop offset=".456" stop-color="#fff" stop-opacity=".251"/><stop offset=".66" stop-opacity=".131"/><stop offset=".834" stop-color="#a2a2a2" stop-opacity=".161"/><stop offset="1" stop-opacity=".152"/></linearGradient><linearGradient id="i"><stop offset="0" stop-color="#d7d7d7" stop-opacity=".231"/><stop offset=".231" stop-opacity=".11"/><stop offset=".472" stop-color="#fff" stop-opacity=".147"/><stop offset=".717" stop-opacity=".131"/><stop offset=".834" stop-color="#a2a2a2" stop-opacity=".161"/><stop offset="1" stop-opacity=".152"/></linearGradient><linearGradient id="j"><stop offset="0" stop-color="#d7d7d7" stop-opacity=".231"/><stop offset=".146" stop-opacity=".257"/><stop offset=".456" stop-color="#fff" stop-opacity=".251"/><stop offset=".66" stop-opacity=".131"/><stop offset=".834" stop-color="#a2a2a2" stop-opacity=".161"/><stop offset="1" stop-opacity=".152"/></linearGradient><linearGradient xlink:href="#k" id="p" x1="23.375" y1="41.2" x2="23.566" y2="13.14" gradientUnits="userSpaceOnUse" gradientTransform="matrix(.63547 0 0 1.21128 8.248 -10.022)"/></defs><path d="M6 2h22l13 13v31H6z" style="isolation:auto;mix-blend-mode:normal;marker:none" color="#000" overflow="visible" fill="url(#m)" stroke-width=".852" paint-order="fill markers stroke"/><path style="isolation:auto;mix-blend-mode:normal;marker:none" d="M7 3h21l12 12v30H6.992z" color="#000" overflow="visible" fill="url(#n)" stroke-width=".423" paint-order="fill markers stroke"/><path d="M7 3h21l12 12v30H6.992z" style="isolation:auto;mix-blend-mode:normal;marker:none" color="#000" overflow="visible" fill="url(#o)" stroke-width=".423" paint-order="fill markers stroke"/><path style="isolation:auto;mix-blend-mode:normal;marker:none" d="M10 6h20.093l6.905 6.902v29.097H10z" color="#000" overflow="visible" fill="url(#p)" stroke-width=".805"/><path d="M28 3l12 12-14 2z" fill="url(#q)" fill-rule="evenodd" stroke-width="2.195"/><path d="M28 3l12 12H28z" fill="url(#r)" fill-rule="evenodd" stroke-width="1.197"/><path style="isolation:auto;mix-blend-mode:normal;marker:none" d="M17.498 28.54l18.09 13.61H9.962v-5.545z" color="#000" overflow="visible" fill="#fff" fill-opacity=".414" stroke-width=".308" stroke-opacity=".168" paint-order="markers stroke fill"/><path d="M29.558 26.523l7.538 6.049v9.577H13.478z" style="isolation:auto;mix-blend-mode:normal;marker:none" color="#000" overflow="visible" fill="#fff" stroke-width=".308" stroke-opacity=".168" paint-order="markers stroke fill"/><path style="isolation:auto;mix-blend-mode:normal;marker:none" d="M20.817 11.196l.177.507-.538-.015.527.1-.281.46.348-.407.258.474-.177-.506.538.014-.527-.1.281-.46-.348.407zm6.016.355l.177.506-.538-.013.526.098-.28.462.348-.409.258.474-.177-.506.538.014-.527-.099.281-.461-.35.408zm5.909.71l.177.507-.538-.014.527.1-.281.46.35-.408.256.474-.177-.506.538.012-.526-.098.28-.46-.348.407zm3.255.106l.179.507-.538-.014.525.1-.281.46.35-.408.256.474-.177-.506.538.014-.526-.1.28-.46-.348.407zm-24.202.394l.503 1.438-1.526-.037 1.494.28-.798 1.309.99-1.157.73 1.345-.504-1.439 1.528.039-1.494-.28.797-1.309-.99 1.157zm7.5 1.06l.179.507-.538-.012.525.098-.281.46.35-.407.256.474-.177-.506.538.014-.525-.1.28-.46-.349.407zm6.747.932l-3.618 3.427c-1.161.703-.322 1.106.168.105l3.5-3.48zm.231 1.82l-3.617 3.428c-1.044 1.045-.238.822.168.105l3.499-3.48z" color="#000" display="block" overflow="visible" fill="#fff" fill-opacity=".435" stroke-width=".473"/></svg>