<svg xmlns:osb="http://www.openswatchbook.org/uri/2009/osb" xmlns="http://www.w3.org/2000/svg" xmlns:xlink="http://www.w3.org/1999/xlink" height="48" viewBox="0 0 48 48" width="48"><title>Template icons dark</title><defs><linearGradient id="q" osb:paint="solid"><stop offset="0"/></linearGradient><linearGradient id="m"><stop offset="0" stop-color="#707070"/><stop offset="1" stop-color="#fff"/></linearGradient><linearGradient id="l"><stop offset="0" stop-color="#c1c1c1"/><stop offset="1" stop-color="#9f9f9f"/></linearGradient><linearGradient id="j"><stop offset="0" stop-color="#dfdfdf"/><stop offset=".489" stop-color="#aeaeae" stop-opacity=".459"/><stop offset="1" stop-color="#dfdfdf"/></linearGradient><linearGradient id="h" osb:paint="solid"><stop offset="0" stop-opacity=".196"/></linearGradient><linearGradient id="g" osb:paint="solid"><stop offset="0" stop-color="#fff" stop-opacity=".307"/></linearGradient><linearGradient id="f" osb:paint="solid"><stop offset="0" stop-opacity=".078"/></linearGradient><linearGradient id="e" osb:paint="solid"><stop offset="0" stop-opacity=".14"/></linearGradient><linearGradient id="b"><stop offset="0" stop-color="#fff"/><stop offset="1" stop-color="#dfdfdf"/></linearGradient><linearGradient id="a"><stop offset="0" stop-color="#f0f0f0"/><stop offset="1" stop-color="#fff"/></linearGradient><linearGradient xlink:href="#a" id="s" gradientUnits="userSpaceOnUse" x1="24.117" y1="4.931" x2="24.058" y2="42.556" gradientTransform="matrix(1.11943 0 0 1.12035 -2.944 -2.694)"/><linearGradient xlink:href="#c" id="t" gradientUnits="userSpaceOnUse" gradientTransform="matrix(1.11943 0 0 1.12035 -2.944 -2.694)" x1="26.073" y1="18.962" x2="34.374" y2="10.815"/><linearGradient xlink:href="#b" id="w" gradientUnits="userSpaceOnUse" x1="34.176" y1="10.276" x2="30.758" y2="13.691" gradientTransform="matrix(1.27935 0 0 1.12035 -8.235 -2.817)"/><linearGradient id="d"><stop offset="0" stop-color="#fff" stop-opacity=".046"/><stop offset="1" stop-color="#fff" stop-opacity=".059"/></linearGradient><linearGradient id="c"><stop offset="0" stop-opacity="0"/><stop offset="1" stop-opacity=".018"/></linearGradient><linearGradient xlink:href="#e" id="r" x1="126" y1="161.5" x2="194" y2="161.5" gradientUnits="userSpaceOnUse"/><linearGradient xlink:href="#h" id="v" x1="166" y1="133.472" x2="193" y2="133.472" gradientUnits="userSpaceOnUse"/><linearGradient id="i"><stop offset="0" stop-color="#dfdfdf"/><stop offset=".489" stop-color="silver" stop-opacity=".459"/><stop offset="1" stop-color="#dfdfdf"/></linearGradient><linearGradient id="k"><stop offset="0" stop-color="#2e2e2e"/><stop offset="1" stop-color="#b7b7b7"/></linearGradient><linearGradient xlink:href="#n" id="x" gradientUnits="userSpaceOnUse" gradientTransform="matrix(1.07772 0 0 .90037 -12.594 9.605)" x1="158.822" y1="98.639" x2="158.822" y2="88.728"/><linearGradient id="n"><stop offset="0" stop-color="#444"/><stop offset="1" stop-color="#ececec"/></linearGradient><linearGradient xlink:href="#o" id="y" gradientUnits="userSpaceOnUse" gradientTransform="matrix(.84789 0 0 .84296 23.882 13.537)" x1="160.167" y1="110.428" x2="160.167" y2="94.122"/><linearGradient id="o"><stop offset="0" stop-color="#737373"/><stop offset="1" stop-color="#eee"/></linearGradient><linearGradient xlink:href="#p" id="z" gradientUnits="userSpaceOnUse" gradientTransform="matrix(.75437 0 0 .75437 38.724 23.007)" x1="158.671" y1="97.368" x2="158.671" y2="90.163"/><linearGradient id="p"><stop offset="0" stop-color="#a7a7a7"/><stop offset=".505" stop-color="#5b5b5b"/><stop offset="1" stop-color="#303030"/></linearGradient><linearGradient xlink:href="#i" id="u" gradientUnits="userSpaceOnUse" gradientTransform="matrix(.497 0 0 .35858 -55.182 -34.04)" x1="153.284" y1="153.493" x2="165.174" y2="153.204"/></defs><path d="M6 2h22l13 13v31H6z" style="isolation:auto;mix-blend-mode:normal;marker:none" color="#000" overflow="visible" fill="url(#r)" stroke-width=".852" paint-order="fill markers stroke"/><path style="isolation:auto;mix-blend-mode:normal;marker:none" d="M7 3h21l12 12v30H6.992z" color="#000" overflow="visible" fill="url(#s)" stroke-width=".423" paint-order="fill markers stroke"/><path d="M7 3h21l12 12v30H6.992z" style="isolation:auto;mix-blend-mode:normal;marker:none" color="#000" overflow="visible" fill="url(#t)" stroke-width=".423" paint-order="fill markers stroke"/><path d="M28 3l1 1v22c0 1.844-2.327 4-5 4s-5-2.156-5-4V3z" style="isolation:auto;mix-blend-mode:normal;marker:none" color="#000" display="block" overflow="visible" fill-opacity=".094" stroke-width=".217" paint-order="fill markers stroke"/><path style="isolation:auto;mix-blend-mode:normal;marker:none" d="M27 3v22c0 1.652-1.348 3-3 3a3.01 3.01 0 0 1-3-3V3z" color="#000" display="block" overflow="visible" fill-opacity=".848" stroke-width=".162" paint-order="fill markers stroke"/><path d="M24 3v1h2V3zm0 1h-2v1h2zm0 1v1h2V5zm0 1h-2v1h2zm0 1v1h2V7zm0 1h-2v1h2zm0 1v1h2V9zm0 1h-2v1h2zm0 1v1h2v-1zm0 1h-2v1h2zm0 1v1h2v-1zm0 1h-2v1h2zm0 1v1h2v-1zm0 1h-2v1h2zm0 1v1h2v-1zm0 1h-2v1h2zm0 1v1h2v-1zm0 1h-2v1h2z" style="isolation:auto;mix-blend-mode:normal;marker:none" color="#000" display="block" overflow="visible" fill="url(#u)" stroke-width=".276" stroke-opacity=".957" paint-order="fill markers stroke"/><path d="M28 3l12 12-14 2z" fill="url(#v)" fill-rule="evenodd" stroke-width="2.195"/><path d="M28 3l12 12H28z" fill="url(#w)" fill-rule="evenodd" stroke-width="1.197"/><g transform="matrix(.88842 0 0 .88842 -116.76 -58.41)" color="#000"><path d="M158.45 89.573c1.956 0 3.947 1.353 3.53 2.95l-.927 3.555c-.307 1.177-1.161 2.175-2.603 2.175-1.442 0-2.296-.998-2.603-2.175l-.928-3.555c-.416-1.597 1.575-2.95 3.53-2.95z" style="isolation:auto;mix-blend-mode:normal;marker:none" display="block" overflow="visible" fill="url(#x)" stroke="#2c2c2c" stroke-width=".373" paint-order="fill markers stroke"/><path style="isolation:auto;mix-blend-mode:normal;marker:none" d="M158.45 92.404c-1.546 0-2.545 1.257-2.79 2.774l-1.33 8.218c-.363 2.24 1.838 4.096 4.12 4.096s4.482-1.856 4.12-4.096l-1.33-8.218c-.246-1.517-1.245-2.774-2.79-2.774zm0 .844a1.973 1.962 0 0 1 1.972 1.961 1.973 1.962 0 0 1-1.972 1.964 1.973 1.962 0 0 1-1.973-1.964 1.973 1.962 0 0 1 1.973-1.96zm0 6.717a3.424 3.404 0 0 1 3.423 3.405 3.424 3.404 0 0 1-3.423 3.404 3.424 3.404 0 0 1-3.426-3.404 3.424 3.404 0 0 1 3.426-3.405z" display="block" overflow="visible" fill-opacity=".215" stroke-width=".143" stroke-opacity=".995" paint-order="fill markers stroke"/><path d="M158.45 93.223c-1.378 0-2.269 1.12-2.488 2.472l-1.185 7.327c-.324 1.997 1.638 3.652 3.673 3.652 2.034 0 3.996-1.655 3.673-3.652l-1.186-7.327c-.219-1.352-1.11-2.472-2.487-2.472zm0 .752a1.76 1.749 0 0 1 1.758 1.748 1.76 1.749 0 0 1-1.758 1.75 1.76 1.749 0 0 1-1.76-1.75 1.76 1.749 0 0 1 1.76-1.748zm0 5.988a3.053 3.035 0 0 1 3.052 3.036 3.053 3.035 0 0 1-3.052 3.034 3.053 3.035 0 0 1-3.054-3.034 3.053 3.035 0 0 1 3.054-3.036z" style="isolation:auto;mix-blend-mode:normal;marker:none" display="block" overflow="visible" fill="url(#y)" stroke="#646464" stroke-width=".128" stroke-opacity=".995" paint-order="fill markers stroke"/><rect ry=".754" y="90.896" x="157.695" height="6.035" width="1.509" style="isolation:auto;mix-blend-mode:normal;marker:none" display="block" overflow="visible" fill="url(#z)" stroke-width=".623" paint-order="fill markers stroke"/></g></svg>