<svg xmlns:osb="http://www.openswatchbook.org/uri/2009/osb" xmlns="http://www.w3.org/2000/svg" xmlns:xlink="http://www.w3.org/1999/xlink" height="48" viewBox="0 0 48 48" width="48"><title>Template icons dark</title><defs><linearGradient id="g" osb:paint="solid"><stop offset="0" stop-opacity=".196"/></linearGradient><linearGradient id="f" osb:paint="solid"><stop offset="0" stop-color="#fff" stop-opacity=".302"/></linearGradient><linearGradient id="e" osb:paint="solid"><stop offset="0" stop-opacity=".013"/></linearGradient><linearGradient id="d" osb:paint="solid"><stop offset="0" stop-opacity=".031"/></linearGradient><linearGradient id="b"><stop offset="0" stop-color="#f8c6c6"/><stop offset="1" stop-color="#f8a28d"/></linearGradient><linearGradient id="a"><stop offset="0" stop-color="#fa8484"/><stop offset="1" stop-color="#f9a874"/></linearGradient><linearGradient xlink:href="#a" id="k" gradientUnits="userSpaceOnUse" x1="24.117" y1="4.931" x2="24.058" y2="42.556" gradientTransform="matrix(1.11943 0 0 1.12035 -2.944 -2.694)"/><linearGradient xlink:href="#c" id="l" gradientUnits="userSpaceOnUse" gradientTransform="matrix(1.11943 0 0 1.12035 -2.944 -2.694)" x1="26.073" y1="18.962" x2="34.374" y2="10.815"/><linearGradient xlink:href="#b" id="n" gradientUnits="userSpaceOnUse" x1="34.176" y1="10.276" x2="30.758" y2="13.691" gradientTransform="matrix(1.27935 0 0 1.12035 -8.235 -2.817)"/><linearGradient id="c"><stop offset="0" stop-opacity="0"/><stop offset="1" stop-opacity=".102"/></linearGradient><linearGradient xlink:href="#d" id="j" x1="126" y1="161.5" x2="194" y2="161.5" gradientUnits="userSpaceOnUse"/><linearGradient xlink:href="#g" id="m" x1="166" y1="133.472" x2="193" y2="133.472" gradientUnits="userSpaceOnUse"/><linearGradient id="h"><stop offset="0" stop-opacity="0"/><stop offset="1" stop-opacity=".083"/></linearGradient><linearGradient gradientTransform="matrix(.77308 0 0 .75 -90.44 -97.933)" xlink:href="#h" id="o" x1="127" y1="161.5" x2="148.031" y2="161.5" gradientUnits="userSpaceOnUse"/><linearGradient id="i"><stop offset="0" stop-color="#e33a2f" stop-opacity=".929"/><stop offset="1" stop-color="#d97754" stop-opacity=".984"/></linearGradient></defs><path d="M6 2h22l13 13v31H6z" style="isolation:auto;mix-blend-mode:normal;marker:none" color="#000" overflow="visible" fill="url(#j)" stroke-width=".852" paint-order="fill markers stroke"/><path style="isolation:auto;mix-blend-mode:normal;marker:none" d="M7 3h21l12 12v30H6.992z" color="#000" overflow="visible" fill="url(#k)" stroke-width=".423" paint-order="fill markers stroke"/><path d="M7 3h21l12 12v30H6.992z" style="isolation:auto;mix-blend-mode:normal;marker:none" color="#000" overflow="visible" fill="url(#l)" stroke-width=".423" paint-order="fill markers stroke"/><path d="M28 3l12 12-14 2z" fill="url(#m)" fill-rule="evenodd" stroke-width="2.195"/><path d="M28 3l12 12H28z" fill="url(#n)" fill-rule="evenodd" stroke-width="1.197"/><path style="isolation:auto;mix-blend-mode:normal;marker:none" d="M6.992 3H24v42H6.992V3z" color="#000" overflow="visible" fill="url(#o)" stroke-width=".631" paint-order="fill markers stroke"/><path d="M13.732 16h20.751l-2.075 18.676-8.3 4.15-8.301-4.15z" fill="#f9f9f9" fill-opacity=".224" fill-rule="evenodd" stroke="#fff" stroke-width=".4" stroke-opacity=".839"/><g fill="#e44d26"><path d="M16.823 19.65h14.341l-.069.768-.13 1.452-.058.643H19.952l.262 2.932h10.433l-.07.769-.673 7.537-.043.484-5.859 1.623-.013.004-5.865-1.628-.4-4.495h2.874l.203 2.283 3.188.861.003-.001 3.193-.862.332-3.713h-9.922l-.703-7.89-.069-.767z" fill="#8a332a" fill-opacity=".542"/><path d="M16.823 19.017h14.341l-.069.767-.13 1.452-.058.643H19.952l.262 2.932h10.433l-.07.769-.673 7.537-.043.484-5.859 1.624-.013.003-5.865-1.628-.4-4.495h2.874l.203 2.283 3.188.861h.003l3.193-.863.332-3.713h-9.922l-.703-7.89-.069-.767z" fill="#e8e8e8"/></g></svg>