<svg xmlns:osb="http://www.openswatchbook.org/uri/2009/osb" xmlns="http://www.w3.org/2000/svg" xmlns:xlink="http://www.w3.org/1999/xlink" height="48" viewBox="0 0 48 48" width="48"><title>Template icons dark</title><defs><linearGradient id="g" osb:paint="solid"><stop offset="0" stop-opacity=".196"/></linearGradient><linearGradient id="f" osb:paint="solid"><stop offset="0" stop-color="#fff" stop-opacity=".333"/></linearGradient><linearGradient id="e" osb:paint="solid"><stop offset="0" stop-opacity=".009"/></linearGradient><linearGradient id="d" osb:paint="solid"><stop offset="0" stop-opacity=".031"/></linearGradient><linearGradient id="b"><stop offset="0" stop-color="#5ebfff"/><stop offset="1" stop-color="#40b3ff"/></linearGradient><linearGradient id="a"><stop offset="0" stop-color="#36afff"/><stop offset="1" stop-color="#0090ee"/></linearGradient><linearGradient xlink:href="#a" id="j" gradientUnits="userSpaceOnUse" x1="24.117" y1="4.931" x2="24.058" y2="42.556" gradientTransform="matrix(1.11943 0 0 1.12035 -2.944 -2.694)"/><linearGradient xlink:href="#c" id="k" gradientUnits="userSpaceOnUse" gradientTransform="matrix(1.11943 0 0 1.12035 -2.944 -2.694)" x1="26.073" y1="18.962" x2="34.374" y2="10.815"/><linearGradient xlink:href="#b" id="n" gradientUnits="userSpaceOnUse" x1="34.176" y1="10.276" x2="30.758" y2="13.691" gradientTransform="matrix(1.27935 0 0 1.12035 -8.235 -2.817)"/><linearGradient id="c"><stop offset="0" stop-opacity="0"/><stop offset="1" stop-opacity=".102"/></linearGradient><linearGradient xlink:href="#d" id="i" x1="126" y1="161.5" x2="194" y2="161.5" gradientUnits="userSpaceOnUse"/><linearGradient xlink:href="#g" id="m" x1="166" y1="133.472" x2="193" y2="133.472" gradientUnits="userSpaceOnUse"/><linearGradient id="h" osb:paint="solid"><stop offset="0" stop-color="#fff" stop-opacity=".278"/></linearGradient><linearGradient gradientTransform="matrix(.5 0 0 .50608 -56.5 -57.74)" xlink:href="#h" id="l" gradientUnits="userSpaceOnUse" x1="188" y1="173.5" x2="189" y2="173.5"/></defs><path d="M6 2h22l13 13v31H6z" style="isolation:auto;mix-blend-mode:normal;marker:none" color="#000" overflow="visible" fill="url(#i)" stroke-width=".852" paint-order="fill markers stroke"/><path style="isolation:auto;mix-blend-mode:normal;marker:none" d="M7 3h21l12 12v30H6.992z" color="#000" overflow="visible" fill="url(#j)" stroke-width=".423" paint-order="fill markers stroke"/><path d="M7 3h21l12 12v30H6.992z" style="isolation:auto;mix-blend-mode:normal;marker:none" color="#000" overflow="visible" fill="url(#k)" stroke-width=".423" paint-order="fill markers stroke"/><path style="isolation:auto;mix-blend-mode:normal;marker:none" d="M7.5 2.99V4.51H7v.506h.5v1.518H7v.506h.5v1.518H7v.506h.5v1.518H7v.507h.5v1.518H7v.506h.5v1.518H7v.506h.5v1.518H7v.507h.5v1.518H7v.506h.5v1.518H7v.506h.5v1.518H7v.506h.5v1.519H7v.506h.5v1.518H7v.506h.5V28.8H7v.506h.5v1.519H7v.506h.5v1.518H7v.506h.5v1.518H7v.506h.5v1.519H7v.506h.5v1.518H7v.506h.5v1.518H7v.506h.5v1.519H7v.506h.5v1.518H8v-1.518h1.5v1.518h.5v-1.518h1.5v1.518h.5v-1.518h1.5v1.518h.5v-1.518h1.5v1.518h.5v-1.518h1.5v1.518h.5v-1.518h1.5v1.518h.5v-1.518h1.5v1.518h.5v-1.518h1.5v1.518h.5v-1.518h1.5v1.518h.5v-1.518h1.5v1.518h.5v-1.518h1.5v1.518h.5v-1.518h1.5v1.518h.5v-1.518h1.5v1.47h.5v-1.47h1.5v1.518h.5v-1.518h1.5v1.518h.5v-1.518h2v-.506h-2v-1.519h2v-.506h-2v-1.518h2v-.506h-2v-1.518h2v-.506h-2v-1.519h2v-.506h-2v-1.518h2v-.506h-2v-1.518h2v-.506h-2v-1.519h2V28.8h-2v-1.518h2v-.506h-2v-1.518h2v-.506h-2v-1.519h2v-.506h-2V21.21h2v-.506h-2v-1.518h2v-.506h-2V17.16h2v-.507h-2v-1.518h-.5v1.518H36v-1.518h-.5v1.518H34V15.09h-.5v1.565H32v-1.518h-.5v1.518H30v-1.518h-.5v1.518H28V2.99h-.5V4.51H26V2.99h-.5V4.51H24V2.99h-.5V4.51H22V2.99h-.5V4.51H20V2.99h-.5V4.51H18V2.99h-.5V4.51H16V2.99h-.5V4.51H14V2.99h-.5V4.51H12V2.99h-.5V4.51H10V2.99h-.5V4.51H8V2.99zM8 5.015h1.5v1.518H8zm2 0h1.5v1.518H10zm2 0h1.5v1.518H12zm2 0h1.5v1.518H14zm2 0h1.5v1.518H16zm2 0h1.5v1.518H18zm2 0h1.5v1.518H20zm2 0h1.5v1.518H22zm2 0h1.5v1.518H24zm2 0h1.5v1.518H26zM8 7.039h1.5v1.518H8zm2 0h1.5v1.518H10zm2 0h1.5v1.518H12zm2 0h1.5v1.518H14zm2 0h1.5v1.518H16zm2 0h1.5v1.518H18zm2 0h1.5v1.518H20zm2 0h1.5v1.518H22zm2 0h1.5v1.518H24zm2 0h1.5v1.518H26zM8 9.063h1.5v1.518H8zm2 0h1.5v1.518H10zm2 0h1.5v1.518H12zm2 0h1.5v1.518H14zm2 0h1.5v1.518H16zm2 0h1.5v1.518H18zm2 0h1.5v1.518H20zm2 0h1.5v1.518H22zm2 0h1.5v1.518H24zm2 0h1.5v1.518H26zM8 11.088h1.5v1.518H8zm2 0h1.5v1.518H10zm2 0h1.5v1.518H12zm2 0h1.5v1.518H14zm2 0h1.5v1.518H16zm2 0h1.5v1.518H18zm2 0h1.5v1.518H20zm2 0h1.5v1.518H22zm2 0h1.5v1.518H24zm2 0h1.5v1.518H26zM8 13.112h1.5v1.518H8zm2 0h1.5v1.518H10zm2 0h1.5v1.518H12zm2 0h1.5v1.518H14zm2 0h1.5v1.518H16zm2 0h1.5v1.518H18zm2 0h1.5v1.518H20zm2 0h1.5v1.518H22zm2 0h1.5v1.518H24zm2 0h1.5v1.518H26zM8 15.136h1.5v1.518H8zm2 0h1.5v1.518H10zm2 0h1.5v1.518H12zm2 0h1.5v1.518H14zm2 0h1.5v1.518H16zm2 0h1.5v1.518H18zm2 0h1.5v1.518H20zm2 0h1.5v1.518H22zm2 0h1.5v1.518H24zm2 0h1.5v1.518H26zM8 17.161h1.5v1.518H8zm2 0h1.5v1.518H10zm2 0h1.5v1.518H12zm2 0h1.5v1.518H14zm2 0h1.5v1.518H16zm2 0h1.5v1.518H18zm2 0h1.5v1.518H20zm2 0h1.5v1.518H22zm2 0h1.5v1.518H24zm2 0h1.5v1.518H26zm2 0h1.5v1.518H28zm2 0h1.5v1.518H30zm2 0h1.5v1.518H32zm2 0h1.5v1.518H34zm2 0h1.5v1.518H36zM8 19.185h1.5v1.518H8zm2 0h1.5v1.518H10zm2 0h1.5v1.518H12zm2 0h1.5v1.518H14zm2 0h1.5v1.518H16zm2 0h1.5v1.518H18zm2 0h1.5v1.518H20zm2 0h1.5v1.518H22zm2 0h1.5v1.518H24zm2 0h1.5v1.518H26zm2 0h1.5v1.518H28zm2 0h1.5v1.518H30zm2 0h1.5v1.518H32zm2 0h1.5v1.518H34zm2 0h1.5v1.518H36zM8 21.209h1.5v1.518H8zm2 0h1.5v1.518H10zm2 0h1.5v1.518H12zm2 0h1.5v1.518H14zm2 0h1.5v1.518H16zm2 0h1.5v1.518H18zm2 0h1.5v1.518H20zm2 0h1.5v1.518H22zm2 0h1.5v1.518H24zm2 0h1.5v1.518H26zm2 0h1.5v1.518H28zm2 0h1.5v1.518H30zm2 0h1.5v1.518H32zm2 0h1.5v1.518H34zm2 0h1.5v1.518H36zM8 23.233h1.5v1.519H8zm2 0h1.5v1.519H10zm2 0h1.5v1.519H12zm2 0h1.5v1.519H14zm2 0h1.5v1.519H16zm2 0h1.5v1.519H18zm2 0h1.5v1.519H20zm2 0h1.5v1.519H22zm2 0h1.5v1.519H24zm2 0h1.5v1.519H26zm2 0h1.5v1.519H28zm2 0h1.5v1.519H30zm2 0h1.5v1.519H32zm2 0h1.5v1.519H34zm2 0h1.5v1.519H36zM8 25.258h1.5v1.518H8zm2 0h1.5v1.518H10zm2 0h1.5v1.518H12zm2 0h1.5v1.518H14zm2 0h1.5v1.518H16zm2 0h1.5v1.518H18zm2 0h1.5v1.518H20zm2 0h1.5v1.518H22zm2 0h1.5v1.518H24zm2 0h1.5v1.518H26zm2 0h1.5v1.518H28zm2 0h1.5v1.518H30zm2 0h1.5v1.518H32zm2 0h1.5v1.518H34zm2 0h1.5v1.518H36zM8 27.282h1.5V28.8H8zm2 0h1.5V28.8H10zm2 0h1.5V28.8H12zm2 0h1.5V28.8H14zm2 0h1.5V28.8H16zm2 0h1.5V28.8H18zm2 0h1.5V28.8H20zm2 0h1.5V28.8H22zm2 0h1.5V28.8H24zm2 0h1.5V28.8H26zm2 0h1.5V28.8H28zm2 0h1.5V28.8H30zm2 0h1.5V28.8H32zm2 0h1.5V28.8H34zm2 0h1.5V28.8H36zM8 29.306h1.5v1.519H8zm2 0h1.5v1.519H10zm2 0h1.5v1.519H12zm2 0h1.5v1.519H14zm2 0h1.5v1.519H16zm2 0h1.5v1.519H18zm2 0h1.5v1.519H20zm2 0h1.5v1.519H22zm2 0h1.5v1.519H24zm2 0h1.5v1.519H26zm2 0h1.5v1.519H28zm2 0h1.5v1.519H30zm2 0h1.5v1.519H32zm2 0h1.5v1.519H34zm2 0h1.5v1.519H36zM8 31.331h1.5v1.518H8zm2 0h1.5v1.518H10zm2 0h1.5v1.518H12zm2 0h1.5v1.518H14zm2 0h1.5v1.518H16zm2 0h1.5v1.518H18zm2 0h1.5v1.518H20zm2 0h1.5v1.518H22zm2 0h1.5v1.518H24zm2 0h1.5v1.518H26zm2 0h1.5v1.518H28zm2 0h1.5v1.518H30zm2 0h1.5v1.518H32zm2 0h1.5v1.518H34zm2 0h1.5v1.518H36zM8 33.355h1.5v1.518H8zm2 0h1.5v1.518H10zm2 0h1.5v1.518H12zm2 0h1.5v1.518H14zm2 0h1.5v1.518H16zm2 0h1.5v1.518H18zm2 0h1.5v1.518H20zm2 0h1.5v1.518H22zm2 0h1.5v1.518H24zm2 0h1.5v1.518H26zm2 0h1.5v1.518H28zm2 0h1.5v1.518H30zm2 0h1.5v1.518H32zm2 0h1.5v1.518H34zm2 0h1.5v1.518H36zM8 35.379h1.5v1.519H8zm2 0h1.5v1.519H10zm2 0h1.5v1.519H12zm2 0h1.5v1.519H14zm2 0h1.5v1.519H16zm2 0h1.5v1.519H18zm2 0h1.5v1.519H20zm2 0h1.5v1.519H22zm2 0h1.5v1.519H24zm2 0h1.5v1.519H26zm2 0h1.5v1.519H28zm2 0h1.5v1.519H30zm2 0h1.5v1.519H32zm2 0h1.5v1.519H34zm2 0h1.5v1.519H36zM8 37.404h1.5v1.518H8zm2 0h1.5v1.518H10zm2 0h1.5v1.518H12zm2 0h1.5v1.518H14zm2 0h1.5v1.518H16zm2 0h1.5v1.518H18zm2 0h1.5v1.518H20zm2 0h1.5v1.518H22zm2 0h1.5v1.518H24zm2 0h1.5v1.518H26zm2 0h1.5v1.518H28zm2 0h1.5v1.518H30zm2 0h1.5v1.518H32zm2 0h1.5v1.518H34zm2 0h1.5v1.518H36zM8 39.428h1.5v1.518H8zm2 0h1.5v1.518H10zm2 0h1.5v1.518H12zm2 0h1.5v1.518H14zm2 0h1.5v1.518H16zm2 0h1.5v1.518H18zm2 0h1.5v1.518H20zm2 0h1.5v1.518H22zm2 0h1.5v1.518H24zm2 0h1.5v1.518H26zm2 0h1.5v1.518H28zm2 0h1.5v1.518H30zm2 0h1.5v1.518H32zm2 0h1.5v1.518H34zm2 0h1.5v1.518H36zM8 41.452h1.5v1.519H8zm2 0h1.5v1.519H10zm2 0h1.5v1.519H12zm2 0h1.5v1.519H14zm2 0h1.5v1.519H16zm2 0h1.5v1.519H18zm2 0h1.5v1.519H20zm2 0h1.5v1.519H22zm2 0h1.5v1.519H24zm2 0h1.5v1.519H26zm2 0h1.5v1.519H28zm2 0h1.5v1.519H30zm2 0h1.5v1.519H32zm2 0h1.5v1.519H34zm2 0h1.5v1.519H36z" color="#000" overflow="visible" opacity=".4" fill="url(#l)" stroke-width=".423" stroke-opacity=".344" paint-order="fill markers stroke"/><path style="isolation:auto;mix-blend-mode:normal;marker:none" d="M9.497 4.987h17.98l9.723 9.947.268 27.52H9.497z" color="#000" overflow="visible" fill="none" stroke="#b3d4ee" stroke-width=".997" stroke-opacity=".214" paint-order="fill markers stroke"/><path d="M11.995 32.463h19.981v-11.49z" fill="none" fill-rule="evenodd" stroke="#b8eff9" stroke-width=".999"/><path style="line-height:normal;font-variant-ligatures:normal;font-variant-position:normal;font-variant-caps:normal;font-variant-numeric:normal;font-variant-alternates:normal;font-feature-settings:normal;text-indent:0;text-align:start;text-decoration-line:none;text-decoration-style:solid;text-decoration-color:#000;text-transform:none;text-orientation:mixed;shape-padding:0;isolation:auto;mix-blend-mode:normal" d="M31.661 16.629l-.113.834-.776-.325-.051.121.809.339-.018.13-22.06 12.736.066-.485-.13-.019-.08.587-.229.133.024.043-.604-.254-.051.121.809.34-.118.868.13.019.114-.835.775.325.052-.12-.81-.34.02-.15 22.06-12.736-.068.506.13.017.083-.607.24-.139.567.238.05-.122-.53-.222-.07-.118-.089.051-.119-.05.118-.869zm2.436 2.7l-.079.1.592.457v.079l-.595.452.077.102.518-.394v12.753l-.598-.463-.074.095.61.473-.614.466.073.096.639-.486.635.49.074-.094-.542-.42v-.103l.546-.416-.073-.095-.473.36V20.044l.621.48.078-.1-.643-.498.647-.491-.077-.102-.628.477h-.092zm-13.617 1.35l-.639.37.35.604a.693.693 0 0 1 .228-.212.368.368 0 0 1 .263-.054.294.294 0 0 1 .197.152c.048.084.059.167.033.247a.367.367 0 0 1-.179.201.733.733 0 0 1-.358.102l.094.164a1.43 1.43 0 0 0 .347-.131c.147-.085.24-.187.28-.305a.443.443 0 0 0-.055-.371.452.452 0 0 0-.29-.232.516.516 0 0 0-.383.074.455.455 0 0 0-.128.107l-.17-.296.49-.283zm-1.06.708a.517.517 0 0 0-.351.078.801.801 0 0 0-.146.111 1.5 1.5 0 0 0-.149.166l.096.164a1.13 1.13 0 0 1 .134-.185.627.627 0 0 1 .147-.12.29.29 0 0 1 .21-.041.232.232 0 0 1 .157.118.3.3 0 0 1 .039.137.868.868 0 0 1-.024.212 7.77 7.77 0 0 1-.08.325c-.045.169-.08.303-.104.403l.079.137.764-.442-.08-.136-.567.328.124-.488c.029-.116.046-.187.05-.21a.773.773 0 0 0 .01-.215.412.412 0 0 0-.052-.157.358.358 0 0 0-.256-.185zM18.194 22l-.163.094-.254.225.085.148.256-.225.53.918-.266.154.079.137.694-.4-.08-.138-.266.154zm19.162 4.243a.405.405 0 0 0-.358.185c-.082.123-.123.301-.123.536 0 .234.041.413.123.536a.405.405 0 0 0 .358.185.401.401 0 0 0 .356-.185c.083-.123.124-.302.124-.536 0-.235-.041-.413-.124-.536a.4.4 0 0 0-.356-.185zm-1.614.024v.699a.69.69 0 0 1 .303-.068c.107 0 .193.027.256.083a.294.294 0 0 1 .093.23.294.294 0 0 1-.093.23.368.368 0 0 1-.256.086.732.732 0 0 1-.362-.09v.188a1.43 1.43 0 0 0 .366.06c.17 0 .3-.042.394-.124.093-.083.14-.2.14-.35a.451.451 0 0 0-.137-.345.518.518 0 0 0-.369-.128.512.512 0 0 0-.163.028v-.34h.566v-.159zm1.614.124c.098 0 .17.048.219.143.049.095.073.239.073.43 0 .19-.024.333-.073.43-.049.094-.121.142-.219.142-.097 0-.17-.048-.22-.143-.048-.096-.072-.239-.072-.43 0-.19.024-.334.073-.429.049-.095.122-.143.22-.143zm-28.078 4.39l-.002.013-.013-.005zm1.907 4.295l-.1.077.47.618v.11l-.477.615.1.078.498-.642.492.646.1-.077-.464-.61h19.591l-.441.57.096.075.47-.61.468.614.096-.073-.441-.58v-.118l.446-.577-.096-.074-.405.523h-.133l-.4-.527-.096.073.345.454H11.9l.373-.483-.1-.078-.434.561h-.125zm10.997 2.25a.403.403 0 0 0-.357.185c-.082.123-.123.302-.123.537 0 .234.041.412.123.536a.404.404 0 0 0 .357.184.403.403 0 0 0 .357-.184c.083-.124.123-.302.123-.536 0-.235-.04-.414-.123-.537a.402.402 0 0 0-.357-.185zm1.214 0a.403.403 0 0 0-.357.185c-.082.123-.123.302-.123.537 0 .234.04.412.123.536a.404.404 0 0 0 .357.184.403.403 0 0 0 .357-.184c.082-.124.124-.302.124-.536 0-.235-.042-.414-.124-.537a.403.403 0 0 0-.357-.185zm-2.492.025l-.333.068v.17l.335-.067v1.06h-.307v.159h.8v-.158h-.307V37.35zm1.278.124c.097 0 .17.048.219.144.049.095.074.238.074.43 0 .19-.025.332-.074.427-.049.095-.122.143-.219.143s-.17-.048-.219-.143c-.048-.095-.073-.237-.073-.428s.025-.334.073-.43c.05-.095.122-.143.219-.143zm1.214 0c.097 0 .17.048.22.144.048.095.072.238.072.43 0 .19-.024.332-.073.427-.048.095-.122.143-.22.143-.096 0-.169-.048-.218-.143-.048-.095-.072-.237-.072-.428s.024-.334.072-.43c.05-.095.122-.143.219-.143z" color="#000" font-weight="400" font-family="sans-serif" white-space="normal" overflow="visible" fill="#f8f8f8" fill-rule="evenodd" stroke-width=".127"/><path d="M18.146 9.092v1.686h.2V9.092zm-6.13.069v.184h.574v1.433h.22V9.345h.574v-.184zm8.103.06v.343h-.146v.156h.146v.658c0 .152.03.257.088.314.058.057.164.086.318.086h.205v-.167h-.205c-.083 0-.137-.013-.165-.042-.027-.028-.04-.092-.04-.19v-.66h.41v-.155h-.41V9.22zm-6.4.314a.561.561 0 0 0-.434.176c-.107.116-.161.273-.161.472a.62.62 0 0 0 .17.458.622.622 0 0 0 .46.168 1.112 1.112 0 0 0 .448-.092v-.19a.99.99 0 0 1-.215.085.866.866 0 0 1-.221.029.43.43 0 0 1-.31-.108.463.463 0 0 1-.123-.314h.916v-.097a.613.613 0 0 0-.144-.429.492.492 0 0 0-.386-.158zm1.44 0a.458.458 0 0 0-.226.054.45.45 0 0 0-.164.164v-.189h-.201v1.214h.2v-.686c0-.117.03-.211.09-.28a.304.304 0 0 1 .243-.103c.086 0 .15.027.19.084.042.055.062.142.062.26v.725h.201v-.686c0-.118.03-.212.09-.28a.308.308 0 0 1 .245-.103c.084 0 .147.027.188.084a.442.442 0 0 1 .063.26v.725h.2v-.733c0-.163-.035-.288-.104-.376a.347.347 0 0 0-.292-.134.459.459 0 0 0-.244.065.525.525 0 0 0-.18.198.39.39 0 0 0-.138-.195.368.368 0 0 0-.223-.068zm2.16 0a.41.41 0 0 0-.388.214v-.185h-.2v1.676h.2v-.644a.421.421 0 0 0 .158.162.48.48 0 0 0 .23.051.434.434 0 0 0 .358-.175.723.723 0 0 0 .139-.462.723.723 0 0 0-.139-.461.434.434 0 0 0-.358-.176zm1.868 0a.964.964 0 0 0-.2.022c-.068.013-.14.035-.212.063v.185a.802.802 0 0 1 .392-.101c.109 0 .194.026.254.076s.09.121.09.213v.02h-.279c-.181 0-.318.033-.41.103-.09.07-.136.173-.136.309 0 .117.036.21.11.28.073.07.172.104.296.104a.546.546 0 0 0 .25-.051.438.438 0 0 0 .17-.164v.184h.198v-.692c0-.185-.043-.323-.13-.414-.086-.091-.217-.137-.393-.137zm2.315 0a.561.561 0 0 0-.434.176c-.107.116-.161.273-.161.472 0 .192.056.345.168.458a.624.624 0 0 0 .46.168 1.112 1.112 0 0 0 .45-.092v-.19a.99.99 0 0 1-.215.085.866.866 0 0 1-.221.029.43.43 0 0 1-.31-.108.464.464 0 0 1-.125-.314h.917v-.097a.613.613 0 0 0-.143-.429.492.492 0 0 0-.386-.158zm-4.232.167c.106 0 .188.042.248.126.06.083.09.198.09.344 0 .147-.03.262-.09.346a.289.289 0 0 1-.248.125.293.293 0 0 1-.25-.125.584.584 0 0 1-.09-.346c0-.146.03-.261.09-.344a.292.292 0 0 1 .25-.126zm-3.55.002c.1 0 .178.033.237.098.06.065.091.152.093.261l-.712.001a.399.399 0 0 1 .116-.265.375.375 0 0 1 .267-.095zm7.784 0c.098 0 .177.033.236.098.06.065.091.152.092.261l-.71.001a.399.399 0 0 1 .114-.265.375.375 0 0 1 .268-.095zm-2.19.464h.197v.044c0 .13-.033.235-.1.314a.331.331 0 0 1-.266.117.28.28 0 0 1-.19-.062.216.216 0 0 1-.07-.169c0-.088.032-.152.094-.189.062-.037.173-.055.334-.055z" style="line-height:1000%" font-family="sans-serif" letter-spacing="0" word-spacing="0" fill="#fff" fill-opacity=".531" stroke-width=".139"/><path d="M28 3l12 12-14 2z" fill="url(#m)" fill-rule="evenodd" stroke-width="2.195"/><path d="M28 3l12 12H28z" fill="url(#n)" fill-rule="evenodd" stroke-width="1.197"/></svg>