<svg xmlns:osb="http://www.openswatchbook.org/uri/2009/osb" xmlns="http://www.w3.org/2000/svg" xmlns:xlink="http://www.w3.org/1999/xlink" height="48" viewBox="0 0 48 48" width="48"><title>Template icons dark</title><defs><linearGradient id="g" osb:paint="solid"><stop offset="0" stop-opacity=".196"/></linearGradient><linearGradient id="f" osb:paint="solid"><stop offset="0" stop-color="#fff" stop-opacity=".052"/></linearGradient><linearGradient id="e" osb:paint="solid"><stop offset="0" stop-opacity=".009"/></linearGradient><linearGradient id="d" osb:paint="solid"><stop offset="0" stop-opacity=".022"/></linearGradient><linearGradient id="b"><stop offset="0" stop-color="#525764"/><stop offset="1" stop-color="#464c57"/></linearGradient><linearGradient id="a"><stop offset="0" stop-color="#494f5a"/><stop offset="1" stop-color="#494e5a"/></linearGradient><linearGradient xlink:href="#a" id="i" gradientUnits="userSpaceOnUse" x1="24.117" y1="4.931" x2="24.058" y2="42.556" gradientTransform="matrix(1.11943 0 0 1.12035 -2.944 -2.694)"/><linearGradient xlink:href="#c" id="j" gradientUnits="userSpaceOnUse" gradientTransform="matrix(1.11943 0 0 1.12035 -2.944 -2.694)" x1="26.073" y1="18.962" x2="34.374" y2="10.815"/><linearGradient xlink:href="#b" id="l" gradientUnits="userSpaceOnUse" x1="34.176" y1="10.276" x2="30.758" y2="13.691" gradientTransform="matrix(1.27935 0 0 1.12035 -8.235 -2.817)"/><linearGradient id="c"><stop offset="0" stop-opacity="0"/><stop offset="1" stop-opacity=".102"/></linearGradient><linearGradient xlink:href="#d" id="h" x1="126" y1="161.5" x2="194" y2="161.5" gradientUnits="userSpaceOnUse"/><linearGradient xlink:href="#g" id="k" x1="166" y1="133.472" x2="193" y2="133.472" gradientUnits="userSpaceOnUse"/></defs><path d="M6 2h22l13 13v31H6z" style="isolation:auto;mix-blend-mode:normal;marker:none" color="#000" overflow="visible" fill="url(#h)" stroke-width=".852" paint-order="fill markers stroke"/><path style="isolation:auto;mix-blend-mode:normal;marker:none" d="M7 3h21l12 12v30H6.992z" color="#000" overflow="visible" fill="url(#i)" stroke-width=".423" paint-order="fill markers stroke"/><path d="M7 3h21l12 12v30H6.992z" style="isolation:auto;mix-blend-mode:normal;marker:none" color="#000" overflow="visible" fill="url(#j)" stroke-width=".423" paint-order="fill markers stroke"/><path d="M28 3l12 12-14 2z" fill="url(#k)" fill-rule="evenodd" stroke-width="2.195"/><path d="M28 3l12 12H28z" fill="url(#l)" fill-rule="evenodd" stroke-width="1.197"/><path style="line-height:120.00000477%;isolation:auto;mix-blend-mode:normal;marker:none" color="#000" font-size="2.667" font-family="sans-serif" letter-spacing="0" word-spacing="0" overflow="visible" fill="#121823" fill-opacity=".11" stroke-width=".323" paint-order="fill markers stroke" d="M6.992 3h5.054v41.949H6.992z"/><text style="line-height:162.99999952%;text-align:end" x="10.757" y="11.755" font-size="2.022" font-family="sans-serif" letter-spacing="0" word-spacing="0" text-anchor="end" fill="#fff" fill-opacity=".966" stroke-width=".253"><tspan x="10.757" y="11.755" style="line-height:162.99999952%;-inkscape-font-specification:sans-serif;text-align:end" font-weight="400">1.</tspan> <tspan x="10.757" y="15.05" style="line-height:162.99999952%;-inkscape-font-specification:sans-serif;text-align:end" font-weight="400">2.</tspan> <tspan x="10.757" y="18.345" style="line-height:162.99999952%;-inkscape-font-specification:sans-serif;text-align:end" font-weight="400">3.</tspan> <tspan x="10.757" y="21.641" style="line-height:162.99999952%;-inkscape-font-specification:sans-serif;text-align:end" font-weight="400">4.</tspan> <tspan x="10.757" y="24.936" style="line-height:162.99999952%;-inkscape-font-specification:sans-serif;text-align:end" font-weight="400">5.</tspan> <tspan x="10.757" y="28.231" style="line-height:162.99999952%;-inkscape-font-specification:sans-serif;text-align:end" font-weight="400">6.</tspan> <tspan x="10.757" y="31.526" style="line-height:162.99999952%;-inkscape-font-specification:sans-serif;text-align:end" font-weight="400">7.</tspan> <tspan x="10.757" y="34.822" style="line-height:162.99999952%;-inkscape-font-specification:sans-serif;text-align:end" font-weight="400">8.</tspan> <tspan x="10.757" y="38.117" style="line-height:162.99999952%;-inkscape-font-specification:sans-serif;text-align:end" font-weight="400">9.</tspan></text><g style="line-height:120.00000477%" font-size="2.667" font-family="sans-serif" letter-spacing="0" word-spacing="0" fill="#344f67" fill-opacity=".89" stroke-width="1.251"><path style="line-height:120.00000477%" d="M14.118 11.035l-1.055.383v.137l1.055.383v-.15l-.85-.3.85-.303zm9.773 2.784v.457h.14v-.457zm.31 0v.457h.141v-.457zm-10.083.25l-1.055.383v.136l1.055.383v-.15l-.85-.3.85-.302zm8.377.214v.138h1.055v-.138zm0 .336v.14h1.055v-.14zm-8.377 2.483l-1.055.383v.136l1.055.383v-.15l-.85-.3.85-.302zm4.568 0v.15l.848.302-.848.3v.15l1.055-.383v-.136zm9.814 2.785v.456h.14v-.456zm.31 0v.456h.141v-.456zm5.386 0v.456h.14v-.456zm.31 0v.456h.14v-.456zm-18.975.249l-1.055.383v.136l1.055.383v-.15l-.85-.3.85-.302zm19.458 0v.15l.847.302-.847.3v.15l1.056-.383v-.136zm-7.885.214v.138h1.055v-.138zm0 .336v.14h1.055v-.14zm3.89 2.234l-.427 1.385h.14l.428-1.385zm-15.463.25l-1.055.382v.136l1.055.383v-.15l-.85-.3.85-.302zm3.652 0v.15l.848.301-.848.3v.15l1.055-.383v-.136zm11.205 0l-1.055.382v.136l1.055.383v-.15l-.85-.3.85-.302zm4.222 0v.15l.848.301-.848.3v.15l1.055-.383v-.136zm-19.886 2.784l-.427 1.385h.14l.428-1.385zm-.606.249l-1.055.383v.136l1.055.383v-.15l-.85-.3.85-.302zm5.137 0v.15l.848.302-.848.3v.15l1.056-.383v-.136zm-5.137 3.033l-1.055.383v.137l1.055.382v-.149l-.85-.3.85-.303zm4.525 0v.15l.848.302-.848.301v.15l1.056-.383v-.137zm-3.919 3.797l-.427 1.385h.14l.428-1.385zm-.606.25l-1.055.381v.138l1.055.382v-.15l-.85-.3.85-.303zm5.095 0v.148l.848.302-.848.302v.149l1.055-.382v-.138zm-4.489 2.783l-.427 1.385h.14l.428-1.385zm-.606.25l-1.055.382v.137l1.055.383v-.15l-.85-.301.85-.302zm4.77 0v.149l.846.302-.847.301v.15l1.055-.383v-.137z" fill="#c3f7fe"/><path style="line-height:120.00000477%" d="M16.933 10.764a.53.53 0 0 0-.415.174.67.67 0 0 0-.155.464.67.67 0 0 0 .155.463.53.53 0 0 0 .415.173c.172 0 .31-.057.413-.173a.671.671 0 0 0 .155-.463.67.67 0 0 0-.155-.464.527.527 0 0 0-.413-.174zm1.357 0a.572.572 0 0 0-.44.17c-.106.114-.16.27-.16.468 0 .196.054.352.16.466.108.114.254.17.44.17a.705.705 0 0 0 .39-.118v-.174a.527.527 0 0 1-.381.156c-.14 0-.247-.043-.322-.128-.075-.086-.112-.21-.112-.372 0-.163.037-.287.112-.373.075-.086.182-.129.323-.129a.526.526 0 0 1 .38.156v-.176a.706.706 0 0 0-.39-.116zm-3.74.022v.539l.018.294h.134l.016-.294v-.54zm.587 0v1.229h.342c.237 0 .41-.05.523-.15.112-.099.168-.255.168-.466 0-.211-.056-.366-.167-.464-.112-.1-.286-.15-.524-.15zm3.632 0v.14h.436v1.089h.168v-1.09h.435v-.13l.428.634v.586h.166v-.586l.436-.643h-.179l-.339.505-.34-.505h-.172zm2.232 0v1.229h.165v-.494h.21c.137 0 .241-.03.312-.093.07-.062.106-.154.106-.275 0-.12-.036-.212-.106-.274-.07-.062-.175-.093-.312-.093zm1.016 0v1.229h.792v-.14h-.625v-.446h.586v-.139h-.586v-.364h.61v-.14zm-5.084.113c.12 0 .216.044.286.134a.58.58 0 0 1 .106.369.579.579 0 0 1-.106.367.344.344 0 0 1-.286.135.349.349 0 0 1-.289-.135.579.579 0 0 1-.105-.367.58.58 0 0 1 .105-.369.348.348 0 0 1 .289-.134zm-1.63.024h.201c.17 0 .294.037.372.114.08.077.119.197.119.362 0 .165-.04.287-.119.364-.078.077-.202.115-.372.115h-.201zm5.863 0h.21c.077 0 .137.02.18.06.042.04.063.096.063.17 0 .074-.021.132-.064.172-.042.04-.102.059-.18.059h-.209zm-6.615.882v.21h.167v-.21z" fill="#c382ff" fill-opacity="1"/><path style="line-height:120.00000477%" d="M23.609 10.734v1.28h.152v-.52c0-.09.024-.162.07-.214a.248.248 0 0 1 .194-.078c.068 0 .12.022.153.065.034.044.051.11.051.197v.55h.152v-.555c0-.128-.027-.224-.081-.29-.055-.065-.135-.098-.241-.098a.343.343 0 0 0-.17.041.37.37 0 0 0-.128.124v-.502zm1.073.097v.262h-.111v.118h.11v.5c0 .116.023.194.068.238.044.044.125.066.242.066h.156v-.127h-.156c-.064 0-.106-.011-.127-.032-.02-.022-.03-.07-.03-.145v-.5h.313v-.118h-.312v-.262zm1.107.24a.351.351 0 0 0-.173.04.339.339 0 0 0-.123.125v-.143h-.153v.922h.153v-.522c0-.09.023-.16.068-.212a.232.232 0 0 1 .185-.079c.065 0 .113.021.144.064.031.043.047.109.047.198v.55h.152v-.52c0-.09.023-.162.068-.214a.235.235 0 0 1 .187-.078c.064 0 .112.021.143.064.031.043.046.11.046.198v.55h.153v-.555a.46.46 0 0 0-.078-.287.264.264 0 0 0-.223-.101.347.347 0 0 0-.185.048.4.4 0 0 0-.136.151.296.296 0 0 0-.105-.148.28.28 0 0 0-.17-.051zm-6.955 2.697v1.28h.152v-1.28zm.791.336a.979.979 0 0 0-.314.064v.14a.613.613 0 0 1 .299-.075.29.29 0 0 1 .192.057c.046.038.07.092.07.162v.015h-.213c-.138 0-.241.026-.31.079-.07.052-.105.13-.105.233 0 .09.028.16.083.214.056.052.131.079.225.079a.414.414 0 0 0 .19-.04.333.333 0 0 0 .13-.124v.14h.15v-.525-.001c0-.14-.033-.245-.098-.314-.066-.07-.165-.104-.299-.104zm1.154 0a.343.343 0 0 0-.17.042.367.367 0 0 0-.127.123v-.143h-.153v.922h.153v-.521c0-.09.023-.16.07-.212a.248.248 0 0 1 .194-.08c.068 0 .119.022.153.066.034.043.051.109.051.196v.551h.151v-.556c0-.127-.026-.224-.08-.289-.055-.066-.136-.099-.242-.099zm.937 0a.334.334 0 0 0-.273.13.533.533 0 0 0-.104.343c0 .142.035.256.104.342.069.086.16.129.273.129a.31.31 0 0 0 .295-.162v.075c0 .105-.024.183-.074.235-.049.052-.123.078-.223.078a.51.51 0 0 1-.132-.018.595.595 0 0 1-.131-.053v.147c.044.016.09.029.137.037a.882.882 0 0 0 .15.011c.145 0 .251-.037.32-.114.07-.076.105-.194.105-.35v-.808h-.152v.14a.31.31 0 0 0-.295-.162zm.038.127c.081 0 .144.03.19.09.045.06.067.145.067.255 0 .11-.022.194-.068.255a.222.222 0 0 1-.19.09.226.226 0 0 1-.19-.09.42.42 0 0 1-.067-.255c0-.11.022-.194.067-.255.046-.06.11-.09.19-.09zm-2.034.354h.151v.034a.354.354 0 0 1-.077.237.251.251 0 0 1-.201.09.213.213 0 0 1-.145-.048.164.164 0 0 1-.053-.128c0-.068.024-.116.072-.143.047-.028.13-.042.253-.042zm1.982 5.25v1.28h.152v-.52c0-.09.024-.161.072-.214a.248.248 0 0 1 .193-.078c.068 0 .119.021.153.065.034.043.051.109.051.196v.55h.151v-.555c0-.127-.026-.224-.08-.29-.055-.065-.136-.098-.241-.098a.347.347 0 0 0-.171.042.371.371 0 0 0-.128.124v-.502zm4.718.096v.263h-.11v.117h.11v.5c0 .116.023.196.067.24.044.043.125.064.242.064h.155v-.126h-.155c-.063 0-.106-.012-.126-.033-.02-.021-.031-.069-.031-.144v-.5h.312v-.118h-.312v-.263zm-5.243.24a.449.449 0 0 0-.34.13.491.491 0 0 0-.123.354c0 .148.04.266.123.353a.432.432 0 0 0 .33.132.68.68 0 0 0 .276-.06v-.14a.602.602 0 0 1-.13.053.493.493 0 0 1-.129.018.29.29 0 0 1-.229-.093.388.388 0 0 1-.082-.263c0-.113.028-.2.082-.262a.287.287 0 0 1 .23-.093c.043 0 .086.005.128.017.044.012.087.03.13.054v-.143a.603.603 0 0 0-.266-.057zm1.924 0a.979.979 0 0 0-.313.064v.14a.611.611 0 0 1 .298-.075.29.29 0 0 1 .193.057c.046.038.069.092.069.162v.014h-.212c-.138 0-.243.027-.312.08-.07.052-.104.13-.104.234 0 .09.029.16.084.214.056.052.13.079.225.079a.414.414 0 0 0 .19-.04.333.333 0 0 0 .129-.124v.139h.151v-.525c0-.14-.033-.246-.099-.315-.066-.07-.165-.104-.299-.104zm1.168 0a.39.39 0 0 0-.187.042.308.308 0 0 0-.124.124v-.143h-.152v.92h.152v-.485c0-.104.024-.183.07-.239a.241.241 0 0 1 .197-.084c.024 0 .045.002.065.007a.2.2 0 0 1 .056.022l-.001-.156-.041-.005-.035-.003zm.53 0c-.113 0-.2.024-.262.071a.237.237 0 0 0-.091.2c0 .072.02.128.062.17.042.04.11.07.203.09l.054.012c.093.02.154.042.181.064.028.022.042.053.042.094 0 .044-.02.08-.058.105a.312.312 0 0 1-.165.035.627.627 0 0 1-.16-.02.841.841 0 0 1-.166-.067v.156c.059.02.115.034.169.044.053.01.105.015.155.015a.461.461 0 0 0 .279-.075.239.239 0 0 0 .102-.204.227.227 0 0 0-.069-.176.487.487 0 0 0-.229-.097l-.05-.012a.491.491 0 0 1-.164-.056.098.098 0 0 1-.04-.083c0-.046.019-.08.056-.104a.333.333 0 0 1 .17-.034.63.63 0 0 1 .276.065v-.143a.668.668 0 0 0-.136-.037.97.97 0 0 0-.159-.013zm.972 0a.426.426 0 0 0-.33.133.511.511 0 0 0-.122.36c0 .146.043.26.129.346.086.086.203.13.35.13a.84.84 0 0 0 .34-.071v-.144a.751.751 0 0 1-.162.065.66.66 0 0 1-.17.021.325.325 0 0 1-.234-.082.353.353 0 0 1-.094-.239h.696v-.074a.464.464 0 0 0-.108-.324.376.376 0 0 0-.295-.12zm.002.129c.075 0 .135.024.18.074.045.049.068.115.07.198l-.54.001a.302.302 0 0 1 .087-.201.286.286 0 0 1 .203-.072zm-2.576.352h.151v.034a.354.354 0 0 1-.077.237.251.251 0 0 1-.201.09.212.212 0 0 1-.145-.047.164.164 0 0 1-.053-.128c0-.068.023-.116.07-.144a.541.541 0 0 1 .255-.042z" fill="#f7fd93"/><path style="line-height:120.00000477%" d="M14.45 13.768v1.28h.152v-.521c0-.09.024-.16.071-.212a.248.248 0 0 1 .194-.08c.068 0 .119.022.153.066.034.043.05.109.05.196v.551h.152v-.556c0-.127-.028-.224-.082-.289-.054-.066-.134-.099-.24-.099a.347.347 0 0 0-.17.042.367.367 0 0 0-.128.123v-.501zm3.38 0v1.28h.15v-1.28zm-2.307.096v.262h-.112v.118h.112v.5c0 .116.023.195.067.239.045.043.125.065.242.065h.155v-.126h-.155c-.063 0-.106-.012-.126-.033-.02-.021-.031-.069-.031-.144v-.5h.312v-.119h-.312v-.262zm1.107.24a.347.347 0 0 0-.172.04.344.344 0 0 0-.125.126v-.144h-.152v.922h.152v-.521c0-.09.024-.16.07-.212a.23.23 0 0 1 .183-.08c.065 0 .114.022.145.065.031.042.048.108.048.197v.551h.152v-.521c0-.09.022-.16.068-.212a.234.234 0 0 1 .185-.08c.064 0 .112.022.143.065.032.043.048.109.048.197v.551h.152v-.556a.46.46 0 0 0-.078-.287.264.264 0 0 0-.222-.1.35.35 0 0 0-.187.048.398.398 0 0 0-.135.15.296.296 0 0 0-.105-.147.283.283 0 0 0-.17-.052zm-2.18 2.697v1.28h.152v-.52c0-.09.024-.16.071-.213a.248.248 0 0 1 .194-.079c.068 0 .119.022.153.065.034.044.05.11.05.197v.55h.152v-.555c0-.128-.028-.224-.082-.29-.054-.065-.134-.098-.24-.098a.347.347 0 0 0-.17.041.37.37 0 0 0-.128.125V16.8zm3.753 0v.499a.311.311 0 0 0-.121-.122.355.355 0 0 0-.175-.04.331.331 0 0 0-.273.133.551.551 0 0 0-.103.35c0 .145.034.262.103.35.07.09.162.135.273.135a.36.36 0 0 0 .175-.04.317.317 0 0 0 .121-.123v.138h.151v-1.28zm-2.291.337a.428.428 0 0 0-.33.133.508.508 0 0 0-.122.358.47.47 0 0 0 .128.348.473.473 0 0 0 .35.128.837.837 0 0 0 .34-.07v-.143a.66.66 0 0 1-.332.085.324.324 0 0 1-.235-.081.353.353 0 0 1-.093-.239h.696v-.074a.464.464 0 0 0-.109-.325.374.374 0 0 0-.293-.12zm.974 0a.979.979 0 0 0-.314.064v.14a.613.613 0 0 1 .298-.076.29.29 0 0 1 .193.057c.046.038.069.093.069.162v.015h-.212c-.138 0-.242.026-.311.079-.07.053-.104.13-.104.234 0 .089.028.16.083.213.056.053.13.08.225.08a.414.414 0 0 0 .19-.04.33.33 0 0 0 .129-.124v.14h.151v-.526c0-.14-.033-.245-.099-.315-.066-.069-.164-.103-.298-.103zm1.058.126c.08 0 .144.032.19.096.046.063.069.15.069.261a.44.44 0 0 1-.07.263.222.222 0 0 1-.189.095.222.222 0 0 1-.19-.095.444.444 0 0 1-.067-.263.44.44 0 0 1 .068-.261.222.222 0 0 1 .19-.096zm-2.031.002c.074 0 .135.025.18.074.045.05.068.116.07.199h-.54a.302.302 0 0 1 .087-.2.286.286 0 0 1 .203-.073zm1.068.353h.151v.033a.354.354 0 0 1-.077.238.251.251 0 0 1-.201.089.212.212 0 0 1-.145-.047.166.166 0 0 1-.053-.129c0-.067.024-.115.071-.143.047-.028.132-.041.254-.041zm1.565 2.312v.263h-.112v.117h.112v.5c0 .116.021.196.066.24.044.043.125.064.242.064h.156v-.126h-.156c-.064 0-.105-.012-.126-.033-.02-.021-.03-.069-.03-.144v-.5h.312v-.118h-.312v-.263zm-2.235.24a.347.347 0 0 0-.172.04.344.344 0 0 0-.124.126v-.143h-.152v.921h.152v-.52c0-.09.022-.16.068-.212a.232.232 0 0 1 .184-.08c.066 0 .114.022.145.065.032.042.047.107.047.196v.551h.152v-.52c0-.09.022-.161.068-.213a.236.236 0 0 1 .186-.08c.065 0 .112.023.144.066a.333.333 0 0 1 .047.196v.551h.152v-.556a.457.457 0 0 0-.078-.286.266.266 0 0 0-.223-.102.347.347 0 0 0-.186.049.4.4 0 0 0-.136.15.294.294 0 0 0-.104-.147.283.283 0 0 0-.17-.052zm1.586 0a.428.428 0 0 0-.33.134.51.51 0 0 0-.122.359c0 .146.043.26.128.346.086.086.203.13.35.13a.84.84 0 0 0 .34-.071v-.144a.751.751 0 0 1-.163.065.66.66 0 0 1-.168.021.325.325 0 0 1-.235-.082.353.353 0 0 1-.094-.238h.696v-.075a.464.464 0 0 0-.109-.324.374.374 0 0 0-.293-.12zm1.636 0a.989.989 0 0 0-.314.064v.14a.611.611 0 0 1 .298-.075.29.29 0 0 1 .192.057c.046.038.07.092.07.162v.015h-.213c-.137 0-.241.026-.31.078-.07.053-.104.132-.104.235 0 .09.027.16.083.214a.317.317 0 0 0 .226.079.414.414 0 0 0 .19-.04.331.331 0 0 0 .127-.124v.139h.153v-.525c0-.14-.033-.246-.1-.315-.065-.07-.165-.104-.298-.104zm-1.635.129c.075 0 .135.024.18.074.045.049.068.115.07.198l-.54.001a.302.302 0 0 1 .087-.201.286.286 0 0 1 .203-.072zm1.73.352h.15v.034a.354.354 0 0 1-.076.237.251.251 0 0 1-.2.09.212.212 0 0 1-.146-.047.164.164 0 0 1-.052-.128c0-.068.023-.116.07-.144a.541.541 0 0 1 .254-.042zm-3.098 2.216v.192h.15v-.192zm1.13 0v1.28h.15v-1.28zm14.297 0v.192h.15v-.192zm1.13 0v1.28h.15v-1.28zm-17.222.098v.261h-.111v.118h.111v.5c0 .116.022.195.067.24.044.043.126.063.242.063h.155v-.126h-.155c-.063 0-.105-.01-.126-.032-.02-.02-.03-.07-.03-.145v-.5h.311v-.118h-.312v-.261zm1.13 0v.261h-.112v.118h.112v.5c0 .116.021.195.066.24.044.043.125.063.242.063h.156v-.126h-.156c-.063 0-.105-.01-.126-.032-.02-.02-.03-.07-.03-.145v-.5h.312v-.118h-.312v-.261zm14.297 0v.261h-.11v.118h.11v.5c0 .116.023.195.068.24.044.043.125.063.241.063h.155v-.126h-.155c-.063 0-.105-.01-.126-.032-.02-.02-.03-.07-.03-.145v-.5h.311v-.118h-.312v-.261zm1.13 0v.261h-.11v.118h.11v.5c0 .116.022.195.067.24.044.043.125.063.242.063h.155v-.126h-.155c-.063 0-.106-.01-.127-.032-.02-.02-.03-.07-.03-.145v-.5h.312v-.118h-.312v-.261zm-13.91.239a.426.426 0 0 0-.33.133.51.51 0 0 0-.121.36.47.47 0 0 0 .128.347.473.473 0 0 0 .35.128.84.84 0 0 0 .34-.071v-.143a.751.751 0 0 1-.163.064.66.66 0 0 1-.168.022.325.325 0 0 1-.235-.082.353.353 0 0 1-.094-.239h.696v-.074a.464.464 0 0 0-.109-.325.376.376 0 0 0-.294-.12zm15.428 0a.428.428 0 0 0-.33.133.51.51 0 0 0-.122.36.47.47 0 0 0 .128.347.473.473 0 0 0 .35.128.84.84 0 0 0 .34-.071v-.143a.751.751 0 0 1-.163.064.66.66 0 0 1-.169.022.325.325 0 0 1-.234-.082.353.353 0 0 1-.094-.239h.696v-.074a.464.464 0 0 0-.109-.325.374.374 0 0 0-.293-.12zm-17.41.022v.921h.15v-.92zm15.427 0v.921h.15v-.92zm-13.443.106c.075 0 .135.025.18.074.045.05.068.116.07.199h-.54a.302.302 0 0 1 .087-.2.286.286 0 0 1 .203-.073zm15.427 0c.075 0 .135.025.18.074.045.05.068.116.07.199h-.54a.302.302 0 0 1 .087-.2.286.286 0 0 1 .203-.073zM15.02 25.902v1.28h.152v-.52c0-.09.023-.161.07-.214a.248.248 0 0 1 .194-.078c.068 0 .12.022.153.066.034.043.05.108.05.195v.552h.152v-.557c0-.127-.027-.224-.081-.29-.055-.065-.134-.098-.24-.098a.347.347 0 0 0-.171.042.37.37 0 0 0-.127.124v-.502zm3.753 0v.498a.311.311 0 0 0-.122-.121.354.354 0 0 0-.175-.04.331.331 0 0 0-.272.132.551.551 0 0 0-.104.35c0 .146.034.263.104.352.07.09.161.134.272.134a.36.36 0 0 0 .175-.04.32.32 0 0 0 .122-.123v.139h.15v-1.281zm-2.292.336a.428.428 0 0 0-.33.133.51.51 0 0 0-.122.36.47.47 0 0 0 .129.347.473.473 0 0 0 .35.129.841.841 0 0 0 .34-.071v-.144a.751.751 0 0 1-.163.065.66.66 0 0 1-.169.021.325.325 0 0 1-.235-.082.353.353 0 0 1-.094-.239h.696v-.074a.464.464 0 0 0-.108-.324.374.374 0 0 0-.294-.12zm.975 0a.979.979 0 0 0-.314.064v.14a.613.613 0 0 1 .298-.076.29.29 0 0 1 .192.059c.047.038.07.091.07.16v.015h-.213c-.137 0-.24.027-.31.08-.07.052-.104.13-.104.234 0 .09.027.16.083.214.056.052.13.079.225.079a.414.414 0 0 0 .19-.04.333.333 0 0 0 .129-.124v.14h.15v-.526c0-.14-.032-.246-.098-.315-.066-.07-.165-.104-.298-.104zm1.058.128c.08 0 .143.03.19.094.046.063.069.15.069.262a.44.44 0 0 1-.07.262.222.222 0 0 1-.189.095.222.222 0 0 1-.19-.095.444.444 0 0 1-.068-.262.44.44 0 0 1 .068-.262.221.221 0 0 1 .19-.094zm-2.032 0c.075 0 .135.025.18.075.045.049.069.115.07.198l-.54.001a.302.302 0 0 1 .087-.201.286.286 0 0 1 .203-.072zm1.069.353h.15v.034a.354.354 0 0 1-.076.237.251.251 0 0 1-.202.09.212.212 0 0 1-.145-.047.164.164 0 0 1-.052-.128c0-.068.024-.116.07-.144a.537.537 0 0 1 .255-.042zm-3.101 2.216v1.281h.152v-.138a.319.319 0 0 0 .12.123c.05.026.108.04.175.04a.328.328 0 0 0 .272-.134.549.549 0 0 0 .105-.35.552.552 0 0 0-.105-.352.328.328 0 0 0-.272-.133.358.358 0 0 0-.175.04.315.315 0 0 0-.12.123v-.5zm2.713 0v.5a.314.314 0 0 0-.296-.163.331.331 0 0 0-.272.133.555.555 0 0 0-.105.351c0 .145.035.262.105.35.07.09.161.134.272.134a.357.357 0 0 0 .174-.04.317.317 0 0 0 .122-.122v.138h.15v-1.28zm-1.28.337a.392.392 0 0 0-.312.128.525.525 0 0 0-.111.356c0 .151.037.27.111.356a.392.392 0 0 0 .311.128.393.393 0 0 0 .311-.128.522.522 0 0 0 .113-.356.523.523 0 0 0-.113-.356.393.393 0 0 0-.31-.128zm1.634.022l.373.908-.028.069a.374.374 0 0 1-.076.139.144.144 0 0 1-.096.03h-.09v.127h.121a.248.248 0 0 0 .163-.05.551.551 0 0 0 .126-.216l.404-1.007h-.16l-.288.721-.288-.72zm-2.657.105c.08 0 .143.031.188.095.046.063.07.151.07.262a.44.44 0 0 1-.07.263.22.22 0 0 1-.188.094.221.221 0 0 1-.19-.094.444.444 0 0 1-.068-.263c0-.111.023-.2.068-.262a.221.221 0 0 1 .19-.095zm2.044 0c.08 0 .143.031.19.095.046.063.069.151.069.262a.44.44 0 0 1-.07.263.221.221 0 0 1-.189.094.221.221 0 0 1-.19-.094.444.444 0 0 1-.068-.263c0-.111.023-.2.068-.262a.221.221 0 0 1 .19-.095zm-1.022.001c.08 0 .146.033.193.097.047.063.07.15.07.26 0 .11-.023.195-.07.259a.228.228 0 0 1-.193.096.229.229 0 0 1-.193-.095.432.432 0 0 1-.07-.26c0-.11.024-.198.07-.261a.227.227 0 0 1 .193-.096zm-.862 3.58v1.282h.152v-.139a.319.319 0 0 0 .12.123.36.36 0 0 0 .174.04.33.33 0 0 0 .272-.134.549.549 0 0 0 .106-.35.549.549 0 0 0-.106-.35.33.33 0 0 0-.272-.135.353.353 0 0 0-.174.04.315.315 0 0 0-.12.123v-.5zm2.712 0v.5a.314.314 0 0 0-.295-.163.332.332 0 0 0-.272.134.552.552 0 0 0-.105.35c0 .145.035.262.105.351.07.089.16.133.272.133a.357.357 0 0 0 .174-.04.317.317 0 0 0 .121-.122v.139h.151V32.98zm-1.28.337a.393.393 0 0 0-.311.13.523.523 0 0 0-.112.355c0 .15.037.269.112.355a.392.392 0 0 0 .31.128.393.393 0 0 0 .312-.128.522.522 0 0 0 .112-.355.52.52 0 0 0-.112-.356.394.394 0 0 0-.311-.129zm1.635.023l.373.907-.028.069a.381.381 0 0 1-.076.14.146.146 0 0 1-.098.03h-.089v.126h.122a.248.248 0 0 0 .163-.05.545.545 0 0 0 .125-.214l.405-1.008h-.161l-.287.72-.289-.72zm-2.658.104a.22.22 0 0 1 .189.096c.046.063.069.15.069.262a.44.44 0 0 1-.07.262.22.22 0 0 1-.188.095.222.222 0 0 1-.19-.095.444.444 0 0 1-.067-.262.44.44 0 0 1 .068-.262.222.222 0 0 1 .19-.096zm2.045 0c.08 0 .143.032.19.096.045.063.068.15.068.262a.44.44 0 0 1-.069.262.222.222 0 0 1-.19.095.222.222 0 0 1-.189-.095.444.444 0 0 1-.068-.262.44.44 0 0 1 .068-.262.222.222 0 0 1 .19-.096zm-1.022.002c.08 0 .145.032.192.096.048.064.07.15.07.26 0 .11-.022.196-.07.26a.228.228 0 0 1-.192.095.229.229 0 0 1-.194-.095.432.432 0 0 1-.069-.26c0-.11.023-.198.07-.26a.226.226 0 0 1 .193-.096zm-1.432 2.569v1.28h.152v-.521c0-.09.023-.161.07-.213a.248.248 0 0 1 .194-.078c.068 0 .12.022.153.065.034.043.05.108.05.195v.552h.152v-.557c0-.127-.027-.223-.081-.288-.055-.066-.134-.099-.24-.099a.346.346 0 0 0-.171.041.37.37 0 0 0-.127.124v-.501zm3.38 0v1.28h.15v-1.28zm-2.307.097v.261h-.112v.118h.112v.5c0 .115.022.195.067.239.044.043.125.065.242.065h.154v-.126h-.154c-.064 0-.106-.011-.127-.033-.02-.021-.03-.07-.03-.145v-.5h.311v-.118h-.311v-.261zm1.106.24a.347.347 0 0 0-.172.039.344.344 0 0 0-.124.125v-.143h-.152v.922h.152v-.521c0-.09.023-.16.068-.212a.232.232 0 0 1 .185-.08c.065 0 .114.022.145.065.031.042.047.107.047.196v.552h.152v-.521c0-.09.023-.161.068-.213a.233.233 0 0 1 .186-.078c.064 0 .112.021.143.064a.333.333 0 0 1 .047.196v.552h.152v-.557a.457.457 0 0 0-.078-.286.264.264 0 0 0-.222-.1.35.35 0 0 0-.186.048.395.395 0 0 0-.136.15.296.296 0 0 0-.104-.148.282.282 0 0 0-.17-.05z" fill="#66efff" fill-opacity="1"/><path style="line-height:120.00000477%" d="M25.05 14.104a.428.428 0 0 0-.33.134.508.508 0 0 0-.121.358.47.47 0 0 0 .128.347.474.474 0 0 0 .35.129.837.837 0 0 0 .341-.07v-.144a.66.66 0 0 1-.332.085c-.1 0-.18-.026-.236-.08a.353.353 0 0 1-.093-.24h.697v-.074a.464.464 0 0 0-.11-.324.374.374 0 0 0-.293-.12zm1.097 0a.347.347 0 0 0-.171.042.367.367 0 0 0-.128.123v-.143h-.153v.922h.153v-.521c0-.09.023-.16.07-.212a.248.248 0 0 1 .194-.08c.068 0 .119.022.153.066.034.043.051.109.051.196v.551h.152v-.556c0-.127-.027-.224-.082-.289-.054-.066-.134-.099-.24-.099zm-1.095.129c.074 0 .134.024.18.074.045.049.068.115.07.198l-.54.001a.303.303 0 0 1 .087-.201.284.284 0 0 1 .203-.072zm8.444 5.631a.445.445 0 0 0-.289.086.285.285 0 0 0-.104.233c0 .07.02.13.06.179.04.049.096.082.167.1a.332.332 0 0 0-.188.108.303.303 0 0 0-.068.2c0 .118.036.21.109.274a.462.462 0 0 0 .313.096c.135 0 .24-.032.312-.096.073-.064.11-.156.11-.275a.302.302 0 0 0-.068-.199.33.33 0 0 0-.187-.109.298.298 0 0 0 .165-.1.273.273 0 0 0 .06-.178.285.285 0 0 0-.104-.233.443.443 0 0 0-.288-.086zm-4.235.023v.767c0 .16.04.28.118.362.08.082.197.124.353.124.155 0 .271-.042.35-.124.08-.082.12-.202.12-.362v-.767h-.167v.746c0 .132-.024.226-.071.284-.048.058-.126.087-.232.087-.107 0-.184-.029-.232-.087-.048-.058-.071-.152-.071-.284v-.746zm1.084 0v.14h.436v1.088h.167v-1.089h.436v-.14zm1.2 0v1.228h.167v-.586h.487v-.14h-.487v-.363h.539v-.14zm1.95.108c.072 0 .127.02.168.055.04.035.06.085.06.149 0 .064-.02.112-.06.148a.242.242 0 0 1-.167.054.244.244 0 0 1-.168-.054.189.189 0 0 1-.06-.148.19.19 0 0 1 .06-.15.244.244 0 0 1 .168-.054zm0 .537c.08 0 .142.02.187.063.046.042.07.1.07.174a.229.229 0 0 1-.07.175.263.263 0 0 1-.186.063.263.263 0 0 1-.187-.063.228.228 0 0 1-.067-.175c0-.074.022-.132.067-.174a.263.263 0 0 1 .187-.063zm-1.061.054v.135h.443v-.135z" fill="#f8bebe"/><path style="line-height:120.00000477%" d="M20.582 22.92v1.228h.342c.237 0 .412-.048.524-.148.112-.099.168-.255.168-.467 0-.21-.057-.365-.168-.464-.112-.099-.286-.149-.524-.149zm8.067.046v.261h-.112v.118h.112v.5c0 .116.023.195.067.24.044.043.125.063.242.063h.155v-.126h-.155c-.063 0-.106-.01-.126-.032-.02-.021-.031-.07-.031-.145v-.5h.312v-.118H28.8v-.261zm-7.9.09h.2c.17 0 .294.04.372.116.08.076.119.197.119.361 0 .166-.04.287-.119.364-.078.076-.202.115-.372.115h-.2zm1.48.149a.392.392 0 0 0-.31.128.523.523 0 0 0-.112.355c0 .151.037.27.112.357a.392.392 0 0 0 .31.128.393.393 0 0 0 .311-.128.525.525 0 0 0 .113-.357.52.52 0 0 0-.113-.355.393.393 0 0 0-.31-.128zm1.072 0a.449.449 0 0 0-.34.129.491.491 0 0 0-.123.354c0 .149.04.267.122.354a.432.432 0 0 0 .33.131.68.68 0 0 0 .276-.06v-.14a.5.5 0 0 1-.259.071.29.29 0 0 1-.229-.093.388.388 0 0 1-.08-.263c0-.112.026-.2.08-.261a.287.287 0 0 1 .23-.094.563.563 0 0 1 .259.071v-.141a.598.598 0 0 0-.266-.058zm2.043 0a.347.347 0 0 0-.172.04.344.344 0 0 0-.124.126v-.144h-.152v.922h.152v-.52c0-.09.023-.161.069-.213a.23.23 0 0 1 .184-.08c.065 0 .113.022.145.065.03.042.047.108.047.197v.551h.152v-.52c0-.09.023-.162.068-.214a.233.233 0 0 1 .186-.078c.064 0 .112.021.143.064a.333.333 0 0 1 .047.197v.551h.152v-.556a.457.457 0 0 0-.078-.287.264.264 0 0 0-.222-.101.35.35 0 0 0-.186.048.398.398 0 0 0-.136.151.296.296 0 0 0-.104-.148.283.283 0 0 0-.171-.051zm1.586 0a.426.426 0 0 0-.33.133.511.511 0 0 0-.122.36.47.47 0 0 0 .129.347.476.476 0 0 0 .35.128.841.841 0 0 0 .34-.071v-.143a.751.751 0 0 1-.162.064.66.66 0 0 1-.17.022.325.325 0 0 1-.234-.082.353.353 0 0 1-.095-.24h.697v-.073a.464.464 0 0 0-.109-.325.376.376 0 0 0-.294-.12zm1.096 0a.347.347 0 0 0-.17.041.37.37 0 0 0-.128.124v-.143h-.152v.921h.152v-.52c0-.09.024-.161.071-.213a.248.248 0 0 1 .193-.078c.069 0 .12.02.153.064.034.043.05.11.05.197v.55h.153v-.555c0-.128-.028-.224-.082-.29-.054-.065-.134-.098-.24-.098zm-4.21.022v.558c0 .127.027.223.082.29.055.065.136.098.242.098.064 0 .12-.014.168-.04a.376.376 0 0 0 .129-.126v.141h.15v-.92h-.15v.522c0 .09-.025.16-.072.213a.248.248 0 0 1-.194.078c-.068 0-.119-.022-.153-.065-.034-.044-.05-.11-.05-.197v-.552zm-1.586.106c.08 0 .145.033.192.097.047.063.07.15.07.258a.43.43 0 0 1-.07.26.228.228 0 0 1-.192.097.227.227 0 0 1-.193-.095.435.435 0 0 1-.07-.262c0-.11.023-.196.07-.26a.227.227 0 0 1 .193-.095zm4.702 0c.075 0 .135.025.18.074.045.05.068.116.069.198l-.54.001a.303.303 0 0 1 .088-.2.286.286 0 0 1 .203-.073z" fill="#f8f8f8" fill-opacity=".974"/></g></svg>