<svg xmlns:osb="http://www.openswatchbook.org/uri/2009/osb" xmlns="http://www.w3.org/2000/svg" xmlns:xlink="http://www.w3.org/1999/xlink" height="48" viewBox="0 0 48 48" width="48"><title>Template icons dark</title><defs><linearGradient id="f" osb:paint="solid"><stop offset="0"/></linearGradient><linearGradient id="c" osb:paint="solid"><stop offset="0" stop-opacity=".018"/></linearGradient><linearGradient id="e"><stop offset="0" stop-opacity=".128"/><stop offset="1" stop-opacity=".392"/></linearGradient><linearGradient id="a"><stop offset="0" stop-color="#66a3e2"/><stop offset="1" stop-color="#69a5e3"/></linearGradient><linearGradient id="b" osb:paint="solid"><stop offset="0" stop-color="#525e7d"/></linearGradient><linearGradient id="d"><stop offset="0" stop-opacity="0"/><stop offset=".25" stop-opacity=".091"/><stop offset="1" stop-opacity="0"/></linearGradient><linearGradient id="j" osb:paint="solid"><stop offset="0" stop-color="#4b78a7"/></linearGradient><linearGradient id="g"><stop offset="0" stop-color="#404552" stop-opacity="0"/><stop offset="1" stop-color="#404552" stop-opacity=".839"/></linearGradient><linearGradient id="h"><stop offset="0" stop-color="#404552" stop-opacity=".036"/><stop offset="1" stop-color="#404552" stop-opacity=".979"/></linearGradient><linearGradient id="i"><stop offset="0" stop-color="#828282"/><stop offset=".253" stop-color="#fff"/><stop offset=".522" stop-color="#717171"/><stop offset=".785" stop-color="#717171"/><stop offset="1" stop-color="#4c4c4c"/></linearGradient><linearGradient xlink:href="#c" id="k" gradientUnits="userSpaceOnUse" gradientTransform="matrix(1.01967 0 0 1.03029 374.062 -69.829)" x1="64.666" y1="133.777" x2="88.203" y2="133.777"/><linearGradient xlink:href="#b" id="l" gradientUnits="userSpaceOnUse" gradientTransform="matrix(1.01967 0 0 1.03029 374.062 -69.829)" x1="64.666" y1="133.777" x2="88.203" y2="133.777"/><linearGradient xlink:href="#d" id="m" gradientUnits="userSpaceOnUse" gradientTransform="translate(432)" x1="13" y1="17" x2="13" y2="11"/><linearGradient xlink:href="#a" id="n" gradientUnits="userSpaceOnUse" gradientTransform="translate(432)" x1="32" y1="9" x2="32" y2="43.691"/><linearGradient gradientTransform="matrix(-.49192 0 0 .49192 1007.116 -54.371)" xlink:href="#g" id="t" x1="1135" y1="205.5" x2="1140" y2="205.5" gradientUnits="userSpaceOnUse"/><linearGradient gradientTransform="matrix(.49192 0 0 .49192 -94.793 -54.371)" xlink:href="#h" id="s" x1="1135" y1="205.5" x2="1140" y2="205.5" gradientUnits="userSpaceOnUse"/><linearGradient gradientTransform="matrix(.49192 0 0 .49192 -94.793 -54.371)" xlink:href="#i" id="r" gradientUnits="userSpaceOnUse" x1="1134" y1="205" x2="1134" y2="206"/><linearGradient gradientTransform="matrix(.49192 0 0 .49192 -94.793 -54.371)" xlink:href="#i" id="q" gradientUnits="userSpaceOnUse" x1="1108" y1="205" x2="1108" y2="206.142"/><linearGradient gradientTransform="matrix(.49192 0 0 .49192 -94.793 -54.371)" xlink:href="#i" id="p" gradientUnits="userSpaceOnUse" x1="1118" y1="202" x2="1121.953" y2="202"/><linearGradient gradientTransform="matrix(.49192 0 0 .49192 -94.793 -54.371)" xlink:href="#i" id="o" gradientUnits="userSpaceOnUse" x1="1120" y1="204" x2="1120" y2="207"/></defs><path style="marker:none" d="M435 3c-1 0-2 1-2 2v38c0 1 1 2 2 2 13.214-.033 41 0 42 0s2-.997 2-2V10c0-1-1-2-2-2h-19l-6-5z" fill="url(#k)" paint-order="fill markers stroke" transform="translate(-432)"/><path d="M436 4c-1 0-2 1-2 2v36c0 1 1 2 2 2h40c1 0 2-.997 2-2V11c0-1-1-2-2-2h-18l-6-5z" style="marker:none" fill="url(#l)" paint-order="fill markers stroke" transform="translate(-432)"/><path d="M436 4c-1 0-2 1-2 2v36c0 1 1 2 2 2h40c1 0 2-.997 2-2V11c0-1-1-2-2-2h-18l-6-5z" fill="url(#m)" transform="translate(-432)"/><path d="M476 9c1 0 2 1 2 2v31c0 1-1 2-2 2h-40c-1 0-2-.997-2-2V16c0-1 1-2 2-2h16l6-5z" style="marker:none" fill="url(#n)" paint-order="fill markers stroke" transform="translate(-432)"/><path d="M4 4C3 4 2 5 2 6v.309c0-1 1-1.672 2-1.674h16l6 5V9l-6-5z" fill="#fff" fill-opacity=".328"/><path d="M26 9l-6 5H4c-1 0-2 1-2 2v.234c0-1 1-1.734 2-1.734h16l6-5h18c1 0 2 .734 2 1.734V11c0-1-1-2-2-2z" fill="#fff" fill-opacity=".37"/><path style="isolation:auto;mix-blend-mode:normal;marker:none" d="M6.042 7h11.93c.571 0 1.042.31 1.042 1.5 0 .818-.465 1.476-1.042 1.476H6.042C5.465 9.976 5 9.318 5 8.5 5 7.684 5.465 7 6.042 7z" color="#000" display="block" overflow="visible" fill-opacity=".078" paint-order="fill markers stroke"/><path style="isolation:auto;mix-blend-mode:normal;marker:none" d="M6.042 7A1.04 1.04 0 0 0 5 8.043c0 .058.008.113.017.169a1.037 1.037 0 0 1 1.025-.873h11.93c.519 0 .952.427 1.024.873.01-.056.018-.111.018-.17A1.04 1.04 0 0 0 17.972 7z" color="#000" display="block" overflow="visible" fill-opacity=".157" paint-order="fill markers stroke"/><path d="M17.972 9.96a1.04 1.04 0 0 0 1.042-1.042c0-.058-.008-.114-.018-.17a1.037 1.037 0 0 1-1.024.874H6.042c-.52 0-.944-.378-1.025-.873A1.044 1.044 0 0 0 5 8.918 1.04 1.04 0 0 0 6.042 9.96z" style="isolation:auto;mix-blend-mode:normal;marker:none" color="#000" display="block" overflow="visible" fill="#e7e7e7" fill-opacity=".235" paint-order="fill markers stroke"/><path style="isolation:auto;mix-blend-mode:normal;marker:none" d="M452.7 45.981h6.922c.263 0 .475.212.475.475v1.018a.474.474 0 0 1-.475.475h-6.921a.474.474 0 0 1-.475-.475v-1.018c0-.263.212-.475.475-.475z" color="#000" display="block" overflow="visible" fill="url(#o)" transform="translate(-432)"/><path style="isolation:auto;mix-blend-mode:normal;marker:none" d="M454.686 43.998h2.951v2.272s-.973.214-1.468.214c-.5 0-1.483-.214-1.483-.214z" color="#000" display="block" overflow="visible" fill="url(#p)" transform="translate(-432)"/><path style="isolation:auto;mix-blend-mode:normal;marker:none" d="M446.323 46.473h5.903v.984h-5.903z" color="#000" display="block" overflow="visible" fill="url(#q)" transform="translate(-432)"/><path style="isolation:auto;mix-blend-mode:normal;marker:none" d="M460.097 46.473H466v.984h-5.903z" color="#000" display="block" overflow="visible" fill="url(#r)" transform="translate(-432)"/><path style="isolation:auto;mix-blend-mode:normal;marker:none" d="M28.097 46.473h.492v.984h-.492z" color="#000" display="block" overflow="visible" fill-opacity=".406"/><path d="M22.678 45.243s.535.192 1.47.193c.935 0 1.482-.193 1.482-.193v1.016s-.508.214-1.468.214c-.961 0-1.484-.214-1.484-.214z" style="isolation:auto;mix-blend-mode:normal;marker:none" color="#000" display="block" overflow="visible" fill-opacity=".26"/><path style="isolation:auto;mix-blend-mode:normal;marker:none" d="M19.734 46.473h.492v.984h-.492z" color="#000" display="block" overflow="visible" fill-opacity=".406"/><path style="isolation:auto;mix-blend-mode:normal;marker:none" d="M463.54 46.473H466v.984h-2.46z" color="#000" display="block" overflow="visible" fill="url(#s)" transform="translate(-432)"/><path style="isolation:auto;mix-blend-mode:normal;marker:none" d="M448.783 46.473h-2.46v.984h2.46z" color="#000" display="block" overflow="visible" fill="url(#t)" transform="translate(-432)"/><path d="M21.508 46.016H22V48h-.492zM26.508 46.016H27V48h-.492z" style="isolation:auto;mix-blend-mode:normal;marker:none" color="#000" display="block" overflow="visible" fill-opacity=".406"/></svg>