<svg xmlns:osb="http://www.openswatchbook.org/uri/2009/osb" xmlns="http://www.w3.org/2000/svg" xmlns:xlink="http://www.w3.org/1999/xlink" height="48" viewBox="0 0 48 48" width="48"><title>Template icons dark</title><defs><linearGradient id="f" osb:paint="solid"><stop offset="0"/></linearGradient><linearGradient id="c" osb:paint="solid"><stop offset="0" stop-opacity=".018"/></linearGradient><linearGradient id="e"><stop offset="0" stop-opacity=".128"/><stop offset="1" stop-opacity=".392"/></linearGradient><linearGradient id="a"><stop offset="0" stop-color="#66a3e2"/><stop offset="1" stop-color="#69a5e3"/></linearGradient><linearGradient id="b" osb:paint="solid"><stop offset="0" stop-color="#525e7d"/></linearGradient><linearGradient id="d"><stop offset="0" stop-opacity="0"/><stop offset=".25" stop-opacity=".091"/><stop offset="1" stop-opacity="0"/></linearGradient><linearGradient id="j" osb:paint="solid"><stop offset="0" stop-color="#4b78a7"/></linearGradient><linearGradient id="g"><stop offset="0" stop-color="#404552" stop-opacity="0"/><stop offset="1" stop-color="#404552" stop-opacity=".839"/></linearGradient><linearGradient id="h"><stop offset="0" stop-color="#404552" stop-opacity=".036"/><stop offset="1" stop-color="#404552" stop-opacity=".979"/></linearGradient><linearGradient id="i"><stop offset="0" stop-color="#828282"/><stop offset=".253" stop-color="#fff"/><stop offset=".522" stop-color="#717171"/><stop offset=".785" stop-color="#717171"/><stop offset="1" stop-color="#4c4c4c"/></linearGradient><linearGradient xlink:href="#c" id="k" gradientUnits="userSpaceOnUse" gradientTransform="matrix(1.01967 0 0 1.03029 230.062 -69.829)" x1="64.666" y1="133.777" x2="88.203" y2="133.777"/><linearGradient xlink:href="#b" id="l" gradientUnits="userSpaceOnUse" gradientTransform="matrix(1.01967 0 0 1.03029 230.062 -69.829)" x1="64.666" y1="133.777" x2="88.203" y2="133.777"/><linearGradient xlink:href="#d" id="m" gradientUnits="userSpaceOnUse" gradientTransform="translate(288)" x1="13" y1="17" x2="13" y2="11"/><linearGradient xlink:href="#a" id="n" gradientUnits="userSpaceOnUse" gradientTransform="translate(288)" x1="32" y1="9" x2="32" y2="43.752"/><linearGradient xlink:href="#j" id="s" gradientUnits="userSpaceOnUse" gradientTransform="matrix(.92469 0 0 .92469 245.583 100.334)" x1="-153.424" y1="-84" x2="-129.424" y2="-84"/><linearGradient xlink:href="#j" id="r" gradientUnits="userSpaceOnUse" gradientTransform="matrix(.92469 0 0 .92469 239.788 107.084)" x1="-153.424" y1="-84" x2="-129.424" y2="-84"/><linearGradient xlink:href="#j" id="o" gradientUnits="userSpaceOnUse" gradientTransform="matrix(.92469 0 0 .92469 239.541 107.053)" x1="-153.424" y1="-84" x2="-129.424" y2="-84"/><linearGradient xlink:href="#j" id="p" gradientUnits="userSpaceOnUse" gradientTransform="matrix(.92469 0 0 .92469 239.788 107.084)" x1="-153.424" y1="-84" x2="-129.424" y2="-84"/><linearGradient xlink:href="#j" id="q" gradientUnits="userSpaceOnUse" gradientTransform="matrix(.92469 0 0 .92469 239.788 107.084)" x1="-153.424" y1="-84" x2="-129.424" y2="-84"/></defs><path d="M291 3c-1 0-2 1-2 2v38c0 1 1 2 2 2 13.214-.033 41 0 42 0s2-.997 2-2V10c0-1-1-2-2-2h-19l-6-5z" style="marker:none" fill="url(#k)" paint-order="fill markers stroke" transform="translate(-288)"/><path style="marker:none" d="M292 4c-1 0-2 1-2 2v36c0 1 1 2 2 2h40c1 0 2-.997 2-2V11c0-1-1-2-2-2h-18l-6-5z" fill="url(#l)" paint-order="fill markers stroke" transform="translate(-288)"/><path d="M292 4c-1 0-2 1-2 2v36c0 1 1 2 2 2h40c1 0 2-.997 2-2V11c0-1-1-2-2-2h-18l-6-5z" fill="url(#m)" transform="translate(-288)"/><path style="marker:none" d="M332 9c1 0 2 1 2 2v31c0 1-1 2-2 2h-40c-1 0-2-.997-2-2V16c0-1 1-2 2-2h16l6-5z" fill="url(#n)" paint-order="fill markers stroke" transform="translate(-288)"/><path d="M4 4C3 4 2 5 2 6v.309c0-1 1-1.672 2-1.674h16l6 5V9l-6-5z" fill="#fff" fill-opacity=".328"/><path d="M26 9l-6 5H4c-1 0-2 1-2 2v.234c0-1 1-1.734 2-1.734h16l6-5h18c1 0 2 .734 2 1.734V11c0-1-1-2-2-2z" fill="#fff" fill-opacity=".37"/><path d="M6.042 7h11.93c.571 0 1.042.31 1.042 1.5 0 .818-.465 1.476-1.042 1.476H6.042C5.465 9.976 5 9.318 5 8.5 5 7.684 5.465 7 6.042 7z" style="isolation:auto;mix-blend-mode:normal;marker:none" color="#000" display="block" overflow="visible" fill-opacity=".078" paint-order="fill markers stroke"/><path d="M6.042 7A1.04 1.04 0 0 0 5 8.043c0 .058.008.113.017.169a1.037 1.037 0 0 1 1.025-.873h11.93c.519 0 .952.427 1.024.873.01-.056.018-.111.018-.17A1.04 1.04 0 0 0 17.972 7z" style="isolation:auto;mix-blend-mode:normal;marker:none" color="#000" display="block" overflow="visible" fill-opacity=".157" paint-order="fill markers stroke"/><path style="isolation:auto;mix-blend-mode:normal;marker:none" d="M17.972 9.96a1.04 1.04 0 0 0 1.042-1.042c0-.058-.008-.114-.018-.17a1.037 1.037 0 0 1-1.024.874H6.042c-.52 0-.944-.378-1.025-.873A1.044 1.044 0 0 0 5 8.918 1.04 1.04 0 0 0 6.042 9.96z" color="#000" display="block" overflow="visible" fill="#e7e7e7" fill-opacity=".235" paint-order="fill markers stroke"/><path d="M302 24v16h17V24zm4 2h9.024L315 31h-9zm-3 0h2v2h-2zm13 0h2v1.976L316 28zm-13 3h2v2h-2zm13 0h2v2h-2zm-10 4h9.024L315 38h-9zm-3 0h2v2h-2zm13 0h2v2h-2zm-12.976 4H305v2h-2zM316 36h2v2h-2z" style="isolation:auto;mix-blend-mode:normal;marker:none" color="#000" display="block" overflow="visible" fill="url(#o)" paint-order="fill markers stroke" transform="translate(-288)"/><path style="isolation:auto;mix-blend-mode:normal;marker:none" d="M308.024 18L308 23h4v-4h8v14h4V18zm1 1H311v2h-2zm11.976.024l2-.024v2h-2zM321 22h2v2h-2zm0 5h2v2h-2zm0 3h2v2h-2z" color="#000" display="block" overflow="visible" fill="url(#p)" paint-order="fill markers stroke" transform="translate(-288)"/><path d="M307 34h7v3h-7z" style="isolation:auto;mix-blend-mode:normal;marker:none" color="#000" overflow="visible" opacity=".3" fill="url(#q)" paint-order="fill markers stroke" transform="translate(-288)"/><path style="isolation:auto;mix-blend-mode:normal;marker:none" d="M307 27h7v3h-7z" color="#000" display="block" overflow="visible" opacity=".3" fill="url(#r)" paint-order="fill markers stroke" transform="translate(-288)"/><path d="M313 20h6v3h-5.976z" style="isolation:auto;mix-blend-mode:normal;marker:none" color="#000" display="block" overflow="visible" opacity=".3" fill="url(#s)" paint-order="fill markers stroke" transform="translate(-288)"/></svg>