<svg xmlns="http://www.w3.org/2000/svg" xmlns:xlink="http://www.w3.org/1999/xlink" height="48" viewBox="0 0 48 48" width="48"><title>Template icons dark</title><defs><linearGradient id="a"><stop offset="0" stop-color="#4ba8dc"/><stop offset="1" stop-color="#32b69b"/></linearGradient><radialGradient xlink:href="#a" id="b" cx="15.714" cy="18.264" fx="15.714" fy="18.264" r="21.545" gradientUnits="userSpaceOnUse" gradientTransform="matrix(1.44363 0 0 1.40984 -6.612 -7.471)"/></defs><g><path d="M44 24c0-11.045-8.955-20-20-20C12.954 4 4 12.955 4 24c0 11.046 8.954 20 20 20 11.045 0 20-8.954 20-20" fill="url(#b)" stroke-width=".027"/><path d="M5.457 31.416c.112.024.212.077.324.1 2.01.41 4.089.627 6.219.627s4.21-.216 6.219-.627a30.627 30.627 0 0 0 11.035-4.643 31.004 31.004 0 0 0 8.334-8.336 30.796 30.796 0 0 0 2.846-5.242c.064-.153.086-.325.148-.479C36.988 7.498 30.902 4 24 4 12.954 4 4 12.955 4 24c0 2.626.537 5.119 1.457 7.416z" fill="#90e2a3" fill-opacity=".505" stroke-width=".027"/><path d="M23.654 4.248l-3.485.094-3.087 1.037 2.38.812 1.82-.378.155.603.396 1.037-.713.85.158 1.696 1.108.377.713-1.98 1.345-.283 1.506-1.225-1.189-2.263zM15.84 7.002l-2.797 1.073-4.505 3.221-1.863 3.144-1.477 2.375.078 5.674.622-.306.155-2.607.542 4.064 1.554.92 1.321.995.932 1.227 1.905-.226-.31.303.419 1.533-1.004.845.336 1.455 1.84 2.915 1.086.153.922.766.668 2.99.419 1.61 2.04 3.374 2.337.65-1.533-2.107-.335-1.533 1.254-1.38 1.005-2.455 1.59-.229 1.004-2.99 1.254-1.073-1.087-1.38-3.848-.69-.502-1.687-1.841-.076-1.171-1.304-1.506-.077-2.008-.614-1.011.986-1.378-.832-.39-1.227-1.32-.46.388-1.302-1.242.842-.621-.46.077-2.606 2.019-.92.932.154.234 1.762.932-.153.232-2.913 1.554-.46v-1.38l1.787-1.38 1.94-.077-.697-1.456 2.64-.921-1.63-2.069-1.01.46-.312-1.457-1.009.306-1.476 2.913-.543-1.149-1.01-.92 2.252-1.533s1.553-.537 1.864-.537c.31 0 .932.69.932.69l1.243-.92-.389-1.074-1.552.153zm16.776.69l-1.709.23.545 2.914 1.243.154 1.242.995v-1.073L32.85 9.303l2.174 1.38.078 1.762-1.941.231-.855 1.61.855 1.456-2.02-.229.388 2.3 1.166.535 1.397-1.302.235-1.686.932.229 1.009.997-.7.996 1.165.308.39-1.15.621 1.15.775-.844.622 1.302 1.166.309-.079 1.455-1.709-.689-.387.46-2.098-.766-.543-.998-3.798.758-2.44 3.738.543 2.98 2.17 2.14 3.058-.493 1.166 1.304-.699 2.07.543 2.53-1.552 2.147-1.399 3.297 2.096-.384 3.34-3.144 1.632-2.99 1.088-3.066 1.242-1.38-1.01-.997-.931-5.444 1.087 2.07v2.685l1.01-1.151-.31-3.757-.778-2.146-.777-2.99-2.489-3.511-1.393-2.162-2.798-1.381z" fill="#207fa2" fill-opacity=".927" stroke-width=".025"/><path d="M23.512 4.28l-3.576.08-3.17.894 2.275.324 1.87-.324.325.894.407.893-.733.732.162 1.463 1.139.325.732-1.707 1.381-.243 1.545-1.056-1.22-1.951zm-8.047 1.706l-2.926 1.137-4.713 3.414-1.951 3.33-1.543 2.522.08 6.013.65-.326.165-2.764.568 4.31.164.097 1.459.877 1.385 1.056.974 1.301 1.916-.23-.293.312.409 1.625-.977.893.242 1.144.084.4 1.79 3.089 1.054.164.894.81.65 3.172.407 1.705 1.463 2.276 2.275 1.3-.974-1.543-.326-1.627 1.22-1.463.975-2.6 1.543-.243.975-3.17 1.22-1.139-1.056-1.46-3.74-.733-.083-.303-.404-1.486-1.789-.08-1.137-1.381-1.46-.082-1.954-.65-.957 1.017-1.398-.854-.407-1.3-1.382-.489.295-1 .113-.38-.88.601-.42.293-.18-.137-.471-.351.082-2.766 2.111-.974.977.164.242 1.869.974-.164.246-3.086 1.624-.489v-1.464l1.87-1.461 2.032-.082-.73-1.545 2.763-.975-1.707-2.195-1.057.488-.326-1.543-1.056.324-1.543 3.09-.569-1.22-1.058-.975 2.357-1.625s1.626-.569 1.951-.569c.325 0 .975.73.975.73l1.3-.976-.406-1.136-1.625.162zm17.555.73l-1.79.245.57 3.088 1.3.162 1.3 1.057V10.13l-1.136-1.707 2.275 1.46.082 1.872-2.031.242-.895 1.707.895 1.545-2.113-.244.406 2.437 1.217.57 1.464-1.382.243-1.787.976.244 1.057 1.055-.733 1.058.618.164.603.16.406-1.218.649 1.218.814-.894.65 1.383 1.217.324-.08 1.545-1.787-.733-.408.489-2.193-.813-.399-.742-.17-.314-3.25.732-2.521 3.738.16 1.6.166 1.65 2.438 2.356 2.52-.407 1.218 1.383-.73 2.194.568 2.681-1.625 2.276-1.465 3.496 2.195-.407 3.496-3.332 1.707-3.17 1.137-3.251 1.299-1.463-1.055-1.055-.974-5.771 1.136 2.195v2.844l1.057-1.22-.324-3.982-.815-2.275-.812-3.168-2.07-2.963-.534-.76-1.459-2.293-2.926-1.462z" fill="#f6fef6" stroke-width=".025"/><ellipse transform="matrix(.91812 -.3963 .33231 .94317 0 0)" ry="5.785" rx="23.299" cy="24.422" cx="15.769" style="isolation:auto;mix-blend-mode:normal;marker:none" color="#000" overflow="visible" fill="none" fill-opacity=".359" stroke="#000" stroke-width=".501" stroke-dasharray="1.00118278,.50059139,.25029569,.50059139" stroke-opacity=".161" paint-order="fill markers stroke"/><ellipse style="isolation:auto;mix-blend-mode:normal;marker:none" cx="31.87" cy="9.682" rx="25.284" ry="6.277" transform="matrix(.91225 .40963 -.47132 .88196 0 0)" color="#000" overflow="visible" fill="none" fill-opacity=".359" stroke="#000" stroke-width=".494" stroke-dasharray=".98738464,.49369232,.24684616,.49369232" stroke-opacity=".161" paint-order="fill markers stroke"/><ellipse transform="matrix(.3554 .93471 -.95692 .29037 0 0)" ry="6.113" rx="24.623" cy="-9.251" cx="28.915" style="isolation:auto;mix-blend-mode:normal;marker:none" color="#000" overflow="visible" fill="none" fill-opacity=".359" stroke="#000" stroke-width=".501" stroke-dasharray="1.00118278,.50059139,.25029569,.50059139" stroke-opacity=".161" paint-order="fill markers stroke"/><ellipse style="isolation:auto;mix-blend-mode:normal;marker:none" cx="7.661" cy="-28.173" rx="24.21" ry="6.011" transform="matrix(-.50039 .8658 -.82939 -.55867 0 0)" color="#000" overflow="visible" fill="none" fill-opacity=".359" stroke="#000" stroke-width=".492" stroke-dasharray=".98439841,.4921992,.2460996,.4921992" stroke-opacity=".161" paint-order="fill markers stroke"/><ellipse style="isolation:auto;mix-blend-mode:normal;marker:none" cx="15.452" cy="23.94" rx="23.299" ry="5.785" transform="matrix(.91812 -.3963 .33231 .94317 0 0)" color="#000" overflow="visible" fill="none" fill-opacity=".359" stroke="#fff" stroke-width=".501" stroke-dasharray="1.00118278,.50059139,.25029569,.50059139" paint-order="fill markers stroke"/><ellipse transform="matrix(.91225 .40963 -.47132 .88196 0 0)" ry="6.277" rx="25.284" cy="9.569" cx="31.324" style="isolation:auto;mix-blend-mode:normal;marker:none" color="#000" overflow="visible" fill="none" fill-opacity=".359" stroke="#fff" stroke-width=".494" stroke-dasharray=".98738464,.49369232,.24684616,.49369232" paint-order="fill markers stroke"/><ellipse style="isolation:auto;mix-blend-mode:normal;marker:none" cx="28.469" cy="-8.945" rx="24.623" ry="6.113" transform="matrix(.3554 .93471 -.95692 .29037 0 0)" color="#000" overflow="visible" fill="none" fill-opacity=".359" stroke="#fff" stroke-width=".501" stroke-dasharray="1.00118278,.50059139,.25029569,.50059139" paint-order="fill markers stroke"/><ellipse transform="matrix(-.50039 .8658 -.82939 -.55867 0 0)" ry="6.011" rx="24.21" cy="-27.626" cx="7.64" style="isolation:auto;mix-blend-mode:normal;marker:none" color="#000" overflow="visible" fill="none" fill-opacity=".359" stroke="#fff" stroke-width=".492" stroke-dasharray=".98439841,.4921992,.2460996,.4921992" paint-order="fill markers stroke"/></g></svg>