<svg xmlns="http://www.w3.org/2000/svg" height="48" viewBox="0 0 48 48" width="48"><title>Template icons dark</title><g><path fill="none" stroke-width=".375" d="M0 0h48v48H0z"/><rect ry="1.231" rx="1.32" width="36" height="41" x="6" y="4" fill="#636a78" stroke-width=".478" stroke-opacity=".267"/><rect y="3.5" x="5.5" height="42" width="37" rx="2" ry="2" fill="none" stroke="#272a2f" stroke-opacity=".784"/><path d="M8.494 5.506c-.554 0-1 .446-1 1v4c0 .554.446 1 1 1h31.012c.554 0 1-.446 1-1v-4c0-.554-.446-1-1-1zm0 8.006c-.554 0-1 .446-1 1v4c0 .554.446 1 1 1h31.012c.554 0 1-.446 1-1v-4c0-.554-.446-1-1-1zm0 8c-.554 0-1 .446-1 1v4c0 .554.446 1 1 1h31.012c.554 0 1-.446 1-1v-4c0-.554-.446-1-1-1zm-.006 8c-.554 0-1 .446-1 1v4c0 .554.446 1 1 1H39.5c.554 0 1-.446 1-1v-4c0-.554-.446-1-1-1zm.006 8c-.554 0-1 .446-1 1v4c0 .554.446 1 1 1h31.012c.554 0 1-.446 1-1v-4c0-.554-.446-1-1-1z" fill-opacity=".157" stroke="#484e57"/><path d="M9 7v3h1V7zm2 0v3h1V7zm2 0v3h1V7zm2 0v3h1V7zm-6 8.006v3h1v-3zm2 0v3h1v-3zm2 0v3h1v-3zm2 0v3h1v-3zm-6 8v3h1v-3zm2 0v3h1v-3zm2 0v3h1v-3zm2 0v3h1v-3zm-6.006 8v3h1v-3zm2 0v3h1v-3zm2 0v3h1v-3zm2 0v3h1v-3zm-5.994 8v3h1v-3zm2 0v3h1v-3zm2 0v3h1v-3zm2 0v3h1v-3zM37.465 8a.5.5 0 0 0-.465.5.5.5 0 0 0 .5.5.5.5 0 0 0 .5-.5.5.5 0 0 0-.5-.5.5.5 0 0 0-.035 0zm0 8.006a.5.5 0 0 0-.465.5.5.5 0 0 0 .5.5.5.5 0 0 0 .5-.5.5.5 0 0 0-.5-.5.5.5 0 0 0-.035 0zm0 8a.5.5 0 0 0-.465.5.5.5 0 0 0 .5.5.5.5 0 0 0 .5-.5.5.5 0 0 0-.5-.5.5.5 0 0 0-.035 0zm-.006 8a.5.5 0 0 0-.465.5.5.5 0 0 0 .5.5.5.5 0 0 0 .5-.5.5.5 0 0 0-.5-.5.5.5 0 0 0-.035 0zm.006 8a.5.5 0 0 0-.465.5.5.5 0 0 0 .5.5.5.5 0 0 0 .5-.5.5.5 0 0 0-.5-.5.5.5 0 0 0-.035 0z" fill-opacity=".296" stroke-width=".367" stroke-opacity=".784"/><path d="M31.465 8a.5.5 0 0 0-.465.5.5.5 0 0 0 .5.5.5.5 0 0 0 .5-.5.5.5 0 0 0-.5-.5.5.5 0 0 0-.035 0zm2 0a.5.5 0 0 0-.465.5.5.5 0 0 0 .5.5.5.5 0 0 0 .5-.5.5.5 0 0 0-.5-.5.5.5 0 0 0-.035 0zm2 0a.5.5 0 0 0-.465.5.5.5 0 0 0 .5.5.5.5 0 0 0 .5-.5.5.5 0 0 0-.5-.5.5.5 0 0 0-.035 0zm-4 8.006a.5.5 0 0 0-.465.5.5.5 0 0 0 .5.5.5.5 0 0 0 .5-.5.5.5 0 0 0-.5-.5.5.5 0 0 0-.035 0zm2 0a.5.5 0 0 0-.465.5.5.5 0 0 0 .5.5.5.5 0 0 0 .5-.5.5.5 0 0 0-.5-.5.5.5 0 0 0-.035 0zm2 0a.5.5 0 0 0-.465.5.5.5 0 0 0 .5.5.5.5 0 0 0 .5-.5.5.5 0 0 0-.5-.5.5.5 0 0 0-.035 0zm-4 8a.5.5 0 0 0-.465.5.5.5 0 0 0 .5.5.5.5 0 0 0 .5-.5.5.5 0 0 0-.5-.5.5.5 0 0 0-.035 0zm2 0a.5.5 0 0 0-.465.5.5.5 0 0 0 .5.5.5.5 0 0 0 .5-.5.5.5 0 0 0-.5-.5.5.5 0 0 0-.035 0zm2 0a.5.5 0 0 0-.465.5.5.5 0 0 0 .5.5.5.5 0 0 0 .5-.5.5.5 0 0 0-.5-.5.5.5 0 0 0-.035 0zm-4.006 8a.5.5 0 0 0-.465.5.5.5 0 0 0 .5.5.5.5 0 0 0 .5-.5.5.5 0 0 0-.5-.5.5.5 0 0 0-.035 0zm2 0a.5.5 0 0 0-.465.5.5.5 0 0 0 .5.5.5.5 0 0 0 .5-.5.5.5 0 0 0-.5-.5.5.5 0 0 0-.035 0zm2 0a.5.5 0 0 0-.465.5.5.5 0 0 0 .5.5.5.5 0 0 0 .5-.5.5.5 0 0 0-.5-.5.5.5 0 0 0-.035 0zm-3.994 8a.5.5 0 0 0-.465.5.5.5 0 0 0 .5.5.5.5 0 0 0 .5-.5.5.5 0 0 0-.5-.5.5.5 0 0 0-.035 0zm2 0a.5.5 0 0 0-.465.5.5.5 0 0 0 .5.5.5.5 0 0 0 .5-.5.5.5 0 0 0-.5-.5.5.5 0 0 0-.035 0zm2 0a.5.5 0 0 0-.465.5.5.5 0 0 0 .5.5.5.5 0 0 0 .5-.5.5.5 0 0 0-.5-.5.5.5 0 0 0-.035 0z" fill="#6be3e7" stroke-width=".367" stroke-opacity=".784"/><path d="M18 7v3h12V7zm0 8.006v3h12v-3zm0 8v3h12v-3zm-.006 8v3h12v-3zm.006 8v3h12v-3z" fill-opacity=".176" stroke-width=".367" stroke-opacity=".784"/></g></svg>