<svg xmlns:osb="http://www.openswatchbook.org/uri/2009/osb" xmlns="http://www.w3.org/2000/svg" xmlns:xlink="http://www.w3.org/1999/xlink" height="32" viewBox="0 0 32 32" width="32"><title>Template icons dark</title><defs><linearGradient id="h"><stop offset="0" stop-color="#f72424" stop-opacity=".066"/><stop offset="1" stop-color="#f72424" stop-opacity=".118"/></linearGradient><linearGradient id="g" osb:paint="solid"><stop offset="0" stop-opacity=".196"/></linearGradient><linearGradient id="f" osb:paint="solid"><stop offset="0" stop-color="#fff" stop-opacity=".162"/></linearGradient><linearGradient id="e" osb:paint="solid"><stop offset="0" stop-opacity=".009"/></linearGradient><linearGradient id="d" osb:paint="solid"><stop offset="0" stop-opacity=".026"/></linearGradient><linearGradient id="b"><stop offset="0" stop-color="#fa2727"/><stop offset="1" stop-color="#fb4e4e"/></linearGradient><linearGradient id="a"><stop offset="0" stop-color="#fa2727"/><stop offset="1" stop-color="#d90101"/></linearGradient><linearGradient id="c"><stop offset="0" stop-opacity="0"/><stop offset="1" stop-opacity=".102"/></linearGradient><linearGradient xlink:href="#a" id="j" gradientUnits="userSpaceOnUse" gradientTransform="matrix(.74629 0 0 .7469 -33.962 -33.796)" x1="24.117" y1="4.931" x2="24.058" y2="42.556"/><linearGradient xlink:href="#b" id="l" gradientUnits="userSpaceOnUse" gradientTransform="matrix(.8529 0 0 .7469 -37.49 -33.878)" x1="28.713" y1="15.703" x2="25.196" y2="18.581"/><linearGradient xlink:href="#d" id="i" x1="126" y1="161.5" x2="194" y2="161.5" gradientUnits="userSpaceOnUse"/><linearGradient xlink:href="#g" id="k" x1="166" y1="133.472" x2="193" y2="133.472" gradientUnits="userSpaceOnUse"/></defs><path style="isolation:auto;mix-blend-mode:normal;marker:none" d="M-28-31h15l9 9v21h-24z" color="#000" overflow="visible" fill="url(#i)" stroke-width=".852" paint-order="fill markers stroke" transform="translate(32 32)"/><path d="M-27-30h14l8 8v20h-22z" style="isolation:auto;mix-blend-mode:normal;marker:none" color="#000" overflow="visible" fill="url(#j)" stroke-width=".282" paint-order="fill markers stroke" transform="translate(32 32)"/><path d="M-13-30l8 8v1h-9v-9z" fill="url(#k)" fill-rule="evenodd" stroke-width="2.195" transform="translate(32 32)"/><path d="M-13-30l8 8h-8z" fill="url(#l)" fill-rule="evenodd" stroke-width=".798" transform="translate(32 32)"/><path d="M22.948 18.717c-.27-.267-.87-.408-1.781-.42a14.76 14.76 0 0 0-2.142.157c-.35-.201-.71-.421-.993-.686-.761-.71-1.397-1.698-1.793-2.783.026-.101.048-.19.068-.281 0 0 .429-2.436.315-3.26a.952.952 0 0 0-.055-.234l-.037-.095c-.117-.27-.346-.555-.704-.539l-.21-.007h-.007c-.4 0-.725.205-.81.51-.261.96.007 2.394.494 4.251l-.125.303c-.348.849-.784 1.704-1.17 2.458l-.05.098a41.28 41.28 0 0 1-1.105 2.036l-.344.182c-.025.013-.615.325-.753.408-1.173.7-1.95 1.496-2.08 2.127-.04.201-.01.459.199.578l.333.167c.144.073.296.11.452.11.835 0 1.805-1.041 3.142-3.373 1.542-.503 3.299-.92 4.838-1.15 1.173.66 2.616 1.119 3.527 1.119.162 0 .301-.015.414-.045a.705.705 0 0 0 .412-.281c.177-.266.212-.633.164-1.008-.014-.11-.103-.248-.199-.342zm-12.48 4.445c.153-.416.756-1.24 1.648-1.97a8.42 8.42 0 0 0 .32-.296c-.932 1.488-1.556 2.08-1.967 2.266zM15.75 11c.269 0 .422.677.434 1.312.013.634-.135 1.08-.32 1.41-.152-.489-.226-1.258-.226-1.76 0 0-.01-.962.112-.962zm-1.575 8.667c.187-.335.382-.688.58-1.062.485-.917.792-1.635 1.02-2.225a7.348 7.348 0 0 0 1.682 2.09c.083.07.17.14.263.21-1.35.267-2.518.592-3.545.987zm8.514-.076c-.083.052-.318.081-.47.081-.489 0-1.094-.223-1.942-.587.326-.024.625-.036.893-.036.49 0 .635-.002 1.115.12s.486.37.404.422z" fill="#fffcfd" stroke-width=".42"/></svg>