<svg xmlns="http://www.w3.org/2000/svg" xmlns:xlink="http://www.w3.org/1999/xlink" height="32" viewBox="0 0 32 32" width="32"><title>Template icons dark</title><defs><linearGradient xlink:href="#a" id="d" x1="99.818" y1="164.367" x2="220.995" y2="164.367" gradientUnits="userSpaceOnUse"/><linearGradient id="a"><stop offset="0" stop-color="#496fa4"/><stop offset="1" stop-color="#343b41"/></linearGradient><linearGradient xlink:href="#b" id="e" x1="115.452" y1="160" x2="204.026" y2="160.174" gradientUnits="userSpaceOnUse"/><linearGradient id="b"><stop offset="0" stop-color="#2b84d0"/><stop offset="1" stop-color="#1767a9"/></linearGradient><linearGradient id="c"><stop offset="0" stop-color="#fff"/><stop offset="1" stop-color="#fff" stop-opacity="0"/></linearGradient></defs><g color="#000" transform="translate(32 32)"><path d="M-16 0l-13.856-8v-16L-16-32l13.856 8v16z" style="isolation:auto;mix-blend-mode:normal;marker:none" overflow="visible" fill-opacity=".018" stroke-width=".259"/><path style="isolation:auto;mix-blend-mode:normal;marker:none" d="M192.612 192.612l-44.549 11.936-32.611-32.611 11.936-44.549 44.549-11.936 32.611 32.611z" transform="scale(.32549) rotate(45 309.39 -197.671)" overflow="visible" fill="url(#d)" stroke-width=".068"/><path transform="rotate(45 82.922 -56.975) scale(.26039)" d="M192.612 192.612l-44.549 11.936-32.611-32.611 11.936-44.549 44.549-11.936 32.611 32.611z" style="isolation:auto;mix-blend-mode:normal;marker:none" overflow="visible" fill="url(#e)" stroke-width=".068"/><path style="isolation:auto;mix-blend-mode:normal;marker:none" d="M-26.4-10.398v-12.01l10.4-6.004 10.4 6.005z" overflow="visible" fill="#fff" fill-opacity=".058" stroke-width=".018"/><path style="isolation:auto;mix-blend-mode:normal;marker:none" d="M-16-28.412l-10.4 6.005v1.598l10.4-6.004 10.4 6.004v-1.598z" overflow="visible" fill-opacity=".466" stroke-width=".018"/><path style="isolation:auto;mix-blend-mode:normal;marker:none" d="M-26.4-11.13v.734L-16-4.391l10.4-6.005v-.734L-16-5.125z" overflow="visible" fill="#faf8fb" fill-opacity=".349" stroke-width=".018"/><path style="isolation:auto;mix-blend-mode:normal;marker:none" d="M-16-31.414l-13 7.506v.32l13-7.507 13 7.506v-.32z" overflow="visible" fill="#fff" fill-opacity=".267" stroke-width=".022"/><path style="isolation:auto;mix-blend-mode:normal;marker:none" d="M-29-8.897v.64l13 7.505 13-7.505v-.64L-16-1.39z" overflow="visible" fill="#131a20" fill-opacity=".092" stroke-width=".086"/><path d="M-16.743-21.942c-.102 0-.16.081-.185.175l-.349 1.606.01.002c-.292.085-.573.199-.84.34l-1.38-.894c-.085-.049-.183-.065-.256.007l-1.061 1.061c-.073.073-.056.17-.007.254l.874 1.36a4.495 4.495 0 0 0-.368.862l-1.571.334c-.095.025-.176.083-.176.186v1.5c0 .103.081.16.176.185l1.54.334c.09.315.214.62.37.907l-.857 1.32c-.048.084-.065.182.008.255l1.06 1.06c.073.073.17.056.255.008l1.304-.844c.294.164.605.294.928.388l.323 1.521c.025.094.083.175.186.175h1.5c.103 0 .16-.08.185-.175l.327-1.522c.318-.094.626-.224.916-.386l1.318.854c.084.05.182.066.255-.007l1.061-1.06c.073-.073.056-.171.007-.256l-.861-1.33c.15-.283.27-.58.358-.888l1.568-.337c.095-.026.176-.082.176-.185v-1.5c0-.104-.082-.16-.176-.186l-1.59-.343A4.495 4.495 0 0 0-12.07-18l.89-1.378c.05-.085.066-.183-.007-.255l-1.06-1.061c-.073-.073-.171-.056-.256-.008l-1.38.89.007.01a4.495 4.495 0 0 0-.838-.347l.004-.001-.348-1.617c-.026-.094-.082-.175-.185-.175h-1.5zM-16-18a2.109 2.109 0 1 1 0 4.217A2.109 2.109 0 0 1-16-18z" style="isolation:auto;mix-blend-mode:normal;marker:none" overflow="visible" fill="#fff" fill-opacity=".063" stroke-width=".293" stroke-linecap="round" paint-order="stroke fill markers"/><circle style="isolation:auto;mix-blend-mode:normal;marker:none" cx="-27.708" cy="-23.032" r=".625" overflow="visible" fill="#f8fbfe" fill-opacity=".55" stroke-width=".16" stroke-linejoin="round"/><circle r=".625" cy="-29.554" cx="-15.987" style="isolation:auto;mix-blend-mode:normal;marker:none" overflow="visible" fill="#f8fbfe" fill-opacity=".55" stroke-width=".16" stroke-linejoin="round"/><circle style="isolation:auto;mix-blend-mode:normal;marker:none" cx="-4.413" cy="-22.885" r=".625" overflow="visible" fill="#f8fbfe" fill-opacity=".55" stroke-width=".16" stroke-linejoin="round"/><circle r=".625" cy="-9.595" cx="-4.413" style="isolation:auto;mix-blend-mode:normal;marker:none" overflow="visible" fill="#f8fbfe" fill-opacity=".55" stroke-width=".16" stroke-linejoin="round"/><circle style="isolation:auto;mix-blend-mode:normal;marker:none" cx="-16.003" cy="-3.395" r=".625" overflow="visible" fill="#f8fbfe" fill-opacity=".55" stroke-width=".16" stroke-linejoin="round"/><circle r=".625" cy="-9.546" cx="-27.659" style="isolation:auto;mix-blend-mode:normal;marker:none" overflow="visible" fill="#f8fbfe" fill-opacity=".55" stroke-width=".16" stroke-linejoin="round"/></g></svg>