<svg xmlns:osb="http://www.openswatchbook.org/uri/2009/osb" xmlns="http://www.w3.org/2000/svg" xmlns:xlink="http://www.w3.org/1999/xlink" height="32" viewBox="0 0 32 32" width="32"><title>Template icons dark</title><defs><linearGradient id="g" osb:paint="solid"><stop offset="0" stop-opacity=".196"/></linearGradient><linearGradient id="f" osb:paint="solid"><stop offset="0" stop-color="#fff" stop-opacity=".469"/></linearGradient><linearGradient id="e" osb:paint="solid"><stop offset="0" stop-opacity=".009"/></linearGradient><linearGradient id="d" osb:paint="solid"><stop offset="0" stop-opacity=".022"/></linearGradient><linearGradient id="b"><stop offset="0" stop-color="#92cbd1"/><stop offset="1" stop-color="#41bda9"/></linearGradient><linearGradient id="a"><stop offset="0" stop-color="#44e9b3"/><stop offset="1" stop-color="#43a8ce"/></linearGradient><linearGradient id="c"><stop offset="0" stop-opacity="0"/><stop offset="1" stop-opacity=".102"/></linearGradient><linearGradient xlink:href="#a" id="i" gradientUnits="userSpaceOnUse" gradientTransform="matrix(.74629 0 0 .7469 -33.962 -33.796)" x1="24.117" y1="4.931" x2="24.058" y2="42.556"/><linearGradient xlink:href="#b" id="k" gradientUnits="userSpaceOnUse" gradientTransform="matrix(.8529 0 0 .7469 -37.49 -33.878)" x1="28.713" y1="15.703" x2="25.196" y2="18.581"/><linearGradient xlink:href="#d" id="h" x1="126" y1="161.5" x2="194" y2="161.5" gradientUnits="userSpaceOnUse"/><linearGradient xlink:href="#g" id="j" x1="166" y1="133.472" x2="193" y2="133.472" gradientUnits="userSpaceOnUse"/></defs><path style="isolation:auto;mix-blend-mode:normal;marker:none" d="M-28-31h15l9 9v21h-24z" color="#000" overflow="visible" fill="url(#h)" stroke-width=".852" paint-order="fill markers stroke" transform="translate(32 32)"/><path d="M-27-30h14l8 8v20h-22z" style="isolation:auto;mix-blend-mode:normal;marker:none" color="#000" overflow="visible" fill="url(#i)" stroke-width=".282" paint-order="fill markers stroke" transform="translate(32 32)"/><path d="M-13-30l8 8v1h-9v-9z" fill="url(#j)" fill-rule="evenodd" stroke-width="2.195" transform="translate(32 32)"/><path d="M-13-30l8 8h-8z" fill="url(#k)" fill-rule="evenodd" stroke-width=".798" transform="translate(32 32)"/><path d="M5.367 16.588s2.674-2.92 5.348-2.92 8.022 4.815 10.696 4.815c2.674 0 5.348-1.895 5.348-1.895" fill="none" fill-rule="evenodd" stroke="#fff" stroke-width=".625" stroke-opacity=".74"/><path d="M5.69 19.13s7.032-3.767 10.59-3.53c3.558.237 5.188 4.095 6.89 4.055 1.704-.04 2.894-1.274 2.894-1.274" fill="none" fill-rule="evenodd" stroke="#fff" stroke-width=".625" stroke-opacity=".74"/><path d="M5.69 21.13s11.265-3.866 14.142-3.215c2.878.652 2.751 2.03 6.232 2.466" fill="none" fill-rule="evenodd" stroke="#fff" stroke-width=".625" stroke-opacity=".74"/><path d="M5.69 21.13s4.591-.916 7.709-.452c3.117.465 8.049 4.09 12.459-1.288" fill="none" fill-rule="evenodd" stroke="#fff" stroke-width=".625" stroke-opacity=".74"/></svg>