<svg xmlns:osb="http://www.openswatchbook.org/uri/2009/osb" xmlns="http://www.w3.org/2000/svg" xmlns:xlink="http://www.w3.org/1999/xlink" height="32" viewBox="0 0 32 32" width="32"><title>Template icons dark</title><defs><linearGradient id="g" osb:paint="solid"><stop offset="0" stop-opacity=".196"/></linearGradient><linearGradient id="f" osb:paint="solid"><stop offset="0" stop-color="#fff" stop-opacity=".782"/></linearGradient><linearGradient id="e" osb:paint="solid"><stop offset="0" stop-opacity="0"/></linearGradient><linearGradient id="d" osb:paint="solid"><stop offset="0" stop-opacity=".157"/></linearGradient><linearGradient id="b"><stop offset="0" stop-color="#fff"/><stop offset="1" stop-color="#dfdfdf"/></linearGradient><linearGradient id="a"><stop offset="0" stop-color="#f0f0f0"/><stop offset="1" stop-color="#fff"/></linearGradient><linearGradient id="c"><stop offset="0" stop-opacity="0"/><stop offset="1" stop-opacity=".038"/></linearGradient><linearGradient xlink:href="#a" id="j" gradientUnits="userSpaceOnUse" gradientTransform="matrix(.74629 0 0 .7469 -33.962 -33.796)" x1="24.117" y1="4.931" x2="24.058" y2="42.556"/><linearGradient xlink:href="#b" id="l" gradientUnits="userSpaceOnUse" gradientTransform="matrix(.8529 0 0 .7469 -37.49 -33.878)" x1="28.713" y1="15.703" x2="25.196" y2="18.581"/><linearGradient xlink:href="#d" id="i" x1="126" y1="161.5" x2="194" y2="161.5" gradientUnits="userSpaceOnUse"/><linearGradient xlink:href="#g" id="k" x1="166" y1="133.472" x2="193" y2="133.472" gradientUnits="userSpaceOnUse"/><linearGradient gradientTransform="matrix(.33418 0 0 .34278 -69.503 -71.571)" xlink:href="#h" id="m" gradientUnits="userSpaceOnUse" x1="188" y1="173.5" x2="189" y2="173.5"/><linearGradient id="h" osb:paint="solid"><stop offset="0" stop-opacity=".084"/></linearGradient></defs><path style="isolation:auto;mix-blend-mode:normal;marker:none" d="M-28-31h15l9 9v21h-24z" color="#000" overflow="visible" fill="url(#i)" stroke-width=".852" paint-order="fill markers stroke" transform="translate(32 32)"/><path d="M-27-30h14l8 8v20h-22z" style="isolation:auto;mix-blend-mode:normal;marker:none" color="#000" overflow="visible" fill="url(#j)" stroke-width=".282" paint-order="fill markers stroke" transform="translate(32 32)"/><path d="M-13-30l8 8v1h-9v-9z" fill="url(#k)" fill-rule="evenodd" stroke-width="2.195" transform="translate(32 32)"/><path d="M-13-30l8 8h-8z" fill="url(#l)" fill-rule="evenodd" stroke-width=".798" transform="translate(32 32)"/><path style="isolation:auto;mix-blend-mode:normal;marker:none" d="M-26.728-30.438v1.028h-.334v.343h.334v1.028h-.334v.343h.334v1.029h-.334v.342h.334v1.029h-.334v.342h.334v1.029h-.334v.343h.334v1.028h-.334v.343h.334v1.028h-.334v.343h.334v1.028h-.334v.343h.334v1.028h-.334v.343h.334v1.028h-.334v.343h.334v1.028h-.334v.343h.334v1.029h-.334v.342h.334v1.029h-.334v.342h.334v1.029h-.334v.343h.334v1.028h-.334v.343h.334v1.028h-.334v.343h.334v1.028h-.334v.343h.334v1.028h-.334v.343h.334v1.028h-.334v.343h.334v1.028h-.334v.343h.334v1.029h.334v-1.029h1.002v1.029h.335v-1.029h1.002v1.029h.334v-1.029h1.003v1.029h.334v-1.029h1.003v1.029h.334v-1.029h1.002v1.029h.335v-1.029h1.002v1.029h.334v-1.029h1.003v1.029h.334v-1.029h1.003v1.029h.334v-1.029h1.002v1.029h.334v-1.029h1.003v1.029h.334v-1.029h1.003v1.029h.334v-1.029h1.002v1.029h.335v-1.029h1.002v.996h.334v-.996h1.003v1.029h.334v-1.029h1.003v1.029h.334v-1.029h1.336v-.343h-1.336v-1.028h1.336v-.343h-1.336v-1.028h1.336v-.343h-1.336v-1.028h1.336v-.343h-1.336V-8.5h1.336v-.343h-1.336v-1.028h1.336v-.343h-1.336v-1.028h1.336v-.343h-1.336v-1.029h1.336v-.342h-1.336v-1.029h1.336v-.342h-1.336v-1.029h1.336v-.343h-1.336v-1.028h1.336v-.343h-1.336v-1.028h1.336v-.343h-1.336v-1.028h1.336v-.343h-1.336v-1.028h1.336v-.343h-1.336v-1.028h-.334v1.028H-7.68v-1.028h-.334v1.028h-1.003v-1.06h-.334v1.06h-1.002v-1.028h-.335v1.028h-1.002v-1.028h-.334v1.028h-1.003v-9.255h-.334v1.028h-1.003v-1.028h-.334v1.028H-15.7v-1.028h-.334v1.028h-1.003v-1.028h-.334v1.028h-1.003v-1.028h-.334v1.028h-1.002v-1.028h-.335v1.028h-1.002v-1.028h-.334v1.028h-1.003v-1.028h-.334v1.028h-1.003v-1.028h-.334v1.028h-1.002v-1.028h-.335v1.028h-1.002v-1.028zm.334 1.371h1.002v1.028h-1.002zm1.337 0h1.002v1.028h-1.002zm1.336 0h1.003v1.028h-1.003zm1.337 0h1.003v1.028h-1.003zm1.337 0h1.002v1.028h-1.002zm1.337 0h1.002v1.028h-1.002zm1.336 0h1.003v1.028h-1.003zm1.337 0h1.003v1.028h-1.003zm1.337 0h1.002v1.028H-15.7zm1.336 0h1.003v1.028h-1.003zm-12.03 1.371h1.002v1.029h-1.002zm1.337 0h1.002v1.029h-1.002zm1.336 0h1.003v1.029h-1.003zm1.337 0h1.003v1.029h-1.003zm1.337 0h1.002v1.029h-1.002zm1.337 0h1.002v1.029h-1.002zm1.336 0h1.003v1.029h-1.003zm1.337 0h1.003v1.029h-1.003zm1.337 0h1.002v1.029H-15.7zm1.336 0h1.003v1.029h-1.003zm-12.03 1.371h1.002v1.029h-1.002zm1.337 0h1.002v1.029h-1.002zm1.336 0h1.003v1.029h-1.003zm1.337 0h1.003v1.029h-1.003zm1.337 0h1.002v1.029h-1.002zm1.337 0h1.002v1.029h-1.002zm1.336 0h1.003v1.029h-1.003zm1.337 0h1.003v1.029h-1.003zm1.337 0h1.002v1.029H-15.7zm1.336 0h1.003v1.029h-1.003zm-12.03 1.371h1.002v1.029h-1.002zm1.337 0h1.002v1.029h-1.002zm1.336 0h1.003v1.029h-1.003zm1.337 0h1.003v1.029h-1.003zm1.337 0h1.002v1.029h-1.002zm1.337 0h1.002v1.029h-1.002zm1.336 0h1.003v1.029h-1.003zm1.337 0h1.003v1.029h-1.003zm1.337 0h1.002v1.029H-15.7zm1.336 0h1.003v1.029h-1.003zm-12.03 1.372h1.002v1.028h-1.002zm1.337 0h1.002v1.028h-1.002zm1.336 0h1.003v1.028h-1.003zm1.337 0h1.003v1.028h-1.003zm1.337 0h1.002v1.028h-1.002zm1.337 0h1.002v1.028h-1.002zm1.336 0h1.003v1.028h-1.003zm1.337 0h1.003v1.028h-1.003zm1.337 0h1.002v1.028H-15.7zm1.336 0h1.003v1.028h-1.003zm-12.03 1.37h1.002v1.029h-1.002zm1.337 0h1.002v1.029h-1.002zm1.336 0h1.003v1.029h-1.003zm1.337 0h1.003v1.029h-1.003zm1.337 0h1.002v1.029h-1.002zm1.337 0h1.002v1.029h-1.002zm1.336 0h1.003v1.029h-1.003zm1.337 0h1.003v1.029h-1.003zm1.337 0h1.002v1.029H-15.7zm1.336 0h1.003v1.029h-1.003zm-12.03 1.372h1.002v1.028h-1.002zm1.337 0h1.002v1.028h-1.002zm1.336 0h1.003v1.028h-1.003zm1.337 0h1.003v1.028h-1.003zm1.337 0h1.002v1.028h-1.002zm1.337 0h1.002v1.028h-1.002zm1.336 0h1.003v1.028h-1.003zm1.337 0h1.003v1.028h-1.003zm1.337 0h1.002v1.028H-15.7zm1.336 0h1.003v1.028h-1.003zm1.337 0h1.003v1.028h-1.003zm1.337 0h1.002v1.028h-1.002zm1.337 0h1.002v1.028h-1.002zm1.336 0h1.003v1.028h-1.003zm1.337 0h1.003v1.028H-7.68zm-18.714 1.37h1.002v1.03h-1.002zm1.337 0h1.002v1.03h-1.002zm1.336 0h1.003v1.03h-1.003zm1.337 0h1.003v1.03h-1.003zm1.337 0h1.002v1.03h-1.002zm1.337 0h1.002v1.03h-1.002zm1.336 0h1.003v1.03h-1.003zm1.337 0h1.003v1.03h-1.003zm1.337 0h1.002v1.03H-15.7zm1.336 0h1.003v1.03h-1.003zm1.337 0h1.003v1.03h-1.003zm1.337 0h1.002v1.03h-1.002zm1.337 0h1.002v1.03h-1.002zm1.336 0h1.003v1.03h-1.003zm1.337 0h1.003v1.03H-7.68zm-18.714 1.372h1.002v1.028h-1.002zm1.337 0h1.002v1.028h-1.002zm1.336 0h1.003v1.028h-1.003zm1.337 0h1.003v1.028h-1.003zm1.337 0h1.002v1.028h-1.002zm1.337 0h1.002v1.028h-1.002zm1.336 0h1.003v1.028h-1.003zm1.337 0h1.003v1.028h-1.003zm1.337 0h1.002v1.028H-15.7zm1.336 0h1.003v1.028h-1.003zm1.337 0h1.003v1.028h-1.003zm1.337 0h1.002v1.028h-1.002zm1.337 0h1.002v1.028h-1.002zm1.336 0h1.003v1.028h-1.003zm1.337 0h1.003v1.028H-7.68zm-18.714 1.371h1.002v1.028h-1.002zm1.337 0h1.002v1.028h-1.002zm1.336 0h1.003v1.028h-1.003zm1.337 0h1.003v1.028h-1.003zm1.337 0h1.002v1.028h-1.002zm1.337 0h1.002v1.028h-1.002zm1.336 0h1.003v1.028h-1.003zm1.337 0h1.003v1.028h-1.003zm1.337 0h1.002v1.028H-15.7zm1.336 0h1.003v1.028h-1.003zm1.337 0h1.003v1.028h-1.003zm1.337 0h1.002v1.028h-1.002zm1.337 0h1.002v1.028h-1.002zm1.336 0h1.003v1.028h-1.003zm1.337 0h1.003v1.028H-7.68zm-18.714 1.371h1.002v1.029h-1.002zm1.337 0h1.002v1.029h-1.002zm1.336 0h1.003v1.029h-1.003zm1.337 0h1.003v1.029h-1.003zm1.337 0h1.002v1.029h-1.002zm1.337 0h1.002v1.029h-1.002zm1.336 0h1.003v1.029h-1.003zm1.337 0h1.003v1.029h-1.003zm1.337 0h1.002v1.029H-15.7zm1.336 0h1.003v1.029h-1.003zm1.337 0h1.003v1.029h-1.003zm1.337 0h1.002v1.029h-1.002zm1.337 0h1.002v1.029h-1.002zm1.336 0h1.003v1.029h-1.003zm1.337 0h1.003v1.029H-7.68zm-18.714 1.371h1.002v1.029h-1.002zm1.337 0h1.002v1.029h-1.002zm1.336 0h1.003v1.029h-1.003zm1.337 0h1.003v1.029h-1.003zm1.337 0h1.002v1.029h-1.002zm1.337 0h1.002v1.029h-1.002zm1.336 0h1.003v1.029h-1.003zm1.337 0h1.003v1.029h-1.003zm1.337 0h1.002v1.029H-15.7zm1.336 0h1.003v1.029h-1.003zm1.337 0h1.003v1.029h-1.003zm1.337 0h1.002v1.029h-1.002zm1.337 0h1.002v1.029h-1.002zm1.336 0h1.003v1.029h-1.003zm1.337 0h1.003v1.029H-7.68zm-18.714 1.371h1.002v1.029h-1.002zm1.337 0h1.002v1.029h-1.002zm1.336 0h1.003v1.029h-1.003zm1.337 0h1.003v1.029h-1.003zm1.337 0h1.002v1.029h-1.002zm1.337 0h1.002v1.029h-1.002zm1.336 0h1.003v1.029h-1.003zm1.337 0h1.003v1.029h-1.003zm1.337 0h1.002v1.029H-15.7zm1.336 0h1.003v1.029h-1.003zm1.337 0h1.003v1.029h-1.003zm1.337 0h1.002v1.029h-1.002zm1.337 0h1.002v1.029h-1.002zm1.336 0h1.003v1.029h-1.003zm1.337 0h1.003v1.029H-7.68zm-18.714 1.372h1.002v1.028h-1.002zm1.337 0h1.002v1.028h-1.002zm1.336 0h1.003v1.028h-1.003zm1.337 0h1.003v1.028h-1.003zm1.337 0h1.002v1.028h-1.002zm1.337 0h1.002v1.028h-1.002zm1.336 0h1.003v1.028h-1.003zm1.337 0h1.003v1.028h-1.003zm1.337 0h1.002v1.028H-15.7zm1.336 0h1.003v1.028h-1.003zm1.337 0h1.003v1.028h-1.003zm1.337 0h1.002v1.028h-1.002zm1.337 0h1.002v1.028h-1.002zm1.336 0h1.003v1.028h-1.003zm1.337 0h1.003v1.028H-7.68zm-18.714 1.37h1.002v1.029h-1.002zm1.337 0h1.002v1.029h-1.002zm1.336 0h1.003v1.029h-1.003zm1.337 0h1.003v1.029h-1.003zm1.337 0h1.002v1.029h-1.002zm1.337 0h1.002v1.029h-1.002zm1.336 0h1.003v1.029h-1.003zm1.337 0h1.003v1.029h-1.003zm1.337 0h1.002v1.029H-15.7zm1.336 0h1.003v1.029h-1.003zm1.337 0h1.003v1.029h-1.003zm1.337 0h1.002v1.029h-1.002zm1.337 0h1.002v1.029h-1.002zm1.336 0h1.003v1.029h-1.003zm1.337 0h1.003v1.029H-7.68zM-26.394-8.5h1.002v1.028h-1.002zm1.337 0h1.002v1.028h-1.002zm1.336 0h1.003v1.028h-1.003zm1.337 0h1.003v1.028h-1.003zm1.337 0h1.002v1.028h-1.002zm1.337 0h1.002v1.028h-1.002zm1.336 0h1.003v1.028h-1.003zm1.337 0h1.003v1.028h-1.003zm1.337 0h1.002v1.028H-15.7zm1.336 0h1.003v1.028h-1.003zm1.337 0h1.003v1.028h-1.003zm1.337 0h1.002v1.028h-1.002zm1.337 0h1.002v1.028h-1.002zm1.336 0h1.003v1.028h-1.003zm1.337 0h1.003v1.028H-7.68zm-18.714 1.37h1.002v1.03h-1.002zm1.337 0h1.002v1.03h-1.002zm1.336 0h1.003v1.03h-1.003zm1.337 0h1.003v1.03h-1.003zm1.337 0h1.002v1.03h-1.002zm1.337 0h1.002v1.03h-1.002zm1.336 0h1.003v1.03h-1.003zm1.337 0h1.003v1.03h-1.003zm1.337 0h1.002v1.03H-15.7zm1.336 0h1.003v1.03h-1.003zm1.337 0h1.003v1.03h-1.003zm1.337 0h1.002v1.03h-1.002zm1.337 0h1.002v1.03h-1.002zm1.336 0h1.003v1.03h-1.003zm1.337 0h1.003v1.03H-7.68zm-18.714 1.372h1.002v1.028h-1.002zm1.337 0h1.002v1.028h-1.002zm1.336 0h1.003v1.028h-1.003zm1.337 0h1.003v1.028h-1.003zm1.337 0h1.002v1.028h-1.002zm1.337 0h1.002v1.028h-1.002zm1.336 0h1.003v1.028h-1.003zm1.337 0h1.003v1.028h-1.003zm1.337 0h1.002v1.028H-15.7zm1.336 0h1.003v1.028h-1.003zm1.337 0h1.003v1.028h-1.003zm1.337 0h1.002v1.028h-1.002zm1.337 0h1.002v1.028h-1.002zm1.336 0h1.003v1.028h-1.003zm1.337 0h1.003v1.028H-7.68zm-18.714 1.371h1.002v1.028h-1.002zm1.337 0h1.002v1.028h-1.002zm1.336 0h1.003v1.028h-1.003zm1.337 0h1.003v1.028h-1.003zm1.337 0h1.002v1.028h-1.002zm1.337 0h1.002v1.028h-1.002zm1.336 0h1.003v1.028h-1.003zm1.337 0h1.003v1.028h-1.003zm1.337 0h1.002v1.028H-15.7zm1.336 0h1.003v1.028h-1.003zm1.337 0h1.003v1.028h-1.003zm1.337 0h1.002v1.028h-1.002zm1.337 0h1.002v1.028h-1.002zm1.336 0h1.003v1.028h-1.003zm1.337 0h1.003v1.028H-7.68z" color="#000" overflow="visible" opacity=".4" fill="url(#m)" stroke-width=".284" stroke-opacity=".344" paint-order="fill markers stroke" transform="translate(32 32)"/><path style="line-height:1000%" d="M16.53 17.873q-1.94 0-2.688.455-.749.456-.749 1.553 0 .875.557 1.393.566.509 1.532.509 1.331 0 2.132-.964.81-.973.81-2.58v-.366zm3.195-.678v5.704h-1.602V21.38q-.548.91-1.366 1.348-.818.429-2.001.429-1.497 0-2.385-.857-.879-.866-.879-2.312 0-1.688 1.097-2.544 1.105-.857 3.29-.857h2.244v-.161q0-1.134-.73-1.75-.723-.625-2.037-.625-.835 0-1.627.206-.792.205-1.523.616v-1.518q.879-.348 1.705-.518.827-.178 1.61-.178 2.115 0 3.16 1.125 1.044 1.124 1.044 3.41z" font-size="53.333" font-family="sans-serif" letter-spacing="0" word-spacing="0" fill="#82aad8" stroke="#82a9e5" stroke-width=".203" stroke-opacity=".995"/><path style="line-height:normal;font-variant-ligatures:normal;font-variant-position:normal;font-variant-caps:normal;font-variant-numeric:normal;font-variant-alternates:normal;font-feature-settings:normal;text-indent:0;text-align:start;text-decoration-line:none;text-decoration-style:solid;text-decoration-color:#000;text-transform:none;text-orientation:mixed;shape-padding:0;isolation:auto;mix-blend-mode:normal" d="M12.433 9.931c-.03 0-.06.003-.094.008a.939.939 0 0 0-.106.024v.092a.791.791 0 0 1 .104-.029.46.46 0 0 1 .088-.008c.05 0 .088.01.115.031.027.02.04.05.04.089 0 .038-.012.067-.039.087a.183.183 0 0 1-.112.03h-.09v.085h.086a.19.19 0 0 1 .126.038c.03.025.047.06.047.104a.13.13 0 0 1-.05.11.23.23 0 0 1-.143.039.41.41 0 0 1-.194-.05v.098a.658.658 0 0 0 .197.038c.093 0 .164-.02.214-.062a.211.211 0 0 0 .075-.173.19.19 0 0 0-.04-.123.19.19 0 0 0-.112-.065.184.184 0 0 0 .1-.06.164.164 0 0 0 .035-.107.174.174 0 0 0-.067-.143.28.28 0 0 0-.18-.053zm.702.014l-.307.48v.099h.334v.179h.099v-.18h.105v-.084h-.105v-.494zm.027.09v.404h-.253zm-2.21.782v1.371h.335v-1.371zm4.011 0v1.371h.334v-1.371zm-3.342.686v.342h2.987v-.342zm9.023 2.056v.343h1.671v-.343zm.668.646v8.61h.335v-8.61zm2.4 3.808a.213.213 0 0 0-.19.1.537.537 0 0 0-.066.293c0 .127.022.225.065.292.044.067.107.1.19.1a.212.212 0 0 0 .19-.1.538.538 0 0 0 .065-.292.534.534 0 0 0-.066-.292.212.212 0 0 0-.189-.101zm.61 0a.408.408 0 0 0-.096.012.784.784 0 0 0-.113.038v.104a.594.594 0 0 1 .112-.051.326.326 0 0 1 .099-.017.15.15 0 0 1 .107.038.128.128 0 0 1 .042.099.17.17 0 0 1-.02.075.471.471 0 0 1-.066.093 4.09 4.09 0 0 1-.124.132l-.155.162v.086h.47v-.086h-.35a61.172 61.172 0 0 0 .266-.282c.03-.038.05-.07.062-.099a.229.229 0 0 0 .017-.088.198.198 0 0 0-.068-.157.27.27 0 0 0-.183-.06zm-1.29.014l-.177.036v.094l.178-.037v.578h-.163v.086h.425v-.086h-.163v-.671zm.68.067c.05 0 .09.026.115.078a.54.54 0 0 1 .04.234.544.544 0 0 1-.04.234c-.025.052-.064.078-.116.078-.051 0-.09-.026-.116-.078a.55.55 0 0 1-.039-.234c0-.104.013-.182.039-.234.026-.052.065-.078.116-.078zm-3.068 5.063v.343h1.671v-.343zm-10.167.874v1.37h.334v-1.37zm9.662 0v1.37h.334v-1.37zm-8.852.497v.343h8.393v-.343zm4.338 1.006a.41.41 0 0 0-.095.013.78.78 0 0 0-.113.037v.104a.595.595 0 0 1 .111-.051.326.326 0 0 1 .1-.017c.044 0 .08.013.107.038a.127.127 0 0 1 .041.099c0 .024-.006.05-.019.075a.479.479 0 0 1-.067.093c-.017.02-.058.064-.123.132a20.41 20.41 0 0 0-.155.162v.086h.469v-.086h-.349l.187-.196.079-.085c.03-.038.05-.071.062-.099a.232.232 0 0 0 .017-.089.197.197 0 0 0-.068-.157.272.272 0 0 0-.184-.06zm-.644.014l-.177.036v.094l.178-.037v.578h-.163v.086h.425v-.086h-.164v-.671zm1.111 0v.38a.41.41 0 0 1 .161-.037.19.19 0 0 1 .135.046c.034.03.05.072.05.125a.162.162 0 0 1-.05.125.19.19 0 0 1-.135.046.407.407 0 0 1-.192-.048v.103a.731.731 0 0 0 .194.032.3.3 0 0 0 .21-.068.245.245 0 0 0 .074-.19.25.25 0 0 0-.073-.188.27.27 0 0 0-.196-.07.242.242 0 0 0-.086.016v-.186h.3v-.086z" color="#000" font-weight="400" font-family="sans-serif" white-space="normal" overflow="visible" fill="#5b84c4" fill-rule="evenodd" stroke-width=".338"/></svg>