<svg xmlns:osb="http://www.openswatchbook.org/uri/2009/osb" xmlns="http://www.w3.org/2000/svg" xmlns:xlink="http://www.w3.org/1999/xlink" height="32" viewBox="0 0 32 32" width="32"><title>Template icons dark</title><defs><linearGradient id="q" osb:paint="solid"><stop offset="0"/></linearGradient><linearGradient id="m"><stop offset="0" stop-color="#707070"/><stop offset="1" stop-color="#fff"/></linearGradient><linearGradient id="l"><stop offset="0" stop-color="#c1c1c1"/><stop offset="1" stop-color="#9f9f9f"/></linearGradient><linearGradient id="j"><stop offset="0" stop-color="#dfdfdf"/><stop offset=".489" stop-color="#aeaeae" stop-opacity=".459"/><stop offset="1" stop-color="#dfdfdf"/></linearGradient><linearGradient id="h" osb:paint="solid"><stop offset="0" stop-opacity=".196"/></linearGradient><linearGradient id="g" osb:paint="solid"><stop offset="0" stop-color="#fff" stop-opacity=".307"/></linearGradient><linearGradient id="f" osb:paint="solid"><stop offset="0" stop-opacity=".078"/></linearGradient><linearGradient id="e" osb:paint="solid"><stop offset="0" stop-opacity=".14"/></linearGradient><linearGradient id="b"><stop offset="0" stop-color="#fff"/><stop offset="1" stop-color="#dfdfdf"/></linearGradient><linearGradient id="a"><stop offset="0" stop-color="#f0f0f0"/><stop offset="1" stop-color="#fff"/></linearGradient><linearGradient id="d"><stop offset="0" stop-color="#fff" stop-opacity=".046"/><stop offset="1" stop-color="#fff" stop-opacity=".059"/></linearGradient><linearGradient id="c"><stop offset="0" stop-opacity="0"/><stop offset="1" stop-opacity=".018"/></linearGradient><linearGradient xlink:href="#a" id="s" gradientUnits="userSpaceOnUse" gradientTransform="matrix(.74629 0 0 .7469 -33.962 -33.796)" x1="24.117" y1="4.931" x2="24.058" y2="42.556"/><linearGradient xlink:href="#b" id="w" gradientUnits="userSpaceOnUse" gradientTransform="matrix(.8529 0 0 .7469 -37.49 -33.878)" x1="28.713" y1="15.703" x2="25.196" y2="18.581"/><linearGradient xlink:href="#e" id="r" x1="126" y1="161.5" x2="194" y2="161.5" gradientUnits="userSpaceOnUse"/><linearGradient xlink:href="#h" id="v" x1="166" y1="133.472" x2="193" y2="133.472" gradientUnits="userSpaceOnUse"/><linearGradient xlink:href="#i" id="x" x1="155.296" y1="153.204" x2="165.174" y2="153.204" gradientUnits="userSpaceOnUse"/><linearGradient id="i"><stop offset="0" stop-color="#dfdfdf"/><stop offset=".489" stop-color="silver" stop-opacity=".459"/><stop offset="1" stop-color="#dfdfdf"/></linearGradient><linearGradient xlink:href="#j" id="y" gradientUnits="userSpaceOnUse" gradientTransform="matrix(.32771 0 0 .24329 -69.875 -52.669)" x1="161.345" y1="127.591" x2="167.448" y2="127.591"/><linearGradient id="k"><stop offset="0" stop-color="#2e2e2e"/><stop offset="1" stop-color="#b7b7b7"/></linearGradient><linearGradient xlink:href="#l" id="u" x1="-15.9" y1="-6.976" x2="-15.9" y2="-14.619" gradientUnits="userSpaceOnUse"/><linearGradient xlink:href="#m" id="t" x1="-16.026" y1="-6.054" x2="-16.026" y2="-15.302" gradientUnits="userSpaceOnUse"/><linearGradient id="n"><stop offset="0" stop-color="#444"/><stop offset="1" stop-color="#ececec"/></linearGradient><linearGradient id="o"><stop offset="0" stop-color="#737373"/><stop offset="1" stop-color="#eee"/></linearGradient><linearGradient id="p"><stop offset="0" stop-color="#a7a7a7"/><stop offset=".505" stop-color="#5b5b5b"/><stop offset="1" stop-color="#303030"/></linearGradient></defs><path style="isolation:auto;mix-blend-mode:normal;marker:none" d="M-28-31h15l9 9v21h-24z" color="#000" overflow="visible" fill="url(#r)" stroke-width=".852" paint-order="fill markers stroke" transform="translate(32 32)"/><path d="M-27-30h14l8 8v20h-22z" style="isolation:auto;mix-blend-mode:normal;marker:none" color="#000" overflow="visible" fill="url(#s)" stroke-width=".282" paint-order="fill markers stroke" transform="translate(32 32)"/><path d="M19 2l1 1v17c0 1.432-1.924 3-4 3s-4-1.568-4-3V2z" style="isolation:auto;mix-blend-mode:normal;marker:none" color="#000" overflow="visible" fill-opacity=".094" stroke-width=".169" paint-order="fill markers stroke"/><path style="isolation:auto;mix-blend-mode:normal;marker:none" d="M18 2v17c0 1-1 2-2 2s-2-1-2-2V2z" color="#000" overflow="visible" fill-opacity=".848" stroke-width=".126" paint-order="fill markers stroke"/><path d="M-16.04-15.553c-.98 0-1.613.797-1.768 1.76l-.844 5.21c-.23 1.42 1.166 2.598 2.613 2.598s2.842-1.177 2.612-2.598l-.843-5.21c-.156-.963-.79-1.76-1.77-1.76zm0 1.456c.47 0 .85.378.85.845 0 .466-.38.845-.85.845a.847.847 0 0 1-.849-.845c0-.467.38-.845.85-.845zm0 3.512a1.7 1.7 0 0 1 1.706 1.696 1.7 1.7 0 0 1-1.705 1.695 1.7 1.7 0 0 1-1.706-1.695 1.7 1.7 0 0 1 1.706-1.696z" style="isolation:auto;mix-blend-mode:normal;marker:none" color="#000" display="block" overflow="visible" fill="url(#t)" stroke-width=".091" stroke-opacity=".995" paint-order="fill markers stroke" transform="translate(32 32)"/><path style="isolation:auto;mix-blend-mode:normal;marker:none" d="M-16.04-14.737c-.812 0-1.338.661-1.467 1.459l-.7 4.323c-.19 1.178.967 2.154 2.168 2.154 1.2 0 2.357-.976 2.167-2.154l-.7-4.323c-.129-.798-.654-1.459-1.467-1.459zm0 .768a.71.71 0 0 1 .712.708.71.71 0 0 1-.711.708.71.71 0 0 1-.712-.708.71.71 0 0 1 .712-.708zm0 3.626c.764 0 1.382.615 1.382 1.374 0 .758-.618 1.373-1.381 1.373a1.378 1.378 0 0 1-1.383-1.373c0-.76.62-1.374 1.383-1.374z" color="#000" display="block" overflow="visible" fill="url(#u)" stroke-width=".075" stroke-opacity=".995" paint-order="fill markers stroke" transform="translate(32 32)"/><path d="M-13-30l8 8v1h-9v-9z" fill="url(#v)" fill-rule="evenodd" stroke-width="2.195" transform="translate(32 32)"/><path d="M-13-30l8 8h-8z" fill="url(#w)" fill-rule="evenodd" stroke-width=".798" transform="translate(32 32)"/><path style="isolation:auto;mix-blend-mode:normal;marker:none" d="M-16-30v1h1v-1zm0 1h-1v1h1zm0 1v1h1v-1zm0 1h-1v1h1zm0 1v1h1v-1zm0 1h-1v1h1zm0 1v1h1v-1zm0 1h-1v1h1zm0 1v1h1v-1zm0 1h-1v1h1zm0 1v1h1v-1zm0 1h-1v1h1zm0 1v1h1v-1zm0 1h-1v1h1z" transform="matrix(1 0 0 1 32 32)" color="#000" display="block" overflow="visible" fill="url(#y)" stroke-width=".185" stroke-opacity=".957" paint-order="fill markers stroke"/></svg>