<svg xmlns:osb="http://www.openswatchbook.org/uri/2009/osb" xmlns="http://www.w3.org/2000/svg" xmlns:xlink="http://www.w3.org/1999/xlink" height="32" viewBox="0 0 32 32" width="32"><title>Template icons dark</title><defs><linearGradient id="g" osb:paint="solid"><stop offset="0" stop-opacity=".196"/></linearGradient><linearGradient id="f" osb:paint="solid"><stop offset="0" stop-color="#fff" stop-opacity=".052"/></linearGradient><linearGradient id="e" osb:paint="solid"><stop offset="0" stop-opacity=".009"/></linearGradient><linearGradient id="d" osb:paint="solid"><stop offset="0" stop-opacity=".022"/></linearGradient><linearGradient id="b"><stop offset="0" stop-color="#525764"/><stop offset="1" stop-color="#464c57"/></linearGradient><linearGradient id="a"><stop offset="0" stop-color="#494f5a"/><stop offset="1" stop-color="#494e5a"/></linearGradient><linearGradient id="c"><stop offset="0" stop-opacity="0"/><stop offset="1" stop-opacity=".102"/></linearGradient><linearGradient xlink:href="#a" id="i" gradientUnits="userSpaceOnUse" gradientTransform="matrix(.74629 0 0 .7469 -33.962 -33.796)" x1="24.117" y1="4.931" x2="24.058" y2="42.556"/><linearGradient xlink:href="#b" id="k" gradientUnits="userSpaceOnUse" gradientTransform="matrix(.8529 0 0 .7469 -37.49 -33.878)" x1="28.713" y1="15.703" x2="25.196" y2="18.581"/><linearGradient xlink:href="#d" id="h" x1="126" y1="161.5" x2="194" y2="161.5" gradientUnits="userSpaceOnUse"/><linearGradient xlink:href="#g" id="j" x1="166" y1="133.472" x2="193" y2="133.472" gradientUnits="userSpaceOnUse"/></defs><path style="isolation:auto;mix-blend-mode:normal;marker:none" d="M-28-31h15l9 9v21h-24z" color="#000" overflow="visible" fill="url(#h)" stroke-width=".852" paint-order="fill markers stroke" transform="translate(32 32)"/><path d="M-27-30h14l8 8v20h-22z" style="isolation:auto;mix-blend-mode:normal;marker:none" color="#000" overflow="visible" fill="url(#i)" stroke-width=".282" paint-order="fill markers stroke" transform="translate(32 32)"/><path d="M-13-30l8 8v1h-9v-9z" fill="url(#j)" fill-rule="evenodd" stroke-width="2.195" transform="translate(32 32)"/><path d="M-13-30l8 8h-8z" fill="url(#k)" fill-rule="evenodd" stroke-width=".798" transform="translate(32 32)"/><path style="line-height:120.00000477%;isolation:auto;mix-blend-mode:normal;marker:none" color="#000" font-size="2.667" font-family="sans-serif" letter-spacing="0" word-spacing="0" overflow="visible" fill="#121823" fill-opacity=".11" stroke-width=".215" paint-order="fill markers stroke" d="M4.976 2H8v28H4.976z"/><text style="line-height:162.99999952%;text-align:end" x="-24.51" y="-24.154" font-size="1.35" font-family="sans-serif" letter-spacing="0" word-spacing="0" text-anchor="end" fill="#fff" fill-opacity=".966" stroke-width=".169" transform="translate(32 32)"><tspan x="-24.51" y="-24.154" style="line-height:162.99999952%;-inkscape-font-specification:sans-serif;text-align:end" font-weight="400">1.</tspan> <tspan x="-24.51" y="-21.954" style="line-height:162.99999952%;-inkscape-font-specification:sans-serif;text-align:end" font-weight="400">2.</tspan> <tspan x="-24.51" y="-19.753" style="line-height:162.99999952%;-inkscape-font-specification:sans-serif;text-align:end" font-weight="400">3.</tspan> <tspan x="-24.51" y="-17.553" style="line-height:162.99999952%;-inkscape-font-specification:sans-serif;text-align:end" font-weight="400">4.</tspan> <tspan x="-24.51" y="-15.352" style="line-height:162.99999952%;-inkscape-font-specification:sans-serif;text-align:end" font-weight="400">5.</tspan> <tspan x="-24.51" y="-13.152" style="line-height:162.99999952%;-inkscape-font-specification:sans-serif;text-align:end" font-weight="400">6.</tspan> <tspan x="-24.51" y="-10.951" style="line-height:162.99999952%;-inkscape-font-specification:sans-serif;text-align:end" font-weight="400">7.</tspan> <tspan x="-24.51" y="-8.751" style="line-height:162.99999952%;-inkscape-font-specification:sans-serif;text-align:end" font-weight="400">8.</tspan> <tspan x="-24.51" y="-6.55" style="line-height:162.99999952%;-inkscape-font-specification:sans-serif;text-align:end" font-weight="400">9.</tspan></text><g style="line-height:120.00000477%" font-size="2.667" font-family="sans-serif" letter-spacing="0" word-spacing="0" fill="#344f67" fill-opacity=".89" stroke-width="1.251"><path style="line-height:120.00000477%" d="M9.735 7.366l-.705.255v.091l.705.256v-.1l-.568-.2.568-.202zm6.526 1.858v.306h.093v-.306zm.207 0v.306h.094v-.306zm-6.733.167l-.705.256v.09l.705.257v-.1l-.568-.2.568-.203zm5.594.143v.093h.704v-.093zm0 .224v.094h.704v-.094zm-5.594 1.659l-.705.256v.09l.705.256v-.1l-.568-.2.568-.202zm3.05 0v.1l.566.202-.566.2v.1l.705-.255v-.091zm6.553 1.86v.304h.094v-.305zm.208 0v.304h.094v-.305zm3.596 0v.304h.093v-.305zm.207 0v.304h.094v-.305zm-12.67.165l-.705.256v.091l.704.256v-.1l-.567-.2.567-.202zm12.993 0v.1l.565.202-.565.2v.1l.704-.255v-.09zm-5.266.143v.093h.705v-.093zm0 .225v.093h.705v-.093zm2.598 1.492l-.285.925h.093l.286-.925zm-10.326.166l-.704.256v.09l.704.257v-.1l-.567-.201.567-.202zm2.44 0v.1l.565.202-.566.2v.1l.705-.255v-.091zm7.481 0l-.704.256v.09l.704.257v-.1l-.567-.201.567-.202zm2.82 0v.1l.566.202-.566.2v.1l.704-.255v-.091zm-13.28 1.86l-.285.924h.093l.286-.924zm-.404.166l-.705.255v.091l.705.256v-.1l-.568-.2.568-.202zm3.43 0v.1l.566.202-.566.2v.1l.705-.256v-.09zm-3.43 2.025l-.705.256v.092l.705.255v-.1l-.568-.2.568-.203zm3.022 0v.1l.566.202-.566.201v.1l.704-.255v-.092zm-2.617 2.535l-.286.925h.093l.286-.925zm-.405.167l-.705.255v.092l.705.255v-.1l-.568-.2.568-.202zm3.402 0v.1l.566.201-.566.202v.099l.705-.255v-.092zm-2.997 1.86l-.286.924h.093l.286-.925zm-.405.166l-.705.255v.092l.705.255v-.1l-.568-.2.568-.203zm3.184 0v.1l.566.201-.566.201v.1l.705-.255v-.092z" fill="#c3f7fe"/><path style="line-height:120.00000477%" d="M11.614 7.184a.353.353 0 0 0-.277.116.447.447 0 0 0-.103.31c0 .13.034.233.103.31.07.077.162.115.277.115a.353.353 0 0 0 .276-.115.448.448 0 0 0 .104-.31.447.447 0 0 0-.104-.31.352.352 0 0 0-.276-.116zm.907 0a.382.382 0 0 0-.294.114.437.437 0 0 0-.107.312c0 .132.036.236.107.312.072.076.17.113.294.113a.47.47 0 0 0 .26-.079V7.84a.352.352 0 0 1-.254.104c-.094 0-.166-.028-.215-.085-.05-.058-.075-.14-.075-.249 0-.108.025-.191.075-.248.05-.058.121-.087.215-.087a.351.351 0 0 1 .255.104v-.117a.472.472 0 0 0-.261-.078zm-2.497.015v.36l.011.196h.09l.01-.196v-.36zm.391 0v.82h.228c.159 0 .275-.033.35-.099.074-.066.112-.17.112-.312 0-.14-.037-.244-.112-.31-.074-.066-.19-.1-.35-.1zm2.425 0v.093h.292v.728h.112v-.728h.29v-.087l.286.424v.39h.111v-.39l.29-.43h-.118l-.227.337-.227-.337h-.115zm1.49 0v.82h.111v-.33h.14c.092 0 .161-.02.208-.061.048-.041.072-.103.072-.184 0-.08-.024-.141-.072-.183-.047-.041-.116-.062-.208-.062zm.68 0v.82h.528v-.093h-.417v-.297h.39v-.093h-.39v-.244h.407V7.2zm-3.396.076c.08 0 .144.03.191.09.048.06.072.141.072.245a.387.387 0 0 1-.072.245.23.23 0 0 1-.19.09.233.233 0 0 1-.193-.09.386.386 0 0 1-.07-.245c0-.104.022-.186.07-.246a.233.233 0 0 1 .192-.09zm-1.088.015h.134c.114 0 .196.026.249.077.053.05.079.131.079.241 0 .11-.026.192-.08.243-.052.052-.134.078-.248.078h-.134zm3.915 0h.14c.052 0 .092.014.12.04.028.027.042.065.042.114 0 .05-.014.088-.042.115-.028.027-.068.04-.12.04h-.14zm-4.417.59v.14h.112v-.14z" fill="#bb72ff" fill-opacity="1"/><path style="line-height:120.00000477%" d="M16.072 7.165v.855h.102V7.67c0-.06.016-.107.047-.142a.165.165 0 0 1 .13-.052c.045 0 .079.015.101.044.023.028.035.072.035.13v.369h.1v-.372c0-.085-.017-.15-.053-.193-.037-.044-.09-.066-.161-.066-.043 0-.08.01-.114.028a.247.247 0 0 0-.085.082v-.334zm.717.064v.175h-.074v.079h.074v.334c0 .077.015.13.044.159.03.029.084.044.162.044h.104v-.085h-.104c-.042 0-.07-.007-.084-.022-.014-.014-.02-.046-.02-.096v-.334h.208v-.08h-.208V7.23zm.74.16a.234.234 0 0 0-.116.027.226.226 0 0 0-.083.083v-.095h-.102v.616h.102V7.67c0-.06.016-.106.046-.141a.155.155 0 0 1 .123-.053c.044 0 .076.014.096.043.021.028.032.072.032.132v.368h.102V7.67c0-.06.015-.107.045-.142a.157.157 0 0 1 .125-.052c.043 0 .074.014.095.043.021.028.031.073.031.132v.368h.102v-.372a.307.307 0 0 0-.052-.191.176.176 0 0 0-.149-.068.232.232 0 0 0-.124.033.267.267 0 0 0-.09.1.197.197 0 0 0-.07-.098.187.187 0 0 0-.114-.035zM12.883 9.19v.855h.101V9.19zm.528.225a.654.654 0 0 0-.21.043v.093a.41.41 0 0 1 .2-.05c.055 0 .098.012.128.038.031.025.047.061.047.108v.01h-.142a.341.341 0 0 0-.208.053c-.046.035-.07.087-.07.156 0 .06.02.107.056.142a.21.21 0 0 0 .15.053c.05 0 .093-.009.127-.026a.223.223 0 0 0 .087-.083v.093h.1v-.35-.001c0-.094-.022-.164-.066-.21-.044-.046-.11-.07-.199-.07zm.77 0a.23.23 0 0 0-.112.028.245.245 0 0 0-.085.082v-.096h-.103v.616h.103v-.348c0-.06.015-.107.046-.142a.166.166 0 0 1 .13-.052c.045 0 .079.014.102.043.022.03.034.073.034.131v.368h.1v-.371c0-.085-.017-.15-.053-.193-.036-.044-.09-.066-.161-.066zm.626 0a.223.223 0 0 0-.182.086.356.356 0 0 0-.07.23c0 .095.024.17.07.228a.223.223 0 0 0 .182.086.207.207 0 0 0 .197-.108v.05c0 .07-.016.123-.049.157-.033.035-.083.052-.149.052a.397.397 0 0 1-.176-.047v.098a.488.488 0 0 0 .193.032c.096 0 .167-.025.213-.076.047-.051.07-.13.07-.234v-.54h-.101v.094a.207.207 0 0 0-.198-.108zm.026.084c.054 0 .096.02.126.061.03.04.046.097.046.17 0 .073-.016.13-.046.17a.149.149 0 0 1-.126.06.15.15 0 0 1-.128-.06.28.28 0 0 1-.045-.17.28.28 0 0 1 .045-.17.15.15 0 0 1 .128-.06zm-1.358.237h.1v.022a.237.237 0 0 1-.05.16.168.168 0 0 1-.135.059.142.142 0 0 1-.097-.032.11.11 0 0 1-.035-.086c0-.045.016-.077.047-.095a.36.36 0 0 1 .17-.028zm1.323 3.505v.855h.102v-.347c0-.06.016-.108.047-.142a.166.166 0 0 1 .13-.053c.045 0 .079.014.102.043.022.03.034.073.034.132v.367h.1v-.37c0-.086-.017-.15-.053-.194-.037-.044-.09-.066-.161-.066a.231.231 0 0 0-.114.028.248.248 0 0 0-.085.083v-.336zm3.15.065v.175h-.073v.079h.073v.334c0 .077.016.13.045.16.03.028.084.042.162.042h.103v-.084h-.103c-.042 0-.07-.007-.085-.022-.013-.014-.02-.046-.02-.096v-.334h.208v-.079h-.208v-.175zm-3.5.16a.3.3 0 0 0-.227.087.328.328 0 0 0-.083.236c0 .1.028.178.082.236a.288.288 0 0 0 .221.088.454.454 0 0 0 .184-.04v-.093a.402.402 0 0 1-.086.035.33.33 0 0 1-.087.012.193.193 0 0 1-.153-.062.259.259 0 0 1-.054-.176c0-.075.018-.133.054-.174a.192.192 0 0 1 .153-.063.384.384 0 0 1 .173.047v-.095a.403.403 0 0 0-.177-.038zm1.284 0a.654.654 0 0 0-.209.043v.094a.408.408 0 0 1 .2-.051c.055 0 .098.012.128.038.03.025.046.062.046.108v.01h-.142a.344.344 0 0 0-.208.053c-.046.035-.07.087-.07.157 0 .06.02.107.057.142a.21.21 0 0 0 .15.053c.05 0 .092-.009.127-.027a.223.223 0 0 0 .086-.083v.093h.1v-.35c0-.094-.021-.164-.065-.21-.044-.047-.11-.07-.2-.07zm.78 0a.26.26 0 0 0-.124.028.206.206 0 0 0-.084.083v-.096h-.101v.615h.101v-.324c0-.07.016-.122.047-.16a.161.161 0 0 1 .131-.056.18.18 0 0 1 .044.005.133.133 0 0 1 .038.015l-.001-.105-.028-.003-.023-.002zm.354 0a.282.282 0 0 0-.175.048.158.158 0 0 0-.06.133c0 .048.013.086.04.113a.275.275 0 0 0 .136.06l.036.009a.331.331 0 0 1 .121.043c.019.014.028.035.028.062 0 .03-.013.054-.038.07a.208.208 0 0 1-.11.024.419.419 0 0 1-.108-.014.562.562 0 0 1-.11-.044v.104c.039.013.077.023.112.029.036.006.07.01.104.01.079 0 .141-.017.186-.05a.16.16 0 0 0 .068-.136c0-.05-.015-.09-.045-.117a.325.325 0 0 0-.153-.066l-.035-.008a.328.328 0 0 1-.108-.037.066.066 0 0 1-.027-.056c0-.03.012-.053.037-.069a.222.222 0 0 1 .114-.023.42.42 0 0 1 .184.044v-.096a.648.648 0 0 0-.197-.033zm.65 0a.284.284 0 0 0-.22.09.341.341 0 0 0-.083.24c0 .097.029.173.086.23a.318.318 0 0 0 .234.087.561.561 0 0 0 .228-.048v-.095a.502.502 0 0 1-.222.057.217.217 0 0 1-.157-.055.236.236 0 0 1-.062-.16h.464v-.049a.31.31 0 0 0-.072-.216.25.25 0 0 0-.197-.08zm0 .086c.05 0 .09.016.12.05.031.032.046.076.047.132h-.36a.202.202 0 0 1 .058-.134.19.19 0 0 1 .136-.048zm-1.72.235h.101v.023a.237.237 0 0 1-.051.158.168.168 0 0 1-.135.06.142.142 0 0 1-.097-.031.11.11 0 0 1-.035-.086c0-.045.016-.077.047-.095a.361.361 0 0 1 .17-.029z" fill="#f3fc63"/><path style="line-height:120.00000477%" d="M9.956 9.19v.855h.102v-.348c0-.06.016-.107.047-.142a.166.166 0 0 1 .13-.052c.045 0 .079.014.102.043.022.03.033.073.033.131v.368h.102v-.371c0-.085-.019-.15-.055-.193-.036-.044-.09-.066-.16-.066a.232.232 0 0 0-.114.028.245.245 0 0 0-.085.082V9.19zm2.257 0v.855h.101V9.19zm-1.54.065v.174h-.075v.08h.075v.334c0 .077.015.13.045.159.03.029.083.043.161.043h.104v-.084h-.104c-.042 0-.07-.008-.084-.022-.014-.014-.02-.046-.02-.096v-.334h.208v-.08h-.209v-.174zm.739.16a.232.232 0 0 0-.115.027.23.23 0 0 0-.083.084v-.097h-.101v.616h.101v-.348c0-.06.016-.107.046-.142a.153.153 0 0 1 .123-.052c.043 0 .076.014.097.042.02.029.031.073.031.132v.368h.102v-.348c0-.06.015-.107.045-.142a.156.156 0 0 1 .124-.052c.043 0 .075.014.096.042.02.03.031.073.031.132v.368h.102v-.371a.307.307 0 0 0-.052-.192.176.176 0 0 0-.148-.067c-.048 0-.09.01-.125.032a.266.266 0 0 0-.09.101.197.197 0 0 0-.07-.099.189.189 0 0 0-.114-.034zm-1.456 1.8v.856h.102v-.348c0-.06.016-.107.047-.142a.166.166 0 0 1 .13-.053c.045 0 .079.015.102.044.022.029.033.073.033.13v.369h.102V11.7c0-.085-.019-.15-.055-.194-.036-.043-.09-.065-.16-.065a.231.231 0 0 0-.114.027.247.247 0 0 0-.085.083v-.335zm2.507 0v.334a.208.208 0 0 0-.082-.081.237.237 0 0 0-.116-.027.221.221 0 0 0-.182.089.368.368 0 0 0-.07.234c0 .096.023.174.07.234.047.059.107.09.182.09a.24.24 0 0 0 .116-.028.212.212 0 0 0 .082-.082v.093h.1v-.855zm-1.53.226a.286.286 0 0 0-.221.089.34.34 0 0 0-.081.239c0 .097.028.175.085.232a.316.316 0 0 0 .234.086.559.559 0 0 0 .227-.047v-.096a.44.44 0 0 1-.221.057.217.217 0 0 1-.157-.054.236.236 0 0 1-.063-.16h.465v-.05a.31.31 0 0 0-.073-.216.25.25 0 0 0-.195-.08zm.65 0a.654.654 0 0 0-.21.043v.093a.41.41 0 0 1 .2-.05c.055 0 .098.012.128.037.031.026.046.062.046.109v.01h-.141a.341.341 0 0 0-.208.052c-.046.035-.07.087-.07.156 0 .06.02.107.056.143a.21.21 0 0 0 .15.053c.05 0 .093-.01.127-.027a.22.22 0 0 0 .086-.082v.093h.101v-.35c0-.095-.022-.165-.066-.211-.044-.046-.11-.07-.199-.07zm.707.084c.053 0 .096.021.126.064.031.042.047.1.047.175a.294.294 0 0 1-.047.175.148.148 0 0 1-.126.063.148.148 0 0 1-.127-.063.297.297 0 0 1-.045-.175c0-.075.015-.133.045-.175a.148.148 0 0 1 .127-.064zm-1.357.001c.05 0 .09.017.12.05s.046.077.047.132h-.36a.202.202 0 0 1 .057-.134.191.191 0 0 1 .136-.048zm.713.236h.101v.022a.237.237 0 0 1-.051.159.168.168 0 0 1-.135.06.142.142 0 0 1-.096-.032.111.111 0 0 1-.035-.086c0-.045.016-.077.047-.096a.36.36 0 0 1 .17-.027zm1.045 1.544v.175h-.074v.079h.074v.334c0 .077.015.13.044.16.03.028.084.042.162.042H13v-.084h-.104c-.042 0-.07-.007-.084-.022-.013-.014-.02-.046-.02-.096v-.334H13v-.079h-.208v-.175zm-1.492.16a.232.232 0 0 0-.115.027.23.23 0 0 0-.083.084v-.096H10.9v.615H11v-.347c0-.06.015-.107.046-.142a.155.155 0 0 1 .123-.053c.044 0 .076.015.097.043.02.029.03.072.03.132v.367h.102v-.347c0-.06.015-.108.046-.142a.158.158 0 0 1 .124-.053c.043 0 .075.015.096.043.02.029.032.073.032.132v.367h.101v-.37a.305.305 0 0 0-.052-.192.178.178 0 0 0-.149-.068.232.232 0 0 0-.124.033.267.267 0 0 0-.09.1.196.196 0 0 0-.07-.098.189.189 0 0 0-.114-.035zm1.06 0a.286.286 0 0 0-.222.09.341.341 0 0 0-.08.24c0 .097.028.173.085.23a.317.317 0 0 0 .233.087.561.561 0 0 0 .228-.048v-.095a.502.502 0 0 1-.222.057.217.217 0 0 1-.157-.055.236.236 0 0 1-.062-.159h.464v-.05a.31.31 0 0 0-.072-.216.25.25 0 0 0-.196-.08zm1.091 0a.66.66 0 0 0-.21.043v.094a.408.408 0 0 1 .2-.051c.055 0 .098.012.128.038.031.025.047.062.047.108v.01h-.142a.341.341 0 0 0-.208.053c-.046.035-.069.087-.069.157 0 .06.018.107.055.142a.212.212 0 0 0 .151.053c.05 0 .092-.009.127-.027a.221.221 0 0 0 .086-.083v.093h.101v-.35c0-.094-.022-.164-.066-.21-.044-.047-.11-.07-.2-.07zm-1.091.086c.05 0 .09.016.12.05.03.032.046.077.047.132h-.36a.202.202 0 0 1 .057-.134.19.19 0 0 1 .136-.048zm1.155.235h.1v.023a.236.236 0 0 1-.05.159.168.168 0 0 1-.135.059.142.142 0 0 1-.097-.031.11.11 0 0 1-.035-.086c0-.045.016-.077.047-.095a.361.361 0 0 1 .17-.029zm-2.069 1.48v.128h.101v-.128zm.754 0v.855h.101v-.855zm9.548 0v.128h.1v-.128zm.754 0v.855h.1v-.855zm-11.5.065v.175h-.074v.078h.075v.335c0 .077.014.13.044.16.03.028.084.042.162.042h.103v-.084h-.103c-.042 0-.07-.007-.084-.021-.014-.015-.02-.047-.02-.097v-.335h.207v-.078h-.208v-.175zm.755 0v.175h-.075v.078h.075v.335c0 .077.014.13.044.16.03.028.083.042.161.042h.105v-.084h-.105c-.042 0-.07-.007-.083-.021-.014-.015-.02-.047-.02-.097v-.335h.208v-.078h-.209v-.175zm9.547 0v.175h-.074v.078h.074v.335c0 .077.015.13.045.16.03.028.083.042.161.042h.104v-.084h-.104c-.042 0-.07-.007-.084-.021-.014-.015-.02-.047-.02-.097v-.335h.208v-.078h-.208v-.175zm.754 0v.175h-.074v.078h.074v.335c0 .077.015.13.045.16.03.028.083.042.161.042h.104v-.084h-.104c-.042 0-.07-.007-.084-.021-.013-.015-.02-.047-.02-.097v-.335h.208v-.078h-.208v-.175zm-9.288.16a.284.284 0 0 0-.22.089.341.341 0 0 0-.081.24c0 .097.028.175.085.232a.316.316 0 0 0 .234.085.562.562 0 0 0 .227-.047v-.096a.502.502 0 0 1-.221.058.217.217 0 0 1-.157-.055.236.236 0 0 1-.063-.16h.465v-.049a.31.31 0 0 0-.073-.217.25.25 0 0 0-.196-.08zm10.302 0a.286.286 0 0 0-.22.089.341.341 0 0 0-.082.24c0 .097.029.175.086.232a.316.316 0 0 0 .233.085.562.562 0 0 0 .227-.047v-.096a.502.502 0 0 1-.221.058.217.217 0 0 1-.157-.055.236.236 0 0 1-.062-.16h.464v-.049a.31.31 0 0 0-.072-.217.25.25 0 0 0-.196-.08zm-11.626.015v.615h.101v-.615zm10.302 0v.615h.1v-.615zm-8.977.07c.05 0 .09.017.12.05s.046.077.047.132l-.36.001a.202.202 0 0 1 .057-.134.191.191 0 0 1 .136-.048zm10.302 0c.05 0 .09.017.12.05s.046.077.046.132l-.36.001a.202.202 0 0 1 .058-.134.191.191 0 0 1 .136-.048zm-12.635 1.716v.855h.101V17.8c0-.06.016-.107.048-.142a.165.165 0 0 1 .129-.052c.045 0 .08.014.102.043.023.03.034.073.034.13v.37h.101v-.373c0-.085-.018-.149-.055-.193-.036-.044-.089-.066-.16-.066a.231.231 0 0 0-.114.028.247.247 0 0 0-.085.083v-.335zm2.506 0v.333a.208.208 0 0 0-.081-.082.237.237 0 0 0-.117-.027.221.221 0 0 0-.182.09.368.368 0 0 0-.069.233.37.37 0 0 0 .07.235c.046.06.107.09.181.09a.24.24 0 0 0 .117-.027.214.214 0 0 0 .08-.083v.093h.102v-.855zm-1.53.224a.286.286 0 0 0-.22.09.341.341 0 0 0-.082.24c0 .097.029.174.086.231a.316.316 0 0 0 .233.086.562.562 0 0 0 .227-.047v-.096a.502.502 0 0 1-.221.057.217.217 0 0 1-.157-.054.236.236 0 0 1-.062-.16h.464v-.05a.31.31 0 0 0-.072-.216.25.25 0 0 0-.196-.08zm.65 0a.654.654 0 0 0-.21.043v.094a.41.41 0 0 1 .2-.05c.055 0 .098.012.129.038a.13.13 0 0 1 .046.107v.01h-.142a.341.341 0 0 0-.208.053c-.046.035-.069.088-.069.157 0 .06.018.107.055.142a.21.21 0 0 0 .15.053c.05 0 .093-.009.127-.026a.223.223 0 0 0 .087-.083v.093h.1v-.351c0-.094-.021-.164-.065-.21-.044-.047-.11-.07-.2-.07zm.707.085c.054 0 .096.021.127.064.03.042.046.1.046.174a.294.294 0 0 1-.046.176.148.148 0 0 1-.127.063.148.148 0 0 1-.126-.063.297.297 0 0 1-.046-.176c0-.074.015-.132.046-.174a.148.148 0 0 1 .126-.064zm-1.356.001c.05 0 .09.017.12.05s.046.077.046.132h-.36a.202.202 0 0 1 .058-.134.191.191 0 0 1 .136-.048zm.713.235h.1v.023a.237.237 0 0 1-.05.159.168.168 0 0 1-.135.06.142.142 0 0 1-.097-.032.11.11 0 0 1-.035-.086c0-.045.016-.076.047-.095a.358.358 0 0 1 .17-.029zm-2.07 1.48v.856h.1v-.092a.213.213 0 0 0 .081.081.243.243 0 0 0 .117.027.22.22 0 0 0 .181-.09.366.366 0 0 0 .07-.233.368.368 0 0 0-.07-.235.22.22 0 0 0-.181-.089.239.239 0 0 0-.117.027.21.21 0 0 0-.08.082v-.334zm1.81 0v.334a.21.21 0 0 0-.196-.109.221.221 0 0 0-.182.09.37.37 0 0 0-.07.234c0 .096.023.174.07.234.047.06.107.089.182.089a.238.238 0 0 0 .116-.027.212.212 0 0 0 .08-.081v.092h.102v-.856zm-.854.225a.262.262 0 0 0-.208.086.35.35 0 0 0-.074.238c0 .1.024.18.074.237.05.057.12.086.208.086a.262.262 0 0 0 .207-.086.349.349 0 0 0 .076-.237.349.349 0 0 0-.076-.238.262.262 0 0 0-.207-.086zm1.091.015l.25.606-.019.046a.25.25 0 0 1-.05.093.096.096 0 0 1-.065.02h-.06v.085h.08a.166.166 0 0 0 .11-.034.368.368 0 0 0 .083-.143l.27-.673h-.107l-.192.481-.192-.48zm-1.774.07c.053 0 .095.02.126.063.03.043.046.101.046.176a.294.294 0 0 1-.046.175.146.146 0 0 1-.126.063.148.148 0 0 1-.127-.063.297.297 0 0 1-.045-.175c0-.075.015-.133.045-.176a.148.148 0 0 1 .127-.063zm1.365 0c.054 0 .096.02.127.063.03.043.046.101.046.176a.294.294 0 0 1-.046.175.148.148 0 0 1-.127.063.148.148 0 0 1-.126-.063.297.297 0 0 1-.046-.175c0-.075.015-.133.046-.176a.148.148 0 0 1 .126-.063zm-.682 0c.054 0 .097.023.128.065.032.043.047.1.047.174 0 .073-.015.13-.047.173a.152.152 0 0 1-.128.064.153.153 0 0 1-.13-.063.288.288 0 0 1-.046-.174c0-.074.016-.132.047-.174a.152.152 0 0 1 .129-.064zm-.576 2.392v.855h.101v-.092a.213.213 0 0 0 .08.082.24.24 0 0 0 .117.026.22.22 0 0 0 .182-.089.366.366 0 0 0 .07-.234.366.366 0 0 0-.07-.234.221.221 0 0 0-.182-.09.236.236 0 0 0-.116.027.21.21 0 0 0-.08.082v-.333zm1.811 0v.333a.21.21 0 0 0-.197-.109.222.222 0 0 0-.182.09.368.368 0 0 0-.07.234c0 .097.024.175.07.234.047.06.108.089.182.089a.238.238 0 0 0 .116-.026.212.212 0 0 0 .081-.082v.092h.101v-.855zm-.855.224a.262.262 0 0 0-.207.087.349.349 0 0 0-.075.237c0 .1.025.18.075.237.05.057.119.086.207.086a.262.262 0 0 0 .208-.086.349.349 0 0 0 .075-.237.347.347 0 0 0-.075-.237.263.263 0 0 0-.208-.087zm1.092.016l.249.605-.019.046a.255.255 0 0 1-.05.094.098.098 0 0 1-.066.02h-.059v.084h.081a.166.166 0 0 0 .109-.033.364.364 0 0 0 .084-.143l.27-.673h-.108l-.191.48-.193-.48zm-1.775.07c.054 0 .096.02.126.063.031.042.046.1.046.175a.294.294 0 0 1-.046.175.147.147 0 0 1-.126.064.148.148 0 0 1-.126-.064.297.297 0 0 1-.046-.175c0-.074.015-.133.046-.175a.148.148 0 0 1 .126-.064zm1.365 0c.054 0 .096.02.127.063.03.042.046.1.046.175a.294.294 0 0 1-.046.175.148.148 0 0 1-.127.064.148.148 0 0 1-.126-.064.297.297 0 0 1-.046-.175c0-.074.015-.133.046-.175a.148.148 0 0 1 .126-.064zm-.682 0c.054 0 .097.022.129.065.031.042.047.1.047.173 0 .073-.016.13-.047.173a.152.152 0 0 1-.129.064.153.153 0 0 1-.129-.063.288.288 0 0 1-.046-.174c0-.074.015-.132.047-.174a.151.151 0 0 1 .128-.063zm-.956 1.716v.855h.101v-.348c0-.06.016-.108.048-.143a.165.165 0 0 1 .129-.052c.045 0 .08.015.102.044.023.029.034.072.034.13v.369h.101v-.372c0-.085-.018-.149-.055-.192-.036-.044-.089-.066-.16-.066a.231.231 0 0 0-.114.027.247.247 0 0 0-.085.083v-.335zm2.257 0v.855h.1v-.855zm-1.54.064v.175h-.075v.079h.074v.334c0 .077.015.13.045.16.03.028.084.043.162.043h.103v-.085h-.103c-.043 0-.07-.007-.085-.021-.013-.015-.02-.047-.02-.097v-.334h.208v-.079h-.208v-.175zm.738.16a.232.232 0 0 0-.115.027.23.23 0 0 0-.083.084v-.096h-.101v.616h.101v-.348c0-.06.015-.107.046-.142a.155.155 0 0 1 .123-.053c.044 0 .076.015.097.043.02.028.032.072.032.131v.369h.101v-.348c0-.06.015-.108.046-.143a.156.156 0 0 1 .124-.052c.042 0 .074.015.095.043.021.029.032.072.032.131v.369h.101v-.372a.305.305 0 0 0-.052-.191.176.176 0 0 0-.148-.067c-.048 0-.09.01-.125.032a.264.264 0 0 0-.09.1.197.197 0 0 0-.07-.099.188.188 0 0 0-.114-.033z" fill="#32e9ff" fill-opacity="1"/><path style="line-height:120.00000477%" d="M17.035 9.415a.286.286 0 0 0-.22.089.34.34 0 0 0-.082.24c0 .097.029.174.086.231a.316.316 0 0 0 .233.086.559.559 0 0 0 .228-.047V9.92a.44.44 0 0 1-.221.057.218.218 0 0 1-.158-.055.236.236 0 0 1-.062-.16h.465v-.049a.31.31 0 0 0-.073-.217.25.25 0 0 0-.196-.08zm.732 0a.232.232 0 0 0-.114.028.245.245 0 0 0-.085.082v-.096h-.102v.616h.102v-.348c0-.06.015-.107.047-.142a.166.166 0 0 1 .129-.052c.045 0 .08.014.102.043.023.03.034.073.034.131v.368h.102v-.371c0-.085-.019-.15-.055-.193-.036-.044-.09-.066-.16-.066zm-.731.086c.05 0 .09.016.12.05.03.032.046.076.047.132h-.361a.202.202 0 0 1 .059-.134.19.19 0 0 1 .135-.048zm5.638 3.76a.297.297 0 0 0-.192.058.19.19 0 0 0-.07.155c0 .047.013.087.04.12a.203.203 0 0 0 .112.066.221.221 0 0 0-.126.072.202.202 0 0 0-.045.134c0 .08.024.14.072.183a.308.308 0 0 0 .21.064c.09 0 .16-.022.208-.064.048-.043.073-.104.073-.183a.202.202 0 0 0-.045-.134.22.22 0 0 0-.125-.072.2.2 0 0 0 .11-.067.182.182 0 0 0 .04-.119.19.19 0 0 0-.07-.155.296.296 0 0 0-.192-.058zm-2.827.015v.513c0 .107.026.187.079.241.053.055.131.083.235.083.103 0 .181-.028.234-.083.053-.054.08-.134.08-.241v-.513h-.112v.499c0 .088-.015.15-.047.19-.032.038-.084.058-.155.058-.072 0-.123-.02-.155-.058-.032-.04-.047-.102-.047-.19v-.499zm.723 0v.093h.292v.727h.111v-.727h.291v-.093zm.802 0v.82h.111v-.391h.325v-.094h-.325v-.242h.36v-.093zm1.302.073c.048 0 .085.012.112.036.027.024.04.057.04.1a.124.124 0 0 1-.04.099.162.162 0 0 1-.112.036.163.163 0 0 1-.112-.036.126.126 0 0 1-.04-.1c0-.042.014-.075.04-.099a.163.163 0 0 1 .112-.036zm0 .358c.053 0 .095.014.125.042.03.028.046.067.046.117 0 .049-.016.088-.046.116a.176.176 0 0 1-.125.042.176.176 0 0 1-.124-.042.152.152 0 0 1-.045-.116c0-.05.015-.089.045-.117a.176.176 0 0 1 .124-.042zm-.709.036v.09h.296v-.09z" fill="#ef6a6a"/><path style="line-height:120.00000477%" d="M14.051 15.302v.82h.228c.158 0 .275-.033.35-.099.075-.066.112-.17.112-.312 0-.14-.037-.244-.112-.31-.074-.066-.19-.099-.35-.099zm5.387.03v.175h-.075v.078h.075v.335c0 .077.015.13.045.16.03.028.083.042.161.042h.104v-.084h-.104c-.042 0-.07-.007-.084-.022-.014-.014-.02-.046-.02-.096v-.335h.208v-.078h-.209v-.175zm-5.275.06h.133c.114 0 .196.027.249.078.053.051.079.131.079.241 0 .11-.026.192-.08.243-.052.051-.134.077-.248.077h-.133zm.988.1a.262.262 0 0 0-.207.085.349.349 0 0 0-.075.238c0 .1.025.18.075.238.05.057.119.085.207.085a.262.262 0 0 0 .208-.085.35.35 0 0 0 .075-.238.347.347 0 0 0-.075-.238.262.262 0 0 0-.208-.085zm.715 0a.3.3 0 0 0-.226.086.328.328 0 0 0-.083.237c0 .099.027.177.082.236a.288.288 0 0 0 .22.087.454.454 0 0 0 .185-.04v-.093a.334.334 0 0 1-.173.047.193.193 0 0 1-.153-.062.259.259 0 0 1-.054-.175c0-.075.018-.134.054-.175a.192.192 0 0 1 .153-.063.376.376 0 0 1 .173.047v-.093a.4.4 0 0 0-.178-.04zm1.365 0a.232.232 0 0 0-.115.027.23.23 0 0 0-.083.084v-.096h-.101v.616h.101v-.348c0-.06.016-.107.046-.142a.153.153 0 0 1 .123-.053c.044 0 .076.014.097.043.02.028.031.072.031.131v.369h.102v-.348c0-.06.015-.108.045-.143a.156.156 0 0 1 .124-.052c.043 0 .075.014.096.043.02.029.032.072.032.131v.369h.101v-.372a.305.305 0 0 0-.052-.191.177.177 0 0 0-.148-.068c-.048 0-.09.01-.125.032a.266.266 0 0 0-.09.1.197.197 0 0 0-.07-.098.189.189 0 0 0-.114-.034zm1.06 0a.284.284 0 0 0-.22.089.341.341 0 0 0-.083.24c0 .097.029.175.086.232a.318.318 0 0 0 .234.085.562.562 0 0 0 .227-.047v-.096a.502.502 0 0 1-.221.058.217.217 0 0 1-.157-.055.236.236 0 0 1-.063-.16h.465v-.049a.31.31 0 0 0-.072-.217.25.25 0 0 0-.197-.08zm.73 0a.232.232 0 0 0-.113.027.247.247 0 0 0-.085.084v-.096h-.102v.615h.102v-.347c0-.06.016-.108.047-.143a.165.165 0 0 1 .13-.052c.045 0 .079.014.102.043.022.029.033.073.033.131v.368h.102v-.371c0-.085-.019-.15-.055-.193-.036-.044-.09-.066-.16-.066zm-2.81.015v.372c0 .085.018.15.054.194.037.043.091.065.162.065.043 0 .08-.009.112-.027a.251.251 0 0 0 .086-.083v.094h.101v-.615h-.1v.349c0 .06-.017.107-.049.142a.165.165 0 0 1-.13.052c-.045 0-.079-.014-.101-.043-.023-.03-.034-.073-.034-.132v-.368zm-1.06.07c.054 0 .097.022.129.065.031.043.047.1.047.173a.287.287 0 0 1-.047.174.152.152 0 0 1-.129.064.151.151 0 0 1-.128-.064.29.29 0 0 1-.047-.174c0-.074.015-.131.047-.174a.152.152 0 0 1 .128-.064zm3.14 0c.05 0 .09.017.12.05s.046.077.047.132l-.36.001a.202.202 0 0 1 .058-.134.191.191 0 0 1 .136-.049z" fill="#f8f8f8" fill-opacity=".974"/></g></svg>