<svg xmlns:osb="http://www.openswatchbook.org/uri/2009/osb" xmlns="http://www.w3.org/2000/svg" xmlns:xlink="http://www.w3.org/1999/xlink" height="32" viewBox="0 0 32 32" width="32"><title>Template icons dark</title><defs><linearGradient id="g" osb:paint="solid"><stop offset="0" stop-opacity=".196"/></linearGradient><linearGradient id="f" osb:paint="solid"><stop offset="0" stop-color="#fff" stop-opacity=".302"/></linearGradient><linearGradient id="e" osb:paint="solid"><stop offset="0" stop-opacity=".013"/></linearGradient><linearGradient id="d" osb:paint="solid"><stop offset="0" stop-opacity=".031"/></linearGradient><linearGradient id="b"><stop offset="0" stop-color="#f8c6c6"/><stop offset="1" stop-color="#f8a28d"/></linearGradient><linearGradient id="a"><stop offset="0" stop-color="#fa8484"/><stop offset="1" stop-color="#f9a874"/></linearGradient><linearGradient id="c"><stop offset="0" stop-opacity="0"/><stop offset="1" stop-opacity=".102"/></linearGradient><linearGradient xlink:href="#a" id="k" gradientUnits="userSpaceOnUse" gradientTransform="matrix(.74629 0 0 .7469 -33.962 -33.796)" x1="24.117" y1="4.931" x2="24.058" y2="42.556"/><linearGradient xlink:href="#b" id="n" gradientUnits="userSpaceOnUse" gradientTransform="matrix(.8529 0 0 .7469 -37.49 -33.878)" x1="28.713" y1="15.703" x2="25.196" y2="18.581"/><linearGradient xlink:href="#d" id="j" x1="126" y1="161.5" x2="194" y2="161.5" gradientUnits="userSpaceOnUse"/><linearGradient xlink:href="#g" id="m" x1="166" y1="133.472" x2="193" y2="133.472" gradientUnits="userSpaceOnUse"/><linearGradient id="h"><stop offset="0" stop-opacity="0"/><stop offset="1" stop-opacity=".083"/></linearGradient><linearGradient gradientTransform="matrix(.5 0 0 .5 -90.016 -97.288)" xlink:href="#h" id="l" x1="127" y1="161.5" x2="148.031" y2="161.5" gradientUnits="userSpaceOnUse"/><linearGradient id="i"><stop offset="0" stop-color="#e33a2f" stop-opacity=".929"/><stop offset="1" stop-color="#d97754" stop-opacity=".984"/></linearGradient></defs><path style="isolation:auto;mix-blend-mode:normal;marker:none" d="M-28-31h15l9 9v21h-24z" color="#000" overflow="visible" fill="url(#j)" stroke-width=".852" paint-order="fill markers stroke" transform="translate(32 32)"/><path d="M-27-30h14l8 8v20h-22z" style="isolation:auto;mix-blend-mode:normal;marker:none" color="#000" overflow="visible" fill="url(#k)" stroke-width=".282" paint-order="fill markers stroke" transform="translate(32 32)"/><path style="isolation:auto;mix-blend-mode:normal;marker:none" d="M-27-30h11v28h-11v-28z" color="#000" overflow="visible" fill="url(#l)" stroke-width=".414" paint-order="fill markers stroke" transform="translate(32 32)"/><path d="M-13-30l8 8v1h-9v-9z" fill="url(#m)" fill-rule="evenodd" stroke-width="2.195" transform="translate(32 32)"/><path d="M-13-30l8 8h-8z" fill="url(#n)" fill-rule="evenodd" stroke-width=".798" transform="translate(32 32)"/><g fill="#e44d26"><path d="M9.636 11.765H22.42l-.061.685-.116 1.294-.051.573h-9.768l.233 2.614H21.96l-.062.686-.6 6.72-.038.43-5.224 1.786-.012.003-5.228-1.789-.358-4.008H13l.182 2.036 2.843.768.002-.001 2.847-.769.296-3.31h-8.846l-.627-7.034-.061-.685z" fill="#e8e8e8"/><path d="M9.636 11.979l.061.684.628 7.265h8.826l.02-.454h-8.846l-.628-7.034-.04-.461zm12.766 0l-.041.462-.116 1.294-.052.574h-9.767l.02.454H22.193l.052-.806.116-1.294.06-.684zm-.461 5.166l-.042.463-.6 6.72-.038.431-5.224 1.785-.012.004-5.229-1.79-.337-3.785h-.02l.357 4.24 5.229 1.789.012-.004 5.224-1.785.038-.663.6-6.72.062-.685z" fill="#761616" fill-opacity=".531"/></g></svg>