<svg xmlns:osb="http://www.openswatchbook.org/uri/2009/osb" xmlns="http://www.w3.org/2000/svg" xmlns:xlink="http://www.w3.org/1999/xlink" height="32" viewBox="0 0 32 32" width="32"><title>Template icons dark</title><defs><linearGradient id="g" osb:paint="solid"><stop offset="0" stop-opacity=".196"/></linearGradient><linearGradient id="f" osb:paint="solid"><stop offset="0" stop-color="#fff" stop-opacity=".333"/></linearGradient><linearGradient id="e" osb:paint="solid"><stop offset="0" stop-opacity=".009"/></linearGradient><linearGradient id="d" osb:paint="solid"><stop offset="0" stop-opacity=".031"/></linearGradient><linearGradient id="b"><stop offset="0" stop-color="#5ebfff"/><stop offset="1" stop-color="#40b3ff"/></linearGradient><linearGradient id="a"><stop offset="0" stop-color="#36afff"/><stop offset="1" stop-color="#0090ee"/></linearGradient><linearGradient id="c"><stop offset="0" stop-opacity="0"/><stop offset="1" stop-opacity=".102"/></linearGradient><linearGradient xlink:href="#a" id="j" gradientUnits="userSpaceOnUse" gradientTransform="matrix(.74629 0 0 .7469 -33.962 -33.796)" x1="24.117" y1="4.931" x2="24.058" y2="42.556"/><linearGradient xlink:href="#b" id="l" gradientUnits="userSpaceOnUse" gradientTransform="matrix(.8529 0 0 .7469 -37.49 -33.878)" x1="28.713" y1="15.703" x2="25.196" y2="18.581"/><linearGradient xlink:href="#d" id="i" x1="126" y1="161.5" x2="194" y2="161.5" gradientUnits="userSpaceOnUse"/><linearGradient xlink:href="#g" id="k" x1="166" y1="133.472" x2="193" y2="133.472" gradientUnits="userSpaceOnUse"/><linearGradient id="h" osb:paint="solid"><stop offset="0" stop-color="#fff" stop-opacity=".278"/></linearGradient></defs><path style="isolation:auto;mix-blend-mode:normal;marker:none" d="M-28-31h15l9 9v21h-24z" color="#000" overflow="visible" fill="url(#i)" stroke-width=".852" paint-order="fill markers stroke" transform="translate(32 32)"/><path d="M-27-30h14l8 8v20h-22z" style="isolation:auto;mix-blend-mode:normal;marker:none" color="#000" overflow="visible" fill="url(#j)" stroke-width=".282" paint-order="fill markers stroke" transform="translate(32 32)"/><path d="M-13-30l8 8v1h-9v-9z" fill="url(#k)" fill-rule="evenodd" stroke-width="2.195" transform="translate(32 32)"/><path d="M-13-30l8 8h-8z" fill="url(#l)" fill-rule="evenodd" stroke-width=".798" transform="translate(32 32)"/><path style="line-height:normal;font-variant-ligatures:normal;font-variant-position:normal;font-variant-caps:normal;font-variant-numeric:normal;font-variant-alternates:normal;font-feature-settings:normal;text-indent:0;text-align:start;text-decoration-line:none;text-decoration-style:solid;text-decoration-color:#000;text-transform:none;text-orientation:mixed;shape-padding:0;isolation:auto;mix-blend-mode:normal" d="M23 15L9 25h14zm-1.016 2L22 24H12z" color="#000" font-weight="400" font-family="sans-serif" white-space="normal" overflow="visible" fill="#b8eff9" fill-opacity=".877" fill-rule="evenodd" stroke-width=".714"/><path d="M12.653 9.314V11h.199V9.314zm-6.131.068v.185h.574V11h.22V9.567h.574v-.185zm8.103.06v.344h-.146v.155h.146v.659c0 .152.03.256.088.314.059.057.164.086.318.086h.205v-.167h-.205c-.083 0-.137-.014-.165-.042-.026-.028-.04-.092-.04-.191v-.659h.41v-.155h-.41v-.344zm-6.4.315a.56.56 0 0 0-.434.176c-.107.116-.161.273-.161.472a.62.62 0 0 0 .17.457.622.622 0 0 0 .46.17 1.112 1.112 0 0 0 .448-.093v-.19a.99.99 0 0 1-.215.085.866.866 0 0 1-.221.028.43.43 0 0 1-.31-.107.463.463 0 0 1-.123-.314h.916v-.098a.613.613 0 0 0-.144-.428.492.492 0 0 0-.386-.158zm1.44 0a.458.458 0 0 0-.226.054.45.45 0 0 0-.164.164v-.189h-.201V11h.2v-.686c0-.118.03-.211.09-.28a.305.305 0 0 1 .244-.103c.086 0 .149.027.19.084.041.055.061.142.061.26V11h.201v-.686c0-.118.03-.212.09-.28a.308.308 0 0 1 .245-.103c.084 0 .147.027.188.084a.442.442 0 0 1 .063.26V11h.2v-.733c0-.163-.035-.288-.104-.376a.347.347 0 0 0-.291-.134.459.459 0 0 0-.245.064.525.525 0 0 0-.18.198.39.39 0 0 0-.137-.195.368.368 0 0 0-.224-.067zm2.16 0a.41.41 0 0 0-.388.214v-.185h-.2v1.675h.2v-.643a.421.421 0 0 0 .158.162.48.48 0 0 0 .23.051.434.434 0 0 0 .358-.175.723.723 0 0 0 .139-.462.723.723 0 0 0-.139-.461.434.434 0 0 0-.358-.176zm1.869 0a.965.965 0 0 0-.2.022c-.07.013-.14.035-.213.063v.184a.803.803 0 0 1 .392-.1c.11 0 .194.025.254.076.06.05.09.12.09.213v.02h-.279c-.18 0-.318.033-.41.103-.09.069-.136.172-.136.309 0 .117.036.21.11.28.073.07.172.104.296.104a.546.546 0 0 0 .25-.051.438.438 0 0 0 .17-.164V11h.199v-.693c0-.185-.044-.322-.13-.413-.087-.091-.218-.137-.393-.137zm2.314 0a.561.561 0 0 0-.434.176c-.107.116-.161.273-.161.472 0 .192.056.345.168.457a.624.624 0 0 0 .46.17 1.112 1.112 0 0 0 .45-.093v-.19a.99.99 0 0 1-.215.085.866.866 0 0 1-.221.028.43.43 0 0 1-.31-.107.464.464 0 0 1-.125-.314h.918v-.098a.613.613 0 0 0-.144-.428.492.492 0 0 0-.386-.158zm-4.232.167c.106 0 .188.042.248.126.06.083.091.198.091.344 0 .147-.03.262-.09.345a.289.289 0 0 1-.249.125.293.293 0 0 1-.25-.125.584.584 0 0 1-.09-.345c0-.146.03-.261.09-.344a.292.292 0 0 1 .25-.126zm-3.549.002c.098 0 .177.032.236.097.06.065.091.153.093.262h-.711a.399.399 0 0 1 .115-.264.375.375 0 0 1 .267-.095zm7.783 0c.098 0 .177.032.236.097.06.065.091.153.093.262h-.712a.399.399 0 0 1 .115-.264.375.375 0 0 1 .268-.095zm-2.19.464h.197v.044c0 .13-.033.235-.1.313a.331.331 0 0 1-.265.117.28.28 0 0 1-.192-.061.216.216 0 0 1-.069-.169c0-.089.032-.152.094-.19.062-.036.173-.054.334-.054z" style="line-height:1000%" font-family="sans-serif" letter-spacing="0" word-spacing="0" fill="#fff" fill-opacity=".804" stroke-width=".139"/><path style="line-height:normal;font-variant-ligatures:normal;font-variant-position:normal;font-variant-caps:normal;font-variant-numeric:normal;font-variant-alternates:normal;font-feature-settings:normal;text-indent:0;text-align:start;text-decoration-line:none;text-decoration-style:solid;text-decoration-color:#000;text-transform:none;text-orientation:mixed;shape-padding:0;isolation:auto;mix-blend-mode:normal" d="M22.19 13.109l-.08.583-.543-.227-.035.085.565.236-.012.091-14.426 9.906.047-.34-.091-.012-.056.41-.16.093.017.03-.423-.177-.036.084.566.238-.083.607.092.013.079-.583.542.227.036-.085-.566-.237.014-.105 14.426-9.906-.048.354.09.012.059-.425.168-.096.396.166.036-.085-.372-.156-.048-.082-.063.036-.083-.035.083-.608zm1.702 1.888l-.055.07.414.32v.054l-.416.317.054.07.362-.275v8.918l-.418-.324-.052.067.426.33-.429.326.051.067.447-.34.444.344.052-.067-.38-.293v-.072l.383-.29-.051-.068-.331.252v-8.906l.434.335.055-.07-.45-.347.453-.344L24.83 15l-.44.334h-.064zm-9.521.944l-.447.258.244.423a.485.485 0 0 1 .16-.148.257.257 0 0 1 .184-.038.205.205 0 0 1 .137.106.207.207 0 0 1 .024.173.257.257 0 0 1-.125.14.542.542 0 0 1-.25.072l.065.115a1 1 0 0 0 .243-.092.402.402 0 0 0 .195-.213.31.31 0 0 0-.038-.26.316.316 0 0 0-.203-.162.36.36 0 0 0-.267.052.315.315 0 0 0-.09.075l-.12-.207.343-.198zm-.74.495a.361.361 0 0 0-.247.055.56.56 0 0 0-.102.077c-.034.033-.069.072-.104.116l.067.115a.79.79 0 0 1 .094-.13.439.439 0 0 1 .102-.084c.05-.029.1-.038.147-.028.048.01.085.038.11.082a.21.21 0 0 1 .027.097.603.603 0 0 1-.016.148 5.316 5.316 0 0 1-.057.227l-.072.282.055.096.534-.31-.055-.095-.397.23.086-.342.036-.146a.538.538 0 0 0 .007-.15.288.288 0 0 0-.037-.11.25.25 0 0 0-.179-.13zm-.86.428l-.114.067-.177.157.06.103.179-.157.37.642-.186.107.055.096.485-.28-.055-.096-.186.108zm13.4 2.967a.283.283 0 0 0-.25.13c-.058.086-.087.21-.087.375 0 .163.029.288.086.375a.283.283 0 0 0 .25.129.28.28 0 0 0 .25-.13c.057-.086.086-.21.086-.374s-.029-.289-.086-.375a.28.28 0 0 0-.25-.13zm-1.13.017v.489a.555.555 0 0 1 .213-.048c.075 0 .135.02.178.059.044.04.066.093.066.16a.206.206 0 0 1-.066.162.258.258 0 0 1-.178.06.546.546 0 0 1-.253-.064v.132a1 1 0 0 0 .255.042c.119 0 .21-.03.276-.087a.31.31 0 0 0 .098-.244.315.315 0 0 0-.096-.242.362.362 0 0 0-.258-.089.36.36 0 0 0-.114.02v-.238h.396v-.111zm1.13.087c.068 0 .119.034.152.1a.68.68 0 0 1 .052.3.681.681 0 0 1-.052.3c-.033.067-.084.1-.152.1-.068 0-.12-.033-.154-.1a.69.69 0 0 1-.05-.3c0-.133.016-.233.05-.3.034-.066.086-.1.154-.1zm-18.634 4.07l-.001.009-.01-.004zm.333 2.003l-.07.054.329.432v.076l-.333.43.07.055.348-.448.344.451.07-.054-.325-.426h13.7l-.31.399.068.052.33-.427.326.43.067-.052-.308-.405v-.082l.311-.404-.067-.051-.283.365h-.092l-.28-.368-.068.051.242.317H8.37l.261-.337-.07-.055-.304.392h-.087zm7.69 1.573a.282.282 0 0 0-.25.13c-.057.086-.086.211-.086.375s.03.288.086.375c.058.086.141.129.25.129a.282.282 0 0 0 .25-.13c.058-.086.086-.21.086-.374s-.028-.29-.086-.375a.281.281 0 0 0-.25-.13zm.849 0a.282.282 0 0 0-.25.13c-.057.086-.086.211-.086.375s.029.288.086.375c.058.086.14.129.25.129a.282.282 0 0 0 .25-.13c.057-.086.086-.21.086-.374s-.029-.29-.087-.375a.281.281 0 0 0-.25-.13zm-1.743.018l-.232.047v.12l.234-.047v.741h-.215v.11h.56v-.11h-.215v-.86zm.894.087c.068 0 .12.033.153.1a.677.677 0 0 1 .052.3.677.677 0 0 1-.052.3c-.034.066-.085.1-.153.1-.068 0-.118-.034-.153-.1a.685.685 0 0 1-.05-.3c0-.133.016-.234.05-.3.035-.067.085-.1.153-.1zm.849 0c.068 0 .12.033.153.1a.68.68 0 0 1 .051.3.678.678 0 0 1-.05.3c-.035.066-.086.1-.154.1s-.119-.034-.153-.1a.686.686 0 0 1-.05-.3c0-.133.016-.234.05-.3.034-.067.085-.1.153-.1z" color="#000" font-weight="400" font-family="sans-serif" white-space="normal" overflow="visible" fill="#f8f8f8" fill-rule="evenodd" stroke-width=".089"/></svg>