<svg width="22" xmlns="http://www.w3.org/2000/svg" height="22" viewBox="0 0 5.8208332 5.8208335"><path d="M2.117 5.027l.793-.53.794.53v.132H2.117z" fill="#d4dadd" fill-rule="evenodd" stroke-width=".265"/><path d="M2.91 2.91L.794.794h4.233z" fill="#86cc44" fill-rule="evenodd" stroke-width=".265"/><path d="M.794.794l.264.264h3.704l.265-.264L4.762.66H1.058z" fill="#fff" fill-opacity=".784" fill-rule="evenodd" stroke-width=".265"/><path d="M.661.526A.132.132 0 0 0 .53.66v.001c0 .04.019.075.047.1l2.07 2.069v1.642l-.434.25-.558.323-.012.01a.128.128 0 0 0-.021.02c-.005.005-.009.011-.013.018a.126.126 0 0 0-.012.025c-.003.008-.004.016-.005.024 0 .006-.003.011-.003.017l.001.009c0 .008.003.016.005.024.003.01.005.019.01.027 0 .002 0 .005.002.007l.008.01a.128.128 0 0 0 .09.053c.006 0 .01.003.016.003H4.1c.006 0 .011-.003.017-.004.009-.001.017-.002.025-.005a.126.126 0 0 0 .025-.012.128.128 0 0 0 .039-.035l.008-.01.002-.007a.129.129 0 0 0 .01-.028l.005-.023.001-.009c0-.006-.003-.01-.003-.017-.001-.008-.002-.016-.005-.024a.126.126 0 0 0-.012-.025L4.2 5.074a.128.128 0 0 0-.02-.018c-.005-.004-.008-.008-.012-.01l-.559-.323-.434-.25V2.83L5.245.76a.132.132 0 0 0 .008-.195.132.132 0 0 0-.094-.039L5.144.53H.677C.672.53.667.526.661.526zm.322.268h3.854L2.91 2.72.983.794zM2.91 4.625l.697.402H2.214l.696-.402z" fill="#383a3c"/><path d="M2.91 1.323V2.38L3.97 1.323z" fill="#fff" fill-opacity=".706" fill-rule="evenodd" stroke-width=".265"/></svg>