<svg width="22" xmlns="http://www.w3.org/2000/svg" height="22" viewBox="0 0 5.8208332 5.8208335"><g transform="translate(0 -291.18)"><path d="M.794 291.708a.264.264 0 0 0-.265.265v4.233c0 .147.118.265.265.265h3.44a.264.264 0 0 0 .264-.265v-1.323h.53a.264.264 0 0 0 .264-.264v-2.117a.264.264 0 0 0-.265-.265h-.53v-.264a.264.264 0 0 0-.264-.265H.793zm3.704.794h.265c.146 0 .264.118.264.265v1.587a.264.264 0 0 1-.264.265h-.265v-2.117z" fill="#442015"/><rect width="3.44" x=".794" y="291.973" rx=".265" height="4.233" fill="#f2b41c"/><path d="M1.058 291.973a.264.264 0 0 0-.264.264v.53h1.852v.132a.132.132 0 1 0 .264 0v.265a.132.132 0 1 0 .265 0v-.397a.264.264 0 1 0 .53 0h.528v-.53a.264.264 0 0 0-.264-.264h-2.91z" fill="#fff" fill-opacity=".784"/><path d="M1.058 292.767v3.44h.794v-3.44h-.794z" fill="#fff" fill-opacity=".549"/><rect width=".265" x="1.852" y="293.296" rx=".132" height="2.117" fill="#422016"/><rect width=".265" x="2.91" y="293.296" rx=".132" height="2.117" fill="#422016"/><path d="M1.058 291.973a.264.264 0 0 0-.264.264h3.44a.264.264 0 0 0-.265-.264h-2.91z" fill="#fff" fill-opacity=".784"/></g></svg>