<svg width="22" xmlns="http://www.w3.org/2000/svg" height="22" viewBox="0 0 5.8208332 5.8208335"><g transform="translate(0 -291.18)"><rect width="5.292" x=".265" y="291.708" rx="2.117" height="4.763" fill="#fdd583"/><ellipse cx="1.72" cy="293.428" fill="#8f5315"/><path d="M2.047 291.737c-.016.002-.034.004-.05.008.167.747.7 1.453 1.463 1.895.67.386 1.427.522 2.096.398v-.099c-.625.023-1.325-.16-1.963-.528-.729-.42-1.284-1.033-1.546-1.674z" fill="#454749" stroke-width="3.78"/><rect x="3.175" y="293.031" rx=".265" width="1.587" height="1.587" fill="#454749" stroke-width="3.78"/><path d="M4.425 294.883a1.455 1.455 0 0 1-1.118.53 1.455 1.455 0 0 1-.132-.007v.242a1.323 1.323 0 0 0 .265.03 1.323 1.323 0 0 0 1.21-.795h-.225zM1.445 293.142a.397.397 0 0 0-.122.286.397.397 0 0 0 .397.397.397.397 0 0 0 .397-.397.397.397 0 0 0-.013-.098l-.659-.188z" fill="#8f5315"/></g></svg>