<svg width="22" xmlns="http://www.w3.org/2000/svg" height="22" viewBox="0 0 5.8208332 5.8208335"><g transform="translate(0 -291.18)"><path d="M4.755 294.514c.977.822-.706.983-.125 1.163.662 0 .926-.31.926-.53 0-.088-.529-.793-.8-.633z" fill="#8f5315"/><rect width="5.027" x=".265" y="291.708" rx="2.117" height="4.763" fill="#fdd583"/><path d="M2.496 294.09a.838 1.147 0 0 0 .706.529.838 1.147 0 0 0 .706-.53h-.083a.838 1.058 0 0 1-.623.353.838 1.058 0 0 1-.624-.352h-.082zM1.984 293.031a.397.397 0 0 0-.397.397.397.397 0 0 0 .024.132.397.397 0 0 1 .373-.264.397.397 0 0 1 .374.264.397.397 0 0 0 .023-.132.397.397 0 0 0-.397-.397zM4.366 293.031a.397.397 0 0 0-.397.397.397.397 0 0 0 .023.132.397.397 0 0 1 .374-.264.397.397 0 0 1 .373.264.397.397 0 0 0 .023-.132.397.397 0 0 0-.396-.397zM1.58 294.514c.977.822-.706.983-.125 1.163.662 0 .926-.31.926-.53 0-.088-.529-.793-.8-.633z" fill="#8f5315"/></g></svg>