<svg width="22" xmlns="http://www.w3.org/2000/svg" height="22" viewBox="0 0 5.8208332 5.8208335"><g transform="translate(0 -291.18)"><rect width="5.292" x=".265" y="291.708" rx="2.117" height="4.763" fill="#fdd583"/><path d="M3.41 295.674c-.152-.013-.33-.065-.632-.184-.194-.077-.262-.099-.348-.11a.31.31 0 0 0-.185.014c-.077.03-.121.102-.135.217l-.006.066h-.252v-.061a.48.48 0 0 1 .103-.303.522.522 0 0 1 .12-.1.637.637 0 0 1 .156-.055.96.96 0 0 1 .275 0c.118.02.245.061.513.165.236.092.342.12.458.12.06 0 .068 0 .096-.011a.208.208 0 0 0 .119-.123.512.512 0 0 0 .023-.126v-.035h.254v.057a.65.65 0 0 1-.019.153c-.043.168-.167.276-.354.309-.037.01-.146.01-.186.01zM1.339 293.334a.397.397 60 0 0 .037.31.397.397 60 0 0 .542.145.397.397 60 0 0 .145-.542.397.397 60 0 0-.06-.079l-.664.166zM4.482 293.325l-.665-.167a.397.397 30 0 0-.06.08.397.397 30 0 0 .146.541.397.397 30 0 0 .542-.145.397.397 30 0 0 .037-.31z" fill="#8f5315"/></g></svg>