<svg width="22" xmlns="http://www.w3.org/2000/svg" height="22" viewBox="0 0 5.8208332 5.8208335"><g transform="translate(0 -291.18)"><rect width="5.292" x=".265" y="291.708" rx="2.117" height="4.763" fill="#c5daa2"/><path d="M1.339 293.334a.397.397 60 0 0 .037.31.397.397 60 0 0 .542.145.397.397 60 0 0 .145-.542.397.397 60 0 0-.06-.079l-.664.166zM4.482 293.325l-.665-.167a.397.397 30 0 0-.06.08.397.397 30 0 0 .146.541.397.397 30 0 0 .542-.145.397.397 30 0 0 .037-.31zM2.909 294.619a1.058 1.72 0 0 0-.614.323.794.53 0 0 0-.443-.261v.105a.794.53 0 0 1 .265.392.794.53 0 0 1-.265.394v.105a.794.53 0 0 0 .53-.498.794.53 0 0 0-.009-.071 1.058 1.588 0 0 1 .537-.225 1.058 1.588 0 0 1 .538.225.794.53 0 0 0-.008.07.794.53 0 0 0 .529.5v-.106a.794.53 0 0 1-.265-.394.794.53 0 0 1 .265-.392v-.105a.794.53 0 0 0-.444.26 1.058 1.72 0 0 0-.615-.322 1.058 1.72 0 0 0-.001 0z" fill="#404046"/></g></svg>