<svg width="22" xmlns="http://www.w3.org/2000/svg" height="22" viewBox="0 0 5.8208332 5.8208335"><g transform="translate(0 -291.18)"><rect width="5.292" x=".265" y="291.708" rx="2.117" height="4.763" fill="#fdd583"/><path d="M4.498 295.545a.397.397 0 0 1-.794 0c0-.22.397-.926.397-.926s.397.707.397.926z" fill="#87b6f1"/><path d="M3.827 293.757c-.068 0-.095.069-.11.102a.397.397 0 0 0 .76.224l.007-.023a.132.132 0 0 0-.093-.162l-.511-.137a.136.136 0 0 0-.053-.004zM1.946 293.757c.068 0 .095.069.11.102a.397.397 0 0 1-.76.224l-.007-.023a.132.132 0 0 1 .093-.162l.511-.137a.136.136 0 0 1 .053-.004z" fill="#8f5315"/></g></svg>