<svg width="22" xmlns="http://www.w3.org/2000/svg" height="22" viewBox="0 0 5.8208332 5.8208335"><g transform="translate(0 -291.18)"><rect width="5.292" x=".265" y="291.708" rx="2.117" height="4.763" fill="#fdd583"/><circle cx="1.72" cy="293.428" r=".397" fill="#8f5315"/><circle cx="4.101" cy="293.428" r=".397" fill="#8f5315"/><ellipse cx="1.72" cy="293.428" fill="#8f5315"/><path d="M1.72 292.502a.661 1.058 0 0 0-.572.53h.135a.661 1.058 0 0 1 .437-.265.661 1.058 0 0 1 .435.264h.137a.661 1.058 0 0 0-.572-.529zM4.101 292.237a.661 1.058 0 0 0-.572.53h.135a.661 1.058 0 0 1 .437-.265.661 1.058 0 0 1 .436.265h.136a.661 1.058 0 0 0-.572-.53z" fill="#8f5315"/><rect width=".529" x="2.646" y="295.413" rx=".132" height=".265" fill="#8f5315"/></g></svg>