<svg width="22" xmlns="http://www.w3.org/2000/svg" height="22" viewBox="0 0 5.8208332 5.8208335"><g transform="translate(0 -291.18)"><path d="M1.066 294.514c-.977.822.706.983.125 1.163-.662 0-.926-.31-.926-.53 0-.088.529-.793.8-.633z" fill="#8f5315"/><rect width="5.027" x="-5.556" y="291.708" rx="2.117" height="4.763" transform="scale(-1 1)" fill="#fdd583"/><path d="M3.325 294.09a.838 1.147 0 0 1-.706.529.838 1.147 0 0 1-.706-.53h.082a.838 1.058 0 0 0 .624.353.838 1.058 0 0 0 .624-.352h.082zM3.836 293.031a.397.397 0 0 1 .397.397.397.397 0 0 1-.023.132.397.397 0 0 0-.374-.264.397.397 0 0 0-.373.264.397.397 0 0 1-.023-.132.397.397 0 0 1 .396-.397zM1.455 293.031a.397.397 0 0 1 .397.397.397.397 0 0 1-.023.132.397.397 0 0 0-.374-.264.397.397 0 0 0-.373.264.397.397 0 0 1-.024-.132.397.397 0 0 1 .397-.397zM4.24 294.514c-.976.822.707.983.126 1.163-.662 0-.926-.31-.926-.53 0-.088.529-.793.8-.633z" fill="#8f5315"/></g></svg>