<svg width="22" xmlns="http://www.w3.org/2000/svg" height="22" viewBox="0 0 5.8208332 5.8208335"><g transform="translate(0 -291.18)"><rect width="5.292" x=".265" y="291.708" rx="2.117" height="4.763" fill="#fdd583"/><path d="M1.587 294.619c0 .586.473 1.058 1.059 1.058h.529c.586 0 1.058-.472 1.058-1.058H1.587z" fill="#ea5756" stroke-width="3.78"/><path d="M1.587 294.619c0 .529 1.059.529 1.323.529.265 0 1.323 0 1.323-.53z" fill="#f9f9f9" stroke-width="3.78"/><path d="M1.72 293.031a.397.397 0 0 0-.397.397.397.397 0 0 0 .023.132.397.397 0 0 1 .374-.264.397.397 0 0 1 .373.264.397.397 0 0 0 .024-.132.397.397 0 0 0-.397-.397zM4.101 293.031a.397.397 0 0 0-.397.397.397.397 0 0 0 .023.132.397.397 0 0 1 .374-.264.397.397 0 0 1 .374.264.397.397 0 0 0 .023-.132.397.397 0 0 0-.397-.397z" fill="#8f5315"/></g></svg>