<svg width="22" xmlns="http://www.w3.org/2000/svg" height="22" viewBox="0 0 5.8208332 5.8208335" xmlns:xlink="http://www.w3.org/1999/xlink"><defs><linearGradient id="a"><stop stop-color="#d82727"/><stop offset="1" stop-color="#ff9090"/></linearGradient><linearGradient xlink:href="#a" id="b" y1="295.148" y2="293.031" x2="0" gradientUnits="userSpaceOnUse"/></defs><g transform="translate(0 -291.18)"><rect width="5.292" x=".265" y="291.708" rx="2.117" height="4.763" fill="#fdd583"/><path d="M1.766 294.883a1.323 1.588 0 0 0 1.144.794 1.323 1.588 0 0 0 1.144-.794h-.16a1.323 1.588 0 0 1-.984.53 1.323 1.588 0 0 1-.983-.53h-.161zM1.72 293.031a.397.397 0 0 0-.397.397.397.397 0 0 0 .023.132.397.397 0 0 1 .374-.264.397.397 0 0 1 .373.264.397.397 0 0 0 .024-.132.397.397 0 0 0-.397-.397zM4.101 293.031a.397.397 0 0 0-.397.397.397.397 0 0 0 .023.132.397.397 0 0 1 .374-.264.397.397 0 0 1 .374.264.397.397 0 0 0 .023-.132.397.397 0 0 0-.397-.397z" fill="#8f5315"/><path d="M.265 293.7v.11a2.91.926 0 0 0 2.645.544 2.91.926 0 0 0 2.646-.545v-.107a2.91.661 0 0 1-2.646.388 2.91.661 0 0 1-2.645-.39z" fill="#353738"/><ellipse cx="2.91" cy="294.09" rx="1.058" ry="1.058" fill="#ea5756"/><ellipse cx="2.91" cy="294.09" fill="url(#b)"/><ellipse cx="2.91" cy="293.56" rx=".529" ry=".529" fill="#f37b7a"/></g></svg>