<svg width="22" xmlns="http://www.w3.org/2000/svg" height="22" viewBox="0 0 5.8208332 5.8208335"><g transform="translate(0 -291.18)"><rect width="5.292" x=".265" y="291.708" rx="2.117" height="4.763" fill="#fdd583"/><path d="M1.356 292.833c-.562 0-1.091.066-1.091.198v1.059c0 .146.118.264.264.264h1.852s.265 0 .265-.264v-.503h.529v.503c0 .264.265.264.265.264h1.852a.264.264 0 0 0 .264-.264v-1.059c0-.264-2.116-.264-2.381 0v.291h-.53v-.29c-.131-.133-.727-.2-1.289-.2z" fill="#353738"/><path d="M4.425 294.883a1.455 1.455 0 0 1-1.118.53 1.455 1.455 0 0 1-.132-.008v.243a1.323 1.323 0 0 0 .265.03 1.323 1.323 0 0 0 1.21-.795h-.225z" fill="#8f5315"/><path d="M4.298 293.031c-.406.025-.76.087-.858.185v.874c.264-.794.529-.794 1.058-1.059zM1.388 293.031c-.406.026-.76.087-.859.185v.874c.265-.794.53-.794 1.058-1.059z" fill="#76787c" fill-rule="evenodd" stroke-width=".265"/></g></svg>