<svg width="22" xmlns="http://www.w3.org/2000/svg" height="22" viewBox="0 0 5.8208332 5.8208335"><g transform="translate(0 -291.18)"><rect width="5.292" x=".265" y="291.708" rx="2.117" height="4.763" fill="#fdd583"/><ellipse cx="2.91" cy="294.883" rx=".529" ry=".794" fill="#ea5756" stroke-width="3.78"/><path d="M2.91 295.148a.265.397 0 0 0-.264.397.265.397 0 0 0 0 .026.53.794 0 0 0 .264.106.53.794 0 0 0 .264-.106.265.397 0 0 0 .001-.026.265.397 0 0 0-.265-.397z" fill="#f37b7a" stroke-width="3.78"/><rect x="1.323" y="293.296" rx=".132" width=".794" height=".265" fill="#8f5315" stroke-width="3.78"/><rect x="3.704" y="293.296" rx=".132" width=".794" height=".265" fill="#8f5315" stroke-width="3.78"/></g></svg>