<svg width="22" xmlns="http://www.w3.org/2000/svg" height="22" viewBox="0 0 5.8208332 5.8208335"><g transform="translate(0 -291.18)"><rect width="5.292" x=".265" y="291.708" rx="2.117" height="4.763" fill="#fdd583"/><path d="M1.339 293.334a.397.397 60 0 0 .037.31.397.397 60 0 0 .542.145.397.397 60 0 0 .145-.542.397.397 60 0 0-.06-.079l-.664.166zM4.482 293.325l-.665-.167a.397.397 30 0 0-.06.08.397.397 30 0 0 .146.541.397.397 30 0 0 .542-.145.397.397 30 0 0 .037-.31zM2.02 295.412a1.058 1.72 0 0 1 .89-.793 1.058 1.72 0 0 1 .891.793h-.104a1.058 1.588 0 0 0-.787-.529 1.058 1.588 0 0 0-.787.53H2.02z" fill="#8f5315"/></g></svg>