<svg width="22" xmlns="http://www.w3.org/2000/svg" height="22" viewBox="0 0 5.8208332 5.8208335"><g transform="translate(0 -291.18)"><rect width="5.292" x=".265" y="291.708" rx="2.117" height="4.763" fill="#fdd583"/><path d="M2.514 294.884l-.397.001c0 .528.397.79.793.792.397 0 .794-.264.794-.794l-.397.001h-.793z" fill="#f37b7a"/><path d="M1.575 294.343a2.036 2.036 0 0 0-.158-.098 2.06 2.06 0 0 1-.375-.263.72.72 0 0 1-.24-.396.454.454 0 0 1 .21-.481.462.462 0 0 1 .36-.058.638.638 0 0 1 .184.103l.031.024.032-.024a.542.542 0 0 1 .236-.116.48.48 0 0 1 .476.252.43.43 0 0 1 .05.207.607.607 0 0 1-.076.297.75.75 0 0 1-.157.196 1.7 1.7 0 0 1-.4.271 1.698 1.698 0 0 0-.161.097l-.012-.01zM4.22 294.343a2.036 2.036 0 0 0-.157-.098 2.06 2.06 0 0 1-.375-.263.72.72 0 0 1-.24-.396.454.454 0 0 1 .21-.481.462.462 0 0 1 .36-.058.638.638 0 0 1 .184.103l.031.024.031-.024a.542.542 0 0 1 .237-.116.48.48 0 0 1 .476.252.43.43 0 0 1 .05.207.607.607 0 0 1-.076.297.75.75 0 0 1-.157.196 1.7 1.7 0 0 1-.4.271 1.698 1.698 0 0 0-.162.097l-.012-.01z" fill="#ea5756"/></g></svg>