<svg width="22" xmlns="http://www.w3.org/2000/svg" height="22" viewBox="0 0 5.8208332 5.8208335"><g transform="translate(0 -291.18)"><rect width="5.292" x=".265" y="291.708" rx="2.117" height="4.763" fill="#fdd583"/><circle cx="4.101" cy="293.428" r=".397" fill="#8f5315"/><path d="M2.629 295.148c-.051 0-.1.003-.134.01a.636.636 0 0 0-.155.055.522.522 0 0 0-.12.1.478.478 0 0 0-.103.303v.061h.251l.007-.066c.013-.115.058-.186.135-.217a.309.309 0 0 1 .185-.015c.085.012.154.034.348.11.301.12.48.172.632.185h.03v-.236c-.104-.006-.21-.032-.421-.114-.269-.105-.396-.145-.514-.166a.856.856 0 0 0-.141-.01zM1.339 293.317a.397.397 60 0 0 .037.31.397.397 60 0 0 .542.145.397.397 60 0 0 .145-.542.397.397 60 0 0-.06-.079l-.664.166z" fill="#8f5315"/></g></svg>