<svg width="22" xmlns="http://www.w3.org/2000/svg" height="22" viewBox="0 0 5.8208332 5.8208335"><g transform="translate(0 -291.18)"><rect width="5.292" x=".265" y="291.708" rx="2.117" height="4.763" fill="#f6926a"/><path d="M1.445 293.142a.397.397 0 0 0-.122.286.397.397 0 0 0 .397.397.397.397 0 0 0 .397-.397.397.397 0 0 0-.013-.098l-.659-.188zM4.375 293.142l-.658.188a.397.397 0 0 0-.013.098.397.397 0 0 0 .397.397.397.397 0 0 0 .397-.397.397.397 0 0 0-.123-.286zM2.02 295.412a1.058 1.72 0 0 1 .89-.793 1.058 1.72 0 0 1 .891.793h-.104a1.058 1.588 0 0 0-.787-.529 1.058 1.588 0 0 0-.787.53H2.02z" fill="#b84f33"/></g></svg>