<svg width="22" xmlns="http://www.w3.org/2000/svg" height="22" viewBox="0 0 5.8208332 5.8208335"><g transform="translate(0 -291.18)"><rect width="5.292" x=".265" y="291.708" rx="2.117" height="4.763" fill="#fdd583"/><path d="M1.766 293.825a1.323 1.587 0 0 0 1.144.794 1.323 1.587 0 0 0 1.144-.794h-.16a1.323 1.587 0 0 1-.984.53 1.323 1.587 0 0 1-.983-.53h-.161zM1.72 293.031a.397.397 0 0 0-.397.397.397.397 0 0 0 .023.132.397.397 0 0 1 .374-.264.397.397 0 0 1 .373.264.397.397 0 0 0 .024-.132.397.397 0 0 0-.397-.397zM4.101 293.031a.397.397 0 0 0-.397.397.397.397 0 0 0 .023.132.397.397 0 0 1 .374-.264.397.397 0 0 1 .374.264.397.397 0 0 0 .023-.132.397.397 0 0 0-.397-.397z" fill="#8f5315"/></g></svg>