<svg width="22" xmlns="http://www.w3.org/2000/svg" height="22" viewBox="0 0 5.8208332 5.8208335"><g transform="translate(0 -291.18)"><rect width="5.292" x=".265" y="291.708" rx="2.117" height="4.763" fill="#fdd583"/><circle cx="4.101" cy="293.428" r=".397" fill="#8f5315"/><path d="M3.777 295.054a1.202 1.202 0 0 0-.026-.123 1.38 1.38 0 0 1-.047-.307.51.51 0 0 1 .082-.309.487.487 0 0 1 .075-.079.319.319 0 0 1 .262-.06.297.297 0 0 1 .2.142c.016.034.03.084.035.137l.003.027.026.003c.07.007.128.026.17.054a.22.22 0 0 1 .06.069.321.321 0 0 1-.04.406.441.441 0 0 1-.183.111.51.51 0 0 1-.17.023c-.094 0-.17-.013-.323-.055a1.11 1.11 0 0 0-.124-.028v-.012z" fill="#ea5756"/><path d="M2.646 294.684c.264-.265.794-.53.794 0-.043.103-.16.13-.16.264s.117.162.16.265c0 .529-.53.264-.794 0 .196 1.017 1.177.099.794-.265.529-.794-.479-.86-.794-.264z" fill="#8f5315" stroke-width="3.78"/><path d="M1.72 293.031a.397.397 0 0 0-.397.397.397.397 0 0 0 .023.132.397.397 0 0 1 .374-.264.397.397 0 0 1 .373.264.397.397 0 0 0 .024-.132.397.397 0 0 0-.397-.397z" fill="#8f5315"/></g></svg>