<svg width="22" xmlns="http://www.w3.org/2000/svg" height="22" viewBox="0 0 5.8208332 5.8208335"><g transform="translate(0 -291.18)"><rect width="5.292" x=".265" y="291.708" rx="2.117" height="4.763" fill="#fdd583"/><path d="M1.72 293.031a.397.397 0 0 0-.397.397.397.397 0 0 0 .023.132.397.397 0 0 1 .374-.264.397.397 0 0 1 .373.264.397.397 0 0 0 .024-.132.397.397 0 0 0-.397-.397z" fill="#8f5315"/><path d="M3.73 291.73c.47.115 1.033.243 1.257.344 1.098.693-5.252.693-4.154 0 .225-.101.853-.285 1.256-.343a9.488 9.488 0 0 0-1.378.16c-.458.096-.71.22-.711.346 0 .128.253.25.71.347.553.116 1.356.183 2.2.183.845 0 1.648-.067 2.2-.184.458-.096.71-.218.71-.346 0-.127-.252-.25-.71-.345a9.447 9.447 0 0 0-1.38-.162z" fill="#fcc04d"/><path d="M4.101 293.031a.397.397 0 0 0-.397.397.397.397 0 0 0 .023.132.397.397 0 0 1 .374-.264.397.397 0 0 1 .374.264.397.397 0 0 0 .023-.132.397.397 0 0 0-.397-.397zM2.02 294.883a1.058 1.72 0 0 0 .89.794 1.058 1.72 0 0 0 .892-.794h-.104a1.058 1.588 0 0 1-.788.53 1.058 1.588 0 0 1-.787-.53H2.02z" fill="#8f5315"/></g></svg>