<svg width="22" xmlns="http://www.w3.org/2000/svg" height="22" viewBox="0 0 5.8208332 5.8208335"><g transform="translate(0 -291.18)"><rect width="5.292" x=".265" y="291.708" rx="2.117" height="4.763" fill="#fdd583"/><path d="M1.058 292.767a.526.526 0 0 0-.456.264H.397a.132.132 0 1 0 0 .265h.132v.529c0 .293.236.53.53.53h1.058c.293 0 .529-.237.529-.53v-.265h.529v.265c0 .293.236.53.53.53h1.058c.293 0 .529-.237.529-.53v-.53h.132a.132.132 0 1 0 0-.264h-.205a.526.526 0 0 0-.456-.264H3.704a.528.528 0 0 0-.529.529h-.53a.528.528 0 0 0-.528-.53H1.058z" fill="#353738"/><rect width="1.587" x=".794" y="293.031" rx=".265" height="1.058" fill="#b9d4f7"/><rect width="1.587" x="3.44" y="293.031" rx=".265" height="1.058" fill="#b9d4f7"/><path d="M3.704 293.031a.264.264 0 0 0-.264.265v.264l1.323-.529H3.704zM1.058 293.031a.264.264 0 0 0-.264.265v.264l1.323-.529H1.058z" fill="#e3eefc" fill-rule="evenodd"/><path d="M2.02 294.883a1.058 1.72 0 0 0 .89.794 1.058 1.72 0 0 0 .892-.794h-.104a1.058 1.588 0 0 1-.788.53 1.058 1.588 0 0 1-.787-.53H2.02z" fill="#8f5315"/></g></svg>