<svg width="22" xmlns="http://www.w3.org/2000/svg" height="22" viewBox="0 0 5.8208332 5.8208335"><g transform="translate(0 -291.18)"><rect width="5.292" x=".265" y="291.708" rx="2.117" height="4.763" fill="#fdd583"/><path d="M4.101 294.883a.397.397 0 0 0 .397-.397.397.397 0 0 0-.023-.132.397.397 0 0 1-.374.265.397.397 0 0 1-.374-.265.397.397 0 0 0-.023.132.397.397 0 0 0 .397.397zM1.72 294.883a.397.397 0 0 0 .397-.397.397.397 0 0 0-.024-.132.397.397 0 0 1-.373.265.397.397 0 0 1-.374-.265.397.397 0 0 0-.023.132.397.397 0 0 0 .397.397z" fill="#8f5315"/><path d="M2.91 295.84c0 .133-1.322.21-1.322-.264 0-.164.176-.328.387-.164a1.546 1.546 0 0 0 .236.192c.233.15.473.199.7.237z" fill="#1aa3de" stroke-width="3.78"/><path d="M4.498 291.708v.265h.92l-.92.792v.266H5.82v-.264H4.9l.92-.792v-.267H4.498zm-1.323.53v.264h.64l-.64.525v.269h1.058v-.265h-.646l.646-.528v-.266H3.175z" fill="#8f5315" stroke-width="3.78"/></g></svg>