<svg width="22" xmlns="http://www.w3.org/2000/svg" height="22" viewBox="0 0 5.8208332 5.8208335"><g transform="translate(0 -291.18)"><rect width="5.292" x=".265" y="291.708" rx="2.117" height="4.763" fill="#ea5756"/><path d="M1.445 293.142a.397.397 0 0 0-.122.286.397.397 0 0 0 .397.397.397.397 0 0 0 .397-.397.397.397 0 0 0-.013-.098l-.659-.188zM4.375 293.142l-.658.188a.397.397 0 0 0-.013.098.397.397 0 0 0 .397.397.397.397 0 0 0 .397-.397.397.397 0 0 0-.123-.286z" fill="#b11716"/><path d="M.53 293.031v-1.323l.793.53zM5.292 293.031v-1.323l-.794.53z" fill="#ea5756" fill-rule="evenodd" stroke-width=".265"/><path d="M4.737 294.606l-.172.078a1.455 1.455 0 0 1-1.258.728 1.455 1.455 0 0 1-.281-.028l-.248.113a1.323 1.323 0 0 0 .662.18 1.323 1.323 0 0 0 1.297-1.07z" fill="#b11716"/></g></svg>