<svg width="22" xmlns="http://www.w3.org/2000/svg" height="22" viewBox="0 0 5.8208332 5.8208335"><g transform="translate(0 -291.18)"><rect width="5.292" x=".265" y="291.708" rx="2.117" height="4.763" fill="#fdd583"/><path d="M1.72 293.031a.397.397 0 0 0-.397.397.397.397 0 0 0 .023.132.397.397 0 0 1 .374-.264.397.397 0 0 1 .373.264.397.397 0 0 0 .024-.132.397.397 0 0 0-.397-.397zM4.101 293.031a.397.397 0 0 0-.397.397.397.397 0 0 0 .023.132.397.397 0 0 1 .374-.264.397.397 0 0 1 .374.264.397.397 0 0 0 .023-.132.397.397 0 0 0-.397-.397z" fill="#8f5315"/><path d="M1.588 294.619c0 .586.472 1.058 1.058 1.058h.529c.586 0 1.058-.472 1.058-1.058H1.588z" fill="#ea5756" stroke-width="3.78"/><path d="M2.91 295.148a.53.397 0 0 0-.529.397.53.397 0 0 0 .018.1c.08.02.161.032.247.032h.529c.085 0 .167-.012.246-.03a.53.397 0 0 0 .019-.102.53.397 0 0 0-.53-.397z" fill="#f37b7a" stroke-width="3.78"/></g></svg>