<svg width="22" xmlns="http://www.w3.org/2000/svg" height="22" viewBox="0 0 5.8208332 5.8208335"><g transform="translate(0 -291.18)"><rect width="5.292" x=".265" y="291.708" rx="2.117" height="4.763" fill="#fdd583"/><circle cx="1.72" cy="293.428" r=".397" fill="#8f5315"/><circle cx="4.101" cy="293.428" r=".397" fill="#8f5315"/><path d="M.265 294.354c0 1.173.944 2.117 2.116 2.117H3.44a2.112 2.112 0 0 0 2.116-2.117H.265zM2.381 291.708a2.11 2.11 0 0 0-2.047 1.588h5.153a2.11 2.11 0 0 0-2.047-1.588H2.38z" fill="#353738" stroke-width="3.78"/><path d="M2.381 295.412a.264.264 0 0 0-.264.265h1.587a.264.264 0 0 0-.264-.265H2.38z" fill="#454749" stroke-width="3.78"/></g></svg>