<svg width="22" xmlns="http://www.w3.org/2000/svg" height="22" viewBox="0 0 5.8208332 5.8208335"><g transform="translate(0 -291.18)"><rect width="5.292" x=".265" y="291.708" rx="2.117" height="4.763" fill="#fdd583"/><circle cx="1.72" cy="293.428" r=".397" fill="#8f5315"/><circle cx="4.101" cy="293.428" r=".397" fill="#8f5315"/><rect width=".529" x="2.646" y="295.413" rx=".132" height=".265" fill="#8f5315"/><path d="M1.484 294.091a.125.125 0 0 0-.127.07l-.1.19c-.005-.007-.007-.018-.016-.024-.035-.022-.08-.01-.1.03l-.073.14a.086.086 0 0 0 .027.11c.035.023.08.01.1-.029l.027-.052c.01.03.027.056.054.073.062.04.14.016.175-.052l.02-.04a.14.14 0 0 0 .061.092c.062.04.14.017.175-.051l.128-.246a.15.15 0 0 0-.047-.193c-.061-.04-.14-.016-.175.052l-.02.04a.14.14 0 0 0-.06-.092.118.118 0 0 0-.05-.018zM4.394 294.091a.125.125 0 0 0-.126.07l-.1.19c-.006-.007-.008-.018-.016-.024-.036-.022-.08-.01-.1.03l-.073.14a.086.086 0 0 0 .027.11c.035.023.079.01.1-.029l.026-.052c.01.03.028.056.055.073.061.04.139.016.174-.052l.021-.04a.14.14 0 0 0 .06.092c.062.04.14.017.175-.051l.128-.246a.15.15 0 0 0-.046-.193c-.062-.04-.14-.016-.175.052l-.021.04a.14.14 0 0 0-.06-.092.118.118 0 0 0-.049-.018z" fill="#ea5756"/></g></svg>