<svg width="22" xmlns="http://www.w3.org/2000/svg" height="22" viewBox="0 0 5.8208332 5.8208335"><g transform="translate(0 -291.18)"><rect width="5.292" x=".265" y="291.708" rx="2.117" height="4.763" fill="#fdd583"/><circle cx="4.101" cy="293.428" r=".397" fill="#8f5315"/><path d="M4.425 294.883a1.455 1.455 0 0 1-1.118.53 1.455 1.455 0 0 1-.132-.007v.242a1.323 1.323 0 0 0 .265.03 1.323 1.323 0 0 0 1.21-.795h-.225zM1.445 293.142a.397.397 0 0 0-.122.286.397.397 0 0 0 .397.397.397.397 0 0 0 .397-.397.397.397 0 0 0-.013-.098l-.659-.188zM1.72 292.502a.661 1.058 0 0 0-.572.53h.135a.661 1.058 0 0 1 .437-.265.661 1.058 0 0 1 .435.264h.137a.661 1.058 0 0 0-.572-.529z" fill="#8f5315"/></g></svg>