<svg width="22" xmlns="http://www.w3.org/2000/svg" height="22" viewBox="0 0 5.8208332 5.8208335"><g transform="translate(0 -291.18)"><rect width="5.292" x=".265" y="291.708" rx="2.117" height="4.763" fill="#fdd583"/><circle cx="1.72" cy="293.428" r=".397" fill="#8f5315"/><circle cx="4.101" cy="293.428" r=".397" fill="#8f5315"/><path d="M2.558 294.619a.176.176 0 0 0-.125.301l.228.228-.228.228a.176.176 0 1 0 .25.25l.227-.229.228.228a.176.176 0 0 0 .25-.249l-.228-.228.228-.228a.176.176 0 1 0-.25-.25l-.228.229-.228-.229a.175.175 0 0 0-.124-.051z" fill="#8f5315" stroke-width="3.78"/></g></svg>