<svg width="22" xmlns="http://www.w3.org/2000/svg" height="22" viewBox="0 0 5.8208332 5.8208335"><g transform="translate(0 -291.18)" stroke-width="3.78"><path d="M4.233 292.767c0 .365-.296.793-.661.793-.365 0-.662-.428-.662-.793 0-.53.662-1.059.662-1.059s.661.53.661 1.059zM2.646 292.767c0 .365-.296.793-.662.793-.365 0-.661-.428-.661-.793 0-.53.661-1.059.661-1.059s.662.53.662 1.059z" fill="#492b0b"/><path d="M2.91 292.872c-1.315 0-2.38.131-2.38.423v2.647c0-.045.026-.09.077-.132.272.233.716.529 2.303.529 1.588 0 2.033-.296 2.304-.53.05.043.077.088.078.133v-2.646c0-.293-1.066-.424-2.382-.424zm0 .265c.894 0 1.711.006 2.117.183v.505H.794v-.506c.407-.177 1.224-.182 2.116-.182zm-.279 3.33z" fill="#8f5315"/><path d="M2.91 293.03a2.381.53 0 0 0-2.116.289v1.012a2.381.53 0 0 0 .264.09v.33a.132.132 0 1 0 .265 0v-.268a2.381.53 0 0 0 1.587.136 2.381.53 0 0 0 2.117-.288v-1.011a2.381.53 0 0 0-2.117-.29z" fill="#e9e0ee"/><path d="M2.91 293.03c-.892 0-1.71.112-2.116.289v.22c.187.08.467.145.794.193v.225a.132.132 0 1 0 .264 0v-.192c.325.036.681.06 1.058.06.893 0 1.71-.111 2.117-.288v-.217c-.406-.177-1.223-.289-2.117-.29z" fill="#ddcfe5"/><path d="M2.91 292.766a2.381.53 0 0 0-2.38.53v2.646a2.381.53 0 0 0 2.38.529 2.381.53 0 0 0 2.382-.53v-2.645a2.381.53 0 0 0-2.382-.53zm0 .265a2.381.53 0 0 1 2.117.289v2.597a2.381.53 0 0 1-2.117.29 2.381.53 0 0 1-2.116-.289v-2.6a2.381.53 0 0 1 2.116-.287z" fill="#492b0b"/><rect x=".794" y="294.09" rx=".132" width=".265" height=".529" fill="#e9e0ee"/><rect x="1.852" y="292.237" rx="0" width=".265" height="1.323" fill="#ef4036"/><rect x="3.44" y="292.237" rx="0" width=".265" height="1.323" fill="#ef4036"/><path d="M2.381 292.634a.397.397 0 0 1-.794 0c0-.219.397-.661.397-.661s.397.442.397.661zM3.969 292.634a.397.397 0 0 1-.794 0c0-.219.397-.661.397-.661s.397.442.397.661z" fill="#f3ee61"/></g></svg>