<svg xmlns="http://www.w3.org/2000/svg" xmlns:xlink="http://www.w3.org/1999/xlink" height="64" viewBox="0 0 64 64" width="64"><title>Template icons dark</title><defs><linearGradient id="a"><stop offset="0" stop-color="#496fa4"/><stop offset="1" stop-color="#343b41"/></linearGradient><linearGradient id="b"><stop offset="0" stop-color="#2b84d0"/><stop offset="1" stop-color="#1767a9"/></linearGradient><linearGradient id="c"><stop offset="0" stop-color="#fff"/><stop offset="1" stop-color="#fff" stop-opacity="0"/></linearGradient><linearGradient gradientTransform="matrix(.626 0 0 .626 -20.332 -20.221)" xlink:href="#c" id="g" x1="171.608" y1="145.557" x2="182.334" y2="137.027" gradientUnits="userSpaceOnUse"/><linearGradient gradientTransform="matrix(.626 0 0 .626 -20.21 -17.524)" xlink:href="#c" id="f" x1="141.393" y1="166.845" x2="131.722" y2="175.073" gradientUnits="userSpaceOnUse"/><linearGradient xlink:href="#a" id="d" x1="99.818" y1="164.367" x2="220.995" y2="164.367" gradientUnits="userSpaceOnUse"/><linearGradient xlink:href="#b" id="e" gradientUnits="userSpaceOnUse" x1="115.452" y1="160" x2="204.026" y2="160.174"/></defs><g transform="translate(-48 -48)"><path style="isolation:auto;mix-blend-mode:normal;marker:none" d="M80 111.85L53.003 96.262V65.086L80 49.498 107 65.086v31.176z" color="#000" display="block" overflow="visible" fill-opacity=".018" stroke-width=".133"/><path style="isolation:auto;mix-blend-mode:normal;marker:none" d="M54.543 95.372v1.252L80 111.323l25.458-14.699v-1.252L80 110.071z" color="#000" overflow="visible" fill="#131a20" fill-opacity=".092" stroke-width=".086"/><path style="isolation:auto;mix-blend-mode:normal;marker:none" d="M192.612 192.612l-44.549 11.936-32.611-32.611 11.936-44.549 44.549-11.936 32.611 32.611z" transform="rotate(45 116.716 64.793) scale(.6374)" color="#000" display="block" overflow="visible" fill="url(#d)" stroke-width=".068"/><path transform="rotate(45 81.896 79.215) scale(.50992)" d="M192.612 192.612l-44.549 11.936-32.611-32.611 11.936-44.549 44.549-11.936 32.611 32.611z" style="isolation:auto;mix-blend-mode:normal;marker:none" color="#000" display="block" overflow="visible" fill="url(#e)" stroke-width=".068"/><path style="isolation:auto;mix-blend-mode:normal;marker:none" d="M59.634 92.433V68.915L80 57.157l20.367 11.758z" color="#000" overflow="visible" fill="#fff" fill-opacity=".058" stroke-width=".035"/><path style="isolation:auto;mix-blend-mode:normal;marker:none" d="M80 57.156l-20.366 11.76v3.13L80 60.286l20.367 11.76v-3.13z" color="#000" display="block" overflow="visible" fill-opacity=".466" stroke-width=".035"/><path style="isolation:auto;mix-blend-mode:normal;marker:none" d="M59.634 92.436v.972L80 105.167l20.367-11.76v-.971L80 104.196z" color="#000" display="block" overflow="visible" fill="#faf8fb" fill-opacity=".24" stroke-width=".035"/><path style="isolation:auto;mix-blend-mode:normal;marker:none" d="M80 51.277L54.543 65.975v.626L80 51.903 105.458 66.6v-.626z" color="#000" display="block" overflow="visible" fill="#fff" fill-opacity=".267" stroke-width=".043"/><path d="M85.002 59.998v3.937H74.923v-3.78h-.398v3.78h-5.992v-.072h-.36v.072h-.381v.3h.381v5.694h-8.188v.34h8.188v5.656h-6.031v-8.05h-.32v8.05H59.74v.377h2.084v9.222l-1.932-.032-.005.377 1.936.032v7.684h.32v-7.68l6.031.099v5.843h-4.881l-.005.339h4.886v4.995h.36v-.289l5.992.056v4.038h.397v-2.88l10.08.165v3.028l.397.005V97.3l6.18-.106v.179l.002-.18.458.008.005-.3-.46-.008-.112-4.707h7.872l.007-.34h-7.876l.038-5.463 6.418.105-.079 7.192.238.003.079-7.191 1.518.025.006-.376-1.52-.025.09-9.814h1.282v-.377h-1.278l.07-7.666-.239-.002-.07 7.668h-6.441l.039-5.656h8.303v-.34h-8.3l.039-5.695h.487v-.3H85.4v-3.93zm-16.469 4.236h5.992v5.695h-5.992zm6.39 0h10.079v5.695H74.923zm10.477 0h6.028v5.695H85.4zM68.533 70.27h5.992v5.655h-5.992zm6.39 0h10.079v5.655H74.923zm10.477 0h6.028v5.655H85.4zm-23.258 6.032h6.031v9.325l-6.031-.098zm6.391 0h5.992v9.429l-5.992-.097zm6.39 0h10.079v9.6l-10.079-.165zm10.477 0h6.028v9.705l-6.028-.098zm6.184 0h6.44l-.09 9.81-6.418-.104zm-23.05 9.709l5.991.096v5.74h-5.992zm6.389.103l10.079.164v5.569H74.923zm10.477.17l6.028.098v5.465H85.4zm-16.867 5.902h5.992v4.462l-5.992-.056zm6.39 0h10.079v5.784l-10.079-.164zm10.477 0h6.028l.152 4.707-6.18.106z" style="line-height:normal;font-variant-ligatures:normal;font-variant-position:normal;font-variant-caps:normal;font-variant-numeric:normal;font-variant-alternates:normal;font-feature-settings:normal;text-indent:0;text-align:start;text-decoration-line:none;text-decoration-style:solid;text-decoration-color:#000;text-transform:none;text-orientation:mixed;shape-padding:0;isolation:auto;mix-blend-mode:normal" color="#000" font-weight="400" font-family="sans-serif" white-space="normal" overflow="visible" opacity=".276" fill="#fff" fill-opacity=".309" fill-rule="evenodd" stroke-width=".318"/><path d="M66.413 84.682c-.066-.025-.123.013-.162.067l-.61.832.007.003a3.195 3.195 0 0 0-.645.012l-.65-.803c-.043-.051-.101-.086-.166-.058l-.94.419c-.065.028-.078.095-.068.16l.154 1.002a3.195 3.195 0 0 0-.464.478l-1.001-.105c-.067-.006-.133.01-.158.076l-.37.962c-.025.065.013.121.067.16l.795.584a3.195 3.195 0 0 0 .013.697l-.763.62c-.052.042-.087.1-.058.165l.418.94c.029.065.095.078.161.068l.958-.148a3.195 3.195 0 0 0 .517.494l-.1.965c-.007.067.01.133.075.158l.962.37c.066.025.122-.013.161-.067l.575-.784a3.195 3.195 0 0 0 .706-.022l.619.761c.042.052.1.087.165.058l.94-.418c.065-.029.078-.096.068-.162l-.151-.98a3.195 3.195 0 0 0 .464-.498l.999.104c.066.006.132-.01.157-.076l.37-.96c.025-.067-.013-.123-.067-.163l-.824-.603a3.195 3.195 0 0 0-.02-.647l.8-.649c.051-.042.086-.1.058-.165l-.419-.94c-.028-.065-.095-.079-.161-.068l-1.02.157.003.008a3.195 3.195 0 0 0-.467-.444h.003l.106-1.033c.007-.066-.009-.132-.075-.158l-.961-.369zm-.748 3.368a.74.74 0 0 1 .425.957.74.74 0 0 1-.956.425.74.74 0 0 1-.426-.957.74.74 0 0 1 .957-.425z" style="isolation:auto;mix-blend-mode:normal;marker:none" color="#000" overflow="visible" fill="none" stroke="url(#f)" stroke-width=".136" stroke-linecap="round" stroke-linejoin="round" paint-order="stroke fill markers"/><path style="isolation:auto;mix-blend-mode:normal;marker:none" d="M90.14 64.376c-.074-.002-.116.057-.136.124l-.302 1.044.007.002a3.368 3.368 0 0 0-.633.245l-.935-.559c-.06-.036-.131-.049-.185.003l-.78.755c-.053.052-.041.122-.008.184l.516.935a3.368 3.368 0 0 0-.286.641l-1.03.26c-.068.017-.127.058-.128.132l-.018 1.085c-.001.074.057.116.125.136l.998.289a3.368 3.368 0 0 0 .266.684l-.532.89c-.036.061-.05.132.003.185l.755.78c.052.053.122.042.184.008l.894-.493a3.368 3.368 0 0 0 .691.301l.25.992c.018.068.058.128.133.129l1.085.017c.074.002.116-.057.136-.124l.285-.985a3.368 3.368 0 0 0 .69-.277l.889.53c.06.035.13.049.184-.003l.78-.755c.053-.052.042-.123.008-.185l-.505-.915a3.368 3.368 0 0 0 .28-.661l1.025-.26c.068-.017.128-.057.129-.131l.017-1.085c.002-.075-.057-.117-.124-.137l-1.035-.298a3.368 3.368 0 0 0-.254-.633l.556-.932c.036-.06.05-.131-.002-.185l-.755-.78c-.052-.053-.123-.041-.185-.008l-.951.525.006.008a3.368 3.368 0 0 0-.624-.27h.003l-.27-1.062c-.016-.068-.056-.127-.13-.129l-1.086-.017zm.48 3.604a.78.78 0 0 1 .767.792.78.78 0 0 1-.792.768.78.78 0 0 1-.768-.792.78.78 0 0 1 .793-.768z" color="#000" overflow="visible" fill="none" stroke="url(#g)" stroke-width=".143" stroke-linecap="round" stroke-linejoin="round" paint-order="stroke fill markers"/><g fill="#fff" stroke-width=".176"><path d="M77.33 86.129c-.25.261-.582.46-.947.489-.114-.052-.22.166-.307.007-.23-.043-.475-.075-.667-.223-.58-.357-.866-1.138-.614-1.778.211-.593.818-1.033 1.455-.996.689.02 1.343.558 1.435 1.252.072.44-.05.918-.356 1.249zm.098-2.249c-.629-.649-1.786-.664-2.426-.022-.6.564-.73 1.575-.244 2.252.404.603 1.204.915 1.906.708.154-.04.302-.103.438-.186.148.003.23-.205.36-.28a1.749 1.749 0 0 0 .443-1.63 1.693 1.693 0 0 0-.477-.842M76.957 78.528c-.631.427-1.576.262-2.024-.355-.414-.537-.387-1.353.055-1.865a1.502 1.502 0 0 1 2.65 1.018c-.013.483-.278.94-.681 1.202zm.017.28a1.746 1.746 0 0 0 .098-3.013 1.75 1.75 0 0 0-1.963.063 1.765 1.765 0 0 0-.68 1.79 1.744 1.744 0 0 0 1.332 1.332c.409.092.845.027 1.213-.171zM85.14 86.108a1.504 1.504 0 0 1-1.74.3c-.557-.273-.909-.914-.816-1.53.04-.3.173-.586.375-.811.01-.08.151-.157.22-.22.523-.39 1.3-.38 1.81.03.526.398.725 1.162.46 1.767a1.481 1.481 0 0 1-.31.464zm.148-2.3a1.762 1.762 0 0 0-1.982-.323c-.26.124-.49.312-.657.547-.02.089-.132.207-.168.318a1.73 1.73 0 0 0 .341 1.937c.493.527 1.328.673 1.976.363a1.751 1.751 0 0 0 .49-2.841M82.116 81.85a2.122 2.122 0 0 1-1.665 1.48c-.138-.006-.054.194-.148.054-.136-.064-.383-.005-.44.048-.07-.207-.364-.052-.529-.187-.848-.302-1.456-1.176-1.414-2.08.019-.964.76-1.868 1.715-2.04a2.165 2.165 0 0 1 2.114.771c.43.54.572 1.294.367 1.953zm.301-.19a2.513 2.513 0 0 0-.148-1.38c-.095-.035-.114.061-.059-.067-.04-.225-.222-.391-.352-.57a2.402 2.402 0 0 0-2.409-.73 2.397 2.397 0 0 0-.865 4.193c.193.135.463.35.668.337.034-.094.05.164.175.09.182.072.47.092.594.036.227.135.514-.03.757-.059.83-.253 1.497-.99 1.639-1.85"/><path d="M91.392 82.959a1.303 1.303 0 0 0-.1-.022 2.486 2.486 0 0 0-1.034.064 4.032 4.032 0 0 0-.937.386l-.124-.034-.01.15c-.002.031-.012.065-.02.096-.035.157-.08.31-.135.45-.036.114-.057.176-.06.184a1.845 1.845 0 0 1-.054.16l-.039.113a2.73 2.73 0 0 1-.13.336l-.015.03a.501.501 0 0 0-.039.095l-.028.105.117.049c.326.71.757 1.213 1.29 1.5l.054.025.025.012a1.194 1.194 0 0 1-.156.385l-.208.353c-.125.197-.24.291-.265.317a1.515 1.515 0 0 0-.089-.068 2.449 2.449 0 0 0-.97-.39 4.27 4.27 0 0 0-1-.064l-.078-.066-.08.098a.706.706 0 0 1-.076.082c-.255.293-.433.492-.432.492-.009.008-.203.186-.475.446a1.27 1.27 0 0 0-.097.082l-.089.08.09.109c.005.367.025.675.097.972.085.363.22.665.413.924l.063.08a1.09 1.09 0 0 1-.297.283l-.355.224a1.17 1.17 0 0 1-.377.166l-.049-.089c-.15-.277-.377-.527-.69-.766a3.777 3.777 0 0 0-.887-.496l-.04-.09-.113.049a.978.978 0 0 0-.11.052c-.167.08-.312.132-.435.178a9.716 9.716 0 0 1-.176.064l-.234.083a3.31 3.31 0 0 1-.382.117l-.07.018-.04.01-.125.026.034.144a4.065 4.065 0 0 0-.346.933c-.074.386-.082.707-.024.996.003.037.01.074.02.112a1.157 1.157 0 0 1-.393.114l-.407.059a1.278 1.278 0 0 1-.392-.019l-.023-.007.002-.047.002-.057a2.512 2.512 0 0 0-.297-.99 4.265 4.265 0 0 0-.591-.839l-.037-.085-.098-.006a16.299 16.299 0 0 0-.566-.02l-.85-.114-.084-.014-.12-.032-.039.143c-.625.474-1.018 1.007-1.167 1.583l-.018.08-.005.023a.997.997 0 0 1-.409-.063l-.393-.132a1.535 1.535 0 0 1-.32-.152l-.046-.041c.011-.03.026-.062.043-.1.225-.567.223-1.261-.002-2.01l.064-.102-.138-.056-.046-.021-.044-.021c-.344-.199-.574-.33-.575-.33-.003-.002-.059-.039-.161-.093a6.041 6.041 0 0 1-.151-.107c-.071-.05-.152-.107-.227-.156a.714.714 0 0 0-.073-.057l-.133-.1-.082.118c-.56.128-1.25.352-1.736.918l-.023.027-.045.053a1.137 1.137 0 0 1-.341-.231l-.151-.14c-.07-.067-.137-.142-.141-.146a1.097 1.097 0 0 1-.24-.335l.078-.068c.56-.506.763-1.223.872-1.808l.092-.048-.434-.586a2.433 2.433 0 0 0-.097-.158c-.008-.014-.143-.243-.337-.558l-.034-.068-.018-.033-.048-.12-.144.065c-.754-.195-1.414-.172-1.952.065a.816.816 0 0 0-.107.047.965.965 0 0 1-.2-.36l-.144-.387a1.181 1.181 0 0 1-.08-.343l.004-.064a.579.579 0 0 0 .094-.026c.592-.172 1.123-.592 1.58-1.249l.125-.006-.046-.152a.75.75 0 0 1-.02-.1c-.066-.396-.104-.657-.104-.66 0-.002-.01-.064-.023-.17l-.011-.181c-.005-.088-.01-.19-.02-.3l-.001-.032c-.002-.033-.004-.066-.011-.099l-.02-.101-.12.003a5.57 5.57 0 0 0-.38-.281 3.362 3.362 0 0 0-.439-.255 2.477 2.477 0 0 0-.989-.25h-.097a1.053 1.053 0 0 1-.037-.41l.021-.21c.01-.096.025-.197.025-.2.027-.216.077-.349.108-.401l.026.005.071.017c.347.052.696.028 1.033-.07.303-.074.61-.2.94-.384l.097.026.062-.233a3.74 3.74 0 0 1 .115-.414l.067-.209s.025-.063.076-.207c.033-.105.079-.248.146-.403.02-.03.038-.07.058-.116l.05-.114-.13-.057c-.326-.712-.757-1.216-1.289-1.502a1.567 1.567 0 0 0-.087-.04 1.18 1.18 0 0 1 .156-.382l.217-.36a.96.96 0 0 1 .272-.305l.023.02.058.044c.274.185.6.316.965.39.312.06.616.067 1 .054l.096.08.075-.119.022-.027.034-.043c.263-.297.439-.49.438-.49l.496-.458.155-.159-.086-.1a4.3 4.3 0 0 0-.09-.972 2.438 2.438 0 0 0-.476-1.006c.033-.056.132-.168.295-.286l.353-.217c.191-.117.328-.16.384-.167l.02.044.024.047c.159.282.387.533.697.766.248.186.548.353.894.498l.053.075.132-.058a.7.7 0 0 1 .074-.033c.13-.07.246-.111.348-.148l.083-.03.175-.062c.002-.001.067-.025.16-.064l.075-.025c.103-.035.231-.079.395-.117l.042-.012.075-.02.117-.044-.048-.127c.168-.327.278-.63.334-.923a2.373 2.373 0 0 0 .01-1.105c.056-.034.196-.09.4-.122l.4-.06c.17-.01.347.008.416.03l.001.027.004.073c.025.34.123.676.293.998.156.304.376.584.578.821l-.007.103.176.002.067.002c.198.014.365.018.483.021.1.007.162.018.17.02 0 0 .262.036.646.084l.07.014.045.008.13.035.028-.152c.607-.458 1.01-1.004 1.164-1.581l.025-.097c.056-.01.202-.008.405.063l.395.132c.135.048.254.105.319.152l.048.04a2.222 2.222 0 0 0-.042.095c-.227.566-.226 1.246.003 2.024l-.043.094.139.065.064.032c.349.196.579.331.583.333.001.002.058.032.148.087.081.054.182.125.305.21l.081.054.063.052.13.107.095-.123c.798-.174 1.352-.466 1.73-.91a.61.61 0 0 0 .072-.083c.07.023.2.102.342.23 0 0 .075.071.153.14.07.065.134.139.14.146.141.147.217.273.24.332l-.081.065c-.579.535-.78 1.297-.878 1.835l-.05.063.046.075c.019.03.045.071.07.095.068.096.131.18.186.255.039.05.073.097.095.128.058.099.101.158.103.159.013.023.141.246.346.573a.53.53 0 0 0 .056.109l.07.095.107-.07c.74.196 1.417.174 1.964-.065l.094-.046c.043.041.131.158.202.362l.14.388c.047.13.076.257.078.347v.056l-.104.028c-.585.174-1.116.598-1.579 1.26l-.09.02.02.117c.006.04.013.083.02.107.064.395.1.66.102.669 0 .003.014.066.027.161.003.117.014.289.031.484l.007.241.15-.01c.126.104.254.198.376.275.137.097.284.184.44.261.35.16.665.242.981.252h.101c.02.056.044.195.035.413 0 .002-.005.097-.02.2l-.022.208a1.088 1.088 0 0 1-.11.398zm.378-.575c.017-.11.022-.218.022-.22.011-.278-.013-.62-.195-.669l-.054-.004c-.032.002-.064.001-.099 0h-.032a2.266 2.266 0 0 1-.878-.227 3.053 3.053 0 0 1-.41-.243 3.551 3.551 0 0 1-.393-.292l-.03-.025c-.016-.194-.027-.36-.031-.485a2.197 2.197 0 0 0-.03-.188c-.002-.015-.04-.278-.104-.673l-.006-.028c.434-.63.927-1.029 1.465-1.19.032-.01.064-.017.095-.025l.022-.007c.067-.006.177-.056.163-.3a1.411 1.411 0 0 0-.093-.42l-.14-.386c-.08-.235-.231-.491-.386-.532a.163.163 0 0 0-.119.01l-.127.063c-.495.215-1.122.232-1.812.047l-.068-.019-.003-.005c-.213-.339-.342-.564-.352-.58-.003-.002-.041-.054-.1-.153a6.14 6.14 0 0 0-.104-.143c-.054-.072-.116-.154-.194-.263l-.015-.018c.146-.804.394-1.331.8-1.706l.102-.084a.168.168 0 0 0 .068-.124c.017-.186-.235-.466-.309-.543 0 0-.074-.086-.159-.165-.075-.066-.146-.134-.15-.137-.164-.149-.335-.257-.457-.29-.126-.033-.192.016-.23.063a.516.516 0 0 1-.076.093c-.356.417-.879.686-1.646.847l-.033.007-.002-.002-.096-.067a15.563 15.563 0 0 0-.313-.213 3.346 3.346 0 0 0-.16-.095c-.006-.004-.237-.14-.578-.33l-.04-.022c-.221-.734-.227-1.37-.02-1.887.017-.037.035-.081.052-.113.039-.068.046-.177-.14-.315a1.575 1.575 0 0 0-.386-.186l-.395-.133a1.562 1.562 0 0 0-.113-.035c-.088-.023-.386-.092-.53.006-.043.03-.07.072-.072.102l-.036.132c-.143.534-.527 1.045-1.11 1.474l-.034.025-.005-.002c-.394-.05-.654-.087-.655-.087-.002 0-.073-.013-.197-.022a10.882 10.882 0 0 1-.49-.02l-.034-.001c-.197-.23-.415-.504-.564-.794a2.28 2.28 0 0 1-.266-.904l-.003-.063-.004-.05c.006-.058-.011-.162-.202-.213a1.604 1.604 0 0 0-.485-.03l-.411.061c-.08.012-.485.084-.59.245a.168.168 0 0 0-.025.137 2.148 2.148 0 0 1 0 1.04 3.303 3.303 0 0 1-.337.907l-.017.032c-.16.038-.292.083-.4.12l-.08.027c-.095.039-.156.061-.16.062 0 0-.062.024-.174.062l-.082.03a2.35 2.35 0 0 0-.362.155l-.05.02a3.954 3.954 0 0 1-.856-.473 2.233 2.233 0 0 1-.627-.683l-.018-.038a1.13 1.13 0 0 0-.046-.092.175.175 0 0 0-.113-.087c-.174-.047-.477.121-.6.196l-.36.223c-.19.135-.4.335-.417.486a.172.172 0 0 0 .043.138.687.687 0 0 1 .08.1c.174.234.298.513.37.83.061.266.086.554.083.96v.044c-.294.269-.485.447-.492.454 0 0-.18.197-.461.518l-.005.007c-.38.014-.678.01-.975-.048a2.429 2.429 0 0 1-.87-.35l-.043-.034-.064-.05-.06-.03c-.19-.05-.436.259-.54.43l-.22.361c-.04.07-.242.428-.18.615a.17.17 0 0 0 .1.106c.043.015.08.033.11.049.49.263.892.742 1.196 1.425l.012.026c-.082.183-.13.334-.171.464-.04.112-.064.172-.066.178l-.07.217c-.036.11-.085.26-.12.433l-.009.03c-.317.181-.622.308-.913.38-.307.089-.62.11-.918.066l-.07-.016c-.064-.015-.14-.033-.204.01-.156.106-.214.484-.228.596 0 0-.015.105-.026.207l-.022.214c-.009.142-.022.612.199.671l.178.007c.289.01.592.087.887.228.136.064.272.143.405.235.162.11.289.205.399.296l.027.023v.006c.009.108.014.207.02.293.003.072.006.135.011.191.013.118.024.185.024.185.001.005.039.267.104.66l.007.044c-.429.629-.923 1.028-1.48 1.19a.686.686 0 0 1-.115.027c-.102.022-.152.124-.15.301.002.107.032.244.094.424l.144.387c.08.234.231.489.385.53a.168.168 0 0 0 .129-.015.645.645 0 0 1 .117-.055c.504-.222 1.124-.237 1.84-.045l.042.011.002.004c.208.342.344.574.35.582.001.002.036.053.097.16l.313.417c-.1.551-.285 1.238-.803 1.705-.033.03-.064.058-.107.089a.177.177 0 0 0-.058.13c-.006.194.241.463.314.538 0 0 .074.082.151.156l.153.142c.164.15.336.26.46.292.131.036.195-.02.223-.06a.684.684 0 0 1 .06-.074l.024-.029c.352-.41.86-.67 1.648-.847l.024-.005.01.007c.088.06.167.116.236.165.06.042.112.08.167.116.1.054.15.086.16.092l.593.34.025.012c.221.71.229 1.361.025 1.878a1.39 1.39 0 0 0-.053.125c-.039.067-.047.175.139.316.093.064.229.13.382.185l.396.133c.036.012.071.023.105.032.088.023.387.093.534 0a.169.169 0 0 0 .08-.104l.016-.07.017-.07c.137-.531.51-1.028 1.11-1.474l.03-.023h.003l.667.094.193.021c.119.002.282.008.486.017l.036.001c.246.28.426.533.567.8.155.292.246.593.268.879l-.001.041a2.124 2.124 0 0 0-.004.109c.002.065.04.152.208.197.118.032.292.041.485.025l.413-.06c.112-.016.485-.08.588-.24a.168.168 0 0 0 .022-.138.68.68 0 0 1-.027-.128c-.053-.274-.046-.555.022-.909.075-.315.19-.621.344-.91l.016-.031a3.47 3.47 0 0 0 .41-.126l.233-.082s.063-.022.196-.072c.11-.04.26-.096.447-.184l.024-.013c.331.13.62.29.86.475.286.217.49.442.635.708.02.038.041.076.05.087.018.051.06.09.117.104.146.04.404-.076.597-.197l.36-.227c.189-.132.398-.328.416-.48a.17.17 0 0 0-.038-.134 2.205 2.205 0 0 1-.452-.937c-.07-.288-.086-.592-.091-.962v-.029l.005-.004c.29-.274.486-.453.495-.463 0 0 .18-.202.431-.492l.041-.04c.308-.01.638-.01.97.059.332.059.624.174.874.35.034.023.065.048.1.079l.063.032c.22.059.491-.347.546-.433l.21-.358c.057-.099.239-.433.18-.613a.168.168 0 0 0-.095-.105l-.06-.028-.054-.025c-.485-.26-.886-.74-1.192-1.423l-.014-.032c.065-.136.106-.259.139-.357l.036-.105c.041-.11.06-.175.06-.176l.055-.172c.058-.146.106-.308.142-.475l.01-.04c.303-.172.6-.295.904-.376a2.24 2.24 0 0 1 .929-.06c.045.009.084.02.135.032a.18.18 0 0 0 .14-.036c.155-.116.21-.48.222-.588l.022-.206"/><path d="M84.012 78.706a1.499 1.499 0 0 1-1.357-2.174c-.087-.037-.126-.07-.007-.031.12-.105.179-.285.314-.387.454-.44 1.193-.544 1.745-.233.512.274.842.858.787 1.44-.045.67-.59 1.266-1.256 1.363-.075.012-.15.02-.226.022zm.005.248c.278-.008.554-.077.8-.207-.048-.083-.07-.123.017-.036.154-.012.26-.172.384-.256a1.758 1.758 0 0 0 .425-1.845c-.24-.677-.926-1.17-1.648-1.156-.614-.002-1.221.34-1.513.884-.118.07.17.128-.004.091-.14.043-.128.258-.185.378a1.74 1.74 0 0 0-.04.544c.094.008.154.03.021.038-.027.142.044.3.085.44a1.749 1.749 0 0 0 1.658 1.125"/></g><circle style="isolation:auto;mix-blend-mode:normal;marker:none" cx="102.866" cy="68.068" r="1.225" color="#000" display="block" overflow="visible" opacity=".537" fill="#b6d5f0" stroke-width=".312" stroke-linejoin="round"/><circle style="isolation:auto;mix-blend-mode:normal;marker:none" cx="57.074" cy="67.691" r="1.225" color="#000" display="block" overflow="visible" opacity=".537" fill="#b6d5f0" stroke-width=".312" stroke-linejoin="round"/><circle r="1.225" cy="94.2" cx="57.074" style="isolation:auto;mix-blend-mode:normal;marker:none" color="#000" display="block" overflow="visible" opacity=".537" fill="#b6d5f0" stroke-width=".312" stroke-linejoin="round"/><circle style="isolation:auto;mix-blend-mode:normal;marker:none" cx="80.064" cy="107.328" r="1.225" color="#000" display="block" overflow="visible" opacity=".537" fill="#b6d5f0" stroke-width=".312" stroke-linejoin="round"/><circle r="1.225" cy="94.262" cx="102.489" style="isolation:auto;mix-blend-mode:normal;marker:none" color="#000" display="block" overflow="visible" opacity=".537" fill="#b6d5f0" stroke-width=".312" stroke-linejoin="round"/><circle r="1.225" cy="54.689" cx="80.001" style="isolation:auto;mix-blend-mode:normal;marker:none" color="#000" display="block" overflow="visible" opacity=".537" fill="#b6d5f0" stroke-width=".312" stroke-linejoin="round"/></g></svg>