<svg xmlns:osb="http://www.openswatchbook.org/uri/2009/osb" xmlns="http://www.w3.org/2000/svg" xmlns:xlink="http://www.w3.org/1999/xlink" height="64" viewBox="0 0 64 64" width="64"><title>Template icons dark</title><defs><linearGradient id="h"><stop offset="0" stop-color="#f72424" stop-opacity=".066"/><stop offset="1" stop-color="#f72424" stop-opacity=".118"/></linearGradient><linearGradient id="g" osb:paint="solid"><stop offset="0" stop-opacity=".196"/></linearGradient><linearGradient id="f" osb:paint="solid"><stop offset="0" stop-color="#fff" stop-opacity=".162"/></linearGradient><linearGradient id="e" osb:paint="solid"><stop offset="0" stop-opacity=".009"/></linearGradient><linearGradient id="d" osb:paint="solid"><stop offset="0" stop-opacity=".026"/></linearGradient><linearGradient id="b"><stop offset="0" stop-color="#fa2727"/><stop offset="1" stop-color="#fb4e4e"/></linearGradient><linearGradient id="a"><stop offset="0" stop-color="#fa2727"/><stop offset="1" stop-color="#d90101"/></linearGradient><linearGradient xlink:href="#a" id="j" gradientUnits="userSpaceOnUse" gradientTransform="matrix(1.4629 0 0 1.4641 44.919 46.116)" x1="24.117" y1="4.931" x2="24.058" y2="42.556"/><linearGradient xlink:href="#c" id="k" gradientUnits="userSpaceOnUse" gradientTransform="matrix(1.4629 0 0 1.4641 44.919 46.116)" x1="26.073" y1="18.962" x2="34.374" y2="10.815"/><linearGradient xlink:href="#b" id="m" gradientUnits="userSpaceOnUse" gradientTransform="matrix(1.67188 0 0 1.4641 38.004 45.955)" x1="34.176" y1="10.276" x2="30.758" y2="13.691"/><linearGradient id="c"><stop offset="0" stop-opacity="0"/><stop offset="1" stop-opacity=".102"/></linearGradient><linearGradient xlink:href="#d" id="i" x1="126" y1="161.5" x2="194" y2="161.5" gradientUnits="userSpaceOnUse"/><linearGradient xlink:href="#g" id="l" x1="166" y1="133.472" x2="193" y2="133.472" gradientUnits="userSpaceOnUse"/></defs><path d="M57 52h29.016L103 69v41H57z" style="isolation:auto;mix-blend-mode:normal;marker:none" color="#000" overflow="visible" fill="url(#i)" stroke-width=".852" paint-order="fill markers stroke" transform="translate(-48 -48)"/><path style="isolation:auto;mix-blend-mode:normal;marker:none" d="M58 53h28l16 16v40H58V53z" color="#000" overflow="visible" fill="url(#j)" stroke-width=".552" paint-order="fill markers stroke" transform="translate(-48 -48)"/><path d="M58 53h28l16 16v40H58z" style="isolation:auto;mix-blend-mode:normal;marker:none" color="#000" overflow="visible" fill="url(#k)" stroke-width=".552" paint-order="fill markers stroke" transform="translate(-48 -48)"/><path d="M86 53l16 16-18 2z" fill="url(#l)" fill-rule="evenodd" stroke-width="2.195" transform="translate(-48 -48)"/><path d="M86 53l16 16H86z" fill="url(#m)" fill-rule="evenodd" stroke-width="1.565" transform="translate(-48 -48)"/><path d="M46.293 38.072c-.532-.524-1.711-.802-3.506-.825-1.216-.014-2.678.093-4.217.309-.688-.398-1.398-.83-1.956-1.351-1.499-1.4-2.75-3.343-3.53-5.48.051-.2.094-.375.134-.554 0 0 .845-4.796.621-6.418a1.874 1.874 0 0 0-.11-.46l-.072-.188c-.23-.53-.68-1.091-1.387-1.06l-.414-.014h-.011c-.787 0-1.429.403-1.597 1.005-.513 1.887.016 4.712.973 8.37l-.245.595c-.685 1.671-1.544 3.354-2.302 4.84l-.099.192a81.27 81.27 0 0 1-2.177 4.008l-.677.358c-.05.026-1.21.64-1.482.805-2.31 1.379-3.84 2.944-4.094 4.186-.081.397-.02.904.39 1.139l.655.33c.284.142.584.214.89.214 1.646 0 3.555-2.05 6.186-6.64 3.037-.99 6.496-1.811 9.526-2.264 2.31 1.3 5.15 2.203 6.944 2.203.318 0 .592-.03.815-.089.344-.091.634-.287.81-.553.349-.524.42-1.245.325-1.983-.028-.22-.203-.49-.393-.675zm-24.569 8.753c.3-.82 1.488-2.442 3.243-3.88.11-.09.382-.345.631-.581-1.836 2.928-3.065 4.095-3.874 4.46zm10.398-23.946c.53 0 .83 1.333.855 2.583.025 1.25-.267 2.126-.63 2.775-.3-.96-.445-2.475-.445-3.465 0 0-.022-1.893.22-1.893zm-3.101 17.064c.368-.659.751-1.354 1.143-2.092a39.843 39.843 0 0 0 2.006-4.379c.893 1.625 2.005 3.006 3.313 4.113.163.138.336.277.517.415-2.659.526-4.956 1.166-6.98 1.943zm16.761-.15c-.162.102-.625.16-.924.16-.963 0-2.154-.44-3.824-1.156.642-.047 1.23-.071 1.758-.071.965 0 1.252-.004 2.196.236.944.241.956.73.794.832z" fill="#fffcfd" stroke-width=".827"/></svg>