<svg xmlns:osb="http://www.openswatchbook.org/uri/2009/osb" xmlns="http://www.w3.org/2000/svg" xmlns:xlink="http://www.w3.org/1999/xlink" height="64" viewBox="0 0 64 64" width="64"><title>Template icons dark</title><defs><linearGradient id="g" osb:paint="solid"><stop offset="0" stop-opacity=".196"/></linearGradient><linearGradient id="f" osb:paint="solid"><stop offset="0" stop-color="#fff" stop-opacity=".302"/></linearGradient><linearGradient id="e" osb:paint="solid"><stop offset="0" stop-opacity=".009"/></linearGradient><linearGradient id="d" osb:paint="solid"><stop offset="0" stop-opacity=".022"/></linearGradient><linearGradient id="b"><stop offset="0" stop-color="#ffa532"/><stop offset="1" stop-color="#ff8300"/></linearGradient><linearGradient id="a"><stop offset="0" stop-color="#ff8300"/><stop offset="1" stop-color="#ff5b00"/></linearGradient><linearGradient xlink:href="#a" id="j" gradientUnits="userSpaceOnUse" gradientTransform="matrix(1.4629 0 0 1.4641 44.919 46.116)" x1="24.117" y1="4.931" x2="24.058" y2="42.556"/><linearGradient xlink:href="#c" id="k" gradientUnits="userSpaceOnUse" gradientTransform="matrix(1.4629 0 0 1.4641 44.919 46.116)" x1="26.073" y1="18.962" x2="34.374" y2="10.815"/><linearGradient xlink:href="#b" id="m" gradientUnits="userSpaceOnUse" gradientTransform="matrix(1.67188 0 0 1.4641 38.004 45.955)" x1="34.176" y1="10.276" x2="30.758" y2="13.691"/><linearGradient id="c"><stop offset="0" stop-opacity="0"/><stop offset="1" stop-opacity=".102"/></linearGradient><linearGradient xlink:href="#d" id="i" x1="126" y1="161.5" x2="194" y2="161.5" gradientUnits="userSpaceOnUse"/><linearGradient xlink:href="#g" id="l" x1="166" y1="133.472" x2="193" y2="133.472" gradientUnits="userSpaceOnUse"/><linearGradient id="h"><stop offset="0" stop-opacity="0"/><stop offset="1" stop-opacity=".083"/></linearGradient><linearGradient gradientTransform="translate(-68.031 -81.577)" xlink:href="#h" id="n" x1="127" y1="161.5" x2="148.031" y2="161.5" gradientUnits="userSpaceOnUse"/></defs><path d="M57 52h29.016L103 69v41H57z" style="isolation:auto;mix-blend-mode:normal;marker:none" color="#000" overflow="visible" fill="url(#i)" stroke-width=".852" paint-order="fill markers stroke" transform="translate(-48 -48)"/><path style="isolation:auto;mix-blend-mode:normal;marker:none" d="M58 53h28l16 16v40H58V53z" color="#000" overflow="visible" fill="url(#j)" stroke-width=".552" paint-order="fill markers stroke" transform="translate(-48 -48)"/><path d="M58 53h28l16 16v40H58z" style="isolation:auto;mix-blend-mode:normal;marker:none" color="#000" overflow="visible" fill="url(#k)" stroke-width=".552" paint-order="fill markers stroke" transform="translate(-48 -48)"/><path d="M86 53l16 16-18 2z" fill="url(#l)" fill-rule="evenodd" stroke-width="2.195" transform="translate(-48 -48)"/><path d="M86 53l16 16H86z" fill="url(#m)" fill-rule="evenodd" stroke-width="1.565" transform="translate(-48 -48)"/><path style="isolation:auto;mix-blend-mode:normal;marker:none" d="M58 53h22v56H58V53z" color="#000" overflow="visible" fill="url(#n)" stroke-width=".829" paint-order="fill markers stroke" transform="translate(-48 -48)"/><path style="isolation:auto;mix-blend-mode:normal;marker:none" d="M48 36a16 16 0 0 1-9.877 14.782 16 16 0 0 1-17.437-3.468 16 16 0 0 1-3.468-17.437A16 16 0 0 1 32 20v16z" color="#000" display="block" overflow="visible" fill="#7d1005" fill-opacity=".198" stroke-width=".377" stroke-opacity=".964" paint-order="fill markers stroke"/><path style="isolation:auto;mix-blend-mode:normal;marker:none" d="M47 36a15 15 0 0 1-9.26 13.858 15 15 0 0 1-16.347-3.251 15 15 0 0 1-3.251-16.347A15 15 0 0 1 32 21v15z" color="#000" display="block" overflow="visible" fill="#fff" stroke-width=".353" stroke-opacity=".964" paint-order="fill markers stroke"/><path style="isolation:auto;mix-blend-mode:normal;marker:none" d="M32 21a15 15 0 0 1 15 15H32z" color="#000" display="block" overflow="visible" fill="#fff" fill-opacity=".354" stroke-width=".353" stroke-opacity=".964" paint-order="fill markers stroke"/></svg>