<svg xmlns:osb="http://www.openswatchbook.org/uri/2009/osb" xmlns="http://www.w3.org/2000/svg" xmlns:xlink="http://www.w3.org/1999/xlink" height="64" viewBox="0 0 64 64" width="64"><title>Template icons dark</title><defs><linearGradient id="g" osb:paint="solid"><stop offset="0" stop-opacity=".196"/></linearGradient><linearGradient id="f" osb:paint="solid"><stop offset="0" stop-color="#fff" stop-opacity=".302"/></linearGradient><linearGradient id="e" osb:paint="solid"><stop offset="0" stop-opacity=".009"/></linearGradient><linearGradient id="d" osb:paint="solid"><stop offset="0" stop-opacity=".026"/></linearGradient><linearGradient id="b"><stop offset="0" stop-color="#9af5b5"/><stop offset="1" stop-color="#56ee83"/></linearGradient><linearGradient id="a"><stop offset="0" stop-color="#42ec81"/><stop offset="1" stop-color="#3add5c"/></linearGradient><linearGradient xlink:href="#a" id="j" gradientUnits="userSpaceOnUse" gradientTransform="matrix(1.4629 0 0 1.4641 44.919 46.116)" x1="24.117" y1="4.931" x2="24.058" y2="42.556"/><linearGradient xlink:href="#c" id="k" gradientUnits="userSpaceOnUse" gradientTransform="matrix(1.4629 0 0 1.4641 44.919 46.116)" x1="26.073" y1="18.962" x2="34.374" y2="10.815"/><linearGradient xlink:href="#b" id="m" gradientUnits="userSpaceOnUse" gradientTransform="matrix(1.67188 0 0 1.4641 38.004 45.955)" x1="34.176" y1="10.276" x2="30.758" y2="13.691"/><linearGradient id="c"><stop offset="0" stop-opacity="0"/><stop offset="1" stop-opacity=".102"/></linearGradient><linearGradient xlink:href="#d" id="i" x1="126" y1="161.5" x2="194" y2="161.5" gradientUnits="userSpaceOnUse"/><linearGradient xlink:href="#g" id="l" x1="166" y1="133.472" x2="193" y2="133.472" gradientUnits="userSpaceOnUse"/><linearGradient id="h"><stop offset="0" stop-opacity="0"/><stop offset="1" stop-opacity=".083"/></linearGradient><linearGradient gradientTransform="translate(-68.031 -81.577)" xlink:href="#h" id="n" x1="127" y1="161.5" x2="148.031" y2="161.5" gradientUnits="userSpaceOnUse"/></defs><path d="M57 52h29.016L103 69v41H57z" style="isolation:auto;mix-blend-mode:normal;marker:none" color="#000" overflow="visible" fill="url(#i)" stroke-width=".852" paint-order="fill markers stroke" transform="translate(-48 -48)"/><path style="isolation:auto;mix-blend-mode:normal;marker:none" d="M58 53h28l16 16v40H58V53z" color="#000" overflow="visible" fill="url(#j)" stroke-width=".552" paint-order="fill markers stroke" transform="translate(-48 -48)"/><path d="M58 53h28l16 16v40H58z" style="isolation:auto;mix-blend-mode:normal;marker:none" color="#000" overflow="visible" fill="url(#k)" stroke-width=".552" paint-order="fill markers stroke" transform="translate(-48 -48)"/><path d="M86 53l16 16-18 2z" fill="url(#l)" fill-rule="evenodd" stroke-width="2.195" transform="translate(-48 -48)"/><path d="M86 53l16 16H86z" fill="url(#m)" fill-rule="evenodd" stroke-width="1.565" transform="translate(-48 -48)"/><path style="isolation:auto;mix-blend-mode:normal;marker:none" d="M58 53h22v56H58V53z" color="#000" overflow="visible" fill="url(#n)" stroke-width=".829" paint-order="fill markers stroke" transform="translate(-48 -48)"/><path style="isolation:auto;mix-blend-mode:normal;marker:none" d="M16.004 55.19v-.812c0-.449.361-.81.81-.81h6.38c.449 0 .81.361.81.81v.811c0 .45-.361.811-.81.811h-6.38a.809.809 0 0 1-.81-.81z" color="#000" display="block" overflow="visible" fill-opacity=".208" stroke-width=".021"/><path style="isolation:auto;mix-blend-mode:normal;marker:none" d="M16.004 54.378V39.784c0-.45.361-.811.81-.811h6.38c.449 0 .81.362.81.81v14.595c0 .45-.361.811-.81.811h-6.38a.809.809 0 0 1-.81-.81z" color="#000" display="block" overflow="visible" fill="#fff" fill-opacity=".979" stroke-width=".017"/><path style="isolation:auto;mix-blend-mode:normal;marker:none" d="M28.002 55.188v-.808a.81.81 0 0 1 .811-.812h6.376a.81.81 0 0 1 .812.812v.808a.81.81 0 0 1-.812.812h-6.376a.81.81 0 0 1-.811-.812z" color="#000" display="block" overflow="visible" fill-opacity=".208" stroke-width=".021"/><path style="isolation:auto;mix-blend-mode:normal;marker:none" d="M28.002 54.378v-21.56c0-.448.361-.81.81-.81h6.378c.45 0 .81.362.81.81v21.56c0 .45-.36.811-.81.811h-6.378a.809.809 0 0 1-.81-.81z" color="#000" display="block" overflow="visible" fill="#fff" fill-opacity=".979" stroke-width=".017"/><path style="isolation:auto;mix-blend-mode:normal;marker:none" d="M39.995 55.19v-.812c0-.449.361-.81.81-.81h6.384c.45 0 .811.361.811.81v.811c0 .45-.362.811-.81.811h-6.385a.809.809 0 0 1-.81-.81z" color="#000" display="block" overflow="visible" fill-opacity=".208" stroke-width=".021"/><path style="isolation:auto;mix-blend-mode:normal;marker:none" d="M39.995 54.378V26.811c0-.45.361-.811.81-.811h6.384c.45 0 .811.362.811.81v27.568c0 .45-.362.811-.81.811h-6.385a.809.809 0 0 1-.81-.81z" color="#000" display="block" overflow="visible" fill="#fafafa" stroke-width=".017"/></svg>