<svg xmlns:osb="http://www.openswatchbook.org/uri/2009/osb" xmlns="http://www.w3.org/2000/svg" xmlns:xlink="http://www.w3.org/1999/xlink" height="64" viewBox="0 0 64 64" width="64" enable-background="new"><title>Template icons dark</title><defs><linearGradient id="g" osb:paint="solid"><stop offset="0" stop-opacity=".196"/></linearGradient><linearGradient id="f" osb:paint="solid"><stop offset="0" stop-color="#fff" stop-opacity=".469"/></linearGradient><linearGradient id="e" osb:paint="solid"><stop offset="0" stop-opacity=".009"/></linearGradient><linearGradient id="d" osb:paint="solid"><stop offset="0" stop-opacity=".022"/></linearGradient><linearGradient id="b"><stop offset="0" stop-color="#92cbd1"/><stop offset="1" stop-color="#41bda9"/></linearGradient><linearGradient id="a"><stop offset="0" stop-color="#44e9b3"/><stop offset="1" stop-color="#43a8ce"/></linearGradient><linearGradient xlink:href="#a" id="i" gradientUnits="userSpaceOnUse" gradientTransform="matrix(1.4629 0 0 1.4641 44.919 46.116)" x1="24.117" y1="4.931" x2="24.058" y2="42.556"/><linearGradient xlink:href="#c" id="j" gradientUnits="userSpaceOnUse" gradientTransform="matrix(1.4629 0 0 1.4641 44.919 46.116)" x1="26.073" y1="18.962" x2="34.374" y2="10.815"/><linearGradient xlink:href="#b" id="l" gradientUnits="userSpaceOnUse" gradientTransform="matrix(1.67188 0 0 1.4641 38.004 45.955)" x1="34.176" y1="10.276" x2="30.758" y2="13.691"/><linearGradient id="c"><stop offset="0" stop-opacity="0"/><stop offset="1" stop-opacity=".102"/></linearGradient><linearGradient xlink:href="#d" id="h" x1="126" y1="161.5" x2="194" y2="161.5" gradientUnits="userSpaceOnUse"/><linearGradient xlink:href="#g" id="k" x1="166" y1="133.472" x2="193" y2="133.472" gradientUnits="userSpaceOnUse"/><filter id="m" x="-.062" width="1.125" y="-.278" height="1.555" color-interpolation-filters="sRGB"><feGaussianBlur stdDeviation="1.712"/></filter></defs><path d="M57 52h29.016L103 69v41H57z" style="isolation:auto;mix-blend-mode:normal;marker:none" color="#000" overflow="visible" fill="url(#h)" stroke-width=".852" paint-order="fill markers stroke" enable-background="accumulate" transform="translate(-48 -48)"/><path style="isolation:auto;mix-blend-mode:normal;marker:none" d="M58 53h28l16 16v40H58V53z" color="#000" overflow="visible" fill="url(#i)" stroke-width=".552" paint-order="fill markers stroke" enable-background="accumulate" transform="translate(-48 -48)"/><path d="M58 53h28l16 16v40H58z" style="isolation:auto;mix-blend-mode:normal;marker:none" color="#000" overflow="visible" fill="url(#j)" stroke-width=".552" paint-order="fill markers stroke" enable-background="accumulate" transform="translate(-48 -48)"/><path d="M86 53l16 16-18 2z" fill="url(#k)" fill-rule="evenodd" stroke-width="2.195" transform="translate(-48 -48)"/><path d="M86 53l16 16H86z" fill="url(#l)" fill-rule="evenodd" stroke-width="1.565" transform="translate(-48 -48)"/><path d="M126.785 162.895s8.22-8.978 16.44-8.978 24.659 14.802 32.879 14.802c8.22 0 16.44-5.824 16.44-5.824" transform="matrix(.59747 0 0 .72068 -63.607 -80.034)" fill="none" fill-rule="evenodd" stroke="#fff" stroke-width="2" filter="url(#m)"/><path d="M10.41 37.433s5.422-6.393 10.843-6.393c5.422 0 16.266 10.54 21.687 10.54 5.422 0 10.844-4.147 10.844-4.147" fill="none" fill-rule="evenodd" stroke="#fff" stroke-width=".685" stroke-opacity=".518"/><path transform="matrix(.58268 0 0 .72535 -61.238 -77.393)" d="M126.134 163.016s23.19-11.51 34.923-10.787c11.735.723 17.11 12.51 22.727 12.39 5.616-.12 9.54-3.894 9.54-3.894" fill="none" fill-rule="evenodd" stroke="#fff" stroke-width="2" filter="url(#m)"/><path d="M11.066 40.809s14.256-8.247 21.47-7.728c7.214.518 10.52 8.963 13.972 8.877 3.453-.087 5.865-2.79 5.865-2.79" fill="none" fill-rule="evenodd" stroke="#fff" stroke-width=".685" stroke-opacity=".366"/><path d="M126.134 163.016s37.626-12.067 47.42-10.184c9.794 1.883 11.88 9.255 19.77 7.893" transform="matrix(.58522 0 0 .7256 -61.502 -77.429)" fill="none" fill-rule="evenodd" stroke="#fff" stroke-width="2" filter="url(#m)"/><path d="M11.066 40.809s22.839-8.463 28.673-7.037c5.834 1.425 5.577 4.441 12.635 5.395" fill="none" fill-rule="evenodd" stroke="#fff" stroke-width=".685" stroke-opacity=".366"/><path transform="matrix(.58114 0 0 .72983 -60.967 -78.183)" d="M126.134 163.016s16.799-2.421 25.421-1.382c8.623 1.04 32.187 11.064 42.29 1.864" fill="none" fill-rule="evenodd" stroke="#fff" stroke-width="2" filter="url(#m)"/><path d="M11.066 40.809s9.245-1.2 15.628-.99c6.384.211 16.32 7.272 25.76 1.681" fill="none" fill-rule="evenodd" stroke="#fff" stroke-width=".685" stroke-opacity=".366"/></svg>