<svg xmlns:osb="http://www.openswatchbook.org/uri/2009/osb" xmlns="http://www.w3.org/2000/svg" xmlns:xlink="http://www.w3.org/1999/xlink" height="64" viewBox="0 0 64 64" width="64"><title>Template icons dark</title><defs><linearGradient id="g" osb:paint="solid"><stop offset="0" stop-opacity=".196"/></linearGradient><linearGradient id="f" osb:paint="solid"><stop offset="0" stop-color="#fff" stop-opacity=".782"/></linearGradient><linearGradient id="e" osb:paint="solid"><stop offset="0" stop-opacity="0"/></linearGradient><linearGradient id="d" osb:paint="solid"><stop offset="0" stop-opacity=".157"/></linearGradient><linearGradient id="b"><stop offset="0" stop-color="#fff"/><stop offset="1" stop-color="#dfdfdf"/></linearGradient><linearGradient id="a"><stop offset="0" stop-color="#f0f0f0"/><stop offset="1" stop-color="#fff"/></linearGradient><linearGradient xlink:href="#a" id="j" gradientUnits="userSpaceOnUse" gradientTransform="matrix(1.4629 0 0 1.4641 44.919 46.116)" x1="24.117" y1="4.931" x2="24.058" y2="42.556"/><linearGradient xlink:href="#c" id="k" gradientUnits="userSpaceOnUse" gradientTransform="matrix(1.4629 0 0 1.4641 44.919 46.116)" x1="26.073" y1="18.962" x2="34.374" y2="10.815"/><linearGradient xlink:href="#b" id="m" gradientUnits="userSpaceOnUse" gradientTransform="matrix(1.67188 0 0 1.4641 38.004 45.955)" x1="34.176" y1="10.276" x2="30.758" y2="13.691"/><linearGradient id="c"><stop offset="0" stop-opacity="0"/><stop offset="1" stop-opacity=".038"/></linearGradient><linearGradient xlink:href="#d" id="i" x1="126" y1="161.5" x2="194" y2="161.5" gradientUnits="userSpaceOnUse"/><linearGradient xlink:href="#g" id="l" x1="166" y1="133.472" x2="193" y2="133.472" gradientUnits="userSpaceOnUse"/><linearGradient id="h" osb:paint="solid"><stop offset="0" stop-opacity=".084"/></linearGradient><linearGradient gradientTransform="matrix(.66742 0 0 .67482 -26.772 -28)" xlink:href="#h" id="n" gradientUnits="userSpaceOnUse" x1="188" y1="173.5" x2="189" y2="173.5"/></defs><path d="M57 52h29.016L103 69v41H57z" style="isolation:auto;mix-blend-mode:normal;marker:none" color="#000" overflow="visible" fill="url(#i)" stroke-width=".852" paint-order="fill markers stroke" transform="translate(-48 -48)"/><path style="isolation:auto;mix-blend-mode:normal;marker:none" d="M58 53h28l16 16v40H58V53z" color="#000" overflow="visible" fill="url(#j)" stroke-width=".552" paint-order="fill markers stroke" transform="translate(-48 -48)"/><path d="M58 53h28l16 16v40H58z" style="isolation:auto;mix-blend-mode:normal;marker:none" color="#000" overflow="visible" fill="url(#k)" stroke-width=".552" paint-order="fill markers stroke" transform="translate(-48 -48)"/><path d="M86 53l16 16-18 2z" fill="url(#l)" fill-rule="evenodd" stroke-width="2.195" transform="translate(-48 -48)"/><path d="M86 53l16 16H86z" fill="url(#m)" fill-rule="evenodd" stroke-width="1.565" transform="translate(-48 -48)"/><path style="isolation:auto;mix-blend-mode:normal;marker:none" d="M58.658 52.98v2.024h-.667v.674h.667v2.025h-.667v.675h.667v2.024h-.667v.675h.667v2.024h-.667v.675h.667v2.025h-.667v.675h.667V68.5h-.667v.675h.667v2.024h-.667v.675h.667V73.9h-.667v.674h.667v2.025h-.667v.675h.667v2.024h-.667v.675h.667v2.024h-.667v.675h.667v2.025h-.667v.675h.667v2.024h-.667v.675h.667v2.024h-.667v.675h.667v2.025h-.667v.674h.667v2.025h-.667v.675h.667v2.024h-.667v.675h.667v2.024h-.667v.675h.667v2.025h-.667v.675h.667v2.024h-.667v.675h.667v2.024h.668v-2.024h2.002v2.024h.667v-2.024h2.003v2.024h.667v-2.024h2.002v2.024h.668v-2.024h2.002v2.024h.667v-2.024h2.003v2.024h.667v-2.024h2.002v2.024h.668v-2.024h2.002v2.024h.667v-2.024h2.003v2.024h.667v-2.024h2.002v2.024h.668v-2.024h2.002v2.024h.667v-2.024h2.003v2.024h.667v-2.024h2.002v2.024h.668v-2.024h2.002v1.961h.667v-1.961h2.003v2.024h.667v-2.024h2.002v2.024h.668v-2.024h2.67v-.675h-2.67v-2.024h2.67v-.675h-2.67v-2.025h2.67v-.675h-2.67v-2.024h2.67v-.675h-2.67v-2.024h2.67v-.675h-2.67v-2.025h2.67v-.674h-2.67v-2.025h2.67v-.675h-2.67V88.07h2.67v-.675h-2.67v-2.024h2.67v-.675h-2.67V82.67h2.67v-.675h-2.67v-2.024h2.67v-.675h-2.67v-2.024h2.67v-.675h-2.67v-2.025h2.67V73.9h-2.67v-2.025h2.67V71.2h-2.67v-2.024h-.668v2.024h-2.002v-2.024h-.667v2.024H94.03v-2.087h-.667v2.087h-2.002v-2.024h-.668v2.024h-2.002v-2.024h-.667v2.024h-2.003V52.98h-.667v2.025h-2.002v-2.025h-.668v2.025h-2.002v-2.025h-.667v2.025h-2.003v-2.025h-.667v2.025h-2.002v-2.025h-.668v2.025h-2.002v-2.025h-.667v2.025h-2.003v-2.025h-.667v2.025h-2.002v-2.025h-.668v2.025h-2.002v-2.025h-.667v2.025h-2.003v-2.025h-.667v2.025h-2.002v-2.025zm.668 2.698h2.002v2.025h-2.002zm2.67 0h2.002v2.025h-2.003zm2.669 0h2.002v2.025h-2.002zm2.67 0h2.002v2.025h-2.002zm2.67 0h2.002v2.025h-2.003zm2.669 0h2.002v2.025h-2.002zm2.67 0h2.002v2.025h-2.002zm2.67 0h2.002v2.025h-2.003zm2.67 0h2.001v2.025h-2.002zm2.669 0h2.002v2.025h-2.002zm-24.027 2.7h2.002v2.024h-2.002zm2.67 0h2.002v2.024h-2.003zm2.669 0h2.002v2.024h-2.002zm2.67 0h2.002v2.024h-2.002zm2.67 0h2.002v2.024h-2.003zm2.669 0h2.002v2.024h-2.002zm2.67 0h2.002v2.024h-2.002zm2.67 0h2.002v2.024h-2.003zm2.67 0h2.001v2.024h-2.002zm2.669 0h2.002v2.024h-2.002zm-24.027 2.699h2.002v2.024h-2.002zm2.67 0h2.002v2.024h-2.003zm2.669 0h2.002v2.024h-2.002zm2.67 0h2.002v2.024h-2.002zm2.67 0h2.002v2.024h-2.003zm2.669 0h2.002v2.024h-2.002zm2.67 0h2.002v2.024h-2.002zm2.67 0h2.002v2.024h-2.003zm2.67 0h2.001v2.024h-2.002zm2.669 0h2.002v2.024h-2.002zm-24.027 2.7h2.002V65.8h-2.002zm2.67 0h2.002V65.8h-2.003zm2.669 0h2.002V65.8h-2.002zm2.67 0h2.002V65.8h-2.002zm2.67 0h2.002V65.8h-2.003zm2.669 0h2.002V65.8h-2.002zm2.67 0h2.002V65.8h-2.002zm2.67 0h2.002V65.8h-2.003zm2.67 0h2.001V65.8h-2.002zm2.669 0h2.002V65.8h-2.002zm-24.027 2.699h2.002V68.5h-2.002zm2.67 0h2.002V68.5h-2.003zm2.669 0h2.002V68.5h-2.002zm2.67 0h2.002V68.5h-2.002zm2.67 0h2.002V68.5h-2.003zm2.669 0h2.002V68.5h-2.002zm2.67 0h2.002V68.5h-2.002zm2.67 0h2.002V68.5h-2.003zm2.67 0h2.001V68.5h-2.002zm2.669 0h2.002V68.5h-2.002zm-24.027 2.699h2.002v2.024h-2.002zm2.67 0h2.002v2.024h-2.003zm2.669 0h2.002v2.024h-2.002zm2.67 0h2.002v2.024h-2.002zm2.67 0h2.002v2.024h-2.003zm2.669 0h2.002v2.024h-2.002zm2.67 0h2.002v2.024h-2.002zm2.67 0h2.002v2.024h-2.003zm2.67 0h2.001v2.024h-2.002zm2.669 0h2.002v2.024h-2.002zm-24.027 2.7h2.002v2.024h-2.002zm2.67 0h2.002v2.024h-2.003zm2.669 0h2.002v2.024h-2.002zm2.67 0h2.002v2.024h-2.002zm2.67 0h2.002v2.024h-2.003zm2.669 0h2.002v2.024h-2.002zm2.67 0h2.002v2.024h-2.002zm2.67 0h2.002v2.024h-2.003zm2.67 0h2.001v2.024h-2.002zm2.669 0h2.002v2.024h-2.002zm2.67 0h2.002v2.024h-2.003zm2.67 0h2.001v2.024h-2.002zm2.669 0h2.002v2.024h-2.002zm2.67 0h2.002v2.024H94.03zm2.67 0h2.001v2.024h-2.002zm-37.376 2.698h2.002v2.025h-2.002zm2.67 0h2.002v2.025h-2.003zm2.669 0h2.002v2.025h-2.002zm2.67 0h2.002v2.025h-2.002zm2.67 0h2.002v2.025h-2.003zm2.669 0h2.002v2.025h-2.002zm2.67 0h2.002v2.025h-2.002zm2.67 0h2.002v2.025h-2.003zm2.67 0h2.001v2.025h-2.002zm2.669 0h2.002v2.025h-2.002zm2.67 0h2.002v2.025h-2.003zm2.67 0h2.001v2.025h-2.002zm2.669 0h2.002v2.025h-2.002zm2.67 0h2.002v2.025H94.03zm2.67 0h2.001v2.025h-2.002zm-37.376 2.7h2.002v2.024h-2.002zm2.67 0h2.002v2.024h-2.003zm2.669 0h2.002v2.024h-2.002zm2.67 0h2.002v2.024h-2.002zm2.67 0h2.002v2.024h-2.003zm2.669 0h2.002v2.024h-2.002zm2.67 0h2.002v2.024h-2.002zm2.67 0h2.002v2.024h-2.003zm2.67 0h2.001v2.024h-2.002zm2.669 0h2.002v2.024h-2.002zm2.67 0h2.002v2.024h-2.003zm2.67 0h2.001v2.024h-2.002zm2.669 0h2.002v2.024h-2.002zm2.67 0h2.002v2.024H94.03zm2.67 0h2.001v2.024h-2.002zm-37.376 2.699h2.002v2.024h-2.002zm2.67 0h2.002v2.024h-2.003zm2.669 0h2.002v2.024h-2.002zm2.67 0h2.002v2.024h-2.002zm2.67 0h2.002v2.024h-2.003zm2.669 0h2.002v2.024h-2.002zm2.67 0h2.002v2.024h-2.002zm2.67 0h2.002v2.024h-2.003zm2.67 0h2.001v2.024h-2.002zm2.669 0h2.002v2.024h-2.002zm2.67 0h2.002v2.024h-2.003zm2.67 0h2.001v2.024h-2.002zm2.669 0h2.002v2.024h-2.002zm2.67 0h2.002v2.024H94.03zm2.67 0h2.001v2.024h-2.002zm-37.376 2.7h2.002v2.024h-2.002zm2.67 0h2.002v2.024h-2.003zm2.669 0h2.002v2.024h-2.002zm2.67 0h2.002v2.024h-2.002zm2.67 0h2.002v2.024h-2.003zm2.669 0h2.002v2.024h-2.002zm2.67 0h2.002v2.024h-2.002zm2.67 0h2.002v2.024h-2.003zm2.67 0h2.001v2.024h-2.002zm2.669 0h2.002v2.024h-2.002zm2.67 0h2.002v2.024h-2.003zm2.67 0h2.001v2.024h-2.002zm2.669 0h2.002v2.024h-2.002zm2.67 0h2.002v2.024H94.03zm2.67 0h2.001v2.024h-2.002zM59.325 85.37h2.002v2.024h-2.002zm2.67 0h2.002v2.024h-2.003zm2.669 0h2.002v2.024h-2.002zm2.67 0h2.002v2.024h-2.002zm2.67 0h2.002v2.024h-2.003zm2.669 0h2.002v2.024h-2.002zm2.67 0h2.002v2.024h-2.002zm2.67 0h2.002v2.024h-2.003zm2.67 0h2.001v2.024h-2.002zm2.669 0h2.002v2.024h-2.002zm2.67 0h2.002v2.024h-2.003zm2.67 0h2.001v2.024h-2.002zm2.669 0h2.002v2.024h-2.002zm2.67 0h2.002v2.024H94.03zm2.67 0h2.001v2.024h-2.002zM59.325 88.07h2.002v2.024h-2.002zm2.67 0h2.002v2.024h-2.003zm2.669 0h2.002v2.024h-2.002zm2.67 0h2.002v2.024h-2.002zm2.67 0h2.002v2.024h-2.003zm2.669 0h2.002v2.024h-2.002zm2.67 0h2.002v2.024h-2.002zm2.67 0h2.002v2.024h-2.003zm2.67 0h2.001v2.024h-2.002zm2.669 0h2.002v2.024h-2.002zm2.67 0h2.002v2.024h-2.003zm2.67 0h2.001v2.024h-2.002zm2.669 0h2.002v2.024h-2.002zm2.67 0h2.002v2.024H94.03zm2.67 0h2.001v2.024h-2.002zm-37.376 2.7h2.002v2.024h-2.002zm2.67 0h2.002v2.024h-2.003zm2.669 0h2.002v2.024h-2.002zm2.67 0h2.002v2.024h-2.002zm2.67 0h2.002v2.024h-2.003zm2.669 0h2.002v2.024h-2.002zm2.67 0h2.002v2.024h-2.002zm2.67 0h2.002v2.024h-2.003zm2.67 0h2.001v2.024h-2.002zm2.669 0h2.002v2.024h-2.002zm2.67 0h2.002v2.024h-2.003zm2.67 0h2.001v2.024h-2.002zm2.669 0h2.002v2.024h-2.002zm2.67 0h2.002v2.024H94.03zm2.67 0h2.001v2.024h-2.002zm-37.376 2.698h2.002v2.025h-2.002zm2.67 0h2.002v2.025h-2.003zm2.669 0h2.002v2.025h-2.002zm2.67 0h2.002v2.025h-2.002zm2.67 0h2.002v2.025h-2.003zm2.669 0h2.002v2.025h-2.002zm2.67 0h2.002v2.025h-2.002zm2.67 0h2.002v2.025h-2.003zm2.67 0h2.001v2.025h-2.002zm2.669 0h2.002v2.025h-2.002zm2.67 0h2.002v2.025h-2.003zm2.67 0h2.001v2.025h-2.002zm2.669 0h2.002v2.025h-2.002zm2.67 0h2.002v2.025H94.03zm2.67 0h2.001v2.025h-2.002zm-37.376 2.7h2.002v2.024h-2.002zm2.67 0h2.002v2.024h-2.003zm2.669 0h2.002v2.024h-2.002zm2.67 0h2.002v2.024h-2.002zm2.67 0h2.002v2.024h-2.003zm2.669 0h2.002v2.024h-2.002zm2.67 0h2.002v2.024h-2.002zm2.67 0h2.002v2.024h-2.003zm2.67 0h2.001v2.024h-2.002zm2.669 0h2.002v2.024h-2.002zm2.67 0h2.002v2.024h-2.003zm2.67 0h2.001v2.024h-2.002zm2.669 0h2.002v2.024h-2.002zm2.67 0h2.002v2.024H94.03zm2.67 0h2.001v2.024h-2.002zm-37.376 2.699h2.002v2.024h-2.002zm2.67 0h2.002v2.024h-2.003zm2.669 0h2.002v2.024h-2.002zm2.67 0h2.002v2.024h-2.002zm2.67 0h2.002v2.024h-2.003zm2.669 0h2.002v2.024h-2.002zm2.67 0h2.002v2.024h-2.002zm2.67 0h2.002v2.024h-2.003zm2.67 0h2.001v2.024h-2.002zm2.669 0h2.002v2.024h-2.002zm2.67 0h2.002v2.024h-2.003zm2.67 0h2.001v2.024h-2.002zm2.669 0h2.002v2.024h-2.002zm2.67 0h2.002v2.024H94.03zm2.67 0h2.001v2.024h-2.002zm-37.376 2.7h2.002v2.024h-2.002zm2.67 0h2.002v2.024h-2.003zm2.669 0h2.002v2.024h-2.002zm2.67 0h2.002v2.024h-2.002zm2.67 0h2.002v2.024h-2.003zm2.669 0h2.002v2.024h-2.002zm2.67 0h2.002v2.024h-2.002zm2.67 0h2.002v2.024h-2.003zm2.67 0h2.001v2.024h-2.002zm2.669 0h2.002v2.024h-2.002zm2.67 0h2.002v2.024h-2.003zm2.67 0h2.001v2.024h-2.002zm2.669 0h2.002v2.024h-2.002zm2.67 0h2.002v2.024H94.03zm2.67 0h2.001v2.024h-2.002zm-37.376 2.699h2.002v2.024h-2.002zm2.67 0h2.002v2.024h-2.003zm2.669 0h2.002v2.024h-2.002zm2.67 0h2.002v2.024h-2.002zm2.67 0h2.002v2.024h-2.003zm2.669 0h2.002v2.024h-2.002zm2.67 0h2.002v2.024h-2.002zm2.67 0h2.002v2.024h-2.003zm2.67 0h2.001v2.024h-2.002zm2.669 0h2.002v2.024h-2.002zm2.67 0h2.002v2.024h-2.003zm2.67 0h2.001v2.024h-2.002zm2.669 0h2.002v2.024h-2.002zm2.67 0h2.002v2.024H94.03zm2.67 0h2.001v2.024h-2.002z" color="#000" overflow="visible" opacity=".4" fill="url(#n)" stroke-width=".564" stroke-opacity=".344" paint-order="fill markers stroke" transform="translate(-48 -48)"/><path style="line-height:1000%" d="M33.145 36.738q-3.876 0-5.37.887-1.496.886-1.496 3.024 0 1.703 1.113 2.711 1.13.99 3.059.99 2.659 0 4.258-1.876 1.616-1.895 1.616-5.023v-.713zm6.379-1.32v11.106h-3.199v-2.955q-1.095 1.773-2.728 2.624-1.634.835-3.998.835-2.99 0-4.762-1.669-1.756-1.686-1.756-4.502 0-3.285 2.19-4.953 2.208-1.669 6.57-1.669h4.484v-.313q0-2.207-1.46-3.406-1.442-1.217-4.067-1.217-1.668 0-3.25.4-1.581.4-3.041 1.2v-2.955q1.755-.678 3.406-1.009 1.651-.347 3.216-.347 4.223 0 6.309 2.19 2.086 2.19 2.086 6.64z" font-size="53.333" font-family="sans-serif" letter-spacing="0" word-spacing="0" fill="#9dc3ef" fill-opacity=".63" stroke="#82a9e5" stroke-width=".4" stroke-opacity=".995"/><path style="line-height:normal;font-variant-ligatures:normal;font-variant-position:normal;font-variant-caps:normal;font-variant-numeric:normal;font-variant-alternates:normal;font-feature-settings:normal;text-indent:0;text-align:start;text-decoration-line:none;text-decoration-style:solid;text-decoration-color:#000;text-transform:none;text-orientation:mixed;shape-padding:0;isolation:auto;mix-blend-mode:normal" d="M24.96 21.275c-.058 0-.12.005-.187.016-.066.01-.135.025-.211.046v.179c.075-.025.143-.044.206-.056a.931.931 0 0 1 .176-.017c.1 0 .176.02.23.061.053.04.08.098.08.174 0 .073-.025.13-.077.17a.373.373 0 0 1-.225.058h-.18v.164h.172c.109 0 .192.025.253.074a.246.246 0 0 1 .092.204.252.252 0 0 1-.099.215.467.467 0 0 1-.285.074.834.834 0 0 1-.206-.025.697.697 0 0 1-.183-.073v.192a1.352 1.352 0 0 0 .395.074c.185 0 .326-.04.427-.12.1-.08.15-.192.15-.337a.362.362 0 0 0-.081-.24.38.38 0 0 0-.223-.127.369.369 0 0 0 .2-.117.315.315 0 0 0 .07-.207.335.335 0 0 0-.133-.28.569.569 0 0 0-.36-.102zm1.403.026l-.614.935v.193h.667v.348h.198v-.348h.21v-.166h-.21v-.962zm.053.175v.787h-.505zm-4.412 1.523v2.67h.668V23zm8.01 0v2.67h.667V23zm-6.675 1.335v.668h5.965v-.668zm18.02 4.005v.667h3.338v-.667zm1.335 1.258v16.762h.668V29.597zm4.791 7.413a.429.429 0 0 0-.38.197c-.086.13-.13.32-.13.568 0 .249.044.439.13.57.088.13.215.195.38.195a.426.426 0 0 0 .378-.195c.088-.131.132-.321.132-.57 0-.249-.044-.438-.132-.568a.426.426 0 0 0-.378-.197zm1.22 0a.83.83 0 0 0-.192.025c-.07.016-.145.04-.225.073v.202c.079-.044.154-.077.223-.1a.667.667 0 0 1 .198-.032c.088 0 .16.025.214.075.055.049.083.113.083.191a.322.322 0 0 1-.039.148.917.917 0 0 1-.133.18 8.04 8.04 0 0 1-.246.256c-.13.132-.235.237-.31.316v.168h.937v-.168h-.696l.372-.382c.089-.092.14-.148.157-.167a.825.825 0 0 0 .124-.192.437.437 0 0 0 .035-.172.38.38 0 0 0-.137-.306.548.548 0 0 0-.365-.115zm-2.576.027l-.353.07v.183l.355-.071v1.125h-.326v.168h.85v-.168h-.326v-1.307zm1.356.13c.103 0 .18.052.232.153.052.101.078.253.078.455s-.026.355-.078.457c-.051.1-.129.15-.232.15-.103 0-.18-.05-.232-.15-.051-.102-.077-.255-.077-.457s.026-.354.077-.455c.052-.101.13-.152.232-.152zm-6.125 9.86v.667h3.337v-.667zm-20.306 1.7v2.67h.667v-2.67zm19.297 0v2.67h.667v-2.67zm-17.68.97v.667h16.763v-.668zm8.666 1.957a.835.835 0 0 0-.192.025 1.59 1.59 0 0 0-.226.073v.202c.08-.044.154-.077.223-.099a.667.667 0 0 1 .198-.033.31.31 0 0 1 .216.075c.055.05.082.113.082.191a.322.322 0 0 1-.038.148.931.931 0 0 1-.134.18 7.51 7.51 0 0 1-.247.258c-.13.131-.233.235-.309.314v.168h.936v-.168h-.696l.373-.382.158-.166a.824.824 0 0 0 .123-.191.443.443 0 0 0 .034-.174.38.38 0 0 0-.135-.306.552.552 0 0 0-.366-.115zm-1.288.028l-.352.07v.183l.354-.072v1.125h-.326v.168h.849v-.168h-.326v-1.306zm2.22 0v.74a.834.834 0 0 1 .322-.073c.113 0 .203.03.27.09.066.06.1.141.1.244a.312.312 0 0 1-.1.244.387.387 0 0 1-.27.09.775.775 0 0 1-.385-.095v.2c.068.021.134.036.198.047.065.01.129.016.19.016.18 0 .319-.044.418-.132a.47.47 0 0 0 .148-.37.479.479 0 0 0-.145-.367.549.549 0 0 0-.39-.135.5.5 0 0 0-.174.03v-.361h.601v-.168z" color="#000" font-weight="400" font-family="sans-serif" white-space="normal" overflow="visible" fill="#83a9e5" fill-rule="evenodd" stroke-width=".667"/></svg>