<svg xmlns:osb="http://www.openswatchbook.org/uri/2009/osb" xmlns="http://www.w3.org/2000/svg" xmlns:xlink="http://www.w3.org/1999/xlink" height="64" viewBox="0 0 64 64" width="64"><title>Template icons dark</title><defs><linearGradient id="l"><stop offset="0" stop-color="#fe7dee"/><stop offset="1" stop-color="#5390fe"/></linearGradient><linearGradient id="g" osb:paint="solid"><stop offset="0" stop-opacity=".196"/></linearGradient><linearGradient id="f" osb:paint="solid"><stop offset="0" stop-color="#fff" stop-opacity=".782"/></linearGradient><linearGradient id="e" osb:paint="solid"><stop offset="0" stop-opacity=".018"/></linearGradient><linearGradient id="d" osb:paint="solid"><stop offset="0" stop-opacity=".157"/></linearGradient><linearGradient id="b"><stop offset="0" stop-color="#fff"/><stop offset="1" stop-color="#dfdfdf"/></linearGradient><linearGradient id="a"><stop offset="0" stop-color="#f0f0f0"/><stop offset="1" stop-color="#fff"/></linearGradient><linearGradient xlink:href="#a" id="n" gradientUnits="userSpaceOnUse" gradientTransform="matrix(1.4629 0 0 1.4641 44.919 46.116)" x1="24.117" y1="4.931" x2="24.058" y2="42.556"/><linearGradient xlink:href="#c" id="p" gradientUnits="userSpaceOnUse" gradientTransform="matrix(1.4629 0 0 1.4641 44.919 46.116)" x1="26.073" y1="18.962" x2="34.374" y2="10.815"/><linearGradient xlink:href="#b" id="r" gradientUnits="userSpaceOnUse" gradientTransform="matrix(1.67188 0 0 1.4641 38.004 45.955)" x1="34.176" y1="10.276" x2="30.758" y2="13.691"/><linearGradient id="c"><stop offset="0" stop-opacity="0"/><stop offset="1" stop-opacity=".022"/></linearGradient><linearGradient xlink:href="#d" id="m" x1="126" y1="161.5" x2="194" y2="161.5" gradientUnits="userSpaceOnUse"/><linearGradient xlink:href="#g" id="q" x1="166" y1="133.472" x2="193" y2="133.472" gradientUnits="userSpaceOnUse"/><linearGradient id="k"><stop offset="0" stop-color="#f598f8"/><stop offset="1" stop-color="#398bef"/></linearGradient><linearGradient xlink:href="#h" id="s" gradientUnits="userSpaceOnUse" gradientTransform="matrix(1.1569 0 0 1.1569 -19.927 -18.829)" x1="142.626" y1="120.944" x2="127.746" y2="132.839"/><linearGradient id="h"><stop offset="0" stop-color="#d7d7d7" stop-opacity=".231"/><stop offset=".146" stop-opacity=".199"/><stop offset=".456" stop-color="#fff" stop-opacity=".251"/><stop offset=".66" stop-opacity=".131"/><stop offset=".834" stop-color="#a2a2a2" stop-opacity=".161"/><stop offset="1" stop-opacity=".152"/></linearGradient><linearGradient xlink:href="#i" id="t" gradientUnits="userSpaceOnUse" gradientTransform="matrix(0 -1.1569 1.1569 0 -11.829 351.254)" x1="137.107" y1="127.59" x2="127" y2="120"/><linearGradient id="i"><stop offset="0" stop-color="#d7d7d7" stop-opacity=".231"/><stop offset=".231" stop-opacity=".11"/><stop offset=".472" stop-color="#fff" stop-opacity=".147"/><stop offset=".717" stop-opacity=".131"/><stop offset=".834" stop-color="#a2a2a2" stop-opacity=".161"/><stop offset="1" stop-opacity=".152"/></linearGradient><linearGradient xlink:href="#j" id="u" gradientUnits="userSpaceOnUse" gradientTransform="matrix(-1.1569 0 0 -1.1569 340.057 343.155)" x1="139.48" y1="120.419" x2="128.375" y2="135.042"/><linearGradient id="j"><stop offset="0" stop-color="#d7d7d7" stop-opacity=".231"/><stop offset=".146" stop-opacity=".257"/><stop offset=".456" stop-color="#fff" stop-opacity=".251"/><stop offset=".66" stop-opacity=".131"/><stop offset=".834" stop-color="#a2a2a2" stop-opacity=".161"/><stop offset="1" stop-opacity=".152"/></linearGradient><linearGradient xlink:href="#k" id="o" x1="23.375" y1="41.2" x2="23.566" y2="13.14" gradientUnits="userSpaceOnUse" gradientTransform="matrix(.89436 0 0 1.61452 58.534 35.644)"/></defs><path d="M57 52h29.016L103 69v41H57z" style="isolation:auto;mix-blend-mode:normal;marker:none" color="#000" overflow="visible" fill="url(#m)" stroke-width=".852" paint-order="fill markers stroke" transform="translate(-48 -48)"/><path style="isolation:auto;mix-blend-mode:normal;marker:none" d="M58 53h28l16 16v40H58V53z" color="#000" overflow="visible" fill="url(#n)" stroke-width=".552" paint-order="fill markers stroke" transform="translate(-48 -48)"/><path style="isolation:auto;mix-blend-mode:normal;marker:none" d="M61 57h28.279l9.719 9.2v38.783H61z" color="#000" overflow="visible" fill="url(#o)" stroke-width="1.103" transform="translate(-48 -48)"/><path d="M58 53h28l16 16v40H58z" style="isolation:auto;mix-blend-mode:normal;marker:none" color="#000" overflow="visible" fill="url(#p)" stroke-width=".552" paint-order="fill markers stroke" transform="translate(-48 -48)"/><path d="M86 53l16 16-18 2z" fill="url(#q)" fill-rule="evenodd" stroke-width="2.195" transform="translate(-48 -48)"/><path d="M86 53l16 16H86z" fill="url(#r)" fill-rule="evenodd" stroke-width="1.565" transform="translate(-48 -48)"/><path style="isolation:auto;mix-blend-mode:normal;marker:none" d="M24 37l24.89 20H13.025v-7.736z" color="#000" overflow="visible" fill="#fff" fill-opacity=".414" stroke-width=".431" stroke-opacity=".168" paint-order="markers stroke fill"/><path d="M40 35l11 8.638V57H17.948z" style="isolation:auto;mix-blend-mode:normal;marker:none" color="#000" overflow="visible" fill="#fff" stroke-width=".431" stroke-opacity=".168" paint-order="markers stroke fill"/><path style="isolation:auto;mix-blend-mode:normal;marker:none" d="M28.218 13.816l.248.707-.753-.02.738.14-.394.641.487-.568.362.662-.248-.707.752.02-.737-.14.394-.642-.488.568zm8.42.496l.247.705-.752-.018.735.137-.392.644.488-.57.36.662-.247-.707.752.02-.737-.138.394-.644-.49.57zm8.268.99l.248.707-.753-.02.738.14-.394.641.49-.568.359.662-.248-.707.752.017-.735-.137.392-.642-.488.568zm4.556.148l.25.707-.753-.02.735.14-.393.641.49-.568.358.662-.248-.707.753.02-.735-.14.391-.642-.487.568zm-33.87.55l.705 2.006-2.137-.052 2.09.391-1.115 1.825 1.386-1.614 1.022 1.878-.707-2.008 2.139.054-2.091-.392L18 16.263l-1.386 1.614zm10.496 1.48l.25.706-.752-.017.735.137-.394.642.49-.568.359.661-.248-.707.753.02-.736-.14.392-.641-.488.568zm9.442 1.298l-5.062 4.782c-1.626.98-.452 1.542.235.146l4.897-4.854zm.324 2.541l-5.062 4.782c-1.461 1.457-.334 1.145.235.145l4.897-4.853z" color="#000" display="block" overflow="visible" fill="#fff" fill-opacity=".435" stroke-width=".661"/><g opacity=".4" color="#000"><path style="isolation:auto;mix-blend-mode:normal;marker:none" d="M10 18.924L23.953 4.972h.664L10 19.589z" display="block" overflow="visible" fill-opacity=".304" stroke-width="1.108" paint-order="fill markers stroke"/><path d="M127 120h21l-21 21z" style="isolation:auto;mix-blend-mode:normal;marker:none" display="block" overflow="visible" fill="url(#s)" stroke-width="1.032" paint-order="fill markers stroke" transform="matrix(.66442 0 0 .66442 -74.382 -74.76)"/><path d="M23.953 61L10 47.047v-.664L24.617 61z" style="isolation:auto;mix-blend-mode:normal;marker:none" display="block" overflow="visible" fill-opacity=".304" stroke-width="1.108" paint-order="fill markers stroke"/><path style="isolation:auto;mix-blend-mode:normal;marker:none" d="M127 204.327v-21l21 21z" display="block" overflow="visible" fill="url(#t)" stroke-width="1.032" paint-order="fill markers stroke" transform="matrix(.66442 0 0 .66442 -74.382 -74.76)"/><path style="isolation:auto;mix-blend-mode:normal;marker:none" d="M53.938 47.047L39.985 61h-.664l14.617-14.617z" display="block" overflow="visible" fill-opacity=".304" stroke-width="1.108" paint-order="fill markers stroke"/><path d="M193.13 204.327h-21l21-21z" style="isolation:auto;mix-blend-mode:normal;marker:none" display="block" overflow="visible" fill="url(#u)" stroke-width="1.032" paint-order="fill markers stroke" transform="matrix(.66442 0 0 .66442 -74.382 -74.76)"/></g></svg>