<svg xmlns:osb="http://www.openswatchbook.org/uri/2009/osb" xmlns="http://www.w3.org/2000/svg" xmlns:xlink="http://www.w3.org/1999/xlink" height="64" viewBox="0 0 64 64" width="64"><title>Template icons dark</title><defs><linearGradient id="q" osb:paint="solid"><stop offset="0"/></linearGradient><linearGradient id="m"><stop offset="0" stop-color="#707070"/><stop offset="1" stop-color="#fff"/></linearGradient><linearGradient id="l"><stop offset="0" stop-color="#c1c1c1"/><stop offset="1" stop-color="#9f9f9f"/></linearGradient><linearGradient id="j"><stop offset="0" stop-color="#dfdfdf"/><stop offset=".489" stop-color="#aeaeae" stop-opacity=".459"/><stop offset="1" stop-color="#dfdfdf"/></linearGradient><linearGradient id="h" osb:paint="solid"><stop offset="0" stop-opacity=".196"/></linearGradient><linearGradient id="g" osb:paint="solid"><stop offset="0" stop-color="#fff" stop-opacity=".307"/></linearGradient><linearGradient id="f" osb:paint="solid"><stop offset="0" stop-opacity=".078"/></linearGradient><linearGradient id="e" osb:paint="solid"><stop offset="0" stop-opacity=".14"/></linearGradient><linearGradient id="b"><stop offset="0" stop-color="#fff"/><stop offset="1" stop-color="#dfdfdf"/></linearGradient><linearGradient id="a"><stop offset="0" stop-color="#f0f0f0"/><stop offset="1" stop-color="#fff"/></linearGradient><linearGradient id="d"><stop offset="0" stop-color="#fff" stop-opacity=".046"/><stop offset="1" stop-color="#fff" stop-opacity=".059"/></linearGradient><linearGradient xlink:href="#a" id="s" gradientUnits="userSpaceOnUse" gradientTransform="matrix(1.4629 0 0 1.4641 44.919 46.116)" x1="24.117" y1="4.931" x2="24.058" y2="42.556"/><linearGradient xlink:href="#c" id="t" gradientUnits="userSpaceOnUse" gradientTransform="matrix(1.4629 0 0 1.4641 44.919 46.116)" x1="26.073" y1="18.962" x2="34.374" y2="10.815"/><linearGradient xlink:href="#b" id="v" gradientUnits="userSpaceOnUse" gradientTransform="matrix(1.67188 0 0 1.4641 38.004 45.955)" x1="34.176" y1="10.276" x2="30.758" y2="13.691"/><linearGradient id="c"><stop offset="0" stop-opacity="0"/><stop offset="1" stop-opacity=".018"/></linearGradient><linearGradient xlink:href="#e" id="r" x1="126" y1="161.5" x2="194" y2="161.5" gradientUnits="userSpaceOnUse"/><linearGradient xlink:href="#h" id="u" x1="166" y1="133.472" x2="193" y2="133.472" gradientUnits="userSpaceOnUse"/><linearGradient id="i"><stop offset="0" stop-color="#dfdfdf"/><stop offset=".489" stop-color="silver" stop-opacity=".459"/><stop offset="1" stop-color="#dfdfdf"/></linearGradient><linearGradient id="k"><stop offset="0" stop-color="#2e2e2e"/><stop offset="1" stop-color="#b7b7b7"/></linearGradient><linearGradient id="n"><stop offset="0" stop-color="#444"/><stop offset="1" stop-color="#ececec"/></linearGradient><linearGradient id="o"><stop offset="0" stop-color="#737373"/><stop offset="1" stop-color="#eee"/></linearGradient><linearGradient id="p"><stop offset="0" stop-color="#a7a7a7"/><stop offset=".505" stop-color="#5b5b5b"/><stop offset="1" stop-color="#303030"/></linearGradient><linearGradient xlink:href="#n" id="L" gradientUnits="userSpaceOnUse" gradientTransform="matrix(1.1934 0 0 .997 -31.339 3.406)" x1="158.822" y1="98.639" x2="158.822" y2="88.728"/><linearGradient xlink:href="#o" id="M" gradientUnits="userSpaceOnUse" gradientTransform="matrix(.9389 0 0 .93344 9.053 7.76)" x1="160.167" y1="110.428" x2="160.167" y2="94.122"/><linearGradient xlink:href="#p" id="N" gradientUnits="userSpaceOnUse" gradientTransform="matrix(.83534 0 0 .83534 25.488 18.247)" x1="158.671" y1="97.368" x2="158.671" y2="90.163"/><linearGradient xlink:href="#i" id="w" x1="155.296" y1="153.204" x2="165.174" y2="153.204" gradientUnits="userSpaceOnUse"/><linearGradient xlink:href="#i" id="x" gradientUnits="userSpaceOnUse" gradientTransform="matrix(1.10733 0 0 1.10733 -17.863 19.558)" x1="155.296" y1="153.204" x2="165.174" y2="153.204"/><linearGradient xlink:href="#i" id="y" gradientUnits="userSpaceOnUse" gradientTransform="matrix(-1.10733 0 0 1.10733 338.103 15.092)" x1="155.296" y1="153.204" x2="165.174" y2="153.204"/><linearGradient xlink:href="#i" id="z" gradientUnits="userSpaceOnUse" gradientTransform="matrix(1.10733 0 0 1.10733 -17.863 10.626)" x1="155.296" y1="153.204" x2="165.174" y2="153.204"/><linearGradient xlink:href="#i" id="A" gradientUnits="userSpaceOnUse" gradientTransform="matrix(-1.10733 0 0 1.10733 338.103 6.16)" x1="155.296" y1="153.204" x2="165.174" y2="153.204"/><linearGradient xlink:href="#i" id="B" gradientUnits="userSpaceOnUse" gradientTransform="matrix(1.10733 0 0 1.10733 -17.863 1.799)" x1="155.296" y1="153.204" x2="165.174" y2="153.204"/><linearGradient xlink:href="#i" id="C" gradientUnits="userSpaceOnUse" gradientTransform="matrix(-1.10733 0 0 1.10733 338.103 -2.668)" x1="155.296" y1="153.204" x2="165.174" y2="153.204"/><linearGradient xlink:href="#i" id="D" gradientUnits="userSpaceOnUse" gradientTransform="matrix(1.10733 0 0 1.10733 -17.863 -7.345)" x1="155.296" y1="153.204" x2="165.174" y2="153.204"/><linearGradient xlink:href="#i" id="E" gradientUnits="userSpaceOnUse" gradientTransform="matrix(-1.10733 0 0 1.10733 338.103 -11.811)" x1="155.296" y1="153.204" x2="165.174" y2="153.204"/><linearGradient xlink:href="#i" id="F" gradientUnits="userSpaceOnUse" gradientTransform="matrix(1.10733 0 0 1.10733 -17.863 -16.277)" x1="155.296" y1="153.204" x2="165.174" y2="153.204"/><linearGradient xlink:href="#i" id="G" gradientUnits="userSpaceOnUse" gradientTransform="matrix(-1.10733 0 0 1.10733 338.103 -20.743)" x1="155.296" y1="153.204" x2="165.174" y2="153.204"/><linearGradient xlink:href="#i" id="H" gradientUnits="userSpaceOnUse" gradientTransform="matrix(1.10733 0 0 1.10733 -17.863 -25.104)" x1="155.296" y1="153.204" x2="165.174" y2="153.204"/><linearGradient xlink:href="#i" id="I" gradientUnits="userSpaceOnUse" gradientTransform="matrix(-1.10733 0 0 1.10733 338.103 -29.57)" x1="155.296" y1="153.204" x2="165.174" y2="153.204"/><linearGradient xlink:href="#i" id="J" gradientUnits="userSpaceOnUse" gradientTransform="matrix(-1.10733 0 0 1.10733 338.103 24.024)" x1="155.296" y1="153.204" x2="165.174" y2="153.204"/><linearGradient xlink:href="#i" id="K" gradientUnits="userSpaceOnUse" gradientTransform="matrix(1.10733 0 0 1.10733 -17.863 -34.037)" x1="155.296" y1="153.204" x2="165.174" y2="153.204"/></defs><path d="M57 52h29.016L103 69v41H57z" style="isolation:auto;mix-blend-mode:normal;marker:none" color="#000" overflow="visible" fill="url(#r)" stroke-width=".852" paint-order="fill markers stroke" transform="translate(-48 -48)"/><path style="isolation:auto;mix-blend-mode:normal;marker:none" d="M58 53h28l16 16v40H58V53z" color="#000" overflow="visible" fill="url(#s)" stroke-width=".552" paint-order="fill markers stroke" transform="translate(-48 -48)"/><path d="M58 53h28l16 16v40H58z" style="isolation:auto;mix-blend-mode:normal;marker:none" color="#000" overflow="visible" fill="url(#t)" stroke-width=".552" paint-order="fill markers stroke" transform="translate(-48 -48)"/><path d="M38 5l1 1v31c0 2.55-3.303 5-7 5s-6.776-2.452-6.866-5L25 5z" style="isolation:auto;mix-blend-mode:normal;marker:none" color="#000" display="block" overflow="visible" fill-opacity=".094" stroke-width=".301" paint-order="fill markers stroke"/><path style="isolation:auto;mix-blend-mode:normal;marker:none" d="M37 5v30c0 2.285-2.715 5-5 5s-5.019-2.716-4.976-5V5z" color="#000" display="block" overflow="visible" fill-opacity=".848" stroke-width=".224" paint-order="fill markers stroke"/><path d="M86 53l16 16-18 2z" fill="url(#u)" fill-rule="evenodd" stroke-width="2.195" transform="translate(-48 -48)"/><path d="M86 53l16 16H86z" fill="url(#v)" fill-rule="evenodd" stroke-width="1.565" transform="translate(-48 -48)"/><g transform="matrix(.62067 0 0 .4478 -67.382 -50.521)" opacity=".8" fill="url(#w)" color="#000" stroke-width=".725" stroke-opacity=".957"><path d="M161.732 175.346v2.234h-3.223v2.233h3.223v2.233h4.833v-6.7z" style="isolation:auto;mix-blend-mode:normal;marker:none" display="block" overflow="visible" fill="url(#x)" paint-order="fill markers stroke"/><path style="isolation:auto;mix-blend-mode:normal;marker:none" d="M158.51 170.88v2.233h3.222v2.233h-3.223v2.234h-4.833v-6.7z" display="block" overflow="visible" fill="url(#y)" paint-order="fill markers stroke"/><path style="isolation:auto;mix-blend-mode:normal;marker:none" d="M161.732 166.414v2.233h-3.223v2.233h3.223v2.233h4.833v-6.699z" display="block" overflow="visible" fill="url(#z)" paint-order="fill markers stroke"/><path d="M158.51 161.948v2.233h3.222v2.233h-3.223v2.233h-4.833v-6.7z" style="isolation:auto;mix-blend-mode:normal;marker:none" display="block" overflow="visible" fill="url(#A)" paint-order="fill markers stroke"/><path d="M161.732 157.587v2.233h-3.223v2.233h3.223v2.233h4.833v-6.699z" style="isolation:auto;mix-blend-mode:normal;marker:none" display="block" overflow="visible" fill="url(#B)" paint-order="fill markers stroke"/><path style="isolation:auto;mix-blend-mode:normal;marker:none" d="M158.51 153.12v2.234h3.222v2.233h-3.223v2.233h-4.833v-6.7z" display="block" overflow="visible" fill="url(#C)" paint-order="fill markers stroke"/><path style="isolation:auto;mix-blend-mode:normal;marker:none" d="M161.732 148.444v2.233h-3.223v2.233h3.223v2.233h4.833v-6.7z" display="block" overflow="visible" fill="url(#D)" paint-order="fill markers stroke"/><path d="M158.51 143.977v2.233h3.222v2.234h-3.223v2.233h-4.833v-6.7z" style="isolation:auto;mix-blend-mode:normal;marker:none" display="block" overflow="visible" fill="url(#E)" paint-order="fill markers stroke"/><path d="M161.732 139.511v2.233h-3.223v2.233h3.223v2.233h4.833v-6.699z" style="isolation:auto;mix-blend-mode:normal;marker:none" display="block" overflow="visible" fill="url(#F)" paint-order="fill markers stroke"/><path style="isolation:auto;mix-blend-mode:normal;marker:none" d="M158.51 135.045v2.233h3.222v2.233h-3.223v2.233h-4.833v-6.7z" display="block" overflow="visible" fill="url(#G)" paint-order="fill markers stroke"/><path style="isolation:auto;mix-blend-mode:normal;marker:none" d="M161.732 130.684v2.233h-3.223v2.233h3.223v2.234h4.833v-6.7z" display="block" overflow="visible" fill="url(#H)" paint-order="fill markers stroke"/><path d="M158.51 126.218v2.233h3.222v2.233h-3.223v2.233h-4.833v-6.7z" style="isolation:auto;mix-blend-mode:normal;marker:none" display="block" overflow="visible" fill="url(#I)" paint-order="fill markers stroke"/><path d="M158.51 179.813v2.233h3.221v2.233h-3.222v2.233h-4.833v-6.7z" style="isolation:auto;mix-blend-mode:normal;marker:none" display="block" overflow="visible" fill="url(#J)" paint-order="fill markers stroke"/><path d="M158.51 123.985v2.233h3.222v2.233h4.833v-4.466z" style="isolation:auto;mix-blend-mode:normal;marker:none" display="block" overflow="visible" fill="url(#K)" paint-order="fill markers stroke"/></g><g transform="matrix(1.14079 0 0 1.14079 -148.318 -75.787)" color="#000"><path d="M158.064 91.958c2.166 0 4.37 1.498 3.91 3.266l-1.027 3.937c-.34 1.303-1.286 2.408-2.883 2.408-1.596 0-2.542-1.105-2.882-2.408l-1.027-3.937c-.461-1.768 1.744-3.266 3.91-3.266z" style="isolation:auto;mix-blend-mode:normal;marker:none" display="block" overflow="visible" fill="url(#L)" stroke="#2c2c2c" stroke-width=".413" paint-order="fill markers stroke"/><path style="isolation:auto;mix-blend-mode:normal;marker:none" d="M158.064 95.093c-1.711 0-2.818 1.391-3.09 3.071l-1.472 9.1c-.401 2.48 2.035 4.535 4.562 4.535s4.964-2.055 4.562-4.535l-1.472-9.1c-.272-1.68-1.378-3.071-3.09-3.071zm0 .934a2.185 2.172 0 0 1 2.185 2.172 2.185 2.172 0 0 1-2.185 2.173 2.185 2.172 0 0 1-2.184-2.173 2.185 2.172 0 0 1 2.184-2.172zm0 7.437a3.792 3.77 0 0 1 3.79 3.771 3.792 3.77 0 0 1-3.79 3.769 3.792 3.77 0 0 1-3.793-3.769 3.792 3.77 0 0 1 3.793-3.77z" display="block" overflow="visible" fill-opacity=".215" stroke-width=".158" stroke-opacity=".995" paint-order="fill markers stroke"/><path d="M158.064 95.999c-1.526 0-2.512 1.24-2.754 2.738l-1.313 8.113c-.358 2.211 1.814 4.043 4.067 4.043s4.425-1.832 4.067-4.043l-1.313-8.113c-.242-1.498-1.228-2.738-2.754-2.738zm0 .833a1.948 1.937 0 0 1 1.948 1.936 1.948 1.937 0 0 1-1.948 1.938 1.948 1.937 0 0 1-1.947-1.938 1.948 1.937 0 0 1 1.947-1.936zm0 6.63a3.38 3.36 0 0 1 3.38 3.362 3.38 3.36 0 0 1-3.38 3.36 3.38 3.36 0 0 1-3.381-3.36 3.38 3.36 0 0 1 3.381-3.362z" style="isolation:auto;mix-blend-mode:normal;marker:none" display="block" overflow="visible" fill="url(#M)" stroke="#646464" stroke-width=".141" stroke-opacity=".995" paint-order="fill markers stroke"/><rect ry=".835" y="93.422" x="157.229" height="6.683" width="1.671" style="isolation:auto;mix-blend-mode:normal;marker:none" display="block" overflow="visible" fill="url(#N)" stroke-width=".69" paint-order="fill markers stroke"/></g></svg>