<svg xmlns:osb="http://www.openswatchbook.org/uri/2009/osb" xmlns="http://www.w3.org/2000/svg" xmlns:xlink="http://www.w3.org/1999/xlink" height="64" viewBox="0 0 64 64" width="64"><title>Template icons dark</title><defs><linearGradient id="g" osb:paint="solid"><stop offset="0" stop-opacity=".196"/></linearGradient><linearGradient id="f" osb:paint="solid"><stop offset="0" stop-color="#fff" stop-opacity=".333"/></linearGradient><linearGradient id="e" osb:paint="solid"><stop offset="0" stop-opacity=".009"/></linearGradient><linearGradient id="d" osb:paint="solid"><stop offset="0" stop-opacity=".031"/></linearGradient><linearGradient id="b"><stop offset="0" stop-color="#5ebfff"/><stop offset="1" stop-color="#40b3ff"/></linearGradient><linearGradient id="a"><stop offset="0" stop-color="#36afff"/><stop offset="1" stop-color="#0090ee"/></linearGradient><linearGradient xlink:href="#a" id="j" gradientUnits="userSpaceOnUse" gradientTransform="matrix(1.4629 0 0 1.4641 44.919 46.116)" x1="24.117" y1="4.931" x2="24.058" y2="42.556"/><linearGradient xlink:href="#c" id="k" gradientUnits="userSpaceOnUse" gradientTransform="matrix(1.4629 0 0 1.4641 44.919 46.116)" x1="26.073" y1="18.962" x2="34.374" y2="10.815"/><linearGradient xlink:href="#b" id="n" gradientUnits="userSpaceOnUse" gradientTransform="matrix(1.67188 0 0 1.4641 38.004 45.955)" x1="34.176" y1="10.276" x2="30.758" y2="13.691"/><linearGradient id="c"><stop offset="0" stop-opacity="0"/><stop offset="1" stop-opacity=".102"/></linearGradient><linearGradient xlink:href="#d" id="i" x1="126" y1="161.5" x2="194" y2="161.5" gradientUnits="userSpaceOnUse"/><linearGradient xlink:href="#g" id="m" x1="166" y1="133.472" x2="193" y2="133.472" gradientUnits="userSpaceOnUse"/><linearGradient id="h" osb:paint="solid"><stop offset="0" stop-color="#fff" stop-opacity=".278"/></linearGradient><linearGradient gradientTransform="matrix(.66626 0 0 .67463 -26.615 -27.958)" xlink:href="#h" id="l" gradientUnits="userSpaceOnUse" x1="188" y1="173.5" x2="189" y2="173.5"/></defs><path d="M57 52h29.016L103 69v41H57z" style="isolation:auto;mix-blend-mode:normal;marker:none" color="#000" overflow="visible" fill="url(#i)" stroke-width=".852" paint-order="fill markers stroke" transform="translate(-48 -48)"/><path style="isolation:auto;mix-blend-mode:normal;marker:none" d="M58 53h28l16 16v40H58V53z" color="#000" overflow="visible" fill="url(#j)" stroke-width=".552" paint-order="fill markers stroke" transform="translate(-48 -48)"/><path d="M58 53h28l16 16v40H58z" style="isolation:auto;mix-blend-mode:normal;marker:none" color="#000" overflow="visible" fill="url(#k)" stroke-width=".552" paint-order="fill markers stroke" transform="translate(-48 -48)"/><path style="isolation:auto;mix-blend-mode:normal;marker:none" d="M58.666 52.997v2.024H58v.674h.666v2.024H58v.675h.666v2.024H58v.674h.666v2.024H58v.675h.666v2.024H58v.675h.666v2.023H58v.675h.666v2.024H58v.675h.666v2.023H58v.675h.666v2.024H58v.675h.666v2.023H58v.675h.666v2.024H58v.675h.666v2.023H58v.675h.666v2.024H58v.675h.666V90.1H58v.675h.666V92.8H58v.675h.666v2.024H58v.674h.666v2.024H58v.675h.666v2.024H58v.674h.666v2.024H58v.675h.666v2.024H58v.674h.666v2.024h.667v-2.024h1.998v2.024h.667v-2.024h1.998v2.024h.667v-2.024h1.998v2.024h.667v-2.024h1.998v2.024h.667v-2.024h1.999v2.024h.666v-2.024h1.999v2.024h.666v-2.024h1.999v2.024h.666v-2.024h1.999v2.024h.666v-2.024h1.999v2.024h.666v-2.024h1.999v2.024h.666v-2.024h1.999v2.024h.666v-2.024h1.999v2.024h.666v-2.024h1.999v1.96h.666v-1.96h1.999v2.024h.666v-2.024h1.999v2.024h.666v-2.024h2.665v-.674h-2.665v-2.024h2.665v-.675h-2.665v-2.024h2.665v-.674h-2.665v-2.024h2.665v-.675h-2.665v-2.024h2.665V95.5h-2.665v-2.024h2.665V92.8h-2.665v-2.024h2.665v-.675h-2.665v-2.023h2.665v-.675h-2.665v-2.024h2.665v-.675h-2.665v-2.023h2.665v-.675h-2.665v-2.024h2.665v-.675h-2.665v-2.023h2.665v-.675h-2.665v-2.024h2.665v-.675h-2.665v-2.023h2.665v-.675h-2.665v-2.024h-.666v2.024h-1.999v-2.024h-.666v2.024h-1.999v-2.087h-.666v2.087h-1.999v-2.024h-.666v2.024h-2v-2.024h-.665v2.024h-2V52.997h-.665v2.024h-2v-2.024h-.665v2.024h-2v-2.024h-.665v2.024h-2v-2.024h-.665v2.024h-2v-2.024h-.665v2.024h-2v-2.024h-.665v2.024h-2v-2.024h-.666v2.024h-1.998v-2.024h-.667v2.024h-1.998v-2.024h-.667v2.024h-1.998v-2.024h-.667v2.024h-1.998v-2.024zm.667 2.698h1.998v2.024h-1.998zm2.665 0h1.998v2.024h-1.998zm2.665 0h1.998v2.024h-1.998zm2.665 0h1.998v2.024h-1.998zm2.665 0h1.999v2.024h-2zm2.665 0h1.999v2.024h-2zm2.665 0h1.999v2.024h-2zm2.665 0h1.999v2.024h-2zm2.665 0h1.999v2.024h-2zm2.665 0h1.999v2.024h-2zm-23.985 2.699h1.998v2.024h-1.998zm2.665 0h1.998v2.024h-1.998zm2.665 0h1.998v2.024h-1.998zm2.665 0h1.998v2.024h-1.998zm2.665 0h1.999v2.024h-2zm2.665 0h1.999v2.024h-2zm2.665 0h1.999v2.024h-2zm2.665 0h1.999v2.024h-2zm2.665 0h1.999v2.024h-2zm2.665 0h1.999v2.024h-2zm-23.985 2.698h1.998v2.024h-1.998zm2.665 0h1.998v2.024h-1.998zm2.665 0h1.998v2.024h-1.998zm2.665 0h1.998v2.024h-1.998zm2.665 0h1.999v2.024h-2zm2.665 0h1.999v2.024h-2zm2.665 0h1.999v2.024h-2zm2.665 0h1.999v2.024h-2zm2.665 0h1.999v2.024h-2zm2.665 0h1.999v2.024h-2zm-23.985 2.699h1.998v2.024h-1.998zm2.665 0h1.998v2.024h-1.998zm2.665 0h1.998v2.024h-1.998zm2.665 0h1.998v2.024h-1.998zm2.665 0h1.999v2.024h-2zm2.665 0h1.999v2.024h-2zm2.665 0h1.999v2.024h-2zm2.665 0h1.999v2.024h-2zm2.665 0h1.999v2.024h-2zm2.665 0h1.999v2.024h-2zM59.333 66.49h1.998v2.023h-1.998zm2.665 0h1.998v2.023h-1.998zm2.665 0h1.998v2.023h-1.998zm2.665 0h1.998v2.023h-1.998zm2.665 0h1.999v2.023h-2zm2.665 0h1.999v2.023h-2zm2.665 0h1.999v2.023h-2zm2.665 0h1.999v2.023h-2zm2.665 0h1.999v2.023h-2zm2.665 0h1.999v2.023h-2zm-23.985 2.698h1.998v2.024h-1.998zm2.665 0h1.998v2.024h-1.998zm2.665 0h1.998v2.024h-1.998zm2.665 0h1.998v2.024h-1.998zm2.665 0h1.999v2.024h-2zm2.665 0h1.999v2.024h-2zm2.665 0h1.999v2.024h-2zm2.665 0h1.999v2.024h-2zm2.665 0h1.999v2.024h-2zm2.665 0h1.999v2.024h-2zm-23.985 2.699h1.998v2.023h-1.998zm2.665 0h1.998v2.023h-1.998zm2.665 0h1.998v2.023h-1.998zm2.665 0h1.998v2.023h-1.998zm2.665 0h1.999v2.023h-2zm2.665 0h1.999v2.023h-2zm2.665 0h1.999v2.023h-2zm2.665 0h1.999v2.023h-2zm2.665 0h1.999v2.023h-2zm2.665 0h1.999v2.023h-2zm2.665 0h1.999v2.023h-2zm2.665 0h1.999v2.023h-2zm2.665 0h1.999v2.023h-1.999zm2.665 0h1.999v2.023h-1.999zm2.665 0h1.999v2.023h-1.999zm-37.31 2.698h1.998v2.024h-1.998zm2.665 0h1.998v2.024h-1.998zm2.665 0h1.998v2.024h-1.998zm2.665 0h1.998v2.024h-1.998zm2.665 0h1.999v2.024h-2zm2.665 0h1.999v2.024h-2zm2.665 0h1.999v2.024h-2zm2.665 0h1.999v2.024h-2zm2.665 0h1.999v2.024h-2zm2.665 0h1.999v2.024h-2zm2.665 0h1.999v2.024h-2zm2.665 0h1.999v2.024h-2zm2.665 0h1.999v2.024h-1.999zm2.665 0h1.999v2.024h-1.999zm2.665 0h1.999v2.024h-1.999zm-37.31 2.699h1.998v2.023h-1.998zm2.665 0h1.998v2.023h-1.998zm2.665 0h1.998v2.023h-1.998zm2.665 0h1.998v2.023h-1.998zm2.665 0h1.999v2.023h-2zm2.665 0h1.999v2.023h-2zm2.665 0h1.999v2.023h-2zm2.665 0h1.999v2.023h-2zm2.665 0h1.999v2.023h-2zm2.665 0h1.999v2.023h-2zm2.665 0h1.999v2.023h-2zm2.665 0h1.999v2.023h-2zm2.665 0h1.999v2.023h-1.999zm2.665 0h1.999v2.023h-1.999zm2.665 0h1.999v2.023h-1.999zm-37.31 2.698h1.998v2.024h-1.998zm2.665 0h1.998v2.024h-1.998zm2.665 0h1.998v2.024h-1.998zm2.665 0h1.998v2.024h-1.998zm2.665 0h1.999v2.024h-2zm2.665 0h1.999v2.024h-2zm2.665 0h1.999v2.024h-2zm2.665 0h1.999v2.024h-2zm2.665 0h1.999v2.024h-2zm2.665 0h1.999v2.024h-2zm2.665 0h1.999v2.024h-2zm2.665 0h1.999v2.024h-2zm2.665 0h1.999v2.024h-1.999zm2.665 0h1.999v2.024h-1.999zm2.665 0h1.999v2.024h-1.999zm-37.31 2.699h1.998v2.023h-1.998zm2.665 0h1.998v2.023h-1.998zm2.665 0h1.998v2.023h-1.998zm2.665 0h1.998v2.023h-1.998zm2.665 0h1.999v2.023h-2zm2.665 0h1.999v2.023h-2zm2.665 0h1.999v2.023h-2zm2.665 0h1.999v2.023h-2zm2.665 0h1.999v2.023h-2zm2.665 0h1.999v2.023h-2zm2.665 0h1.999v2.023h-2zm2.665 0h1.999v2.023h-2zm2.665 0h1.999v2.023h-1.999zm2.665 0h1.999v2.023h-1.999zm2.665 0h1.999v2.023h-1.999zm-37.31 2.698h1.998v2.024h-1.998zm2.665 0h1.998v2.024h-1.998zm2.665 0h1.998v2.024h-1.998zm2.665 0h1.998v2.024h-1.998zm2.665 0h1.999v2.024h-2zm2.665 0h1.999v2.024h-2zm2.665 0h1.999v2.024h-2zm2.665 0h1.999v2.024h-2zm2.665 0h1.999v2.024h-2zm2.665 0h1.999v2.024h-2zm2.665 0h1.999v2.024h-2zm2.665 0h1.999v2.024h-2zm2.665 0h1.999v2.024h-1.999zm2.665 0h1.999v2.024h-1.999zm2.665 0h1.999v2.024h-1.999zm-37.31 2.699h1.998V90.1h-1.998zm2.665 0h1.998V90.1h-1.998zm2.665 0h1.998V90.1h-1.998zm2.665 0h1.998V90.1h-1.998zm2.665 0h1.999V90.1h-2zm2.665 0h1.999V90.1h-2zm2.665 0h1.999V90.1h-2zm2.665 0h1.999V90.1h-2zm2.665 0h1.999V90.1h-2zm2.665 0h1.999V90.1h-2zm2.665 0h1.999V90.1h-2zm2.665 0h1.999V90.1h-2zm2.665 0h1.999V90.1h-1.999zm2.665 0h1.999V90.1h-1.999zm2.665 0h1.999V90.1h-1.999zm-37.31 2.698h1.998V92.8h-1.998zm2.665 0h1.998V92.8h-1.998zm2.665 0h1.998V92.8h-1.998zm2.665 0h1.998V92.8h-1.998zm2.665 0h1.999V92.8h-2zm2.665 0h1.999V92.8h-2zm2.665 0h1.999V92.8h-2zm2.665 0h1.999V92.8h-2zm2.665 0h1.999V92.8h-2zm2.665 0h1.999V92.8h-2zm2.665 0h1.999V92.8h-2zm2.665 0h1.999V92.8h-2zm2.665 0h1.999V92.8h-1.999zm2.665 0h1.999V92.8h-1.999zm2.665 0h1.999V92.8h-1.999zm-37.31 2.699h1.998v2.024h-1.998zm2.665 0h1.998v2.024h-1.998zm2.665 0h1.998v2.024h-1.998zm2.665 0h1.998v2.024h-1.998zm2.665 0h1.999v2.024h-2zm2.665 0h1.999v2.024h-2zm2.665 0h1.999v2.024h-2zm2.665 0h1.999v2.024h-2zm2.665 0h1.999v2.024h-2zm2.665 0h1.999v2.024h-2zm2.665 0h1.999v2.024h-2zm2.665 0h1.999v2.024h-2zm2.665 0h1.999v2.024h-1.999zm2.665 0h1.999v2.024h-1.999zm2.665 0h1.999v2.024h-1.999zm-37.31 2.698h1.998v2.024h-1.998zm2.665 0h1.998v2.024h-1.998zm2.665 0h1.998v2.024h-1.998zm2.665 0h1.998v2.024h-1.998zm2.665 0h1.999v2.024h-2zm2.665 0h1.999v2.024h-2zm2.665 0h1.999v2.024h-2zm2.665 0h1.999v2.024h-2zm2.665 0h1.999v2.024h-2zm2.665 0h1.999v2.024h-2zm2.665 0h1.999v2.024h-2zm2.665 0h1.999v2.024h-2zm2.665 0h1.999v2.024h-1.999zm2.665 0h1.999v2.024h-1.999zm2.665 0h1.999v2.024h-1.999zm-37.31 2.699h1.998v2.024h-1.998zm2.665 0h1.998v2.024h-1.998zm2.665 0h1.998v2.024h-1.998zm2.665 0h1.998v2.024h-1.998zm2.665 0h1.999v2.024h-2zm2.665 0h1.999v2.024h-2zm2.665 0h1.999v2.024h-2zm2.665 0h1.999v2.024h-2zm2.665 0h1.999v2.024h-2zm2.665 0h1.999v2.024h-2zm2.665 0h1.999v2.024h-2zm2.665 0h1.999v2.024h-2zm2.665 0h1.999v2.024h-1.999zm2.665 0h1.999v2.024h-1.999zm2.665 0h1.999v2.024h-1.999zm-37.31 2.698h1.998v2.024h-1.998zm2.665 0h1.998v2.024h-1.998zm2.665 0h1.998v2.024h-1.998zm2.665 0h1.998v2.024h-1.998zm2.665 0h1.999v2.024h-2zm2.665 0h1.999v2.024h-2zm2.665 0h1.999v2.024h-2zm2.665 0h1.999v2.024h-2zm2.665 0h1.999v2.024h-2zm2.665 0h1.999v2.024h-2zm2.665 0h1.999v2.024h-2zm2.665 0h1.999v2.024h-2zm2.665 0h1.999v2.024h-1.999zm2.665 0h1.999v2.024h-1.999zm2.665 0h1.999v2.024h-1.999zm-37.31 2.699h1.998v2.024h-1.998zm2.665 0h1.998v2.024h-1.998zm2.665 0h1.998v2.024h-1.998zm2.665 0h1.998v2.024h-1.998zm2.665 0h1.999v2.024h-2zm2.665 0h1.999v2.024h-2zm2.665 0h1.999v2.024h-2zm2.665 0h1.999v2.024h-2zm2.665 0h1.999v2.024h-2zm2.665 0h1.999v2.024h-2zm2.665 0h1.999v2.024h-2zm2.665 0h1.999v2.024h-2zm2.665 0h1.999v2.024h-1.999zm2.665 0h1.999v2.024h-1.999zm2.665 0h1.999v2.024h-1.999z" color="#000" overflow="visible" opacity=".4" fill="url(#l)" stroke-width=".563" stroke-opacity=".344" paint-order="fill markers stroke" transform="translate(-48 -48)"/><path style="isolation:auto;mix-blend-mode:normal;marker:none" d="M13.33 7.66h23.983L50.28 20.927l.357 36.706H13.33z" color="#000" overflow="visible" fill="none" stroke="#b3d4ee" stroke-width="1.329" stroke-opacity=".214" paint-order="fill markers stroke"/><path d="M16.663 44.306h26.65V28.982z" fill="none" fill-rule="evenodd" stroke="#b8eff9" stroke-width="1.333"/><path style="line-height:normal;font-variant-ligatures:normal;font-variant-position:normal;font-variant-caps:normal;font-variant-numeric:normal;font-variant-alternates:normal;font-feature-settings:normal;text-indent:0;text-align:start;text-decoration-line:none;text-decoration-style:solid;text-decoration-color:#000;text-transform:none;text-orientation:mixed;shape-padding:0;isolation:auto;mix-blend-mode:normal" d="M42.893 23.188l-.151 1.112-1.036-.433-.068.161 1.079.452-.023.173L13.27 41.64l.089-.648-.173-.025-.107.784-.306.177.033.057-.807-.338-.068.16 1.079.454-.157 1.158.174.025.15-1.113 1.035.433.07-.161-1.08-.453.027-.199 29.423-16.988-.093.675.175.024.11-.811.32-.185.757.318.067-.163-.709-.297-.091-.157-.12.069-.158-.067.157-1.159zm3.248 3.6l-.104.134.788.61v.105l-.794.603.103.136.691-.526v17.01l-.798-.618-.098.128.813.63-.819.622.098.127.852-.648.847.655.1-.126-.724-.56v-.138l.728-.554-.097-.128-.631.48V27.742l.829.64.104-.132-.858-.664.863-.656-.103-.135-.838.636h-.122zM27.98 28.591l-.852.491.465.807a.925.925 0 0 1 .304-.282.49.49 0 0 1 .352-.073c.11.023.197.091.262.203a.394.394 0 0 1 .044.33.49.49 0 0 1-.238.267.979.979 0 0 1-.478.137l.125.218c.088-.02.17-.045.246-.074.077-.029.15-.062.218-.101.195-.113.32-.249.372-.406.052-.158.028-.323-.072-.496a.602.602 0 0 0-.388-.308c-.161-.038-.33-.005-.51.099a.607.607 0 0 0-.17.141l-.228-.394.653-.377zm-1.413.943a.69.69 0 0 0-.47.104 1.069 1.069 0 0 0-.194.148 2 2 0 0 0-.199.222l.128.218c.058-.097.117-.18.18-.247a.836.836 0 0 1 .194-.16.386.386 0 0 1 .28-.055.31.31 0 0 1 .21.158c.031.052.048.113.052.183.004.07-.007.164-.032.283a10.33 10.33 0 0 1-.108.433c-.059.225-.104.404-.138.537l.106.184 1.019-.59-.106-.182-.757.437.165-.65c.039-.155.062-.249.068-.28.019-.118.023-.213.013-.286a.549.549 0 0 0-.07-.21.477.477 0 0 0-.341-.247zm-1.639.817l-.217.126-.338.3.113.197.342-.3.707 1.224-.355.206.105.182.925-.533-.105-.184-.355.206zm25.559 5.66a.54.54 0 0 0-.478.247c-.109.164-.164.401-.164.714 0 .312.055.551.164.716a.54.54 0 0 0 .478.246.535.535 0 0 0 .475-.246c.11-.165.165-.404.165-.716 0-.313-.055-.55-.165-.714a.535.535 0 0 0-.475-.248zm-2.154.032v.932a.92.92 0 0 1 .405-.091.49.49 0 0 1 .341.111.393.393 0 0 1 .125.308c0 .129-.041.231-.125.307a.491.491 0 0 1-.341.113.976.976 0 0 1-.483-.121v.252c.086.027.17.046.25.059.081.013.16.02.238.02.226 0 .402-.054.526-.165.124-.11.186-.266.186-.465a.602.602 0 0 0-.182-.461c-.121-.113-.285-.17-.492-.17a.683.683 0 0 0-.217.038v-.455h.754v-.212zm2.154.165c.13 0 .227.064.291.191.066.127.098.318.098.573 0 .254-.032.445-.098.573-.064.126-.161.19-.291.19-.13 0-.227-.064-.293-.19-.064-.128-.096-.319-.096-.573 0-.255.032-.446.096-.573.066-.127.164-.19.293-.19zm-37.45 5.855l-.002.018-.017-.007zm2.543 5.73l-.134.102.627.824v.145l-.635.822.134.104.664-.857.656.862.134-.103-.62-.813h26.13l-.588.761.127.099.629-.813.623.818.128-.097-.588-.773v-.158l.594-.769-.127-.099-.54.698h-.177l-.535-.703-.128.098.461.605h-25.88l.499-.644-.134-.105-.58.749h-.166zm14.668 3a.538.538 0 0 0-.476.247c-.11.164-.164.403-.164.716 0 .312.055.55.164.714.11.164.268.246.476.246a.537.537 0 0 0 .476-.246c.11-.164.164-.402.164-.714 0-.313-.054-.552-.164-.716a.537.537 0 0 0-.476-.247zm1.619 0a.538.538 0 0 0-.476.247c-.11.164-.164.403-.164.716 0 .312.054.55.164.714.11.164.268.246.476.246a.537.537 0 0 0 .476-.246c.11-.164.165-.402.165-.714 0-.313-.055-.552-.165-.716a.537.537 0 0 0-.476-.247zm-3.324.034l-.443.09v.227l.446-.09v1.415h-.41v.21h1.068v-.21h-.41v-1.642zm1.705.165c.13 0 .227.064.292.191.065.127.098.318.098.573 0 .254-.033.444-.098.571-.065.127-.162.19-.292.19-.129 0-.226-.063-.291-.19-.065-.127-.098-.317-.098-.571 0-.255.033-.446.098-.573.065-.127.162-.19.291-.19zm1.619 0c.13 0 .228.064.293.191.065.127.097.318.097.573 0 .254-.032.444-.097.571-.065.127-.163.19-.293.19-.13 0-.226-.063-.292-.19-.064-.127-.096-.317-.096-.571 0-.255.032-.446.096-.573.066-.127.163-.19.292-.19z" color="#000" font-weight="400" font-family="sans-serif" white-space="normal" overflow="visible" fill="#f8f8f8" fill-rule="evenodd" stroke-width=".169"/><path d="M24.867 13.136v2.248h.265v-2.248zm-8.177.09v.247h.766v1.911h.293v-1.911h.766v-.246zm10.808.08v.46h-.195v.206h.195v.879c0 .202.04.342.117.419.078.076.22.114.424.114h.274v-.222h-.274c-.11 0-.183-.019-.22-.056-.035-.038-.054-.123-.054-.255v-.879h.548v-.207h-.548v-.459zm-8.536.42c-.243 0-.436.079-.58.235-.142.155-.214.365-.214.63 0 .256.076.46.226.61.152.15.355.225.613.225a1.478 1.478 0 0 0 .599-.124v-.252a1.32 1.32 0 0 1-.286.113 1.155 1.155 0 0 1-.296.038c-.176 0-.314-.048-.414-.143-.098-.097-.152-.236-.164-.42h1.222v-.13c0-.24-.064-.431-.191-.57a.657.657 0 0 0-.515-.212zm1.92 0a.611.611 0 0 0-.302.072.6.6 0 0 0-.218.219v-.252h-.268v1.62h.268v-.916c0-.157.04-.282.12-.373a.406.406 0 0 1 .324-.138c.114 0 .198.037.253.112.055.074.082.19.082.346v.968h.268v-.915a.55.55 0 0 1 .12-.374.411.411 0 0 1 .327-.137c.112 0 .196.037.25.112.056.075.084.191.084.346v.968h.267v-.977c0-.218-.047-.385-.138-.502a.462.462 0 0 0-.39-.179.612.612 0 0 0-.326.086.7.7 0 0 0-.24.264.52.52 0 0 0-.183-.26.49.49 0 0 0-.298-.09zm2.881 0a.548.548 0 0 0-.518.285v-.246h-.266V16h.266v-.86a.562.562 0 0 0 .211.217.64.64 0 0 0 .307.069.578.578 0 0 0 .478-.234c.123-.156.185-.362.185-.616s-.062-.46-.185-.615a.578.578 0 0 0-.478-.235zm2.492 0c-.086 0-.175.01-.266.029a1.732 1.732 0 0 0-.284.085v.246a1.07 1.07 0 0 1 .523-.135.51.51 0 0 1 .338.102c.081.066.121.161.121.284v.026h-.372c-.242 0-.424.045-.546.138-.122.092-.183.23-.183.412 0 .156.049.28.146.374.099.092.23.139.396.139a.728.728 0 0 0 .333-.07.585.585 0 0 0 .226-.218v.246h.266v-.924c0-.246-.058-.43-.173-.551-.116-.122-.29-.183-.525-.183zm3.087 0c-.243 0-.436.079-.58.235-.142.155-.214.365-.214.63 0 .256.075.46.225.61.152.15.356.225.615.225a1.478 1.478 0 0 0 .598-.124v-.252a1.32 1.32 0 0 1-.286.113 1.155 1.155 0 0 1-.296.038c-.176 0-.314-.048-.413-.143-.099-.097-.154-.236-.166-.42h1.224v-.13c0-.24-.065-.431-.192-.57a.657.657 0 0 0-.515-.212zm-5.644.223c.141 0 .25.056.33.168.082.11.122.264.122.46 0 .195-.04.348-.121.46a.385.385 0 0 1-.33.166.391.391 0 0 1-.334-.166c-.08-.112-.12-.265-.12-.46 0-.196.04-.35.12-.46a.39.39 0 0 1 .333-.168zm-4.734.003c.131 0 .236.043.315.13.08.086.122.203.124.348l-.949.002a.532.532 0 0 1 .154-.354.5.5 0 0 1 .356-.126zm10.38 0c.132 0 .237.043.316.13.08.086.121.203.123.348l-.948.002a.532.532 0 0 1 .153-.354.5.5 0 0 1 .357-.126zm-2.92.619h.263v.059a.622.622 0 0 1-.134.417.442.442 0 0 1-.354.156.374.374 0 0 1-.255-.082.289.289 0 0 1-.092-.225c0-.118.042-.203.125-.252.083-.05.231-.073.446-.073z" style="line-height:1000%" font-family="sans-serif" letter-spacing="0" word-spacing="0" fill="#fff" fill-opacity=".531" stroke-width=".185"/><path d="M86 53l16 16-18 2z" fill="url(#m)" fill-rule="evenodd" stroke-width="2.195" transform="translate(-48 -48)"/><path d="M86 53l16 16H86z" fill="url(#n)" fill-rule="evenodd" stroke-width="1.565" transform="translate(-48 -48)"/></svg>