<svg xmlns:osb="http://www.openswatchbook.org/uri/2009/osb" xmlns="http://www.w3.org/2000/svg" xmlns:xlink="http://www.w3.org/1999/xlink" height="64" viewBox="0 0 64 64" width="64"><title>Template icons dark</title><defs><linearGradient id="g" osb:paint="solid"><stop offset="0" stop-opacity=".196"/></linearGradient><linearGradient id="f" osb:paint="solid"><stop offset="0" stop-color="#fff" stop-opacity=".052"/></linearGradient><linearGradient id="e" osb:paint="solid"><stop offset="0" stop-opacity=".009"/></linearGradient><linearGradient id="d" osb:paint="solid"><stop offset="0" stop-opacity=".022"/></linearGradient><linearGradient id="b"><stop offset="0" stop-color="#525764"/><stop offset="1" stop-color="#464c57"/></linearGradient><linearGradient id="a"><stop offset="0" stop-color="#494f5a"/><stop offset="1" stop-color="#494e5a"/></linearGradient><linearGradient xlink:href="#a" id="i" gradientUnits="userSpaceOnUse" gradientTransform="matrix(1.4629 0 0 1.4641 44.919 46.116)" x1="24.117" y1="4.931" x2="24.058" y2="42.556"/><linearGradient xlink:href="#c" id="j" gradientUnits="userSpaceOnUse" gradientTransform="matrix(1.4629 0 0 1.4641 44.919 46.116)" x1="26.073" y1="18.962" x2="34.374" y2="10.815"/><linearGradient xlink:href="#b" id="l" gradientUnits="userSpaceOnUse" gradientTransform="matrix(1.67188 0 0 1.4641 38.004 45.955)" x1="34.176" y1="10.276" x2="30.758" y2="13.691"/><linearGradient id="c"><stop offset="0" stop-opacity="0"/><stop offset="1" stop-opacity=".102"/></linearGradient><linearGradient xlink:href="#d" id="h" x1="126" y1="161.5" x2="194" y2="161.5" gradientUnits="userSpaceOnUse"/><linearGradient xlink:href="#g" id="k" x1="166" y1="133.472" x2="193" y2="133.472" gradientUnits="userSpaceOnUse"/></defs><path d="M57 52h29.016L103 69v41H57z" style="isolation:auto;mix-blend-mode:normal;marker:none" color="#000" overflow="visible" fill="url(#h)" stroke-width=".852" paint-order="fill markers stroke" transform="translate(-48 -48)"/><path style="isolation:auto;mix-blend-mode:normal;marker:none" d="M58 53h28l16 16v40H58V53z" color="#000" overflow="visible" fill="url(#i)" stroke-width=".552" paint-order="fill markers stroke" transform="translate(-48 -48)"/><path d="M58 53h28l16 16v40H58z" style="isolation:auto;mix-blend-mode:normal;marker:none" color="#000" overflow="visible" fill="url(#j)" stroke-width=".552" paint-order="fill markers stroke" transform="translate(-48 -48)"/><path d="M86 53l16 16-18 2z" fill="url(#k)" fill-rule="evenodd" stroke-width="2.195" transform="translate(-48 -48)"/><path d="M86 53l16 16H86z" fill="url(#l)" fill-rule="evenodd" stroke-width="1.565" transform="translate(-48 -48)"/><path style="line-height:120.00000477%;isolation:auto;mix-blend-mode:normal;marker:none" color="#000" font-size="2.667" font-family="sans-serif" letter-spacing="0" word-spacing="0" overflow="visible" fill="#121823" fill-opacity=".11" stroke-width=".431" paint-order="fill markers stroke" d="M9.993 5H17v56H9.993z"/><text style="line-height:162.99999952%;text-align:end" x="63.019" y="64.687" font-size="2.699" font-family="sans-serif" letter-spacing="0" word-spacing="0" text-anchor="end" fill="#fff" fill-opacity=".966" stroke-width=".337" transform="translate(-48 -48)"><tspan x="63.019" y="64.687" style="line-height:162.99999952%;-inkscape-font-specification:sans-serif;text-align:end" font-weight="400">1.</tspan> <tspan x="63.019" y="69.086" style="line-height:162.99999952%;-inkscape-font-specification:sans-serif;text-align:end" font-weight="400">2.</tspan> <tspan x="63.019" y="73.485" style="line-height:162.99999952%;-inkscape-font-specification:sans-serif;text-align:end" font-weight="400">3.</tspan> <tspan x="63.019" y="77.884" style="line-height:162.99999952%;-inkscape-font-specification:sans-serif;text-align:end" font-weight="400">4.</tspan> <tspan x="63.019" y="82.283" style="line-height:162.99999952%;-inkscape-font-specification:sans-serif;text-align:end" font-weight="400">5.</tspan> <tspan x="63.019" y="86.682" style="line-height:162.99999952%;-inkscape-font-specification:sans-serif;text-align:end" font-weight="400">6.</tspan> <tspan x="63.019" y="91.081" style="line-height:162.99999952%;-inkscape-font-specification:sans-serif;text-align:end" font-weight="400">7.</tspan> <tspan x="63.019" y="95.48" style="line-height:162.99999952%;-inkscape-font-specification:sans-serif;text-align:end" font-weight="400">8.</tspan> <tspan x="63.019" y="99.879" style="line-height:162.99999952%;-inkscape-font-specification:sans-serif;text-align:end" font-weight="400">9.</tspan></text><g style="line-height:120.00000477%" font-size="2.667" font-family="sans-serif" letter-spacing="0" word-spacing="0" fill="#344f67" fill-opacity=".89" stroke-width="1.251"><path style="line-height:120.00000477%" d="M19.506 15.727l-1.408.511v.182l1.408.511v-.2l-1.134-.4 1.134-.404zm13.046 3.716v.61h.187v-.61zm.415 0v.61h.187v-.61zm-13.46.333l-1.41.511v.182l1.41.512v-.2l-1.135-.401 1.134-.404zm11.182.286v.185h1.409v-.185zm0 .448v.187h1.409v-.187zm-11.183 3.316l-1.408.511v.182l1.408.511v-.2l-1.134-.4 1.134-.404zm6.098 0v.2l1.132.403-1.132.4v.201l1.408-.511v-.182zm13.1 3.717v.609h.188v-.609zm.416 0v.609h.187v-.609zm7.188 0v.609h.188v-.609zm.416 0v.609h.187v-.609zm-25.332.332l-1.409.511v.182l1.409.512v-.2l-1.135-.401 1.135-.404zm25.976 0v.2l1.13.404-1.13.4v.2l1.409-.51v-.183zm-10.526.286v.185h1.408v-.185zm0 .448v.187h1.408v-.187zm5.193 2.984l-.57 1.848h.185l.572-1.848zm-20.643.332l-1.409.511v.182l1.409.511v-.2l-1.135-.4 1.135-.404zm4.876 0v.2l1.132.403-1.132.4v.201l1.408-.511v-.182zm14.958 0l-1.409.511v.182l1.409.511v-.2l-1.135-.4 1.135-.404zm5.636 0v.2l1.132.403-1.132.4v.201l1.409-.511v-.182zm-26.547 3.717l-.57 1.849h.186l.572-1.849zm-.809.332l-1.408.512v.181l1.408.512v-.2l-1.134-.401 1.134-.403zm6.858 0v.2l1.132.404-1.132.4v.2l1.409-.51v-.182zm-6.858 4.05l-1.408.511v.183l1.408.51v-.199l-1.134-.402 1.134-.403zm6.041 0v.2l1.132.403-1.132.402v.2l1.409-.51v-.184zm-5.232 5.068l-.57 1.849h.186l.572-1.85zm-.809.333l-1.408.51v.183l1.408.51v-.199l-1.134-.402 1.134-.403zm6.801 0v.2l1.132.402-1.132.402v.2l1.409-.51v-.184zm-5.992 3.716l-.57 1.85h.186l.572-1.85zm-.809.334l-1.408.51v.183l1.408.511v-.2l-1.134-.402 1.134-.403zm6.366 0v.199l1.131.403-1.13.402v.2l1.408-.511v-.183z" fill="#c3f7fe"/><path style="line-height:120.00000477%" d="M23.263 15.364a.706.706 0 0 0-.553.232c-.138.154-.207.36-.207.62 0 .259.07.465.207.619.138.154.323.23.553.23.23 0 .415-.076.552-.23.138-.155.207-.36.207-.62 0-.259-.069-.465-.207-.619a.704.704 0 0 0-.552-.232zm1.812 0c-.248 0-.443.076-.586.228-.143.152-.215.36-.215.624 0 .263.072.47.215.623.143.151.338.227.586.227a.901.901 0 0 0 .522-.158v-.233a.787.787 0 0 1-.24.157.703.703 0 0 1-.269.052c-.187 0-.33-.057-.43-.172-.1-.115-.15-.28-.15-.496 0-.217.05-.383.15-.497.1-.115.243-.173.43-.173.096 0 .185.017.27.052a.787.787 0 0 1 .239.156v-.234a.943.943 0 0 0-.522-.156zm-4.992.03v.719l.024.392h.178l.022-.392v-.72zm.783 0v1.64h.456c.317 0 .55-.066.699-.2.149-.132.224-.34.224-.622s-.074-.488-.223-.62c-.149-.132-.382-.199-.7-.199zm4.848 0v.186h.583v1.454h.224V15.58h.58v-.174l.572.846v.782h.222v-.782l.581-.859h-.238l-.452.675-.455-.675h-.23zm2.98 0v1.64h.221v-.659h.28c.183 0 .322-.041.416-.124.094-.083.142-.206.142-.368 0-.16-.048-.282-.142-.365-.094-.083-.233-.125-.416-.125zm1.357 0v1.64h1.057v-.187h-.834v-.595h.781v-.185h-.781v-.487h.814v-.187zm-6.788.15c.161 0 .289.06.382.18.095.12.143.284.143.492 0 .206-.048.37-.143.49a.459.459 0 0 1-.382.18.466.466 0 0 1-.385-.18c-.094-.12-.14-.284-.14-.49 0-.208.046-.372.14-.492a.465.465 0 0 1 .385-.18zm-2.175.032h.268c.227 0 .393.05.497.153.106.102.158.263.158.483 0 .22-.052.383-.158.486-.104.102-.27.154-.497.154h-.268zm7.827 0h.28c.103 0 .183.027.24.08.056.054.084.13.084.228s-.028.175-.085.229c-.056.053-.136.079-.24.079h-.279zm-8.832 1.179v.279h.225v-.28z" fill="#c382ff" fill-opacity="1"/><path style="line-height:120.00000477%" d="M32.175 15.325v1.709h.203v-.696c0-.12.032-.215.095-.285a.33.33 0 0 1 .258-.104c.091 0 .16.03.205.087.045.058.068.146.068.263v.735h.202v-.742c0-.17-.036-.299-.108-.386-.073-.088-.18-.132-.322-.132a.458.458 0 0 0-.226.055.494.494 0 0 0-.172.165v-.67zm1.433.129v.35h-.148v.157h.148v.668c0 .154.03.26.09.318.059.058.166.087.322.087h.208v-.169h-.208c-.084 0-.14-.015-.168-.043-.028-.029-.04-.092-.04-.193v-.668h.416v-.158h-.416v-.35zm1.478.32a.469.469 0 0 0-.23.054.452.452 0 0 0-.165.166v-.19h-.204v1.23h.204v-.696c0-.12.03-.214.09-.283a.31.31 0 0 1 .247-.106c.088 0 .151.029.193.086.041.056.063.145.063.264v.735h.203v-.696c0-.12.03-.215.09-.285a.314.314 0 0 1 .25-.104c.086 0 .15.029.191.086.042.057.062.146.062.264v.735h.203v-.742c0-.166-.035-.294-.104-.383a.352.352 0 0 0-.297-.135.463.463 0 0 0-.247.065.534.534 0 0 0-.182.201.395.395 0 0 0-.14-.197.373.373 0 0 0-.227-.069zm-9.285 3.6v1.71h.203v-1.71zm1.057.45a.997.997 0 0 0-.204.022c-.07.014-.14.035-.215.063v.187a.819.819 0 0 1 .398-.101c.11 0 .196.025.257.076.062.05.092.123.092.216v.02h-.283c-.184 0-.322.035-.415.106-.092.07-.139.173-.139.312 0 .119.037.214.111.285a.42.42 0 0 0 .3.105c.1 0 .185-.018.254-.053a.445.445 0 0 0 .172-.166v.187h.202v-.7-.002c0-.187-.044-.327-.132-.42-.088-.091-.22-.137-.398-.137zm1.54 0a.458.458 0 0 0-.226.055.49.49 0 0 0-.17.165v-.191h-.204v1.23h.204v-.695c0-.12.03-.214.094-.284a.332.332 0 0 1 .258-.105c.09 0 .159.029.204.087.045.058.069.146.069.262v.735h.201v-.742c0-.17-.035-.298-.108-.386-.072-.088-.18-.131-.321-.131zm1.251 0a.445.445 0 0 0-.365.172.712.712 0 0 0-.138.459c0 .19.046.34.138.456a.445.445 0 0 0 .365.172.414.414 0 0 0 .394-.216v.1c0 .14-.033.245-.099.314-.066.07-.165.104-.297.104a.681.681 0 0 1-.177-.024.794.794 0 0 1-.175-.07v.196a1.177 1.177 0 0 0 .385.065c.191 0 .333-.051.426-.154.093-.102.14-.258.14-.468v-1.077h-.203v.187a.414.414 0 0 0-.394-.216zm.05.168c.11 0 .193.041.253.122.061.08.091.193.091.34 0 .145-.03.259-.09.34a.297.297 0 0 1-.254.12.301.301 0 0 1-.254-.12.56.56 0 0 1-.09-.34c0-.147.03-.26.09-.34a.301.301 0 0 1 .254-.122zm-2.714.473h.201v.045a.473.473 0 0 1-.103.318.335.335 0 0 1-.268.118.284.284 0 0 1-.194-.063.22.22 0 0 1-.07-.171c0-.09.032-.154.095-.191.063-.038.175-.056.339-.056zm2.646 7.008v1.71h.203v-.695c0-.12.032-.215.095-.285a.332.332 0 0 1 .258-.105c.09 0 .159.029.204.087.045.058.069.146.069.262v.735h.201v-.741c0-.17-.035-.3-.108-.387-.072-.087-.18-.131-.321-.131a.463.463 0 0 0-.228.055.495.495 0 0 0-.17.166v-.67zm6.297.13v.35h-.147v.157h.147v.668c0 .154.03.26.09.319.06.058.167.085.323.085h.207v-.168h-.207c-.084 0-.141-.015-.169-.044-.027-.028-.04-.092-.04-.192v-.668h.416v-.157h-.417v-.35zm-6.998.32a.599.599 0 0 0-.454.172c-.11.115-.164.273-.164.473 0 .198.054.356.163.472.11.117.256.175.441.175a.822.822 0 0 0 .368-.08v-.186a.803.803 0 0 1-.172.071.659.659 0 0 1-.173.024.386.386 0 0 1-.306-.125.518.518 0 0 1-.11-.35c0-.15.038-.267.11-.35a.383.383 0 0 1 .306-.125c.058 0 .115.008.173.024.057.015.115.04.172.07V28a.835.835 0 0 0-.354-.076zm2.568 0a.984.984 0 0 0-.203.022c-.07.014-.14.035-.215.063v.187a.816.816 0 0 1 .398-.101c.11 0 .196.025.257.076.062.05.092.123.092.216v.02h-.283c-.184 0-.323.035-.416.106-.093.07-.139.175-.139.313 0 .119.038.214.112.285a.42.42 0 0 0 .3.105c.1 0 .185-.017.254-.052a.445.445 0 0 0 .172-.166v.185h.202v-.7c0-.188-.044-.329-.132-.421-.088-.092-.221-.138-.399-.138zm1.559 0a.521.521 0 0 0-.25.055.411.411 0 0 0-.165.166v-.191h-.203v1.23h.203v-.649a.49.49 0 0 1 .092-.319.322.322 0 0 1 .264-.112c.032 0 .06.003.087.01a.266.266 0 0 1 .075.028l-.002-.208-.055-.007c-.017-.002-.032-.004-.046-.004zm.708 0a.563.563 0 0 0-.35.095.317.317 0 0 0-.122.267c0 .095.027.17.083.225a.549.549 0 0 0 .271.122l.071.015a.662.662 0 0 1 .243.086c.037.03.055.07.055.125 0 .06-.025.107-.076.14a.416.416 0 0 1-.22.047.837.837 0 0 1-.215-.027 1.123 1.123 0 0 1-.221-.089v.209c.079.025.154.045.225.058.072.013.14.02.207.02a.616.616 0 0 0 .373-.1.319.319 0 0 0 .135-.272c0-.1-.03-.18-.09-.235-.06-.056-.163-.1-.306-.13l-.069-.016a.656.656 0 0 1-.217-.075.131.131 0 0 1-.054-.11c0-.062.025-.109.075-.14a.444.444 0 0 1 .227-.045.786.786 0 0 1 .369.087v-.192a.892.892 0 0 0-.182-.048 1.295 1.295 0 0 0-.212-.017zm1.298 0a.568.568 0 0 0-.44.178c-.109.117-.164.278-.164.48 0 .194.057.347.171.462a.636.636 0 0 0 .468.172 1.207 1.207 0 0 0 .455-.095v-.19a1.003 1.003 0 0 1-.218.085.882.882 0 0 1-.225.03.433.433 0 0 1-.314-.11.47.47 0 0 1-.125-.32h.93v-.098c0-.183-.049-.327-.146-.434a.502.502 0 0 0-.392-.16zm.002.17c.1 0 .18.034.24.1s.09.154.092.265l-.72.001a.403.403 0 0 1 .117-.269.382.382 0 0 1 .271-.096zm-3.44.471h.203v.045a.473.473 0 0 1-.103.318.335.335 0 0 1-.27.118.283.283 0 0 1-.193-.062.22.22 0 0 1-.07-.17c0-.091.03-.155.094-.192.063-.037.177-.057.34-.057z" fill="#f7fd93"/><path style="line-height:120.00000477%" d="M19.95 19.374v1.71h.202v-.696c0-.12.032-.214.095-.284a.332.332 0 0 1 .258-.105c.091 0 .159.029.204.087.046.058.068.146.068.262v.735h.203v-.742c0-.17-.037-.298-.11-.386-.072-.088-.179-.131-.32-.131a.463.463 0 0 0-.228.055.49.49 0 0 0-.17.165v-.67zm4.511 0v1.71h.202v-1.71zm-3.08.13v.349h-.148v.158h.148v.668c0 .154.03.259.09.317.06.058.167.087.323.087H22v-.168h-.207c-.084 0-.14-.015-.169-.044-.027-.028-.04-.092-.04-.192v-.668H22v-.158h-.417v-.35zm1.478.32a.463.463 0 0 0-.23.054.46.46 0 0 0-.166.167v-.192h-.203v1.23h.203v-.695c0-.12.032-.214.093-.284A.307.307 0 0 1 22.8 20c.087 0 .152.028.193.086.042.056.064.144.064.263v.735h.203v-.695c0-.12.03-.214.09-.284A.312.312 0 0 1 23.6 20c.086 0 .15.028.191.086a.45.45 0 0 1 .064.263v.735h.202v-.741c0-.166-.034-.295-.104-.384a.352.352 0 0 0-.296-.134.468.468 0 0 0-.25.064.532.532 0 0 0-.18.202.395.395 0 0 0-.14-.198.377.377 0 0 0-.227-.068zm-2.91 3.6v1.709h.203v-.695c0-.12.032-.215.095-.284a.332.332 0 0 1 .258-.106c.091 0 .159.03.204.087.046.058.068.146.068.263v.735h.203v-.742c0-.17-.037-.299-.11-.386-.072-.088-.179-.132-.32-.132a.463.463 0 0 0-.228.055.495.495 0 0 0-.17.166v-.67zm5.01 0v.665a.415.415 0 0 0-.162-.162.473.473 0 0 0-.233-.054c-.149 0-.27.06-.364.178a.736.736 0 0 0-.138.468c0 .193.045.349.138.468.094.118.215.179.364.179.09 0 .169-.02.233-.054a.424.424 0 0 0 .162-.164v.185h.202v-1.71zm-3.058.45a.571.571 0 0 0-.442.177c-.108.118-.162.277-.162.478 0 .195.057.35.171.464.115.114.27.172.467.172a1.117 1.117 0 0 0 .455-.094v-.191a.881.881 0 0 1-.443.113.433.433 0 0 1-.314-.108.47.47 0 0 1-.125-.319h.929v-.099c0-.183-.048-.327-.145-.433a.499.499 0 0 0-.391-.16zm1.3 0a.997.997 0 0 0-.204.022c-.07.013-.14.034-.215.063v.187a.819.819 0 0 1 .398-.102c.11 0 .196.026.257.077.062.05.092.123.092.216v.02h-.283c-.184 0-.322.035-.415.105-.092.07-.138.174-.138.312 0 .12.036.214.11.285a.42.42 0 0 0 .3.106c.1 0 .185-.018.254-.053a.441.441 0 0 0 .172-.165v.186h.202v-.701c0-.188-.044-.328-.132-.42-.088-.093-.22-.139-.398-.139zm1.413.168c.107 0 .191.043.253.128.062.084.092.2.092.349 0 .149-.03.265-.092.35a.297.297 0 0 1-.253.127.297.297 0 0 1-.253-.127.593.593 0 0 1-.091-.35c0-.149.03-.265.091-.35a.296.296 0 0 1 .253-.127zm-2.712.002c.1 0 .18.033.24.1.06.065.092.154.093.264l-.72.002a.403.403 0 0 1 .116-.27.382.382 0 0 1 .271-.095zm1.426.47h.201v.046a.473.473 0 0 1-.102.317.335.335 0 0 1-.27.119.284.284 0 0 1-.193-.062.222.222 0 0 1-.07-.173c0-.09.032-.153.095-.19.063-.038.175-.056.339-.056zm2.089 3.088v.351h-.15v.157h.15v.668c0 .154.028.26.088.319.06.058.167.085.323.085h.208v-.168h-.208c-.085 0-.14-.015-.168-.044-.027-.028-.04-.092-.04-.192v-.668h.416v-.157h-.417v-.35zm-2.984.32a.463.463 0 0 0-.23.055.46.46 0 0 0-.165.167v-.191h-.203v1.23h.203v-.695c0-.12.03-.214.09-.283a.31.31 0 0 1 .247-.107c.087 0 .152.03.194.087.042.056.062.144.062.262v.736h.203v-.695c0-.12.03-.215.09-.285a.315.315 0 0 1 .25-.105c.085 0 .149.03.19.087a.445.445 0 0 1 .064.262v.736h.203v-.742c0-.166-.035-.293-.104-.383a.355.355 0 0 0-.298-.135.463.463 0 0 0-.248.064.534.534 0 0 0-.182.202.393.393 0 0 0-.138-.198.377.377 0 0 0-.228-.068zm2.118 0a.571.571 0 0 0-.442.179c-.108.118-.162.278-.162.48 0 .194.057.348.172.462.115.114.27.172.466.172a1.207 1.207 0 0 0 .455-.095v-.19a1.003 1.003 0 0 1-.218.085.882.882 0 0 1-.225.03.433.433 0 0 1-.314-.11.47.47 0 0 1-.125-.32h.93v-.098c0-.183-.05-.327-.146-.434a.499.499 0 0 0-.391-.16zm2.183 0a1.32 1.32 0 0 0-.419.086v.187a.816.816 0 0 1 .398-.101c.11 0 .196.025.257.076.062.05.092.123.092.217v.02h-.283c-.184 0-.322.034-.415.105-.092.07-.138.175-.138.313 0 .119.036.214.11.285.075.07.176.105.302.105.1 0 .184-.017.253-.052a.442.442 0 0 0 .171-.166v.185h.203v-.7c0-.188-.044-.329-.131-.421-.088-.092-.222-.138-.4-.138zm-2.182.172c.1 0 .18.033.24.099s.092.154.093.265l-.72.001a.403.403 0 0 1 .116-.269.382.382 0 0 1 .271-.096zm2.31.47h.2v.045a.472.472 0 0 1-.101.318.335.335 0 0 1-.269.118.284.284 0 0 1-.194-.062.22.22 0 0 1-.07-.17c0-.09.031-.155.094-.192.063-.037.177-.057.34-.057zm-4.136 2.959v.255h.201v-.255zm1.507 0v1.709h.202v-1.71zm19.087 0v.255h.201v-.255zm1.507 0v1.709h.202v-1.71zm-22.988.13v.35h-.15v.156h.15v.668c0 .154.029.26.088.32.06.057.168.085.324.085h.207v-.169h-.207c-.084 0-.14-.013-.168-.042-.028-.028-.041-.093-.041-.194v-.668h.416v-.156h-.416v-.35zm1.507 0v.35h-.149v.156h.15v.668c0 .154.028.26.088.32.059.057.166.085.322.085h.209v-.169h-.209c-.084 0-.14-.013-.167-.042-.027-.028-.04-.093-.04-.194v-.668h.416v-.156h-.417v-.35zm19.087 0v.35h-.148v.156h.148v.668c0 .154.03.26.09.32.059.057.166.085.322.085h.207v-.169h-.207c-.084 0-.14-.013-.168-.042-.027-.028-.041-.093-.041-.194v-.668h.416v-.156h-.416v-.35zm1.507 0v.35h-.147v.156h.147v.668c0 .154.03.26.09.32.06.057.167.085.323.085h.207v-.169h-.207c-.084 0-.141-.013-.169-.042-.027-.028-.04-.093-.04-.194v-.668h.416v-.156h-.417v-.35zm-18.568.32a.568.568 0 0 0-.44.177c-.109.118-.163.278-.163.48 0 .195.057.35.172.464.115.114.27.17.466.17a1.207 1.207 0 0 0 .455-.095v-.19a1.003 1.003 0 0 1-.218.086.882.882 0 0 1-.225.029.433.433 0 0 1-.313-.11.47.47 0 0 1-.126-.319h.93v-.098c0-.184-.049-.328-.146-.434a.502.502 0 0 0-.392-.16zm20.595 0a.571.571 0 0 0-.441.177c-.109.118-.162.278-.162.48 0 .195.057.35.17.464.116.114.271.17.467.17a1.207 1.207 0 0 0 .455-.095v-.19a1.003 1.003 0 0 1-.217.086.882.882 0 0 1-.226.029.433.433 0 0 1-.313-.11.47.47 0 0 1-.126-.319h.93v-.098c0-.184-.049-.328-.145-.434a.499.499 0 0 0-.392-.16zm-23.241.03v1.229h.201v-1.23zm20.594 0v1.229h.201v-1.23zm-17.946.14c.1 0 .18.033.24.1.06.065.092.154.094.264l-.721.002a.403.403 0 0 1 .116-.27.382.382 0 0 1 .271-.095zm20.594 0c.1 0 .18.033.24.1.06.065.092.154.094.264l-.721.002a.403.403 0 0 1 .116-.27.382.382 0 0 1 .271-.095zm-25.259 3.43v1.71h.203v-.696c0-.12.032-.215.095-.285a.33.33 0 0 1 .259-.104c.09 0 .158.03.204.087.045.058.067.145.067.261v.737h.203v-.743c0-.17-.037-.3-.11-.387-.072-.087-.178-.131-.32-.131a.463.463 0 0 0-.228.055.495.495 0 0 0-.17.166v-.67zm5.01 0v.665a.415.415 0 0 0-.161-.162.473.473 0 0 0-.234-.054c-.148 0-.27.059-.363.178a.736.736 0 0 0-.139.467c0 .194.046.35.139.47a.442.442 0 0 0 .363.177c.091 0 .169-.017.234-.052a.427.427 0 0 0 .162-.165v.186h.201v-1.71zm-3.058.449a.571.571 0 0 0-.441.178c-.109.118-.162.278-.162.48 0 .194.057.349.17.463.116.114.271.171.467.171a1.202 1.202 0 0 0 .455-.095v-.19a1.003 1.003 0 0 1-.217.085.882.882 0 0 1-.226.03.433.433 0 0 1-.313-.11.47.47 0 0 1-.126-.32h.93v-.098c0-.183-.049-.327-.146-.433a.499.499 0 0 0-.391-.161zm1.3 0a.997.997 0 0 0-.204.022c-.07.014-.14.035-.214.063v.187a.819.819 0 0 1 .398-.101c.11 0 .196.027.257.078.061.05.092.122.092.215v.02h-.284c-.183 0-.322.034-.415.105-.092.07-.138.175-.138.313 0 .119.037.214.11.285a.42.42 0 0 0 .301.105c.1 0 .184-.017.253-.052a.445.445 0 0 0 .173-.166v.187h.201v-.703c0-.187-.043-.328-.131-.42-.088-.092-.22-.138-.398-.138zm1.413.17c.107 0 .192.041.253.126.062.084.093.2.093.35 0 .148-.031.265-.093.35a.297.297 0 0 1-.253.126.297.297 0 0 1-.253-.126.593.593 0 0 1-.09-.35c0-.15.03-.266.09-.35a.295.295 0 0 1 .253-.126zm-2.712.001c.1 0 .18.033.24.099s.092.154.094.265l-.721.001a.403.403 0 0 1 .116-.269.382.382 0 0 1 .271-.096zm1.426.47h.202v.045a.473.473 0 0 1-.103.318.335.335 0 0 1-.269.118.284.284 0 0 1-.194-.061.22.22 0 0 1-.07-.172c0-.09.033-.153.096-.19.063-.038.175-.058.338-.058zm-4.139 2.959v1.71h.203v-.184a.426.426 0 0 0 .16.163.485.485 0 0 0 .234.053c.15 0 .27-.06.362-.178a.732.732 0 0 0 .141-.468.736.736 0 0 0-.14-.469.438.438 0 0 0-.363-.178.477.477 0 0 0-.233.054.42.42 0 0 0-.161.164v-.667zm3.621 0v.667a.419.419 0 0 0-.394-.218c-.148 0-.27.06-.363.178a.74.74 0 0 0-.14.47c0 .193.047.348.14.467a.442.442 0 0 0 .363.178c.091 0 .168-.018.232-.053a.424.424 0 0 0 .162-.163v.184h.202v-1.71zm-1.709.45a.524.524 0 0 0-.415.17c-.1.115-.149.274-.149.476 0 .202.05.36.15.475.1.114.238.171.414.171a.524.524 0 0 0 .415-.171c.1-.115.15-.273.15-.475 0-.202-.05-.361-.15-.475a.524.524 0 0 0-.415-.172zm2.182.03l.499 1.21-.037.093a.5.5 0 0 1-.102.186.192.192 0 0 1-.129.04h-.12v.17h.162c.091 0 .163-.023.218-.068.054-.045.11-.14.167-.287l.54-1.344h-.215l-.383.962-.385-.962zm-3.547.14c.107 0 .19.04.252.126a.586.586 0 0 1 .092.35c0 .149-.03.266-.092.35a.292.292 0 0 1-.252.126.296.296 0 0 1-.253-.125.593.593 0 0 1-.091-.35c0-.15.03-.267.09-.351a.295.295 0 0 1 .254-.127zm2.73 0c.106 0 .19.04.252.126a.586.586 0 0 1 .092.35c0 .149-.03.266-.092.35a.296.296 0 0 1-.253.126.296.296 0 0 1-.253-.125.593.593 0 0 1-.09-.35c0-.15.03-.267.09-.351a.295.295 0 0 1 .253-.127zm-1.365 0c.108 0 .194.044.257.13a.57.57 0 0 1 .094.346c0 .147-.03.262-.094.347a.304.304 0 0 1-.257.128.305.305 0 0 1-.258-.127.577.577 0 0 1-.092-.348.57.57 0 0 1 .093-.348.303.303 0 0 1 .257-.127zm-1.152 4.78v1.71h.203v-.184a.426.426 0 0 0 .161.164.48.48 0 0 0 .232.052c.15 0 .27-.059.364-.178a.733.733 0 0 0 .14-.467.732.732 0 0 0-.14-.468.442.442 0 0 0-.364-.18.472.472 0 0 0-.232.055.42.42 0 0 0-.16.163v-.667zm3.622 0v.667a.419.419 0 0 0-.394-.218c-.149 0-.27.061-.364.18a.736.736 0 0 0-.14.467c0 .194.047.35.14.468a.442.442 0 0 0 .364.178c.09 0 .167-.017.232-.052a.424.424 0 0 0 .162-.164v.185h.201v-1.71zm-1.71.45a.524.524 0 0 0-.415.172c-.1.114-.148.272-.148.475 0 .201.049.359.148.474.1.114.239.171.416.171a.524.524 0 0 0 .415-.171c.1-.115.15-.273.15-.474 0-.203-.05-.36-.15-.475a.525.525 0 0 0-.415-.173zm2.183.03l.498 1.21-.037.093a.509.509 0 0 1-.102.187.195.195 0 0 1-.13.04h-.119v.168h.163c.09 0 .163-.022.217-.067.054-.044.11-.14.167-.286l.54-1.345h-.214l-.384.962-.384-.962zm-3.548.14c.107 0 .191.042.252.127.062.085.092.2.092.35 0 .148-.03.265-.092.35a.294.294 0 0 1-.252.127.297.297 0 0 1-.253-.127.593.593 0 0 1-.09-.35c0-.15.03-.265.09-.35a.296.296 0 0 1 .253-.128zm2.73 0c.106 0 .19.042.252.127.062.085.093.2.093.35 0 .148-.031.265-.093.35a.297.297 0 0 1-.253.127.297.297 0 0 1-.253-.127.593.593 0 0 1-.09-.35c0-.15.03-.265.09-.35a.296.296 0 0 1 .253-.128zm-1.364.002c.107 0 .193.042.256.128a.57.57 0 0 1 .094.347c0 .146-.03.261-.094.346a.304.304 0 0 1-.256.128.305.305 0 0 1-.259-.127.577.577 0 0 1-.092-.347.57.57 0 0 1 .094-.348.302.302 0 0 1 .257-.127zm-1.913 3.429v1.71h.203v-.697c0-.12.032-.215.095-.284a.33.33 0 0 1 .259-.104c.09 0 .158.029.204.087.045.057.067.144.067.26v.737h.203v-.743c0-.17-.037-.298-.11-.385-.072-.088-.178-.132-.32-.132a.462.462 0 0 0-.228.054.495.495 0 0 0-.17.166v-.669zm4.512 0v1.71h.202v-1.71zm-3.08.13v.348h-.148v.157h.149v.668c0 .154.03.26.09.32.059.057.166.086.322.086h.207v-.169h-.207c-.084 0-.14-.014-.168-.043-.027-.029-.041-.093-.041-.194v-.668h.416v-.157h-.416v-.349zm1.478.32a.463.463 0 0 0-.23.052.46.46 0 0 0-.165.167v-.19h-.203v1.23h.203v-.696c0-.119.03-.213.09-.283a.31.31 0 0 1 .247-.105c.087 0 .152.028.194.085.042.057.063.144.063.263v.736h.203v-.696c0-.12.03-.215.09-.284a.311.311 0 0 1 .249-.104c.085 0 .149.028.19.085a.445.445 0 0 1 .064.263v.736h.203v-.743c0-.166-.035-.293-.104-.382a.352.352 0 0 0-.297-.135.468.468 0 0 0-.249.065.527.527 0 0 0-.18.2.395.395 0 0 0-.14-.197.377.377 0 0 0-.228-.068z" fill="#66efff" fill-opacity="1"/><path style="line-height:120.00000477%" d="M34.1 19.824a.571.571 0 0 0-.44.178c-.11.117-.163.276-.163.478 0 .195.057.35.171.464.115.114.27.171.467.171a1.117 1.117 0 0 0 .456-.094v-.19a.881.881 0 0 1-.443.113.436.436 0 0 1-.315-.108.47.47 0 0 1-.125-.32h.93v-.098a.62.62 0 0 0-.146-.434.499.499 0 0 0-.391-.16zm1.463 0a.463.463 0 0 0-.228.055.49.49 0 0 0-.17.165v-.191h-.204v1.23h.204v-.695c0-.12.03-.214.094-.284a.332.332 0 0 1 .258-.105c.091 0 .16.029.204.087.046.058.069.146.069.262v.735h.203v-.742c0-.17-.037-.298-.11-.386-.072-.088-.178-.131-.32-.131zm-1.461.17c.1 0 .18.034.24.1s.092.154.093.265l-.72.001a.404.404 0 0 1 .117-.269.379.379 0 0 1 .27-.096zm11.272 7.519a.593.593 0 0 0-.385.114.38.38 0 0 0-.14.311c0 .094.027.174.08.239.053.065.129.11.224.133a.443.443 0 0 0-.25.145.405.405 0 0 0-.092.266c0 .16.049.282.145.367.098.085.237.127.418.127s.32-.042.417-.127c.097-.085.146-.208.146-.367a.404.404 0 0 0-.09-.266.44.44 0 0 0-.25-.145.398.398 0 0 0 .221-.133.364.364 0 0 0 .08-.239.38.38 0 0 0-.14-.31.59.59 0 0 0-.384-.115zm-5.653.03v1.024c0 .214.053.374.158.484.106.109.263.164.47.164.207 0 .363-.055.468-.164.107-.11.16-.27.16-.484v-1.024h-.223v.996c0 .176-.031.302-.095.38-.064.077-.167.116-.31.116-.142 0-.245-.04-.31-.116-.063-.078-.094-.204-.094-.38v-.996zm1.447 0v.186h.582v1.453h.223V27.73h.582v-.186zm1.602 0v1.64h.223V28.4h.65v-.187h-.65v-.484h.72v-.186zm2.604.145c.095 0 .17.025.223.073a.251.251 0 0 1 .082.199c0 .085-.028.15-.082.197a.323.323 0 0 1-.223.073.326.326 0 0 1-.224-.073.252.252 0 0 1-.079-.197c0-.085.026-.152.08-.2a.326.326 0 0 1 .223-.072zm0 .716c.106 0 .19.028.25.084.06.056.091.134.091.233a.306.306 0 0 1-.092.233.351.351 0 0 1-.249.085.351.351 0 0 1-.249-.085.305.305 0 0 1-.09-.233c0-.099.03-.177.09-.233a.351.351 0 0 1 .25-.084zm-1.418.072v.18h.592v-.18z" fill="#f8bebe"/><path style="line-height:120.00000477%" d="M28.135 31.593v1.639h.456c.316 0 .55-.065.7-.198.15-.132.224-.34.224-.623 0-.281-.076-.488-.224-.62-.149-.132-.382-.198-.7-.198zm10.769.06v.35h-.149v.156h.149v.668c0 .154.03.26.09.32.059.057.166.085.322.085h.207v-.169h-.207c-.084 0-.14-.013-.168-.042-.027-.028-.041-.093-.041-.194v-.668h.416v-.157h-.416v-.349zm-10.546.121h.267c.227 0 .392.052.497.155.106.101.158.262.158.482 0 .221-.052.382-.158.485-.105.102-.27.154-.497.154h-.267zm1.976.198a.524.524 0 0 0-.415.171c-.1.115-.149.273-.149.475 0 .201.05.36.15.476.1.114.238.17.414.17a.524.524 0 0 0 .416-.17c.1-.115.15-.275.15-.476 0-.202-.05-.36-.15-.475a.524.524 0 0 0-.416-.17zm1.43 0a.599.599 0 0 0-.453.173c-.11.115-.165.272-.165.473 0 .198.054.355.164.472.109.116.256.175.441.175a.822.822 0 0 0 .368-.08V33a.668.668 0 0 1-.345.095.386.386 0 0 1-.306-.126.517.517 0 0 1-.108-.35c0-.15.035-.267.108-.35a.383.383 0 0 1 .305-.125.752.752 0 0 1 .345.095v-.188a.798.798 0 0 0-.354-.078zm2.728 0a.464.464 0 0 0-.23.054.46.46 0 0 0-.165.168v-.192h-.203v1.231h.203v-.696c0-.119.031-.213.092-.283a.307.307 0 0 1 .245-.105c.087 0 .152.028.194.085.041.057.063.144.063.263v.736h.203v-.696c0-.12.03-.215.09-.284a.311.311 0 0 1 .249-.104c.085 0 .149.028.19.085a.445.445 0 0 1 .064.263v.736h.203v-.743c0-.166-.035-.293-.104-.382a.353.353 0 0 0-.297-.136.468.468 0 0 0-.249.065.532.532 0 0 0-.18.201.395.395 0 0 0-.14-.197.377.377 0 0 0-.228-.069zm2.118 0a.568.568 0 0 0-.44.178c-.109.118-.164.278-.164.48 0 .195.057.35.171.464a.635.635 0 0 0 .468.17 1.207 1.207 0 0 0 .455-.095v-.19a1.003 1.003 0 0 1-.218.086.882.882 0 0 1-.225.029.433.433 0 0 1-.314-.11.471.471 0 0 1-.126-.319h.93v-.099c0-.183-.048-.327-.145-.433a.502.502 0 0 0-.392-.16zm1.462 0a.463.463 0 0 0-.228.055.495.495 0 0 0-.17.166v-.19h-.203v1.229h.203v-.695c0-.12.032-.215.095-.284a.33.33 0 0 1 .259-.104c.09 0 .158.027.204.085.045.058.067.146.067.263v.735h.203v-.742c0-.17-.037-.299-.11-.386-.072-.088-.178-.132-.32-.132zm-5.62.03v.745c0 .17.036.298.11.386.073.088.18.132.322.132.086 0 .161-.018.226-.054a.502.502 0 0 0 .171-.168v.189h.202v-1.23h-.202v.697c0 .12-.032.216-.096.285a.33.33 0 0 1-.259.104c-.09 0-.158-.029-.204-.087-.045-.058-.067-.146-.067-.262v-.737zm-2.118.141c.108 0 .194.044.257.13.063.085.094.199.094.345 0 .146-.03.263-.094.348a.304.304 0 0 1-.257.128.303.303 0 0 1-.257-.127.581.581 0 0 1-.093-.35c0-.146.03-.262.093-.346a.303.303 0 0 1 .257-.128zm6.278 0c.1 0 .18.033.24.1.06.065.09.154.092.264l-.72.001a.404.404 0 0 1 .117-.268.382.382 0 0 1 .271-.097z" fill="#f8f8f8" fill-opacity=".974"/></g></svg>