<svg xmlns:osb="http://www.openswatchbook.org/uri/2009/osb" xmlns="http://www.w3.org/2000/svg" xmlns:xlink="http://www.w3.org/1999/xlink" height="64" viewBox="0 0 64 64" width="64"><title>Template icons dark</title><defs><linearGradient id="g" osb:paint="solid"><stop offset="0" stop-opacity=".196"/></linearGradient><linearGradient id="f" osb:paint="solid"><stop offset="0" stop-color="#fff" stop-opacity=".302"/></linearGradient><linearGradient id="e" osb:paint="solid"><stop offset="0" stop-opacity=".013"/></linearGradient><linearGradient id="d" osb:paint="solid"><stop offset="0" stop-opacity=".031"/></linearGradient><linearGradient id="b"><stop offset="0" stop-color="#f8c6c6"/><stop offset="1" stop-color="#f8a28d"/></linearGradient><linearGradient id="a"><stop offset="0" stop-color="#fa8484"/><stop offset="1" stop-color="#f9a874"/></linearGradient><linearGradient xlink:href="#a" id="k" gradientUnits="userSpaceOnUse" gradientTransform="matrix(1.4629 0 0 1.4641 44.919 46.116)" x1="24.117" y1="4.931" x2="24.058" y2="42.556"/><linearGradient xlink:href="#c" id="l" gradientUnits="userSpaceOnUse" gradientTransform="matrix(1.4629 0 0 1.4641 44.919 46.116)" x1="26.073" y1="18.962" x2="34.374" y2="10.815"/><linearGradient xlink:href="#b" id="n" gradientUnits="userSpaceOnUse" gradientTransform="matrix(1.67188 0 0 1.4641 38.004 45.955)" x1="34.176" y1="10.276" x2="30.758" y2="13.691"/><linearGradient id="c"><stop offset="0" stop-opacity="0"/><stop offset="1" stop-opacity=".102"/></linearGradient><linearGradient xlink:href="#d" id="j" x1="126" y1="161.5" x2="194" y2="161.5" gradientUnits="userSpaceOnUse"/><linearGradient xlink:href="#g" id="m" x1="166" y1="133.472" x2="193" y2="133.472" gradientUnits="userSpaceOnUse"/><linearGradient id="h"><stop offset="0" stop-opacity="0"/><stop offset="1" stop-opacity=".083"/></linearGradient><linearGradient gradientTransform="translate(-68.031 -81.577)" xlink:href="#h" id="o" x1="127" y1="161.5" x2="148.031" y2="161.5" gradientUnits="userSpaceOnUse"/><linearGradient id="i"><stop offset="0" stop-color="#e33a2f" stop-opacity=".929"/><stop offset="1" stop-color="#d97754" stop-opacity=".984"/></linearGradient></defs><path d="M57 52h29.016L103 69v41H57z" style="isolation:auto;mix-blend-mode:normal;marker:none" color="#000" overflow="visible" fill="url(#j)" stroke-width=".852" paint-order="fill markers stroke" transform="translate(-48 -48)"/><path style="isolation:auto;mix-blend-mode:normal;marker:none" d="M58 53h28l16 16v40H58V53z" color="#000" overflow="visible" fill="url(#k)" stroke-width=".552" paint-order="fill markers stroke" transform="translate(-48 -48)"/><path d="M58 53h28l16 16v40H58z" style="isolation:auto;mix-blend-mode:normal;marker:none" color="#000" overflow="visible" fill="url(#l)" stroke-width=".552" paint-order="fill markers stroke" transform="translate(-48 -48)"/><path d="M86 53l16 16-18 2z" fill="url(#m)" fill-rule="evenodd" stroke-width="2.195" transform="translate(-48 -48)"/><path d="M86 53l16 16H86z" fill="url(#n)" fill-rule="evenodd" stroke-width="1.565" transform="translate(-48 -48)"/><path style="isolation:auto;mix-blend-mode:normal;marker:none" d="M58 53h22v56H58V53z" color="#000" overflow="visible" fill="url(#o)" stroke-width=".829" paint-order="fill markers stroke" transform="translate(-48 -48)"/><path d="M18.215 22.337h27.6l-2.76 24.84-11.04 5.52-11.04-5.52z" fill="#f9f9f9" fill-opacity=".224" fill-rule="evenodd" stroke="#fff" stroke-width=".4" stroke-opacity=".615"/><g fill="#e44d26"><path d="M22.327 27.193H41.4l-.091 1.02-.174 1.931-.076.856H26.488l.348 3.9H40.712l-.093 1.022-.894 10.024-.058.643-7.792 2.16-.018.005-7.8-2.165-.533-5.979h3.822l.271 3.037 4.24 1.145.004-.002 4.247-1.146.442-4.938H23.354l-.936-10.493-.091-1.021z" fill="#8a332a" fill-opacity=".542"/><path d="M22.327 26.35H41.4l-.091 1.02-.174 1.931-.076.856H26.488l.348 3.9H40.712l-.093 1.022-.894 10.024-.058.643-7.792 2.16-.018.005-7.8-2.165-.533-5.979h3.822l.271 3.037 4.24 1.145.004-.002 4.247-1.146.442-4.938H23.354l-.936-10.493-.091-1.022z" fill="#e8e8e8"/></g></svg>