<svg xmlns:osb="http://www.openswatchbook.org/uri/2009/osb" xmlns="http://www.w3.org/2000/svg" xmlns:xlink="http://www.w3.org/1999/xlink" height="64" viewBox="0 0 64 64" width="64"><title>Template icons dark</title><defs><linearGradient id="g" osb:paint="solid"><stop offset="0" stop-opacity=".196"/></linearGradient><linearGradient id="f" osb:paint="solid"><stop offset="0" stop-color="#fff" stop-opacity=".208"/></linearGradient><linearGradient id="e" osb:paint="solid"><stop offset="0" stop-opacity=".004"/></linearGradient><linearGradient id="d" osb:paint="solid"><stop offset="0" stop-opacity=".026"/></linearGradient><linearGradient id="b"><stop offset="0" stop-color="#bf72f7"/><stop offset="1" stop-color="#ae37d5"/></linearGradient><linearGradient id="a"><stop offset="0" stop-color="#e730f4"/><stop offset="1" stop-color="#894bed"/></linearGradient><linearGradient xlink:href="#a" id="o" gradientUnits="userSpaceOnUse" gradientTransform="matrix(1.4629 0 0 1.4641 44.919 46.116)" x1="24.117" y1="4.931" x2="24.058" y2="42.556"/><linearGradient xlink:href="#c" id="p" gradientUnits="userSpaceOnUse" gradientTransform="matrix(1.4629 0 0 1.4641 44.919 46.116)" x1="26.073" y1="18.962" x2="34.374" y2="10.815"/><linearGradient xlink:href="#b" id="y" gradientUnits="userSpaceOnUse" gradientTransform="matrix(1.67188 0 0 1.4641 38.004 45.955)" x1="34.176" y1="10.276" x2="30.758" y2="13.691"/><linearGradient id="c"><stop offset="0" stop-opacity="0"/><stop offset="1" stop-opacity=".102"/></linearGradient><linearGradient xlink:href="#d" id="n" x1="126" y1="161.5" x2="194" y2="161.5" gradientUnits="userSpaceOnUse"/><linearGradient xlink:href="#g" id="x" x1="166" y1="133.472" x2="193" y2="133.472" gradientUnits="userSpaceOnUse"/><linearGradient id="m"><stop offset="0" stop-color="#fff"/><stop offset="1" stop-color="#b5b2b5"/></linearGradient><linearGradient id="h"><stop offset="0" stop-color="#1d1f23"/><stop offset=".361" stop-color="#515359"/><stop offset="1" stop-color="#484848"/></linearGradient><linearGradient id="i"><stop offset="0" stop-color="#a5a6ad"/><stop offset="1" stop-color="#ded7de"/></linearGradient><linearGradient id="j"><stop offset="0" stop-color="#ada6ad"/><stop offset="1" stop-color="#ded7de"/></linearGradient><linearGradient id="k"><stop offset="0" stop-color="#242424"/><stop offset="1" stop-color="#3a333a"/></linearGradient><linearGradient id="l"><stop offset="0" stop-color="#211721"/><stop offset="1" stop-color="#332f39"/></linearGradient><linearGradient xlink:href="#h" id="w" gradientUnits="userSpaceOnUse" gradientTransform="matrix(.41231 0 0 .41231 55.155 50.15)" x1="14.128" y1="36.045" x2="14.128" y2="11.771"/><linearGradient xlink:href="#i" id="v" x1="64.483" y1="994.038" x2="64.483" y2="980.267" gradientUnits="userSpaceOnUse" gradientTransform="matrix(.41231 0 0 .41231 56.639 -344.126)"/><linearGradient xlink:href="#i" id="u" gradientUnits="userSpaceOnUse" gradientTransform="matrix(.41231 0 0 .41231 57.946 -344.207)" x1="64.483" y1="994.038" x2="64.483" y2="980.267"/><linearGradient xlink:href="#j" id="t" gradientUnits="userSpaceOnUse" gradientTransform="matrix(.41231 0 0 .41231 57.946 -344.207)" x1="40.574" y1="978.823" x2="40.574" y2="962.158"/><linearGradient xlink:href="#j" id="s" gradientUnits="userSpaceOnUse" gradientTransform="matrix(.41231 0 0 .41231 56.639 -344.126)" x1="40.574" y1="978.823" x2="40.574" y2="962.158"/><linearGradient xlink:href="#k" id="r" gradientUnits="userSpaceOnUse" gradientTransform="matrix(.41231 0 0 .38654 55.155 -319.345)" x1="52.891" y1="995.124" x2="52.891" y2="980.244"/><linearGradient xlink:href="#l" id="q" x1="49.087" y1="22.098" x2="49.087" y2="7.789" gradientUnits="userSpaceOnUse" gradientTransform="matrix(.41231 0 0 .41231 55.155 49.738)"/><radialGradient xlink:href="#m" id="z" cx="-3.76" cy="21.906" fx="-3.76" fy="21.906" r="3.906" gradientUnits="userSpaceOnUse" gradientTransform="matrix(.30922 -.29517 .296 .3101 55.546 51.47)"/></defs><g transform="translate(-48 -48)"><path d="M57 52h29.016L103 69v41H57z" style="isolation:auto;mix-blend-mode:normal;marker:none" color="#000" overflow="visible" fill="url(#n)" stroke-width=".852" paint-order="fill markers stroke"/><path style="isolation:auto;mix-blend-mode:normal;marker:none" d="M58 53h28l16 16v40H58V53z" color="#000" overflow="visible" fill="url(#o)" stroke-width=".552" paint-order="fill markers stroke"/><path d="M58 53h28l16 16v40H58z" style="isolation:auto;mix-blend-mode:normal;marker:none" color="#000" overflow="visible" fill="url(#p)" stroke-width=".552" paint-order="fill markers stroke"/><path d="M58 53v6.678h34.724L86.047 53z" fill="url(#q)" stroke-width=".412"/><path d="M58 59.678h34.724l6.678 6.677H58z" fill="url(#r)" stroke-width=".412"/><path d="M58.61 53.434l.058 12.921 6.282.039-.045-6.725z" fill-opacity=".995" stroke-width=".412"/><path d="M65.346 53l6.677 6.678h6.678L72.023 53z" fill="url(#s)" stroke-width=".412"/><path d="M79.369 53l6.678 6.678h6.505L85.989 53z" fill="url(#t)" stroke-width=".412"/><path d="M86.047 59.678l-6.678 6.677h6.678l6.677-6.677z" fill="url(#u)" stroke-width=".412"/><path d="M72.023 59.678l-6.677 6.677h6.677l6.678-6.677z" fill="url(#v)" stroke-width=".412"/><path d="M57.942 53.434L58 66.355l6.282.039-.044-6.725z" fill="url(#w)" stroke-width=".412"/><path d="M86 53l16 16-18 2z" fill="url(#x)" fill-rule="evenodd" stroke-width="2.195"/><path d="M86 53l16 16H86z" fill="url(#y)" fill-rule="evenodd" stroke-width="1.565"/><circle cx="60.915" cy="60.517" r="1.675" fill-opacity=".245" stroke-width=".429"/><circle cx="60.915" cy="60.031" r="1.675" fill="url(#z)" stroke-width=".429"/><path style="isolation:auto;mix-blend-mode:normal;marker:none" color="#000" display="block" overflow="visible" fill-opacity=".224" stroke-width=".474" stroke-dasharray="2.84585595,2.84585595" stroke-opacity=".667" paint-order="fill markers stroke" d="M58 66.355h28.047v1.348H58z"/><path style="isolation:auto;mix-blend-mode:normal;marker:none" color="#000" display="block" overflow="visible" fill-opacity=".224" stroke-width=".337" stroke-dasharray="2.01987344,2.01987344" stroke-opacity=".667" paint-order="fill markers stroke" d="M58 66.355h28.047v.679H58z"/></g></svg>