<svg xmlns:osb="http://www.openswatchbook.org/uri/2009/osb" xmlns="http://www.w3.org/2000/svg" xmlns:xlink="http://www.w3.org/1999/xlink" height="32" viewBox="0 0 32 32" width="32"><title>Template icons dark</title><defs><linearGradient xlink:href="#a" id="e" gradientUnits="userSpaceOnUse" x1="9.586" y1="4.485" x2="37.77" y2="43.886" gradientTransform="matrix(.66667 0 0 .66667 -31.833 -32)"/><linearGradient id="a"><stop offset="0" stop-color="#e1e3e7"/><stop offset=".21" stop-color="#dee1e4"/><stop offset=".38" stop-color="#f1f2f3"/><stop offset=".67" stop-color="#c2c6cd"/><stop offset="1" stop-color="#d7dadf"/></linearGradient><linearGradient id="b"><stop offset="0" stop-color="#eeda60"/><stop offset="1" stop-color="#db9918"/></linearGradient><linearGradient gradientTransform="translate(-3 444)" xlink:href="#c" id="d" x1="3" y1="-436.5" x2="15" y2="-436.5" gradientUnits="userSpaceOnUse"/><linearGradient id="c" osb:paint="solid"><stop offset="0"/></linearGradient></defs><path style="marker:none" d="M-28-31v30h7l1-4h8l1.094 4H-4v-30z" opacity=".05" fill="url(#d)" stroke-width=".13" stroke-linecap="round" stroke-linejoin="round" stroke-opacity=".964" transform="translate(32 32)"/><path d="M5 2v28h6l1-3h8l1.094 3H27V2z" fill="#8b93a1" stroke-width="2.861" stroke-opacity=".24"/><path d="M-26-29v26h4l1-3h10l1 3h4v-26z" fill="url(#e)" stroke-width=".667" stroke-opacity=".24" transform="translate(32 32)"/><path d="M7.5 4a.499.499 0 1 0 0 1 .499.499 0 1 0 0-1zm17 0a.499.499 0 1 0 0 1 .499.499 0 1 0 0-1zM7.518 15a.516.516 0 1 0 0 1.035.516.516 0 1 0 0-1.035zM24.5 15a.499.499 0 1 0 0 1 .499.499 0 1 0 0-1zm-17 11a.499.499 0 1 0 0 1 .499.499 0 1 0 0-1zm16.984 0a.499.499 0 1 0 0 1 .499.499 0 1 0 0-1z" fill="#454545" stroke-width=".667" stroke-opacity=".643"/><path d="M11 26l-.637 2h11.302L21 26z" fill="#6c7587" fill-rule="evenodd" stroke-width=".667"/><path style="isolation:auto;mix-blend-mode:normal;marker:none" d="M11 26h10l.33 1H10.646z" color="#000" display="block" overflow="visible" fill-opacity=".33" stroke-width=".114" stroke-linecap="round" stroke-linejoin="round" stroke-opacity=".964"/><path style="isolation:auto;mix-blend-mode:normal;marker:none" d="M10 7h12v15H10z" color="#000" display="block" overflow="visible" fill-opacity=".068" stroke-width=".17" stroke-linecap="round" stroke-linejoin="round" stroke-opacity=".964"/><path style="isolation:auto;mix-blend-mode:normal;marker:none" d="M10 22h12v.969L10 23z" color="#000" overflow="visible" fill="#fff" fill-opacity=".5" stroke-width=".312" stroke-linecap="square" stroke-dasharray=".62479068,.62479068" stroke-dashoffset="9.739" paint-order="markers stroke fill"/><path style="isolation:auto;mix-blend-mode:normal;marker:none" color="#000" display="block" overflow="visible" fill="#dbb518" stroke-width=".227" stroke-linecap="round" stroke-linejoin="round" stroke-opacity=".964" d="M12 26h8v2h-8z"/><path style="isolation:auto;mix-blend-mode:normal;marker:none" color="#000" display="block" overflow="visible" fill-opacity=".286" stroke-width=".342" stroke-linecap="square" stroke-dasharray=".68442389,.68442389" stroke-dashoffset="9.739" paint-order="markers stroke fill" d="M10 7h12v1H10z"/></svg>