<svg xmlns="http://www.w3.org/2000/svg" height="24" width="24" enable-background="new"><title>Moka Symbolic Icon Theme</title><defs><filter color-interpolation-filters="sRGB" id="a"><feBlend in2="BackgroundImage" mode="darken"/></filter></defs><path style="text-indent:0;text-align:start;line-height:normal;text-transform:none;block-progression:tb;marker:none;-inkscape-font-specification:Sans" d="M16.469 6.488l-11 11 1.062 1.063 11-11-1.062-1.063z" font-weight="400" opacity=".35" color="#000" stroke-width="1.5" overflow="visible" enable-background="accumulate" font-family="Sans"/><path style="marker:none" d="M10.469 7.004l-2.969 3H5v6h2.5l.719.719L11 13.94V7.004h-.531zm3.531 1v2c.138.179.262.364.375.562l1.563-1.562a4.26 4.26 0 0 0-.938-1h-1zm-2 2v2.937l1.719-1.718a3.716 3.716 0 0 0-.719-1.22h-1zm4.594.469l-1.656 1.656c.046.278.062.564.062.875 0 1.24-.393 2.22-1 3v2h1c1.223-.995 2-2.874 2-5 0-.917-.158-1.77-.406-2.531zM14 13.066l-2 2v.938h1c.66-.822.989-1.715 1-2.938zm-3 3l-1.719 1.719 1.25 1.25.469-.031v-2.938z" opacity=".35" color="#fff" overflow="visible"/><path d="M16.469 5.488l-11 11 1.062 1.063 11-11-1.062-1.063z" style="text-indent:0;text-align:start;line-height:normal;text-transform:none;block-progression:tb;marker:none;-inkscape-font-specification:Sans" font-weight="400" color="#000" fill="#fff" stroke-width="1.5" overflow="visible" enable-background="accumulate" font-family="Sans"/><path d="M10.469 6.004l-2.969 3H5v6h2.5l.719.719L11 12.94V6.004h-.531zm3.531 1v2c.138.179.262.364.375.562l1.563-1.562a4.26 4.26 0 0 0-.938-1h-1zm-2 2v2.937l1.719-1.718A3.716 3.716 0 0 0 13 9.003h-1zm4.594.469l-1.656 1.656c.046.278.062.564.062.875 0 1.24-.393 2.22-1 3v2h1c1.223-.995 2-2.874 2-5 0-.917-.158-1.77-.406-2.531zM14 12.066l-2 2v.938h1c.66-.822.989-1.715 1-2.938zm-3 3l-1.719 1.719 1.25 1.25.469-.031v-2.938z" style="marker:none" color="#fff" fill="#fff" overflow="visible"/></svg>