<svg xmlns="http://www.w3.org/2000/svg" width="24" height="24" enable-background="new"><title>Moka Symbolic Icon Theme</title><defs><filter id="a" color-interpolation-filters="sRGB"><feBlend mode="darken" in2="BackgroundImage"/></filter></defs><path d="M5 10h2.484l2.97-3 .546.016v12h-.475L7.485 16H5z" style="marker:none" color="#fff" overflow="visible" opacity=".35"/><path d="M14 13c0-1.257-.312-2.216-1-3h-1v6h1c.672-.837 1-1.742 1-3z" style="text-indent:0;text-align:start;line-height:normal;text-transform:none;block-progression:tb;marker:none;-inkscape-font-specification:Sans" font-weight="400" color="#000" stroke-width="2.328" overflow="visible" enable-background="accumulate" font-family="Sans" opacity=".35"/><path style="marker:none" d="M5 9h2.484l2.97-3 .546.016v12h-.475L7.485 15H5z" color="#fff" fill="#fff" overflow="visible"/><path style="marker:none" d="M20 12c0-2.814-1-5.172-2.586-7H16v1.48C17.265 8 18 9.7 18 12c0 2.3-.78 4-2 5.52V19h1.381C18.847 17.36 20 14.814 20 12z" opacity=".35" color="#000" fill="#fff" overflow="visible" enable-background="accumulate"/><path style="marker:none" d="M17 12c0-2.166-.739-4.02-2-5h-1v2c.607.789 1 1.76 1 3 0 1.241-.393 2.22-1 3v2h1c1.223-.995 2-2.873 2-5z" opacity=".35" color="#000" fill="#fff" overflow="visible" enable-background="accumulate"/><path style="text-indent:0;text-align:start;line-height:normal;text-transform:none;block-progression:tb;marker:none;-inkscape-font-specification:Sans" d="M14 12c0-1.257-.312-2.216-1-3h-1v6h1c.672-.837 1-1.742 1-3z" font-weight="400" color="#000" fill="#fff" stroke-width="2.328" overflow="visible" enable-background="accumulate" font-family="Sans"/></svg>