<svg xmlns="http://www.w3.org/2000/svg" height="24" width="24" enable-background="new"><title>Moka Symbolic Icon Theme</title><defs><filter color-interpolation-filters="sRGB" id="a"><feBlend in2="BackgroundImage" mode="darken"/></filter></defs><g color="#fff"><path style="marker:none" d="M16 6.004v1.469c1.265 1.519 2 3.23 2 5.53 0 2.3-.78 4.013-2 5.532v1.469h1.375c1.466-1.64 2.625-4.186 2.625-7s-1.008-5.172-2.594-7H16zm-5.531 1l-3 3H5v6h2.469l3.062 3H11v-12h-.531zm3.531 1v2c.607.789 1 1.759 1 3 0 1.24-.393 2.22-1 3v2h1c1.223-.995 2-2.874 2-5 0-2.167-.739-4.02-2-5h-1zm-2 2v6h1c.672-.837 1-1.743 1-3 0-1.258-.312-2.216-1-3h-1z" opacity=".35" overflow="visible"/><path d="M16 5.004v1.469c1.265 1.519 2 3.23 2 5.53 0 2.3-.78 4.013-2 5.532v1.469h1.375c1.466-1.64 2.625-4.186 2.625-7s-1.008-5.172-2.594-7H16zm-5.531 1l-3 3H5v6h2.469l3.062 3H11v-12h-.531zm3.531 1v2c.607.789 1 1.759 1 3 0 1.24-.393 2.22-1 3v2h1c1.223-.995 2-2.874 2-5 0-2.167-.739-4.02-2-5h-1zm-2 2v6h1c.672-.837 1-1.743 1-3 0-1.258-.312-2.216-1-3h-1z" style="marker:none" fill="#fff" overflow="visible"/></g></svg>