<svg width="64" xmlns="http://www.w3.org/2000/svg" height="64" xmlns:xlink="http://www.w3.org/1999/xlink"><defs><linearGradient xlink:href="#a" id="d" y1="44" y2="7" x2="0" gradientUnits="userSpaceOnUse" gradientTransform="matrix(-1.4054 0 0 1.4054 804.695 154.096)"/><linearGradient id="a"><stop stop-color="#197cf1"/><stop offset="1" stop-color="#20bcfa"/></linearGradient><linearGradient id="b"><stop stop-color="#7cbaf8"/><stop offset="1" stop-color="#f4fcff"/></linearGradient><linearGradient id="f" xlink:href="#b" y1="30" y2="2" gradientUnits="userSpaceOnUse" x2="0" gradientTransform="matrix(2 0 0 2 735.857 152.934)"/><linearGradient id="c"><stop stop-color="#292c2f"/><stop offset="1" stop-opacity="0"/></linearGradient><linearGradient id="e" xlink:href="#c" y1="9" y2="23" x1="9" gradientUnits="userSpaceOnUse" x2="23" gradientTransform="matrix(2 0 0 2 -1 -5)"/></defs><path d="M794.857 163.934v37.946H769.56l-14.054 14.054V201.88h-12.649v-37.946z" fill="url(#d)" fill-rule="evenodd" transform="translate(-736.857 -157.934)"/><path d="M33 13l-4 4 4 4-4 16 6.945 6.945H58V38L33 13z" fill="url(#e)" opacity=".2" fill-rule="evenodd"/><path d="M765.857 170.934v4h4v-4zm0 8v16h4v-16z" fill="url(#f)" transform="translate(-736.857 -157.934)"/><path d="M6 42.945v1h12.648v-1H6zm26.703 0L18.648 57v1l14.055-14.055H58v-1H32.703z" fill="#0c69cf" fill-rule="evenodd"/></svg>