<svg xmlns="http://www.w3.org/2000/svg" xmlns:xlink="http://www.w3.org/1999/xlink" width="64" height="64"><defs><linearGradient xlink:href="#a" id="d" y1="44" y2="7" x2="0" gradientUnits="userSpaceOnUse" gradientTransform="matrix(-1.4054 0 0 1.4054 804.695 154.096)"/><linearGradient id="f" xlink:href="#b" y1="30" y2="2" gradientUnits="userSpaceOnUse" x2="0" gradientTransform="matrix(2.03564 0 0 -2.03564 736.287 209.437)"/><linearGradient id="b"><stop offset="0" stop-color="#fff"/><stop offset="1" stop-color="#f3f3f3"/></linearGradient><linearGradient id="a"><stop offset="0" stop-color="#f96a0f"/><stop offset="1" stop-color="#ffc35a"/></linearGradient><linearGradient xlink:href="#c" id="e" y1="13" x1="17" y2="41" x2="45" gradientUnits="userSpaceOnUse" gradientTransform="translate(736.857 155.934)"/><linearGradient id="c"><stop stop-color="#292c2f"/><stop offset="1" stop-opacity="0"/></linearGradient></defs><path d="M794.857 163.934v37.946H769.56l-14.054 14.054V201.88h-12.649v-37.946z" fill="url(#d)" fill-rule="evenodd" transform="translate(-736.857 -157.934)"/><path d="M6 42.945v1h12.648v-1zm26.703 0L18.648 57v1l14.055-14.055H58v-1z" fill="#e59305" fill-rule="evenodd"/><path d="M768.857 168.934v2l12 20.785.701 1.215h-25.7l10.323 10.324 3.38-3.38h25.296v-4.944z" opacity=".2" fill="url(#e)" fill-rule="evenodd" transform="translate(-736.857 -157.934)"/><path d="M32 8.523L16.808 36.258h1.316l.01-.016v.016h27.734v-.016l.01.016h1.316zm0 2.4l13.244 24.18H18.756z" opacity=".811" fill="#f9fdfd" stroke-width=".833" stroke-opacity=".747"/><path d="M768.857 168.725l-13.38 24.427h1.158l.008-.014v.014h24.428v-.014l.008.014h1.159zm0 2.113l11.665 21.296h-23.33zm-1.018 5.011v10.179h2.036v-10.179zm0 12.214v2.036h2.036v-2.036z" opacity=".75" fill="url(#f)" stroke="#fff" stroke-width="1.018" stroke-opacity="0" transform="translate(-736.857 -157.934)"/></svg>