<svg width="64" xmlns="http://www.w3.org/2000/svg" height="64" xmlns:xlink="http://www.w3.org/1999/xlink"><defs><linearGradient xlink:href="#a" id="d" y1="44" y2="7" x2="0" gradientUnits="userSpaceOnUse" gradientTransform="matrix(-1.4054 0 0 1.4054 804.695 154.096)"/><linearGradient id="b"><stop stop-color="#292c2f"/><stop offset="1" stop-opacity="0"/></linearGradient><linearGradient id="e" xlink:href="#b" y1="9" y2="23" x1="9" gradientUnits="userSpaceOnUse" x2="23" gradientTransform="matrix(2 0 0 2 -1 -5)"/><linearGradient id="c"><stop stop-color="#b985ce"/><stop offset="1" stop-color="#e2cdeb"/></linearGradient><linearGradient id="a"><stop stop-color="#8e44ad"/><stop offset="1" stop-color="#9b59b6"/></linearGradient><linearGradient xlink:href="#c" id="f" y1="38" y2="13" x2="0" gradientUnits="userSpaceOnUse"/></defs><path d="M794.857 163.934v37.946H769.56l-14.054 14.054V201.88h-12.649v-37.946z" fill="url(#d)" fill-rule="evenodd" transform="translate(-736.857 -157.934)"/><path d="M36 14.93l-7 1.535L24 20l6 6-1 3 4 4-4 4 6.945 6.945H58V36.93z" fill="url(#e)" opacity=".2" fill-rule="evenodd"/><path d="M6 42.945v1h12.648v-1H6zm26.703 0L18.648 57v1l14.055-14.055H58v-1H32.703z" fill="#713e88" fill-rule="evenodd"/><path d="M31 13c-1.944 0-3.76.682-5.04 1.96C24.683 16.24 24 18.057 24 20h4c0-1.056.318-1.74.79-2.21.47-.472 1.154-.79 2.21-.79s1.74.318 2.21.79c.472.47.79 1.154.79 2.21 0 .917-.18 1.307-.422 1.652-.241.346-.636.672-1.224 1.084-.589.412-1.37.887-2.092 1.729C29.54 25.307 29 26.583 29 28v1h4v-1c0-.583.083-.682.299-.934.215-.251.686-.59 1.347-1.052.662-.463 1.517-1.075 2.213-2.073C37.556 22.943 38 21.583 38 20c0-1.944-.682-3.76-1.96-5.04C34.76 13.683 32.943 13 31 13zm-2 20v4h4v-4h-4z" fill="url(#f)" stroke-linecap="round" stroke-linejoin="round" stroke-width="2"/></svg>