<svg height="64" width="64" xmlns="http://www.w3.org/2000/svg"><linearGradient id="a" gradientTransform="matrix(-1.4054 0 0 1.4054 804.695 154.096)" gradientUnits="userSpaceOnUse" x2="0" y1="44" y2="7"><stop offset="0" stop-color="#42a603"/><stop offset="1" stop-color="#78da06"/></linearGradient><linearGradient id="b" gradientUnits="userSpaceOnUse" x1="753.857" x2="781.857" y1="171.934" y2="199.934"><stop offset="0" stop-color="#292c2f"/><stop offset="1" stop-opacity="0"/></linearGradient><linearGradient id="c" gradientTransform="translate(0 -5)" gradientUnits="userSpaceOnUse" x2="0" y1="199.934" y2="175.934"><stop offset="0" stop-color="#bcfd93"/><stop offset="1" stop-color="#fafff5"/></linearGradient><g fill-rule="evenodd"><path d="M794.857 163.934v37.946H769.56l-14.054 14.054V201.88h-12.649v-37.946z" fill="url(#a)" transform="translate(-736.857 -157.934)"/><path d="M6 42.945v1h12.648v-1zm26.703 0L18.648 57v1l14.055-14.055H58v-1z" fill="#368902"/><path d="M779.857 170.934l-8 14-7 8-7-3 8 8 12 13h17v-27z" fill="url(#b)" opacity=".2" transform="translate(-736.857 -157.934)"/><path d="M779.02 170.387l-14.43 22.127-6.153-4.395-1.162 1.629 7.85 5.606 15.57-23.874z" fill="url(#c)" stroke-width="2" transform="translate(-736.857 -157.934)"/></g></svg>