<svg xmlns="http://www.w3.org/2000/svg" xmlns:xlink="http://www.w3.org/1999/xlink" width="64" height="64"><defs><linearGradient xlink:href="#a" id="c" y1="44" y2="7" x2="0" gradientUnits="userSpaceOnUse" gradientTransform="matrix(-1.4054 0 0 1.4054 804.695 154.096)"/><linearGradient id="a"><stop offset="0" stop-color="#f96a0f"/><stop offset="1" stop-color="#ffc35a"/></linearGradient><linearGradient xlink:href="#b" id="d" y1="24" x1="20" y2="48" x2="44" gradientUnits="userSpaceOnUse" gradientTransform="translate(737.768 145.597)"/><linearGradient id="b"><stop/><stop offset="1" stop-opacity="0"/></linearGradient></defs><path d="M794.857 163.934v37.946H769.56l-14.054 14.054V201.88h-12.649v-37.946z" fill="url(#c)" fill-rule="evenodd" transform="translate(-736.857 -157.934)"/><path d="M6 42.945v1h12.648v-1zm26.703 0L18.648 57v1l14.055-14.055H58v-1z" fill="#e59305" fill-rule="evenodd"/><path d="M769.768 170.597l-4 2-1 2-1 2v5h-4v14l9 9h32v-8l-27-24z" opacity=".2" fill="url(#d)" fill-rule="evenodd" transform="translate(-736.857 -157.934)"/><path d="M32.911 12.664c-3.324 0-6 2.676-6 6v5h-4v14h20v-14h-4v-5c0-3.324-2.676-6-6-6zm0 1c2.77 0 5 2.23 5 5v5h-10v-5c0-2.77 2.23-5 5-5zm-9 11h18v12h-18z" opacity=".824" fill="#fff" fill-opacity=".979" stroke="#fff"/></svg>