<svg width="64" xmlns="http://www.w3.org/2000/svg" height="64" xmlns:xlink="http://www.w3.org/1999/xlink"><defs><linearGradient id="b"><stop stop-color="#ed868d"/><stop offset="1" stop-color="#fbe6e8"/></linearGradient><linearGradient id="c"><stop stop-color="#c61423"/><stop offset="1" stop-color="#dc2b41"/></linearGradient><linearGradient xlink:href="#a" id="e" y1="20" x1="20" y2="44" x2="44" gradientUnits="userSpaceOnUse" gradientTransform="translate(0 -7)"/><linearGradient id="a"><stop stop-color="#020303"/><stop offset="1" stop-color="#424649" stop-opacity="0"/></linearGradient><linearGradient xlink:href="#b" id="f" y1="201.934" y2="177.934" x2="0" gradientUnits="userSpaceOnUse" gradientTransform="translate(0 -7)"/><linearGradient xlink:href="#c" id="d" y1="44" y2="7" x2="0" gradientUnits="userSpaceOnUse" gradientTransform="matrix(-1.4054 0 0 1.4054 804.695 154.096)"/></defs><path d="M794.857 163.934v37.946H769.56l-14.054 14.054V201.88h-12.649v-37.946z" fill="url(#d)" fill-rule="evenodd" transform="translate(-736.857 -157.934)"/><path d="M44 14.414L21.531 37.031l9.043 9.043 2.13-2.129h17a26 26 0 0 0 8.08-15.748L44 14.414z" fill="url(#e)" opacity=".2" fill-rule="evenodd"/><path d="M779.443 170.934l1.414 1.414-10.586 10.586 10.586 10.586-1.414 1.414-10.586-10.586-10.586 10.586-1.414-1.414 10.586-10.586-10.586-10.586 1.414-1.414 10.586 10.586 10.586-10.586z" fill="url(#f)" transform="translate(-736.857 -157.934)"/><path d="M6 42.945v1h12.648v-1H6zm26.703 0L18.648 57v1l14.055-14.055H58v-1H32.703z" fill="#aa111e" fill-rule="evenodd"/></svg>