<svg width="64" xmlns="http://www.w3.org/2000/svg" height="64" xmlns:xlink="http://www.w3.org/1999/xlink"><defs><linearGradient id="a"><stop stop-color="#292c2f"/><stop offset="1" stop-opacity="0"/></linearGradient><linearGradient id="e" xlink:href="#a" y1="9" y2="23" x1="9" gradientUnits="userSpaceOnUse" x2="23" gradientTransform="matrix(2 0 0 2 735.857 158.934)"/><linearGradient id="b"><stop stop-color="#ed868d"/><stop offset="1" stop-color="#fbe6e8"/></linearGradient><linearGradient id="c"><stop stop-color="#c61423"/><stop offset="1" stop-color="#dc2b41"/></linearGradient><linearGradient id="f" xlink:href="#b" y1="201.934" y2="177.934" gradientUnits="userSpaceOnUse" x2="0" gradientTransform="translate(0 -3)"/><linearGradient xlink:href="#c" id="d" y1="58" y2="6" x2="0" gradientUnits="userSpaceOnUse"/></defs><path d="M32 6c-6.333 3.354-12.667 4.725-19 6v25c0 7 10.263 16.561 19 20.998C40.737 53.561 51 44 51 37V12c-6.333-1.275-12.667-2.646-19-6z" fill="url(#d)" stroke-linecap="square" stroke-width="2"/><path d="M779.623 175.168l-8.766 9.766-2 2-10 10-1.352 1.117 17.04 17.883h20.312v-25.531z" fill="url(#e)" opacity=".2" fill-rule="evenodd" transform="translate(-736.857 -157.934)"/><path d="M779.443 174.934l1.414 1.414-10.586 10.586 10.586 10.586-1.414 1.414-10.586-10.586-10.586 10.586-1.414-1.414 10.586-10.586-10.586-10.586 1.414-1.414 10.586 10.586 10.586-10.586z" fill="url(#f)" transform="translate(-736.857 -157.934)"/><path d="M13 35v2c0 7 10.263 16.561 19 20.998C40.737 53.561 51 44 51 37v-2c0 7-10.263 16.561-19 20.998C23.263 51.561 13 42 13 35z" fill="#aa111e" stroke-linecap="square" stroke-width="2"/></svg>