<svg width="64" xmlns="http://www.w3.org/2000/svg" height="64" xmlns:xlink="http://www.w3.org/1999/xlink"><defs><linearGradient id="a"><stop stop-color="#292c2f"/><stop offset="1" stop-opacity="0"/></linearGradient><linearGradient id="e" xlink:href="#a" y1="9" y2="23" x1="9" gradientUnits="userSpaceOnUse" x2="23" gradientTransform="matrix(2 0 0 2 735.857 158.934)"/><linearGradient xlink:href="#b" id="d" y1="6" x1="32" y2="57" x2="31" gradientUnits="userSpaceOnUse"/><linearGradient id="c"><stop stop-color="#bcfd93"/><stop offset="1" stop-color="#fafff5"/></linearGradient><linearGradient id="b"><stop stop-color="#42a603"/><stop offset="1" stop-color="#78da06"/></linearGradient><linearGradient xlink:href="#c" id="f" y1="199.934" y2="175.934" x2="0" gradientUnits="userSpaceOnUse"/></defs><path d="M32 6c-6.333 3.354-12.667 4.725-19 6v25c0 7 10.263 16.561 19 20.998C40.737 53.561 51 44 51 37V12c-6.333-1.275-12.667-2.646-19-6z" fill="url(#d)" stroke-linecap="square" stroke-width="2"/><path d="M779.857 175.934l-8 14-7 8-7-3 8 8 12 13h17v-27z" fill="url(#e)" opacity=".2" fill-rule="evenodd" transform="translate(-736.857 -157.934)"/><path d="M779.02 175.387l-14.43 22.127-6.153-4.395-1.162 1.629 7.85 5.606 15.57-23.874-1.675-1.093z" fill="url(#f)" color="#000" fill-rule="evenodd" stroke-width="2" transform="translate(-736.857 -157.934)"/><path d="M13 35v2c0 7 10.263 16.561 19 20.998C40.737 53.561 51 44 51 37v-2c0 7-10.263 16.561-19 20.998C23.263 51.561 13 42 13 35z" fill="#368902" stroke-linecap="square" stroke-width="2"/></svg>