<svg xmlns="http://www.w3.org/2000/svg" height="64" width="64" version="1"><path d="M4 56v2c0 1.662 1.338 3 3 3h50c1.662 0 3-1.338 3-3v-2c0 1.662-1.338 3-3 3H7c-1.662 0-3-1.338-3-3z" opacity=".2"/><rect transform="matrix(0 -1 -1 0 0 0)" rx="3" ry="3" height="56" width="56" y="-60" x="-60" fill="#c2352a"/><path d="M7 4C5.338 4 4 5.338 4 7v1c0-1.662 1.338-3 3-3h50c1.662 0 3 1.338 3 3V7c0-1.662-1.338-3-3-3H7z" opacity=".1" fill="#fff"/><path d="M28 15v26h6V15zm0 32.001v6h6v-6z" opacity=".2"/><path d="M28 14v26h6V14zm0 32.001v6h6v-6z" fill="#fff"/></svg>