<svg xmlns:osb="http://www.openswatchbook.org/uri/2009/osb" xmlns="http://www.w3.org/2000/svg" xmlns:xlink="http://www.w3.org/1999/xlink" height="16" viewBox="0 0 16 16" width="16"><title>Template icons dark</title><defs><linearGradient id="a" osb:paint="solid"><stop offset="0"/></linearGradient><linearGradient xlink:href="#a" id="c" x1="3" y1="-436.5" x2="15" y2="-436.5" gradientUnits="userSpaceOnUse"/><linearGradient xlink:href="#a" id="b" gradientUnits="userSpaceOnUse" gradientTransform="matrix(.66667 0 0 .66667 34.848 62)" x1="-153.424" y1="-84" x2="-129.424" y2="-84"/></defs><g color="#000"><path style="isolation:auto;mix-blend-mode:normal;marker:none" d="M3-444v15h2l1-1h6l1 1h2v-15zm1 1h10v13H4z" display="block" overflow="visible" opacity=".64" fill="url(#b)" stroke-width=".137" paint-order="fill markers stroke" transform="translate(-1 445)"/><path style="isolation:auto;mix-blend-mode:normal;marker:none" d="M6-441h6v7H6z" display="block" overflow="visible" opacity=".3" fill="url(#c)" stroke-width=".13" stroke-linecap="round" stroke-linejoin="round" stroke-opacity=".964" transform="translate(-1 445)"/><path style="isolation:auto;mix-blend-mode:normal;marker:none" display="block" overflow="visible" opacity=".64" fill="url(#b)" stroke-width=".137" paint-order="fill markers stroke" d="M6-431h6v1H6zM4-433h1v1H4zM13-433h1v1h-1zM13-442h1v1h-1zM4-442h1v1H4zM4-438h1v1H4zM13-438h1v1h-1z" transform="translate(-1 445)"/></g></svg>