<svg xmlns:osb="http://www.openswatchbook.org/uri/2009/osb" xmlns="http://www.w3.org/2000/svg" xmlns:xlink="http://www.w3.org/1999/xlink" height="32" viewBox="0 0 32 32" width="32"><title>Template icons dark</title><defs><linearGradient id="f" osb:paint="solid"><stop offset="0"/></linearGradient><linearGradient id="c" osb:paint="solid"><stop offset="0" stop-opacity=".018"/></linearGradient><linearGradient id="e"><stop offset="0" stop-opacity=".128"/><stop offset="1" stop-opacity=".392"/></linearGradient><linearGradient id="a"><stop offset="0" stop-color="#66a3e2"/><stop offset="1" stop-color="#69a5e3"/></linearGradient><linearGradient id="b" osb:paint="solid"><stop offset="0" stop-color="#525e7d"/></linearGradient><linearGradient id="d"><stop offset="0" stop-opacity="0"/><stop offset=".25" stop-opacity=".091"/><stop offset="1" stop-opacity="0"/></linearGradient><linearGradient id="j" osb:paint="solid"><stop offset="0" stop-color="#4b78a7"/></linearGradient><linearGradient id="g"><stop offset="0" stop-color="#404552" stop-opacity="0"/><stop offset="1" stop-color="#404552" stop-opacity=".839"/></linearGradient><linearGradient id="h"><stop offset="0" stop-color="#404552" stop-opacity=".036"/><stop offset="1" stop-color="#404552" stop-opacity=".979"/></linearGradient><linearGradient id="i"><stop offset="0" stop-color="#828282"/><stop offset=".253" stop-color="#fff"/><stop offset=".522" stop-color="#717171"/><stop offset=".785" stop-color="#717171"/><stop offset="1" stop-color="#4c4c4c"/></linearGradient><linearGradient xlink:href="#c" id="k" gradientUnits="userSpaceOnUse" gradientTransform="translate(256)" x1="-30" y1="-16" x2="-2" y2="-16"/><linearGradient xlink:href="#b" id="l" gradientUnits="userSpaceOnUse" gradientTransform="matrix(1.01967 0 0 1.03029 66.062 -221.797)" x1="64.666" y1="133.777" x2="88.203" y2="133.777"/><linearGradient xlink:href="#c" id="m" gradientUnits="userSpaceOnUse" gradientTransform="translate(256)" x1="-30" y1="-16" x2="-2" y2="-16"/><linearGradient xlink:href="#a" id="n" gradientUnits="userSpaceOnUse" gradientTransform="matrix(-1 0 0 1 228.023 -3.97)" x1="-8.953" y1="2.836" x2="-8.953" y2="6.615"/><linearGradient xlink:href="#j" id="o" gradientUnits="userSpaceOnUse" gradientTransform="matrix(.66667 0 0 .66667 123.848 43)" x1="-153.424" y1="-84" x2="-129.424" y2="-84"/></defs><path style="marker:none" d="M227-29c-.537 0-1 .457-1 1v24c0 .5.5 1 1 1 6.607-.017 25.5 0 26 0s1-.499 1-1v-21c0-.5-.5-1-1-1h-12l-3-3z" fill="url(#k)" paint-order="fill markers stroke" transform="translate(-224 32)"/><path d="M228-28c-.537 0-1 .457-1 1v22c0 .5.5 1 1 1 6.607-.017 23.5 0 24 0s1-.499 1-1v-19c0-.5-.5-1-1-1h-11l-3-3z" style="marker:none" fill="url(#l)" paint-order="fill markers stroke" transform="translate(-224 32)"/><path style="line-height:normal;font-variant-ligatures:normal;font-variant-position:normal;font-variant-caps:normal;font-variant-numeric:normal;font-variant-alternates:normal;font-feature-settings:normal;text-indent:0;text-align:start;text-decoration-line:none;text-decoration-style:solid;text-decoration-color:#000;text-transform:none;text-orientation:mixed;shape-padding:0;isolation:auto;mix-blend-mode:normal;marker:none" d="M241-25l-2 2h-11c-1 0-1 1-1 2 0 0 .076-.93 1-1 3.694.018 7.17-.03 11 0l3-3z" color="#000" font-weight="400" font-family="sans-serif" white-space="normal" overflow="visible" fill="url(#m)" fill-rule="evenodd" paint-order="fill markers stroke" transform="translate(-224 32)"/><path style="marker:none" d="M252-25c.537 0 1 .457 1 1v19c0 .5-.5 1-1 1-6.607-.017-23.5 0-24 0s-1-.499-1-1v-16c0-.5.5-1 1-1h11l3-3z" fill="url(#n)" paint-order="fill markers stroke" transform="translate(-224 32)"/><path style="isolation:auto;mix-blend-mode:normal;marker:none" d="M243.654-20.36a2.838 2.838 0 0 0-2.834 2.835c0 .459.112.892.307 1.276l-3.269 1.298a2.834 2.834 0 1 0 .02 3.878l3.235 1.31a2.811 2.811 0 0 0-.293 1.246 2.838 2.838 0 0 0 2.834 2.834 2.838 2.838 0 0 0 2.834-2.834 2.838 2.838 0 0 0-2.834-2.834c-.835 0-1.585.365-2.105.942l-3.224-1.302c.204-.4.312-.84.313-1.289 0-.445-.105-.883-.306-1.28l3.244-1.325c.518.56 1.257.914 2.078.914a2.838 2.838 0 0 0 2.834-2.834 2.838 2.838 0 0 0-2.834-2.834zm0 1.338c.828 0 1.496.668 1.496 1.497 0 .828-.668 1.496-1.496 1.496a1.494 1.494 0 0 1-1.497-1.496c0-.829.668-1.497 1.497-1.497zm-7.854 4.534c.818 0 1.487.67 1.487 1.488s-.67 1.488-1.487 1.488c-.819 0-1.488-.67-1.488-1.488s.67-1.488 1.488-1.488zm7.854 4.322c.913 0 1.649.736 1.649 1.649s-.736 1.649-1.65 1.649a1.646 1.646 0 0 1-1.648-1.65c0-.912.736-1.648 1.649-1.648z" color="#000" overflow="visible" fill="url(#o)" paint-order="fill markers stroke" transform="translate(-224 32)"/></svg>