<svg xmlns:osb="http://www.openswatchbook.org/uri/2009/osb" xmlns="http://www.w3.org/2000/svg" xmlns:xlink="http://www.w3.org/1999/xlink" height="32" viewBox="0 0 32 32" width="32"><title>Template icons dark</title><defs><linearGradient id="f" osb:paint="solid"><stop offset="0"/></linearGradient><linearGradient id="c" osb:paint="solid"><stop offset="0" stop-opacity=".018"/></linearGradient><linearGradient id="e"><stop offset="0" stop-opacity=".128"/><stop offset="1" stop-opacity=".392"/></linearGradient><linearGradient id="a"><stop offset="0" stop-color="#66a3e2"/><stop offset="1" stop-color="#69a5e3"/></linearGradient><linearGradient id="b" osb:paint="solid"><stop offset="0" stop-color="#525e7d"/></linearGradient><linearGradient id="d"><stop offset="0" stop-opacity="0"/><stop offset=".25" stop-opacity=".091"/><stop offset="1" stop-opacity="0"/></linearGradient><linearGradient id="j" osb:paint="solid"><stop offset="0" stop-color="#4b78a7"/></linearGradient><linearGradient id="g"><stop offset="0" stop-color="#404552" stop-opacity="0"/><stop offset="1" stop-color="#404552" stop-opacity=".839"/></linearGradient><linearGradient id="h"><stop offset="0" stop-color="#404552" stop-opacity=".036"/><stop offset="1" stop-color="#404552" stop-opacity=".979"/></linearGradient><linearGradient id="i"><stop offset="0" stop-color="#828282"/><stop offset=".253" stop-color="#fff"/><stop offset=".522" stop-color="#717171"/><stop offset=".785" stop-color="#717171"/><stop offset="1" stop-color="#4c4c4c"/></linearGradient><linearGradient xlink:href="#c" id="k" gradientUnits="userSpaceOnUse" gradientTransform="translate(192)" x1="-30" y1="-16" x2="-2" y2="-16"/><linearGradient xlink:href="#b" id="l" gradientUnits="userSpaceOnUse" gradientTransform="matrix(1.01967 0 0 1.03029 2.062 -221.797)" x1="64.666" y1="133.777" x2="88.203" y2="133.777"/><linearGradient xlink:href="#c" id="m" gradientUnits="userSpaceOnUse" gradientTransform="translate(192)" x1="-30" y1="-16" x2="-2" y2="-16"/><linearGradient xlink:href="#a" id="n" gradientUnits="userSpaceOnUse" gradientTransform="matrix(-1 0 0 1 164.023 -3.97)" x1="-12.26" y1="2.615" x2="-12.26" y2="7.969"/><linearGradient xlink:href="#j" id="r" gradientUnits="userSpaceOnUse" gradientTransform="matrix(.66667 0 0 .66667 122.848 43)" x1="-153.424" y1="-84" x2="-129.424" y2="-84"/><linearGradient xlink:href="#j" id="o" gradientUnits="userSpaceOnUse" gradientTransform="matrix(.66667 0 0 .66667 122.848 43)" x1="-153.424" y1="-84" x2="-129.424" y2="-84"/><linearGradient xlink:href="#j" id="p" gradientUnits="userSpaceOnUse" gradientTransform="matrix(.66667 0 0 .66667 122.848 43)" x1="-153.424" y1="-84" x2="-129.424" y2="-84"/><linearGradient xlink:href="#j" id="q" gradientUnits="userSpaceOnUse" gradientTransform="matrix(.66667 0 0 .66667 122.848 43)" x1="-153.424" y1="-84" x2="-129.424" y2="-84"/></defs><path style="marker:none" d="M163-29c-.537 0-1 .457-1 1v24c0 .5.5 1 1 1 6.607-.017 25.5 0 26 0s1-.499 1-1v-21c0-.5-.5-1-1-1h-12l-3-3z" fill="url(#k)" paint-order="fill markers stroke" transform="translate(-160 32)"/><path d="M164-28c-.537 0-1 .457-1 1v22c0 .5.5 1 1 1 6.607-.017 23.5 0 24 0s1-.499 1-1v-19c0-.5-.5-1-1-1h-11l-3-3z" style="marker:none" fill="url(#l)" paint-order="fill markers stroke" transform="translate(-160 32)"/><path style="line-height:normal;font-variant-ligatures:normal;font-variant-position:normal;font-variant-caps:normal;font-variant-numeric:normal;font-variant-alternates:normal;font-feature-settings:normal;text-indent:0;text-align:start;text-decoration-line:none;text-decoration-style:solid;text-decoration-color:#000;text-transform:none;text-orientation:mixed;shape-padding:0;isolation:auto;mix-blend-mode:normal;marker:none" d="M177-25l-2 2h-11c-1 0-1 1-1 2 0 0 .076-.93 1-1 3.694.018 7.17-.03 11 0l3-3z" color="#000" font-weight="400" font-family="sans-serif" white-space="normal" overflow="visible" fill="url(#m)" fill-rule="evenodd" paint-order="fill markers stroke" transform="translate(-160 32)"/><path style="marker:none" d="M188-25c.537 0 1 .457 1 1v19c0 .5-.5 1-1 1-6.607-.017-23.5 0-24 0s-1-.499-1-1v-16c0-.5.5-1 1-1h11l3-3z" fill="url(#n)" paint-order="fill markers stroke" transform="translate(-160 32)"/><path d="M168-16v11h12v-11zm3 1h6v4h-6zm-2 0h1v1h-1zm9 0h1v1h-1zm-9 3h1v1h-1zm9 .045h1v1.01h-1zM171-10h6v4h-6zm-2 1h1v1h-1zm9 0h1v1.025h-1zm-9 2h1v1h-1zm9 0h1v1h-1z" style="isolation:auto;mix-blend-mode:normal;marker:none" color="#000" display="block" overflow="visible" fill="url(#o)" paint-order="fill markers stroke" transform="translate(-160 32)"/><path style="isolation:auto;mix-blend-mode:normal;marker:none" d="M172-21v4h3v-3h6v10h3v-11zm1 1h1v1h-1zm9 0h1v1h-1zm0 3.045h1v1.01h-1zM182-14h1v1.025h-1zm0 2h1v1h-1z" color="#000" display="block" overflow="visible" fill="url(#p)" paint-order="fill markers stroke" transform="translate(-160 32)"/><path d="M172-9h4v2h-4z" style="isolation:auto;mix-blend-mode:normal;marker:none" color="#000" overflow="visible" opacity=".4" fill="url(#q)" paint-order="fill markers stroke" transform="translate(-160 32)"/><path style="isolation:auto;mix-blend-mode:normal;marker:none" d="M172-14h4v2h-4z" color="#000" display="block" overflow="visible" opacity=".4" fill="url(#r)" paint-order="fill markers stroke" transform="translate(-160 32)"/></svg>