<svg xmlns:osb="http://www.openswatchbook.org/uri/2009/osb" xmlns="http://www.w3.org/2000/svg" xmlns:xlink="http://www.w3.org/1999/xlink" height="32" viewBox="0 0 32 32" width="32"><title>Template icons dark</title><defs><linearGradient id="f" osb:paint="solid"><stop offset="0"/></linearGradient><linearGradient id="c" osb:paint="solid"><stop offset="0" stop-opacity=".018"/></linearGradient><linearGradient id="e"><stop offset="0" stop-opacity=".128"/><stop offset="1" stop-opacity=".392"/></linearGradient><linearGradient id="a"><stop offset="0" stop-color="#66a3e2"/><stop offset="1" stop-color="#69a5e3"/></linearGradient><linearGradient id="b" osb:paint="solid"><stop offset="0" stop-color="#525e7d"/></linearGradient><linearGradient id="d"><stop offset="0" stop-opacity="0"/><stop offset=".25" stop-opacity=".091"/><stop offset="1" stop-opacity="0"/></linearGradient><linearGradient id="j" osb:paint="solid"><stop offset="0" stop-color="#4b78a7"/></linearGradient><linearGradient id="g"><stop offset="0" stop-color="#404552" stop-opacity="0"/><stop offset="1" stop-color="#404552" stop-opacity=".839"/></linearGradient><linearGradient id="h"><stop offset="0" stop-color="#404552" stop-opacity=".036"/><stop offset="1" stop-color="#404552" stop-opacity=".979"/></linearGradient><linearGradient id="i"><stop offset="0" stop-color="#828282"/><stop offset=".253" stop-color="#fff"/><stop offset=".522" stop-color="#717171"/><stop offset=".785" stop-color="#717171"/><stop offset="1" stop-color="#4c4c4c"/></linearGradient><linearGradient xlink:href="#c" id="k" gradientUnits="userSpaceOnUse" gradientTransform="translate(224)" x1="-30" y1="-16" x2="-2" y2="-16"/><linearGradient xlink:href="#b" id="l" gradientUnits="userSpaceOnUse" gradientTransform="matrix(1.01967 0 0 1.03029 34.062 -221.797)" x1="64.666" y1="133.777" x2="88.203" y2="133.777"/><linearGradient xlink:href="#c" id="m" gradientUnits="userSpaceOnUse" gradientTransform="translate(224)" x1="-30" y1="-16" x2="-2" y2="-16"/><linearGradient xlink:href="#a" id="n" gradientUnits="userSpaceOnUse" gradientTransform="matrix(-1 0 0 1 196.023 -3.97)" x1="-11.977" y1="2.71" x2="-11.977" y2="6.489"/><linearGradient xlink:href="#j" id="s" gradientUnits="userSpaceOnUse" gradientTransform="matrix(.66667 0 0 .66667 123.848 43)" x1="-153.424" y1="-84" x2="-129.424" y2="-84"/><linearGradient xlink:href="#j" id="o" gradientUnits="userSpaceOnUse" gradientTransform="matrix(.66667 0 0 .66667 123.848 43)" x1="-153.424" y1="-84" x2="-129.424" y2="-84"/><linearGradient xlink:href="#j" id="p" gradientUnits="userSpaceOnUse" gradientTransform="matrix(.66667 0 0 .66667 123.848 43)" x1="-153.424" y1="-84" x2="-129.424" y2="-84"/><linearGradient xlink:href="#j" id="q" gradientUnits="userSpaceOnUse" gradientTransform="matrix(.66667 0 0 .66667 123.848 43)" x1="-153.424" y1="-84" x2="-129.424" y2="-84"/><linearGradient xlink:href="#j" id="r" gradientUnits="userSpaceOnUse" gradientTransform="matrix(.66667 0 0 .66667 123.848 43)" x1="-153.424" y1="-84" x2="-129.424" y2="-84"/></defs><path d="M195-29c-.537 0-1 .457-1 1v24c0 .5.5 1 1 1 6.607-.017 25.5 0 26 0s1-.499 1-1v-21c0-.5-.5-1-1-1h-12l-3-3z" style="marker:none" fill="url(#k)" paint-order="fill markers stroke" transform="translate(-192 32)"/><path style="marker:none" d="M196-28c-.537 0-1 .457-1 1v22c0 .5.5 1 1 1 6.607-.017 23.5 0 24 0s1-.499 1-1v-19c0-.5-.5-1-1-1h-11l-3-3z" fill="url(#l)" paint-order="fill markers stroke" transform="translate(-192 32)"/><path d="M209-25l-2 2h-11c-1 0-1 1-1 2 0 0 .076-.93 1-1 3.694.018 7.17-.03 11 0l3-3z" style="line-height:normal;font-variant-ligatures:normal;font-variant-position:normal;font-variant-caps:normal;font-variant-numeric:normal;font-variant-alternates:normal;font-feature-settings:normal;text-indent:0;text-align:start;text-decoration-line:none;text-decoration-style:solid;text-decoration-color:#000;text-transform:none;text-orientation:mixed;shape-padding:0;isolation:auto;mix-blend-mode:normal;marker:none" color="#000" font-weight="400" font-family="sans-serif" white-space="normal" overflow="visible" fill="url(#m)" fill-rule="evenodd" paint-order="fill markers stroke" transform="translate(-192 32)"/><path d="M220-25c.537 0 1 .457 1 1v19c0 .5-.5 1-1 1-6.607-.017-23.5 0-24 0s-1-.499-1-1v-16c0-.5.5-1 1-1h11l3-3z" style="marker:none" fill="url(#n)" paint-order="fill markers stroke" transform="translate(-192 32)"/><path style="isolation:auto;mix-blend-mode:normal;marker:none" d="M208.016-17v4H209l-5.984 4v-8z" color="#000" display="block" overflow="visible" opacity=".4" fill="url(#o)" paint-order="fill markers stroke" transform="translate(-192 32)"/><path style="line-height:normal;text-indent:0;text-align:start;text-decoration-line:none;text-decoration-style:solid;text-decoration-color:#000;text-transform:none;isolation:auto;mix-blend-mode:normal;marker:none" d="M201-19v14h12v-9l-4-5zm1 1h7v4h3v8h-10z" color="#000" font-weight="400" font-family="sans-serif" white-space="normal" overflow="visible" fill="url(#p)" paint-order="fill markers stroke" transform="translate(-192 32)"/><path d="M216-7v-10l-3.5-4H205v2h1v-1h6v3h3v9h-2v1z" style="line-height:normal;text-indent:0;text-align:start;text-decoration-line:none;text-decoration-style:solid;text-decoration-color:#000;text-transform:none;isolation:auto;mix-blend-mode:normal;marker:none" color="#000" font-weight="400" font-family="sans-serif" white-space="normal" overflow="visible" fill="url(#q)" paint-order="fill markers stroke" transform="translate(-192 32)"/><path style="marker:none" d="M211-13l-8 6h8zm-.5 1v4.5l-6 .008z" fill="url(#r)" fill-rule="evenodd" paint-order="fill markers stroke" transform="translate(-192 32)"/><path style="marker:none" d="M206-8h4v-3z" opacity=".4" fill="url(#s)" fill-rule="evenodd" paint-order="fill markers stroke" transform="translate(-192 32)"/></svg>