<svg xmlns="http://www.w3.org/2000/svg" height="32" viewBox="0 0 32 32" width="32"><title>Template icons dark</title><g transform="translate(32 32)"><rect ry="1.231" rx="1.32" width="24" height="27" x="-28" y="-29" fill="#636a78" stroke-opacity=".267"/><rect y="-29.5" x="-28.5" height="28" width="25" rx="2" ry="2" fill="none" stroke="#272a2f" stroke-opacity=".784"/><path d="M-25.51-27.484c-.554 0-1 .446-1 1v3.97c0 .554.446 1 1 1h19.022c.554 0 1-.446 1-1v-3.97c0-.554-.446-1-1-1zm-.002 8.996c-.554 0-1 .446-1 1v3.97c0 .554.446 1 1 1H-6.49c.554 0 1-.446 1-1v-3.97c0-.554-.446-1-1-1zm0 9c-.554 0-1 .446-1 1v3.97c0 .554.446 1 1 1H-6.49c.554 0 1-.446 1-1v-3.97c0-.554-.446-1-1-1z" fill-opacity=".157" stroke="#484e57"/><path d="M-25-26v3h1v-3zm2 0v3h1v-3zm2 0v3h1v-3zm-4 8.994v3h1v-3zm2 0v3h1v-3zm2 0v3h1v-3zm-4 9v3h1v-3zm2 0v3h1v-3zm2 0v3h1v-3z" fill-opacity=".292" stroke-opacity=".784"/><path d="M-7.5-25a.5.5 0 0 0-.5.5.5.5 0 0 0 .5.5.5.5 0 0 0 .5-.5.5.5 0 0 0-.5-.5zm0 8.994a.5.5 0 0 0-.5.5.5.5 0 0 0 .5.5.5.5 0 0 0 .5-.5.5.5 0 0 0-.5-.5zm0 9a.5.5 0 0 0-.5.5.5.5 0 0 0 .5.5.5.5 0 0 0 .5-.5.5.5 0 0 0-.5-.5z" fill-opacity=".296" stroke-opacity=".784"/><path d="M-11.5-25a.5.5 0 0 0-.5.5.5.5 0 0 0 .5.5.5.5 0 0 0 .5-.5.5.5 0 0 0-.5-.5zm2 0a.5.5 0 0 0-.5.5.5.5 0 0 0 .5.5.5.5 0 0 0 .5-.5.5.5 0 0 0-.5-.5zm-2 8.994a.5.5 0 0 0-.5.5.5.5 0 0 0 .5.5.5.5 0 0 0 .5-.5.5.5 0 0 0-.5-.5zm2 0a.5.5 0 0 0-.5.5.5.5 0 0 0 .5.5.5.5 0 0 0 .5-.5.5.5 0 0 0-.5-.5zm-2 9a.5.5 0 0 0-.5.5.5.5 0 0 0 .5.5.5.5 0 0 0 .5-.5.5.5 0 0 0-.5-.5zm2 0a.5.5 0 0 0-.5.5.5.5 0 0 0 .5.5.5.5 0 0 0 .5-.5.5.5 0 0 0-.5-.5z" fill="#6be3e7" stroke-opacity=".784"/><path d="M-19-25v1h6v-1zm0 8.994v1h6v-1zm0 9v1h6v-1z" fill-opacity=".176" stroke-opacity=".784"/><path d="M-19-24v1h6v-1zm0 8.994v1h6v-1zm0 9v1h6v-1z" fill="#fff" fill-opacity=".115" stroke-opacity=".784"/></g></svg>