<svg xmlns="http://www.w3.org/2000/svg" xmlns:xlink="http://www.w3.org/1999/xlink" height="32" viewBox="0 0 32 32" width="32"><title>Template icons dark</title><defs><linearGradient id="a"><stop offset="0" stop-color="#4ba8dc"/><stop offset="1" stop-color="#32b69b"/></linearGradient><radialGradient xlink:href="#a" id="b" cx="15.714" cy="18.264" fx="15.714" fy="18.264" r="21.545" gradientUnits="userSpaceOnUse" gradientTransform="matrix(.90919 0 0 .88791 -35.198 -35.777)"/></defs><g transform="translate(32 32)"><path d="M-3.323-15.957c0-6.956-5.64-12.596-12.596-12.596s-12.595 5.64-12.595 12.596C-28.514-9-22.875-3.36-15.92-3.36-8.962-3.36-3.323-9-3.323-15.957" fill="url(#b)" stroke-width=".017"/><path d="M-27.597-11.286c.07.015.134.048.204.063a19.52 19.52 0 0 0 3.917.394 19.52 19.52 0 0 0 3.916-.394 19.288 19.288 0 0 0 6.95-2.924A19.526 19.526 0 0 0-5.569-22.7c.04-.096.055-.204.094-.301a12.583 12.583 0 0 0-10.444-5.553c-6.956 0-12.595 5.64-12.595 12.596 0 1.654.338 3.224.917 4.67z" fill="#90e2a3" fill-opacity=".505" stroke-width=".017"/><path d="M-16.137-28.397l-2.194.06-1.944.653 1.498.511 1.147-.237.097.38.25.652-.45.535.1 1.069.698.237.45-1.247.846-.178.948-.772-.748-1.425zm-4.92 1.735l-1.762.676-2.837 2.029-1.174 1.98-.93 1.495.05 3.574.39-.193.098-1.642.342 2.56.979.579.832.627.587.772 1.2-.142-.196.191.264.966-.633.531.212.917 1.159 1.836.684.096.58.483.421 1.883.264 1.013 1.286 2.126 1.47.409-.965-1.327-.21-.966.79-.869.632-1.546 1.001-.144.633-1.883.79-.676-.685-.869-2.424-.435-.315-1.062-1.16-.048-.738-.821-.948-.049-1.265-.386-.637.62-.868-.523-.245-.773-.83-.29.243-.82-.782.53-.391-.289.048-1.641 1.272-.58.587.097.147 1.11.587-.097.147-1.834.978-.29v-.869l1.125-.869 1.223-.049-.44-.916 1.663-.58-1.027-1.304-.636.29-.196-.918-.636.193-.93 1.835-.341-.724-.636-.58 1.418-.965s.978-.338 1.174-.338c.196 0 .587.435.587.435l.783-.58-.245-.676-.978.096zm10.565.435l-1.076.144.342 1.836.784.096.782.628v-.676l-.685-1.014 1.37.87.048 1.11-1.222.145-.538 1.014.538.917-1.272-.145.244 1.449.735.337.88-.82.147-1.062.587.144.636.628-.44.627.733.194.245-.724.391.724.489-.531.391.82.735.194-.05.917-1.076-.434-.244.29-1.322-.483-.342-.628-2.392.477-1.536 2.354.342 1.877 1.367 1.347 1.925-.31.735.821-.44 1.304.341 1.594-.977 1.352-.881 2.076 1.32-.242 2.104-1.98 1.027-1.883.686-1.931.782-.869-.636-.628-.587-3.428.685 1.304v1.69l.635-.725-.195-2.366-.49-1.352-.488-1.883-1.568-2.21-.878-1.362-1.761-.87z" fill="#207fa2" fill-opacity=".927" stroke-width=".016"/><path d="M-16.226-28.377l-2.252.05-1.997.564 1.433.204 1.177-.204.206.564.256.562-.462.461.103.921.717.204.461-1.075.87-.152.973-.666-.77-1.228zm-5.068 1.075l-1.843.716-2.968 2.15-1.229 2.098-.971 1.588.05 3.787.41-.205.103-1.74.358 2.713.103.061.92.553.871.665.614.82 1.207-.146-.185.197.257 1.023-.615.562.153.721.053.252 1.127 1.945.664.103.563.51.41 1.999.256 1.073.92 1.433 1.434.82-.614-.972-.205-1.025.768-.921.614-1.637.972-.154.614-1.996.769-.718-.666-.92-2.355-.46-.052-.192-.255-.936-1.126-.05-.716-.87-.92-.051-1.23-.41-.603.64-.88-.537-.257-.819-.87-.307.185-.63.071-.24-.553.379-.266.184-.113-.086-.296-.221.051-1.742 1.33-.614.615.104.152 1.177.614-.104.155-1.943 1.022-.308v-.922l1.179-.92 1.28-.052-.46-.973 1.74-.614-1.075-1.382-.666.307-.205-.972-.666.205-.972 1.946-.358-.77-.666-.613 1.484-1.023s1.025-.358 1.23-.358c.204 0 .613.46.613.46l.82-.615-.257-.716-1.023.102zm11.056.46l-1.127.154.36 1.945.817.102.82.666v-.716l-.716-1.075 1.433.92.051 1.178-1.279.153-.563 1.075.563.973-1.33-.154.255 1.535.766.36.923-.872.152-1.125.615.154.666.664-.461.666.388.104.38.1.256-.767.409.768.513-.564.41.871.766.204-.05.973-1.126-.46-.258.307-1.38-.512-.252-.468-.107-.198-2.047.462-1.588 2.354.101 1.007.105 1.04 1.535 1.483 1.587-.256.767.871-.46 1.382.358 1.689-1.023 1.433-.923 2.201 1.383-.255 2.202-2.099 1.075-1.996.716-2.048.818-.922-.665-.664-.613-3.635.715 1.383v1.79l.666-.767-.204-2.508-.513-1.433-.512-1.995-1.304-1.866-.336-.479-.919-1.444-1.842-.92z" fill="#f6fef6" stroke-width=".016"/><ellipse transform="matrix(.91812 -.3963 .33231 .94317 0 0)" ry="3.643" rx="14.674" cy="-25.542" cx="-9.058" style="isolation:auto;mix-blend-mode:normal;marker:none" color="#000" overflow="visible" fill="none" fill-opacity=".359" stroke="#000" stroke-width=".315" stroke-dasharray=".63053801,.31526901,.1576345,.31526901" stroke-opacity=".161" paint-order="fill markers stroke"/><ellipse style="isolation:auto;mix-blend-mode:normal;marker:none" cx="-22.043" cy="-9.572" rx="15.924" ry="3.953" transform="matrix(.91225 .40963 -.47132 .88196 0 0)" color="#000" overflow="visible" fill="none" fill-opacity=".359" stroke="#000" stroke-width=".311" stroke-dasharray=".62184804,.31092402,.15546201,.31092402" stroke-opacity=".161" paint-order="fill markers stroke"/><ellipse transform="matrix(.3554 .93471 -.95692 .29037 0 0)" ry="3.85" rx="15.507" cy="12.181" cx="-20.625" style="isolation:auto;mix-blend-mode:normal;marker:none" color="#000" overflow="visible" fill="none" fill-opacity=".359" stroke="#000" stroke-width=".315" stroke-dasharray=".63053801,.31526901,.1576345,.31526901" stroke-opacity=".161" paint-order="fill markers stroke"/><ellipse style="isolation:auto;mix-blend-mode:normal;marker:none" cx="-3.628" cy="24.774" rx="15.247" ry="3.785" transform="matrix(-.50039 .8658 -.82939 -.55867 0 0)" color="#000" overflow="visible" fill="none" fill-opacity=".359" stroke="#000" stroke-width=".31" stroke-dasharray=".61996733,.30998366,.15499183,.30998366" stroke-opacity=".161" paint-order="fill markers stroke"/><ellipse style="isolation:auto;mix-blend-mode:normal;marker:none" cx="-9.257" cy="-25.846" rx="14.674" ry="3.643" transform="matrix(.91812 -.3963 .33231 .94317 0 0)" color="#000" overflow="visible" fill="none" fill-opacity=".359" stroke="#fff" stroke-width=".315" stroke-dasharray=".63053801,.31526901,.1576345,.31526901" paint-order="fill markers stroke"/><ellipse transform="matrix(.91225 .40963 -.47132 .88196 0 0)" ry="3.953" rx="15.924" cy="-9.644" cx="-22.387" style="isolation:auto;mix-blend-mode:normal;marker:none" color="#000" overflow="visible" fill="none" fill-opacity=".359" stroke="#fff" stroke-width=".311" stroke-dasharray=".62184804,.31092402,.15546201,.31092402" paint-order="fill markers stroke"/><ellipse style="isolation:auto;mix-blend-mode:normal;marker:none" cx="-20.907" cy="12.373" rx="15.507" ry="3.85" transform="matrix(.3554 .93471 -.95692 .29037 0 0)" color="#000" overflow="visible" fill="none" fill-opacity=".359" stroke="#fff" stroke-width=".315" stroke-dasharray=".63053801,.31526901,.1576345,.31526901" paint-order="fill markers stroke"/><ellipse transform="matrix(-.50039 .8658 -.82939 -.55867 0 0)" ry="3.785" rx="15.247" cy="25.118" cx="-3.641" style="isolation:auto;mix-blend-mode:normal;marker:none" color="#000" overflow="visible" fill="none" fill-opacity=".359" stroke="#fff" stroke-width=".31" stroke-dasharray=".61996733,.30998366,.15499183,.30998366" paint-order="fill markers stroke"/></g></svg>