<svg xmlns:osb="http://www.openswatchbook.org/uri/2009/osb" xmlns="http://www.w3.org/2000/svg" xmlns:xlink="http://www.w3.org/1999/xlink" height="32" viewBox="0 0 32 32" width="32"><title>Template icons dark</title><defs><linearGradient id="f" osb:paint="solid"><stop offset="0"/></linearGradient><linearGradient id="c" osb:paint="solid"><stop offset="0" stop-opacity=".018"/></linearGradient><linearGradient id="e"><stop offset="0" stop-opacity=".128"/><stop offset="1" stop-opacity=".392"/></linearGradient><linearGradient id="a"><stop offset="0" stop-color="#66a3e2"/><stop offset="1" stop-color="#69a5e3"/></linearGradient><linearGradient id="b" osb:paint="solid"><stop offset="0" stop-color="#525e7d"/></linearGradient><linearGradient id="d"><stop offset="0" stop-opacity="0"/><stop offset=".25" stop-opacity=".091"/><stop offset="1" stop-opacity="0"/></linearGradient><linearGradient id="j" osb:paint="solid"><stop offset="0" stop-color="#4b78a7"/></linearGradient><linearGradient id="g"><stop offset="0" stop-color="#404552" stop-opacity="0"/><stop offset="1" stop-color="#404552" stop-opacity=".839"/></linearGradient><linearGradient id="h"><stop offset="0" stop-color="#404552" stop-opacity=".036"/><stop offset="1" stop-color="#404552" stop-opacity=".979"/></linearGradient><linearGradient id="i"><stop offset="0" stop-color="#828282"/><stop offset=".253" stop-color="#fff"/><stop offset=".522" stop-color="#717171"/><stop offset=".785" stop-color="#717171"/><stop offset="1" stop-color="#4c4c4c"/></linearGradient><linearGradient xlink:href="#c" id="k" gradientUnits="userSpaceOnUse" gradientTransform="translate(96)" x1="-30" y1="-16" x2="-2" y2="-16"/><linearGradient xlink:href="#b" id="l" gradientUnits="userSpaceOnUse" gradientTransform="matrix(1.01967 0 0 1.03029 -93.938 -221.797)" x1="64.666" y1="133.777" x2="88.203" y2="133.777"/><linearGradient xlink:href="#c" id="m" gradientUnits="userSpaceOnUse" gradientTransform="translate(96)" x1="-30" y1="-16" x2="-2" y2="-16"/><linearGradient xlink:href="#a" id="n" gradientUnits="userSpaceOnUse" gradientTransform="matrix(-1 0 0 1 68.023 -3.97)" x1="-11.977" y1="1.969" x2="-11.977" y2="4.969"/><linearGradient gradientTransform="matrix(.33668 0 0 .33668 -176.777 -50.94)" xlink:href="#j" id="o" x1="428" y1="162.5" x2="468.094" y2="162.5" gradientUnits="userSpaceOnUse"/></defs><path d="M67-29c-.537 0-1 .457-1 1v24c0 .5.5 1 1 1 6.607-.017 25.5 0 26 0s1-.499 1-1v-21c0-.5-.5-1-1-1H81l-3-3z" style="marker:none" fill="url(#k)" paint-order="fill markers stroke" transform="translate(-64 32)"/><path style="marker:none" d="M68-28c-.537 0-1 .457-1 1v22c0 .5.5 1 1 1 6.607-.017 23.5 0 24 0s1-.499 1-1v-19c0-.5-.5-1-1-1H81l-3-3z" fill="url(#l)" paint-order="fill markers stroke" transform="translate(-64 32)"/><path d="M81-25l-2 2H68c-1 0-1 1-1 2 0 0 .076-.93 1-1 3.694.018 7.17-.03 11 0l3-3z" style="line-height:normal;font-variant-ligatures:normal;font-variant-position:normal;font-variant-caps:normal;font-variant-numeric:normal;font-variant-alternates:normal;font-feature-settings:normal;text-indent:0;text-align:start;text-decoration-line:none;text-decoration-style:solid;text-decoration-color:#000;text-transform:none;text-orientation:mixed;shape-padding:0;isolation:auto;mix-blend-mode:normal;marker:none" color="#000" font-weight="400" font-family="sans-serif" white-space="normal" overflow="visible" fill="url(#m)" fill-rule="evenodd" paint-order="fill markers stroke" transform="translate(-64 32)"/><path d="M92-25c.537 0 1 .457 1 1v19c0 .5-.5 1-1 1-6.607-.017-23.5 0-24 0s-1-.499-1-1v-16c0-.5.5-1 1-1h11l3-3z" style="marker:none" fill="url(#n)" paint-order="fill markers stroke" transform="translate(-64 32)"/><path style="isolation:auto;mix-blend-mode:normal;marker:none" d="M87.514-5.935c0-2.464-4.18-3.487-5.848-3.934 0 0 .07-1.381.23-1.888.162-.506.185-1.082.254-1.243.069-.161.883-.898.929-1.589-.011-.412-.092-.51-.296-.51v-2.14c0-1.156-1.685-2.165-2.791-2.165-1.106 0-2.791 1.009-2.791 2.165v2.14c-.204 0-.285.098-.296.51.046.691.86 1.428.93 1.589.068.161.091.737.252 1.243.162.507.23 1.888.23 1.888-1.667.447-5.847 1.47-5.847 3.934z" color="#000" overflow="visible" fill="url(#o)" transform="translate(-64 32)"/></svg>