<svg xmlns="http://www.w3.org/2000/svg" xmlns:xlink="http://www.w3.org/1999/xlink" height="32" viewBox="0 0 32 32" width="32"><title>Template icons dark</title><defs><linearGradient id="r"><stop offset="0" stop-color="#fff"/><stop offset=".169" stop-color="#fbfbfb"/><stop offset=".265" stop-color="#c3c3c3"/><stop offset=".35" stop-color="#f9f9f9"/><stop offset=".588" stop-color="#f5f5f5"/><stop offset=".7" stop-color="#c1c1c1"/><stop offset=".809" stop-color="#f7f7f7"/><stop offset="1" stop-color="#fff"/></linearGradient><linearGradient id="q"><stop offset="0" stop-opacity=".137"/><stop offset=".508" stop-opacity=".154"/><stop offset="1" stop-opacity="0"/></linearGradient><linearGradient id="p"><stop offset="0" stop-opacity=".11"/><stop offset=".59" stop-opacity=".154"/><stop offset="1" stop-opacity="0"/></linearGradient><linearGradient id="o"><stop offset="0" stop-opacity="0"/><stop offset=".453" stop-opacity=".198"/><stop offset="1" stop-opacity="0"/></linearGradient><linearGradient id="n"><stop offset="0" stop-color="#fff"/><stop offset=".193" stop-color="#e0e0e0" stop-opacity=".918"/><stop offset=".493" stop-color="#c4c4c4" stop-opacity=".896"/><stop offset=".786" stop-color="#e0e0e0" stop-opacity=".945"/><stop offset="1" stop-color="#fff"/></linearGradient><linearGradient id="m"><stop offset="0" stop-color="#a3afbb"/><stop offset="1" stop-color="#73787d"/></linearGradient><linearGradient id="f"><stop offset="0" stop-color="#eceaea"/><stop offset="1" stop-color="#5e5e5e" stop-opacity=".729"/></linearGradient><linearGradient id="e"><stop offset="0" stop-color="#b7aaa5"/><stop offset="1" stop-color="#282828" stop-opacity=".828"/></linearGradient><linearGradient id="d"><stop offset="0" stop-color="#fff" stop-opacity="0"/><stop offset=".522" stop-color="#fff" stop-opacity=".161"/><stop offset="1" stop-color="#eee" stop-opacity="0"/></linearGradient><linearGradient id="c"><stop offset="0" stop-color="#4d4d4d"/><stop offset=".279" stop-color="#141414"/><stop offset=".515" stop-color="#494949"/><stop offset="1" stop-color="#f0f0f0"/></linearGradient><linearGradient id="b"><stop offset="0" stop-color="#fff" stop-opacity=".349"/><stop offset="1" stop-opacity=".453"/></linearGradient><linearGradient id="a"><stop offset="0" stop-color="#454545"/><stop offset=".327" stop-color="#404040"/><stop offset=".77" stop-color="#393939"/><stop offset="1" stop-color="#c6c6c6"/></linearGradient><linearGradient id="i"><stop offset="0"/><stop offset="1" stop-opacity="0"/></linearGradient><linearGradient id="g"><stop offset="0" stop-color="#555753"/><stop offset="1" stop-color="#d3d7cf" stop-opacity="0"/></linearGradient><linearGradient id="s"><stop offset="0" stop-color="#fff"/><stop offset="1" stop-color="#91999f"/></linearGradient><linearGradient id="t"><stop offset="0" stop-color="#dfe2dc"/><stop offset="1" stop-color="#86917a"/></linearGradient><linearGradient id="h"><stop offset="0" stop-color="#939a9d"/><stop offset="1" stop-color="#fff"/></linearGradient><linearGradient id="j"><stop offset="0" stop-color="#f8f8f8" stop-opacity=".155"/><stop offset=".498" stop-color="#b0b2b6" stop-opacity=".175"/><stop offset=".838" stop-color="#5b5e62" stop-opacity=".33"/><stop offset="1" stop-color="#fff" stop-opacity=".155"/></linearGradient><linearGradient id="k"><stop offset="0" stop-color="#e6e7e7"/><stop offset="1" stop-color="#676b73"/></linearGradient><linearGradient id="l"><stop offset="0" stop-color="silver"/><stop offset="1" stop-color="#abacb0"/></linearGradient><linearGradient gradientTransform="matrix(.356 0 0 .356 -73.037 -72.237)" xlink:href="#n" id="u" x1="127.937" y1="160" x2="192.189" y2="160" gradientUnits="userSpaceOnUse"/><linearGradient xlink:href="#m" id="v" x1="161" y1="126" x2="161" y2="141" gradientUnits="userSpaceOnUse" gradientTransform="matrix(.356 0 0 .356 -73.037 -74.017)"/><linearGradient xlink:href="#r" id="w" x1="128" y1="133.199" x2="192.472" y2="133.199" gradientUnits="userSpaceOnUse" gradientTransform="matrix(.356 0 0 .356 -72.976 -72.42)"/><linearGradient xlink:href="#h" id="A" gradientUnits="userSpaceOnUse" gradientTransform="matrix(-1 0 0 1 -164.713 28.24)" x1="22.009" y1="36.51" x2="23.585" y2="14.412"/><linearGradient xlink:href="#h" id="B" gradientUnits="userSpaceOnUse" gradientTransform="matrix(-1 0 0 1 -164.713 28.24)" x1="24.366" y1="20.246" x2="32.601" y2="28.555"/><linearGradient xlink:href="#i" id="C" gradientUnits="userSpaceOnUse" gradientTransform="matrix(-1 0 0 1 -164.713 28.24)" x1="25.633" y1="10.612" x2="38.714" y2="18.39"/><linearGradient xlink:href="#h" id="F" gradientUnits="userSpaceOnUse" gradientTransform="matrix(-1 0 0 1 -164.713 28.24)" x1="22.009" y1="36.51" x2="23.585" y2="14.412"/><linearGradient xlink:href="#h" id="G" gradientUnits="userSpaceOnUse" gradientTransform="matrix(-1 0 0 1 -164.713 28.24)" x1="24.366" y1="20.246" x2="32.601" y2="28.555"/><linearGradient xlink:href="#i" id="H" gradientUnits="userSpaceOnUse" gradientTransform="matrix(-1 0 0 1 -164.713 28.24)" x1="25.633" y1="10.612" x2="38.714" y2="18.39"/><linearGradient xlink:href="#h" id="K" gradientUnits="userSpaceOnUse" gradientTransform="matrix(-1 0 0 1 -164.713 28.24)" x1="22.009" y1="36.51" x2="23.585" y2="14.412"/><linearGradient xlink:href="#h" id="L" gradientUnits="userSpaceOnUse" gradientTransform="matrix(-1 0 0 1 -164.713 28.24)" x1="24.366" y1="20.246" x2="32.601" y2="28.555"/><linearGradient xlink:href="#i" id="M" gradientUnits="userSpaceOnUse" gradientTransform="matrix(-1 0 0 1 -164.713 28.24)" x1="25.633" y1="10.612" x2="38.714" y2="18.39"/><linearGradient xlink:href="#h" id="P" gradientUnits="userSpaceOnUse" gradientTransform="matrix(-1 0 0 1 -164.713 28.24)" x1="22.009" y1="36.51" x2="23.585" y2="14.412"/><linearGradient xlink:href="#h" id="Q" gradientUnits="userSpaceOnUse" gradientTransform="matrix(-1 0 0 1 -164.713 28.24)" x1="24.366" y1="20.246" x2="32.601" y2="28.555"/><linearGradient xlink:href="#i" id="R" gradientUnits="userSpaceOnUse" gradientTransform="matrix(-1 0 0 1 -164.713 28.24)" x1="25.633" y1="10.612" x2="38.714" y2="18.39"/><radialGradient cx="23.688" cy="14.211" r="22.597" fx="23.688" fy="14.211" id="y" xlink:href="#s" gradientUnits="userSpaceOnUse" gradientTransform="matrix(-2.13567 0 0 2.1106 -137.811 12.57)"/><radialGradient cx="20.09" cy="10.854" r="22.597" fx="20.09" fy="10.854" id="z" xlink:href="#t" gradientUnits="userSpaceOnUse" gradientTransform="matrix(-1.79027 0 0 1.76926 -148.9 16.29)"/><radialGradient cx="23.688" cy="14.211" r="22.597" fx="23.688" fy="14.211" id="D" xlink:href="#s" gradientUnits="userSpaceOnUse" gradientTransform="matrix(-2.13567 0 0 2.1106 -137.811 12.57)"/><radialGradient cx="20.09" cy="10.854" r="22.597" fx="20.09" fy="10.854" id="E" xlink:href="#t" gradientUnits="userSpaceOnUse" gradientTransform="matrix(-1.79027 0 0 1.76926 -148.9 16.29)"/><radialGradient cx="23.688" cy="14.211" r="22.597" fx="23.688" fy="14.211" id="I" xlink:href="#s" gradientUnits="userSpaceOnUse" gradientTransform="matrix(-2.13567 0 0 2.1106 -137.811 12.57)"/><radialGradient cx="20.09" cy="10.854" r="22.597" fx="20.09" fy="10.854" id="J" xlink:href="#t" gradientUnits="userSpaceOnUse" gradientTransform="matrix(-1.79027 0 0 1.76926 -148.9 16.29)"/><radialGradient cx="23.688" cy="14.211" r="22.597" fx="23.688" fy="14.211" id="N" xlink:href="#s" gradientUnits="userSpaceOnUse" gradientTransform="matrix(-2.13567 0 0 2.1106 -137.811 12.57)"/><radialGradient cx="20.09" cy="10.854" r="22.597" fx="20.09" fy="10.854" id="O" xlink:href="#t" gradientUnits="userSpaceOnUse" gradientTransform="matrix(-1.79027 0 0 1.76926 -148.9 16.29)"/><clipPath id="x"><ellipse ry="10.067" rx="26.236" cy="18.469" cx="127.216" style="isolation:auto;mix-blend-mode:normal;marker:none" color="#000" display="block" overflow="visible" fill-opacity=".577" stroke-width=".965"/></clipPath></defs><path d="M29.162 5.687l-4.194 22.435c-2.857 6.104-16.971 4.173-18.036 0L2.74 5.687c0-1.536 2.047-2.634 5.002-3.303.372-.085.19-.409.588-.48 1.024-.18 1.566-.683 2.728-.768.309-.022.345.745.662.73a58.838 58.838 0 0 1 3.328-.06c.236.001.395-.596.632-.591.884.018 1.542-.088 2.418-.013.26.022.319.57.577.599.52.055.928.116 1.438.184.254.034.553-2.011.803-1.975 1.527.224 2.438.489 3.684 1.156.274.147.145.459.411.624.2.124.476.234.778.34.1.034.525-.533.629-.5.615.202.951.999 1.306 1.262.366.271-.094.73.207.998.74.66 1.232 1.29 1.232 1.797z" style="isolation:auto;mix-blend-mode:normal;marker:none" color="#000" display="block" overflow="visible" fill-opacity=".082" stroke-width=".064" stroke-linecap="round" stroke-linejoin="round" stroke-opacity=".964"/><path style="isolation:auto;mix-blend-mode:normal;marker:none" d="M-3.262-25.957L-7.32-4.241c-2.766 5.908-16.427 4.04-17.458 0l-4.059-21.716c0-5.34 25.576-5.217 25.576 0z" color="#000" overflow="visible" fill="url(#u)" stroke-width=".062" stroke-linecap="round" stroke-linejoin="round" stroke-opacity=".964" transform="translate(32 32)"/><path d="M28.738 6.043l-.679 3.632c-6.085 3.132-17.477 3.488-24.224-.033l-.673-3.6c0-5.339 25.576-5.216 25.576 0z" style="isolation:auto;mix-blend-mode:normal;marker:none" color="#000" overflow="visible" fill="#434666" fill-opacity=".275" stroke-width=".062" stroke-linecap="round" stroke-linejoin="round" stroke-opacity=".964"/><path style="isolation:auto;mix-blend-mode:normal;marker:none" d="M-3.75-26.272a12.277 3.245 0 0 1-12.278 3.246 12.277 3.245 0 0 1-12.277-3.246 12.277 3.245 0 0 1 12.277-3.245A12.277 3.245 0 0 1-3.75-26.272z" color="#000" overflow="visible" fill="url(#v)" stroke="#fff" stroke-width=".534" stroke-linecap="round" stroke-linejoin="round" transform="translate(32 32)"/><path d="M4.53 6.276s.123 2.337 11.337 2.423c8.6.066 11.615-2.3 11.615-2.3l-1.424-1.424-2.304.356-3.1-.378-1.884 1.883c-.134.135-.388 1.548-1.375 1.548s-1.764-.382-1.944-.561c-.18-.18-1.625-1.424-1.625-1.424l-1.918-.774s-1.725 1.238-1.725 1.676c0 .437-1.74-.902-1.74-.902L7.379 5.132l-2.197.493-.65.695s.123-.168 0-.044z" fill-opacity=".286" fill-rule="evenodd" stroke-width=".356"/><path d="M-27.409-25.551s.123 2.337 11.337 2.423c8.6.066 11.615-2.3 11.615-2.3l-1.424-1.424-2.365.57-3.04-.592-1.883 1.884c-.134.134-1.246 1.85-1.246 1.85s-1.893-.684-2.073-.864c-.18-.18-1.626-1.424-1.626-1.424l-1.917-.773s-1.595 1.41-1.595 1.848c0 .437-1.87-1.075-1.87-1.075l-1.065-1.267-2.197.494-.65.695s.123-.168 0-.045z" fill="url(#w)" fill-rule="evenodd" stroke-width=".356" transform="translate(32 32)"/><path style="isolation:auto;mix-blend-mode:normal;marker:none" d="M28.055 5.52a11.997 3.245 0 0 1-11.97 3.098A11.997 3.245 0 0 1 4.116 5.58a11.997 3.245 0 0 0-.026.147 11.997 3.245 0 0 0 11.997 3.246 11.997 3.245 0 0 0 11.997-3.246 11.997 3.245 0 0 0-.028-.208z" color="#000" overflow="visible" fill-opacity=".181" stroke-width=".528" stroke-linecap="round" stroke-linejoin="round"/><path d="M24.804 27.09l-.125.669c-2.766 5.908-16.427 4.04-17.458 0l-.102-.549c1.683 4.465 15.567 5.177 17.685-.12z" style="isolation:auto;mix-blend-mode:normal;marker:none" color="#000" overflow="visible" fill="#151634" fill-opacity=".324" stroke-width=".062" stroke-linecap="round" stroke-linejoin="round" stroke-opacity=".964"/><g transform="translate(-44.171 -4.703) scale(.4729)" clip-path="url(#x)" color="#000" fill-rule="evenodd"><path d="M-173.729 65.81l1.768 2.828-3.712 1.591-2.652-2.121-11.844.884-3.712 4.95-3.359-5.48-4.243 2.297-5.656-.707 1.414-3.005-3.89-3.889 5.48-6.187-5.303.707-2.298-2.121 3.006.53 3.182-5.48 4.596-1.06-3.713-1.238-.176-3.182 7.248-6.364 2.651-8.485 12.021 3.535 3.005 7.071 1.06-2.298 3.006.177v2.828l3.536-4.066 4.773 5.127V49.9l-8.309 7.248 5.303 3.005-.176 3.005z" style="marker:none" overflow="visible" fill="url(#y)" stroke="url(#z)" transform="matrix(-.50094 0 0 .50094 18.809 -1.829)"/><path d="M-184.158 50.96l.883 6.541-2.12 3.359 4.595 1.414 2.652 5.303-12.02.884-2.83 4.066-2.297-6.187 4.419-2.828 6.718 1.944-2.652-3.535 1.414-6.188z" style="marker:none" overflow="visible" opacity=".77" fill="url(#A)" transform="matrix(-.50094 0 0 .50094 18.809 -1.829)"/><path d="M-185.22 52.021l-4.419 6.894-7.247-4.95-4.42 2.475-3.535-3.005-3.182 2.829 3.005-4.95 6.894-1.591 8.662-4.243s12.375 3.713 11.667 3.713c-.707 0-10.253.176-10.253.176l-1.59-2.298-4.243 1.945z" style="marker:none" overflow="visible" opacity=".618" fill="url(#B)" transform="matrix(-.50094 0 0 .50094 18.809 -1.829)"/><path d="M116.11 14.047l-5.225 1.771-.709 1.948 3.01 2.126 2.835-2.745z" style="marker:none" overflow="visible" fill="#fff"/><path d="M-194.412 32.045l-2.298 7.425-4.242 3.712 8.662-1.944s2.475 2.828 1.414 2.828c-1.06 0-12.551 1.414-12.551 1.414l.177 2.298 16.263-3.005-7.071-6.54z" style="marker:none" overflow="visible" opacity=".135" fill="url(#C)" transform="matrix(-.50094 0 0 .50094 18.809 -1.829)"/><path d="M105.04 19.449l-.443 4.428.974-3.011 2.568.797.62-1.328 3.1.442.708-.62-4.516-.177-.443 1.24-1.948-.974zM112.567 26.002l1.505 1.771 3.454-2.302 2.125 1.151 3.454 3.277-3.808-2.923-1.86-.531-3.63 2.48z" style="marker:none" overflow="visible" fill="#fff"/><g><path d="M-173.729 65.81l1.768 2.828-3.712 1.591-2.652-2.121-11.844.884-3.712 4.95-3.359-5.48-4.243 2.297-5.656-.707 1.414-3.005-3.89-3.889 5.48-6.187-5.303.707-2.298-2.121 3.006.53 3.182-5.48 4.596-1.06-3.713-1.238-.176-3.182 7.248-6.364 2.651-8.485 12.021 3.535 3.005 7.071 1.06-2.298 3.006.177v2.828l3.536-4.066 4.773 5.127V49.9l-8.309 7.248 5.303 3.005-.176 3.005z" style="marker:none" overflow="visible" fill="url(#D)" stroke="url(#E)" transform="matrix(-.50094 0 0 .50094 18.542 6.402)"/><path d="M-184.158 50.96l.883 6.541-2.12 3.359 4.595 1.414 2.652 5.303-12.02.884-2.83 4.066-2.297-6.187 4.419-2.828 6.718 1.944-2.652-3.535 1.414-6.188z" style="marker:none" overflow="visible" opacity=".77" fill="url(#F)" transform="matrix(-.50094 0 0 .50094 18.542 6.402)"/><path d="M-185.22 52.021l-4.419 6.894-7.247-4.95-4.42 2.475-3.535-3.005-3.182 2.829 3.005-4.95 6.894-1.591 8.662-4.243s12.375 3.713 11.667 3.713c-.707 0-10.253.176-10.253.176l-1.59-2.298-4.243 1.945z" style="marker:none" overflow="visible" opacity=".618" fill="url(#G)" transform="matrix(-.50094 0 0 .50094 18.542 6.402)"/><path d="M115.842 22.277l-5.225 1.771-.708 1.949 3.01 2.125 2.835-2.745z" style="marker:none" overflow="visible" fill="#fff"/><path d="M-194.412 32.045l-2.298 7.425-4.242 3.712 8.662-1.944s2.475 2.828 1.414 2.828c-1.06 0-12.551 1.414-12.551 1.414l.177 2.298 16.263-3.005-7.071-6.54z" style="marker:none" overflow="visible" opacity=".135" fill="url(#H)" transform="matrix(-.50094 0 0 .50094 18.542 6.402)"/><path d="M104.773 27.68l-.443 4.427.974-3.011 2.568.797.62-1.328 3.1.442.708-.62-4.516-.177-.443 1.24-1.948-.974zM112.3 34.232l1.505 1.771 3.454-2.302 2.125 1.151 3.454 3.277-3.808-2.923-1.86-.531-3.63 2.48z" style="marker:none" overflow="visible" fill="#fff"/></g><g><path d="M-173.729 65.81l1.768 2.828-3.712 1.591-2.652-2.121-11.844.884-3.712 4.95-3.359-5.48-4.243 2.297-5.656-.707 1.414-3.005-3.89-3.889 5.48-6.187-5.303.707-2.298-2.121 3.006.53 3.182-5.48 4.596-1.06-3.713-1.238-.176-3.182 7.248-6.364 2.651-8.485 12.021 3.535 3.005 7.071 1.06-2.298 3.006.177v2.828l3.536-4.066 4.773 5.127V49.9l-8.309 7.248 5.303 3.005-.176 3.005z" style="marker:none" overflow="visible" fill="url(#I)" stroke="url(#J)" transform="translate(235.648 -4.513) scale(.50094)"/><path d="M-184.158 50.96l.883 6.541-2.12 3.359 4.595 1.414 2.652 5.303-12.02.884-2.83 4.066-2.297-6.187 4.419-2.828 6.718 1.944-2.652-3.535 1.414-6.188z" style="marker:none" overflow="visible" opacity=".77" fill="url(#K)" transform="translate(235.648 -4.513) scale(.50094)"/><path d="M-185.22 52.021l-4.419 6.894-7.247-4.95-4.42 2.475-3.535-3.005-3.182 2.829 3.005-4.95 6.894-1.591 8.662-4.243s12.375 3.713 11.667 3.713c-.707 0-10.253.176-10.253.176l-1.59-2.298-4.243 1.945z" style="marker:none" overflow="visible" opacity=".618" fill="url(#L)" transform="translate(235.648 -4.513) scale(.50094)"/><path d="M138.348 11.363l5.224 1.771.709 1.948-3.011 2.125-2.834-2.745z" style="marker:none" overflow="visible" fill="#fff"/><path d="M-194.412 32.045l-2.298 7.425-4.242 3.712 8.662-1.944s2.475 2.828 1.414 2.828c-1.06 0-12.551 1.414-12.551 1.414l.177 2.298 16.263-3.005-7.071-6.54z" style="marker:none" overflow="visible" opacity=".135" fill="url(#M)" transform="translate(235.648 -4.513) scale(.50094)"/><path d="M149.417 16.765l.443 4.427-.974-3.01-2.568.797-.62-1.329-3.1.443-.708-.62 4.516-.177.443 1.24 1.948-.974zM141.89 23.318l-1.506 1.77-3.453-2.302-2.126 1.152-3.453 3.276 3.808-2.922 1.86-.531 3.63 2.48z" style="marker:none" overflow="visible" fill="#fff"/></g><g><path d="M-173.729 65.81l1.768 2.828-3.712 1.591-2.652-2.121-11.844.884-3.712 4.95-3.359-5.48-4.243 2.297-5.656-.707 1.414-3.005-3.89-3.889 5.48-6.187-5.303.707-2.298-2.121 3.006.53 3.182-5.48 4.596-1.06-3.713-1.238-.176-3.182 7.248-6.364 2.651-8.485 12.021 3.535 3.005 7.071 1.06-2.298 3.006.177v2.828l3.536-4.066 4.773 5.127V49.9l-8.309 7.248 5.303 3.005-.176 3.005z" style="marker:none" overflow="visible" fill="url(#N)" stroke="url(#O)" transform="matrix(0 -.50094 -.50094 0 151.613 -70.805)"/><path d="M-184.158 50.96l.883 6.541-2.12 3.359 4.595 1.414 2.652 5.303-12.02.884-2.83 4.066-2.297-6.187 4.419-2.828 6.718 1.944-2.652-3.535 1.414-6.188z" style="marker:none" overflow="visible" opacity=".77" fill="url(#P)" transform="matrix(0 -.50094 -.50094 0 151.613 -70.805)"/><path d="M-185.22 52.021l-4.419 6.894-7.247-4.95-4.42 2.475-3.535-3.005-3.182 2.829 3.005-4.95 6.894-1.591 8.662-4.243s12.375 3.713 11.667 3.713c-.707 0-10.253.176-10.253.176l-1.59-2.298-4.243 1.945z" style="marker:none" overflow="visible" opacity=".618" fill="url(#Q)" transform="matrix(0 -.50094 -.50094 0 151.613 -70.805)"/><path d="M135.738 26.495l-1.772-5.224-1.948-.709-2.125 3.011 2.745 2.834z" style="marker:none" overflow="visible" fill="#fff"/><path d="M-194.412 32.045l-2.298 7.425-4.242 3.712 8.662-1.944s2.475 2.828 1.414 2.828c-1.06 0-12.551 1.414-12.551 1.414l.177 2.298 16.263-3.005-7.071-6.54z" style="marker:none" overflow="visible" opacity=".135" fill="url(#R)" transform="matrix(0 -.50094 -.50094 0 151.613 -70.805)"/><path d="M130.336 15.426l-4.428-.443 3.01.974-.796 2.568 1.328.62-.443 3.1.62.708.177-4.516-1.24-.443.975-1.948zM123.783 22.953l-1.771 1.506 2.302 3.453-1.151 2.126-3.277 3.453 2.923-3.808.53-1.86-2.479-3.63z" style="marker:none" overflow="visible" fill="#fff"/></g></g></svg>