<svg xmlns="http://www.w3.org/2000/svg" xmlns:xlink="http://www.w3.org/1999/xlink" height="32" viewBox="0 0 32 32" width="32"><title>Template icons dark</title><defs><linearGradient id="o"><stop offset="0" stop-opacity=".11"/><stop offset=".59" stop-opacity=".154"/><stop offset="1" stop-opacity="0"/></linearGradient><linearGradient id="n"><stop offset="0" stop-color="#fff"/><stop offset=".193" stop-color="#e0e0e0" stop-opacity=".918"/><stop offset=".493" stop-color="#c4c4c4" stop-opacity=".896"/><stop offset=".786" stop-color="#e0e0e0" stop-opacity=".945"/><stop offset="1" stop-color="#fff"/></linearGradient><linearGradient id="m"><stop offset="0" stop-color="#a3afbb"/><stop offset="1" stop-color="#73787d"/></linearGradient><linearGradient id="f"><stop offset="0" stop-color="#eceaea"/><stop offset="1" stop-color="#5e5e5e" stop-opacity=".729"/></linearGradient><linearGradient id="e"><stop offset="0" stop-color="#b7aaa5"/><stop offset="1" stop-color="#282828" stop-opacity=".828"/></linearGradient><linearGradient id="d"><stop offset="0" stop-color="#fff" stop-opacity="0"/><stop offset=".522" stop-color="#fff" stop-opacity=".161"/><stop offset="1" stop-color="#eee" stop-opacity="0"/></linearGradient><linearGradient id="c"><stop offset="0" stop-color="#4d4d4d"/><stop offset=".279" stop-color="#141414"/><stop offset=".515" stop-color="#494949"/><stop offset="1" stop-color="#f0f0f0"/></linearGradient><linearGradient id="b"><stop offset="0" stop-color="#fff" stop-opacity=".349"/><stop offset="1" stop-opacity=".453"/></linearGradient><linearGradient id="a"><stop offset="0" stop-color="#454545"/><stop offset=".327" stop-color="#404040"/><stop offset=".77" stop-color="#393939"/><stop offset="1" stop-color="#c6c6c6"/></linearGradient><linearGradient id="i"><stop offset="0"/><stop offset="1" stop-opacity="0"/></linearGradient><linearGradient id="g"><stop offset="0" stop-color="#555753"/><stop offset="1" stop-color="#d3d7cf" stop-opacity="0"/></linearGradient><linearGradient id="p"><stop offset="0" stop-color="#fff"/><stop offset="1" stop-color="#91999f"/></linearGradient><linearGradient id="q"><stop offset="0" stop-color="#dfe2dc"/><stop offset="1" stop-color="#86917a"/></linearGradient><linearGradient id="h"><stop offset="0" stop-color="#939a9d"/><stop offset="1" stop-color="#fff"/></linearGradient><linearGradient id="j"><stop offset="0" stop-color="#f8f8f8" stop-opacity=".155"/><stop offset=".498" stop-color="#b0b2b6" stop-opacity=".175"/><stop offset=".838" stop-color="#5b5e62" stop-opacity=".33"/><stop offset="1" stop-color="#fff" stop-opacity=".155"/></linearGradient><linearGradient id="k"><stop offset="0" stop-color="#e6e7e7"/><stop offset="1" stop-color="#676b73"/></linearGradient><linearGradient id="l"><stop offset="0" stop-color="silver"/><stop offset="1" stop-color="#abacb0"/></linearGradient><linearGradient gradientTransform="matrix(.356 0 0 .356 -73.037 -72.237)" xlink:href="#n" id="r" x1="127.937" y1="160" x2="192.189" y2="160" gradientUnits="userSpaceOnUse"/><linearGradient xlink:href="#m" id="s" x1="161" y1="126" x2="161" y2="141" gradientUnits="userSpaceOnUse" gradientTransform="matrix(.356 0 0 .356 -73.037 -74.017)"/></defs><g color="#000" stroke-linecap="round" stroke-linejoin="round"><path d="M29.513 5.391l-4.305 23.031c-2.934 6.267-17.423 4.284-18.515 0L2.388 5.392c0-5.664 27.125-5.533 27.125 0z" style="isolation:auto;mix-blend-mode:normal;marker:none" overflow="visible" fill-opacity=".082" stroke-width=".066" stroke-opacity=".964"/><path style="isolation:auto;mix-blend-mode:normal;marker:none" d="M-3.262-25.957L-7.32-4.241c-2.766 5.908-16.427 4.04-17.458 0l-4.059-21.716c0-5.34 25.576-5.217 25.576 0z" overflow="visible" fill="url(#r)" stroke-width=".062" stroke-opacity=".964" transform="translate(32 32)"/><path d="M28.738 6.043l-.679 3.632c-6.085 3.132-17.477 3.488-24.224-.033l-.673-3.6c0-5.339 25.576-5.216 25.576 0z" style="isolation:auto;mix-blend-mode:normal;marker:none" overflow="visible" fill="#434666" fill-opacity=".275" stroke-width=".062" stroke-opacity=".964"/><path style="isolation:auto;mix-blend-mode:normal;marker:none" d="M-3.75-26.272a12.277 3.245 0 0 1-12.278 3.246 12.277 3.245 0 0 1-12.277-3.246 12.277 3.245 0 0 1 12.277-3.245A12.277 3.245 0 0 1-3.75-26.272z" overflow="visible" fill="url(#s)" stroke="#fff" stroke-width=".534" transform="translate(32 32)"/><path d="M24.804 27.09l-.125.669c-2.766 5.908-16.427 4.04-17.458 0l-.102-.549c1.683 4.465 15.567 5.177 17.685-.12z" style="isolation:auto;mix-blend-mode:normal;marker:none" overflow="visible" fill="#151634" fill-opacity=".324" stroke-width=".062" stroke-opacity=".964"/></g></svg>