<svg xmlns:osb="http://www.openswatchbook.org/uri/2009/osb" xmlns="http://www.w3.org/2000/svg" xmlns:xlink="http://www.w3.org/1999/xlink" height="24" viewBox="0 0 24 24" width="24"><title>Template icons dark</title><defs><linearGradient id="d" osb:paint="solid"><stop offset="0" stop-color="#070707" stop-opacity=".119"/></linearGradient><linearGradient id="b" osb:paint="solid"><stop offset="0" stop-opacity=".119"/></linearGradient><linearGradient id="a" osb:paint="solid"><stop offset="0" stop-color="#ff1e3e"/></linearGradient><linearGradient id="c" osb:paint="solid"><stop offset="0" stop-color="#fff"/></linearGradient><linearGradient gradientTransform="matrix(.63636 0 0 .63636 -62.91 -62.91)" xlink:href="#a" id="f" x1="25" y1="36" x2="47" y2="36" gradientUnits="userSpaceOnUse"/><linearGradient gradientTransform="matrix(.66667 0 0 .66667 -64 -64)" xlink:href="#b" id="e" x1="24" y1="36" x2="48" y2="36" gradientUnits="userSpaceOnUse"/><linearGradient gradientTransform="translate(-32 -32)" xlink:href="#d" id="g" x1="-12" y1="-7" x2="-4" y2="-7" gradientUnits="userSpaceOnUse"/><linearGradient xlink:href="#c" id="h" x1="29.463" y1="36" x2="42.537" y2="36" gradientUnits="userSpaceOnUse"/></defs><g color="#000" transform="translate(56 56)"><rect y="-48" x="-48" height="16" width="16" style="isolation:auto;mix-blend-mode:normal;marker:none" ry="8" display="block" overflow="visible" fill="url(#e)" stroke-width=".65" stroke-linecap="round" stroke-opacity=".963"/><rect style="isolation:auto;mix-blend-mode:normal;marker:none" width="14" height="14" x="-47" y="-47" ry="7" display="block" overflow="visible" fill="url(#f)" stroke-width=".569" stroke-linecap="round" stroke-opacity=".963"/><path d="M-43-43l-1 1 3 3-3 3 1 1 3-3 3 3 1-1-3-3 3-3-1-1-3 3z" style="line-height:normal;font-variant-ligatures:normal;font-variant-position:normal;font-variant-caps:normal;font-variant-numeric:normal;font-variant-alternates:normal;font-feature-settings:normal;text-indent:0;text-align:start;text-decoration-line:none;text-decoration-style:solid;text-decoration-color:#000;text-transform:none;text-orientation:mixed;shape-padding:0;isolation:auto;mix-blend-mode:normal;marker:none" font-weight="400" font-family="sans-serif" white-space="normal" display="block" overflow="visible" fill="url(#g)" stroke-width=".465" stroke-opacity=".995"/><path style="line-height:normal;font-variant-ligatures:normal;font-variant-position:normal;font-variant-caps:normal;font-variant-numeric:normal;font-variant-alternates:normal;font-feature-settings:normal;text-indent:0;text-align:start;text-decoration-line:none;text-decoration-style:solid;text-decoration-color:#000;text-transform:none;text-orientation:mixed;shape-padding:0;isolation:auto;mix-blend-mode:normal;marker:none" d="M-43-44l-1 1 3 3-3 3 1 1 3-3 3 3 1-1-3-3 3-3-1-1-3 3z" font-weight="400" font-family="sans-serif" white-space="normal" display="block" overflow="visible" fill="url(#h)" stroke-width=".76" stroke-opacity=".995"/></g></svg>