<svg xmlns:osb="http://www.openswatchbook.org/uri/2009/osb" xmlns="http://www.w3.org/2000/svg" xmlns:xlink="http://www.w3.org/1999/xlink" height="64" viewBox="0 0 64 64" width="64"><title>Template icons dark</title><defs><linearGradient id="d" osb:paint="solid"><stop offset="0" stop-color="#070707" stop-opacity=".203"/></linearGradient><linearGradient id="c" osb:paint="solid"><stop offset="0" stop-opacity=".045"/></linearGradient><linearGradient id="b" osb:paint="solid"><stop offset="0" stop-color="#efc300"/></linearGradient><linearGradient id="a" osb:paint="solid"><stop offset="0" stop-color="#fff"/></linearGradient><linearGradient gradientTransform="matrix(1.33333 0 0 1.33333 48 48)" xlink:href="#c" id="e" x1="24" y1="36" x2="48" y2="36" gradientUnits="userSpaceOnUse"/><linearGradient gradientTransform="matrix(1.36364 0 0 1.36364 46.91 46.91)" xlink:href="#b" id="f" x1="25" y1="36" x2="47" y2="36" gradientUnits="userSpaceOnUse"/><linearGradient gradientTransform="matrix(1.79999 0 0 1.8 105 103.5)" xlink:href="#a" id="h" x1="-6" y1="-3" x2="0" y2="-3" gradientUnits="userSpaceOnUse"/><linearGradient xlink:href="#d" id="g" gradientUnits="userSpaceOnUse" gradientTransform="matrix(1.79999 0 0 1.8 105 104.5)" x1="-6" y1="-3" x2="0" y2="-3"/></defs><g color="#000" transform="translate(-48 -48)"><rect y="80" x="80" height="32" width="32" style="isolation:auto;mix-blend-mode:normal;marker:none" ry="16" display="block" overflow="visible" fill="url(#e)" stroke-width="1.3" stroke-linecap="round" stroke-opacity=".963"/><rect style="isolation:auto;mix-blend-mode:normal;marker:none" width="30" height="30" x="81" y="81" ry="15" display="block" overflow="visible" fill="url(#f)" stroke-width="1.219" stroke-linecap="round" stroke-opacity=".963"/><path style="isolation:auto;mix-blend-mode:normal;marker:none" d="M93 89v5l-5.007-.002L87.985 104H104l.007-10.002L99 94v-5zm1 1h4l.002 3.998h-4.003z" display="block" overflow="visible" fill="url(#g)" stroke-width="1.8" paint-order="fill markers stroke"/><path d="M93 88v5l-5.007-.002L87.985 103H104l.007-10.002L99 93v-5zm1 1h4l.002 3.998h-4.003z" style="isolation:auto;mix-blend-mode:normal;marker:none" display="block" overflow="visible" fill="url(#h)" stroke-width="1.8" paint-order="fill markers stroke"/></g></svg>