<svg xmlns:osb="http://www.openswatchbook.org/uri/2009/osb" xmlns="http://www.w3.org/2000/svg" xmlns:xlink="http://www.w3.org/1999/xlink" height="24" viewBox="0 0 24 24" width="24"><title>Template icons dark</title><defs><linearGradient id="g" osb:paint="solid"><stop offset="0" stop-opacity=".196"/></linearGradient><linearGradient id="f" osb:paint="solid"><stop offset="0" stop-color="#fff" stop-opacity=".302"/></linearGradient><linearGradient id="e" osb:paint="solid"><stop offset="0" stop-opacity=".009"/></linearGradient><linearGradient id="d" osb:paint="solid"><stop offset="0" stop-opacity=".022"/></linearGradient><linearGradient id="b"><stop offset="0" stop-color="#ffa532"/><stop offset="1" stop-color="#ff8300"/></linearGradient><linearGradient id="a"><stop offset="0" stop-color="#ff8300"/><stop offset="1" stop-color="#ff5b00"/></linearGradient><linearGradient id="c"><stop offset="0" stop-opacity="0"/><stop offset="1" stop-opacity=".102"/></linearGradient><linearGradient xlink:href="#d" id="i" x1="126" y1="161.5" x2="194" y2="161.5" gradientUnits="userSpaceOnUse"/><linearGradient xlink:href="#g" id="k" x1="166" y1="133.472" x2="193" y2="133.472" gradientUnits="userSpaceOnUse"/><linearGradient xlink:href="#b" id="l" x1="-42" y1="-48" x2="-44" y2="-46" gradientUnits="userSpaceOnUse"/><linearGradient xlink:href="#a" id="j" x1="-43.048" y1="-34" x2="-43.048" y2="-28" gradientUnits="userSpaceOnUse"/><linearGradient gradientTransform="matrix(.36364 0 0 .35714 -97.83 -102.063)" xlink:href="#h" id="m" x1="127" y1="161.5" x2="147.945" y2="161.5" gradientUnits="userSpaceOnUse"/><linearGradient id="h"><stop offset="0" stop-opacity="0"/><stop offset="1" stop-opacity=".083"/></linearGradient></defs><path d="M-53-55h11l7 7v15h-18z" style="isolation:auto;mix-blend-mode:normal;marker:none" color="#000" overflow="visible" fill="url(#i)" stroke-width=".852" paint-order="fill markers stroke" transform="translate(56 56)"/><path style="isolation:auto;mix-blend-mode:normal;marker:none" d="M-52-54h9.984L-36-48v14h-16z" color="#000" overflow="visible" fill="url(#j)" stroke-width=".211" paint-order="fill markers stroke" transform="translate(56 56)"/><path d="M-42-54l6 6v1h-7v-7z" fill="url(#k)" fill-rule="evenodd" stroke-width="2.195" transform="translate(56 56)"/><path d="M-42-54l6 6h-6z" fill="url(#l)" fill-rule="evenodd" stroke-width=".599" transform="translate(56 56)"/><path style="isolation:auto;mix-blend-mode:normal;marker:none" d="M-52-54h8v20h-8v-20z" color="#000" overflow="visible" fill="url(#m)" stroke-width=".299" paint-order="fill markers stroke" transform="translate(56 56)"/><path style="isolation:auto;mix-blend-mode:normal;marker:none" d="M12 8a6 6 0 0 1 6 6h-6z" color="#000" display="block" overflow="visible" fill="#fff" fill-opacity=".354" stroke-width=".141" stroke-opacity=".964" paint-order="fill markers stroke"/><path style="isolation:auto;mix-blend-mode:normal;marker:none" d="M18 14a6 6 0 0 1-3.704 5.543 6 6 0 0 1-6.539-1.3 6 6 0 0 1-1.3-6.54A6 6 0 0 1 12 8v6z" color="#000" display="block" overflow="visible" fill="#fff" stroke-width=".141" stroke-opacity=".964" paint-order="fill markers stroke"/></svg>