<svg xmlns:osb="http://www.openswatchbook.org/uri/2009/osb" xmlns="http://www.w3.org/2000/svg" height="24" viewBox="0 0 24 24" width="24"><title>Template icons dark</title><defs><linearGradient id="h"><stop offset="0" stop-color="#f72424" stop-opacity=".066"/><stop offset="1" stop-color="#f72424" stop-opacity=".118"/></linearGradient><linearGradient id="g" osb:paint="solid"><stop offset="0" stop-opacity=".196"/></linearGradient><linearGradient id="f" osb:paint="solid"><stop offset="0" stop-color="#fff" stop-opacity=".162"/></linearGradient><linearGradient id="e" osb:paint="solid"><stop offset="0" stop-opacity=".009"/></linearGradient><linearGradient id="d" osb:paint="solid"><stop offset="0" stop-opacity=".026"/></linearGradient><linearGradient id="b"><stop offset="0" stop-color="#fa2727"/><stop offset="1" stop-color="#fb4e4e"/></linearGradient><linearGradient id="a"><stop offset="0" stop-color="#fa2727"/><stop offset="1" stop-color="#d90101"/></linearGradient><linearGradient id="c"><stop offset="0" stop-opacity="0"/><stop offset="1" stop-opacity=".102"/></linearGradient></defs><g fill="#fa2727" stroke-width=".231"><path style="isolation:auto;mix-blend-mode:normal;marker:none" d="M3 2v21h18V8l-6-6zm1 1h11v5h5v14H4z" color="#000" overflow="visible" paint-order="fill markers stroke"/><path d="M4 3h11l5 5v14H4z" style="isolation:auto;mix-blend-mode:normal;marker:none" color="#000" overflow="visible" opacity=".1" paint-order="fill markers stroke"/><path d="M17.539 14.543c-.222-.218-.713-.333-1.46-.343a12.093 12.093 0 0 0-1.755.129c-.287-.166-.582-.346-.814-.563-.624-.582-1.145-1.391-1.47-2.28a8.27 8.27 0 0 0 .056-.231s.352-1.997.258-2.672a.78.78 0 0 0-.045-.192l-.03-.078c-.096-.22-.284-.454-.578-.441l-.172-.006h-.005c-.328 0-.595.168-.665.418-.213.786.007 1.962.406 3.484l-.102.248c-.286.696-.643 1.397-.959 2.015l-.041.08c-.332.65-.633 1.201-.906 1.668l-.282.15c-.02.01-.504.266-.617.334-.962.574-1.599 1.226-1.704 1.743-.034.165-.009.376.162.474l.273.137c.118.06.243.09.37.09.685 0 1.48-.853 2.575-2.764A25.648 25.648 0 0 1 14 15c.961.541 2.144.917 2.89.917.133 0 .247-.012.34-.037a.578.578 0 0 0 .337-.23c.145-.218.174-.518.135-.826a.552.552 0 0 0-.163-.28zM7.31 18.187c.125-.341.62-1.016 1.35-1.615.046-.037.16-.144.263-.242-.764 1.219-1.276 1.705-1.613 1.857zM11.64 8.22c.22 0 .345.555.356 1.075.01.52-.112.885-.263 1.155-.125-.4-.185-1.03-.185-1.442 0 0-.01-.788.092-.788zm-1.291 7.104c.153-.275.312-.564.475-.871.398-.752.649-1.34.836-1.823a6.023 6.023 0 0 0 1.379 1.712c.067.057.14.115.215.173-1.107.218-2.063.485-2.905.809zm6.977-.063c-.067.042-.26.067-.385.067-.4 0-.896-.184-1.592-.482.268-.02.513-.03.732-.03.402 0 .521-.001.914.1.394.1.399.303.331.345z" style="marker:none" paint-order="fill markers stroke"/></g></svg>