<svg xmlns:osb="http://www.openswatchbook.org/uri/2009/osb" xmlns="http://www.w3.org/2000/svg" xmlns:xlink="http://www.w3.org/1999/xlink" height="24" viewBox="0 0 24 24" width="24"><title>Template icons dark</title><defs><linearGradient id="g" osb:paint="solid"><stop offset="0" stop-opacity=".196"/></linearGradient><linearGradient id="f" osb:paint="solid"><stop offset="0" stop-color="#fff" stop-opacity=".469"/></linearGradient><linearGradient id="e" osb:paint="solid"><stop offset="0" stop-opacity=".009"/></linearGradient><linearGradient id="d" osb:paint="solid"><stop offset="0" stop-opacity=".022"/></linearGradient><linearGradient id="b"><stop offset="0" stop-color="#92cbd1"/><stop offset="1" stop-color="#41bda9"/></linearGradient><linearGradient id="a"><stop offset="0" stop-color="#44e9b3"/><stop offset="1" stop-color="#43a8ce"/></linearGradient><linearGradient id="c"><stop offset="0" stop-opacity="0"/><stop offset="1" stop-opacity=".102"/></linearGradient><linearGradient xlink:href="#a" id="h" gradientUnits="userSpaceOnUse" gradientTransform="matrix(.74629 0 0 .7469 -33.962 -33.796)" x1="-1.595" y1="-30.091" x2="-21.024" y2="-2.143"/></defs><path style="isolation:auto;mix-blend-mode:normal;marker:none" d="M-36.03-51.385l-.129 10.233c-.033 2.637-2.282 3.482-3.461 3.482-3.444 0-3.395-4.093 0-4.154.713 0 2.088-.139 2.11-.982 0 0 .153-3.903-.033-4.406-.503-.08-8.657 2.273-8.896 2.564-.026.689 0 6.265 0 6.265 0 2.61-2.282 3.48-3.461 3.48-3.47 0-3.395-4.09 0-4.152.714 0 1.74-.189 1.913-.797v-9.242c0-.454.303-.855.735-.996l9.752-2.769c1.47 0 1.191.887 1.47 1.474z" color="#000" overflow="visible" fill="url(#h)" stroke-width=".282" paint-order="fill markers stroke" transform="translate(56 56)"/></svg>