<svg xmlns:osb="http://www.openswatchbook.org/uri/2009/osb" xmlns="http://www.w3.org/2000/svg" height="24" viewBox="0 0 24 24" width="24"><title>Template icons dark</title><defs><linearGradient id="g" osb:paint="solid"><stop offset="0" stop-opacity=".196"/></linearGradient><linearGradient id="f" osb:paint="solid"><stop offset="0" stop-color="#fff" stop-opacity=".782"/></linearGradient><linearGradient id="e" osb:paint="solid"><stop offset="0" stop-opacity="0"/></linearGradient><linearGradient id="d" osb:paint="solid"><stop offset="0" stop-opacity=".157"/></linearGradient><linearGradient id="b"><stop offset="0" stop-color="#fff"/><stop offset="1" stop-color="#dfdfdf"/></linearGradient><linearGradient id="a"><stop offset="0" stop-color="#f0f0f0"/><stop offset="1" stop-color="#fff"/></linearGradient><linearGradient id="c"><stop offset="0" stop-opacity="0"/><stop offset="1" stop-opacity=".038"/></linearGradient><linearGradient id="h" osb:paint="solid"><stop offset="0" stop-opacity=".084"/></linearGradient></defs><path style="line-height:1000%;font-variant-east_asian:normal" d="M13.298 12.097q-2.79 0-3.865.638-1.076.638-1.076 2.177 0 1.226.8 1.951.814.713 2.202.713 1.914 0 3.065-1.35 1.163-1.364 1.163-3.616v-.513zm4.591-.95v7.993h-2.302v-2.127q-.788 1.276-1.964 1.889-1.175.6-2.877.6-2.151 0-3.427-1.2-1.263-1.214-1.263-3.24 0-2.364 1.576-3.565 1.588-1.201 4.728-1.201h3.227v-.225q0-1.589-1.05-2.452-1.039-.876-2.927-.876-1.201 0-2.34.288-1.138.288-2.189.863V5.768q1.264-.488 2.452-.726 1.188-.25 2.314-.25 3.04 0 4.541 1.576 1.501 1.576 1.501 4.778z" font-size="53.333" font-family="sans-serif" letter-spacing="0" word-spacing="0" fill="#3f89df" stroke="#3d88df" stroke-width=".313"/></svg>