<svg xmlns:osb="http://www.openswatchbook.org/uri/2009/osb" xmlns="http://www.w3.org/2000/svg" height="24" viewBox="0 0 24 24" width="24"><title>Template icons dark</title><defs><linearGradient id="g" osb:paint="solid"><stop offset="0" stop-opacity=".196"/></linearGradient><linearGradient id="f" osb:paint="solid"><stop offset="0" stop-color="#fff" stop-opacity=".052"/></linearGradient><linearGradient id="e" osb:paint="solid"><stop offset="0" stop-opacity=".009"/></linearGradient><linearGradient id="d" osb:paint="solid"><stop offset="0" stop-opacity=".022"/></linearGradient><linearGradient id="b"><stop offset="0" stop-color="#525764"/><stop offset="1" stop-color="#464c57"/></linearGradient><linearGradient id="a"><stop offset="0" stop-color="#494f5a"/><stop offset="1" stop-color="#494e5a"/></linearGradient><linearGradient id="c"><stop offset="0" stop-opacity="0"/><stop offset="1" stop-opacity=".102"/></linearGradient></defs><g font-weight="400" font-family="Monaco" letter-spacing="0" word-spacing="0" fill-opacity=".937"><path d="M6 5v4l-4.429 3.071L6 15v4c0 1 1 2 2 2h3v-1H8c-.604 0-1-.47-1-1v-5l-3-2 3-2V4.991C7 4.418 7.318 4 7.99 4H11V3H8C7 3 6 4 6 5z" style="line-height:1000%;-inkscape-font-specification:Monaco" fill="#9942b8" stroke-width="2.274"/><path style="line-height:1000%;-inkscape-font-specification:Monaco;font-variant-east_asian:normal" d="M18 5v4l4.429 3.071L18 15v4c0 1-1 2-2 2h-3v-1h3c.604 0 1-.47 1-1v-5l3-2-3-2V4.991c0-.573-.318-.991-.99-.991H13V3h3c1 0 2 1 2 2z" fill="#567b99" stroke-width="2.268"/></g></svg>