<svg xmlns:osb="http://www.openswatchbook.org/uri/2009/osb" xmlns="http://www.w3.org/2000/svg" xmlns:xlink="http://www.w3.org/1999/xlink" height="96" viewBox="0 0 96 96" width="96"><title>Template icons dark</title><defs><linearGradient id="a"><stop offset="0" stop-color="#e1e3e7"/><stop offset=".21" stop-color="#dee1e4"/><stop offset=".38" stop-color="#f1f2f3"/><stop offset=".67" stop-color="#c2c6cd"/><stop offset="1" stop-color="#d7dadf"/></linearGradient><linearGradient xlink:href="#b" id="f" x1="160.063" y1="200" x2="160" y2="196.534" gradientUnits="userSpaceOnUse"/><linearGradient id="b"><stop offset="0" stop-color="#eeda60"/><stop offset="1" stop-color="#db9918"/></linearGradient><linearGradient gradientTransform="matrix(2.09824 0 0 2.09824 109.705 109.705)" xlink:href="#a" id="e" x1="9.196" y1="4.43" x2="37.228" y2="44" gradientUnits="userSpaceOnUse"/><linearGradient gradientTransform="translate(-3 444)" xlink:href="#c" id="d" x1="3" y1="-436.5" x2="15" y2="-436.5" gradientUnits="userSpaceOnUse"/><linearGradient id="c" osb:paint="solid"><stop offset="0"/></linearGradient></defs><path d="M126.047 116L126 204h17.055l2.945-3h28l3 3h17l.079-88z" style="marker:none" opacity=".05" fill="url(#d)" stroke-width=".13" stroke-linecap="round" stroke-linejoin="round" stroke-opacity=".964" transform="translate(-112 -112)"/><path d="M15 5v86h16.055L36 84h23.977L65 91h16V5z" fill="#8b93a1" stroke-width="2.861" stroke-opacity=".24"/><path d="M128 118v84h15l5.026-6h23.951l5.023 6h15v-84z" fill="url(#e)" stroke-width="2.098" stroke-opacity=".24" transform="translate(-112 -112)"/><path d="M36 84l-3.329 4h30.652l-3.346-4z" fill="#6c7587" fill-rule="evenodd" stroke-width="2.098"/><path style="isolation:auto;mix-blend-mode:normal;marker:none" d="M148 196v4h2v-4zm4.008 0v4h2.006v-4zm3.992 0v4h2v-4zm6 0v4h2v-4zm4 0v4.016l2-.016v-4zm4 0v4h2v-4z" color="#000" display="block" overflow="visible" fill="url(#f)" stroke-width=".273" stroke-linecap="round" stroke-linejoin="round" stroke-opacity=".964" transform="translate(-112 -112)"/><path d="M36 84l-1.68 2h27.33l-1.673-2z" fill-opacity=".247" fill-rule="evenodd" stroke-width="1.474"/><path style="isolation:auto;mix-blend-mode:normal;marker:none" d="M31 23h34v50H31z" color="#000" display="block" overflow="visible" fill-opacity=".078" stroke-width=".26" stroke-linecap="round" stroke-linejoin="round" stroke-opacity=".964"/><path style="isolation:auto;mix-blend-mode:normal;marker:none" d="M31 73h34v1H31z" color="#000" overflow="visible" fill="#fff" fill-opacity=".5" stroke-linecap="square" stroke-dasharray="2,2" stroke-dashoffset="9.739" paint-order="markers stroke fill"/><path d="M20 48a2 2 0 0 1 2.004 2.004A2 2 0 0 1 20 52.007a2 2 0 0 1-2.004-2.003A2 2 0 0 1 20 48zM20 84a2 2 0 0 1 2.004 2.004A2 2 0 0 1 20 88.007a2 2 0 0 1-2.004-2.003A2 2 0 0 1 20 84zM76 8a2 2 0 0 1 2.004 2.004A2 2 0 0 1 76 12.007a2 2 0 0 1-2.004-2.003A2 2 0 0 1 76 8zM76 48a2 2 0 0 1 2.004 2.004A2 2 0 0 1 76 52.007a2 2 0 0 1-2.004-2.003A2 2 0 0 1 76 48zM76 84a2 2 0 0 1 2.004 2.004A2 2 0 0 1 76 88.007a2 2 0 0 1-2.004-2.003A2 2 0 0 1 76 84zM20 8a2 2 0 0 1 2.004 2.004A2 2 0 0 1 20 12.007a2 2 0 0 1-2.004-2.003A2 2 0 0 1 20 8z" fill="#737373" stroke-width="2.672" stroke-opacity=".643"/><path d="M20 8a2 2 0 0 0-2.004 2.004c0 .098.016.191.03.285a1.993 1.993 0 0 1 3.949 0c.013-.094.029-.187.029-.285A2 2 0 0 0 20 8zm56 0a2 2 0 0 0-2.004 2.004c0 .098.016.191.03.285a1.993 1.993 0 0 1 3.949 0c.013-.094.029-.187.029-.285A2 2 0 0 0 76 8zM20 48a2 2 0 0 0-2.004 2.004c0 .098.016.191.03.285a1.993 1.993 0 0 1 3.949 0c.013-.094.029-.187.029-.285A2 2 0 0 0 20 48zm56 0a2 2 0 0 0-2.004 2.004c0 .098.016.191.03.285a1.993 1.993 0 0 1 3.949 0c.013-.094.029-.187.029-.285A2 2 0 0 0 76 48zM20 84a2 2 0 0 0-2.004 2.004c0 .098.016.191.03.285a1.993 1.993 0 0 1 3.949 0c.013-.094.029-.187.029-.285A2 2 0 0 0 20 84zm56 0a2 2 0 0 0-2.004 2.004c0 .098.016.191.03.285a1.993 1.993 0 0 1 3.949 0c.013-.094.029-.187.029-.285A2 2 0 0 0 76 84z" fill-opacity=".462" stroke-width="2.672" stroke-opacity=".643"/><path style="isolation:auto;mix-blend-mode:normal;marker:none" d="M20 9a1 1 0 0 0-1 1 1 1 0 0 0 1 1 1 1 0 0 0 1-1 1 1 0 0 0-1-1zm56 0a1 1 0 0 0-1 1 1 1 0 0 0 1 1 1 1 0 0 0 1-1 1 1 0 0 0-1-1zM20 49a1 1 0 0 0-1 1 1 1 0 0 0 1 1 1 1 0 0 0 1-1 1 1 0 0 0-1-1zm56 0a1 1 0 0 0-1 1 1 1 0 0 0 1 1 1 1 0 0 0 1-1 1 1 0 0 0-1-1zM20 85a1 1 0 0 0-1 1 1 1 0 0 0 1 1 1 1 0 0 0 1-1 1 1 0 0 0-1-1zm56 .037a1 1 0 0 0-1 1 1 1 0 0 0 1 1 1 1 0 0 0 1-1 1 1 0 0 0-1-1z" color="#000" display="block" overflow="visible" fill="#fff" fill-opacity=".275" stroke-width=".379" stroke-opacity=".28" paint-order="fill markers stroke"/><path style="isolation:auto;mix-blend-mode:normal;marker:none" color="#000" display="block" overflow="visible" fill-opacity=".286" stroke-linecap="square" stroke-dasharray="2,2" stroke-dashoffset="9.739" paint-order="markers stroke fill" d="M31 23h34v1H31z"/></svg>