<svg xmlns="http://www.w3.org/2000/svg" viewBox="0 0 24 24" id="svg6"><defs id="defs3051"><style id="current-color-scheme">.ColorScheme-Text{color:#f2f2f2}</style></defs><path d="M12 1c-.26 0-.519.1-.713.3L.295 12.58c-.389.4-.295 1.402.44 1.42H3v7c0 .554.446 1 1 1h5.99l.01-6h4v6h6c.554 0 1-.446 1-1v-7h2c1.126 0 1.094-1.02.705-1.42L20 8.777V4h-4v.674L12.713 1.3A.991.991 0 0 0 12 1z" id="path844" fill="#030505" fill-opacity=".031" fill-rule="evenodd"/><rect style="isolation:auto;mix-blend-mode:normal;marker:none;font-variant-east_asian:normal" id="rect830" width="6" height="7" x="9" y="14" ry="0" color="#000" display="block" overflow="visible" fill="#6c7482" stroke-width="1.44"/><path style="isolation:auto;mix-blend-mode:normal;marker:none" d="M20 13v7c0 .554-.446 1-1 1h-5v-6h-4l-.01 6H5c-.554 0-1-.446-1-1v-7z" id="rect820" color="#000" display="block" overflow="visible" fill="#6c7482" stroke-width="1.44"/><path style="isolation:auto;mix-blend-mode:normal;marker:none" d="M12.714 2.3l9.992 10.28c.389.4.42 1.42-.706 1.42H1.734c-.734-.018-.829-1.02-.44-1.42L11.286 2.3a1 1 0 0 1 1.428 0z" id="rect824" color="#000" display="block" overflow="visible" fill="#6c7482" stroke-width="1.45"/><path d="M17 5h2v3l-2-2z" id="path828" fill="#6c7482" fill-rule="evenodd"/></svg>