<svg xmlns:osb="http://www.openswatchbook.org/uri/2009/osb" xmlns="http://www.w3.org/2000/svg" xmlns:xlink="http://www.w3.org/1999/xlink" height="24" viewBox="0 0 23.999998 23.999998" width="24"><title>Template icons dark</title><defs><linearGradient id="f" osb:paint="solid"><stop offset="0"/></linearGradient><linearGradient id="c" osb:paint="solid"><stop offset="0" stop-opacity=".018"/></linearGradient><linearGradient id="e"><stop offset="0" stop-opacity=".128"/><stop offset="1" stop-opacity=".392"/></linearGradient><linearGradient id="a"><stop offset="0" stop-color="#66a3e2"/><stop offset="1" stop-color="#69a5e3"/></linearGradient><linearGradient id="b" osb:paint="solid"><stop offset="0" stop-color="#525e7d"/></linearGradient><linearGradient id="d"><stop offset="0" stop-opacity="0"/><stop offset=".25" stop-opacity=".091"/><stop offset="1" stop-opacity="0"/></linearGradient><linearGradient id="j" osb:paint="solid"><stop offset="0" stop-color="#4b78a7"/></linearGradient><linearGradient id="g"><stop offset="0" stop-color="#404552" stop-opacity="0"/><stop offset="1" stop-color="#404552" stop-opacity=".839"/></linearGradient><linearGradient id="h"><stop offset="0" stop-color="#404552" stop-opacity=".036"/><stop offset="1" stop-color="#404552" stop-opacity=".979"/></linearGradient><linearGradient id="i"><stop offset="0" stop-color="#828282"/><stop offset=".253" stop-color="#fff"/><stop offset=".522" stop-color="#717171"/><stop offset=".785" stop-color="#717171"/><stop offset="1" stop-color="#4c4c4c"/></linearGradient><linearGradient xlink:href="#j" id="o" gradientUnits="userSpaceOnUse" gradientTransform="matrix(.66667 0 0 .66667 150.848 14)" x1="-153.424" y1="-84" x2="-129.424" y2="-84"/><linearGradient xlink:href="#c" id="m" gradientUnits="userSpaceOnUse" gradientTransform="translate(212 -27.966)" x1="-30" y1="-16" x2="-2" y2="-16"/><linearGradient xlink:href="#b" id="l" gradientUnits="userSpaceOnUse" gradientTransform="matrix(1.01967 0 0 1.03029 22.062 -249.763)" x1="64.666" y1="133.777" x2="88.203" y2="133.777"/><linearGradient xlink:href="#a" id="n" gradientUnits="userSpaceOnUse" gradientTransform="matrix(-1 0 0 1 184.023 -31.935)" x1="-11.725" y1="3.969" x2="-11.725" y2="7.969"/><linearGradient xlink:href="#c" id="k" gradientUnits="userSpaceOnUse" gradientTransform="translate(212 -27.966)" x1="-30" y1="-16" x2="-2" y2="-16"/></defs><path style="marker:none" d="M185-54.966c-.537 0-1 .457-1 1v20c0 .5.5 1 1 1 6.607-.016 21.5 0 22 0s1-.498 1-1v-17c0-.5-.5-1-1-1h-10l-3-3z" fill="url(#k)" paint-order="fill markers stroke" transform="translate(-184 56)"/><path d="M186-53.966c-.537 0-1 .457-1 1v18c0 .5.5 1 1 1 6.607-.016 19.5 0 20 0s1-.498 1-1v-15c0-.5-.5-1-1-1h-9l-3-3z" style="marker:none" fill="url(#l)" paint-order="fill markers stroke" transform="translate(-184 56)"/><path style="line-height:normal;font-variant-ligatures:normal;font-variant-position:normal;font-variant-caps:normal;font-variant-numeric:normal;font-variant-alternates:normal;font-feature-settings:normal;text-indent:0;text-align:start;text-decoration-line:none;text-decoration-style:solid;text-decoration-color:#000;text-transform:none;text-orientation:mixed;shape-padding:0;isolation:auto;mix-blend-mode:normal;marker:none" d="M197-50.966l-2 2h-9c-1 0-1 1-1 2 0 0 .076-.93 1-1 3.694.018 5.17-.03 9 0l3-3z" color="#000" font-weight="400" font-family="sans-serif" white-space="normal" overflow="visible" fill="url(#m)" fill-rule="evenodd" paint-order="fill markers stroke" transform="translate(-184 56)"/><path style="marker:none" d="M206-50.966c.537 0 1 .457 1 1v15c0 .5-.5 1-1 1-6.607-.016-19.5 0-20 0s-1-.498-1-1v-12c0-.5.5-1 1-1h9l3-3z" fill="url(#n)" paint-order="fill markers stroke" transform="translate(-184 56)"/><path style="marker:none" d="M196.525-47a5.525 5.525 0 1 0 0 11.05 5.525 5.525 0 0 0 0-11.05zm0 .998a4.528 4.528 0 1 1 0 9.055 4.528 4.528 0 0 1 0-9.055zM196-45v5h4v-1h-3v-4z" color="#000" fill="url(#o)" fill-rule="evenodd" paint-order="fill markers stroke" transform="translate(-184 56)"/></svg>