<svg xmlns="http://www.w3.org/2000/svg" height="24" viewBox="0 0 24 24" width="24"><title>Template icons dark</title><g transform="translate(56 56)"><path fill="none" d="M-56-56h24v24h-24z"/><rect ry="1.231" rx="1.32" width="18" height="20" x="-53" y="-54" fill="#636a78" stroke-opacity=".267"/><rect y="-54.5" x="-53.5" height="20.999" width="19.001" rx="2" ry="2" fill="none" stroke="#272a2f" stroke-opacity=".784"/><path style="font-variant-east_asian:normal" d="M-50.51-51.48c-.554 0-1 .446-1 1v3.968c0 .554.446 1 1 1h13.02c.554 0 1-.446 1-1v-3.968c0-.554-.446-1-1-1zm-.002 8.992c-.554 0-1 .446-1 1v3.968c0 .554.446 1 1 1h13.022c.554 0 1-.446 1-1v-3.968c0-.554-.446-1-1-1z" fill-opacity=".157" stroke="#484e57"/><path d="M-50-49.996v3h1v-3zm2 0v3h1v-3zm-2 8.992v3h1v-3zm2 0v3h1v-3zM-38.5-48.996a.5.5 0 0 0-.5.5.5.5 0 0 0 .5.5.5.5 0 0 0 .5-.5.5.5 0 0 0-.5-.5zm0 8.992a.5.5 0 0 0-.5.5.5.5 0 0 0 .5.5.5.5 0 0 0 .5-.5.5.5 0 0 0-.5-.5z" opacity=".64" stroke-width=".183" stroke-opacity=".784"/><path d="M-40.5-48.996a.5.5 0 0 0-.5.5.5.5 0 0 0 .5.5.5.5 0 0 0 .5-.5.5.5 0 0 0-.5-.5zm0 8.992a.5.5 0 0 0-.5.5.5.5 0 0 0 .5.5.5.5 0 0 0 .5-.5.5.5 0 0 0-.5-.5z" fill="#2bddd7" stroke-width=".183" stroke-opacity=".784"/><path d="M-46-48.996v1h4v-1zm0 8.992v1h4v-1z" opacity=".64" stroke-width=".183" stroke-opacity=".784"/></g></svg>