<svg xmlns="http://www.w3.org/2000/svg" xmlns:xlink="http://www.w3.org/1999/xlink" height="24" viewBox="0 0 24 24" width="24"><title>Template icons dark</title><defs><linearGradient id="a"><stop offset="0" stop-color="#4ba8dc"/><stop offset="1" stop-color="#32b69b"/></linearGradient><radialGradient xlink:href="#a" id="b" cx="15.714" cy="18.264" fx="15.714" fy="18.264" r="21.545" gradientUnits="userSpaceOnUse" gradientTransform="matrix(1.44363 0 0 1.40984 -6.612 -7.471)"/></defs><path d="M-32-44c0-6.627-5.373-12-12-12s-12 5.373-12 12 5.373 12 12 12 12-5.373 12-12" fill="url(#b)" stroke-width=".027" transform="translate(56 56)"/><path d="M11.707.168L9.561.216 7.66.752l1.366.195 1.121-.195.196.537.244.536-.44.44.097.877.684.194.439-1.024.829-.145.926-.634-.732-1.17zM6.879 1.192l-1.756.682-2.827 2.048L1.125 5.92.199 7.433l.048 3.608.39-.195.099-1.659.34 2.586.1.058.875.526.83.634.585.78 1.15-.137-.176.187.245.975-.586.536.146.686.05.24 1.073 1.853.633.099.537.486.39 1.903.244 1.023.878 1.365 1.365.781-.585-.926-.196-.976.733-.878.585-1.56.925-.146.585-1.902.732-.683-.633-.877-2.245-.44-.049-.18-.242-.893-1.074-.048-.682-.828-.876-.05-1.172-.39-.575.61-.839-.511-.243-.78-.83-.294.177-.6.068-.228-.527.36-.254.177-.107-.082-.283-.211.05-1.66 1.266-.585.586.099.145 1.121.585-.098.148-1.852.974-.293v-.878l1.122-.877 1.22-.05-.44-.926 1.659-.585-1.024-1.317-.634.293-.196-.926-.634.195-.926 1.853-.34-.732-.636-.585 1.415-.975s.975-.34 1.17-.34c.195 0 .585.438.585.438l.78-.586-.243-.682-.975.097zm10.533.438l-1.074.147.342 1.852.78.098.78.634v-.682l-.682-1.025 1.365.877.05 1.123-1.22.145-.536 1.024.537.927-1.268-.146.244 1.462.73.342.879-.83.145-1.072.586.147.634.633-.44.635.37.098.363.096.244-.731.389.731.488-.536.39.83.73.194-.047.927-1.073-.44-.245.293-1.316-.487-.239-.446-.102-.188-1.95.44-1.512 2.242.096.96.1.99 1.462 1.413 1.511-.243.732.83-.439 1.315.341 1.61-.975 1.365-.878 2.097 1.317-.243 2.097-2 1.025-1.902.682-1.95.779-.879-.633-.632-.585-3.463.682 1.317v1.706l.634-.731-.194-2.39-.489-1.365-.487-1.9-1.243-1.778-.32-.456-.875-1.376-1.755-.878z" fill="#fff" fill-opacity=".896" stroke-width=".015"/></svg>