<svg xmlns="http://www.w3.org/2000/svg" xmlns:xlink="http://www.w3.org/1999/xlink" height="24" viewBox="0 0 24 24" width="24"><title>Template icons dark</title><defs><linearGradient id="o"><stop offset="0" stop-opacity=".11"/><stop offset=".59" stop-opacity=".154"/><stop offset="1" stop-opacity="0"/></linearGradient><linearGradient id="n"><stop offset="0" stop-color="#fff"/><stop offset=".193" stop-color="#e0e0e0" stop-opacity=".918"/><stop offset=".493" stop-color="#c4c4c4" stop-opacity=".896"/><stop offset=".786" stop-color="#e0e0e0" stop-opacity=".945"/><stop offset="1" stop-color="#fff"/></linearGradient><linearGradient id="m"><stop offset="0" stop-color="#a3afbb"/><stop offset="1" stop-color="#73787d"/></linearGradient><linearGradient id="f"><stop offset="0" stop-color="#eceaea"/><stop offset="1" stop-color="#5e5e5e" stop-opacity=".729"/></linearGradient><linearGradient id="e"><stop offset="0" stop-color="#b7aaa5"/><stop offset="1" stop-color="#282828" stop-opacity=".828"/></linearGradient><linearGradient id="d"><stop offset="0" stop-color="#fff" stop-opacity="0"/><stop offset=".522" stop-color="#fff" stop-opacity=".161"/><stop offset="1" stop-color="#eee" stop-opacity="0"/></linearGradient><linearGradient id="c"><stop offset="0" stop-color="#4d4d4d"/><stop offset=".279" stop-color="#141414"/><stop offset=".515" stop-color="#494949"/><stop offset="1" stop-color="#f0f0f0"/></linearGradient><linearGradient id="b"><stop offset="0" stop-color="#fff" stop-opacity=".349"/><stop offset="1" stop-opacity=".453"/></linearGradient><linearGradient id="a"><stop offset="0" stop-color="#454545"/><stop offset=".327" stop-color="#404040"/><stop offset=".77" stop-color="#393939"/><stop offset="1" stop-color="#c6c6c6"/></linearGradient><linearGradient id="i"><stop offset="0"/><stop offset="1" stop-opacity="0"/></linearGradient><linearGradient id="g"><stop offset="0" stop-color="#555753"/><stop offset="1" stop-color="#d3d7cf" stop-opacity="0"/></linearGradient><linearGradient id="p"><stop offset="0" stop-color="#fff"/><stop offset="1" stop-color="#91999f"/></linearGradient><linearGradient id="q"><stop offset="0" stop-color="#dfe2dc"/><stop offset="1" stop-color="#86917a"/></linearGradient><linearGradient id="h"><stop offset="0" stop-color="#939a9d"/><stop offset="1" stop-color="#fff"/></linearGradient><linearGradient id="j"><stop offset="0" stop-color="#f8f8f8" stop-opacity=".155"/><stop offset=".498" stop-color="#b0b2b6" stop-opacity=".175"/><stop offset=".838" stop-color="#5b5e62" stop-opacity=".33"/><stop offset="1" stop-color="#fff" stop-opacity=".155"/></linearGradient><linearGradient id="k"><stop offset="0" stop-color="#e6e7e7"/><stop offset="1" stop-color="#676b73"/></linearGradient><linearGradient id="l"><stop offset="0" stop-color="silver"/><stop offset="1" stop-color="#abacb0"/></linearGradient><linearGradient xlink:href="#m" id="s" x1="161" y1="126" x2="161" y2="141" gradientUnits="userSpaceOnUse" gradientTransform="matrix(.267 0 0 .267 -86.754 -87.506)"/><linearGradient gradientTransform="matrix(.267 0 0 .267 -86.754 -86.17)" xlink:href="#n" id="r" x1="127.937" y1="160" x2="192.189" y2="160" gradientUnits="userSpaceOnUse"/></defs><g color="#000" stroke-linecap="round" stroke-linejoin="round"><path d="M22.057 4.14L18.86 21.236c-2.178 4.652-12.934 3.18-13.746 0L1.92 4.139c0-4.204 20.137-4.107 20.137 0z" style="isolation:auto;mix-blend-mode:normal;marker:none" overflow="visible" fill-opacity=".082" stroke-width=".049" stroke-opacity=".964"/><path style="isolation:auto;mix-blend-mode:normal;marker:none" d="M-34.42-51.46l-3.045 16.288c-2.074 4.432-12.321 3.03-13.094 0l-3.044-16.287c0-4.006 19.182-3.913 19.182 0z" overflow="visible" fill="url(#r)" stroke-width=".047" stroke-opacity=".964" transform="translate(56 56)"/><path d="M21.58 4.54l-.51 2.725C16.506 9.614 7.962 9.88 2.901 7.24l-.504-2.7c0-4.004 19.182-3.912 19.182 0z" style="isolation:auto;mix-blend-mode:normal;marker:none" overflow="visible" fill="#434666" fill-opacity=".275" stroke-width=".047" stroke-opacity=".964"/><path style="isolation:auto;mix-blend-mode:normal;marker:none" d="M-34.787-51.695a9.208 2.434 0 0 1-9.209 2.434 9.208 2.434 0 0 1-9.208-2.434 9.208 2.434 0 0 1 9.208-2.435 9.208 2.434 0 0 1 9.209 2.435z" overflow="visible" fill="url(#s)" stroke="#fff" stroke-width=".401" transform="translate(56 56)"/><path style="isolation:auto;mix-blend-mode:normal;marker:none" d="M21.067 4.148a8.998 2.434 0 0 1-8.977 2.324 8.998 2.434 0 0 1-8.978-2.278 8.998 2.434 0 0 0-.02.11A8.998 2.434 0 0 0 12.09 6.74a8.998 2.434 0 0 0 8.998-2.435 8.998 2.434 0 0 0-.021-.156z" overflow="visible" fill-opacity=".181" stroke-width=".396"/></g></svg>