<svg xmlns:osb="http://www.openswatchbook.org/uri/2009/osb" xmlns="http://www.w3.org/2000/svg" xmlns:xlink="http://www.w3.org/1999/xlink" height="24" viewBox="0 0 23.999998 23.999998" width="24"><title>Template icons dark</title><defs><linearGradient id="f" osb:paint="solid"><stop offset="0"/></linearGradient><linearGradient id="c" osb:paint="solid"><stop offset="0" stop-opacity=".018"/></linearGradient><linearGradient id="e"><stop offset="0" stop-opacity=".128"/><stop offset="1" stop-opacity=".392"/></linearGradient><linearGradient id="a"><stop offset="0" stop-color="#66a3e2"/><stop offset="1" stop-color="#69a5e3"/></linearGradient><linearGradient id="b" osb:paint="solid"><stop offset="0" stop-color="#525e7d"/></linearGradient><linearGradient id="d"><stop offset="0" stop-opacity="0"/><stop offset=".25" stop-opacity=".091"/><stop offset="1" stop-opacity="0"/></linearGradient><linearGradient id="j" osb:paint="solid"><stop offset="0" stop-color="#4b78a7"/></linearGradient><linearGradient id="g"><stop offset="0" stop-color="#404552" stop-opacity="0"/><stop offset="1" stop-color="#404552" stop-opacity=".839"/></linearGradient><linearGradient id="h"><stop offset="0" stop-color="#404552" stop-opacity=".036"/><stop offset="1" stop-color="#404552" stop-opacity=".979"/></linearGradient><linearGradient id="i"><stop offset="0" stop-color="#828282"/><stop offset=".253" stop-color="#fff"/><stop offset=".522" stop-color="#717171"/><stop offset=".785" stop-color="#717171"/><stop offset="1" stop-color="#4c4c4c"/></linearGradient><linearGradient xlink:href="#c" id="m" gradientUnits="userSpaceOnUse" gradientTransform="translate(44 -28)" x1="-30" y1="-16" x2="-2" y2="-16"/><linearGradient xlink:href="#b" id="l" gradientUnits="userSpaceOnUse" gradientTransform="matrix(1.01967 0 0 1.03029 -145.938 -249.797)" x1="64.666" y1="133.777" x2="88.203" y2="133.777"/><linearGradient xlink:href="#a" id="n" gradientUnits="userSpaceOnUse" gradientTransform="matrix(-1 0 0 1 16.023 -31.97)" x1="-11.725" y1="3.969" x2="-11.725" y2="7.969"/><linearGradient xlink:href="#c" id="k" gradientUnits="userSpaceOnUse" gradientTransform="translate(44 -28)" x1="-30" y1="-16" x2="-2" y2="-16"/><linearGradient gradientTransform="matrix(.27252 0 0 .27252 -179.354 -72.43)" xlink:href="#j" id="o" x1="428" y1="162.5" x2="468.094" y2="162.5" gradientUnits="userSpaceOnUse"/></defs><path style="marker:none" d="M17-55c-.537 0-1 .457-1 1v20c0 .5.5 1 1 1 6.607-.017 21.5 0 22 0s1-.499 1-1v-17c0-.5-.5-1-1-1H29l-3-3z" fill="url(#k)" paint-order="fill markers stroke" transform="translate(-16 56)"/><path d="M18-54c-.537 0-1 .457-1 1v18c0 .5.5 1 1 1 6.607-.017 19.5 0 20 0s1-.499 1-1v-15c0-.5-.5-1-1-1h-9l-3-3z" style="marker:none" fill="url(#l)" paint-order="fill markers stroke" transform="translate(-16 56)"/><path style="line-height:normal;font-variant-ligatures:normal;font-variant-position:normal;font-variant-caps:normal;font-variant-numeric:normal;font-variant-alternates:normal;font-feature-settings:normal;text-indent:0;text-align:start;text-decoration-line:none;text-decoration-style:solid;text-decoration-color:#000;text-transform:none;text-orientation:mixed;shape-padding:0;isolation:auto;mix-blend-mode:normal;marker:none" d="M29-51l-2 2h-9c-1 0-1 1-1 2 0 0 .076-.93 1-1 3.694.018 5.17-.03 9 0l3-3z" color="#000" font-weight="400" font-family="sans-serif" white-space="normal" overflow="visible" fill="url(#m)" fill-rule="evenodd" paint-order="fill markers stroke" transform="translate(-16 56)"/><path style="marker:none" d="M38-51c.537 0 1 .457 1 1v15c0 .5-.5 1-1 1-6.607-.017-19.5 0-20 0s-1-.499-1-1v-12c0-.5.5-1 1-1h9l3-3z" fill="url(#n)" paint-order="fill markers stroke" transform="translate(-16 56)"/><path style="isolation:auto;mix-blend-mode:normal;marker:none" d="M34.579-36c0-1.994-3.384-2.822-4.734-3.184 0 0 .056-1.118.186-1.528.13-.41.15-.876.205-1.007.056-.13.715-.726.752-1.286-.009-.333-.074-.412-.24-.412v-1.733c0-.936-1.363-1.753-2.258-1.753-.896 0-2.26.817-2.26 1.753v1.733c-.164 0-.23.079-.24.412.038.56.697 1.156.753 1.286.056.13.074.597.205 1.007.13.41.186 1.528.186 1.528-1.35.362-4.733 1.19-4.733 3.184z" color="#000" overflow="visible" fill="url(#o)" transform="translate(-16 56)"/></svg>