<svg xmlns="http://www.w3.org/2000/svg" xmlns:xlink="http://www.w3.org/1999/xlink" height="24" viewBox="0 0 24 24" width="24"><title>Template icons dark</title><defs><linearGradient id="r"><stop offset="0" stop-color="#fff"/><stop offset=".169" stop-color="#fbfbfb"/><stop offset=".265" stop-color="#c3c3c3"/><stop offset=".35" stop-color="#f9f9f9"/><stop offset=".588" stop-color="#f5f5f5"/><stop offset=".7" stop-color="#c1c1c1"/><stop offset=".809" stop-color="#f7f7f7"/><stop offset="1" stop-color="#fff"/></linearGradient><linearGradient id="q"><stop offset="0" stop-opacity=".137"/><stop offset=".508" stop-opacity=".154"/><stop offset="1" stop-opacity="0"/></linearGradient><linearGradient id="p"><stop offset="0" stop-opacity=".11"/><stop offset=".59" stop-opacity=".154"/><stop offset="1" stop-opacity="0"/></linearGradient><linearGradient id="o"><stop offset="0" stop-opacity="0"/><stop offset=".453" stop-opacity=".198"/><stop offset="1" stop-opacity="0"/></linearGradient><linearGradient id="n"><stop offset="0" stop-color="#fff"/><stop offset=".193" stop-color="#e0e0e0" stop-opacity=".918"/><stop offset=".493" stop-color="#c4c4c4" stop-opacity=".896"/><stop offset=".786" stop-color="#e0e0e0" stop-opacity=".945"/><stop offset="1" stop-color="#fff"/></linearGradient><linearGradient id="m"><stop offset="0" stop-color="#a3afbb"/><stop offset="1" stop-color="#73787d"/></linearGradient><linearGradient id="f"><stop offset="0" stop-color="#eceaea"/><stop offset="1" stop-color="#5e5e5e" stop-opacity=".729"/></linearGradient><linearGradient id="e"><stop offset="0" stop-color="#b7aaa5"/><stop offset="1" stop-color="#282828" stop-opacity=".828"/></linearGradient><linearGradient id="d"><stop offset="0" stop-color="#fff" stop-opacity="0"/><stop offset=".522" stop-color="#fff" stop-opacity=".161"/><stop offset="1" stop-color="#eee" stop-opacity="0"/></linearGradient><linearGradient id="c"><stop offset="0" stop-color="#4d4d4d"/><stop offset=".279" stop-color="#141414"/><stop offset=".515" stop-color="#494949"/><stop offset="1" stop-color="#f0f0f0"/></linearGradient><linearGradient id="b"><stop offset="0" stop-color="#fff" stop-opacity=".349"/><stop offset="1" stop-opacity=".453"/></linearGradient><linearGradient id="a"><stop offset="0" stop-color="#454545"/><stop offset=".327" stop-color="#404040"/><stop offset=".77" stop-color="#393939"/><stop offset="1" stop-color="#c6c6c6"/></linearGradient><linearGradient id="i"><stop offset="0"/><stop offset="1" stop-opacity="0"/></linearGradient><linearGradient id="g"><stop offset="0" stop-color="#555753"/><stop offset="1" stop-color="#d3d7cf" stop-opacity="0"/></linearGradient><linearGradient id="s"><stop offset="0" stop-color="#fff"/><stop offset="1" stop-color="#91999f"/></linearGradient><linearGradient id="t"><stop offset="0" stop-color="#dfe2dc"/><stop offset="1" stop-color="#86917a"/></linearGradient><linearGradient id="h"><stop offset="0" stop-color="#939a9d"/><stop offset="1" stop-color="#fff"/></linearGradient><linearGradient id="j"><stop offset="0" stop-color="#f8f8f8" stop-opacity=".155"/><stop offset=".498" stop-color="#b0b2b6" stop-opacity=".175"/><stop offset=".838" stop-color="#5b5e62" stop-opacity=".33"/><stop offset="1" stop-color="#fff" stop-opacity=".155"/></linearGradient><linearGradient id="k"><stop offset="0" stop-color="#e6e7e7"/><stop offset="1" stop-color="#676b73"/></linearGradient><linearGradient id="l"><stop offset="0" stop-color="silver"/><stop offset="1" stop-color="#abacb0"/></linearGradient><linearGradient xlink:href="#r" id="N" x1="128" y1="133.199" x2="192.472" y2="133.199" gradientUnits="userSpaceOnUse" gradientTransform="matrix(.267 0 0 .267 -86.709 -86.308)"/><linearGradient xlink:href="#m" id="M" x1="161" y1="126" x2="161" y2="141" gradientUnits="userSpaceOnUse" gradientTransform="matrix(.267 0 0 .267 -86.754 -87.506)"/><linearGradient gradientTransform="matrix(.267 0 0 .267 -86.754 -86.17)" xlink:href="#n" id="L" x1="127.937" y1="160" x2="192.189" y2="160" gradientUnits="userSpaceOnUse"/><linearGradient xlink:href="#h" id="x" gradientUnits="userSpaceOnUse" gradientTransform="matrix(-1 0 0 1 -164.713 28.24)" x1="22.009" y1="36.51" x2="23.585" y2="14.412"/><linearGradient xlink:href="#h" id="y" gradientUnits="userSpaceOnUse" gradientTransform="matrix(-1 0 0 1 -164.713 28.24)" x1="24.366" y1="20.246" x2="32.601" y2="28.555"/><linearGradient xlink:href="#i" id="z" gradientUnits="userSpaceOnUse" gradientTransform="matrix(-1 0 0 1 -164.713 28.24)" x1="25.633" y1="10.612" x2="38.714" y2="18.39"/><linearGradient xlink:href="#h" id="C" gradientUnits="userSpaceOnUse" gradientTransform="matrix(-1 0 0 1 -164.713 28.24)" x1="22.009" y1="36.51" x2="23.585" y2="14.412"/><linearGradient xlink:href="#h" id="D" gradientUnits="userSpaceOnUse" gradientTransform="matrix(-1 0 0 1 -164.713 28.24)" x1="24.366" y1="20.246" x2="32.601" y2="28.555"/><linearGradient xlink:href="#i" id="E" gradientUnits="userSpaceOnUse" gradientTransform="matrix(-1 0 0 1 -164.713 28.24)" x1="25.633" y1="10.612" x2="38.714" y2="18.39"/><linearGradient xlink:href="#h" id="H" gradientUnits="userSpaceOnUse" gradientTransform="matrix(-1 0 0 1 -164.713 28.24)" x1="22.009" y1="36.51" x2="23.585" y2="14.412"/><linearGradient xlink:href="#h" id="I" gradientUnits="userSpaceOnUse" gradientTransform="matrix(-1 0 0 1 -164.713 28.24)" x1="24.366" y1="20.246" x2="32.601" y2="28.555"/><radialGradient cx="23.688" cy="14.211" r="22.597" fx="23.688" fy="14.211" id="v" xlink:href="#s" gradientUnits="userSpaceOnUse" gradientTransform="matrix(-2.13567 0 0 2.1106 -137.811 12.57)"/><radialGradient cx="20.09" cy="10.854" r="22.597" fx="20.09" fy="10.854" id="w" xlink:href="#t" gradientUnits="userSpaceOnUse" gradientTransform="matrix(-1.79027 0 0 1.76926 -148.9 16.29)"/><radialGradient cx="23.688" cy="14.211" r="22.597" fx="23.688" fy="14.211" id="A" xlink:href="#s" gradientUnits="userSpaceOnUse" gradientTransform="matrix(-2.13567 0 0 2.1106 -137.811 12.57)"/><radialGradient cx="20.09" cy="10.854" r="22.597" fx="20.09" fy="10.854" id="B" xlink:href="#t" gradientUnits="userSpaceOnUse" gradientTransform="matrix(-1.79027 0 0 1.76926 -148.9 16.29)"/><radialGradient cx="23.688" cy="14.211" r="22.597" fx="23.688" fy="14.211" id="F" xlink:href="#s" gradientUnits="userSpaceOnUse" gradientTransform="matrix(-2.13567 0 0 2.1106 -137.811 12.57)"/><radialGradient cx="20.09" cy="10.854" r="22.597" fx="20.09" fy="10.854" id="G" xlink:href="#t" gradientUnits="userSpaceOnUse" gradientTransform="matrix(-1.79027 0 0 1.76926 -148.9 16.29)"/><radialGradient cx="23.688" cy="14.211" r="22.597" fx="23.688" fy="14.211" id="J" xlink:href="#s" gradientUnits="userSpaceOnUse" gradientTransform="matrix(-2.13567 0 0 2.1106 -137.811 12.57)"/><radialGradient cx="20.09" cy="10.854" r="22.597" fx="20.09" fy="10.854" id="K" xlink:href="#t" gradientUnits="userSpaceOnUse" gradientTransform="matrix(-1.79027 0 0 1.76926 -148.9 16.29)"/><clipPath id="u"><ellipse ry="10.067" rx="26.236" cy="18.469" cx="127.216" style="isolation:auto;mix-blend-mode:normal;marker:none" color="#000" display="block" overflow="visible" fill-opacity=".577" stroke-width=".965"/></clipPath></defs><g transform="matrix(.35469 0 0 .35469 -33.105 -3.519)" clip-path="url(#u)" color="#000" fill-rule="evenodd"><path d="M-173.729 65.81l1.768 2.828-3.712 1.591-2.652-2.121-11.844.884-3.712 4.95-3.359-5.48-4.243 2.297-5.656-.707 1.414-3.005-3.89-3.889 5.48-6.187-5.303.707-2.298-2.121 3.006.53 3.182-5.48 4.596-1.06-3.713-1.238-.176-3.182 7.248-6.364 2.651-8.485 12.021 3.535 3.005 7.071 1.06-2.298 3.006.177v2.828l3.536-4.066 4.773 5.127V49.9l-8.309 7.248 5.303 3.005-.176 3.005z" style="marker:none" overflow="visible" fill="url(#v)" stroke="url(#w)" transform="matrix(-.50094 0 0 .50094 18.809 -1.829)"/><path d="M-184.158 50.96l.883 6.541-2.12 3.359 4.595 1.414 2.652 5.303-12.02.884-2.83 4.066-2.297-6.187 4.419-2.828 6.718 1.944-2.652-3.535 1.414-6.188z" style="marker:none" overflow="visible" opacity=".77" fill="url(#x)" transform="matrix(-.50094 0 0 .50094 18.809 -1.829)"/><path d="M-185.22 52.021l-4.419 6.894-7.247-4.95-4.42 2.475-3.535-3.005-3.182 2.829 3.005-4.95 6.894-1.591 8.662-4.243s12.375 3.713 11.667 3.713c-.707 0-10.253.176-10.253.176l-1.59-2.298-4.243 1.945z" style="marker:none" overflow="visible" opacity=".618" fill="url(#y)" transform="matrix(-.50094 0 0 .50094 18.809 -1.829)"/><path d="M-194.412 32.045l-2.298 7.425-4.242 3.712 8.662-1.944s2.475 2.828 1.414 2.828c-1.06 0-12.551 1.414-12.551 1.414l.177 2.298 16.263-3.005-7.071-6.54z" style="marker:none" overflow="visible" opacity=".135" fill="url(#z)" transform="matrix(-.50094 0 0 .50094 18.809 -1.829)"/><path d="M105.04 19.449l-.443 4.428.974-3.011 2.568.797.62-1.328 3.1.442.708-.62-4.516-.177-.443 1.24-1.948-.974zM112.567 26.002l1.505 1.771 3.454-2.302 2.125 1.151 3.454 3.277-3.808-2.923-1.86-.531-3.63 2.48z" style="marker:none" overflow="visible" fill="#fff"/><g><path d="M-173.729 65.81l1.768 2.828-3.712 1.591-2.652-2.121-11.844.884-3.712 4.95-3.359-5.48-4.243 2.297-5.656-.707 1.414-3.005-3.89-3.889 5.48-6.187-5.303.707-2.298-2.121 3.006.53 3.182-5.48 4.596-1.06-3.713-1.238-.176-3.182 7.248-6.364 2.651-8.485 12.021 3.535 3.005 7.071 1.06-2.298 3.006.177v2.828l3.536-4.066 4.773 5.127V49.9l-8.309 7.248 5.303 3.005-.176 3.005z" style="marker:none" overflow="visible" fill="url(#A)" stroke="url(#B)" transform="matrix(-.50094 0 0 .50094 18.542 6.402)"/><path d="M-184.158 50.96l.883 6.541-2.12 3.359 4.595 1.414 2.652 5.303-12.02.884-2.83 4.066-2.297-6.187 4.419-2.828 6.718 1.944-2.652-3.535 1.414-6.188z" style="marker:none" overflow="visible" opacity=".77" fill="url(#C)" transform="matrix(-.50094 0 0 .50094 18.542 6.402)"/><path d="M-185.22 52.021l-4.419 6.894-7.247-4.95-4.42 2.475-3.535-3.005-3.182 2.829 3.005-4.95 6.894-1.591 8.662-4.243s12.375 3.713 11.667 3.713c-.707 0-10.253.176-10.253.176l-1.59-2.298-4.243 1.945z" style="marker:none" overflow="visible" opacity=".618" fill="url(#D)" transform="matrix(-.50094 0 0 .50094 18.542 6.402)"/><path d="M115.842 22.277l-5.225 1.771-.708 1.949 3.01 2.125 2.835-2.745z" style="marker:none" overflow="visible" fill="#fff"/><path d="M-194.412 32.045l-2.298 7.425-4.242 3.712 8.662-1.944s2.475 2.828 1.414 2.828c-1.06 0-12.551 1.414-12.551 1.414l.177 2.298 16.263-3.005-7.071-6.54z" style="marker:none" overflow="visible" opacity=".135" fill="url(#E)" transform="matrix(-.50094 0 0 .50094 18.542 6.402)"/><path d="M104.773 27.68l-.443 4.427.974-3.011 2.568.797.62-1.328 3.1.442.708-.62-4.516-.177-.443 1.24-1.948-.974zM112.3 34.232l1.505 1.771 3.454-2.302 2.125 1.151 3.454 3.277-3.808-2.923-1.86-.531-3.63 2.48z" style="marker:none" overflow="visible" fill="#fff"/></g><g><path d="M-173.729 65.81l1.768 2.828-3.712 1.591-2.652-2.121-11.844.884-3.712 4.95-3.359-5.48-4.243 2.297-5.656-.707 1.414-3.005-3.89-3.889 5.48-6.187-5.303.707-2.298-2.121 3.006.53 3.182-5.48 4.596-1.06-3.713-1.238-.176-3.182 7.248-6.364 2.651-8.485 12.021 3.535 3.005 7.071 1.06-2.298 3.006.177v2.828l3.536-4.066 4.773 5.127V49.9l-8.309 7.248 5.303 3.005-.176 3.005z" style="marker:none" overflow="visible" fill="url(#F)" stroke="url(#G)" transform="translate(235.648 -4.513) scale(.50094)"/><path d="M-184.158 50.96l.883 6.541-2.12 3.359 4.595 1.414 2.652 5.303-12.02.884-2.83 4.066-2.297-6.187 4.419-2.828 6.718 1.944-2.652-3.535 1.414-6.188z" style="marker:none" overflow="visible" opacity=".77" fill="url(#H)" transform="translate(235.648 -4.513) scale(.50094)"/><path d="M-185.22 52.021l-4.419 6.894-7.247-4.95-4.42 2.475-3.535-3.005-3.182 2.829 3.005-4.95 6.894-1.591 8.662-4.243s12.375 3.713 11.667 3.713c-.707 0-10.253.176-10.253.176l-1.59-2.298-4.243 1.945z" style="marker:none" overflow="visible" opacity=".618" fill="url(#I)" transform="translate(235.648 -4.513) scale(.50094)"/><path d="M138.348 11.363l5.224 1.771.709 1.948-3.011 2.125-2.834-2.745zM141.89 23.318l-1.506 1.77-3.453-2.302-2.126 1.152-3.453 3.276 3.808-2.922 1.86-.531 3.63 2.48z" style="marker:none" overflow="visible" fill="#fff"/></g><g><path d="M-173.729 65.81l1.768 2.828-3.712 1.591-2.652-2.121-11.844.884-3.712 4.95-3.359-5.48-4.243 2.297-5.656-.707 1.414-3.005-3.89-3.889 5.48-6.187-5.303.707-2.298-2.121 3.006.53 3.182-5.48 4.596-1.06-3.713-1.238-.176-3.182 7.248-6.364 2.651-8.485 12.021 3.535 3.005 7.071 1.06-2.298 3.006.177v2.828l3.536-4.066 4.773 5.127V49.9l-8.309 7.248 5.303 3.005-.176 3.005z" style="marker:none" overflow="visible" fill="url(#J)" stroke="url(#K)" transform="matrix(0 -.50094 -.50094 0 151.613 -70.805)"/><path d="M135.738 26.495l-1.772-5.224-1.948-.709-2.125 3.011 2.745 2.834zM123.783 22.953l-1.771 1.506 2.302 3.453-1.151 2.126-3.277 3.453 2.923-3.808.53-1.86-2.479-3.63z" style="marker:none" overflow="visible" fill="#fff"/></g></g><path d="M21.897 4.274L18.752 21.1c-2.143 4.578-12.73 3.13-13.528 0L2.08 4.274c0-1.152 1.536-1.976 3.752-2.478.28-.063.142-.306.441-.36C7.04 1.302 7.447.925 8.318.86c.231-.017.259.559.496.548a44.113 44.113 0 0 1 2.497-.046c.177.002.296-.446.474-.443.663.014 1.156-.066 1.813-.01.195.017.24.429.433.45.39.041.696.087 1.078.138.191.025.415-1.508.603-1.48 1.145.167 1.828.365 2.763.866.206.11.109.344.308.468.15.093.357.175.584.254.074.026.394-.399.471-.374.461.151.714.749.98.946.274.204-.07.547.155.749.555.495.924.968.924 1.348z" style="isolation:auto;mix-blend-mode:normal;marker:none" color="#000" display="block" overflow="visible" fill-opacity=".082" stroke-width=".048" stroke-linecap="round" stroke-linejoin="round" stroke-opacity=".964"/><path style="isolation:auto;mix-blend-mode:normal;marker:none" d="M-34.42-51.46l-3.045 16.288c-2.074 4.432-12.321 3.03-13.094 0l-3.044-16.287c0-4.006 19.182-3.913 19.182 0z" color="#000" overflow="visible" fill="url(#L)" stroke-width=".047" stroke-linecap="round" stroke-linejoin="round" stroke-opacity=".964" transform="translate(56 56)"/><path d="M21.58 4.54l-.51 2.725C16.506 9.614 7.962 9.88 2.901 7.24l-.504-2.7c0-4.004 19.182-3.912 19.182 0z" style="isolation:auto;mix-blend-mode:normal;marker:none" color="#000" overflow="visible" fill="#434666" fill-opacity=".275" stroke-width=".047" stroke-linecap="round" stroke-linejoin="round" stroke-opacity=".964"/><path style="isolation:auto;mix-blend-mode:normal;marker:none" d="M-34.787-51.695a9.208 2.434 0 0 1-9.209 2.434 9.208 2.434 0 0 1-9.208-2.434 9.208 2.434 0 0 1 9.208-2.435 9.208 2.434 0 0 1 9.209 2.435z" color="#000" overflow="visible" fill="url(#M)" stroke="#fff" stroke-width=".401" stroke-linecap="round" stroke-linejoin="round" transform="translate(56 56)"/><path d="M3.423 4.715s.092 1.753 8.502 1.818c6.45.049 8.712-1.725 8.712-1.725L19.57 3.74l-1.728.267-2.325-.284-1.413 1.413c-.1.1-.291 1.16-1.031 1.16s-1.324-.286-1.458-.42a69.16 69.16 0 0 0-1.22-1.068l-1.438-.58s-1.293.928-1.293 1.256c0 .328-1.305-.676-1.305-.676l-.8-.95-1.647.37-.488.52s.092-.125 0-.033z" fill-opacity=".286" fill-rule="evenodd" stroke-width=".267"/><path d="M-52.532-51.155s.093 1.753 8.503 1.818c6.45.049 8.712-1.725 8.712-1.725l-1.068-1.068-1.774.427-2.28-.444-1.412 1.413c-.101.1-.935 1.387-.935 1.387s-1.42-.513-1.554-.647c-.135-.135-1.22-1.068-1.22-1.068l-1.438-.58s-1.197 1.057-1.197 1.385c0 .328-1.402-.805-1.402-.805l-.798-.95-1.649.37-.488.52s.093-.125 0-.033z" fill="url(#N)" fill-rule="evenodd" stroke-width=".267" transform="translate(56 56)"/><path style="isolation:auto;mix-blend-mode:normal;marker:none" d="M21.067 4.148a8.998 2.434 0 0 1-8.977 2.324 8.998 2.434 0 0 1-8.978-2.278 8.998 2.434 0 0 0-.02.11A8.998 2.434 0 0 0 12.09 6.74a8.998 2.434 0 0 0 8.998-2.435 8.998 2.434 0 0 0-.021-.156z" color="#000" overflow="visible" fill-opacity=".181" stroke-width=".396" stroke-linecap="round" stroke-linejoin="round"/></svg>