<svg xmlns:osb="http://www.openswatchbook.org/uri/2009/osb" xmlns="http://www.w3.org/2000/svg" xmlns:xlink="http://www.w3.org/1999/xlink" height="128" viewBox="0 0 128 128" width="128"><title>Template icons dark</title><defs><linearGradient id="d" osb:paint="solid"><stop offset="0" stop-color="#070707" stop-opacity=".203"/></linearGradient><linearGradient id="c" osb:paint="solid"><stop offset="0" stop-opacity=".045"/></linearGradient><linearGradient id="b" osb:paint="solid"><stop offset="0" stop-color="#efc300"/></linearGradient><linearGradient id="a" osb:paint="solid"><stop offset="0" stop-color="#fff"/></linearGradient><linearGradient gradientTransform="translate(205.818 205.818) scale(2.72727)" xlink:href="#b" id="f" x1="25" y1="36" x2="47" y2="36" gradientUnits="userSpaceOnUse"/><linearGradient gradientTransform="matrix(2.66667 0 0 2.66667 208 208)" xlink:href="#c" id="e" x1="24" y1="36" x2="48" y2="36" gradientUnits="userSpaceOnUse"/><linearGradient gradientTransform="matrix(3.13198 0 0 3.132 319.66 318.13)" xlink:href="#a" id="h" x1="-6" y1="-3" x2="0" y2="-3" gradientUnits="userSpaceOnUse"/><linearGradient xlink:href="#d" id="g" gradientUnits="userSpaceOnUse" gradientTransform="matrix(3.13198 0 0 3.132 319.66 319.29)" x1="-6" y1="-3" x2="0" y2="-3"/></defs><g color="#000" transform="translate(-208 -208)"><rect y="272" x="272" height="64" width="64" style="isolation:auto;mix-blend-mode:normal;marker:none" ry="32" display="block" overflow="visible" fill="url(#e)" stroke-width="2.6" stroke-linecap="round" stroke-opacity=".963"/><rect style="isolation:auto;mix-blend-mode:normal;marker:none" width="60" height="60" x="274" y="274" ry="30" display="block" overflow="visible" fill="url(#f)" stroke-width="2.437" stroke-linecap="round" stroke-opacity=".963"/><path style="isolation:auto;mix-blend-mode:normal;marker:none" d="M297 291v10.16h-9V319h32v-17.898l-9-.102v-10zm3 2h8.118l-.118 8h-8z" display="block" overflow="visible" fill="url(#g)" stroke-width="3.132" paint-order="fill markers stroke"/><path d="M297.04 290l-.04 10h-9v18h32v-18h-9v-10zm2.96 2h8v8h-8z" style="isolation:auto;mix-blend-mode:normal;marker:none" display="block" overflow="visible" fill="url(#h)" stroke-width="3.132" paint-order="fill markers stroke"/></g></svg>