<svg xmlns:osb="http://www.openswatchbook.org/uri/2009/osb" xmlns="http://www.w3.org/2000/svg" xmlns:xlink="http://www.w3.org/1999/xlink" height="48" viewBox="0 0 48 48" width="48"><title>Template icons dark</title><defs><linearGradient id="d" osb:paint="solid"><stop offset="0" stop-color="#070707" stop-opacity=".119"/></linearGradient><linearGradient id="b" osb:paint="solid"><stop offset="0" stop-opacity=".119"/></linearGradient><linearGradient id="a" osb:paint="solid"><stop offset="0" stop-color="#ff1e3e"/></linearGradient><linearGradient id="c" osb:paint="solid"><stop offset="0" stop-color="#fff"/></linearGradient><linearGradient xlink:href="#a" id="f" x1="25" y1="36" x2="47" y2="36" gradientUnits="userSpaceOnUse"/><linearGradient xlink:href="#b" id="e" x1="24" y1="36" x2="48" y2="36" gradientUnits="userSpaceOnUse"/><linearGradient xlink:href="#d" id="g" x1="30" y1="37.008" x2="42.016" y2="37.008" gradientUnits="userSpaceOnUse"/><linearGradient xlink:href="#c" id="i" x1="29.462" y1="36" x2="42.538" y2="36" gradientUnits="userSpaceOnUse"/><linearGradient xlink:href="#c" id="h" x1="29.463" y1="36" x2="42.537" y2="36" gradientUnits="userSpaceOnUse"/></defs><g color="#000"><rect y="24" x="24" height="24" width="24" style="isolation:auto;mix-blend-mode:normal;marker:none" ry="12" display="block" overflow="visible" fill="url(#e)" stroke-width=".975" stroke-linecap="round" stroke-opacity=".963"/><rect style="isolation:auto;mix-blend-mode:normal;marker:none" width="22" height="22" x="25" y="25" ry="11" display="block" overflow="visible" fill="url(#f)" stroke-width=".894" stroke-linecap="round" stroke-opacity=".963"/><path d="M32 31l-2 2 4 4-4 4 2 2 4-4 4 4.016L42.016 41 38 37l4-4-2-2-4 4z" style="line-height:normal;font-variant-ligatures:normal;font-variant-position:normal;font-variant-caps:normal;font-variant-numeric:normal;font-variant-alternates:normal;font-feature-settings:normal;text-indent:0;text-align:start;text-decoration-line:none;text-decoration-style:solid;text-decoration-color:#000;text-transform:none;text-orientation:mixed;shape-padding:0;isolation:auto;mix-blend-mode:normal;marker:none" font-weight="400" font-family="sans-serif" white-space="normal" display="block" overflow="visible" fill="url(#g)" stroke-width=".76"/><path style="line-height:normal;font-variant-ligatures:normal;font-variant-position:normal;font-variant-caps:normal;font-variant-numeric:normal;font-variant-alternates:normal;font-feature-settings:normal;text-indent:0;text-align:start;text-decoration-line:none;text-decoration-style:solid;text-decoration-color:#000;text-transform:none;text-orientation:mixed;shape-padding:0;isolation:auto;mix-blend-mode:normal;marker:none" d="M31 30l-1 1 5 5-5 5 1 1 5-5 5 5 1-1-5-5 5-5-.992-1L36 35z" font-weight="400" font-family="sans-serif" white-space="normal" display="block" overflow="visible" fill="url(#h)" stroke="url(#i)" stroke-width=".76" stroke-opacity=".995"/></g></svg>