<svg xmlns:osb="http://www.openswatchbook.org/uri/2009/osb" xmlns="http://www.w3.org/2000/svg" xmlns:xlink="http://www.w3.org/1999/xlink" height="128" viewBox="0 0 128 128" width="128"><title>Template icons dark</title><defs><linearGradient id="f" osb:paint="solid"><stop offset="0"/></linearGradient><linearGradient id="c" osb:paint="solid"><stop offset="0" stop-opacity=".018"/></linearGradient><linearGradient id="e"><stop offset="0" stop-opacity=".128"/><stop offset="1" stop-opacity=".392"/></linearGradient><linearGradient id="a"><stop offset="0" stop-color="#66a3e2"/><stop offset="1" stop-color="#69a5e3"/></linearGradient><linearGradient id="b" osb:paint="solid"><stop offset="0" stop-color="#525e7d"/></linearGradient><linearGradient id="d"><stop offset="0" stop-opacity="0"/><stop offset=".25" stop-opacity=".091"/><stop offset="1" stop-opacity="0"/></linearGradient><linearGradient id="j" osb:paint="solid"><stop offset="0" stop-color="#4b78a7"/></linearGradient><linearGradient id="g"><stop offset="0" stop-color="#404552" stop-opacity="0"/><stop offset="1" stop-color="#404552" stop-opacity=".839"/></linearGradient><linearGradient id="h"><stop offset="0" stop-color="#404552" stop-opacity=".036"/><stop offset="1" stop-color="#404552" stop-opacity=".979"/></linearGradient><linearGradient id="i"><stop offset="0" stop-color="#828282"/><stop offset=".253" stop-color="#fff"/><stop offset=".522" stop-color="#717171"/><stop offset=".785" stop-color="#717171"/><stop offset="1" stop-color="#4c4c4c"/></linearGradient><linearGradient xlink:href="#c" id="k" gradientUnits="userSpaceOnUse" gradientTransform="matrix(1.01967 0 0 1.03029 1094.062 -69.829)" x1="64.666" y1="133.777" x2="88.203" y2="133.777"/><linearGradient xlink:href="#b" id="l" gradientUnits="userSpaceOnUse" gradientTransform="matrix(1.32 0 0 1.32 1212.547 60.897)" x1="116" y1="160" x2="204" y2="160"/><linearGradient xlink:href="#d" id="m" gradientUnits="userSpaceOnUse" gradientTransform="matrix(2.61992 0 0 2.62354 1360.002 205.206)" x1="13" y1="17" x2="13" y2="11"/><linearGradient xlink:href="#a" id="n" gradientUnits="userSpaceOnUse" gradientTransform="matrix(.5 0 0 .5 1255.747 106.34)" x1="352.505" y1="259.319" x2="352.505" y2="435.319"/><linearGradient gradientTransform="matrix(-1.33 0 0 1.33 2913.93 59.265)" xlink:href="#g" id="t" x1="1135" y1="205.5" x2="1140" y2="205.5" gradientUnits="userSpaceOnUse"/><linearGradient gradientTransform="matrix(1.33 0 0 1.33 -65.27 59.265)" xlink:href="#h" id="s" x1="1135" y1="205.5" x2="1140" y2="205.5" gradientUnits="userSpaceOnUse"/><linearGradient gradientTransform="matrix(1.33 0 0 1.33 -65.27 59.265)" xlink:href="#i" id="r" gradientUnits="userSpaceOnUse" x1="1134" y1="205" x2="1134" y2="206"/><linearGradient gradientTransform="matrix(1.33 0 0 1.33 -65.27 59.265)" xlink:href="#i" id="q" gradientUnits="userSpaceOnUse" x1="1108" y1="205" x2="1108" y2="206.142"/><linearGradient gradientTransform="matrix(1.33 0 0 1.33 -65.27 59.265)" xlink:href="#i" id="p" gradientUnits="userSpaceOnUse" x1="1118" y1="202" x2="1121.953" y2="202"/><linearGradient gradientTransform="matrix(1.33 0 0 1.33 -65.27 59.265)" xlink:href="#i" id="o" gradientUnits="userSpaceOnUse" x1="1120" y1="204" x2="1120" y2="207"/></defs><path d="M1370.947 217.977c-3.96 0-6.947 3.063-6.947 7.023v95c0 4 4 8 8 8 36.005-.09 104 0 104 0 4 0 7.998-4 8-8l.032-82c0-3.96-4.072-8-8.031-8h-47l-15.814-12.034z" style="marker:none" fill="url(#k)" paint-order="fill markers stroke" transform="translate(-1360 -208)"/><path d="M1371 220c-2.64 0-5 2.36-5 5v95c0 3 3 6 6 6h104c2.64 0 6-3.36 6-6v-83c0-2.64-3.36-5-6-5h-47l-16-12z" fill="url(#l)" transform="translate(-1360 -208)"/><path d="M1371 220c-2.64 0-5 2.36-5 5v95c0 3 3 6 6 6h104c2.64 0 6-3.36 6-6v-83c0-2.64-3.36-5-6-5h-47l-16-12z" fill="url(#m)" transform="translate(-1360 -208)"/><path d="M1476 232c2.64 0 6.116 2.363 6 5v83c0 2.64-3.36 6-6 6h-104c-3 0-6-3-6-6v-69c0-2.64 2.36-5 5-5h42l16-14z" style="marker:none" fill="url(#n)" paint-order="fill markers stroke" transform="translate(-1360 -208)"/><path d="M11 12c-2.64 0-5 2.36-5 5 0-2.624 2.36-3.976 5-4h42l15 11h1L53 12z" fill="#fff" fill-opacity=".328"/><path d="M69 24L53 38H11c-2.64 0-5 2.36-5 5 0-2.64 2.36-4 5-4h42l16-14h47c2.64 0 6 1.36 6 4 0-2.64-3.36-5-6-5z" fill="#fff" fill-opacity=".37"/><path style="isolation:auto;mix-blend-mode:normal;marker:none" d="M16 17h32s4 0 4 4-4 3.956-4 3.956L16 25s-4 0-4-4 4-4 4-4z" color="#000" display="block" overflow="visible" fill-opacity=".078" paint-order="fill markers stroke"/><path style="isolation:auto;mix-blend-mode:normal;marker:none" d="M16 17s-4 0-4 4c0-2 4-3 4-3h32s4 1 4 3c0-4-4-4-4-4z" color="#000" display="block" overflow="visible" fill-opacity=".157" paint-order="fill markers stroke"/><path d="M48 24.956S52 25 52 21c0 2-4 3.035-4 3.035L16 24s-4-1-4-3c0 4 4 4 4 4z" style="isolation:auto;mix-blend-mode:normal;marker:none" color="#000" display="block" overflow="visible" fill="#e7e7e7" fill-opacity=".235" paint-order="fill markers stroke"/><path style="isolation:auto;mix-blend-mode:normal;marker:none" d="M1414.973 330.585h18.713a1.28 1.28 0 0 1 1.284 1.283v2.753a1.28 1.28 0 0 1-1.284 1.284h-18.713a1.28 1.28 0 0 1-1.283-1.284v-2.753a1.28 1.28 0 0 1 1.283-1.283z" color="#000" display="block" overflow="visible" fill="url(#o)" transform="translate(-1360 -208)"/><path style="isolation:auto;mix-blend-mode:normal;marker:none" d="M1420.34 325.98h7.98v5.384s-2.633.579-3.97.58c-1.35 0-4.01-.58-4.01-.58z" color="#000" display="block" overflow="visible" fill="url(#p)" transform="translate(-1360 -208)"/><path style="isolation:auto;mix-blend-mode:normal;marker:none" d="M1397.73 331.915h15.96v2.66h-15.96z" color="#000" display="block" overflow="visible" fill="url(#q)" transform="translate(-1360 -208)"/><path style="isolation:auto;mix-blend-mode:normal;marker:none" d="M1434.97 331.915h15.96v2.66h-15.96z" color="#000" display="block" overflow="visible" fill="url(#r)" transform="translate(-1360 -208)"/><path style="isolation:auto;mix-blend-mode:normal;marker:none" d="M60.34 117.984h7.98v2.696h-7.98zM74.97 123.915h1.33v2.66h-1.33z" color="#000" display="block" overflow="visible" fill-opacity=".406"/><path d="M60.319 122.627s1.445.52 3.974.521c2.528.001 4.006-.52 4.006-.52v.708s-1.372.579-3.97.579c-2.597 0-4.01-.58-4.01-.58z" style="isolation:auto;mix-blend-mode:normal;marker:none" color="#000" display="block" overflow="visible" fill-opacity=".26"/><path style="isolation:auto;mix-blend-mode:normal;marker:none" d="M52.36 123.915h1.33v2.66h-1.33zM57.68 122.585h1.33v5.32h-1.33z" color="#000" display="block" overflow="visible" fill-opacity=".406"/><path style="isolation:auto;mix-blend-mode:normal;marker:none" d="M1444.28 331.915h6.65v2.66h-6.65z" color="#000" display="block" overflow="visible" fill="url(#s)" transform="translate(-1360 -208)"/><path style="isolation:auto;mix-blend-mode:normal;marker:none" d="M1404.38 331.915h-6.65v2.66h6.65z" color="#000" display="block" overflow="visible" fill="url(#t)" transform="translate(-1360 -208)"/><path style="isolation:auto;mix-blend-mode:normal;marker:none" d="M60.34 117.984h7.98v1.348h-7.98z" color="#000" display="block" overflow="visible" fill-opacity=".406"/><path style="isolation:auto;mix-blend-mode:normal;marker:none" d="M59.01 116.69h10.64l3.99 1.33H55.02z" color="#000" display="block" overflow="visible" fill="#ebebeb" fill-opacity=".276"/><path style="isolation:auto;mix-blend-mode:normal;marker:none" d="M59.01 122.585h-.267v5.32h.266z" color="#000" display="block" overflow="visible" fill="#fff" fill-opacity=".167"/><path d="M57.962 122.585h-.283v5.32h.283z" style="isolation:auto;mix-blend-mode:normal;marker:none" color="#000" display="block" overflow="visible" fill="#090909" fill-opacity=".385"/><path d="M70.98 122.585h1.33v5.32h-1.33z" style="isolation:auto;mix-blend-mode:normal;marker:none" color="#000" display="block" overflow="visible" fill-opacity=".406"/><path d="M72.31 122.585h-.266v5.32h.266z" style="isolation:auto;mix-blend-mode:normal;marker:none" color="#000" display="block" overflow="visible" fill="#fff" fill-opacity=".167"/><path style="isolation:auto;mix-blend-mode:normal;marker:none" d="M71.262 122.585h-.282v5.32h.282z" color="#000" display="block" overflow="visible" fill="#090909" fill-opacity=".385"/></svg>