<svg xmlns:osb="http://www.openswatchbook.org/uri/2009/osb" xmlns="http://www.w3.org/2000/svg" xmlns:xlink="http://www.w3.org/1999/xlink" height="128" viewBox="0 0 128 128" width="128"><title>Template icons dark</title><defs><linearGradient id="f" osb:paint="solid"><stop offset="0"/></linearGradient><linearGradient id="c" osb:paint="solid"><stop offset="0" stop-opacity=".018"/></linearGradient><linearGradient id="e"><stop offset="0" stop-opacity=".128"/><stop offset="1" stop-opacity=".392"/></linearGradient><linearGradient id="a"><stop offset="0" stop-color="#66a3e2"/><stop offset="1" stop-color="#69a5e3"/></linearGradient><linearGradient id="b" osb:paint="solid"><stop offset="0" stop-color="#525e7d"/></linearGradient><linearGradient id="d"><stop offset="0" stop-opacity="0"/><stop offset=".25" stop-opacity=".091"/><stop offset="1" stop-opacity="0"/></linearGradient><linearGradient id="j" osb:paint="solid"><stop offset="0" stop-color="#4b78a7"/></linearGradient><linearGradient id="g"><stop offset="0" stop-color="#404552" stop-opacity="0"/><stop offset="1" stop-color="#404552" stop-opacity=".839"/></linearGradient><linearGradient id="h"><stop offset="0" stop-color="#404552" stop-opacity=".036"/><stop offset="1" stop-color="#404552" stop-opacity=".979"/></linearGradient><linearGradient id="i"><stop offset="0" stop-color="#828282"/><stop offset=".253" stop-color="#fff"/><stop offset=".522" stop-color="#717171"/><stop offset=".785" stop-color="#717171"/><stop offset="1" stop-color="#4c4c4c"/></linearGradient><linearGradient xlink:href="#c" id="k" gradientUnits="userSpaceOnUse" gradientTransform="matrix(1.01967 0 0 1.03029 582.062 -69.829)" x1="64.666" y1="133.777" x2="88.203" y2="133.777"/><linearGradient xlink:href="#b" id="l" gradientUnits="userSpaceOnUse" gradientTransform="matrix(1.32 0 0 1.32 700.547 60.897)" x1="116" y1="160" x2="204" y2="160"/><linearGradient xlink:href="#d" id="m" gradientUnits="userSpaceOnUse" gradientTransform="matrix(2.61992 0 0 2.62354 848.002 205.206)" x1="13" y1="17" x2="13" y2="11"/><linearGradient xlink:href="#a" id="n" gradientUnits="userSpaceOnUse" gradientTransform="matrix(.5 0 0 .5 743.747 106.34)" x1="352.505" y1="258.122" x2="352.505" y2="432.988"/><linearGradient xlink:href="#j" id="o" gradientUnits="userSpaceOnUse" gradientTransform="matrix(1.21463 0 0 1.21463 3.194 -5.807)" x1="428" y1="172" x2="468.094" y2="172"/><linearGradient xlink:href="#j" id="p" gradientUnits="userSpaceOnUse" gradientTransform="matrix(2.48617 0 0 2.48617 777.476 495.633)" x1="-153.424" y1="-84" x2="-129.424" y2="-84"/><linearGradient xlink:href="#j" id="q" gradientUnits="userSpaceOnUse" gradientTransform="matrix(2.48617 0 0 2.48617 777.476 495.633)" x1="-153.424" y1="-84" x2="-129.424" y2="-84"/></defs><path d="M858.947 217.977c-3.96 0-6.947 3.063-6.947 7.023v95c0 4 4 8 8 8 36.005-.09 104 0 104 0 4 0 7.998-4 8-8l.032-82c0-3.96-4.072-8-8.032-8h-47l-15.813-12.034z" style="marker:none" fill="url(#k)" paint-order="fill markers stroke" transform="translate(-848 -208)"/><path d="M859 220c-2.64 0-5 2.36-5 5v95c0 3 3 6 6 6h104c2.64 0 6-3.36 6-6v-83c0-2.64-3.36-5-6-5h-47l-16-12z" fill="url(#l)" transform="translate(-848 -208)"/><path d="M859 220c-2.64 0-5 2.36-5 5v95c0 3 3 6 6 6h104c2.64 0 6-3.36 6-6v-83c0-2.64-3.36-5-6-5h-47l-16-12z" fill="url(#m)" transform="translate(-848 -208)"/><path d="M964 232c2.64 0 6.116 2.363 6 5v83c0 2.64-3.36 6-6 6H860c-3 0-6-3-6-6v-69c0-2.64 2.36-5 5-5h42l16-14z" style="marker:none" fill="url(#n)" paint-order="fill markers stroke" transform="translate(-848 -208)"/><path d="M11 12c-2.64 0-5 2.36-5 5 0-2.624 2.36-3.976 5-4h42l15 11h1L53 12z" fill="#fff" fill-opacity=".328"/><path d="M69 24L53 38H11c-2.64 0-5 2.36-5 5 0-2.64 2.36-4 5-4h42l16-14h47c2.64 0 6 1.36 6 4 0-2.64-3.36-5-6-5z" fill="#fff" fill-opacity=".37"/><path style="isolation:auto;mix-blend-mode:normal;marker:none" d="M16 17h32s4 0 4 4-4 3.956-4 3.956L16 25s-4 0-4-4 4-4 4-4z" color="#000" display="block" overflow="visible" fill-opacity=".078" paint-order="fill markers stroke"/><path style="isolation:auto;mix-blend-mode:normal;marker:none" d="M16 17s-4 0-4 4c0-2 4-3 4-3h32s4 1 4 3c0-4-4-4-4-4z" color="#000" display="block" overflow="visible" fill-opacity=".157" paint-order="fill markers stroke"/><path d="M48 24.956S52 25 52 21c0 2-4 3.035-4 3.035L16 24s-4-1-4-3c0 4 4 4 4 4z" style="isolation:auto;mix-blend-mode:normal;marker:none" color="#000" display="block" overflow="visible" fill="#e7e7e7" fill-opacity=".235" paint-order="fill markers stroke"/><path style="isolation:auto;mix-blend-mode:normal;marker:none" d="M885.33 267v49h49v-49zm4 4h41v41h-41z" color="#000" display="block" overflow="visible" opacity=".8" fill="url(#o)" paint-order="fill markers stroke" transform="translate(-848 -208)"/><path d="M934 306h13v-50h-50v11h4v-7h42v42h-9z" style="isolation:auto;mix-blend-mode:normal;marker:none" color="#000" display="block" overflow="visible" opacity=".6" fill="url(#p)" paint-order="fill markers stroke" transform="translate(-848 -208)"/><path style="isolation:auto;mix-blend-mode:normal;marker:none" d="M893 274h33v13l-4-6-13 13-5-5-11 8z" color="#000" overflow="visible" opacity=".2" fill="url(#q)" paint-order="fill markers stroke" transform="translate(-848 -208)"/><path style="line-height:normal;font-variant-ligatures:normal;font-variant-position:normal;font-variant-caps:normal;font-variant-numeric:normal;font-variant-alternates:normal;font-feature-settings:normal;text-indent:0;text-align:start;text-decoration-line:none;text-decoration-style:solid;text-decoration-color:#000;text-transform:none;text-orientation:mixed;shape-padding:0;isolation:auto;mix-blend-mode:normal;marker:none" d="M909 299l-5-6.024L893 302v6h33v-15l-4-8z" color="#000" font-weight="400" font-family="sans-serif" white-space="normal" overflow="visible" opacity=".8" fill="url(#o)" fill-rule="evenodd" paint-order="fill markers stroke" transform="translate(-848 -208)"/></svg>