<svg xmlns:osb="http://www.openswatchbook.org/uri/2009/osb" xmlns="http://www.w3.org/2000/svg" xmlns:xlink="http://www.w3.org/1999/xlink" height="128" viewBox="0 0 128 128" width="128"><title>Template icons dark</title><defs><linearGradient id="f" osb:paint="solid"><stop offset="0"/></linearGradient><linearGradient id="c" osb:paint="solid"><stop offset="0" stop-opacity=".018"/></linearGradient><linearGradient id="e"><stop offset="0" stop-opacity=".128"/><stop offset="1" stop-opacity=".392"/></linearGradient><linearGradient id="a"><stop offset="0" stop-color="#66a3e2"/><stop offset="1" stop-color="#69a5e3"/></linearGradient><linearGradient id="b" osb:paint="solid"><stop offset="0" stop-color="#525e7d"/></linearGradient><linearGradient id="d"><stop offset="0" stop-opacity="0"/><stop offset=".25" stop-opacity=".091"/><stop offset="1" stop-opacity="0"/></linearGradient><linearGradient id="j" osb:paint="solid"><stop offset="0" stop-color="#4b78a7"/></linearGradient><linearGradient id="g"><stop offset="0" stop-color="#404552" stop-opacity="0"/><stop offset="1" stop-color="#404552" stop-opacity=".839"/></linearGradient><linearGradient id="h"><stop offset="0" stop-color="#404552" stop-opacity=".036"/><stop offset="1" stop-color="#404552" stop-opacity=".979"/></linearGradient><linearGradient id="i"><stop offset="0" stop-color="#828282"/><stop offset=".253" stop-color="#fff"/><stop offset=".522" stop-color="#717171"/><stop offset=".785" stop-color="#717171"/><stop offset="1" stop-color="#4c4c4c"/></linearGradient><linearGradient xlink:href="#c" id="k" gradientUnits="userSpaceOnUse" gradientTransform="matrix(1.01967 0 0 1.03029 966.062 -69.829)" x1="64.666" y1="133.777" x2="88.203" y2="133.777"/><linearGradient xlink:href="#b" id="l" gradientUnits="userSpaceOnUse" gradientTransform="matrix(1.32 0 0 1.32 1084.547 60.897)" x1="116" y1="160" x2="204" y2="160"/><linearGradient xlink:href="#d" id="m" gradientUnits="userSpaceOnUse" gradientTransform="matrix(2.61992 0 0 2.62354 1232.002 205.206)" x1="13" y1="17" x2="13" y2="11"/><linearGradient xlink:href="#a" id="n" gradientUnits="userSpaceOnUse" gradientTransform="matrix(.5 0 0 .5 1127.747 106.34)" x1="353.608" y1="260.043" x2="353.608" y2="433.901"/><linearGradient xlink:href="#j" id="q" gradientUnits="userSpaceOnUse" gradientTransform="matrix(1.1195 0 0 1.1195 142.527 96.582)" x1="428" y1="182" x2="468.094" y2="182"/><linearGradient xlink:href="#j" id="o" gradientUnits="userSpaceOnUse" gradientTransform="matrix(1.1195 0 0 1.1195 796.241 94.343)" x1="428" y1="172" x2="468.094" y2="172"/><linearGradient xlink:href="#j" id="p" gradientUnits="userSpaceOnUse" gradientTransform="matrix(1.21463 0 0 1.21463 3.194 -5.807)" x1="428" y1="172" x2="468.094" y2="172"/></defs><path style="marker:none" d="M1242.947 217.977c-3.96 0-6.947 3.063-6.947 7.023v95c0 4 4 8 8 8 36.005-.09 104 0 104 0 4 0 7.998-4 8-8l.032-82c0-3.96-4.072-8-8.031-8h-47l-15.814-12.034z" fill="url(#k)" paint-order="fill markers stroke" transform="translate(-1232 -208)"/><path d="M1243 220c-2.64 0-5 2.36-5 5v95c0 3 3 6 6 6h104c2.64 0 6-3.36 6-6v-83c0-2.64-3.36-5-6-5h-47l-16-12z" fill="url(#l)" transform="translate(-1232 -208)"/><path d="M1243 220c-2.64 0-5 2.36-5 5v95c0 3 3 6 6 6h104c2.64 0 6-3.36 6-6v-83c0-2.64-3.36-5-6-5h-47l-16-12z" fill="url(#m)" transform="translate(-1232 -208)"/><path style="marker:none" d="M1348 232c2.64 0 6.116 2.363 6 5v83c0 2.64-3.36 6-6 6h-104c-3 0-6-3-6-6v-69c0-2.64 2.36-5 5-5h42l16-14z" fill="url(#n)" paint-order="fill markers stroke" transform="translate(-1232 -208)"/><path d="M11 12c-2.64 0-5 2.36-5 5 0-2.624 2.36-3.976 5-4h42l15 11h1L53 12z" fill="#fff" fill-opacity=".328"/><path d="M69 24L53 38H11c-2.64 0-5 2.36-5 5 0-2.64 2.36-4 5-4h42l16-14h47c2.64 0 6 1.36 6 4 0-2.64-3.36-5-6-5z" fill="#fff" fill-opacity=".37"/><path d="M16 17h32s4 0 4 4-4 3.956-4 3.956L16 25s-4 0-4-4 4-4 4-4z" style="isolation:auto;mix-blend-mode:normal;marker:none" color="#000" display="block" overflow="visible" fill-opacity=".078" paint-order="fill markers stroke"/><path d="M16 17s-4 0-4 4c0-2 4-3 4-3h32s4 1 4 3c0-4-4-4-4-4z" style="isolation:auto;mix-blend-mode:normal;marker:none" color="#000" display="block" overflow="visible" fill-opacity=".157" paint-order="fill markers stroke"/><path style="isolation:auto;mix-blend-mode:normal;marker:none" d="M48 24.956S52 25 52 21c0 2-4 3.035-4 3.035L16 24s-4-1-4-3c0 4 4 4 4 4z" color="#000" display="block" overflow="visible" fill="#e7e7e7" fill-opacity=".235" paint-order="fill markers stroke"/><path style="isolation:auto;mix-blend-mode:normal;marker:none" d="M1313.464 257.825c-6.17 0-11.194 5.024-11.194 11.195 0 1.814.443 3.524 1.213 5.042l-12.915 5.13a11.195 11.195 0 0 0-8.114-3.49c-6.182 0-11.195 5.012-11.195 11.195 0 6.182 5.013 11.195 11.195 11.195a11.194 11.194 0 0 0 8.19-3.584l12.782 5.173a11.105 11.105 0 0 0-1.156 4.924c0 6.17 5.024 11.195 11.194 11.195 6.171 0 11.195-5.024 11.195-11.195 0-6.17-5.024-11.195-11.195-11.195-3.299 0-6.261 1.444-8.313 3.724l-12.74-5.147a11.197 11.197 0 0 0 1.238-5.09c0-1.758-.415-3.49-1.209-5.058l12.816-5.234c2.047 2.213 4.965 3.61 8.208 3.61 6.171 0 11.195-5.025 11.195-11.195 0-6.171-5.024-11.195-11.195-11.195zm0 5.283a5.901 5.901 0 0 1 5.912 5.912 5.901 5.901 0 0 1-5.911 5.91 5.901 5.901 0 0 1-5.912-5.91 5.901 5.901 0 0 1 5.911-5.912zm-31.027 17.911c3.232 0 5.877 2.646 5.877 5.878s-2.645 5.877-5.877 5.877c-3.232 0-5.878-2.645-5.878-5.877 0-3.232 2.646-5.878 5.878-5.878zm31.027 17.072a6.503 6.503 0 0 1 6.514 6.514 6.503 6.503 0 0 1-6.514 6.514 6.503 6.503 0 0 1-6.513-6.514 6.503 6.503 0 0 1 6.513-6.514z" color="#000" overflow="visible" fill="url(#o)" transform="translate(-1232 -208)"/><path style="isolation:auto;mix-blend-mode:normal;marker:none" d="M1313.465 257.825c-6.171 0-11.195 5.024-11.195 11.195 0 .17.023.336.03.505.322-5.885 5.201-10.58 11.165-10.58 5.982 0 10.872 4.724 11.166 10.634.013-.186.028-.37.028-.56 0-6.17-5.024-11.194-11.195-11.194zm-5.892 11.615c-.013.14-.02.278-.02.42a5.901 5.901 0 0 0 5.911 5.912 5.901 5.901 0 0 0 5.912-5.912c0-.142-.013-.28-.021-.42a5.896 5.896 0 0 1-5.89 5.49 5.897 5.897 0 0 1-5.892-5.49zm-4.481 4.851l-12.524 4.9a11.194 11.194 0 0 0-8.114-3.49c-6.182 0-11.194 5.013-11.194 11.196 0 .189.02.372.028.56.294-5.921 5.173-10.636 11.166-10.636a11.199 11.199 0 0 1 8.114 3.49l12.915-5.13c-.146-.288-.27-.588-.392-.89zm-10.265 8.434l-.387.234a11.179 11.179 0 0 1 1.174 4.49c.013-.184.035-.367.035-.552 0-1.435-.289-2.847-.822-4.172zm-16.246 4.591c-.013.14-.021.278-.021.42 0 3.232 2.646 5.878 5.877 5.878 3.233 0 5.878-2.646 5.878-5.878 0-.142-.013-.28-.021-.42-.218 3.038-2.766 5.458-5.856 5.458s-5.638-2.42-5.856-5.458zm16.22 4.905c-.122.298-.241.597-.39.885l12.74 5.147c2.052-2.28 5.014-3.723 8.314-3.723 5.982 0 10.872 4.724 11.166 10.635.013-.187.028-.371.028-.56 0-6.17-5.024-11.195-11.195-11.195-3.3 0-6.262 1.444-8.313 3.724zm10.245 8.352a11.027 11.027 0 0 0-.776 4.032c0 .204.02.404.03.606a11.117 11.117 0 0 1 1.127-4.41zm3.93 4.51a5.807 5.807 0 0 0-.025.477 6.503 6.503 0 0 0 6.514 6.514 6.503 6.503 0 0 0 6.514-6.514c0-.16-.013-.319-.024-.477a6.497 6.497 0 0 1-6.49 6.036 6.497 6.497 0 0 1-6.49-6.036z" color="#000" display="block" overflow="visible" opacity=".8" fill="url(#p)" paint-order="fill markers stroke" transform="translate(-1232 -208)"/><path style="isolation:auto;mix-blend-mode:normal;marker:none" d="M1313.465 262.268a5.901 5.901 0 0 0-5.912 5.91c0 .143.013.282.02.421a5.897 5.897 0 0 1 5.892-5.49 5.896 5.896 0 0 1 5.89 5.49c.013-.14.02-.278.02-.42a5.901 5.901 0 0 0-5.91-5.911zm-11.165 6.137c-.013.205-.03.407-.03.615 0 1.47.302 2.866.822 4.152l.39-.23a11.126 11.126 0 0 1-1.182-4.537zm22.331.055c-.294 5.91-5.184 10.635-11.167 10.635-3.243 0-6.16-1.396-8.208-3.61l-12.816 5.235c.146.288.267.587.387.885l12.43-5c2.046 2.213 4.964 3.61 8.207 3.61 6.171 0 11.196-5.025 11.196-11.195 0-.19-.02-.374-.029-.56zm-42.194 11.72c-3.232 0-5.878 2.645-5.878 5.877 0 .142.013.28.021.42.218-3.038 2.766-5.458 5.856-5.458s5.638 2.42 5.856 5.458c.013-.14.021-.278.021-.42 0-3.232-2.645-5.877-5.877-5.877zm11.177 6.15a11.179 11.179 0 0 1-1.202 4.537l.389.234c.545-1.334.845-2.757.848-4.204 0-.19-.027-.378-.035-.567zm-22.326.007c-.013.187-.028.37-.028.56 0 6.183 5.012 11.195 11.195 11.195a11.194 11.194 0 0 0 8.19-3.584l12.401 4.946c.119-.302.238-.603.38-.892l-12.78-5.173a11.197 11.197 0 0 1-8.191 3.584c-5.994 0-10.873-4.715-11.167-10.636zm42.177 10.8a6.503 6.503 0 0 0-6.514 6.513c0 .161.013.32.024.478a6.497 6.497 0 0 1 6.49-6.036 6.496 6.496 0 0 1 6.489 6.036c.013-.158.024-.317.024-.478a6.503 6.503 0 0 0-6.514-6.513zm11.166 6.909c-.294 5.91-5.184 10.635-11.166 10.635-5.967 0-10.847-4.7-11.165-10.59-.013.173-.03.34-.03.515 0 6.17 5.024 11.195 11.194 11.195 6.171 0 11.195-5.025 11.195-11.195 0-.19-.02-.374-.028-.56z" color="#000" display="block" overflow="visible" fill="url(#q)" transform="translate(-1232 -208)"/></svg>