<svg xmlns="http://www.w3.org/2000/svg" xmlns:xlink="http://www.w3.org/1999/xlink" height="128" viewBox="0 0 128 128" width="128"><title>Template icons dark</title><defs><linearGradient id="a"><stop offset="0" stop-color="#4ba8dc"/><stop offset="1" stop-color="#32b69b"/></linearGradient><radialGradient xlink:href="#a" id="b" cx="15.714" cy="18.264" fx="15.714" fy="18.264" r="21.545" gradientUnits="userSpaceOnUse" gradientTransform="matrix(3.63909 0 0 3.55392 194.5 192.49)"/></defs><g transform="translate(-208 -208)"><path d="M322.081 271.822c0-27.843-22.572-50.416-50.416-50.416-27.844 0-50.415 22.573-50.415 50.416 0 27.844 22.571 50.416 50.415 50.416 27.844 0 50.416-22.572 50.416-50.416" fill="url(#b)" stroke-width=".067"/><path d="M224.922 290.516c.283.061.535.193.818.251a78.13 78.13 0 0 0 15.676 1.58c5.37 0 10.612-.544 15.676-1.58a77.205 77.205 0 0 0 27.817-11.703 78.154 78.154 0 0 0 21.009-21.013 77.628 77.628 0 0 0 7.173-13.214c.163-.385.218-.819.374-1.207-9.06-13.407-24.4-22.224-41.8-22.224-27.844 0-50.415 22.573-50.415 50.416 0 6.619 1.354 12.904 3.672 18.694z" fill="#90e2a3" fill-opacity=".505" stroke-width=".067"/><path d="M270.793 222.03l-8.785.239-7.78 2.614 5.996 2.045 4.59-.951.39 1.52.999 2.614-1.798 2.14.4 4.278 2.792.95 1.797-4.993 3.392-.712 3.795-3.087-2.996-5.706zm-19.696 6.943l-7.052 2.705-11.355 8.12-4.698 7.925-3.722 5.988.196 14.303 1.567-.773.391-6.57 1.368 10.243 3.917 2.32 3.33 2.509 2.35 3.092 4.802-.57-.782.765 1.055 3.865-2.531 2.127.846 3.67 4.638 7.346 2.74.387 2.323 1.932 1.685 7.538 1.055 4.056 5.145 8.506 5.888 1.637-3.864-5.31-.843-3.865 3.161-3.478 2.532-6.188 4.008-.577 2.531-7.538 3.161-2.705-2.74-3.479-9.7-1.74-1.264-4.252-4.641-.19-2.953-3.288-3.795-.195-5.063-1.546-2.549 2.484-3.474-2.098-.981-3.091-3.326-1.16.977-3.282-3.13 2.123-1.568-1.16.195-6.57 5.089-2.318 2.35.387.59 4.442 2.349-.387.586-7.342 3.917-1.16v-3.478l4.502-3.478 4.894-.195-1.758-3.67 6.656-2.322-4.112-5.215-2.544 1.159-.786-3.674-2.545.773-3.721 7.343-1.368-2.896-2.544-2.319 5.675-3.865s3.915-1.354 4.698-1.354c.783 0 2.35 1.74 2.35 1.74l3.134-2.318-.981-2.71-3.912.387zm42.288 1.741l-4.307.578 1.372 7.347 3.135.386 3.13 2.51v-2.705l-2.74-4.056 5.48 3.478.196 4.443-4.894.581-2.154 4.06 2.154 3.67-5.089-.578.977 5.797 2.94 1.35 3.521-3.282.59-4.251 2.35.577 2.544 2.514-1.762 2.51 2.935.777.981-2.9 1.568 2.9 1.954-2.127 1.567 3.282 2.94.777-.2 3.67-4.307-1.737-.977 1.16-5.289-1.933-1.368-2.514-9.574 1.91-6.149 9.423 1.368 7.512 5.471 5.393 7.707-1.242 2.94 3.287-1.763 5.22 1.368 6.378-3.912 5.41-3.526 8.311 5.284-.968 8.42-7.925 4.112-7.538 2.744-7.729 3.13-3.478-2.544-2.514-2.349-13.721 2.74 5.22v6.764l2.545-2.9-.782-9.47-1.958-5.411-1.959-7.538-6.274-8.85-3.513-5.449-7.052-3.482z" fill="#207fa2" fill-opacity=".927" stroke-width=".064"/><path d="M270.435 222.11l-9.015.202-7.99 2.255 5.735.817 4.712-.817.822 2.255 1.024 2.25-1.846 1.846.408 3.688 2.87.817 1.847-4.303 3.48-.61 3.895-2.664-3.077-4.919zm-20.285 4.303l-7.375 2.866-11.88 8.606-4.919 8.394-3.89 6.356.202 15.16 1.64-.823.414-6.966 1.432 10.86.414.247 3.678 2.21 3.49 2.664 2.457 3.28 4.83-.582-.739.788 1.03 4.096-2.462 2.25.61 2.885.212 1.01 4.51 7.784 2.659.413 2.254 2.043 1.64 7.996 1.024 4.298 3.688 5.736 5.735 3.28-2.456-3.89-.823-4.102 3.078-3.687 2.456-6.553 3.89-.616 2.457-7.99 3.077-2.87-2.664-3.684-9.428-1.846-.207-.763-1.019-3.747-4.51-.202-2.865-3.48-3.683-.207-4.923-1.64-2.413 2.565-3.525-2.151-1.024-3.28-3.486-1.23.744-2.52.285-.96-2.215 1.516-1.064.738-.453-.345-1.186-.886.206-6.971 5.323-2.457 2.461.413.61 4.712 2.458-.413.62-7.78 4.091-1.23v-3.693l4.717-3.683 5.12-.206-1.841-3.895 6.967-2.457-4.304-5.533-2.663 1.23-.822-3.89-2.664.818-3.89 7.79-1.432-3.078-2.669-2.457 5.943-4.096s4.1-1.433 4.918-1.433c.82 0 2.457 1.841 2.457 1.841l3.28-2.461-1.025-2.866-4.096.409zm44.252 1.842l-4.51.615 1.438 7.784 3.274.409 3.279 2.663v-2.865l-2.866-4.303 5.736 3.682.207 4.717-5.12.61-2.256 4.304 2.255 3.894-5.327-.615 1.024 6.144 3.068 1.438 3.692-3.486.61-4.505 2.462.615 2.664 2.659-1.846 2.668 1.555.414 1.522.404 1.024-3.072 1.634 3.072 2.054-2.255 1.639 3.486 3.067.817-.202 3.894-4.505-1.846-1.029 1.23-5.529-2.047-1.004-1.871-.428-.793-8.193 1.846-6.356 9.424.404 4.032.418 4.16 6.145 5.938 6.35-1.024 3.073 3.486-1.841 5.529 1.432 6.76-4.096 5.736-3.692 8.812 5.534-1.024 8.812-8.399 4.304-7.99 2.865-8.198 3.274-3.688-2.659-2.658-2.456-14.55 2.865 5.535v7.168l2.664-3.072-.818-10.039-2.053-5.736-2.048-7.985-5.219-7.47-1.344-1.914-3.678-5.78-7.375-3.688z" fill="#f6fef6" stroke-width=".064"/><ellipse transform="matrix(.91812 -.3963 .33231 .94317 0 0)" ry="14.582" rx="58.733" cy="339.926" cx="168.996" style="isolation:auto;mix-blend-mode:normal;marker:none" color="#000" overflow="visible" fill="none" fill-opacity=".359" stroke="#000" stroke-width="1.262" stroke-dasharray="2.52377404,1.26188702,.6309435,1.26188702" stroke-opacity=".161" paint-order="fill markers stroke"/><ellipse style="isolation:auto;mix-blend-mode:normal;marker:none" cx="366.856" cy="130.938" rx="63.736" ry="15.824" transform="matrix(.91225 .40963 -.47132 .88196 0 0)" color="#000" overflow="visible" fill="none" fill-opacity=".359" stroke="#000" stroke-width="1.244" stroke-dasharray="2.48899179,1.2444959,.62224795,1.2444959" stroke-opacity=".161" paint-order="fill markers stroke"/><ellipse transform="matrix(.3554 .93471 -.95692 .29037 0 0)" ry="15.41" rx="62.069" cy="-145.883" cx="337.047" style="isolation:auto;mix-blend-mode:normal;marker:none" color="#000" overflow="visible" fill="none" fill-opacity=".359" stroke="#000" stroke-width="1.262" stroke-dasharray="2.52377404,1.26188702,.6309435,1.26188702" stroke-opacity=".161" paint-order="fill markers stroke"/><ellipse style="isolation:auto;mix-blend-mode:normal;marker:none" cx="76.744" cy="-360.273" rx="61.028" ry="15.151" transform="matrix(-.50039 .8658 -.82939 -.55867 0 0)" color="#000" overflow="visible" fill="none" fill-opacity=".359" stroke="#000" stroke-width="1.241" stroke-dasharray="2.48146412,1.24073205,.62036602,1.24073205" stroke-opacity=".161" paint-order="fill markers stroke"/><ellipse style="isolation:auto;mix-blend-mode:normal;marker:none" cx="168.198" cy="338.712" rx="58.733" ry="14.582" transform="matrix(.91812 -.3963 .33231 .94317 0 0)" color="#000" overflow="visible" fill="none" fill-opacity=".359" stroke="#fff" stroke-width="1.262" stroke-dasharray="2.52377404,1.26188702,.6309435,1.26188702" paint-order="fill markers stroke"/><ellipse transform="matrix(.91225 .40963 -.47132 .88196 0 0)" ry="15.824" rx="63.736" cy="130.651" cx="365.479" style="isolation:auto;mix-blend-mode:normal;marker:none" color="#000" overflow="visible" fill="none" fill-opacity=".359" stroke="#fff" stroke-width="1.244" stroke-dasharray="2.48899179,1.2444959,.62224795,1.2444959" paint-order="fill markers stroke"/><ellipse style="isolation:auto;mix-blend-mode:normal;marker:none" cx="335.921" cy="-145.114" rx="62.069" ry="15.41" transform="matrix(.3554 .93471 -.95692 .29037 0 0)" color="#000" overflow="visible" fill="none" fill-opacity=".359" stroke="#fff" stroke-width="1.262" stroke-dasharray="2.52377404,1.26188702,.6309435,1.26188702" paint-order="fill markers stroke"/><ellipse transform="matrix(-.50039 .8658 -.82939 -.55867 0 0)" ry="15.151" rx="61.028" cy="-358.894" cx="76.692" style="isolation:auto;mix-blend-mode:normal;marker:none" color="#000" overflow="visible" fill="none" fill-opacity=".359" stroke="#fff" stroke-width="1.241" stroke-dasharray="2.48146412,1.24073205,.62036602,1.24073205" paint-order="fill markers stroke"/></g></svg>