<svg xmlns="http://www.w3.org/2000/svg" height="128" viewBox="0 0 128 128" width="128"><title>Template icons dark</title><g transform="translate(-208 -208)"><path fill="none" d="M208 208h128v128H208z"/><rect ry="1.231" rx="1.32" width="98.001" height="112.999" x="222.999" y="216.001" fill="#636a78" stroke-width="1.275" stroke-opacity=".267"/><rect y="215.5" x="222.5" height="114" width="99" rx="2" ry="2" fill="none" stroke="#272a2f" stroke-opacity=".784"/><path d="M227.5 220.5c-.554 0-1 .446-1 1v14c0 .554.446 1 1 1h89c.554 0 1-.446 1-1v-14c0-.554-.446-1-1-1zm0 22c-.554 0-1 .446-1 1v14c0 .554.446 1 1 1h89c.554 0 1-.446 1-1v-14c0-.554-.446-1-1-1zm0 22c-.554 0-1 .446-1 1v14c0 .554.446 1 1 1h89c.554 0 1-.446 1-1v-14c0-.554-.446-1-1-1zm0 22c-.554 0-1 .446-1 1v14c0 .554.446 1 1 1h89c.554 0 1-.446 1-1v-14c0-.554-.446-1-1-1zm0 22c-.554 0-1 .446-1 1v14c0 .554.446 1 1 1h89c.554 0 1-.446 1-1v-14c0-.554-.446-1-1-1z" fill-opacity=".157" stroke="#484e57"/><path d="M230 224v9h1v-9zm3 0v9h1v-9zm3 0v9h1v-9zm3 0v9h1v-9zm3 0v9h1v-9zm3 0v9h1v-9zm-15 22v9h1v-9zm3 0v9h1v-9zm3 0v9h1v-9zm3 0v9h1v-9zm3 0v9h1v-9zm3 0v9h1v-9zm-15 22v9h1v-9zm3 0v9h1v-9zm3 0v9h1v-9zm3 0v9h1v-9zm3 0v9h1v-9zm3 0v9h1v-9zm-15 22v9h1v-9zm3 0v9h1v-9zm3 0v9h1v-9zm3 0v9h1v-9zm3 0v9h1v-9zm3 0v9h1v-9zm-15 22v9h1v-9zm3 0v9h1v-9zm3 0v9h1v-9zm3 0v9h1v-9zm3 0v9h1v-9zm3 0v9h1v-9z" fill-opacity=".296" stroke-opacity=".784"/><path d="M254 226v5h33v-5zm0 22v5h33v-5zm0 22v5h33v-5zm0 22v5h33v-5zm0 22v5h33v-5z" fill-opacity=".176" stroke-opacity=".784"/><path d="M307.5 228a.5.5 0 0 0-.5.5.5.5 0 0 0 .5.5.5.5 0 0 0 .5-.5.5.5 0 0 0-.5-.5zm0 22a.5.5 0 0 0-.5.5.5.5 0 0 0 .5.5.5.5 0 0 0 .5-.5.5.5 0 0 0-.5-.5zm0 22a.5.5 0 0 0-.5.5.5.5 0 0 0 .5.5.5.5 0 0 0 .5-.5.5.5 0 0 0-.5-.5zm0 22a.5.5 0 0 0-.5.5.5.5 0 0 0 .5.5.5.5 0 0 0 .5-.5.5.5 0 0 0-.5-.5zm0 23a.5.5 0 0 0-.5.5.5.5 0 0 0 .5.5.5.5 0 0 0 .5-.5.5.5 0 0 0-.5-.5z" fill-opacity=".296" stroke-opacity=".784"/><path d="M294.5 228a.5.5 0 0 0-.5.5.5.5 0 0 0 .5.5.5.5 0 0 0 .5-.5.5.5 0 0 0-.5-.5zm4 0a.5.5 0 0 0-.5.5.5.5 0 0 0 .5.5.5.5 0 0 0 .5-.5.5.5 0 0 0-.5-.5zm5 0a.5.5 0 0 0-.5.5.5.5 0 0 0 .5.5.5.5 0 0 0 .5-.5.5.5 0 0 0-.5-.5zm-9 22a.5.5 0 0 0-.5.5.5.5 0 0 0 .5.5.5.5 0 0 0 .5-.5.5.5 0 0 0-.5-.5zm4 0a.5.5 0 0 0-.5.5.5.5 0 0 0 .5.5.5.5 0 0 0 .5-.5.5.5 0 0 0-.5-.5zm5 0a.5.5 0 0 0-.5.5.5.5 0 0 0 .5.5.5.5 0 0 0 .5-.5.5.5 0 0 0-.5-.5zm-9 22a.5.5 0 0 0-.5.5.5.5 0 0 0 .5.5.5.5 0 0 0 .5-.5.5.5 0 0 0-.5-.5zm4 0a.5.5 0 0 0-.5.5.5.5 0 0 0 .5.5.5.5 0 0 0 .5-.5.5.5 0 0 0-.5-.5zm5 0a.5.5 0 0 0-.5.5.5.5 0 0 0 .5.5.5.5 0 0 0 .5-.5.5.5 0 0 0-.5-.5zm-9 22a.5.5 0 0 0-.5.5.5.5 0 0 0 .5.5.5.5 0 0 0 .5-.5.5.5 0 0 0-.5-.5zm4 0a.5.5 0 0 0-.5.5.5.5 0 0 0 .5.5.5.5 0 0 0 .5-.5.5.5 0 0 0-.5-.5zm5 0a.5.5 0 0 0-.5.5.5.5 0 0 0 .5.5.5.5 0 0 0 .5-.5.5.5 0 0 0-.5-.5zm-9 23a.5.5 0 0 0-.5.5.5.5 0 0 0 .5.5.5.5 0 0 0 .5-.5.5.5 0 0 0-.5-.5zm4 0a.5.5 0 0 0-.5.5.5.5 0 0 0 .5.5.5.5 0 0 0 .5-.5.5.5 0 0 0-.5-.5zm5 0a.5.5 0 0 0-.5.5.5.5 0 0 0 .5.5.5.5 0 0 0 .5-.5.5.5 0 0 0-.5-.5z" fill="#6bdfe7" stroke-opacity=".784"/></g></svg>