<svg xmlns:osb="http://www.openswatchbook.org/uri/2009/osb" xmlns="http://www.w3.org/2000/svg" xmlns:xlink="http://www.w3.org/1999/xlink" height="96" viewBox="0 0 96 96" width="96"><title>Template icons dark</title><defs><linearGradient id="f" osb:paint="solid"><stop offset="0"/></linearGradient><linearGradient id="c" osb:paint="solid"><stop offset="0" stop-opacity=".018"/></linearGradient><linearGradient id="e"><stop offset="0" stop-opacity=".128"/><stop offset="1" stop-opacity=".392"/></linearGradient><linearGradient id="a"><stop offset="0" stop-color="#66a3e2"/><stop offset="1" stop-color="#69a5e3"/></linearGradient><linearGradient id="b" osb:paint="solid"><stop offset="0" stop-color="#525e7d"/></linearGradient><linearGradient id="d"><stop offset="0" stop-opacity="0"/><stop offset=".25" stop-opacity=".091"/><stop offset="1" stop-opacity="0"/></linearGradient><linearGradient xlink:href="#c" id="k" gradientUnits="userSpaceOnUse" gradientTransform="matrix(1.01967 0 0 1.03029 710.062 -69.829)" x1="64.666" y1="133.777" x2="88.203" y2="133.777"/><linearGradient xlink:href="#b" id="l" gradientUnits="userSpaceOnUse" gradientTransform="translate(768)" x1="116" y1="160" x2="204" y2="160"/><linearGradient xlink:href="#d" id="m" gradientUnits="userSpaceOnUse" gradientTransform="matrix(1.9848 0 0 1.98753 879.709 109.325)" x1="13" y1="17" x2="13" y2="11"/><linearGradient xlink:href="#a" id="n" gradientUnits="userSpaceOnUse" gradientTransform="translate(768)" x1="170.856" y1="132.472" x2="170.856" y2="201"/><linearGradient id="j" osb:paint="solid"><stop offset="0" stop-color="#4b78a7"/></linearGradient><linearGradient id="g"><stop offset="0" stop-color="#404552" stop-opacity="0"/><stop offset="1" stop-color="#404552" stop-opacity=".839"/></linearGradient><linearGradient id="h"><stop offset="0" stop-color="#404552" stop-opacity=".036"/><stop offset="1" stop-color="#404552" stop-opacity=".979"/></linearGradient><linearGradient id="i"><stop offset="0" stop-color="#828282"/><stop offset=".253" stop-color="#fff"/><stop offset=".522" stop-color="#717171"/><stop offset=".785" stop-color="#717171"/><stop offset="1" stop-color="#4c4c4c"/></linearGradient><linearGradient xlink:href="#j" id="o" gradientUnits="userSpaceOnUse" gradientTransform="matrix(1.21463 0 0 1.21463 3.194 -5.807)" x1="428" y1="172" x2="468.094" y2="172"/></defs><path style="marker:none" d="M888 119c-3 0-5 2-5 5v72c0 3 2 5 5 5 27.277-.068 80 0 80 0 3 0 5-2 5-5 0 0-.343-41.577 0-63 0-3-2-5-5-5h-36l-12-9.008z" fill="url(#k)" paint-order="fill markers stroke" transform="translate(-880 -112)"/><path d="M888 120c-2 0-4 2-4 4v72c0 2 2 4 4 4h80c2 0 4-2 4-4 0 0-.33-42.4 0-63 0-2-2-4-4-4h-36l-12-9z" fill="url(#l)" transform="translate(-880 -112)"/><path d="M888 120c-2 0-4 2-4 4v72c0 2 2 4 4 4h80c2 0 4-2 4-4 0 0-.33-42.4 0-63 0-2-2-4-4-4h-36l-12-9z" fill="url(#m)" transform="translate(-880 -112)"/><path style="marker:none" d="M968 129c2 0 4.088 2.002 4 4v63c0 2-2 4-4 4-26.228-.066-79.874 0-79.874 0-2.126 0-4.126-2-4.126-4v-52c0-2 2-4 4-4h32l12-11z" fill="url(#n)" paint-order="fill markers stroke" transform="translate(-880 -112)"/><path d="M8 8c-2 0-4 2-4 4 0-1.988 2-2.976 4-3h32l11.016 8H52L40 8z" fill="#fff" fill-opacity=".328"/><path d="M52 17L40 28H8c-2 0-4 2-4 4 0-2 2-3 4-3h32l12.016-11H88c2 0 4 1 4 3 0-2-2-4-4-4z" fill="#fff" fill-opacity=".37"/><path d="M11 12.048h24c1.108 0 2 1.104 2 2.476C37 15.896 36.108 17 35 17H11c-1.108 0-2-1.104-2-2.476 0-1.372.892-2.476 2-2.476z" style="isolation:auto;mix-blend-mode:normal;marker:none" color="#000" display="block" overflow="visible" fill-opacity=".078" paint-order="fill markers stroke"/><path d="M11 12c-1.108 0-2 .892-2 2 0 .111.016.218.033.324A1.991 1.991 0 0 1 11 12.648h24c.996 0 1.811.725 1.967 1.676.017-.106.033-.213.033-.324 0-1.108-.892-2-2-2z" style="isolation:auto;mix-blend-mode:normal;marker:none" color="#000" display="block" overflow="visible" fill-opacity=".157" paint-order="fill markers stroke"/><path style="isolation:auto;mix-blend-mode:normal;marker:none" d="M35 16.969c1.108 0 2-.892 2-2 0-.111-.016-.218-.033-.324A1.991 1.991 0 0 1 35 16.32H11a1.991 1.991 0 0 1-1.967-1.675 2.012 2.012 0 0 0-.033.324c0 1.108.892 2 2 2z" color="#000" display="block" overflow="visible" fill="#e7e7e7" fill-opacity=".235" paint-order="fill markers stroke"/><path style="isolation:auto;mix-blend-mode:normal;marker:none" d="M939.615 147.393c-4.64 0-8.417 3.778-8.417 8.417 0 1.365.333 2.65.912 3.791l-9.71 3.857a8.417 8.417 0 0 0-6.101-2.624 8.417 8.417 0 0 0 0 16.835 8.417 8.417 0 0 0 6.158-2.695l9.61 3.89a8.35 8.35 0 0 0-.87 3.702c0 4.64 3.778 8.418 8.418 8.418 4.64 0 8.417-3.778 8.417-8.418 0-4.64-3.777-8.417-8.417-8.417a8.39 8.39 0 0 0-6.25 2.8l-9.58-3.87a8.42 8.42 0 0 0 .931-3.827 8.419 8.419 0 0 0-.909-3.803l9.636-3.936a8.387 8.387 0 0 0 6.172 2.715c4.64 0 8.417-3.778 8.417-8.418 0-4.64-3.777-8.417-8.417-8.417zm0 3.973a4.437 4.437 0 0 1 4.445 4.444 4.437 4.437 0 0 1-4.445 4.445 4.437 4.437 0 0 1-4.445-4.445 4.437 4.437 0 0 1 4.445-4.444zm-23.329 13.467a4.433 4.433 0 0 1 4.419 4.419c0 2.43-1.989 4.419-4.419 4.419a4.433 4.433 0 0 1-4.42-4.42c0-2.43 1.99-4.418 4.42-4.418zm23.329 12.836a4.89 4.89 0 0 1 4.898 4.897 4.89 4.89 0 0 1-4.898 4.898 4.89 4.89 0 0 1-4.898-4.898 4.89 4.89 0 0 1 4.898-4.897z" color="#000" overflow="visible" opacity=".8" fill="url(#o)" paint-order="fill markers stroke" transform="translate(-880 -112)"/></svg>