<svg xmlns:osb="http://www.openswatchbook.org/uri/2009/osb" xmlns="http://www.w3.org/2000/svg" xmlns:xlink="http://www.w3.org/1999/xlink" height="96" viewBox="0 0 96 96" width="96"><title>Template icons dark</title><defs><linearGradient id="f" osb:paint="solid"><stop offset="0"/></linearGradient><linearGradient id="c" osb:paint="solid"><stop offset="0" stop-opacity=".018"/></linearGradient><linearGradient id="e"><stop offset="0" stop-opacity=".128"/><stop offset="1" stop-opacity=".392"/></linearGradient><linearGradient id="a"><stop offset="0" stop-color="#66a3e2"/><stop offset="1" stop-color="#69a5e3"/></linearGradient><linearGradient id="b" osb:paint="solid"><stop offset="0" stop-color="#525e7d"/></linearGradient><linearGradient id="d"><stop offset="0" stop-opacity="0"/><stop offset=".25" stop-opacity=".091"/><stop offset="1" stop-opacity="0"/></linearGradient><linearGradient xlink:href="#c" id="k" gradientUnits="userSpaceOnUse" gradientTransform="matrix(1.01967 0 0 1.03029 806.062 -69.829)" x1="64.666" y1="133.777" x2="88.203" y2="133.777"/><linearGradient xlink:href="#b" id="l" gradientUnits="userSpaceOnUse" gradientTransform="translate(864)" x1="116" y1="160" x2="204" y2="160"/><linearGradient xlink:href="#d" id="m" gradientUnits="userSpaceOnUse" gradientTransform="matrix(1.9848 0 0 1.98753 975.709 109.325)" x1="13" y1="17" x2="13" y2="11"/><linearGradient xlink:href="#a" id="n" gradientUnits="userSpaceOnUse" gradientTransform="translate(864)" x1="170.856" y1="132.472" x2="170.856" y2="201"/><linearGradient id="j" osb:paint="solid"><stop offset="0" stop-color="#4b78a7"/></linearGradient><linearGradient gradientTransform="matrix(-1 0 0 1 2144 0)" xlink:href="#g" id="t" x1="1135" y1="205.5" x2="1140" y2="205.5" gradientUnits="userSpaceOnUse"/><linearGradient id="g"><stop offset="0" stop-color="#404552" stop-opacity="0"/><stop offset="1" stop-color="#404552" stop-opacity=".839"/></linearGradient><linearGradient gradientTransform="translate(-96)" xlink:href="#h" id="s" x1="1135" y1="205.5" x2="1140" y2="205.5" gradientUnits="userSpaceOnUse"/><linearGradient id="h"><stop offset="0" stop-color="#404552" stop-opacity=".036"/><stop offset="1" stop-color="#404552" stop-opacity=".979"/></linearGradient><linearGradient gradientTransform="translate(-96)" xlink:href="#i" id="r" gradientUnits="userSpaceOnUse" x1="1134" y1="205" x2="1134" y2="206"/><linearGradient id="i"><stop offset="0" stop-color="#828282"/><stop offset=".253" stop-color="#fff"/><stop offset=".522" stop-color="#717171"/><stop offset=".785" stop-color="#717171"/><stop offset="1" stop-color="#4c4c4c"/></linearGradient><linearGradient gradientTransform="translate(-96)" xlink:href="#i" id="q" gradientUnits="userSpaceOnUse" x1="1108" y1="205" x2="1108" y2="206.142"/><linearGradient gradientTransform="translate(-96)" xlink:href="#i" id="p" gradientUnits="userSpaceOnUse" x1="1118" y1="202" x2="1121.953" y2="202"/><linearGradient gradientTransform="translate(-96)" xlink:href="#i" id="o" gradientUnits="userSpaceOnUse" x1="1120" y1="204" x2="1120" y2="207"/></defs><path d="M984 119c-3 0-5 2-5 5v72c0 3 2 5 5 5 27.277-.068 80 0 80 0 3 0 5-2 5-5 0 0-.343-41.577 0-63 0-3-2-5-5-5h-36l-12-9.008z" style="marker:none" fill="url(#k)" paint-order="fill markers stroke" transform="translate(-976 -112)"/><path d="M984 120c-2 0-4 2-4 4v72c0 2 2 4 4 4h80c2 0 4-2 4-4 0 0-.33-42.4 0-63 0-2-2-4-4-4h-36l-12-9z" fill="url(#l)" transform="translate(-976 -112)"/><path d="M984 120c-2 0-4 2-4 4v72c0 2 2 4 4 4h80c2 0 4-2 4-4 0 0-.33-42.4 0-63 0-2-2-4-4-4h-36l-12-9z" fill="url(#m)" transform="translate(-976 -112)"/><path d="M1064 129c2 0 4.088 2.002 4 4v63c0 2-2 4-4 4-26.228-.066-79.874 0-79.874 0-2.126 0-4.126-2-4.126-4v-52c0-2 2-4 4-4h32l12-11z" style="marker:none" fill="url(#n)" paint-order="fill markers stroke" transform="translate(-976 -112)"/><path d="M8 8c-2 0-4 2-4 4 0-1.988 2-2.976 4-3h32l11.016 8H52L40 8z" fill="#fff" fill-opacity=".328"/><path d="M52 17L40 28H8c-2 0-4 2-4 4 0-2 2-3 4-3h32l12.016-11H88c2 0 4 1 4 3 0-2-2-4-4-4z" fill="#fff" fill-opacity=".37"/><path style="isolation:auto;mix-blend-mode:normal;marker:none" d="M11 12.048h24c1.108 0 2 1.104 2 2.476C37 15.896 36.108 17 35 17H11c-1.108 0-2-1.104-2-2.476 0-1.372.892-2.476 2-2.476z" color="#000" display="block" overflow="visible" fill-opacity=".078" paint-order="fill markers stroke"/><path style="isolation:auto;mix-blend-mode:normal;marker:none" d="M11 12c-1.108 0-2 .892-2 2 0 .111.016.218.033.324A1.991 1.991 0 0 1 11 12.648h24c.996 0 1.811.725 1.967 1.676.017-.106.033-.213.033-.324 0-1.108-.892-2-2-2z" color="#000" display="block" overflow="visible" fill-opacity=".157" paint-order="fill markers stroke"/><path d="M35 16.969c1.108 0 2-.892 2-2 0-.111-.016-.218-.033-.324A1.991 1.991 0 0 1 35 16.32H11a1.991 1.991 0 0 1-1.967-1.675 2.012 2.012 0 0 0-.033.324c0 1.108.892 2 2 2z" style="isolation:auto;mix-blend-mode:normal;marker:none" color="#000" display="block" overflow="visible" fill="#e7e7e7" fill-opacity=".235" paint-order="fill markers stroke"/><path style="isolation:auto;mix-blend-mode:normal;marker:none" d="M1016.965 204h14.07c.535 0 .965.43.965.965v2.07c0 .535-.43.965-.965.965h-14.07a.963.963 0 0 1-.965-.965v-2.07c0-.535.43-.965.965-.965z" color="#000" display="block" overflow="visible" fill="url(#o)" transform="translate(-976 -112)"/><path style="isolation:auto;mix-blend-mode:normal;marker:none" d="M1021 199.969h6v4.617s-1.979.435-2.984.436c-1.016 0-3.016-.436-3.016-.436z" color="#000" display="block" overflow="visible" fill="url(#p)" transform="translate(-976 -112)"/><path style="isolation:auto;mix-blend-mode:normal;marker:none" d="M1004 205h12v2h-12z" color="#000" display="block" overflow="visible" fill="url(#q)" transform="translate(-976 -112)"/><path style="isolation:auto;mix-blend-mode:normal;marker:none" d="M1032 205h12v2h-12z" color="#000" display="block" overflow="visible" fill="url(#r)" transform="translate(-976 -112)"/><path style="isolation:auto;mix-blend-mode:normal;marker:none" d="M45 87.972h6V90h-6zM56 93h1v2h-1z" color="#000" display="block" overflow="visible" fill-opacity=".406"/><path d="M44.984 92.032s1.087.39 2.988.392c1.901 0 3.012-.392 3.012-.392v.533S49.953 93 48 93s-3.016-.435-3.016-.435z" style="isolation:auto;mix-blend-mode:normal;marker:none" color="#000" display="block" overflow="visible" fill-opacity=".26"/><path style="isolation:auto;mix-blend-mode:normal;marker:none" d="M39 93h1v2h-1zM43 92h1v4h-1z" color="#000" display="block" overflow="visible" fill-opacity=".406"/><path style="isolation:auto;mix-blend-mode:normal;marker:none" d="M1039 205h5v2h-5z" color="#000" display="block" overflow="visible" fill="url(#s)" transform="translate(-976 -112)"/><path style="isolation:auto;mix-blend-mode:normal;marker:none" d="M1009 205h-5v2h5z" color="#000" display="block" overflow="visible" fill="url(#t)" transform="translate(-976 -112)"/><path style="isolation:auto;mix-blend-mode:normal;marker:none" d="M45 87.972h6v1.014h-6z" color="#000" display="block" overflow="visible" fill-opacity=".406"/><path style="isolation:auto;mix-blend-mode:normal;marker:none" d="M44 87h8l3 1H41z" color="#000" display="block" overflow="visible" fill="#ebebeb" fill-opacity=".276"/><path style="isolation:auto;mix-blend-mode:normal;marker:none" d="M44 92h-.2v4h.2z" color="#000" display="block" overflow="visible" fill="#fff" fill-opacity=".167"/><path d="M43.213 92H43v4h.213z" style="isolation:auto;mix-blend-mode:normal;marker:none" color="#000" display="block" overflow="visible" fill="#090909" fill-opacity=".385"/><path d="M53 92h1v4h-1z" style="isolation:auto;mix-blend-mode:normal;marker:none" color="#000" display="block" overflow="visible" fill-opacity=".406"/><path d="M54 92h-.2v4h.2z" style="isolation:auto;mix-blend-mode:normal;marker:none" color="#000" display="block" overflow="visible" fill="#fff" fill-opacity=".167"/><path style="isolation:auto;mix-blend-mode:normal;marker:none" d="M53.213 92H53v4h.213z" color="#000" display="block" overflow="visible" fill="#090909" fill-opacity=".385"/></svg>