<svg xmlns="http://www.w3.org/2000/svg" height="96" viewBox="0 0 96 96" width="96"><title>Template icons dark</title><g transform="translate(-112 -112)"><rect ry="1.231" rx="1.32" width="74" height="83" x="123" y="119" fill="#636a78" stroke-width=".956" stroke-opacity=".267"/><rect y="118.5" x="122.5" height="84" width="75" rx="2" ry="2" fill="none" stroke="#272a2f" stroke-opacity=".784"/><path d="M126.5 122.5c-.554 0-1 .446-1 1v10c0 .554.446 1 1 1h67c.554 0 1-.446 1-1v-10c0-.554-.446-1-1-1zm0 16c-.554 0-1 .446-1 1v10c0 .554.446 1 1 1h67c.554 0 1-.446 1-1v-10c0-.554-.446-1-1-1zm0 16c-.554 0-1 .446-1 1v10c0 .554.446 1 1 1h67c.554 0 1-.446 1-1v-10c0-.554-.446-1-1-1zm0 16c-.554 0-1 .446-1 1v10c0 .554.446 1 1 1h67c.554 0 1-.446 1-1v-10c0-.554-.446-1-1-1zm0 16c-.554 0-1 .446-1 1v10c0 .554.446 1 1 1h67c.554 0 1-.446 1-1v-10c0-.554-.446-1-1-1z" fill-opacity=".157" stroke="#484e57"/><path d="M128 125v7h1v-7zm3 0v7h1v-7zm3 0v7h1v-7zm3 0v7h1v-7zm3 0v7h1v-7zm-12 16v7h1v-7zm3 0v7h1v-7zm3 0v7h1v-7zm3 0v7h1v-7zm3 0v7h1v-7zm-12 16v7h1v-7zm3 0v7h1v-7zm3 0v7h1v-7zm3 0v7h1v-7zm3 0v7h1v-7zm-12 16v7h1v-7zm3 0v7h1v-7zm3 0v7h1v-7zm3 0v7h1v-7zm3 0v7h1v-7zm-12 16v7h1v-7zm3 0v7h1v-7zm3 0v7h1v-7zm3 0v7h1v-7zm3 0v7h1v-7zM189.5 128a.5.5 0 0 0-.5.5.5.5 0 0 0 .5.5.5.5 0 0 0 .5-.5.5.5 0 0 0-.5-.5zm0 16a.5.5 0 0 0-.5.5.5.5 0 0 0 .5.5.5.5 0 0 0 .5-.5.5.5 0 0 0-.5-.5zm0 16a.5.5 0 0 0-.5.5.5.5 0 0 0 .5.5.5.5 0 0 0 .5-.5.5.5 0 0 0-.5-.5zm0 16a.5.5 0 0 0-.5.5.5.5 0 0 0 .5.5.5.5 0 0 0 .5-.5.5.5 0 0 0-.5-.5zm0 16a.5.5 0 0 0-.5.5.5.5 0 0 0 .5.5.5.5 0 0 0 .5-.5.5.5 0 0 0-.5-.5z" fill-opacity=".296" stroke-width=".75" stroke-opacity=".784"/><path d="M176.5 128a.5.5 0 0 0-.5.5.5.5 0 0 0 .5.5.5.5 0 0 0 .5-.5.5.5 0 0 0-.5-.5zm4 0a.5.5 0 0 0-.5.5.5.5 0 0 0 .5.5.5.5 0 0 0 .5-.5.5.5 0 0 0-.5-.5zm5 0a.5.5 0 0 0-.5.5.5.5 0 0 0 .5.5.5.5 0 0 0 .5-.5.5.5 0 0 0-.5-.5zm-9 16a.5.5 0 0 0-.5.5.5.5 0 0 0 .5.5.5.5 0 0 0 .5-.5.5.5 0 0 0-.5-.5zm4 0a.5.5 0 0 0-.5.5.5.5 0 0 0 .5.5.5.5 0 0 0 .5-.5.5.5 0 0 0-.5-.5zm5 0a.5.5 0 0 0-.5.5.5.5 0 0 0 .5.5.5.5 0 0 0 .5-.5.5.5 0 0 0-.5-.5zm-9 16a.5.5 0 0 0-.5.5.5.5 0 0 0 .5.5.5.5 0 0 0 .5-.5.5.5 0 0 0-.5-.5zm4 0a.5.5 0 0 0-.5.5.5.5 0 0 0 .5.5.5.5 0 0 0 .5-.5.5.5 0 0 0-.5-.5zm5 0a.5.5 0 0 0-.5.5.5.5 0 0 0 .5.5.5.5 0 0 0 .5-.5.5.5 0 0 0-.5-.5zm-9 16a.5.5 0 0 0-.5.5.5.5 0 0 0 .5.5.5.5 0 0 0 .5-.5.5.5 0 0 0-.5-.5zm4 0a.5.5 0 0 0-.5.5.5.5 0 0 0 .5.5.5.5 0 0 0 .5-.5.5.5 0 0 0-.5-.5zm5 0a.5.5 0 0 0-.5.5.5.5 0 0 0 .5.5.5.5 0 0 0 .5-.5.5.5 0 0 0-.5-.5zm-9 16a.5.5 0 0 0-.5.5.5.5 0 0 0 .5.5.5.5 0 0 0 .5-.5.5.5 0 0 0-.5-.5zm4 0a.5.5 0 0 0-.5.5.5.5 0 0 0 .5.5.5.5 0 0 0 .5-.5.5.5 0 0 0-.5-.5zm5 0a.5.5 0 0 0-.5.5.5.5 0 0 0 .5.5.5.5 0 0 0 .5-.5.5.5 0 0 0-.5-.5z" fill="#6be7e7" stroke-width=".75" stroke-opacity=".784"/><path d="M146 126v5h26v-5zm0 16v5h26v-5zm0 16v5h26v-5zm0 16v5h26v-5zm0 16v5h26v-5z" fill-opacity=".176" stroke-width=".75" stroke-opacity=".784"/></g></svg>