<svg xmlns="http://www.w3.org/2000/svg" xmlns:xlink="http://www.w3.org/1999/xlink" height="96" viewBox="0 0 96 96" width="96"><title>Template icons dark</title><defs><linearGradient id="a"><stop offset="0" stop-color="#4ba8dc"/><stop offset="1" stop-color="#32b69b"/></linearGradient><radialGradient xlink:href="#a" id="b" cx="15.714" cy="18.264" fx="15.714" fy="18.264" r="21.545" gradientUnits="userSpaceOnUse" gradientTransform="matrix(2.78996 0 0 2.72467 100.635 99.07)"/></defs><g transform="translate(-112 -112)"><path d="M198.447 159.89c0-21.346-17.306-38.651-38.652-38.651-21.347 0-38.652 17.305-38.652 38.652s17.305 38.652 38.652 38.652c21.346 0 38.652-17.305 38.652-38.652" fill="url(#b)" stroke-width=".051"/><path d="M123.959 174.223c.216.047.41.148.626.193a59.9 59.9 0 0 0 12.019 1.211 59.9 59.9 0 0 0 12.018-1.211 59.19 59.19 0 0 0 21.327-8.973 59.918 59.918 0 0 0 16.106-16.11 59.514 59.514 0 0 0 5.5-10.13c.124-.296.166-.629.286-.926-6.946-10.279-18.707-17.038-32.046-17.038-21.347 0-38.652 17.305-38.652 38.652 0 5.074 1.038 9.893 2.816 14.332z" fill="#90e2a3" fill-opacity=".505" stroke-width=".051"/><path d="M159.126 121.717l-6.735.183-5.965 2.004 4.597 1.568 3.519-.729.3 1.165.765 2.004-1.378 1.642.306 3.279 2.14.729 1.379-3.829 2.6-.546 2.91-2.367-2.298-4.374zm-15.1 5.323l-5.407 2.074-8.705 6.225-3.602 6.076-2.853 4.59.15 10.966 1.201-.592.3-5.037 1.049 7.853 3.002 1.778 2.554 1.924 1.8 2.37 3.683-.436-.6.586.81 2.963-1.942 1.631.65 2.813 3.555 5.633 2.1.296 1.782 1.481 1.291 5.78.81 3.109 3.944 6.521 4.514 1.255-2.963-4.071-.645-2.963 2.423-2.666 1.94-4.744 3.074-.443 1.94-5.78 2.424-2.073-2.1-2.667-7.438-1.335-.968-3.259-3.56-.146-2.263-2.52-2.91-.15-3.881-1.185-1.954 1.904-2.663-1.608-.753-2.37-2.55-.889.75-2.517-2.4 1.628-1.203-.889.15-5.036 3.902-1.778 1.8.296.453 3.406 1.801-.296.45-5.63 3.003-.889v-2.666l3.452-2.667 3.752-.15-1.349-2.813 5.104-1.78-3.153-3.999-1.95.89-.603-2.817-1.951.592-2.853 5.63-1.049-2.22-1.95-1.778 4.35-2.963s3.002-1.039 3.603-1.039c.6 0 1.8 1.335 1.8 1.335l2.404-1.778-.752-2.077-3 .296zm32.42 1.335l-3.302.443 1.052 5.633 2.404.296 2.4 1.924v-2.074l-2.1-3.11 4.2 2.667.15 3.406-3.752.446-1.65 3.113 1.65 2.813-3.901-.443.749 4.444 2.254 1.035 2.7-2.516.452-3.26 1.801.443 1.951 1.928-1.352 1.924 2.25.596.753-2.224 1.202 2.224 1.498-1.631 1.202 2.516 2.253.596-.153 2.813-3.302-1.331-.749.888-4.055-1.48-1.048-1.928-7.34 1.464-4.715 7.224 1.049 5.76 4.195 4.134 5.908-.952 2.254 2.52-1.351 4.001 1.048 4.89-3 4.149-2.702 6.371 4.051-.742 6.455-6.075 3.153-5.78 2.104-5.925 2.4-2.667-1.951-1.927-1.801-10.52 2.1 4.002v5.186l1.951-2.224-.599-7.26-1.501-4.148-1.502-5.78-4.81-6.784-2.693-4.178-5.407-2.67z" fill="#207fa2" fill-opacity=".927" stroke-width=".049"/><path d="M158.851 121.779l-6.911.154-6.126 1.73 4.397.626 3.612-.627.63 1.729.786 1.725-1.416 1.415.314 2.828 2.2.626 1.416-3.299 2.668-.468 2.986-2.042-2.359-3.77zm-15.551 3.299l-5.655 2.196-9.108 6.598-3.77 6.436-2.983 4.873.155 11.622 1.257-.63.317-5.341 1.099 8.327.317.188 2.82 1.695 2.676 2.042 1.883 2.514 3.703-.445-.566.604.789 3.14-1.888 1.725.468 2.212.163.774 3.457 5.967 2.039.318 1.728 1.566 1.257 6.13.785 3.295 2.828 4.398 4.397 2.514-1.883-2.982-.63-3.145 2.358-2.827 1.884-5.024 2.982-.472 1.883-6.126 2.36-2.2-2.043-2.824-7.228-1.415-.158-.585-.782-2.873-3.457-.155-2.197-2.668-2.824-.159-3.774-1.257-1.85 1.967-2.702-1.65-.785-2.514-2.673-.943.57-1.933.219-.736-1.699 1.163-.815.566-.347-.264-.91-.68.159-5.345 4.08-1.883 1.887.317.468 3.612 1.884-.317.475-5.964 3.137-.943v-2.831l3.616-2.824 3.926-.158-1.412-2.986 5.341-1.884-3.299-4.242-2.042.943-.63-2.981-2.042.626-2.982 5.972-1.099-2.36-2.045-1.883 4.555-3.14s3.143-1.099 3.771-1.099c.628 0 1.884 1.412 1.884 1.412l2.514-1.888-.785-2.196-3.14.313zm33.926 1.411l-3.458.472 1.103 5.968 2.51.313 2.514 2.042v-2.197l-2.197-3.299 4.397 2.824.159 3.616-3.926.468-1.729 3.299 1.73 2.986-4.085-.472.785 4.71 2.352 1.103 2.83-2.673.469-3.454 1.887.472 2.042 2.039-1.415 2.045 1.192.317 1.167.31.785-2.355 1.253 2.355 1.574-1.729 1.257 2.673 2.352.626-.155 2.986-3.454-1.416-.789.944-4.239-1.57-.77-1.435-.328-.607-6.281 1.415-4.873 7.225.31 3.091.32 3.19 4.71 4.552 4.87-.785 2.356 2.672-1.412 4.24 1.098 5.182-3.14 4.397-2.831 6.757 4.242-.785 6.757-6.44 3.299-6.126 2.197-6.285 2.51-2.827-2.038-2.038-1.884-11.154 2.197 4.242v5.496l2.042-2.355-.627-7.697-1.574-4.397-1.57-6.122-4-5.727-1.031-1.468-2.82-4.431-5.654-2.827z" fill="#f6fef6" stroke-width=".049"/><ellipse transform="matrix(.91812 -.3963 .33231 .94317 0 0)" ry="11.179" rx="45.029" cy="196.711" cx="99.886" style="isolation:auto;mix-blend-mode:normal;marker:none" color="#000" overflow="visible" fill="none" fill-opacity=".359" stroke="#000" stroke-width=".967" stroke-dasharray="1.9348885,.96744425,.48372211,.96744425" stroke-opacity=".161" paint-order="fill markers stroke"/><ellipse style="isolation:auto;mix-blend-mode:normal;marker:none" cx="215.48" cy="75.938" rx="48.864" ry="12.131" transform="matrix(.91225 .40963 -.47132 .88196 0 0)" color="#000" overflow="visible" fill="none" fill-opacity=".359" stroke="#000" stroke-width=".954" stroke-dasharray="1.90822218,.95411109,.47705554,.95411109" stroke-opacity=".161" paint-order="fill markers stroke"/><ellipse transform="matrix(.3554 .93471 -.95692 .29037 0 0)" ry="11.814" rx="47.586" cy="-83.7" cx="197.766" style="isolation:auto;mix-blend-mode:normal;marker:none" color="#000" overflow="visible" fill="none" fill-opacity=".359" stroke="#000" stroke-width=".967" stroke-dasharray="1.9348885,.96744425,.48372211,.96744425" stroke-opacity=".161" paint-order="fill markers stroke"/><ellipse style="isolation:auto;mix-blend-mode:normal;marker:none" cx="45.661" cy="-209.805" rx="46.788" ry="11.616" transform="matrix(-.50039 .8658 -.82939 -.55867 0 0)" color="#000" overflow="visible" fill="none" fill-opacity=".359" stroke="#000" stroke-width=".951" stroke-dasharray="1.90245098,.95122548,.47561274,.95122548" stroke-opacity=".161" paint-order="fill markers stroke"/><ellipse style="isolation:auto;mix-blend-mode:normal;marker:none" cx="99.274" cy="195.78" rx="45.029" ry="11.179" transform="matrix(.91812 -.3963 .33231 .94317 0 0)" color="#000" overflow="visible" fill="none" fill-opacity=".359" stroke="#fff" stroke-width=".967" stroke-dasharray="1.9348885,.96744425,.48372211,.96744425" paint-order="fill markers stroke"/><ellipse transform="matrix(.91225 .40963 -.47132 .88196 0 0)" ry="12.131" rx="48.864" cy="75.718" cx="214.424" style="isolation:auto;mix-blend-mode:normal;marker:none" color="#000" overflow="visible" fill="none" fill-opacity=".359" stroke="#fff" stroke-width=".954" stroke-dasharray="1.90822218,.95411109,.47705554,.95411109" paint-order="fill markers stroke"/><ellipse style="isolation:auto;mix-blend-mode:normal;marker:none" cx="196.903" cy="-83.11" rx="47.586" ry="11.814" transform="matrix(.3554 .93471 -.95692 .29037 0 0)" color="#000" overflow="visible" fill="none" fill-opacity=".359" stroke="#fff" stroke-width=".967" stroke-dasharray="1.9348885,.96744425,.48372211,.96744425" paint-order="fill markers stroke"/><ellipse transform="matrix(-.50039 .8658 -.82939 -.55867 0 0)" ry="11.616" rx="46.788" cy="-208.748" cx="45.621" style="isolation:auto;mix-blend-mode:normal;marker:none" color="#000" overflow="visible" fill="none" fill-opacity=".359" stroke="#fff" stroke-width=".951" stroke-dasharray="1.90245098,.95122548,.47561274,.95122548" paint-order="fill markers stroke"/></g></svg>