<svg xmlns="http://www.w3.org/2000/svg" xmlns:xlink="http://www.w3.org/1999/xlink" height="96" viewBox="0 0 96 96" width="96" enable-background="new"><title>Template icons dark</title><defs><linearGradient id="r"><stop offset="0" stop-color="#fff"/><stop offset=".169" stop-color="#fbfbfb"/><stop offset=".265" stop-color="#c3c3c3"/><stop offset=".35" stop-color="#f9f9f9"/><stop offset=".588" stop-color="#f5f5f5"/><stop offset=".7" stop-color="#c1c1c1"/><stop offset=".809" stop-color="#f7f7f7"/><stop offset="1" stop-color="#fff"/></linearGradient><linearGradient id="q"><stop offset="0" stop-opacity=".137"/><stop offset=".508" stop-opacity=".154"/><stop offset="1" stop-opacity="0"/></linearGradient><linearGradient id="p"><stop offset="0" stop-opacity=".11"/><stop offset=".59" stop-opacity=".154"/><stop offset="1" stop-opacity="0"/></linearGradient><linearGradient id="o"><stop offset="0" stop-opacity="0"/><stop offset=".453" stop-opacity=".198"/><stop offset="1" stop-opacity="0"/></linearGradient><linearGradient id="n"><stop offset="0" stop-color="#fff"/><stop offset=".193" stop-color="#e0e0e0" stop-opacity=".918"/><stop offset=".493" stop-color="#c4c4c4" stop-opacity=".896"/><stop offset=".786" stop-color="#e0e0e0" stop-opacity=".945"/><stop offset="1" stop-color="#fff"/></linearGradient><linearGradient id="m"><stop offset="0" stop-color="#a3afbb"/><stop offset="1" stop-color="#73787d"/></linearGradient><linearGradient id="f"><stop offset="0" stop-color="#eceaea"/><stop offset="1" stop-color="#5e5e5e" stop-opacity=".729"/></linearGradient><linearGradient id="e"><stop offset="0" stop-color="#b7aaa5"/><stop offset="1" stop-color="#282828" stop-opacity=".828"/></linearGradient><linearGradient id="d"><stop offset="0" stop-color="#fff" stop-opacity="0"/><stop offset=".522" stop-color="#fff" stop-opacity=".161"/><stop offset="1" stop-color="#eee" stop-opacity="0"/></linearGradient><linearGradient id="c"><stop offset="0" stop-color="#4d4d4d"/><stop offset=".279" stop-color="#141414"/><stop offset=".515" stop-color="#494949"/><stop offset="1" stop-color="#f0f0f0"/></linearGradient><linearGradient id="b"><stop offset="0" stop-color="#fff" stop-opacity=".349"/><stop offset="1" stop-opacity=".453"/></linearGradient><linearGradient id="a"><stop offset="0" stop-color="#454545"/><stop offset=".327" stop-color="#404040"/><stop offset=".77" stop-color="#393939"/><stop offset="1" stop-color="#c6c6c6"/></linearGradient><linearGradient id="i"><stop offset="0"/><stop offset="1" stop-opacity="0"/></linearGradient><linearGradient id="g"><stop offset="0" stop-color="#555753"/><stop offset="1" stop-color="#d3d7cf" stop-opacity="0"/></linearGradient><linearGradient id="s"><stop offset="0" stop-color="#fff"/><stop offset="1" stop-color="#91999f"/></linearGradient><linearGradient id="t"><stop offset="0" stop-color="#dfe2dc"/><stop offset="1" stop-color="#86917a"/></linearGradient><linearGradient id="h"><stop offset="0" stop-color="#939a9d"/><stop offset="1" stop-color="#fff"/></linearGradient><linearGradient id="j"><stop offset="0" stop-color="#f8f8f8" stop-opacity=".155"/><stop offset=".498" stop-color="#b0b2b6" stop-opacity=".175"/><stop offset=".838" stop-color="#5b5e62" stop-opacity=".33"/><stop offset="1" stop-color="#fff" stop-opacity=".155"/></linearGradient><linearGradient id="k"><stop offset="0" stop-color="#e6e7e7"/><stop offset="1" stop-color="#676b73"/></linearGradient><linearGradient id="l"><stop offset="0" stop-color="silver"/><stop offset="1" stop-color="#abacb0"/></linearGradient><linearGradient xlink:href="#m" id="v" x1="161" y1="126" x2="161" y2="141" gradientUnits="userSpaceOnUse" gradientTransform="translate(0 -3)"/><linearGradient xlink:href="#n" id="u" x1="127.937" y1="160" x2="192.189" y2="160" gradientUnits="userSpaceOnUse" gradientTransform="translate(0 2)"/><linearGradient xlink:href="#h" id="E" gradientUnits="userSpaceOnUse" gradientTransform="matrix(-1 0 0 1 -164.713 28.24)" x1="22.009" y1="36.51" x2="23.585" y2="14.412"/><linearGradient xlink:href="#h" id="F" gradientUnits="userSpaceOnUse" gradientTransform="matrix(-1 0 0 1 -164.713 28.24)" x1="24.366" y1="20.246" x2="32.601" y2="28.555"/><linearGradient xlink:href="#i" id="G" gradientUnits="userSpaceOnUse" gradientTransform="matrix(-1 0 0 1 -164.713 28.24)" x1="25.633" y1="10.612" x2="38.714" y2="18.39"/><linearGradient xlink:href="#h" id="J" gradientUnits="userSpaceOnUse" gradientTransform="matrix(-1 0 0 1 -164.713 28.24)" x1="22.009" y1="36.51" x2="23.585" y2="14.412"/><linearGradient xlink:href="#h" id="K" gradientUnits="userSpaceOnUse" gradientTransform="matrix(-1 0 0 1 -164.713 28.24)" x1="24.366" y1="20.246" x2="32.601" y2="28.555"/><linearGradient xlink:href="#i" id="L" gradientUnits="userSpaceOnUse" gradientTransform="matrix(-1 0 0 1 -164.713 28.24)" x1="25.633" y1="10.612" x2="38.714" y2="18.39"/><linearGradient xlink:href="#h" id="O" gradientUnits="userSpaceOnUse" gradientTransform="matrix(-1 0 0 1 -164.713 28.24)" x1="22.009" y1="36.51" x2="23.585" y2="14.412"/><linearGradient xlink:href="#h" id="P" gradientUnits="userSpaceOnUse" gradientTransform="matrix(-1 0 0 1 -164.713 28.24)" x1="24.366" y1="20.246" x2="32.601" y2="28.555"/><linearGradient xlink:href="#i" id="Q" gradientUnits="userSpaceOnUse" gradientTransform="matrix(-1 0 0 1 -164.713 28.24)" x1="25.633" y1="10.612" x2="38.714" y2="18.39"/><linearGradient xlink:href="#h" id="T" gradientUnits="userSpaceOnUse" gradientTransform="matrix(-1 0 0 1 -164.713 28.24)" x1="22.009" y1="36.51" x2="23.585" y2="14.412"/><linearGradient xlink:href="#h" id="U" gradientUnits="userSpaceOnUse" gradientTransform="matrix(-1 0 0 1 -164.713 28.24)" x1="24.366" y1="20.246" x2="32.601" y2="28.555"/><linearGradient xlink:href="#i" id="V" gradientUnits="userSpaceOnUse" gradientTransform="matrix(-1 0 0 1 -164.713 28.24)" x1="25.633" y1="10.612" x2="38.714" y2="18.39"/><linearGradient xlink:href="#o" id="w" x1="155.904" y1="170.471" x2="186.967" y2="171.248" gradientUnits="userSpaceOnUse"/><linearGradient xlink:href="#q" id="y" x1="132" y1="154.11" x2="178.961" y2="152" gradientUnits="userSpaceOnUse" gradientTransform="translate(0 2)"/><linearGradient xlink:href="#r" id="z" x1="128" y1="133.199" x2="192.472" y2="133.199" gradientUnits="userSpaceOnUse" gradientTransform="translate(.171 1.487)"/><linearGradient xlink:href="#o" id="A" gradientUnits="userSpaceOnUse" x1="155.904" y1="170.471" x2="175.213" y2="170.469"/><radialGradient cx="23.688" cy="14.211" r="22.597" fx="23.688" fy="14.211" id="C" xlink:href="#s" gradientUnits="userSpaceOnUse" gradientTransform="matrix(-2.13567 0 0 2.1106 -137.811 12.57)"/><radialGradient cx="20.09" cy="10.854" r="22.597" fx="20.09" fy="10.854" id="D" xlink:href="#t" gradientUnits="userSpaceOnUse" gradientTransform="matrix(-1.79027 0 0 1.76926 -148.9 16.29)"/><radialGradient cx="23.688" cy="14.211" r="22.597" fx="23.688" fy="14.211" id="H" xlink:href="#s" gradientUnits="userSpaceOnUse" gradientTransform="matrix(-2.13567 0 0 2.1106 -137.811 12.57)"/><radialGradient cx="20.09" cy="10.854" r="22.597" fx="20.09" fy="10.854" id="I" xlink:href="#t" gradientUnits="userSpaceOnUse" gradientTransform="matrix(-1.79027 0 0 1.76926 -148.9 16.29)"/><radialGradient cx="23.688" cy="14.211" r="22.597" fx="23.688" fy="14.211" id="M" xlink:href="#s" gradientUnits="userSpaceOnUse" gradientTransform="matrix(-2.13567 0 0 2.1106 -137.811 12.57)"/><radialGradient cx="20.09" cy="10.854" r="22.597" fx="20.09" fy="10.854" id="N" xlink:href="#t" gradientUnits="userSpaceOnUse" gradientTransform="matrix(-1.79027 0 0 1.76926 -148.9 16.29)"/><radialGradient cx="23.688" cy="14.211" r="22.597" fx="23.688" fy="14.211" id="R" xlink:href="#s" gradientUnits="userSpaceOnUse" gradientTransform="matrix(-2.13567 0 0 2.1106 -137.811 12.57)"/><radialGradient cx="20.09" cy="10.854" r="22.597" fx="20.09" fy="10.854" id="S" xlink:href="#t" gradientUnits="userSpaceOnUse" gradientTransform="matrix(-1.79027 0 0 1.76926 -148.9 16.29)"/><filter id="x" x="-.059" width="1.117" y="-.156" height="1.311" color-interpolation-filters="sRGB"><feGaussianBlur stdDeviation="2.013"/></filter><clipPath id="B"><ellipse ry="10.067" rx="26.236" cy="18.469" cx="127.216" style="isolation:auto;mix-blend-mode:normal;marker:none" color="#000" display="block" overflow="visible" fill-opacity=".577" stroke-width=".965" enable-background="accumulate"/></clipPath></defs><path d="M85.19 19L73.41 82.02c-8.026 17.148-47.673 11.723-50.663 0L10.967 19c0-4.314 5.751-7.399 14.051-9.279 1.047-.237.532-1.147 1.653-1.346 2.875-.51 4.4-1.92 7.661-2.158.869-.064.97 2.091 1.86 2.05 3.075-.143 6.11-.202 9.35-.171.662.006 1.11-1.672 1.775-1.658 2.484.051 4.331-.248 6.793-.037.73.063.895 1.604 1.62 1.682 1.458.156 2.607.329 4.038.518.714.095 1.554-5.65 2.257-5.546 4.29.629 6.848 1.372 10.348 3.247.77.413.409 1.288 1.155 1.752.562.348 1.335.657 2.186.953.279.097 1.475-1.496 1.765-1.4 1.727.564 2.673 2.803 3.668 3.541 1.029.763-.262 2.05.583 2.804 2.077 1.853 3.46 3.625 3.46 5.048z" style="isolation:auto;mix-blend-mode:normal;marker:none" color="#000" display="block" overflow="visible" fill-opacity=".082" stroke-width=".181" stroke-linecap="round" stroke-linejoin="round" stroke-opacity=".964" enable-background="accumulate"/><path style="isolation:auto;mix-blend-mode:normal;marker:none" d="M196 132l-11.402 61c-7.77 16.597-46.145 11.346-49.039 0l-11.402-61c0-15 71.843-14.654 71.843 0z" color="#000" overflow="visible" fill="url(#u)" stroke-width=".175" stroke-linecap="round" stroke-linejoin="round" stroke-opacity=".964" enable-background="accumulate" transform="translate(-112 -112)"/><path d="M84 20l-1.907 10.202C65 39 33 40 14.047 30.11L12.157 20C12.158 5 84 5.346 84 20z" style="isolation:auto;mix-blend-mode:normal;marker:none" color="#000" overflow="visible" fill="#434666" fill-opacity=".209" stroke-width=".175" stroke-linecap="round" stroke-linejoin="round" stroke-opacity=".964" enable-background="accumulate"/><path style="isolation:auto;mix-blend-mode:normal;marker:none" d="M194.626 131.116a34.486 9.116 0 0 1-34.486 9.116 34.486 9.116 0 0 1-34.486-9.116A34.486 9.116 0 0 1 160.14 122a34.486 9.116 0 0 1 34.486 9.116z" color="#000" overflow="visible" fill="url(#v)" stroke="#fff" stroke-width="1.5" stroke-linecap="round" stroke-linejoin="round" enable-background="accumulate" transform="translate(-112 -112)"/><path d="M179.971 172.331l3.678-8.915-8.721-5.888-1.637 11.984-6.283-6.715s-12.76 6.976-12.411 7.5c.349.525 6.07 14.672 6.07 14.672l3.352-12.14 9.27-.592z" transform="rotate(-79.641 44.506 198.745)" opacity=".731" fill="url(#w)" fill-rule="evenodd" filter="url(#x)"/><path d="M129.827 154.504l24.567 7.716 26.456-9.606 8.725-6.394-31.402 10.174h-11.338z" opacity=".76" fill="url(#y)" fill-rule="evenodd" filter="url(#x)" transform="translate(-112 -112)"/><path d="M16 20.654s.346 6.565 31.844 6.806C72 27.646 80.472 21 80.472 21l-4-4L70 18l-8.709-1.063L56 22.228c-.378.378-1.092 4.35-3.864 4.35-2.771 0-4.955-1.074-5.459-1.578-.504-.504-4.567-4-4.567-4l-5.386-2.173s-4.845 3.477-4.845 4.706c0 1.228-4.887-2.533-4.887-2.533L24 17.44l-6.173 1.387L16 20.78s.346-.473 0-.126z" fill-opacity=".286" fill-rule="evenodd"/><path d="M128.171 133.14s.346 6.566 31.844 6.807c24.156.185 32.629-6.46 32.629-6.46l-4-4-6.644 1.6-8.538-1.663-5.29 5.291c-.379.378-3.5 5.198-3.5 5.198s-5.32-1.922-5.824-2.426c-.504-.504-4.567-4-4.567-4l-5.386-2.173s-4.481 3.962-4.481 5.19c0 1.23-5.25-3.017-5.25-3.017l-2.993-3.56-6.173 1.387-1.827 1.952s.347-.472 0-.126z" fill="url(#z)" fill-rule="evenodd" transform="translate(-112 -112)"/><path transform="rotate(-5.185 -1041.28 1260.776)" d="M179.971 172.331l3.678-8.915-3.73-.553-11.387 7 2.269-15.86s-18.027 11.583-14.907 11.247c17.96-1.933 3.785 10.42 3.785 10.42l4.34-2.84 9.27-.593z" opacity=".641" fill="url(#A)" fill-rule="evenodd" filter="url(#x)"/><path style="isolation:auto;mix-blend-mode:normal;marker:none" d="M82.08 18.531a33.7 9.116 0 0 1-33.621 8.701 33.7 9.116 0 0 1-33.624-8.53 33.7 9.116 0 0 0-.076.413 33.7 9.116 0 0 0 33.7 9.117 33.7 9.116 0 0 0 33.7-9.117 33.7 9.116 0 0 0-.079-.584z" color="#000" overflow="visible" fill-opacity=".181" stroke-width="1.483" stroke-linecap="round" stroke-linejoin="round" enable-background="accumulate"/><path d="M72.95 79.123L72.597 81c-7.77 16.597-46.145 11.346-49.039 0l-.288-1.541C28 92 67 94 72.95 79.123z" style="isolation:auto;mix-blend-mode:normal;marker:none" color="#000" overflow="visible" fill="#151634" fill-opacity=".187" stroke-width=".175" stroke-linecap="round" stroke-linejoin="round" stroke-opacity=".964" enable-background="accumulate"/><g transform="matrix(1.32838 0 0 1.32838 -120.803 -10.184)" clip-path="url(#B)" color="#000" fill-rule="evenodd"><path d="M-173.729 65.81l1.768 2.828-3.712 1.591-2.652-2.121-11.844.884-3.712 4.95-3.359-5.48-4.243 2.297-5.656-.707 1.414-3.005-3.89-3.889 5.48-6.187-5.303.707-2.298-2.121 3.006.53 3.182-5.48 4.596-1.06-3.713-1.238-.176-3.182 7.248-6.364 2.651-8.485 12.021 3.535 3.005 7.071 1.06-2.298 3.006.177v2.828l3.536-4.066 4.773 5.127V49.9l-8.309 7.248 5.303 3.005-.176 3.005z" style="marker:none" overflow="visible" fill="url(#C)" stroke="url(#D)" transform="matrix(-.50094 0 0 .50094 18.809 -1.829)"/><path d="M-184.158 50.96l.883 6.541-2.12 3.359 4.595 1.414 2.652 5.303-12.02.884-2.83 4.066-2.297-6.187 4.419-2.828 6.718 1.944-2.652-3.535 1.414-6.188z" style="marker:none" overflow="visible" opacity=".77" fill="url(#E)" transform="matrix(-.50094 0 0 .50094 18.809 -1.829)"/><path d="M-185.22 52.021l-4.419 6.894-7.247-4.95-4.42 2.475-3.535-3.005-3.182 2.829 3.005-4.95 6.894-1.591 8.662-4.243s12.375 3.713 11.667 3.713c-.707 0-10.253.176-10.253.176l-1.59-2.298-4.243 1.945z" style="marker:none" overflow="visible" opacity=".618" fill="url(#F)" transform="matrix(-.50094 0 0 .50094 18.809 -1.829)"/><path d="M116.11 14.047l-5.225 1.771-.709 1.948 3.01 2.126 2.835-2.745z" style="marker:none" overflow="visible" fill="#fff"/><path d="M-194.412 32.045l-2.298 7.425-4.242 3.712 8.662-1.944s2.475 2.828 1.414 2.828c-1.06 0-12.551 1.414-12.551 1.414l.177 2.298 16.263-3.005-7.071-6.54z" style="marker:none" overflow="visible" opacity=".135" fill="url(#G)" transform="matrix(-.50094 0 0 .50094 18.809 -1.829)"/><path d="M105.04 19.449l-.443 4.428.974-3.011 2.568.797.62-1.328 3.1.442.708-.62-4.516-.177-.443 1.24-1.948-.974zM112.567 26.002l1.505 1.771 3.454-2.302 2.125 1.151 3.454 3.277-3.808-2.923-1.86-.531-3.63 2.48z" style="marker:none" overflow="visible" fill="#fff"/><g><path d="M-173.729 65.81l1.768 2.828-3.712 1.591-2.652-2.121-11.844.884-3.712 4.95-3.359-5.48-4.243 2.297-5.656-.707 1.414-3.005-3.89-3.889 5.48-6.187-5.303.707-2.298-2.121 3.006.53 3.182-5.48 4.596-1.06-3.713-1.238-.176-3.182 7.248-6.364 2.651-8.485 12.021 3.535 3.005 7.071 1.06-2.298 3.006.177v2.828l3.536-4.066 4.773 5.127V49.9l-8.309 7.248 5.303 3.005-.176 3.005z" style="marker:none" overflow="visible" fill="url(#H)" stroke="url(#I)" transform="matrix(-.50094 0 0 .50094 18.542 6.402)"/><path d="M-184.158 50.96l.883 6.541-2.12 3.359 4.595 1.414 2.652 5.303-12.02.884-2.83 4.066-2.297-6.187 4.419-2.828 6.718 1.944-2.652-3.535 1.414-6.188z" style="marker:none" overflow="visible" opacity=".77" fill="url(#J)" transform="matrix(-.50094 0 0 .50094 18.542 6.402)"/><path d="M-185.22 52.021l-4.419 6.894-7.247-4.95-4.42 2.475-3.535-3.005-3.182 2.829 3.005-4.95 6.894-1.591 8.662-4.243s12.375 3.713 11.667 3.713c-.707 0-10.253.176-10.253.176l-1.59-2.298-4.243 1.945z" style="marker:none" overflow="visible" opacity=".618" fill="url(#K)" transform="matrix(-.50094 0 0 .50094 18.542 6.402)"/><path d="M115.842 22.277l-5.225 1.771-.708 1.949 3.01 2.125 2.835-2.745z" style="marker:none" overflow="visible" fill="#fff"/><path d="M-194.412 32.045l-2.298 7.425-4.242 3.712 8.662-1.944s2.475 2.828 1.414 2.828c-1.06 0-12.551 1.414-12.551 1.414l.177 2.298 16.263-3.005-7.071-6.54z" style="marker:none" overflow="visible" opacity=".135" fill="url(#L)" transform="matrix(-.50094 0 0 .50094 18.542 6.402)"/><path d="M104.773 27.68l-.443 4.427.974-3.011 2.568.797.62-1.328 3.1.442.708-.62-4.516-.177-.443 1.24-1.948-.974zM112.3 34.232l1.505 1.771 3.454-2.302 2.125 1.151 3.454 3.277-3.808-2.923-1.86-.531-3.63 2.48z" style="marker:none" overflow="visible" fill="#fff"/></g><g><path d="M-173.729 65.81l1.768 2.828-3.712 1.591-2.652-2.121-11.844.884-3.712 4.95-3.359-5.48-4.243 2.297-5.656-.707 1.414-3.005-3.89-3.889 5.48-6.187-5.303.707-2.298-2.121 3.006.53 3.182-5.48 4.596-1.06-3.713-1.238-.176-3.182 7.248-6.364 2.651-8.485 12.021 3.535 3.005 7.071 1.06-2.298 3.006.177v2.828l3.536-4.066 4.773 5.127V49.9l-8.309 7.248 5.303 3.005-.176 3.005z" style="marker:none" overflow="visible" fill="url(#M)" stroke="url(#N)" transform="translate(235.648 -4.513) scale(.50094)"/><path d="M-184.158 50.96l.883 6.541-2.12 3.359 4.595 1.414 2.652 5.303-12.02.884-2.83 4.066-2.297-6.187 4.419-2.828 6.718 1.944-2.652-3.535 1.414-6.188z" style="marker:none" overflow="visible" opacity=".77" fill="url(#O)" transform="translate(235.648 -4.513) scale(.50094)"/><path d="M-185.22 52.021l-4.419 6.894-7.247-4.95-4.42 2.475-3.535-3.005-3.182 2.829 3.005-4.95 6.894-1.591 8.662-4.243s12.375 3.713 11.667 3.713c-.707 0-10.253.176-10.253.176l-1.59-2.298-4.243 1.945z" style="marker:none" overflow="visible" opacity=".618" fill="url(#P)" transform="translate(235.648 -4.513) scale(.50094)"/><path d="M138.348 11.363l5.224 1.771.709 1.948-3.011 2.125-2.834-2.745z" style="marker:none" overflow="visible" fill="#fff"/><path d="M-194.412 32.045l-2.298 7.425-4.242 3.712 8.662-1.944s2.475 2.828 1.414 2.828c-1.06 0-12.551 1.414-12.551 1.414l.177 2.298 16.263-3.005-7.071-6.54z" style="marker:none" overflow="visible" opacity=".135" fill="url(#Q)" transform="translate(235.648 -4.513) scale(.50094)"/><path d="M149.417 16.765l.443 4.427-.974-3.01-2.568.797-.62-1.329-3.1.443-.708-.62 4.516-.177.443 1.24 1.948-.974zM141.89 23.318l-1.506 1.77-3.453-2.302-2.126 1.152-3.453 3.276 3.808-2.922 1.86-.531 3.63 2.48z" style="marker:none" overflow="visible" fill="#fff"/></g><g><path d="M-173.729 65.81l1.768 2.828-3.712 1.591-2.652-2.121-11.844.884-3.712 4.95-3.359-5.48-4.243 2.297-5.656-.707 1.414-3.005-3.89-3.889 5.48-6.187-5.303.707-2.298-2.121 3.006.53 3.182-5.48 4.596-1.06-3.713-1.238-.176-3.182 7.248-6.364 2.651-8.485 12.021 3.535 3.005 7.071 1.06-2.298 3.006.177v2.828l3.536-4.066 4.773 5.127V49.9l-8.309 7.248 5.303 3.005-.176 3.005z" style="marker:none" overflow="visible" fill="url(#R)" stroke="url(#S)" transform="matrix(0 -.50094 -.50094 0 151.613 -70.805)"/><path d="M-184.158 50.96l.883 6.541-2.12 3.359 4.595 1.414 2.652 5.303-12.02.884-2.83 4.066-2.297-6.187 4.419-2.828 6.718 1.944-2.652-3.535 1.414-6.188z" style="marker:none" overflow="visible" opacity=".77" fill="url(#T)" transform="matrix(0 -.50094 -.50094 0 151.613 -70.805)"/><path d="M-185.22 52.021l-4.419 6.894-7.247-4.95-4.42 2.475-3.535-3.005-3.182 2.829 3.005-4.95 6.894-1.591 8.662-4.243s12.375 3.713 11.667 3.713c-.707 0-10.253.176-10.253.176l-1.59-2.298-4.243 1.945z" style="marker:none" overflow="visible" opacity=".618" fill="url(#U)" transform="matrix(0 -.50094 -.50094 0 151.613 -70.805)"/><path d="M135.738 26.495l-1.772-5.224-1.948-.709-2.125 3.011 2.745 2.834z" style="marker:none" overflow="visible" fill="#fff"/><path d="M-194.412 32.045l-2.298 7.425-4.242 3.712 8.662-1.944s2.475 2.828 1.414 2.828c-1.06 0-12.551 1.414-12.551 1.414l.177 2.298 16.263-3.005-7.071-6.54z" style="marker:none" overflow="visible" opacity=".135" fill="url(#V)" transform="matrix(0 -.50094 -.50094 0 151.613 -70.805)"/><path d="M130.336 15.426l-4.428-.443 3.01.974-.796 2.568 1.328.62-.443 3.1.62.708.177-4.516-1.24-.443.975-1.948zM123.783 22.953l-1.771 1.506 2.302 3.453-1.151 2.126-3.277 3.453 2.923-3.808.53-1.86-2.479-3.63z" style="marker:none" overflow="visible" fill="#fff"/></g></g></svg>