<svg xmlns="http://www.w3.org/2000/svg" xmlns:xlink="http://www.w3.org/1999/xlink" height="96" viewBox="0 0 96 96" width="96"><title>Template icons dark</title><defs><linearGradient id="o"><stop offset="0" stop-opacity=".11"/><stop offset=".59" stop-opacity=".154"/><stop offset="1" stop-opacity="0"/></linearGradient><linearGradient id="n"><stop offset="0" stop-color="#fff"/><stop offset=".193" stop-color="#e0e0e0" stop-opacity=".918"/><stop offset=".493" stop-color="#c4c4c4" stop-opacity=".896"/><stop offset=".786" stop-color="#e0e0e0" stop-opacity=".945"/><stop offset="1" stop-color="#fff"/></linearGradient><linearGradient id="m"><stop offset="0" stop-color="#a3afbb"/><stop offset="1" stop-color="#73787d"/></linearGradient><linearGradient id="f"><stop offset="0" stop-color="#eceaea"/><stop offset="1" stop-color="#5e5e5e" stop-opacity=".729"/></linearGradient><linearGradient id="e"><stop offset="0" stop-color="#b7aaa5"/><stop offset="1" stop-color="#282828" stop-opacity=".828"/></linearGradient><linearGradient id="d"><stop offset="0" stop-color="#fff" stop-opacity="0"/><stop offset=".522" stop-color="#fff" stop-opacity=".161"/><stop offset="1" stop-color="#eee" stop-opacity="0"/></linearGradient><linearGradient id="c"><stop offset="0" stop-color="#4d4d4d"/><stop offset=".279" stop-color="#141414"/><stop offset=".515" stop-color="#494949"/><stop offset="1" stop-color="#f0f0f0"/></linearGradient><linearGradient id="b"><stop offset="0" stop-color="#fff" stop-opacity=".349"/><stop offset="1" stop-opacity=".453"/></linearGradient><linearGradient id="a"><stop offset="0" stop-color="#454545"/><stop offset=".327" stop-color="#404040"/><stop offset=".77" stop-color="#393939"/><stop offset="1" stop-color="#c6c6c6"/></linearGradient><linearGradient id="i"><stop offset="0"/><stop offset="1" stop-opacity="0"/></linearGradient><linearGradient id="g"><stop offset="0" stop-color="#555753"/><stop offset="1" stop-color="#d3d7cf" stop-opacity="0"/></linearGradient><linearGradient id="p"><stop offset="0" stop-color="#fff"/><stop offset="1" stop-color="#91999f"/></linearGradient><linearGradient id="q"><stop offset="0" stop-color="#dfe2dc"/><stop offset="1" stop-color="#86917a"/></linearGradient><linearGradient id="h"><stop offset="0" stop-color="#939a9d"/><stop offset="1" stop-color="#fff"/></linearGradient><linearGradient id="j"><stop offset="0" stop-color="#f8f8f8" stop-opacity=".155"/><stop offset=".498" stop-color="#b0b2b6" stop-opacity=".175"/><stop offset=".838" stop-color="#5b5e62" stop-opacity=".33"/><stop offset="1" stop-color="#fff" stop-opacity=".155"/></linearGradient><linearGradient id="k"><stop offset="0" stop-color="#e6e7e7"/><stop offset="1" stop-color="#676b73"/></linearGradient><linearGradient id="l"><stop offset="0" stop-color="silver"/><stop offset="1" stop-color="#abacb0"/></linearGradient><linearGradient xlink:href="#m" id="s" x1="161" y1="126" x2="161" y2="141" gradientUnits="userSpaceOnUse" gradientTransform="translate(0 -3)"/><linearGradient xlink:href="#n" id="r" x1="127.937" y1="160" x2="192.189" y2="160" gradientUnits="userSpaceOnUse" gradientTransform="translate(0 2)"/></defs><g color="#000" stroke-linecap="round" stroke-linejoin="round"><path d="M85.085 19.087L73.34 81.93c-8.004 17.098-47.54 11.689-50.52 0L11.071 19.087c0-15.453 74.013-15.096 74.013 0z" style="isolation:auto;mix-blend-mode:normal;marker:none" overflow="visible" fill-opacity=".082" stroke-width=".181" stroke-opacity=".964"/><path style="isolation:auto;mix-blend-mode:normal;marker:none" d="M196 132l-11.402 61c-7.77 16.597-46.145 11.346-49.039 0l-11.402-61c0-15 71.843-14.654 71.843 0z" overflow="visible" fill="url(#r)" stroke-width=".175" stroke-opacity=".964" transform="translate(-112 -112)"/><path d="M84 20l-1.907 10.202C65 39 33 40 14.047 30.11L12.157 20C12.158 5 84 5.346 84 20z" style="isolation:auto;mix-blend-mode:normal;marker:none" overflow="visible" fill="#434666" fill-opacity=".209" stroke-width=".175" stroke-opacity=".964"/><path style="isolation:auto;mix-blend-mode:normal;marker:none" d="M194.626 131.116a34.486 9.116 0 0 1-34.486 9.116 34.486 9.116 0 0 1-34.486-9.116A34.486 9.116 0 0 1 160.14 122a34.486 9.116 0 0 1 34.486 9.116z" overflow="visible" fill="url(#s)" stroke="#fff" stroke-width="1.5" transform="translate(-112 -112)"/><path d="M72.95 79.123L72.597 81c-7.77 16.597-46.145 11.346-49.039 0l-.288-1.541C28 92 67 94 72.95 79.123z" style="isolation:auto;mix-blend-mode:normal;marker:none" overflow="visible" fill="#151634" fill-opacity=".187" stroke-width=".175" stroke-opacity=".964"/></g></svg>