<svg xmlns:osb="http://www.openswatchbook.org/uri/2009/osb" xmlns="http://www.w3.org/2000/svg" xmlns:xlink="http://www.w3.org/1999/xlink" height="64" viewBox="0 0 64 64" width="64"><title>Template icons dark</title><defs><linearGradient id="a"><stop offset="0" stop-color="#e1e3e7"/><stop offset=".21" stop-color="#dee1e4"/><stop offset=".38" stop-color="#f1f2f3"/><stop offset=".67" stop-color="#c2c6cd"/><stop offset="1" stop-color="#d7dadf"/></linearGradient><linearGradient gradientTransform="matrix(1.526 0 0 1.526 43.635 43.422)" xlink:href="#a" id="e" x1="9.196" y1="4.43" x2="37.228" y2="44" gradientUnits="userSpaceOnUse"/><linearGradient id="b"><stop offset="0" stop-color="#eeda60"/><stop offset="1" stop-color="#db9918"/></linearGradient><linearGradient gradientTransform="translate(-3 444)" xlink:href="#c" id="d" x1="3" y1="-436.5" x2="15" y2="-436.5" gradientUnits="userSpaceOnUse"/><linearGradient id="c" osb:paint="solid"><stop offset="0"/></linearGradient></defs><path d="M57 50v60h11l2-2h21l2 2h10V50z" style="marker:none" opacity=".05" fill="url(#d)" stroke-width=".13" stroke-linecap="round" stroke-linejoin="round" stroke-opacity=".964" transform="translate(-48 -48)"/><path d="M10 3v58h10l4-4.984L41 56l4 5h9V3z" fill="#8b93a1" stroke-width="2.861" stroke-opacity=".24"/><path d="M59 52l.087 56H68l4-3.984L89 104l4 4h8V52z" fill="url(#e)" stroke-width="1.526" stroke-opacity=".24" transform="translate(-48 -48)"/><path d="M24 56.016l-2.396 2.99L43.406 59 41 56z" fill="#6c7587" fill-rule="evenodd" stroke-width="1.526"/><path style="isolation:auto;mix-blend-mode:normal;marker:none" d="M23.984 56L24 59h1v-3zM27 56l-.016 3H28v-3zm3 0v3h1v-3zm4 0v3h1v-3zm3 0v3h1v-3zm3 0v3h1v-3z" color="#000" display="block" overflow="visible" fill="#eeda60" stroke-width=".198" stroke-linecap="round" stroke-linejoin="round" stroke-opacity=".964"/><path d="M24 56.016L22.397 58H42.6L41 56z" fill-opacity=".247" fill-rule="evenodd" stroke-width="1.072"/><path style="isolation:auto;mix-blend-mode:normal;marker:none" d="M20 14h24l.032 34H20z" color="#000" display="block" overflow="visible" fill-opacity=".078" stroke-width=".26" stroke-linecap="round" stroke-linejoin="round" stroke-opacity=".964"/><path style="isolation:auto;mix-blend-mode:normal;marker:none" d="M20 48h24.031L44 49H20z" color="#000" overflow="visible" fill="#fff" fill-opacity=".5" stroke-width=".727" stroke-linecap="square" stroke-dasharray="1.45455186,1.45455186" stroke-dashoffset="9.739" paint-order="markers stroke fill"/><path d="M14.365 32c.808 0 1.458.65 1.458 1.457 0 .808-.65 1.457-1.458 1.457-.807 0-1.457-.65-1.457-1.457S13.558 32 14.365 32zM14.365 55.15c.808 0 1.458.65 1.458 1.457s-.65 1.457-1.458 1.457c-.807 0-1.457-.65-1.457-1.457 0-.808.65-1.458 1.457-1.458zM49.458 6.027c.807 0 1.457.65 1.457 1.458 0 .807-.65 1.457-1.457 1.457-.808 0-1.457-.65-1.457-1.457 0-.808.65-1.458 1.457-1.458zM49.458 32c.807 0 1.457.65 1.457 1.457 0 .808-.65 1.457-1.457 1.457-.808 0-1.457-.65-1.457-1.457S48.65 32 49.458 32zM49.458 55.15c.807 0 1.457.65 1.457 1.457s-.65 1.457-1.457 1.457c-.808 0-1.457-.65-1.457-1.457 0-.808.65-1.458 1.457-1.458zM14.365 6.027c.808 0 1.458.65 1.458 1.458 0 .807-.65 1.457-1.458 1.457-.807 0-1.457-.65-1.457-1.457 0-.808.65-1.458 1.457-1.458z" fill="#737373" stroke-width="1.943" stroke-opacity=".643"/><path d="M14.365 6.027c-.807 0-1.457.65-1.457 1.458 0 .071.011.139.021.207a1.45 1.45 0 0 1 2.872 0c.01-.068.022-.136.022-.207 0-.807-.65-1.458-1.458-1.458zm35.093 0c-.808 0-1.458.65-1.458 1.458 0 .071.012.139.022.207a1.45 1.45 0 0 1 2.872 0c.01-.068.021-.136.021-.207 0-.807-.65-1.458-1.457-1.458zM14.365 32c-.807 0-1.457.65-1.457 1.457 0 .071.011.14.021.208a1.45 1.45 0 0 1 2.872 0c.01-.069.022-.137.022-.208 0-.807-.65-1.457-1.458-1.457zm35.093 0C48.65 32 48 32.65 48 33.457c0 .071.012.14.022.208a1.45 1.45 0 0 1 2.872 0c.01-.069.021-.137.021-.208 0-.807-.65-1.457-1.457-1.457zM14.365 55.15c-.807 0-1.457.65-1.457 1.457 0 .07.011.139.021.207a1.45 1.45 0 0 1 2.872 0c.01-.068.022-.136.022-.207 0-.808-.65-1.458-1.458-1.458zm35.093 0c-.808 0-1.458.65-1.458 1.457 0 .07.012.139.022.207a1.45 1.45 0 0 1 2.872 0c.01-.068.021-.136.021-.207 0-.808-.65-1.458-1.457-1.458z" fill-opacity=".462" stroke-width="1.943" stroke-opacity=".643"/><path style="isolation:auto;mix-blend-mode:normal;marker:none" d="M14.365 6.755a.727.727 0 1 0 0 1.454.727.727 0 0 0 0-1.454zm35.093 0a.727.727 0 1 0 0 1.454.727.727 0 0 0 0-1.454zM14.365 32.727a.727.727 0 1 0 0 1.455.727.727 0 0 0 0-1.455zm35.093 0a.727.727 0 1 0 0 1.455.727.727 0 0 0 0-1.455zm-35.093 23.15a.727.727 0 1 0 0 1.454.727.727 0 0 0 0-1.454zm35.093.027a.727.727 0 1 0 0 1.454.727.727 0 0 0 0-1.454z" color="#000" display="block" overflow="visible" fill="#fff" fill-opacity=".275" stroke-width=".276" stroke-opacity=".28" paint-order="fill markers stroke"/><path style="isolation:auto;mix-blend-mode:normal;marker:none" color="#000" display="block" overflow="visible" fill-opacity=".286" stroke-width=".727" stroke-linecap="square" stroke-dasharray="1.45455186,1.45455186" stroke-dashoffset="9.739" paint-order="markers stroke fill" d="M20 14h24v1H20z"/></svg>