<svg xmlns="http://www.w3.org/2000/svg" viewBox="0 0 12 12"><defs id="defs3051"><style id="current-color-scheme">.ColorScheme-Text{color:#4d4d4d}.ColorScheme-Highlight{color:#3daee9}</style></defs><path d="M3.09 7l.367.379L5.078 9H3.002v1h2.076l-1.621 1.621-.381.379h1.417l2.5-2.5-2.5-2.5zM1.002 9v1h2V9z" class="ColorScheme-Highlight" fill="currentColor"/><path d="M1 1l2 2 2-2zm4 0l2 2 2-2zm4 0l2 2V1zm2 2L9 5l2 2zm0 4L9 9h2zM9 9L7 7v2zM7 7l2-2-2-2-2 2h2zM5 5L3 3 1 5z" class="ColorScheme-Text" fill="currentColor"/></svg>