<svg xmlns="http://www.w3.org/2000/svg" viewBox="0 0 12 12"><defs id="defs3051"><style id="current-color-scheme">.ColorScheme-Text{color:#4d4d4d}.ColorScheme-Highlight{color:#3daee9}</style></defs><path d="M3.09 7l.367.379L5.078 9H3.002v1h2.076l-1.621 1.621-.381.379h1.417l2.5-2.5-2.5-2.5zM1.002 9v1h2V9z" class="ColorScheme-Highlight" fill="currentColor"/><path d="M1 1v1h4a5 5 0 0 1 5 5v2h1V7a6 6 0 0 0-6-6zm0 3v1h4a2 2 0 0 1 2 2v1h1V7a3 3 0 0 0-3-3z" class="ColorScheme-Text" fill="currentColor"/></svg>