<svg xmlns:osb="http://www.openswatchbook.org/uri/2009/osb" xmlns="http://www.w3.org/2000/svg" xmlns:xlink="http://www.w3.org/1999/xlink" height="48" viewBox="0 0 48 48" width="48"><title>Template icons dark</title><defs><linearGradient id="a"><stop offset="0" stop-color="#e1e3e7"/><stop offset=".21" stop-color="#dee1e4"/><stop offset=".38" stop-color="#f1f2f3"/><stop offset=".67" stop-color="#c2c6cd"/><stop offset="1" stop-color="#d7dadf"/></linearGradient><linearGradient xlink:href="#a" id="e" x1="9" y1="4" x2="37.228" y2="44" gradientUnits="userSpaceOnUse"/><linearGradient id="b"><stop offset="0" stop-color="#eeda60"/><stop offset="1" stop-color="#db9918"/></linearGradient><linearGradient gradientTransform="translate(-3 444)" xlink:href="#c" id="d" x1="3" y1="-436.5" x2="15" y2="-436.5" gradientUnits="userSpaceOnUse"/><linearGradient id="c" osb:paint="solid"><stop offset="0"/></linearGradient></defs><g><path d="M7 2v44h9l2-4h12l2 4h9V2H24z" style="marker:none" opacity=".05" fill="url(#d)" stroke-width=".13" stroke-linecap="round" stroke-linejoin="round" stroke-opacity=".964"/><path d="M8 3v42h8l2-3h12l2 3h8V3z" fill="#8b93a1" stroke-width="2.861" stroke-opacity=".24"/><path d="M9 4v40h7l2-3h12l2 3h7V4z" fill="url(#e)" stroke-opacity=".24"/><path d="M18 41l-1.336 2H31.34L30 41z" fill="#6c7587" fill-rule="evenodd"/><path d="M18 41l-.661 1H30.66L30 41z" fill-opacity=".413" fill-rule="evenodd" stroke-width=".703"/><path style="isolation:auto;mix-blend-mode:normal;marker:none" d="M16 12h16v24H16z" color="#000" display="block" overflow="visible" fill-opacity=".078" stroke-width=".26" stroke-linecap="round" stroke-linejoin="round" stroke-opacity=".964"/><path style="isolation:auto;mix-blend-mode:normal;marker:none" d="M16 36h16v1H16z" color="#000" overflow="visible" fill="#fff" fill-opacity=".5" stroke-width=".488" stroke-linecap="square" stroke-dasharray=".97623542,.97623542" stroke-dashoffset="9.739" paint-order="markers stroke fill"/><rect ry="1.333" rx="1.333" y="41" x="36" height="2" width="2" fill="#737373" stroke-width="1.333" stroke-opacity=".643"/><path style="isolation:auto;mix-blend-mode:normal;marker:none" color="#000" display="block" overflow="visible" fill="#dbb518" stroke-width=".13" stroke-linecap="round" stroke-linejoin="round" stroke-opacity=".964" d="M18 41h1v2h-1zM20 41h1v2h-1zM22 41h1v2h-1zM24.89 41h1v2h-1zM27 41h1v2h-1zM29 41h1v2h-1z"/><rect ry="1.333" rx="1.333" y="41" x="10" height="2" width="2" fill="#737373" stroke-width="1.333" stroke-opacity=".643"/><rect ry="1.333" rx="1.333" y="23.088" x="36" height="2" width="2" fill="#737373" stroke-width="1.333" stroke-opacity=".643"/><rect ry="1.333" rx="1.333" y="23" x="10" height="2" width="2" fill="#737373" stroke-width="1.333" stroke-opacity=".643"/><rect ry="1.333" rx="1.333" y="5" x="36" height="2" width="2" fill="#737373" stroke-width="1.333" stroke-opacity=".643"/><rect ry="1.333" rx="1.333" y="5" x="10" height="2" width="2" fill="#737373" stroke-width="1.333" stroke-opacity=".643"/><path style="isolation:auto;mix-blend-mode:normal;marker:none" color="#000" display="block" overflow="visible" fill-opacity=".286" stroke-width=".488" stroke-linecap="square" stroke-dasharray=".97623542,.97623542" stroke-dashoffset="9.739" paint-order="markers stroke fill" d="M16 12h16v1H16z"/></g></svg>