<svg xmlns:osb="http://www.openswatchbook.org/uri/2009/osb" xmlns="http://www.w3.org/2000/svg" xmlns:xlink="http://www.w3.org/1999/xlink" height="16" viewBox="0 0 16 16" width="16"><title>Template icons dark</title><defs><linearGradient id="f" osb:paint="solid"><stop offset="0"/></linearGradient><linearGradient id="c" osb:paint="solid"><stop offset="0" stop-opacity=".018"/></linearGradient><linearGradient id="e"><stop offset="0" stop-opacity=".128"/><stop offset="1" stop-opacity=".392"/></linearGradient><linearGradient id="a"><stop offset="0" stop-color="#66a3e2"/><stop offset="1" stop-color="#69a5e3"/></linearGradient><linearGradient id="b" osb:paint="solid"><stop offset="0" stop-color="#525e7d"/></linearGradient><linearGradient id="d"><stop offset="0" stop-opacity="0"/><stop offset=".25" stop-opacity=".091"/><stop offset="1" stop-opacity="0"/></linearGradient><linearGradient xlink:href="#f" id="k" gradientUnits="userSpaceOnUse" gradientTransform="matrix(.66667 0 0 .66667 -21.152 -8)" x1="-153.424" y1="-84" x2="-129.424" y2="-84"/><linearGradient id="j" osb:paint="solid"><stop offset="0" stop-color="#4b78a7"/></linearGradient><linearGradient id="g"><stop offset="0" stop-color="#404552" stop-opacity="0"/><stop offset="1" stop-color="#404552" stop-opacity=".839"/></linearGradient><linearGradient id="h"><stop offset="0" stop-color="#404552" stop-opacity=".036"/><stop offset="1" stop-color="#404552" stop-opacity=".979"/></linearGradient><linearGradient id="i"><stop offset="0" stop-color="#828282"/><stop offset=".253" stop-color="#fff"/><stop offset=".522" stop-color="#717171"/><stop offset=".785" stop-color="#717171"/><stop offset="1" stop-color="#4c4c4c"/></linearGradient></defs><g color="#000" fill="url(#k)" transform="translate(8 72)"><path style="isolation:auto;mix-blend-mode:normal;marker:none" d="M6.998-65.276L7-60.138c0 1.324-1.213 1.91-1.805 1.91-1.729 0-1.704-2.362 0-2.393.358 0 .794-.045.805-.469v-2.108l-4 1.126v3.38C2-57.38.626-57 .034-57c-1.742 0-1.704-2.054 0-2.085.358 0 .874-.094.96-.4v-4.64s.058-.24.127-.33c.062-.081.243-.17.243-.17l4.895-1.39s.417.09.556.236c.123.13.185.504.185.504z" overflow="visible" opacity=".64" paint-order="fill markers stroke"/><path style="isolation:auto;mix-blend-mode:normal;marker:none" d="M-8-72v1H6v-1zm0 3v1H6v-1zm0 3v1h6v-1zm0 3v1h6v-1zm0 3v1h6v-1z" display="block" overflow="visible" opacity=".64" paint-order="fill markers stroke"/></g></svg>