<svg xmlns:osb="http://www.openswatchbook.org/uri/2009/osb" xmlns="http://www.w3.org/2000/svg" xmlns:xlink="http://www.w3.org/1999/xlink" height="16" viewBox="0 0 16 16" width="16"><title>Template icons dark</title><defs><linearGradient id="f" osb:paint="solid"><stop offset="0"/></linearGradient><linearGradient id="c" osb:paint="solid"><stop offset="0" stop-opacity=".018"/></linearGradient><linearGradient id="e"><stop offset="0" stop-opacity=".128"/><stop offset="1" stop-opacity=".392"/></linearGradient><linearGradient id="a"><stop offset="0" stop-color="#66a3e2"/><stop offset="1" stop-color="#69a5e3"/></linearGradient><linearGradient id="b" osb:paint="solid"><stop offset="0" stop-color="#525e7d"/></linearGradient><linearGradient id="d"><stop offset="0" stop-opacity="0"/><stop offset=".25" stop-opacity=".091"/><stop offset="1" stop-opacity="0"/></linearGradient><linearGradient xlink:href="#f" id="k" gradientUnits="userSpaceOnUse" gradientTransform="matrix(.66667 0 0 .66667 -21.152 -8)" x1="-153.424" y1="-84" x2="-129.424" y2="-84"/><linearGradient id="j" osb:paint="solid"><stop offset="0" stop-color="#4b78a7"/></linearGradient><linearGradient id="g"><stop offset="0" stop-color="#404552" stop-opacity="0"/><stop offset="1" stop-color="#404552" stop-opacity=".839"/></linearGradient><linearGradient id="h"><stop offset="0" stop-color="#404552" stop-opacity=".036"/><stop offset="1" stop-color="#404552" stop-opacity=".979"/></linearGradient><linearGradient id="i"><stop offset="0" stop-color="#828282"/><stop offset=".253" stop-color="#fff"/><stop offset=".522" stop-color="#717171"/><stop offset=".785" stop-color="#717171"/><stop offset="1" stop-color="#4c4c4c"/></linearGradient></defs><path style="isolation:auto;mix-blend-mode:normal;marker:none" d="M83.648-72a3.094 3.094 0 0 0-3.09 3.09c0 .5.123.972.335 1.391l-3.564 1.416a3.09 3.09 0 1 0-2.24 5.216 3.09 3.09 0 0 0 2.261-.99l3.527 1.428c-.202.411-.319.872-.319 1.36A3.094 3.094 0 0 0 83.648-56a3.094 3.094 0 0 0 3.09-3.09 3.094 3.094 0 0 0-3.09-3.09 3.08 3.08 0 0 0-2.294 1.028l-3.516-1.42a3.09 3.09 0 0 0 .341-1.405 3.09 3.09 0 0 0-.334-1.396l3.537-1.444c.565.61 1.37.996 2.266.996a3.094 3.094 0 0 0 3.09-3.09A3.094 3.094 0 0 0 83.647-72zm0 1.458c.903 0 1.631.728 1.631 1.632 0 .903-.728 1.631-1.631 1.631a1.629 1.629 0 0 1-1.632-1.631c0-.904.729-1.632 1.632-1.632zm-8.563 4.943c.892 0 1.622.73 1.622 1.622 0 .892-.73 1.622-1.622 1.622-.892 0-1.622-.73-1.622-1.622 0-.892.73-1.622 1.622-1.622zm8.563 4.712c.995 0 1.797.802 1.797 1.797 0 .996-.802 1.798-1.797 1.798a1.795 1.795 0 0 1-1.798-1.798c0-.995.803-1.797 1.798-1.797z" color="#000" overflow="visible" opacity=".64" fill="url(#k)" paint-order="fill markers stroke" transform="translate(-72 72)"/></svg>