<svg xmlns:osb="http://www.openswatchbook.org/uri/2009/osb" xmlns="http://www.w3.org/2000/svg" xmlns:xlink="http://www.w3.org/1999/xlink" height="16" viewBox="0 0 16 16" width="16"><title>Template icons dark</title><defs><linearGradient id="f" osb:paint="solid"><stop offset="0"/></linearGradient><linearGradient id="c" osb:paint="solid"><stop offset="0" stop-opacity=".018"/></linearGradient><linearGradient id="e"><stop offset="0" stop-opacity=".128"/><stop offset="1" stop-opacity=".392"/></linearGradient><linearGradient id="a"><stop offset="0" stop-color="#66a3e2"/><stop offset="1" stop-color="#69a5e3"/></linearGradient><linearGradient id="b" osb:paint="solid"><stop offset="0" stop-color="#525e7d"/></linearGradient><linearGradient id="d"><stop offset="0" stop-opacity="0"/><stop offset=".25" stop-opacity=".091"/><stop offset="1" stop-opacity="0"/></linearGradient><linearGradient xlink:href="#f" id="k" gradientUnits="userSpaceOnUse" gradientTransform="matrix(.66667 0 0 .66667 -21.152 -8)" x1="-153.424" y1="-84" x2="-129.424" y2="-84"/><linearGradient id="j" osb:paint="solid"><stop offset="0" stop-color="#4b78a7"/></linearGradient><linearGradient id="g"><stop offset="0" stop-color="#404552" stop-opacity="0"/><stop offset="1" stop-color="#404552" stop-opacity=".839"/></linearGradient><linearGradient id="h"><stop offset="0" stop-color="#404552" stop-opacity=".036"/><stop offset="1" stop-color="#404552" stop-opacity=".979"/></linearGradient><linearGradient id="i"><stop offset="0" stop-color="#828282"/><stop offset=".253" stop-color="#fff"/><stop offset=".522" stop-color="#717171"/><stop offset=".785" stop-color="#717171"/><stop offset="1" stop-color="#4c4c4c"/></linearGradient></defs><g color="#000" fill="url(#k)" transform="translate(-24 72)"><path d="M24-67v11h12v-11zm3 1h6v4h-6zm-2 0h1v1h-1zm9 0h1v1h-1zm-9 3h1v1h-1zm9 .045h1v1.01h-1zM27-61h6v4h-6zm-2 1h1v1h-1zm9 0h1v1.025h-1zm-9 2h1v1h-1zm9 0h1v1h-1z" style="isolation:auto;mix-blend-mode:normal;marker:none" display="block" overflow="visible" opacity=".64" paint-order="fill markers stroke"/><path style="isolation:auto;mix-blend-mode:normal;marker:none" d="M28-72v4h3v-3h6v10h3v-11zm1 1h1v1h-1zm9 0h1v1h-1zm0 3.045h1v1.01h-1zM38-65h1v1.025h-1zm0 2h1v1h-1z" display="block" overflow="visible" opacity=".64" paint-order="fill markers stroke"/><path d="M28-60h4v2h-4z" style="isolation:auto;mix-blend-mode:normal;marker:none" overflow="visible" opacity=".1" paint-order="fill markers stroke"/><path style="isolation:auto;mix-blend-mode:normal;marker:none" d="M28-65h4v2h-4z" display="block" overflow="visible" opacity=".1" paint-order="fill markers stroke"/></g></svg>