<svg xmlns="http://www.w3.org/2000/svg" height="16" viewBox="0 0 16 16" width="16"><title>Template icons dark</title><defs><linearGradient id="a"><stop offset="0" stop-color="#4ba8dc"/><stop offset="1" stop-color="#32b69b"/></linearGradient></defs><path d="M8 0c-.504 0-.995.051-1.473.14L7.805.112l.455.131.488.78-.62.423-.55.096-.293.684-.457-.131-.064-.584.293-.293-.162-.358-.131-.357-.748.129-.819-.115a7.94 7.94 0 0 0-.845.37l.234-.091.39.26.651-.067.162.455-.52.391s-.26-.291-.39-.291-.781.227-.781.227l-.942.65.422.389.229.488.617-1.235.422-.13.13.617.422-.195.684.878-1.105.39.293.618-.813.033-.75.584v.586l-.648.196-.098 1.234-.39.064-.098-.746-.391-.066-.844.39-.033 1.106.19.14.07.055.17-.117.351-.24-.045.152-.119.4.553.196.164.52.559.341.382-.408.782.262.584.031.455.553.715.033.162.594.033.12 1.496.294.422.584-.488.455-.39 1.27-.616.097-.39 1.04-.49.585.132.65.363.575A8.002 8.002 0 0 0 8 16 8 8 0 0 0 8 0zm3.607 1.086l.62.488 1.17.586.583.916.213.305.828 1.185.325 1.266.326.91.129 1.594-.422.488V7.686l-.455-.877.39 2.308.422.422-.52.584-.454 1.3-.684 1.268-1.398 1.334-.877.163.586-1.399.65-.91-.228-1.072.293-.877-.489-.555-1.008.164-.974-.943-.067-.66-.064-.64 1.01-1.495 1.299-.293.068.125.16.297.877.326.162-.195.715.293.033-.62-.486-.129-.262-.552-.324.357-.26-.488-.162.488-.242-.064-.246-.065.293-.424-.424-.421-.39-.098-.096.715-.586.552-.489-.228-.162-.975.846.098-.357-.617.357-.684.812-.097-.033-.748-.91-.584.455.683v.453l-.52-.422-.519-.064-.228-1.236zM.49 6.125L.426 7.23l-.262.131-.012-.908A8.021 8.021 0 0 0 0 8c0 3.784 2.632 6.947 6.162 7.78l-.795-.456-.586-.91-.162-.682-.26-1.267L4 12.14l-.422-.067-.715-1.234-.033-.16-.098-.46.391-.357-.162-.648.117-.125-.767.092-.39-.522-.554-.422-.584-.351-.064-.04z" opacity=".648" fill="#040404" stroke-width=".027"/></svg>