<svg xmlns="http://www.w3.org/2000/svg" height="16" viewBox="0 0 16 16" width="16"><title>Template icons dark</title><g transform="translate(72 72)"><path fill="none" d="M-72.03-72.039h16v16h-16z"/><rect ry="1.231" rx="1.32" width="14" height="14" x="-71.031" y="-71.039" fill="#fff" fill-opacity=".031" stroke-width=".239" stroke-opacity=".267"/><rect y="-71.534" x="-71.535" height="14.999" width="15.001" rx="2" ry="2" opacity=".64" fill="none" stroke="#000" stroke-opacity=".947"/><path d="M-70.031-70.035v3h1v-3zm2 0v3h1v-3zm-2 8.992v3h1v-3zm2 0v3h1v-3zM-58.531-69.035a.5.5 0 0 0-.5.5.5.5 0 0 0 .5.5.5.5 0 0 0 .5-.5.5.5 0 0 0-.5-.5zm0 8.992a.5.5 0 0 0-.5.5.5.5 0 0 0 .5.5.5.5 0 0 0 .5-.5.5.5 0 0 0-.5-.5z" opacity=".64" stroke-width=".183" stroke-opacity=".784"/><path d="M-60.531-69.035a.5.5 0 0 0-.5.5.5.5 0 0 0 .5.5.5.5 0 0 0 .5-.5.5.5 0 0 0-.5-.5zm0 8.992a.5.5 0 0 0-.5.5.5.5 0 0 0 .5.5.5.5 0 0 0 .5-.5.5.5 0 0 0-.5-.5z" fill="#2bddd7" stroke-width=".183" stroke-opacity=".784"/><path d="M-66.031-69.035v1h4v-1zm-5 2.996v1h14v-1zm0 3v1h14v-1zm5 2.996v1h4v-1z" opacity=".64" stroke-width=".183" stroke-opacity=".784"/></g></svg>