<svg xmlns:osb="http://www.openswatchbook.org/uri/2009/osb" xmlns="http://www.w3.org/2000/svg" xmlns:xlink="http://www.w3.org/1999/xlink" height="16" viewBox="0 0 16 16" width="16"><title>Template icons dark</title><defs><linearGradient id="f" osb:paint="solid"><stop offset="0"/></linearGradient><linearGradient id="c" osb:paint="solid"><stop offset="0" stop-opacity=".018"/></linearGradient><linearGradient id="e"><stop offset="0" stop-opacity=".128"/><stop offset="1" stop-opacity=".392"/></linearGradient><linearGradient id="a"><stop offset="0" stop-color="#66a3e2"/><stop offset="1" stop-color="#69a5e3"/></linearGradient><linearGradient id="b" osb:paint="solid"><stop offset="0" stop-color="#525e7d"/></linearGradient><linearGradient id="d"><stop offset="0" stop-opacity="0"/><stop offset=".25" stop-opacity=".091"/><stop offset="1" stop-opacity="0"/></linearGradient><linearGradient xlink:href="#e" id="k" gradientUnits="userSpaceOnUse" gradientTransform="matrix(1.15754 0 0 1.15754 -50.956 -29.271)" x1="30.199" y1="-24.819" x2="30.199" y2="-35.186"/><linearGradient xlink:href="#f" id="l" gradientUnits="userSpaceOnUse" gradientTransform="matrix(.66667 0 0 .66667 -21.152 -8)" x1="-153.424" y1="-84" x2="-129.424" y2="-84"/><linearGradient id="j" osb:paint="solid"><stop offset="0" stop-color="#4b78a7"/></linearGradient><linearGradient id="g"><stop offset="0" stop-color="#404552" stop-opacity="0"/><stop offset="1" stop-color="#404552" stop-opacity=".839"/></linearGradient><linearGradient id="h"><stop offset="0" stop-color="#404552" stop-opacity=".036"/><stop offset="1" stop-color="#404552" stop-opacity=".979"/></linearGradient><linearGradient id="i"><stop offset="0" stop-color="#828282"/><stop offset=".253" stop-color="#fff"/><stop offset=".522" stop-color="#717171"/><stop offset=".785" stop-color="#717171"/><stop offset="1" stop-color="#4c4c4c"/></linearGradient></defs><g color="#000"><path style="isolation:auto;mix-blend-mode:normal;marker:none" d="M-8.307-57.09c0-2.534-4.299-3.586-6.014-4.046 0 0 .071-1.42.237-1.942.166-.52.19-1.112.26-1.278.071-.166.908-.924.956-1.634-.011-.424-.095-.524-.304-.524v-2.202c0-1.189-1.733-2.227-2.87-2.227-1.138 0-2.871 1.038-2.871 2.227v2.202c-.21 0-.293.1-.305.524.048.71.885 1.468.956 1.634.07.166.095.758.26 1.278.166.521.237 1.942.237 1.942-1.715.46-6.014 1.512-6.014 4.046z" overflow="visible" fill="url(#k)" transform="translate(24 72)"/><path style="isolation:auto;mix-blend-mode:normal;marker:none" d="M-15.998-70.94v13.85h7.691c0-2.533-4.298-3.587-6.013-4.047 0 0 .07-1.42.236-1.941.166-.521.189-1.112.26-1.277.07-.166.908-.925.955-1.635-.011-.424-.094-.524-.303-.524v-2.203c0-1.174-1.688-2.197-2.826-2.222z" overflow="visible" opacity=".1" fill="url(#l)" paint-order="fill markers stroke" transform="translate(24 72)"/><path style="line-height:normal;font-variant-ligatures:normal;font-variant-position:normal;font-variant-caps:normal;font-variant-numeric:normal;font-variant-alternates:normal;font-feature-settings:normal;text-indent:0;text-align:start;text-decoration-line:none;text-decoration-style:solid;text-decoration-color:#000;text-transform:none;text-orientation:mixed;shape-padding:0;isolation:auto;mix-blend-mode:normal;marker:none" d="M-16.043-70.947c-.631 0-1.315.258-1.865.674-.55.415-.983 1.008-.983 1.703v1.996c-.061.036-.137.028-.175.09-.1.16-.114.325-.12.548a.28.28 0 0 0 .002.026c.03.447.28.832.51 1.139.115.153.229.287.315.388.043.051.08.095.103.125.024.03.035.06.02.024-.01-.02.037.191.072.421.035.231.081.514.17.792.057.179.127.734.164 1.205.028.357.035.534.041.668-.851.225-2.211.56-3.467 1.119-.668.296-1.29.646-1.762 1.078-.472.431-.802.964-.802 1.584a.28.28 0 0 0 .281.281h14.992a.28.28 0 0 0 .281-.281c0-.56-.334-1.044-.8-1.457-.466-.413-1.08-.773-1.743-1.088-1.244-.593-2.593-.993-3.457-1.23.007-.132.013-.314.041-.674.037-.47.106-1.026.163-1.205.088-.278.136-.561.171-.792.035-.23.081-.442.073-.421-.016.036-.005.007.02-.024.023-.03.06-.074.103-.125.086-.101.2-.235.314-.388.23-.307.48-.692.51-1.14a.28.28 0 0 0 0-.025c-.006-.223-.018-.388-.117-.548-.039-.063-.116-.054-.178-.09v-1.996c0-.698-.44-1.29-.998-1.705-.558-.415-1.248-.672-1.879-.672zm0 .56c.471 0 1.08.215 1.545.56.465.346.771.802.771 1.257v2.132a.28.28 0 0 0 .266.282c.003.012.02.075.027.217-.019.24-.194.562-.396.832-.102.136-.206.26-.293.363-.044.051-.083.095-.117.139-.034.042-.062.073-.094.148-.078.181-.077.338-.111.56a4.735 4.735 0 0 1-.15.706c-.104.325-.15.847-.188 1.33-.038.482-.055.9-.055.9a.28.28 0 0 0 .207.283c.821.22 2.313.67 3.58 1.274.634.302 1.212.644 1.613 1 .294.26.366.509.448.758h-14.121c.077-.308.165-.612.47-.891.401-.366.978-.698 1.614-.98 1.27-.565 2.766-.936 3.603-1.16a.28.28 0 0 0 .207-.284s-.017-.418-.054-.9c-.038-.483-.084-1.005-.188-1.33a4.735 4.735 0 0 1-.15-.705c-.034-.222-.035-.379-.112-.56v-.001c-.032-.075-.062-.106-.095-.149-.034-.043-.072-.087-.116-.138-.087-.103-.192-.227-.295-.363-.202-.27-.375-.592-.394-.832.007-.143.025-.208.027-.22a.28.28 0 0 0 .266-.279v-2.132c0-.457.3-.911.758-1.256.457-.345 1.056-.56 1.527-.56z" font-weight="400" font-family="sans-serif" white-space="normal" overflow="visible" opacity=".5" fill="url(#l)" paint-order="fill markers stroke" transform="translate(24 72)"/></g></svg>