<svg xmlns:osb="http://www.openswatchbook.org/uri/2009/osb" xmlns="http://www.w3.org/2000/svg" xmlns:xlink="http://www.w3.org/1999/xlink" height="16" viewBox="0 0 16 16" width="16"><title>Template icons dark</title><defs><linearGradient id="a"><stop offset="0" stop-color="#e1e3e7"/><stop offset=".21" stop-color="#dee1e4"/><stop offset=".38" stop-color="#f1f2f3"/><stop offset=".67" stop-color="#c2c6cd"/><stop offset="1" stop-color="#d7dadf"/></linearGradient><linearGradient id="b"><stop offset="0" stop-color="#eeda60"/><stop offset="1" stop-color="#db9918"/></linearGradient><linearGradient id="c" osb:paint="solid"><stop offset="0"/></linearGradient><linearGradient xlink:href="#c" id="e" gradientUnits="userSpaceOnUse" gradientTransform="translate(-72.976 373)" x1="3" y1="-436.5" x2="15" y2="-436.5"/><linearGradient xlink:href="#c" id="d" gradientUnits="userSpaceOnUse" gradientTransform="matrix(.66667 0 0 .66667 34.848 62)" x1="-153.424" y1="-84" x2="-129.424" y2="-84"/></defs><g color="#000"><path style="isolation:auto;mix-blend-mode:normal;marker:none" d="M-69.976-71v15h2l1-1h6l1 1h2v-15zm1 1h10v13h-10z" display="block" overflow="visible" opacity=".64" fill="url(#d)" stroke-width=".137" paint-order="fill markers stroke" transform="translate(72 72)"/><path style="isolation:auto;mix-blend-mode:normal;marker:none" d="M-66.976-68h6v7h-6z" display="block" overflow="visible" opacity=".3" fill="url(#e)" stroke-width=".13" stroke-linecap="round" stroke-linejoin="round" stroke-opacity=".964" transform="translate(72 72)"/><path style="isolation:auto;mix-blend-mode:normal;marker:none" display="block" overflow="visible" opacity=".64" fill="url(#d)" stroke-width=".137" paint-order="fill markers stroke" d="M-66.976-58h6v1h-6zM-68.976-60h1v1h-1zM-59.976-60h1v1h-1zM-59.976-69h1v1h-1zM-68.976-69h1v1h-1zM-68.976-65h1v1h-1zM-59.976-65h1v1h-1z" transform="translate(72 72)"/></g></svg>