<svg xmlns:osb="http://www.openswatchbook.org/uri/2009/osb" xmlns="http://www.w3.org/2000/svg" xmlns:xlink="http://www.w3.org/1999/xlink" height="128" viewBox="0 0 128 128" width="128"><title>Template icons dark</title><defs><linearGradient id="a"><stop offset="0" stop-color="#e1e3e7"/><stop offset=".21" stop-color="#dee1e4"/><stop offset=".38" stop-color="#f1f2f3"/><stop offset=".67" stop-color="#c2c6cd"/><stop offset="1" stop-color="#d7dadf"/></linearGradient><linearGradient id="b"><stop offset="0" stop-color="#eeda60"/><stop offset="1" stop-color="#db9918"/></linearGradient><linearGradient gradientTransform="matrix(2.86125 0 0 2.86125 203.444 204.462)" xlink:href="#a" id="e" x1="9.196" y1="4.43" x2="37.228" y2="44" gradientUnits="userSpaceOnUse"/><linearGradient gradientTransform="translate(53.845 54.863) scale(1.36364)" xlink:href="#b" id="f" x1="160.063" y1="200" x2="160" y2="196.534" gradientUnits="userSpaceOnUse"/><linearGradient gradientTransform="translate(-3 444)" xlink:href="#c" id="d" x1="3" y1="-436.5" x2="15" y2="-436.5" gradientUnits="userSpaceOnUse"/><linearGradient id="c" osb:paint="solid"><stop offset="0"/></linearGradient></defs><path d="M226 213v120h23l4-4 38.119-.045L295 333h23V213z" style="marker:none" opacity=".05" fill="url(#d)" stroke-width=".13" stroke-linecap="round" stroke-linejoin="round" stroke-opacity=".964" transform="translate(-208 -208)"/><path d="M19 6v118h22l7-10h31.984L87 124h22V6z" fill="#8b93a1" stroke-width="2.861" stroke-opacity=".24"/><path d="M228 215l.095 116H249l7.036-9h31.948l7.016 9h21V215z" fill="url(#e)" stroke-width="2.861" stroke-opacity=".24" transform="translate(-208 -208)"/><path d="M48 114l-4.24 6H85l-5-6z" fill="#6c7587" fill-rule="evenodd" stroke-width="2.861"/><path style="isolation:auto;mix-blend-mode:normal;marker:none" d="M256.036 322l-.036 6h2v-6zm4.964 0v6h2v-6zm5 0v6h2v-6zm10 0v6h2v-6zm5.008 0l-.008 6h2v-6zm4.992 0v6h2l-.016-6z" color="#000" display="block" overflow="visible" fill="url(#f)" stroke-width=".372" stroke-linecap="round" stroke-linejoin="round" stroke-opacity=".964" transform="translate(-208 -208)"/><path d="M48 114l-2 3h36.457L80 114z" fill-opacity=".247" fill-rule="evenodd" stroke-width="2.01"/><path style="isolation:auto;mix-blend-mode:normal;marker:none" d="M41 31h46v68H41z" color="#000" display="block" overflow="visible" fill-opacity=".078" stroke-width=".26" stroke-linecap="round" stroke-linejoin="round" stroke-opacity=".964"/><path style="isolation:auto;mix-blend-mode:normal;marker:none" d="M41 99h46v1H41z" color="#000" overflow="visible" fill="#fff" fill-opacity=".5" stroke-width="1.364" stroke-linecap="square" stroke-dasharray="2.72728475,2.72728475" stroke-dashoffset="9.739" paint-order="markers stroke fill"/><path d="M25.846 65.046a2.726 2.726 0 0 1 2.732 2.732 2.726 2.726 0 0 1-2.732 2.733 2.726 2.726 0 0 1-2.733-2.733 2.726 2.726 0 0 1 2.733-2.732zM25.846 114.137a2.726 2.726 0 0 1 2.732 2.732 2.726 2.726 0 0 1-2.732 2.733 2.726 2.726 0 0 1-2.733-2.733 2.726 2.726 0 0 1 2.733-2.732zM102.21 10.5a2.726 2.726 0 0 1 2.732 2.733 2.726 2.726 0 0 1-2.732 2.732 2.726 2.726 0 0 1-2.733-2.732 2.726 2.726 0 0 1 2.733-2.733zM102.21 65.046a2.726 2.726 0 0 1 2.732 2.732 2.726 2.726 0 0 1-2.732 2.733 2.726 2.726 0 0 1-2.733-2.733 2.726 2.726 0 0 1 2.733-2.732zM102.21 114.137a2.726 2.726 0 0 1 2.732 2.732 2.726 2.726 0 0 1-2.732 2.733 2.726 2.726 0 0 1-2.733-2.733 2.726 2.726 0 0 1 2.733-2.732zM25.846 10.5a2.726 2.726 0 0 1 2.732 2.733 2.726 2.726 0 0 1-2.732 2.732 2.726 2.726 0 0 1-2.733-2.732 2.726 2.726 0 0 1 2.733-2.733z" fill="#737373" stroke-width="3.643" stroke-opacity=".643"/><path d="M25.846 10.5a2.727 2.727 0 0 0-2.733 2.733c0 .133.022.26.04.389a2.718 2.718 0 0 1 5.385 0c.018-.129.04-.256.04-.39a2.727 2.727 0 0 0-2.733-2.732zm76.364 0a2.727 2.727 0 0 0-2.733 2.733c0 .133.022.26.04.389a2.718 2.718 0 0 1 5.385 0c.018-.129.04-.256.04-.39a2.727 2.727 0 0 0-2.733-2.732zM25.846 65.046a2.727 2.727 0 0 0-2.733 2.732c0 .134.022.261.04.39a2.718 2.718 0 0 1 5.385 0c.018-.129.04-.256.04-.39a2.727 2.727 0 0 0-2.733-2.732zm76.364 0a2.727 2.727 0 0 0-2.733 2.732c0 .134.022.261.04.39a2.718 2.718 0 0 1 5.385 0c.018-.129.04-.256.04-.39a2.727 2.727 0 0 0-2.733-2.732zm-76.364 49.091a2.727 2.727 0 0 0-2.733 2.733c0 .133.022.26.04.388a2.718 2.718 0 0 1 5.385 0c.018-.128.04-.255.04-.388a2.727 2.727 0 0 0-2.733-2.733zm76.364 0a2.727 2.727 0 0 0-2.733 2.733c0 .133.022.26.04.388a2.718 2.718 0 0 1 5.385 0c.018-.128.04-.255.04-.388a2.727 2.727 0 0 0-2.733-2.733z" fill-opacity=".462" stroke-width="3.643" stroke-opacity=".643"/><path style="isolation:auto;mix-blend-mode:normal;marker:none" d="M25.846 11.864a1.364 1.364 0 0 0-1.364 1.363 1.364 1.364 0 0 0 1.364 1.364 1.364 1.364 0 0 0 1.363-1.364 1.364 1.364 0 0 0-1.363-1.363zm76.364 0a1.364 1.364 0 0 0-1.364 1.363 1.364 1.364 0 0 0 1.364 1.364 1.364 1.364 0 0 0 1.363-1.364 1.364 1.364 0 0 0-1.363-1.363zM25.846 66.41a1.364 1.364 0 0 0-1.364 1.363 1.364 1.364 0 0 0 1.364 1.364 1.364 1.364 0 0 0 1.363-1.364 1.364 1.364 0 0 0-1.363-1.363zm76.364 0a1.364 1.364 0 0 0-1.364 1.363 1.364 1.364 0 0 0 1.364 1.364 1.364 1.364 0 0 0 1.363-1.364 1.364 1.364 0 0 0-1.363-1.363zM25.846 115.5a1.364 1.364 0 0 0-1.364 1.364 1.364 1.364 0 0 0 1.364 1.364 1.364 1.364 0 0 0 1.363-1.364 1.364 1.364 0 0 0-1.363-1.363zm76.364.051a1.364 1.364 0 0 0-1.364 1.364 1.364 1.364 0 0 0 1.364 1.364 1.364 1.364 0 0 0 1.363-1.364 1.364 1.364 0 0 0-1.363-1.364z" color="#000" display="block" overflow="visible" fill="#fff" fill-opacity=".275" stroke-width=".517" stroke-opacity=".28" paint-order="fill markers stroke"/><path style="isolation:auto;mix-blend-mode:normal;marker:none" color="#000" display="block" overflow="visible" fill-opacity=".286" stroke-width="1.364" stroke-linecap="square" stroke-dasharray="2.72728475,2.72728475" stroke-dashoffset="9.739" paint-order="markers stroke fill" d="M41 31h46v1H41z"/></svg>