<svg xmlns:osb="http://www.openswatchbook.org/uri/2009/osb" xmlns="http://www.w3.org/2000/svg" xmlns:xlink="http://www.w3.org/1999/xlink" height="128" viewBox="0 0 128 128" width="128"><title>Template icons dark</title><defs><linearGradient id="g" osb:paint="solid"><stop offset="0" stop-opacity=".196"/></linearGradient><linearGradient id="f" osb:paint="solid"><stop offset="0" stop-color="#fff" stop-opacity=".302"/></linearGradient><linearGradient id="e" osb:paint="solid"><stop offset="0" stop-opacity=".009"/></linearGradient><linearGradient id="d" osb:paint="solid"><stop offset="0" stop-opacity=".026"/></linearGradient><linearGradient id="b"><stop offset="0" stop-color="#9af5b5"/><stop offset="1" stop-color="#56ee83"/></linearGradient><linearGradient id="a"><stop offset="0" stop-color="#42ec81"/><stop offset="1" stop-color="#3add5c"/></linearGradient><linearGradient id="c"><stop offset="0" stop-opacity="0"/><stop offset="1" stop-opacity=".102"/></linearGradient><linearGradient gradientTransform="translate(58.667 56.167) scale(1.33333)" xlink:href="#e" id="i" x1="125" y1="161.5" x2="195" y2="161.5" gradientUnits="userSpaceOnUse"/><linearGradient gradientTransform="translate(58.667 56.167) scale(1.33333)" xlink:href="#d" id="j" x1="126" y1="161.5" x2="194" y2="161.5" gradientUnits="userSpaceOnUse"/><linearGradient xlink:href="#a" id="k" gradientUnits="userSpaceOnUse" gradientTransform="matrix(2.92579 0 0 2.9282 201.838 201.731)" x1="24.117" y1="4.931" x2="24.058" y2="42.556"/><linearGradient xlink:href="#c" id="l" gradientUnits="userSpaceOnUse" gradientTransform="matrix(2.92579 0 0 2.9282 201.838 201.731)" x1="23.981" y1="23.144" x2="45.855" y2="45"/><linearGradient xlink:href="#c" id="m" gradientUnits="userSpaceOnUse" gradientTransform="matrix(2.92579 0 0 2.9282 201.838 201.731)" x1="23.981" y1="23.144" x2="2.106" y2="45"/><linearGradient xlink:href="#c" id="n" gradientUnits="userSpaceOnUse" gradientTransform="matrix(2.92579 0 0 2.9282 201.838 201.731)" x1="23.981" y1="23.144" x2="45.855" y2="1.287"/><linearGradient xlink:href="#c" id="o" gradientUnits="userSpaceOnUse" gradientTransform="matrix(2.92579 0 0 2.9282 201.838 201.731)" x1="23.981" y1="23.144" x2="2.106" y2="1.287"/><linearGradient gradientTransform="translate(58.667 56.167) scale(1.33333)" xlink:href="#f" id="p" x1="127" y1="120.5" x2="169" y2="120.5" gradientUnits="userSpaceOnUse"/><linearGradient gradientTransform="translate(58.667 56.167) scale(1.33333)" xlink:href="#g" id="q" x1="166" y1="133.472" x2="193" y2="133.472" gradientUnits="userSpaceOnUse"/><linearGradient xlink:href="#b" id="r" gradientUnits="userSpaceOnUse" gradientTransform="matrix(3.34375 0 0 2.9282 188.009 201.41)" x1="33.094" y1="10.504" x2="29.904" y2="14.147"/><linearGradient id="h"><stop offset="0" stop-opacity="0"/><stop offset="1" stop-opacity=".083"/></linearGradient><linearGradient gradientTransform="matrix(2 0 0 1.98214 -24.063 -50.75)" xlink:href="#h" id="s" x1="127" y1="161.5" x2="148.031" y2="161.5" gradientUnits="userSpaceOnUse"/></defs><path d="M226 214h58l34 34v81h-92z" style="isolation:auto;mix-blend-mode:normal;marker:none" color="#000" overflow="visible" fill="url(#i)" stroke-width="1.172" paint-order="fill markers stroke" transform="translate(-208 -208)"/><path style="isolation:auto;mix-blend-mode:normal;marker:none" d="M227 215h57l33 33v80h-90z" color="#000" overflow="visible" fill="url(#j)" stroke-width="1.136" paint-order="fill markers stroke" transform="translate(-208 -208)"/><path d="M228 216h56l32 32v79h-88V216z" style="isolation:auto;mix-blend-mode:normal;marker:none" color="#000" overflow="visible" fill="url(#k)" stroke-width="1.105" paint-order="fill markers stroke" transform="translate(-208 -208)"/><path style="isolation:auto;mix-blend-mode:normal;marker:none" d="M228 216h56l32 32v79h-88z" color="#000" overflow="visible" fill="url(#l)" stroke-width="1.105" paint-order="fill markers stroke" transform="translate(-208 -208)"/><path d="M228 216h56l32 32v79h-88z" style="isolation:auto;mix-blend-mode:normal;marker:none" color="#000" overflow="visible" fill="url(#m)" stroke-width="1.105" paint-order="fill markers stroke" transform="translate(-208 -208)"/><path style="isolation:auto;mix-blend-mode:normal;marker:none" d="M228 216h56l32 32v79h-88z" color="#000" overflow="visible" fill="url(#n)" stroke-width="1.105" paint-order="fill markers stroke" transform="translate(-208 -208)"/><path d="M228 216h56l32 32v79h-88z" style="isolation:auto;mix-blend-mode:normal;marker:none" color="#000" overflow="visible" fill="url(#o)" stroke-width="1.105" paint-order="fill markers stroke" transform="translate(-208 -208)"/><path style="isolation:auto;mix-blend-mode:normal;marker:none" d="M228 216h56v1h-56z" color="#000" display="block" overflow="visible" fill="url(#p)" stroke-width=".267" paint-order="fill markers stroke" transform="translate(-208 -208)"/><path d="M284 216l32 32-36 4z" fill="url(#q)" fill-rule="evenodd" stroke-width="2.927" transform="translate(-208 -208)"/><path d="M284 216l32 32h-32z" fill="url(#r)" fill-rule="evenodd" stroke-width="3.129" transform="translate(-208 -208)"/><path style="isolation:auto;mix-blend-mode:normal;marker:none" d="M228 216h44v111h-44V216z" color="#000" overflow="visible" fill="url(#s)" stroke-width="1.65" paint-order="fill markers stroke" transform="translate(-208 -208)"/><path style="isolation:auto;mix-blend-mode:normal;marker:none" d="M38.006 102.005v-1.33c0-.736.593-1.33 1.33-1.33h10.348c.737 0 1.33.594 1.33 1.33v1.33c0 .737-.593 1.004-1.33 1.004H39.336c-.737 0-1.33-.267-1.33-1.004z" color="#000" display="block" overflow="visible" fill-opacity=".208" stroke-width=".034"/><path style="isolation:auto;mix-blend-mode:normal;marker:none" d="M38.006 100.675V76.332c0-.737.593-1.33 1.33-1.33h10.348c.737 0 1.33.593 1.33 1.33v24.343c0 .737-.593 1.33-1.33 1.33H39.336c-.737 0-1.33-.593-1.33-1.33z" color="#000" display="block" overflow="visible" fill="#fff" fill-opacity=".979" stroke-width=".028"/><path style="isolation:auto;mix-blend-mode:normal;marker:none" d="M56.999 102.004v-1.327c0-.738.594-1.332 1.331-1.332h10.342c.737 0 1.331.594 1.331 1.332v1.327c0 .737-.594 1.005-1.331 1.005H58.33c-.737 0-1.331-.268-1.331-1.005z" color="#000" display="block" overflow="visible" fill-opacity=".208" stroke-width=".034"/><path style="isolation:auto;mix-blend-mode:normal;marker:none" d="M56.999 100.675v-34.34c0-.738.593-1.33 1.33-1.33h10.344c.737 0 1.33.592 1.33 1.33v34.34c0 .737-.593 1.33-1.33 1.33H58.33c-.737 0-1.33-.593-1.33-1.33z" color="#000" display="block" overflow="visible" fill="#fff" fill-opacity=".979" stroke-width=".028"/><path style="isolation:auto;mix-blend-mode:normal;marker:none" d="M76.993 102.005v-1.33c0-.736.594-1.33 1.33-1.33H88.67c.737 0 1.33.594 1.33 1.33v1.33c0 .737-.593 1.004-1.33 1.004H78.323c-.736 0-1.33-.267-1.33-1.004z" color="#000" display="block" overflow="visible" fill-opacity=".208" stroke-width=".034"/><path style="isolation:auto;mix-blend-mode:normal;marker:none" d="M76.993 100.675V55.33c0-.737.594-1.33 1.33-1.33H88.67c.737 0 1.33.593 1.33 1.33v45.345c0 .737-.593 1.33-1.33 1.33H78.323c-.736 0-1.33-.593-1.33-1.33z" color="#000" display="block" overflow="visible" fill="#fafafa" stroke-width=".028"/></svg>