<svg xmlns="http://www.w3.org/2000/svg" xmlns:xlink="http://www.w3.org/1999/xlink" height="128" viewBox="0 0 128 128" width="128"><title>Template icons dark</title><defs><linearGradient id="a"><stop offset="0" stop-color="#496fa4"/><stop offset="1" stop-color="#343b41"/></linearGradient><linearGradient id="b"><stop offset="0" stop-color="#2b84d0"/><stop offset="1" stop-color="#1767a9"/></linearGradient><linearGradient id="c"><stop offset="0" stop-color="#fff"/><stop offset="1" stop-color="#fff" stop-opacity="0"/></linearGradient><linearGradient gradientTransform="translate(71.239 70.526) scale(1.25287)" xlink:href="#c" id="g" x1="171.608" y1="145.557" x2="182.334" y2="137.027" gradientUnits="userSpaceOnUse"/><linearGradient gradientTransform="translate(71.483 75.924) scale(1.25287)" xlink:href="#c" id="f" x1="141.393" y1="166.845" x2="131.722" y2="175.073" gradientUnits="userSpaceOnUse"/><linearGradient xlink:href="#a" id="d" x1="99.818" y1="164.367" x2="220.995" y2="164.367" gradientUnits="userSpaceOnUse"/><linearGradient xlink:href="#b" id="e" gradientUnits="userSpaceOnUse" x1="115.452" y1="160" x2="204.026" y2="160.174"/></defs><g transform="translate(-208 -208)"><path style="isolation:auto;mix-blend-mode:normal;marker:none" d="M272.037 334.378l-52.952-30.572v-61.143l52.952-30.572 52.951 30.572v61.143z" color="#000" overflow="visible" fill-opacity=".018" stroke-width=".068"/><path style="isolation:auto;mix-blend-mode:normal;marker:none" d="M221.095 301.877v2.506l50.951 29.418 50.952-29.418v-2.506l-50.952 29.418z" color="#000" overflow="visible" fill="#131a20" fill-opacity=".092" stroke-width=".086"/><path style="isolation:auto;mix-blend-mode:normal;marker:none" d="M192.612 192.612l-44.549 11.936-32.611-32.611 11.936-44.549 44.549-11.936 32.611 32.611z" transform="rotate(45 155.577 320.291) scale(1.2757)" color="#000" overflow="visible" fill="url(#d)" stroke-width=".068"/><path transform="rotate(45 85.889 349.156) scale(1.02056)" d="M192.612 192.612l-44.549 11.936-32.611-32.611 11.936-44.549 44.549-11.936 32.611 32.611z" style="isolation:auto;mix-blend-mode:normal;marker:none" color="#000" overflow="visible" fill="url(#e)" stroke-width=".068"/><path style="isolation:auto;mix-blend-mode:normal;marker:none" d="M231.284 295.993v-47.068l40.762-23.534 40.762 23.534z" color="#000" overflow="visible" fill="#fff" fill-opacity=".058" stroke-width=".069"/><path style="isolation:auto;mix-blend-mode:normal;marker:none" d="M272.046 225.39l-40.762 23.536v6.265l40.762-23.536 40.763 23.536v-6.265z" color="#000" overflow="visible" fill-opacity=".466" stroke-width=".069"/><path style="isolation:auto;mix-blend-mode:normal;marker:none" d="M231.284 296v1.945l40.762 23.535 40.763-23.535V296l-40.763 23.535z" color="#000" overflow="visible" fill="#faf8fb" fill-opacity=".24" stroke-width=".069"/><path style="isolation:auto;mix-blend-mode:normal;marker:none" d="M272.046 213.623l-50.951 29.418v1.253l50.951-29.418 50.952 29.418v-1.253z" color="#000" overflow="visible" fill="#fff" fill-opacity=".267" stroke-width=".086"/><path d="M282.056 231.079v7.878h-20.172v-7.564h-.796v7.564h-11.992v-.144h-.72v.144h-.764v.6h.763v11.398h-16.388v.68h16.388v11.32h-12.07v-16.112h-.64v16.112h-4.17v.755h4.17v18.456l-3.866-.063-.01.754 3.876.063v15.38h.639v-15.37l12.071.197v11.694h-9.769l-.01.678h9.779v9.998h.72v-.579l11.993.112v8.082h.796v-5.764l20.172.33v6.06l.796.01v-8.013l12.37-.212v.358l.002-.358.917.015.01-.602-.921-.016-.223-9.42h15.755l.013-.679h-15.762l.076-10.934 12.844.21-.158 14.394.477.005.157-14.392 3.038.05.014-.752-3.044-.05.181-19.643h2.567v-.754h-2.56l.142-15.342-.479-.005-.141 15.347h-12.891l.078-11.32h16.619v-.68H295.32l.078-11.398h.975v-.6h-13.52v-7.865zm-32.96 8.478h11.992v11.398h-11.992zm12.788 0h20.172v11.398h-20.172zm20.968 0h12.066v11.398h-12.066zm-33.756 12.079h11.992v11.32h-11.992zm12.788 0h20.172v11.32h-20.172zm20.968 0h12.066v11.32h-12.066zm-46.548 12.074h12.071v18.663l-12.07-.197zm12.792 0h11.992v18.87l-11.992-.194zm12.788 0h20.172v19.213l-20.172-.33zm20.968 0h12.066v19.422l-12.066-.196zm12.378 0h12.888l-.18 19.634-12.844-.209zm-46.134 19.43l11.992.194v11.487h-11.992zm12.788.207l20.172.327v11.147h-20.172zm20.968.34l12.066.197v10.937h-12.066zM249.096 295.5h11.992v8.931l-11.992-.111zm12.788 0h20.172v11.577l-20.172-.328zm20.968 0h12.066l.304 9.421-12.37.213z" style="line-height:normal;font-variant-ligatures:normal;font-variant-position:normal;font-variant-caps:normal;font-variant-numeric:normal;font-variant-alternates:normal;font-feature-settings:normal;text-indent:0;text-align:start;text-decoration-line:none;text-decoration-style:solid;text-decoration-color:#000;text-transform:none;text-orientation:mixed;shape-padding:0;isolation:auto;mix-blend-mode:normal" color="#000" font-weight="400" font-family="sans-serif" white-space="normal" overflow="visible" opacity=".276" fill="#fff" fill-opacity=".309" fill-rule="evenodd" stroke-width=".636"/><path d="M271.539 325.172a.786.786 0 0 0-.099.99l-1.293 1.294.22.22 1.293-1.294a.786.786 0 0 0 1.089-1.089l1.293-1.293-.22-.22-1.293 1.294a.786.786 0 0 0-.99.098zm.167.168a.545.545 0 0 1 .31-.155v.247a.304.304 0 0 0-.218.219h-.246a.546.546 0 0 1 .154-.311zm.468-.154a.546.546 0 0 1 .463.465h-.246a.304.304 0 0 0-.216-.218zm-.622.622h.248c.013.05.038.098.078.137.04.04.088.065.139.079v.247a.546.546 0 0 1-.465-.463zm.622.215a.305.305 0 0 0 .216-.215h.247a.545.545 0 0 1-.463.462z" style="isolation:auto;mix-blend-mode:normal;marker:none" color="#000" overflow="visible" fill="#fff" fill-opacity=".435" stroke-width=".005" stroke-opacity=".965"/><path style="isolation:auto;mix-blend-mode:normal;marker:none" d="M272.65 325.172a.786.786 0 0 0-.99-.098l-1.293-1.293-.22.22 1.294 1.293a.786.786 0 0 0 1.089 1.089l1.293 1.293.22-.22-1.295-1.294a.786.786 0 0 0-.098-.99zm-.167.168a.545.545 0 0 1 .154.31h-.247a.304.304 0 0 0-.219-.218v-.247a.546.546 0 0 1 .312.155zm.154.468a.545.545 0 0 1-.465.463v-.247a.304.304 0 0 0 .218-.216zm-.623-.622v.247a.304.304 0 0 0-.215.217h-.247a.546.546 0 0 1 .462-.464zm-.215.622a.304.304 0 0 0 .215.215v.247a.546.546 0 0 1-.462-.462z" color="#000" overflow="visible" fill="#fff" fill-opacity=".435" stroke-width=".005" stroke-opacity=".965"/><path d="M244.852 280.482c-.131-.05-.245.026-.324.133l-1.22 1.665.012.007a6.395 6.395 0 0 0-1.289.023l-1.303-1.605c-.084-.104-.201-.174-.33-.117l-1.883.838c-.13.057-.155.19-.135.322l.309 2.005a6.395 6.395 0 0 0-.93.955l-2.004-.209c-.133-.013-.265.02-.316.152l-.74 1.924c-.05.132.027.244.135.323l1.59 1.167a6.395 6.395 0 0 0 .027 1.394l-1.528 1.241c-.104.085-.174.202-.116.33l.837 1.884c.057.128.19.155.322.134l1.918-.296a6.395 6.395 0 0 0 1.035.988l-.202 1.933c-.013.133.02.265.152.316l1.924.74c.132.05.244-.026.323-.134l1.15-1.57a6.395 6.395 0 0 0 1.414-.044l1.238 1.525c.085.103.202.173.33.116l1.884-.838c.128-.057.155-.19.135-.323l-.304-1.962a6.395 6.395 0 0 0 .93-.996l1.998.206c.133.014.265-.018.316-.15l.74-1.924c.05-.132-.026-.245-.134-.324l-1.65-1.208a6.395 6.395 0 0 0-.04-1.295l1.6-1.298c.104-.085.174-.202.117-.33l-.838-1.884c-.057-.128-.19-.155-.323-.135l-2.04.315.006.017a6.395 6.395 0 0 0-.936-.889h.005l.213-2.067c.014-.134-.018-.266-.15-.316l-1.924-.74zm-1.497 6.74a1.481 1.481 0 0 1 .851 1.914 1.481 1.481 0 0 1-1.914.852 1.481 1.481 0 0 1-.852-1.915 1.481 1.481 0 0 1 1.915-.85z" style="isolation:auto;mix-blend-mode:normal;marker:none" color="#000" overflow="visible" fill="none" stroke="url(#f)" stroke-width=".272" stroke-linecap="round" stroke-linejoin="round" paint-order="stroke fill markers"/><path style="isolation:auto;mix-blend-mode:normal;marker:none" d="M292.34 239.84c-.148-.003-.233.114-.272.25l-.604 2.089.014.003a6.74 6.74 0 0 0-1.268.49l-1.87-1.117c-.122-.073-.264-.1-.37.005l-1.56 1.511c-.107.103-.085.244-.018.368l1.032 1.872a6.74 6.74 0 0 0-.573 1.282l-2.06.52c-.136.034-.255.116-.257.264l-.035 2.173c-.003.148.114.232.25.27l1.996.58a6.74 6.74 0 0 0 .532 1.37l-1.063 1.781c-.072.122-.099.263.005.37l1.511 1.56c.104.107.244.085.368.017l1.79-.988a6.74 6.74 0 0 0 1.383.603l.501 1.986c.035.137.116.255.265.258l2.172.035c.149.003.232-.114.271-.25l.57-1.97a6.74 6.74 0 0 0 1.383-.556l1.778 1.06c.12.072.262.1.37-.005l1.56-1.51c.106-.105.084-.246.017-.37l-1.012-1.832a6.74 6.74 0 0 0 .559-1.322l2.053-.52c.137-.035.256-.115.258-.263l.035-2.172c.003-.15-.114-.234-.25-.273l-2.07-.598a6.74 6.74 0 0 0-.51-1.266l1.115-1.865c.072-.121.099-.263-.005-.37l-1.512-1.56c-.103-.107-.245-.085-.369-.017l-1.904 1.05.012.016a6.74 6.74 0 0 0-1.248-.54l.005-.001-.538-2.125c-.035-.136-.115-.255-.263-.257l-2.172-.035zm.96 7.213a1.561 1.561 0 0 1 1.537 1.587 1.561 1.561 0 0 1-1.587 1.536 1.561 1.561 0 0 1-1.536-1.586 1.561 1.561 0 0 1 1.586-1.537z" color="#000" overflow="visible" fill="none" stroke="url(#g)" stroke-width=".286" stroke-linecap="round" stroke-linejoin="round" paint-order="stroke fill markers"/><path style="isolation:auto;mix-blend-mode:normal;marker:none" d="M271.482 219.888a.866.866 0 0 0-.109 1.092l-1.426 1.426.242.242 1.427-1.427a.866.866 0 0 0 1.2-1.2l1.426-1.426-.242-.242-1.426 1.426a.866.866 0 0 0-1.092.109zm.184.184a.601.601 0 0 1 .343-.17v.272a.336.336 0 0 0-.24.241h-.273a.602.602 0 0 1 .17-.343zm.517-.17a.602.602 0 0 1 .51.513h-.272a.336.336 0 0 0-.238-.24zm-.686.687h.272a.337.337 0 0 0 .086.15.336.336 0 0 0 .154.087v.273a.602.602 0 0 1-.512-.51zm.686.237a.335.335 0 0 0 .237-.237h.273a.602.602 0 0 1-.51.51z" color="#000" overflow="visible" fill="#fff" fill-opacity=".435" stroke-width=".005" stroke-opacity=".965"/><path d="M272.707 219.888a.866.866 0 0 0-1.092-.11l-1.426-1.425-.242.242 1.427 1.426a.866.866 0 0 0 1.2 1.2l1.426 1.427.242-.242-1.426-1.427a.866.866 0 0 0-.109-1.091zm-.184.184a.601.601 0 0 1 .17.342h-.272a.336.336 0 0 0-.241-.24v-.272a.601.601 0 0 1 .343.17zm.17.516a.601.601 0 0 1-.513.51v-.272a.335.335 0 0 0 .24-.238zm-.687-.686v.273a.335.335 0 0 0-.237.24h-.273a.602.602 0 0 1 .51-.513zm-.237.686a.335.335 0 0 0 .237.237v.273a.601.601 0 0 1-.51-.51z" style="isolation:auto;mix-blend-mode:normal;marker:none" color="#000" overflow="visible" fill="#fff" fill-opacity=".435" stroke-width=".005" stroke-opacity=".965"/><g fill="#fff" stroke-width=".176"><path d="M266.7 283.377c-.497.523-1.163.92-1.893.979-.23-.104-.443.331-.614.015-.462-.088-.952-.15-1.336-.448-1.16-.715-1.734-2.276-1.23-3.558.424-1.187 1.639-2.067 2.913-1.994 1.379.04 2.688 1.117 2.872 2.506.144.882-.099 1.838-.711 2.5zm.199-4.5c-1.26-1.3-3.576-1.33-4.856-.046-1.2 1.13-1.462 3.153-.49 4.507.809 1.208 2.412 1.832 3.816 1.419.308-.083.604-.207.876-.374.298.008.463-.41.72-.558.825-.845 1.185-2.116.887-3.264a3.389 3.389 0 0 0-.953-1.684M265.955 268.164c-1.263.854-3.154.524-4.05-.711-.829-1.075-.775-2.706.11-3.731.802-.991 2.267-1.353 3.437-.85 1.14.453 1.933 1.655 1.865 2.886a3 3 0 0 1-1.362 2.406zm.035.562c1.01-.556 1.729-1.619 1.813-2.776a3.494 3.494 0 0 0-1.616-3.255c-1.174-.768-2.809-.716-3.931.126-1.107.79-1.66 2.256-1.36 3.58.263 1.313 1.358 2.397 2.666 2.667a3.518 3.518 0 0 0 2.428-.342zM282.333 283.336c-.872.924-2.352 1.182-3.482.6-1.115-.546-1.82-1.829-1.633-3.064.079-.6.346-1.172.75-1.622.022-.16.303-.313.44-.44 1.046-.78 2.602-.76 3.622.058 1.054.799 1.452 2.327.922 3.538a2.965 2.965 0 0 1-.62.93zm.296-4.603c-1.016-1.02-2.68-1.283-3.968-.648-.52.248-.979.624-1.313 1.095-.042.178-.265.415-.337.636-.604 1.27-.325 2.893.683 3.877.986 1.055 2.657 1.348 3.954.727 1.22-.546 2.052-1.84 2.034-3.176a3.517 3.517 0 0 0-1.053-2.51M276.28 274.812c-.433 1.508-1.782 2.716-3.332 2.963-.276-.01-.109.388-.296.108-.272-.128-.767-.01-.88.096-.142-.414-.729-.104-1.059-.373-1.697-.604-2.914-2.354-2.83-4.163.037-1.93 1.52-3.74 3.431-4.086 1.555-.322 3.258.287 4.233 1.546a4.318 4.318 0 0 1 .733 3.909zm.604-.38c.171-.924.05-1.892-.297-2.762-.19-.069-.229.124-.118-.133-.082-.45-.445-.783-.704-1.141-1.165-1.342-3.106-1.939-4.822-1.461-1.788.455-3.218 2.03-3.491 3.856-.286 1.684.395 3.495 1.759 4.535.387.27.927.702 1.338.676.068-.189.1.328.35.178.365.146.941.186 1.189.073.454.27 1.028-.06 1.515-.117 1.661-.507 2.996-1.983 3.28-3.704"/><path d="M294.846 277.032a2.608 2.608 0 0 0-.2-.044c-.651-.105-1.328-.063-2.069.129a8.07 8.07 0 0 0-1.876.772l-.248-.067-.021.301c-.004.06-.024.128-.04.19a5.934 5.934 0 0 1-.269.901c-.073.229-.115.353-.12.368a3.692 3.692 0 0 1-.108.322c-.026.068-.05.143-.079.225-.065.196-.14.418-.262.673l-.028.06c-.03.06-.059.123-.077.19l-.056.21.233.098c.653 1.422 1.516 2.428 2.582 3.002l.109.05.05.023c-.017.13-.106.413-.314.77l-.416.708c-.25.395-.48.583-.53.635a3.032 3.032 0 0 0-.178-.137 4.901 4.901 0 0 0-1.942-.782c-.691-.14-1.368-.146-2-.126l-.157-.133-.16.197c-.044.055-.082.1-.153.165-.51.584-.865.983-.864.984-.018.016-.407.373-.951.892-.053.038-.11.09-.194.164l-.178.16.182.219c.01.734.05 1.35.193 1.946.17.725.441 1.33.826 1.848l.125.161c-.062.108-.259.332-.594.566l-.71.448c-.35.218-.633.315-.754.333l-.098-.179c-.302-.554-.754-1.055-1.38-1.534a7.56 7.56 0 0 0-1.777-.991l-.078-.18-.227.097a1.957 1.957 0 0 0-.221.104c-.335.16-.624.265-.871.357-.226.084-.35.127-.351.128l-.47.165a6.625 6.625 0 0 1-.763.235l-.14.035-.08.022-.252.05.068.29a8.136 8.136 0 0 0-.69 1.867c-.15.772-.165 1.414-.05 1.993.007.074.022.147.041.224-.11.067-.384.17-.787.228l-.814.118c-.31.025-.604.012-.785-.037l-.046-.014.005-.095.003-.115a5.028 5.028 0 0 0-.594-1.982c-.297-.562-.673-1.097-1.184-1.677l-.073-.171-.197-.012c-.062-.003-.13-.007-.178-.007a32.62 32.62 0 0 0-.955-.033l-1.699-.228-.17-.027-.241-.065-.077.286c-1.25.949-2.037 2.015-2.335 3.17l-.037.157-.01.047c-.117.018-.427.007-.817-.126l-.788-.264a3.073 3.073 0 0 1-.639-.304l-.094-.082c.024-.06.052-.124.087-.198.45-1.137.447-2.526-.005-4.025l.129-.203-.277-.112-.091-.043-.088-.043c-.688-.397-1.15-.66-1.15-.66-.007-.004-.119-.078-.324-.186-.087-.059-.187-.13-.302-.213-.142-.1-.303-.214-.455-.312a1.428 1.428 0 0 0-.146-.115l-.265-.2-.165.236c-1.12.257-2.5.704-3.474 1.836l-.047.055-.088.106c-.146-.05-.405-.206-.683-.462l-.304-.281c-.137-.134-.272-.283-.28-.292-.291-.298-.442-.553-.483-.67.051-.042.105-.088.157-.136 1.121-1.013 1.528-2.448 1.747-3.617l.184-.098-.87-1.172a4.87 4.87 0 0 0-.193-.317c-.017-.028-.287-.486-.674-1.116l-.07-.136-.035-.067-.097-.24-.287.13c-1.51-.39-2.83-.343-3.907.13a1.633 1.633 0 0 0-.214.094c-.087-.084-.26-.317-.399-.719l-.29-.775c-.128-.373-.157-.58-.158-.687l.006-.128c.066-.014.135-.031.189-.053 1.184-.344 2.247-1.184 3.162-2.498l.25-.013-.092-.303a1.502 1.502 0 0 1-.042-.202c-.13-.79-.206-1.314-.207-1.32 0-.003-.021-.129-.046-.342-.008-.102-.014-.223-.022-.361a22.25 22.25 0 0 0-.038-.6l-.004-.064c-.004-.067-.009-.133-.022-.197l-.041-.204-.238.006c-.215-.175-.46-.355-.763-.562a6.728 6.728 0 0 0-.876-.51 4.957 4.957 0 0 0-1.98-.502h-.194c-.047-.111-.102-.406-.075-.819l.043-.42c.02-.193.049-.395.05-.4.053-.433.153-.698.215-.804l.053.012.142.032a4.827 4.827 0 0 0 2.068-.138c.605-.15 1.222-.402 1.88-.77l.194.052.125-.467c.07-.335.158-.61.23-.829l.135-.417s.049-.125.15-.414c.068-.21.159-.497.294-.806.04-.062.076-.141.116-.233l.1-.229-.262-.114c-.65-1.424-1.515-2.433-2.578-3.005a3.135 3.135 0 0 0-.174-.081c.018-.133.107-.414.31-.764l.436-.719c.22-.358.441-.55.544-.612l.047.039.115.089c.548.37 1.2.632 1.93.78.626.122 1.236.135 2.002.109l.193.16.151-.238.043-.054.068-.086c.526-.595.879-.982.878-.982.013-.012.398-.371.992-.916l.31-.318-.172-.2c.001-.583-.023-1.261-.18-1.945a4.88 4.88 0 0 0-.817-1.835 1.569 1.569 0 0 0-.137-.18c.067-.112.265-.336.592-.57l.706-.436c.382-.233.656-.32.768-.335l.042.089.046.094c.319.565.775 1.067 1.395 1.534a8.384 8.384 0 0 0 1.789.997l.108.149.263-.116c.034-.017.07-.035.149-.065.259-.14.49-.223.696-.297l.166-.061c.223-.077.35-.124.35-.124.003-.002.135-.049.322-.126l.149-.051c.206-.07.462-.158.79-.235l.084-.023.15-.042.234-.086-.095-.255c.336-.655.555-1.262.669-1.846.165-.715.185-1.374.061-2.006a2.055 2.055 0 0 0-.041-.207c.111-.068.39-.179.801-.243l.799-.12c.341-.021.694.016.833.059l.002.053.008.147c.05.68.246 1.353.585 1.998.313.607.754 1.168 1.157 1.643l-.013.205.352.006.135.004c.395.027.729.036.965.042.203.014.325.035.34.037 0 0 .525.075 1.294.171l.142.028.087.016.261.07.056-.306c1.215-.916 2.02-2.008 2.33-3.163l.05-.193c.112-.021.405-.016.81.125l.79.264c.271.096.51.21.64.303l.095.08c-.03.064-.058.13-.082.19-.456 1.133-.454 2.496.005 4.052l-.086.188.277.131.129.064c.697.391 1.158.662 1.166.667.004.002.117.064.297.174.162.108.364.248.61.418l.163.109.125.105.262.213.188-.245c1.598-.349 2.706-.934 3.464-1.822.052-.05.101-.108.143-.165.142.046.402.202.685.458 0 0 .15.144.305.28.143.131.27.279.282.293.282.296.433.547.478.665l-.16.131c-1.159 1.07-1.56 2.594-1.757 3.673l-.1.126.091.15c.038.06.09.141.14.19.136.192.263.361.373.51.077.101.145.193.19.255.116.198.202.316.205.319.027.045.284.491.693 1.147.026.063.058.14.113.217l.138.192.216-.14c1.48.391 2.835.347 3.93-.13l.188-.092c.087.081.264.315.405.724l.279.777c.095.257.154.514.158.693v.112c-.069.018-.14.036-.209.057-1.17.348-2.233 1.196-3.16 2.52l-.18.043.038.232c.014.08.028.167.04.215.13.791.203 1.319.207 1.338 0 .006.027.133.053.324.006.233.028.577.062.968l.015.482.298-.021c.253.21.51.397.754.552.274.193.569.367.882.522.699.32 1.33.484 1.962.503l.065.001.137-.001c.04.113.088.391.07.828 0 .004-.01.195-.04.399l-.045.416c-.048.413-.152.69-.219.797zm.755-1.151c.034-.218.045-.436.045-.439.023-.557-.026-1.24-.39-1.338l-.107-.01c-.065.005-.13.003-.199.002h-.064c-.553-.018-1.134-.168-1.757-.456a6.111 6.111 0 0 1-.82-.486 7.108 7.108 0 0 1-.787-.584l-.06-.05a20.099 20.099 0 0 1-.064-.972 4.397 4.397 0 0 0-.059-.375c-.005-.031-.079-.556-.208-1.348l-.012-.056c.869-1.259 1.855-2.059 2.932-2.38.064-.02.128-.035.19-.05l.045-.014c.134-.014.354-.112.325-.6-.004-.225-.073-.534-.186-.843l-.279-.773c-.162-.47-.464-.981-.773-1.064a.327.327 0 0 0-.238.02l-.255.126c-.991.432-2.246.465-3.626.095l-.137-.038-.006-.01c-.426-.678-.685-1.13-.704-1.16-.005-.006-.082-.108-.198-.308-.06-.085-.13-.18-.21-.286-.108-.144-.232-.309-.388-.526l-.03-.035c.291-1.61.788-2.666 1.6-3.416l.206-.168a.337.337 0 0 0 .135-.247c.033-.373-.471-.934-.618-1.087 0 0-.148-.173-.318-.33-.15-.132-.293-.268-.3-.274-.328-.298-.67-.515-.915-.58-.253-.068-.385.03-.462.124a1.032 1.032 0 0 1-.151.188c-.712.833-1.76 1.371-3.295 1.695l-.065.014-.004-.005-.193-.133a31.147 31.147 0 0 0-.626-.428 6.698 6.698 0 0 0-.319-.189c-.014-.008-.475-.28-1.158-.662l-.082-.044c-.44-1.468-.452-2.74-.037-3.775.032-.075.07-.163.103-.227.077-.135.093-.353-.28-.63-.173-.127-.445-.258-.773-.373l-.79-.265a3.126 3.126 0 0 0-.227-.07c-.176-.047-.772-.185-1.06.011-.087.06-.14.145-.145.205l-.07.263c-.287 1.07-1.056 2.091-2.225 2.951l-.065.049-.01-.003c-.79-.1-1.31-.175-1.311-.174a3.854 3.854 0 0 0-.395-.044 21.78 21.78 0 0 1-.98-.042h-.07c-.393-.461-.829-1.008-1.128-1.59a4.565 4.565 0 0 1-.532-1.81l-.006-.124-.009-.1c.013-.117-.021-.326-.403-.428-.235-.063-.582-.085-.972-.06l-.822.123c-.16.024-.97.167-1.182.49a.337.337 0 0 0-.05.273c.02.075.043.16.059.261.11.573.093 1.166-.059 1.82-.111.573-.331 1.167-.673 1.817l-.035.065c-.32.075-.584.165-.798.238l-.161.054c-.19.08-.314.124-.32.126-.003 0-.125.047-.35.124l-.164.06c-.21.076-.472.17-.723.31l-.103.04a7.913 7.913 0 0 1-1.711-.947c-.572-.431-.973-.87-1.255-1.367l-.035-.075a2.263 2.263 0 0 0-.093-.185.351.351 0 0 0-.226-.175c-.348-.093-.955.243-1.2.393l-.723.446c-.38.272-.798.67-.833.973a.345.345 0 0 0 .086.276c.054.057.105.115.16.2.348.47.597 1.028.74 1.66.123.535.173 1.11.167 1.925v.085c-.588.539-.972.896-.986.91 0 0-.358.393-.922 1.037l-.01.014c-.762.027-1.357.018-1.951-.097-.66-.135-1.252-.371-1.742-.7l-.086-.068-.127-.1-.12-.06c-.38-.101-.874.518-1.083.86l-.438.724c-.082.14-.485.856-.36 1.23.034.096.1.17.2.211.084.03.16.068.221.098.979.527 1.784 1.487 2.393 2.854l.023.052c-.163.366-.26.668-.342.928-.08.223-.128.344-.132.356l-.142.434c-.07.219-.168.519-.24.867l-.016.06c-.635.362-1.246.617-1.828.76a4.349 4.349 0 0 1-1.838.133l-.138-.033c-.129-.03-.281-.065-.409.022-.313.21-.43.968-.457 1.19 0 0-.03.211-.051.416l-.045.427c-.018.286-.043 1.227.398 1.345l.357.014a4.478 4.478 0 0 1 1.775.454c.272.13.544.288.81.471.324.221.578.41.798.593l.055.046.001.011c.017.217.028.415.037.588.008.143.015.269.024.382.027.235.048.37.049.37.001.01.077.534.207 1.32l.015.088c-.86 1.26-1.848 2.058-2.961 2.383-.063.024-.154.04-.231.053-.205.045-.306.248-.302.604.004.213.064.488.189.848l.289.775c.161.468.462.978.77 1.06a.337.337 0 0 0 .258-.03c.064-.038.133-.074.233-.11 1.01-.444 2.25-.474 3.684-.09l.084.023.003.006c.417.686.689 1.15.7 1.166.003.004.073.106.196.319l.626.835c-.202 1.104-.57 2.478-1.607 3.414-.066.06-.129.116-.215.177a.355.355 0 0 0-.115.261c-.013.387.483.926.628 1.075 0 0 .149.164.302.313l.307.284c.327.3.671.519.92.586.263.07.39-.042.447-.12.034-.053.076-.101.119-.15l.048-.057c.705-.82 1.722-1.343 3.299-1.696l.049-.01.017.014c.177.12.336.233.474.33.12.086.225.16.335.232.2.109.3.173.319.185 0 0 .463.264 1.187.68l.05.024c.443 1.42.458 2.724.05 3.758a2.782 2.782 0 0 0-.106.251c-.077.134-.093.351.278.632.188.13.458.26.766.37l.792.267c.072.025.142.045.21.064.176.047.773.187 1.07.002a.338.338 0 0 0 .158-.21l.033-.14.033-.14c.274-1.064 1.022-2.057 2.22-2.95l.064-.047.005.001 1.334.187.387.043c.237.004.564.015.972.034l.072.003c.492.558.854 1.066 1.135 1.6.311.585.492 1.186.537 1.76l-.003.081c-.004.07-.007.144-.007.218.003.13.079.304.416.395.237.063.585.083.97.05l.827-.12c.224-.031.97-.16 1.177-.479a.337.337 0 0 0 .045-.278 1.363 1.363 0 0 1-.054-.256c-.107-.548-.093-1.111.043-1.819a7.65 7.65 0 0 1 .687-1.822l.034-.062c.333-.077.613-.177.819-.251l.467-.165s.127-.044.393-.143c.22-.082.522-.192.894-.37l.049-.026a7.137 7.137 0 0 1 1.722.951c.57.435.978.886 1.268 1.417.041.076.083.153.103.175.035.102.12.178.233.208.291.078.807-.152 1.195-.395l.72-.454c.378-.265.796-.656.832-.961a.341.341 0 0 0-.075-.269c-.044-.053-.111-.134-.16-.203-.348-.466-.592-1.012-.745-1.671-.14-.576-.173-1.186-.182-1.925V288l.01-.009c.58-.548.971-.907.99-.926 0 0 .362-.405.863-.984l.082-.08c.617-.02 1.276-.02 1.942.117.664.118 1.248.349 1.749.7.067.048.13.096.2.158l.125.065c.44.118.984-.696 1.094-.867l.42-.717c.115-.197.478-.866.36-1.227a.337.337 0 0 0-.19-.21l-.121-.056-.106-.048c-.972-.523-1.774-1.48-2.386-2.849l-.03-.065c.13-.272.213-.517.28-.714.025-.077.048-.146.071-.21.083-.22.12-.35.119-.351.004-.014.047-.138.112-.346.115-.292.212-.616.284-.95l.02-.08a7.578 7.578 0 0 1 1.809-.753c.671-.174 1.28-.213 1.86-.12.09.017.167.038.27.065a.36.36 0 0 0 .278-.072c.313-.233.42-.96.446-1.178l.044-.411"/><path d="M280.075 268.52c-1.008.018-2.02-.511-2.555-1.37-.579-.867-.637-2.054-.16-2.981-.174-.073-.254-.139-.016-.062.243-.21.359-.57.63-.774.908-.879 2.387-1.088 3.492-.467 1.024.55 1.686 1.719 1.576 2.883-.091 1.34-1.183 2.533-2.515 2.727-.15.025-.3.04-.452.044zm.01.497a3.65 3.65 0 0 0 1.602-.415c-.096-.165-.14-.245.034-.07.308-.025.52-.346.769-.513.966-.93 1.324-2.434.85-3.693-.48-1.355-1.853-2.342-3.298-2.314-1.229-.003-2.445.679-3.03 1.769-.236.142.342.257-.007.183-.28.086-.256.515-.37.757-.083.356-.111.724-.08 1.088.187.016.308.062.042.076-.054.284.088.602.17.881.463 1.266 1.719 2.18 3.064 2.244.084.005.17.008.254.007"/></g><circle style="isolation:auto;mix-blend-mode:normal;marker:none" cx="317.81" cy="247.23" r="2.452" color="#000" overflow="visible" fill="#fdfeff" fill-opacity=".198" stroke-width=".625" stroke-linejoin="round"/><circle style="isolation:auto;mix-blend-mode:normal;marker:none" cx="226.16" cy="246.476" r="2.452" color="#000" overflow="visible" fill="#fdfeff" fill-opacity=".198" stroke-width=".625" stroke-linejoin="round"/><circle r="2.452" cy="299.53" cx="226.16" style="isolation:auto;mix-blend-mode:normal;marker:none" color="#000" overflow="visible" fill="#fdfeff" fill-opacity=".198" stroke-width=".625" stroke-linejoin="round"/><circle style="isolation:auto;mix-blend-mode:normal;marker:none" cx="272.174" cy="325.805" r="2.452" color="#000" overflow="visible" opacity=".276" fill="#2b84d0" stroke="#fff" stroke-width=".625" stroke-linejoin="round"/><circle r="2.452" cy="299.656" cx="317.056" style="isolation:auto;mix-blend-mode:normal;marker:none" color="#000" overflow="visible" fill="#fdfeff" fill-opacity=".198" stroke-width=".625" stroke-linejoin="round"/><circle r="2.452" cy="220.452" cx="272.048" style="isolation:auto;mix-blend-mode:normal;marker:none" color="#000" overflow="visible" opacity=".276" fill="#2b84d0" stroke="#fff" stroke-width=".625" stroke-linejoin="round"/></g></svg>