<svg xmlns:osb="http://www.openswatchbook.org/uri/2009/osb" xmlns="http://www.w3.org/2000/svg" xmlns:xlink="http://www.w3.org/1999/xlink" height="128" viewBox="0 0 128 128" width="128" enable-background="new"><title>Template icons dark</title><defs><linearGradient id="g" osb:paint="solid"><stop offset="0" stop-opacity=".196"/></linearGradient><linearGradient id="f" osb:paint="solid"><stop offset="0" stop-color="#fff" stop-opacity=".469"/></linearGradient><linearGradient id="e" osb:paint="solid"><stop offset="0" stop-opacity=".009"/></linearGradient><linearGradient id="d" osb:paint="solid"><stop offset="0" stop-opacity=".022"/></linearGradient><linearGradient id="b"><stop offset="0" stop-color="#92cbd1"/><stop offset="1" stop-color="#41bda9"/></linearGradient><linearGradient id="a"><stop offset="0" stop-color="#44e9b3"/><stop offset="1" stop-color="#43a8ce"/></linearGradient><linearGradient id="c"><stop offset="0" stop-opacity="0"/><stop offset="1" stop-opacity=".102"/></linearGradient><linearGradient gradientTransform="translate(58.667 56.167) scale(1.33333)" xlink:href="#e" id="h" x1="125" y1="161.5" x2="195" y2="161.5" gradientUnits="userSpaceOnUse"/><linearGradient gradientTransform="translate(58.667 56.167) scale(1.33333)" xlink:href="#d" id="i" x1="126" y1="161.5" x2="194" y2="161.5" gradientUnits="userSpaceOnUse"/><linearGradient xlink:href="#a" id="j" gradientUnits="userSpaceOnUse" gradientTransform="matrix(2.92579 0 0 2.9282 201.838 201.731)" x1="24.117" y1="4.931" x2="24.058" y2="42.556"/><linearGradient xlink:href="#c" id="k" gradientUnits="userSpaceOnUse" gradientTransform="matrix(2.92579 0 0 2.9282 201.838 201.731)" x1="23.981" y1="23.144" x2="45.855" y2="45"/><linearGradient xlink:href="#c" id="l" gradientUnits="userSpaceOnUse" gradientTransform="matrix(2.92579 0 0 2.9282 201.838 201.731)" x1="23.981" y1="23.144" x2="2.106" y2="45"/><linearGradient xlink:href="#c" id="m" gradientUnits="userSpaceOnUse" gradientTransform="matrix(2.92579 0 0 2.9282 201.838 201.731)" x1="23.981" y1="23.144" x2="45.855" y2="1.287"/><linearGradient xlink:href="#c" id="n" gradientUnits="userSpaceOnUse" gradientTransform="matrix(2.92579 0 0 2.9282 201.838 201.731)" x1="23.981" y1="23.144" x2="2.106" y2="1.287"/><linearGradient gradientTransform="translate(58.667 56.167) scale(1.33333)" xlink:href="#f" id="o" x1="127" y1="120.5" x2="169" y2="120.5" gradientUnits="userSpaceOnUse"/><linearGradient gradientTransform="translate(58.667 56.167) scale(1.33333)" xlink:href="#g" id="p" x1="166" y1="133.472" x2="193" y2="133.472" gradientUnits="userSpaceOnUse"/><linearGradient xlink:href="#b" id="q" gradientUnits="userSpaceOnUse" gradientTransform="matrix(3.34375 0 0 2.9282 188.009 201.41)" x1="33.094" y1="10.504" x2="29.904" y2="14.147"/><filter id="r" x="-.062" width="1.125" y="-.278" height="1.555" color-interpolation-filters="sRGB"><feGaussianBlur stdDeviation="1.712"/></filter></defs><path d="M226 214h58l34 34v81h-92z" style="isolation:auto;mix-blend-mode:normal;marker:none" color="#000" overflow="visible" fill="url(#h)" stroke-width="1.172" paint-order="fill markers stroke" enable-background="accumulate" transform="translate(-208 -208)"/><path style="isolation:auto;mix-blend-mode:normal;marker:none" d="M227 215h57l33 33v80h-90z" color="#000" overflow="visible" fill="url(#i)" stroke-width="1.136" paint-order="fill markers stroke" enable-background="accumulate" transform="translate(-208 -208)"/><path d="M228 216h56l32 32v79h-88V216z" style="isolation:auto;mix-blend-mode:normal;marker:none" color="#000" overflow="visible" fill="url(#j)" stroke-width="1.105" paint-order="fill markers stroke" enable-background="accumulate" transform="translate(-208 -208)"/><path style="isolation:auto;mix-blend-mode:normal;marker:none" d="M228 216h56l32 32v79h-88z" color="#000" overflow="visible" fill="url(#k)" stroke-width="1.105" paint-order="fill markers stroke" enable-background="accumulate" transform="translate(-208 -208)"/><path d="M228 216h56l32 32v79h-88z" style="isolation:auto;mix-blend-mode:normal;marker:none" color="#000" overflow="visible" fill="url(#l)" stroke-width="1.105" paint-order="fill markers stroke" enable-background="accumulate" transform="translate(-208 -208)"/><path style="isolation:auto;mix-blend-mode:normal;marker:none" d="M228 216h56l32 32v79h-88z" color="#000" overflow="visible" fill="url(#m)" stroke-width="1.105" paint-order="fill markers stroke" enable-background="accumulate" transform="translate(-208 -208)"/><path d="M228 216h56l32 32v79h-88z" style="isolation:auto;mix-blend-mode:normal;marker:none" color="#000" overflow="visible" fill="url(#n)" stroke-width="1.105" paint-order="fill markers stroke" enable-background="accumulate" transform="translate(-208 -208)"/><path style="isolation:auto;mix-blend-mode:normal;marker:none" d="M228 216h56v1h-56z" color="#000" display="block" overflow="visible" fill="url(#o)" stroke-width=".267" paint-order="fill markers stroke" enable-background="accumulate" transform="translate(-208 -208)"/><path d="M284 216l32 32-36 4z" fill="url(#p)" fill-rule="evenodd" stroke-width="2.927" transform="translate(-208 -208)"/><path d="M284 216l32 32h-32z" fill="url(#q)" fill-rule="evenodd" stroke-width="3.129" transform="translate(-208 -208)"/><path d="M126.921 163.017s8.084-9.1 16.303-9.1c8.22 0 24.66 14.802 32.88 14.802 8.22 0 16.917-5.702 16.917-5.702" transform="matrix(1.26035 0 0 1.40825 -137.675 -157.894)" fill="none" fill-rule="evenodd" stroke="#fff" stroke-width="2" filter="url(#r)"/><path d="M20.354 71.302s9.544-12.148 20.981-12.148c11.437 0 34.311 20.595 45.748 20.595 11.437 0 19.777-6.554 19.777-6.554" fill="none" fill-rule="evenodd" stroke="#fff" stroke-width="1.391" stroke-opacity=".518"/><path transform="matrix(1.22916 0 0 1.41738 -132.679 -152.733)" d="M126.134 163.016s23.19-11.51 34.923-10.787c11.735.723 17.11 12.51 22.727 12.39 5.616-.12 9.54-3.894 9.54-3.894" fill="none" fill-rule="evenodd" stroke="#fff" stroke-width="2" filter="url(#r)"/><path d="M19.845 78.243S49.918 62.13 65.136 63.142c15.218 1.013 22.19 17.515 29.473 17.346 7.284-.169 12.374-5.452 12.374-5.452" fill="none" fill-rule="evenodd" stroke="#fff" stroke-width="1.391" stroke-opacity=".366"/><path d="M126.134 163.016s37.626-12.067 47.42-10.184c9.794 1.883 11.88 9.255 19.77 7.893" transform="matrix(1.23452 0 0 1.41789 -133.236 -152.802)" fill="none" fill-rule="evenodd" stroke="#fff" stroke-width="2" filter="url(#r)"/><path d="M19.845 78.243s48.178-16.536 60.484-13.75c12.307 2.785 11.766 8.678 26.654 10.543" fill="none" fill-rule="evenodd" stroke="#fff" stroke-width="1.391" stroke-opacity=".366"/><path transform="matrix(1.2259 0 0 1.42615 -132.106 -154.277)" d="M126.134 163.016s16.799-2.421 25.421-1.382c8.623 1.04 32.187 11.064 42.29 1.864" fill="none" fill-rule="evenodd" stroke="#fff" stroke-width="2" filter="url(#r)"/><path d="M19.845 78.243s19.502-2.346 32.968-1.934c13.466.412 34.427 14.21 54.338 3.285" fill="none" fill-rule="evenodd" stroke="#fff" stroke-width="1.391" stroke-opacity=".366"/></svg>