<svg xmlns:osb="http://www.openswatchbook.org/uri/2009/osb" xmlns="http://www.w3.org/2000/svg" xmlns:xlink="http://www.w3.org/1999/xlink" height="128" viewBox="0 0 128 128" width="128"><title>Template icons dark</title><defs><linearGradient id="g" osb:paint="solid"><stop offset="0" stop-opacity=".196"/></linearGradient><linearGradient id="f" osb:paint="solid"><stop offset="0" stop-color="#fff" stop-opacity=".782"/></linearGradient><linearGradient id="e" osb:paint="solid"><stop offset="0" stop-opacity="0"/></linearGradient><linearGradient id="d" osb:paint="solid"><stop offset="0" stop-opacity=".157"/></linearGradient><linearGradient id="b"><stop offset="0" stop-color="#fff"/><stop offset="1" stop-color="#dfdfdf"/></linearGradient><linearGradient id="a"><stop offset="0" stop-color="#f0f0f0"/><stop offset="1" stop-color="#fff"/></linearGradient><linearGradient id="c"><stop offset="0" stop-opacity="0"/><stop offset="1" stop-opacity=".038"/></linearGradient><linearGradient gradientTransform="translate(58.667 56.167) scale(1.33333)" xlink:href="#e" id="i" x1="125" y1="161.5" x2="195" y2="161.5" gradientUnits="userSpaceOnUse"/><linearGradient gradientTransform="translate(58.667 56.167) scale(1.33333)" xlink:href="#d" id="j" x1="126" y1="161.5" x2="194" y2="161.5" gradientUnits="userSpaceOnUse"/><linearGradient xlink:href="#a" id="k" gradientUnits="userSpaceOnUse" gradientTransform="matrix(2.92579 0 0 2.9282 201.838 201.731)" x1="24.117" y1="4.931" x2="24.058" y2="42.556"/><linearGradient xlink:href="#c" id="l" gradientUnits="userSpaceOnUse" gradientTransform="matrix(2.92579 0 0 2.9282 201.838 201.731)" x1="23.981" y1="23.144" x2="45.855" y2="45"/><linearGradient xlink:href="#c" id="m" gradientUnits="userSpaceOnUse" gradientTransform="matrix(2.92579 0 0 2.9282 201.838 201.731)" x1="23.981" y1="23.144" x2="2.106" y2="45"/><linearGradient xlink:href="#c" id="n" gradientUnits="userSpaceOnUse" gradientTransform="matrix(2.92579 0 0 2.9282 201.838 201.731)" x1="23.981" y1="23.144" x2="45.855" y2="1.287"/><linearGradient xlink:href="#c" id="o" gradientUnits="userSpaceOnUse" gradientTransform="matrix(2.92579 0 0 2.9282 201.838 201.731)" x1="23.981" y1="23.144" x2="2.106" y2="1.287"/><linearGradient gradientTransform="translate(58.667 56.167) scale(1.33333)" xlink:href="#f" id="p" x1="127" y1="120.5" x2="169" y2="120.5" gradientUnits="userSpaceOnUse"/><linearGradient gradientTransform="translate(58.667 56.167) scale(1.33333)" xlink:href="#g" id="q" x1="166" y1="133.472" x2="193" y2="133.472" gradientUnits="userSpaceOnUse"/><linearGradient xlink:href="#b" id="r" gradientUnits="userSpaceOnUse" gradientTransform="matrix(3.34375 0 0 2.9282 188.009 201.41)" x1="33.094" y1="10.504" x2="29.904" y2="14.147"/><linearGradient id="h" osb:paint="solid"><stop offset="0" stop-opacity=".084"/></linearGradient><linearGradient gradientTransform="matrix(1.3339 0 0 1.33682 58.573 55.577)" xlink:href="#h" id="s" gradientUnits="userSpaceOnUse" x1="188" y1="173.5" x2="189" y2="173.5"/></defs><path d="M226 214h58l34 34v81h-92z" style="isolation:auto;mix-blend-mode:normal;marker:none" color="#000" overflow="visible" fill="url(#i)" stroke-width="1.172" paint-order="fill markers stroke" transform="translate(-208 -208)"/><path style="isolation:auto;mix-blend-mode:normal;marker:none" d="M227 215h57l33 33v80h-90z" color="#000" overflow="visible" fill="url(#j)" stroke-width="1.136" paint-order="fill markers stroke" transform="translate(-208 -208)"/><path d="M228 216h56l32 32v79h-88V216z" style="isolation:auto;mix-blend-mode:normal;marker:none" color="#000" overflow="visible" fill="url(#k)" stroke-width="1.105" paint-order="fill markers stroke" transform="translate(-208 -208)"/><path style="isolation:auto;mix-blend-mode:normal;marker:none" d="M228 216h56l32 32v79h-88z" color="#000" overflow="visible" fill="url(#l)" stroke-width="1.105" paint-order="fill markers stroke" transform="translate(-208 -208)"/><path d="M228 216h56l32 32v79h-88z" style="isolation:auto;mix-blend-mode:normal;marker:none" color="#000" overflow="visible" fill="url(#m)" stroke-width="1.105" paint-order="fill markers stroke" transform="translate(-208 -208)"/><path style="isolation:auto;mix-blend-mode:normal;marker:none" d="M228 216h56l32 32v79h-88z" color="#000" overflow="visible" fill="url(#n)" stroke-width="1.105" paint-order="fill markers stroke" transform="translate(-208 -208)"/><path d="M228 216h56l32 32v79h-88z" style="isolation:auto;mix-blend-mode:normal;marker:none" color="#000" overflow="visible" fill="url(#o)" stroke-width="1.105" paint-order="fill markers stroke" transform="translate(-208 -208)"/><path style="isolation:auto;mix-blend-mode:normal;marker:none" d="M228 216h56v1h-56z" color="#000" display="block" overflow="visible" fill="url(#p)" stroke-width=".267" paint-order="fill markers stroke" transform="translate(-208 -208)"/><path d="M284 216l32 32-36 4z" fill="url(#q)" fill-rule="evenodd" stroke-width="2.927" transform="translate(-208 -208)"/><path d="M284 216l32 32h-32z" fill="url(#r)" fill-rule="evenodd" stroke-width="3.129" transform="translate(-208 -208)"/><path style="isolation:auto;mix-blend-mode:normal;marker:none" d="M229.313 215.996v4.01h-1.333v1.337h1.333v4.01h-1.333v1.337h1.333v4.01h-1.333v1.338h1.333v4.01h-1.333v1.337h1.333v4.01h-1.333v1.337h1.333v4.01h-1.333v1.337h1.333v4.01h-1.333v1.338h1.333v4.01h-1.333v1.337h1.333v4.01h-1.333v1.337h1.333v4.01h-1.333v1.338h1.333v4.01h-1.333v1.337h1.333v4.01h-1.333v1.337h1.333v4.01h-1.333v1.337h1.333v4.01h-1.333v1.338h1.333v4.01h-1.333v1.337h1.333v4.01h-1.333v1.337h1.333v4.01h-1.333v1.338h1.333v4.01h-1.333v1.337h1.333v4.01h-1.333v1.337h1.333v4.01h-1.333v1.338h1.333v4.01h1.334v-4.01h4.002v4.01h1.334v-4.01h4.002v4.01h1.334v-4.01h4.001v4.01h1.334v-4.01h4.002v4.01h1.334v-4.01h4.002v4.01h1.334v-4.01h4.001v4.01h1.334v-4.01h4.002v4.01h1.334v-4.01h4.002v4.01h1.333v-4.01h4.002v4.01h1.334v-4.01h4.002v4.01h1.334v-4.01h4.001v4.01h1.334v-4.01h4.002v4.01h1.334v-4.01h4.002v3.885h1.334v-3.885h4.001v4.01h1.334v-4.01h4.002v4.01h1.334v-4.01h5.335v-1.337h-5.335v-4.01h5.335v-1.338h-5.335v-4.01h5.335v-1.337h-5.335v-4.01h5.335v-1.337h-5.335v-4.01h5.335v-1.337h-5.335v-4.011h5.335v-1.337h-5.335v-4.01h5.335v-1.337h-5.335v-4.01h5.335v-1.337h-5.335v-4.01h5.335v-1.338h-5.335v-4.01h5.335v-1.337h-5.335v-4.01h5.335v-1.337h-5.335v-4.01h5.335v-1.338h-5.335v-4.01h5.335v-1.337h-5.335v-4.01h5.335v-1.337h-5.335v-4.01h-1.334v4.01h-4.002v-4.01h-1.334v4.01h-4.001v-4.136h-1.334v4.136h-4.002v-4.01h-1.334v4.01h-4.002v-4.01h-1.334v4.01h-4.001v-36.094h-1.334v4.01h-4.002v-4.01h-1.334v4.01h-4.002v-4.01H272v4.01h-4.002v-4.01h-1.334v4.01h-4.002v-4.01h-1.334v4.01h-4.001v-4.01h-1.334v4.01h-4.002v-4.01h-1.334v4.01h-4.002v-4.01h-1.334v4.01h-4.001v-4.01h-1.334v4.01h-4.002v-4.01h-1.334v4.01h-4.002v-4.01zm1.334 5.347h4.002v4.01h-4.002zm5.336 0h4.002v4.01h-4.002zm5.336 0h4.001v4.01h-4.001zm5.335 0h4.002v4.01h-4.002zm5.336 0h4.002v4.01h-4.002zm5.336 0h4.001v4.01h-4.001zm5.335 0h4.002v4.01h-4.002zm5.336 0h4.002v4.01h-4.002zm5.335 0h4.002v4.01h-4.002zm5.336 0h4.002v4.01h-4.002zm-48.02 5.347h4.001v4.01h-4.002zm5.335 0h4.002v4.01h-4.002zm5.336 0h4.001v4.01h-4.001zm5.335 0h4.002v4.01h-4.002zm5.336 0h4.002v4.01h-4.002zm5.336 0h4.001v4.01h-4.001zm5.335 0h4.002v4.01h-4.002zm5.336 0h4.002v4.01h-4.002zm5.335 0h4.002v4.01h-4.002zm5.336 0h4.002v4.01h-4.002zm-48.02 5.348h4.001v4.01h-4.002zm5.335 0h4.002v4.01h-4.002zm5.336 0h4.001v4.01h-4.001zm5.335 0h4.002v4.01h-4.002zm5.336 0h4.002v4.01h-4.002zm5.336 0h4.001v4.01h-4.001zm5.335 0h4.002v4.01h-4.002zm5.336 0h4.002v4.01h-4.002zm5.335 0h4.002v4.01h-4.002zm5.336 0h4.002v4.01h-4.002zm-48.02 5.347h4.001v4.01h-4.002zm5.335 0h4.002v4.01h-4.002zm5.336 0h4.001v4.01h-4.001zm5.335 0h4.002v4.01h-4.002zm5.336 0h4.002v4.01h-4.002zm5.336 0h4.001v4.01h-4.001zm5.335 0h4.002v4.01h-4.002zm5.336 0h4.002v4.01h-4.002zm5.335 0h4.002v4.01h-4.002zm5.336 0h4.002v4.01h-4.002zm-48.02 5.347h4.001v4.01h-4.002zm5.335 0h4.002v4.01h-4.002zm5.336 0h4.001v4.01h-4.001zm5.335 0h4.002v4.01h-4.002zm5.336 0h4.002v4.01h-4.002zm5.336 0h4.001v4.01h-4.001zm5.335 0h4.002v4.01h-4.002zm5.336 0h4.002v4.01h-4.002zm5.335 0h4.002v4.01h-4.002zm5.336 0h4.002v4.01h-4.002zm-48.02 5.347h4.001v4.01h-4.002zm5.335 0h4.002v4.01h-4.002zm5.336 0h4.001v4.01h-4.001zm5.335 0h4.002v4.01h-4.002zm5.336 0h4.002v4.01h-4.002zm5.336 0h4.001v4.01h-4.001zm5.335 0h4.002v4.01h-4.002zm5.336 0h4.002v4.01h-4.002zm5.335 0h4.002v4.01h-4.002zm5.336 0h4.002v4.01h-4.002zm-48.02 5.348h4.001v4.01h-4.002zm5.335 0h4.002v4.01h-4.002zm5.336 0h4.001v4.01h-4.001zm5.335 0h4.002v4.01h-4.002zm5.336 0h4.002v4.01h-4.002zm5.336 0h4.001v4.01h-4.001zm5.335 0h4.002v4.01h-4.002zm5.336 0h4.002v4.01h-4.002zm5.335 0h4.002v4.01h-4.002zm5.336 0h4.002v4.01h-4.002zm5.336 0h4.001v4.01h-4.001zm5.335 0h4.002v4.01h-4.002zm5.336 0h4.002v4.01h-4.002zm5.336 0h4.001v4.01h-4.001zm5.335 0h4.002v4.01h-4.002zm-74.699 5.347h4.002v4.01h-4.002zm5.336 0h4.002v4.01h-4.002zm5.336 0h4.001v4.01h-4.001zm5.335 0h4.002v4.01h-4.002zm5.336 0h4.002v4.01h-4.002zm5.336 0h4.001v4.01h-4.001zm5.335 0h4.002v4.01h-4.002zm5.336 0h4.002v4.01h-4.002zm5.335 0h4.002v4.01h-4.002zm5.336 0h4.002v4.01h-4.002zm5.336 0h4.001v4.01h-4.001zm5.335 0h4.002v4.01h-4.002zm5.336 0h4.002v4.01h-4.002zm5.336 0h4.001v4.01h-4.001zm5.335 0h4.002v4.01h-4.002zm-74.699 5.347h4.002v4.01h-4.002zm5.336 0h4.002v4.01h-4.002zm5.336 0h4.001v4.01h-4.001zm5.335 0h4.002v4.01h-4.002zm5.336 0h4.002v4.01h-4.002zm5.336 0h4.001v4.01h-4.001zm5.335 0h4.002v4.01h-4.002zm5.336 0h4.002v4.01h-4.002zm5.335 0h4.002v4.01h-4.002zm5.336 0h4.002v4.01h-4.002zm5.336 0h4.001v4.01h-4.001zm5.335 0h4.002v4.01h-4.002zm5.336 0h4.002v4.01h-4.002zm5.336 0h4.001v4.01h-4.001zm5.335 0h4.002v4.01h-4.002zm-74.699 5.348h4.002v4.01h-4.002zm5.336 0h4.002v4.01h-4.002zm5.336 0h4.001v4.01h-4.001zm5.335 0h4.002v4.01h-4.002zm5.336 0h4.002v4.01h-4.002zm5.336 0h4.001v4.01h-4.001zm5.335 0h4.002v4.01h-4.002zm5.336 0h4.002v4.01h-4.002zm5.335 0h4.002v4.01h-4.002zm5.336 0h4.002v4.01h-4.002zm5.336 0h4.001v4.01h-4.001zm5.335 0h4.002v4.01h-4.002zm5.336 0h4.002v4.01h-4.002zm5.336 0h4.001v4.01h-4.001zm5.335 0h4.002v4.01h-4.002zm-74.699 5.347h4.002v4.01h-4.002zm5.336 0h4.002v4.01h-4.002zm5.336 0h4.001v4.01h-4.001zm5.335 0h4.002v4.01h-4.002zm5.336 0h4.002v4.01h-4.002zm5.336 0h4.001v4.01h-4.001zm5.335 0h4.002v4.01h-4.002zm5.336 0h4.002v4.01h-4.002zm5.335 0h4.002v4.01h-4.002zm5.336 0h4.002v4.01h-4.002zm5.336 0h4.001v4.01h-4.001zm5.335 0h4.002v4.01h-4.002zm5.336 0h4.002v4.01h-4.002zm5.336 0h4.001v4.01h-4.001zm5.335 0h4.002v4.01h-4.002zm-74.699 5.347h4.002v4.01h-4.002zm5.336 0h4.002v4.01h-4.002zm5.336 0h4.001v4.01h-4.001zm5.335 0h4.002v4.01h-4.002zm5.336 0h4.002v4.01h-4.002zm5.336 0h4.001v4.01h-4.001zm5.335 0h4.002v4.01h-4.002zm5.336 0h4.002v4.01h-4.002zm5.335 0h4.002v4.01h-4.002zm5.336 0h4.002v4.01h-4.002zm5.336 0h4.001v4.01h-4.001zm5.335 0h4.002v4.01h-4.002zm5.336 0h4.002v4.01h-4.002zm5.336 0h4.001v4.01h-4.001zm5.335 0h4.002v4.01h-4.002zm-74.699 5.347h4.002v4.01h-4.002zm5.336 0h4.002v4.01h-4.002zm5.336 0h4.001v4.01h-4.001zm5.335 0h4.002v4.01h-4.002zm5.336 0h4.002v4.01h-4.002zm5.336 0h4.001v4.01h-4.001zm5.335 0h4.002v4.01h-4.002zm5.336 0h4.002v4.01h-4.002zm5.335 0h4.002v4.01h-4.002zm5.336 0h4.002v4.01h-4.002zm5.336 0h4.001v4.01h-4.001zm5.335 0h4.002v4.01h-4.002zm5.336 0h4.002v4.01h-4.002zm5.336 0h4.001v4.01h-4.001zm5.335 0h4.002v4.01h-4.002zm-74.699 5.348h4.002v4.01h-4.002zm5.336 0h4.002v4.01h-4.002zm5.336 0h4.001v4.01h-4.001zm5.335 0h4.002v4.01h-4.002zm5.336 0h4.002v4.01h-4.002zm5.336 0h4.001v4.01h-4.001zm5.335 0h4.002v4.01h-4.002zm5.336 0h4.002v4.01h-4.002zm5.335 0h4.002v4.01h-4.002zm5.336 0h4.002v4.01h-4.002zm5.336 0h4.001v4.01h-4.001zm5.335 0h4.002v4.01h-4.002zm5.336 0h4.002v4.01h-4.002zm5.336 0h4.001v4.01h-4.001zm5.335 0h4.002v4.01h-4.002zm-74.699 5.347h4.002v4.01h-4.002zm5.336 0h4.002v4.01h-4.002zm5.336 0h4.001v4.01h-4.001zm5.335 0h4.002v4.01h-4.002zm5.336 0h4.002v4.01h-4.002zm5.336 0h4.001v4.01h-4.001zm5.335 0h4.002v4.01h-4.002zm5.336 0h4.002v4.01h-4.002zm5.335 0h4.002v4.01h-4.002zm5.336 0h4.002v4.01h-4.002zm5.336 0h4.001v4.01h-4.001zm5.335 0h4.002v4.01h-4.002zm5.336 0h4.002v4.01h-4.002zm5.336 0h4.001v4.01h-4.001zm5.335 0h4.002v4.01h-4.002zm-74.699 5.347h4.002v4.01h-4.002zm5.336 0h4.002v4.01h-4.002zm5.336 0h4.001v4.01h-4.001zm5.335 0h4.002v4.01h-4.002zm5.336 0h4.002v4.01h-4.002zm5.336 0h4.001v4.01h-4.001zm5.335 0h4.002v4.01h-4.002zm5.336 0h4.002v4.01h-4.002zm5.335 0h4.002v4.01h-4.002zm5.336 0h4.002v4.01h-4.002zm5.336 0h4.001v4.01h-4.001zm5.335 0h4.002v4.01h-4.002zm5.336 0h4.002v4.01h-4.002zm5.336 0h4.001v4.01h-4.001zm5.335 0h4.002v4.01h-4.002zm-74.699 5.348h4.002v4.01h-4.002zm5.336 0h4.002v4.01h-4.002zm5.336 0h4.001v4.01h-4.001zm5.335 0h4.002v4.01h-4.002zm5.336 0h4.002v4.01h-4.002zm5.336 0h4.001v4.01h-4.001zm5.335 0h4.002v4.01h-4.002zm5.336 0h4.002v4.01h-4.002zm5.335 0h4.002v4.01h-4.002zm5.336 0h4.002v4.01h-4.002zm5.336 0h4.001v4.01h-4.001zm5.335 0h4.002v4.01h-4.002zm5.336 0h4.002v4.01h-4.002zm5.336 0h4.001v4.01h-4.001zm5.335 0h4.002v4.01h-4.002zm-74.699 5.347h4.002v4.01h-4.002zm5.336 0h4.002v4.01h-4.002zm5.336 0h4.001v4.01h-4.001zm5.335 0h4.002v4.01h-4.002zm5.336 0h4.002v4.01h-4.002zm5.336 0h4.001v4.01h-4.001zm5.335 0h4.002v4.01h-4.002zm5.336 0h4.002v4.01h-4.002zm5.335 0h4.002v4.01h-4.002zm5.336 0h4.002v4.01h-4.002zm5.336 0h4.001v4.01h-4.001zm5.335 0h4.002v4.01h-4.002zm5.336 0h4.002v4.01h-4.002zm5.336 0h4.001v4.01h-4.001zm5.335 0h4.002v4.01h-4.002zm-74.699 5.347h4.002v4.01h-4.002zm5.336 0h4.002v4.01h-4.002zm5.336 0h4.001v4.01h-4.001zm5.335 0h4.002v4.01h-4.002zm5.336 0h4.002v4.01h-4.002zm5.336 0h4.001v4.01h-4.001zm5.335 0h4.002v4.01h-4.002zm5.336 0h4.002v4.01h-4.002zm5.335 0h4.002v4.01h-4.002zm5.336 0h4.002v4.01h-4.002zm5.336 0h4.001v4.01h-4.001zm5.335 0h4.002v4.01h-4.002zm5.336 0h4.002v4.01h-4.002zm5.336 0h4.001v4.01h-4.001zm5.335 0h4.002v4.01h-4.002z" color="#000" overflow="visible" opacity=".4" fill="url(#s)" stroke-width="1.122" stroke-opacity=".344" paint-order="fill markers stroke" transform="translate(-208 -208)"/><path style="line-height:1000%" d="M65.709 70.72q-7.655 0-10.607 1.75-2.952 1.751-2.952 5.974 0 3.364 2.197 5.355 2.231 1.956 6.041 1.956 5.252 0 8.41-3.707 3.193-3.742 3.193-9.92V70.72zm12.598-2.609v21.935h-6.316v-5.835q-2.163 3.5-5.39 5.183-3.226 1.648-7.895 1.648-5.904 0-9.405-3.296-3.467-3.33-3.467-8.89 0-6.488 4.325-9.784 4.36-3.295 12.975-3.295h8.857v-.618q0-4.36-2.884-6.728-2.849-2.403-8.032-2.403-3.296 0-6.42.79-3.123.79-6.007 2.368v-5.835q3.467-1.34 6.729-1.991 3.26-.687 6.35-.687 8.342 0 12.46 4.325 4.12 4.325 4.12 13.113z" font-size="53.333" font-family="sans-serif" letter-spacing="0" word-spacing="0" fill="#9dc3ef" fill-opacity=".63" stroke="#82a9e5" stroke-width=".791" stroke-opacity=".995"/><path style="line-height:normal;font-variant-ligatures:normal;font-variant-position:normal;font-variant-caps:normal;font-variant-numeric:normal;font-variant-alternates:normal;font-feature-settings:normal;text-indent:0;text-align:start;text-decoration-line:none;text-decoration-style:solid;text-decoration-color:#000;text-transform:none;text-orientation:mixed;shape-padding:0;isolation:auto;mix-blend-mode:normal" d="M49.546 40.18c-.116 0-.24.01-.371.03-.13.022-.268.052-.417.093v.353c.148-.05.283-.087.406-.11.124-.024.24-.034.348-.034.198 0 .348.04.453.12a.4.4 0 0 1 .16.343c0 .146-.05.257-.152.335-.103.077-.252.116-.445.116h-.356v.324h.34c.215 0 .38.05.5.147.12.096.183.23.183.402a.498.498 0 0 1-.196.425c-.129.097-.317.146-.564.146-.142 0-.277-.016-.407-.049a1.378 1.378 0 0 1-.36-.144v.379c.138.048.273.085.401.108.13.023.256.038.379.038.364 0 .644-.08.842-.237.197-.157.296-.379.296-.666a.715.715 0 0 0-.16-.474.75.75 0 0 0-.44-.25.727.727 0 0 0 .394-.232.621.621 0 0 0 .139-.409.662.662 0 0 0-.263-.551c-.174-.136-.411-.203-.71-.203zm2.77.052l-1.213 1.845v.382h1.316v.687h.391v-.687h.415v-.327h-.415v-1.9zm.103.345v1.555h-.997zm-8.712 3.01v5.272h1.318v-5.273zm15.817 0v5.272h1.319v-5.273zm-13.181 2.635v1.319h11.78v-1.319zm35.59 7.91v1.318h6.591V54.13zm2.636 2.484v33.106h1.319V56.616zm9.462 14.641c-.327 0-.576.13-.75.389-.171.257-.257.63-.257 1.122 0 .49.086.867.258 1.126.173.257.422.386.749.386.326 0 .575-.129.747-.386.173-.26.26-.635.26-1.126 0-.491-.088-.865-.26-1.122-.172-.259-.42-.389-.747-.389zm2.41 0c-.115 0-.24.016-.379.05-.138.032-.287.08-.445.143v.4c.156-.088.304-.153.44-.196.138-.043.268-.065.391-.065.175 0 .315.05.423.147.109.098.164.224.164.379a.639.639 0 0 1-.077.29 1.81 1.81 0 0 1-.263.358c-.066.076-.228.243-.486.505-.258.26-.463.468-.613.623v.332h1.851v-.332h-1.375l.737-.754c.174-.181.276-.292.309-.33.118-.146.2-.272.244-.378a.862.862 0 0 0 .07-.34.751.751 0 0 0-.27-.605c-.18-.151-.42-.227-.722-.227zm-5.088.054l-.697.14v.36l.7-.142v2.222h-.644v.332h1.679v-.332h-.644v-2.58zm2.678.258c.204 0 .357.1.458.3.103.2.155.499.155.9 0 .399-.052.7-.155.9-.101.2-.254.3-.458.3-.203 0-.356-.1-.458-.3-.102-.2-.152-.501-.152-.9 0-.401.05-.7.152-.9.102-.2.255-.3.458-.3zm-12.098 19.47v1.32h6.591v-1.32zM41.83 94.4v5.273h1.318V94.4zm38.11 0v5.273h1.319V94.4zm-34.915 1.914v1.318H78.13v-1.318zm17.113 3.866c-.115 0-.241.016-.379.05-.138.032-.287.08-.445.144v.399c.156-.087.303-.153.44-.196.138-.043.268-.064.391-.064.174 0 .317.049.425.146.11.098.162.224.162.379a.631.631 0 0 1-.074.29c-.05.098-.14.217-.266.359-.066.075-.227.245-.486.507-.258.26-.46.465-.61.62v.332h1.848v-.332H61.77l.737-.754c.174-.18.279-.29.311-.327.119-.146.2-.272.245-.379a.873.873 0 0 0 .067-.342.75.75 0 0 0-.268-.605c-.18-.151-.422-.227-.724-.227zm-2.544.054l-.695.14v.36l.7-.141v2.221h-.644v.332h1.676v-.332h-.643v-2.58zm4.384 0v1.463c.11-.05.216-.085.32-.108.105-.024.21-.036.316-.036.225 0 .402.059.533.177a.616.616 0 0 1 .198.482.616.616 0 0 1-.198.481c-.131.118-.308.178-.533.178a1.549 1.549 0 0 1-.76-.188v.396c.136.042.266.072.392.093.128.021.254.03.376.03.355 0 .629-.086.824-.26.195-.173.293-.417.293-.73 0-.305-.096-.546-.285-.724-.19-.178-.448-.268-.773-.268a.905.905 0 0 0-.17.016.912.912 0 0 0-.172.044v-.713h1.187v-.332z" color="#000" font-weight="400" font-family="sans-serif" white-space="normal" overflow="visible" fill="#83a9e5" fill-rule="evenodd" stroke-width="1.318"/></svg>