<svg xmlns:osb="http://www.openswatchbook.org/uri/2009/osb" xmlns="http://www.w3.org/2000/svg" xmlns:xlink="http://www.w3.org/1999/xlink" height="128" viewBox="0 0 128 128" width="128"><title>Template icons dark</title><defs><linearGradient id="l"><stop offset="0" stop-color="#fe7dee"/><stop offset="1" stop-color="#5390fe"/></linearGradient><linearGradient id="g" osb:paint="solid"><stop offset="0" stop-opacity=".196"/></linearGradient><linearGradient id="f" osb:paint="solid"><stop offset="0" stop-color="#fff" stop-opacity=".782"/></linearGradient><linearGradient id="e" osb:paint="solid"><stop offset="0" stop-opacity=".018"/></linearGradient><linearGradient id="d" osb:paint="solid"><stop offset="0" stop-opacity=".157"/></linearGradient><linearGradient id="b"><stop offset="0" stop-color="#fff"/><stop offset="1" stop-color="#dfdfdf"/></linearGradient><linearGradient id="a"><stop offset="0" stop-color="#f0f0f0"/><stop offset="1" stop-color="#fff"/></linearGradient><linearGradient id="c"><stop offset="0" stop-opacity="0"/><stop offset="1" stop-opacity=".022"/></linearGradient><linearGradient gradientTransform="translate(58.667 56.167) scale(1.33333)" xlink:href="#e" id="m" x1="125" y1="161.5" x2="195" y2="161.5" gradientUnits="userSpaceOnUse"/><linearGradient gradientTransform="translate(58.667 56.167) scale(1.33333)" xlink:href="#d" id="n" x1="126" y1="161.5" x2="194" y2="161.5" gradientUnits="userSpaceOnUse"/><linearGradient xlink:href="#a" id="o" gradientUnits="userSpaceOnUse" gradientTransform="matrix(2.92579 0 0 2.9282 201.838 201.731)" x1="24.117" y1="4.931" x2="24.058" y2="42.556"/><linearGradient gradientTransform="translate(58.667 56.167) scale(1.33333)" xlink:href="#f" id="p" x1="127" y1="120.5" x2="169" y2="120.5" gradientUnits="userSpaceOnUse"/><linearGradient gradientTransform="translate(58.667 56.167) scale(1.33333)" xlink:href="#g" id="r" x1="166" y1="133.472" x2="193" y2="133.472" gradientUnits="userSpaceOnUse"/><linearGradient xlink:href="#b" id="s" gradientUnits="userSpaceOnUse" gradientTransform="matrix(3.34375 0 0 2.9282 188.009 201.41)" x1="33.094" y1="10.504" x2="29.904" y2="14.147"/><linearGradient id="k"><stop offset="0" stop-color="#f598f8"/><stop offset="1" stop-color="#398bef"/></linearGradient><linearGradient id="h"><stop offset="0" stop-color="#d7d7d7" stop-opacity=".231"/><stop offset=".146" stop-opacity=".199"/><stop offset=".456" stop-color="#fff" stop-opacity=".251"/><stop offset=".66" stop-opacity=".131"/><stop offset=".834" stop-color="#a2a2a2" stop-opacity=".161"/><stop offset="1" stop-opacity=".152"/></linearGradient><linearGradient id="i"><stop offset="0" stop-color="#d7d7d7" stop-opacity=".231"/><stop offset=".231" stop-opacity=".11"/><stop offset=".472" stop-color="#fff" stop-opacity=".147"/><stop offset=".717" stop-opacity=".131"/><stop offset=".834" stop-color="#a2a2a2" stop-opacity=".161"/><stop offset="1" stop-opacity=".152"/></linearGradient><linearGradient id="j"><stop offset="0" stop-color="#d7d7d7" stop-opacity=".231"/><stop offset=".146" stop-opacity=".257"/><stop offset=".456" stop-color="#fff" stop-opacity=".251"/><stop offset=".66" stop-opacity=".131"/><stop offset=".834" stop-color="#a2a2a2" stop-opacity=".161"/><stop offset="1" stop-opacity=".152"/></linearGradient><linearGradient xlink:href="#h" id="t" gradientUnits="userSpaceOnUse" gradientTransform="matrix(1.1569 0 0 1.1569 -19.927 -18.829)" x1="142.626" y1="120.944" x2="127.746" y2="132.839"/><linearGradient xlink:href="#i" id="u" gradientUnits="userSpaceOnUse" gradientTransform="matrix(0 -1.1569 1.1569 0 -11.829 349.927)" x1="137.107" y1="127.59" x2="127" y2="120"/><linearGradient xlink:href="#j" id="v" gradientUnits="userSpaceOnUse" gradientTransform="matrix(-1.1569 0 0 -1.1569 339.927 341.829)" x1="139.48" y1="120.419" x2="128.375" y2="135.042"/><linearGradient xlink:href="#k" id="q" x1="23.375" y1="41.2" x2="23.566" y2="13.14" gradientUnits="userSpaceOnUse" gradientTransform="matrix(1.69448 0 0 3.19739 231.328 181.675)"/></defs><path d="M226 214h58l34 34v81h-92z" style="isolation:auto;mix-blend-mode:normal;marker:none" color="#000" overflow="visible" fill="url(#m)" stroke-width="1.172" paint-order="fill markers stroke" transform="translate(-208 -208)"/><path style="isolation:auto;mix-blend-mode:normal;marker:none" d="M227 215h57l33 33v80h-90z" color="#000" overflow="visible" fill="url(#n)" stroke-width="1.136" paint-order="fill markers stroke" transform="translate(-208 -208)"/><path d="M228 216h56l32 32v79h-88V216z" style="isolation:auto;mix-blend-mode:normal;marker:none" color="#000" overflow="visible" fill="url(#o)" stroke-width="1.105" paint-order="fill markers stroke" transform="translate(-208 -208)"/><path style="isolation:auto;mix-blend-mode:normal;marker:none" d="M228 216h56v1h-56z" color="#000" display="block" overflow="visible" fill="url(#p)" stroke-width=".267" paint-order="fill markers stroke" transform="translate(-208 -208)"/><path style="isolation:auto;mix-blend-mode:normal;marker:none" d="M236 223.969h53.577l18.415 18.219v76.806H236z" color="#000" overflow="visible" fill="url(#q)" stroke-width="2.137" transform="translate(-208 -208)"/><path style="isolation:auto;mix-blend-mode:normal;marker:none" d="M56.804 23.9l.47 1.426-1.427-.04 1.399.282-.747 1.294.924-1.145.685 1.334-.47-1.426 1.426.04-1.398-.282.747-1.294-.924 1.145zm15.962 1l.47 1.422-1.427-.035 1.394.277-.742 1.299.924-1.15.684 1.334-.47-1.426 1.427.04-1.398-.277.746-1.299-.928 1.15zm15.677 1.997l.47 1.426-1.427-.04 1.398.281-.746 1.295.928-1.145.68 1.333-.47-1.426 1.427.035-1.394-.276.742-1.294-.923 1.145zm8.636.299l.475 1.426-1.427-.04 1.394.28-.747 1.295.928-1.145.68 1.334-.47-1.426 1.428.04-1.394-.281.742-1.295-.924 1.145zm-64.213 1.11l1.336 4.045-4.05-.105 3.964.79L32 36.715l2.627-3.255 1.939 3.787-1.34-4.05 4.053.11-3.963-.79 2.116-3.682-2.628 3.256zm19.9 2.983l.475 1.426-1.427-.035 1.394.277-.747 1.294.928-1.145.68 1.334-.47-1.426 1.428.04-1.394-.282.742-1.294-.924 1.145zm17.9 2.62l-9.597 9.644c-3.081 1.978-.856 3.11.445.294l9.284-9.79zm.615 5.124l-9.598 9.644c-2.769 2.94-.632 2.311.446.294l9.284-9.788z" color="#000" display="block" overflow="visible" fill="#fff" fill-opacity=".435" stroke-width="1.292"/><path d="M284 216l32 32-36 4z" fill="url(#r)" fill-rule="evenodd" stroke-width="2.927" transform="translate(-208 -208)"/><path d="M284 216l32 32h-32z" fill="url(#s)" fill-rule="evenodd" stroke-width="3.129" transform="translate(-208 -208)"/><g color="#000" fill="#fff" stroke-width=".516" stroke-opacity=".168"><path style="isolation:auto;mix-blend-mode:normal;marker:none" d="M47.999 72.702l47.997 38.295H28V95.395z" overflow="visible" fill-opacity=".414" paint-order="markers stroke fill"/><path d="M79.997 67.029l19.999 17.02v26.948H37.333z" style="isolation:auto;mix-blend-mode:normal;marker:none" overflow="visible" paint-order="markers stroke fill"/></g><g opacity=".452" color="#000"><path style="isolation:auto;mix-blend-mode:normal;marker:none" d="M20.005 35.993L48.003 7.995h1.333L20.005 37.327z" display="block" overflow="visible" fill-opacity=".304" stroke-width="1.108" paint-order="fill markers stroke"/><path d="M127 120h21l-21 21z" style="isolation:auto;mix-blend-mode:normal;marker:none" display="block" overflow="visible" fill="url(#t)" stroke-width="1.032" paint-order="fill markers stroke" transform="matrix(1.33327 0 0 1.33327 -149.32 -151.997)"/><path d="M48.003 118.993L20.005 90.995v-1.333l29.331 29.331z" style="isolation:auto;mix-blend-mode:normal;marker:none" display="block" overflow="visible" fill-opacity=".304" stroke-width="1.108" paint-order="fill markers stroke"/><path style="isolation:auto;mix-blend-mode:normal;marker:none" d="M127 203.253v-21l21 21z" display="block" overflow="visible" fill="url(#u)" stroke-width="1.032" paint-order="fill markers stroke" transform="matrix(1.33327 0 0 1.33327 -149.32 -151.997)"/><path style="isolation:auto;mix-blend-mode:normal;marker:none" d="M108 90.995l-27.999 27.998h-1.333L108 89.662z" display="block" overflow="visible" fill-opacity=".304" stroke-width="1.108" paint-order="fill markers stroke"/><path d="M193 203.253h-21l21-21z" style="isolation:auto;mix-blend-mode:normal;marker:none" display="block" overflow="visible" fill="url(#v)" stroke-width="1.032" paint-order="fill markers stroke" transform="matrix(1.33327 0 0 1.33327 -149.32 -151.997)"/></g></svg>