<svg xmlns:osb="http://www.openswatchbook.org/uri/2009/osb" xmlns="http://www.w3.org/2000/svg" xmlns:xlink="http://www.w3.org/1999/xlink" height="128" viewBox="0 0 128 128" width="128"><title>Template icons dark</title><defs><linearGradient id="g" osb:paint="solid"><stop offset="0" stop-opacity=".196"/></linearGradient><linearGradient id="f" osb:paint="solid"><stop offset="0" stop-color="#fff" stop-opacity=".052"/></linearGradient><linearGradient id="e" osb:paint="solid"><stop offset="0" stop-opacity=".009"/></linearGradient><linearGradient id="d" osb:paint="solid"><stop offset="0" stop-opacity=".022"/></linearGradient><linearGradient id="b"><stop offset="0" stop-color="#525764"/><stop offset="1" stop-color="#464c57"/></linearGradient><linearGradient id="a"><stop offset="0" stop-color="#494f5a"/><stop offset="1" stop-color="#494e5a"/></linearGradient><linearGradient id="c"><stop offset="0" stop-opacity="0"/><stop offset="1" stop-opacity=".102"/></linearGradient><linearGradient gradientTransform="translate(58.667 56.167) scale(1.33333)" xlink:href="#e" id="h" x1="125" y1="161.5" x2="195" y2="161.5" gradientUnits="userSpaceOnUse"/><linearGradient gradientTransform="translate(58.667 56.167) scale(1.33333)" xlink:href="#d" id="i" x1="126" y1="161.5" x2="194" y2="161.5" gradientUnits="userSpaceOnUse"/><linearGradient xlink:href="#a" id="j" gradientUnits="userSpaceOnUse" gradientTransform="matrix(2.92579 0 0 2.9282 201.838 201.731)" x1="24.117" y1="4.931" x2="24.058" y2="42.556"/><linearGradient xlink:href="#c" id="k" gradientUnits="userSpaceOnUse" gradientTransform="matrix(2.92579 0 0 2.9282 201.838 201.731)" x1="23.981" y1="23.144" x2="45.855" y2="45"/><linearGradient xlink:href="#c" id="l" gradientUnits="userSpaceOnUse" gradientTransform="matrix(2.92579 0 0 2.9282 201.838 201.731)" x1="23.981" y1="23.144" x2="2.106" y2="45"/><linearGradient xlink:href="#c" id="m" gradientUnits="userSpaceOnUse" gradientTransform="matrix(2.92579 0 0 2.9282 201.838 201.731)" x1="23.981" y1="23.144" x2="45.855" y2="1.287"/><linearGradient xlink:href="#c" id="n" gradientUnits="userSpaceOnUse" gradientTransform="matrix(2.92579 0 0 2.9282 201.838 201.731)" x1="23.981" y1="23.144" x2="2.106" y2="1.287"/><linearGradient gradientTransform="translate(58.667 56.167) scale(1.33333)" xlink:href="#f" id="o" x1="127" y1="120.5" x2="169" y2="120.5" gradientUnits="userSpaceOnUse"/><linearGradient gradientTransform="translate(58.667 56.167) scale(1.33333)" xlink:href="#g" id="p" x1="166" y1="133.472" x2="193" y2="133.472" gradientUnits="userSpaceOnUse"/><linearGradient xlink:href="#b" id="q" gradientUnits="userSpaceOnUse" gradientTransform="matrix(3.34375 0 0 2.9282 188.009 201.41)" x1="33.094" y1="10.504" x2="29.904" y2="14.147"/></defs><g transform="translate(-208 -208)"><path d="M226 214h58l34 34v81h-92z" style="isolation:auto;mix-blend-mode:normal;marker:none" color="#000" overflow="visible" fill="url(#h)" stroke-width="1.172" paint-order="fill markers stroke"/><path style="isolation:auto;mix-blend-mode:normal;marker:none" d="M227 215h57l33 33v80h-90z" color="#000" overflow="visible" fill="url(#i)" stroke-width="1.136" paint-order="fill markers stroke"/><path d="M228 216h56l32 32v79h-88V216z" style="isolation:auto;mix-blend-mode:normal;marker:none" color="#000" overflow="visible" fill="url(#j)" stroke-width="1.105" paint-order="fill markers stroke"/><path style="isolation:auto;mix-blend-mode:normal;marker:none" d="M228 216h56l32 32v79h-88z" color="#000" overflow="visible" fill="url(#k)" stroke-width="1.105" paint-order="fill markers stroke"/><path d="M228 216h56l32 32v79h-88z" style="isolation:auto;mix-blend-mode:normal;marker:none" color="#000" overflow="visible" fill="url(#l)" stroke-width="1.105" paint-order="fill markers stroke"/><path style="isolation:auto;mix-blend-mode:normal;marker:none" d="M228 216h56l32 32v79h-88z" color="#000" overflow="visible" fill="url(#m)" stroke-width="1.105" paint-order="fill markers stroke"/><path d="M228 216h56l32 32v79h-88z" style="isolation:auto;mix-blend-mode:normal;marker:none" color="#000" overflow="visible" fill="url(#n)" stroke-width="1.105" paint-order="fill markers stroke"/><path style="isolation:auto;mix-blend-mode:normal;marker:none" d="M228 216h56v1h-56z" color="#000" display="block" overflow="visible" fill="url(#o)" stroke-width=".267" paint-order="fill markers stroke"/><path d="M284 216l32 32-36 4z" fill="url(#p)" fill-rule="evenodd" stroke-width="2.927"/><path d="M284 216l32 32h-32z" fill="url(#q)" fill-rule="evenodd" stroke-width="3.129"/><rect y="216" x="228" height="111" width="13" style="line-height:120.00000477%;isolation:auto;mix-blend-mode:normal;marker:none" ry="0" color="#000" font-size="2.667" font-family="sans-serif" letter-spacing="0" word-spacing="0" overflow="visible" fill="#121823" fill-opacity=".11" stroke-width=".854" paint-order="fill markers stroke"/><text style="line-height:162.99999952%;text-align:end" x="237.962" y="239.168" font-size="5.35" font-family="sans-serif" letter-spacing="0" word-spacing="0" text-anchor="end" fill="#fff" fill-opacity=".966" stroke-width=".669"><tspan x="237.962" y="239.168" style="line-height:162.99999952%;-inkscape-font-specification:sans-serif;text-align:end" font-weight="400">1.</tspan> <tspan x="237.962" y="247.889" style="line-height:162.99999952%;-inkscape-font-specification:sans-serif;text-align:end" font-weight="400">2.</tspan> <tspan x="237.962" y="256.609" style="line-height:162.99999952%;-inkscape-font-specification:sans-serif;text-align:end" font-weight="400">3.</tspan> <tspan x="237.962" y="265.33" style="line-height:162.99999952%;-inkscape-font-specification:sans-serif;text-align:end" font-weight="400">4.</tspan> <tspan x="237.962" y="274.05" style="line-height:162.99999952%;-inkscape-font-specification:sans-serif;text-align:end" font-weight="400">5.</tspan> <tspan x="237.962" y="282.771" style="line-height:162.99999952%;-inkscape-font-specification:sans-serif;text-align:end" font-weight="400">6.</tspan> <tspan x="237.962" y="291.491" style="line-height:162.99999952%;-inkscape-font-specification:sans-serif;text-align:end" font-weight="400">7.</tspan> <tspan x="237.962" y="300.212" style="line-height:162.99999952%;-inkscape-font-specification:sans-serif;text-align:end" font-weight="400">8.</tspan> <tspan x="237.962" y="308.932" style="line-height:162.99999952%;-inkscape-font-specification:sans-serif;text-align:end" font-weight="400">9.</tspan></text><g style="line-height:120.00000477%" font-size="2.667" font-family="sans-serif" letter-spacing="0" word-spacing="0" fill="#344f67" fill-opacity=".89" stroke-width="1.251"><path style="line-height:120.00000477%" d="M246.858 237.264l-2.792 1.014v.36l2.792 1.014v-.397l-2.249-.794 2.25-.8zm25.862 7.367v1.21h.371v-1.21zm.823 0v1.21h.37v-1.21zm-26.685.66l-2.792 1.014v.36l2.792 1.014v-.397l-2.249-.794 2.25-.8zm22.168.568v.365h2.793v-.365zm0 .888v.37h2.793v-.37zm-22.168 6.572l-2.792 1.014v.36l2.792 1.014v-.397l-2.249-.794 2.25-.8zm12.087 0v.397l2.244.8-2.244.794v.397l2.793-1.014v-.36zm25.972 7.37v1.207h.37v-1.207zm.823 0v1.207h.37v-1.207zm14.25 0v1.207h.37v-1.207zm.823 0v1.207h.37v-1.207zm-50.217.658l-2.792 1.014v.36l2.792 1.014v-.397l-2.249-.795 2.25-.799zm51.494 0v.397l2.242.8-2.242.794v.397l2.793-1.014v-.36zm-20.867.567v.366h2.793v-.366zm0 .888v.371h2.793v-.37zm10.295 5.914l-1.13 3.665h.367l1.134-3.665zm-40.922.659l-2.792 1.013v.36l2.792 1.014v-.397l-2.249-.794 2.25-.8zm9.666 0v.397l2.244.8-2.244.793v.397l2.793-1.013v-.36zm29.652 0l-2.792 1.013v.36l2.792 1.014v-.397l-2.249-.794 2.25-.8zm11.173 0v.397l2.244.8-2.244.793v.397l2.793-1.013v-.36zm-52.625 7.369l-1.13 3.665h.367l1.134-3.665zm-1.604.658l-2.792 1.014v.36l2.792 1.014v-.397l-2.249-.794 2.25-.8zm13.595 0v.397l2.244.8-2.244.794v.397l2.792-1.014v-.36zm-13.595 8.028l-2.792 1.013v.364l2.792 1.01v-.394l-2.249-.797 2.25-.8zm11.975 0v.397l2.244.8-2.244.796v.395l2.793-1.011v-.364zm-10.37 10.047l-1.132 3.665h.368l1.134-3.665zm-1.605.66l-2.792 1.012v.363l2.792 1.01v-.394l-2.249-.796 2.25-.8zm13.482 0v.395l2.244.8-2.244.796v.395l2.793-1.011v-.363zm-11.878 7.367l-1.13 3.665h.367l1.134-3.665zm-1.604.661l-2.792 1.011v.363l2.792 1.014v-.397l-2.249-.797 2.25-.8zm12.62 0v.395l2.242.8-2.242.796v.397l2.793-1.014v-.363z" fill="#c3f7fe"/><path style="line-height:120.00000477%" d="M254.306 236.546c-.457 0-.823.153-1.097.46-.273.304-.41.713-.41 1.227 0 .514.137.923.41 1.228.274.305.64.457 1.097.457.456 0 .822-.152 1.095-.457.273-.306.41-.715.41-1.228 0-.514-.137-.923-.41-1.227-.273-.307-.64-.46-1.095-.46zm3.592 0c-.492 0-.88.15-1.163.452-.283.3-.425.713-.425 1.235 0 .522.142.934.425 1.236.284.3.67.45 1.163.45a1.786 1.786 0 0 0 1.034-.313v-.461a1.56 1.56 0 0 1-.475.31 1.393 1.393 0 0 1-.533.103c-.372 0-.657-.113-.854-.34-.198-.228-.295-.556-.295-.985 0-.43.097-.758.295-.984.197-.228.482-.343.854-.343.189 0 .366.034.533.102.168.068.327.173.475.311v-.465a1.713 1.713 0 0 0-.486-.23 1.869 1.869 0 0 0-.548-.078zm-9.896.057v1.427l.047.778h.353l.044-.778v-1.427zm1.552 0v3.253h.904c.627 0 1.088-.132 1.385-.395.296-.263.444-.675.444-1.235 0-.558-.147-.967-.442-1.228-.295-.263-.757-.395-1.387-.395zm9.61 0v.371h1.155v2.882h.445v-2.882h1.152v-.345l1.13 1.678v1.549h.442v-1.55l1.152-1.703h-.473l-.896 1.338-.9-1.338h-.455zm5.907 0v3.253h.44v-1.307h.553c.364 0 .64-.081.825-.245.188-.164.283-.408.283-.729 0-.318-.095-.56-.283-.724-.185-.165-.46-.248-.825-.248zm2.69 0v3.253h2.096v-.371h-1.654v-1.178h1.55v-.369h-1.55v-.964h1.615v-.37zm-13.455.3c.32 0 .572.118.758.356.187.238.282.563.282.974 0 .41-.095.734-.282.972a.91.91 0 0 1-.758.358.923.923 0 0 1-.763-.358c-.187-.238-.28-.562-.28-.972 0-.41.093-.736.28-.974a.921.921 0 0 1 .763-.355zm-4.313.063h.533c.449 0 .777.1.985.303.209.202.313.521.313.957 0 .438-.104.76-.313.964-.208.203-.536.305-.985.305h-.533zm15.517 0h.554c.205 0 .364.054.475.16.112.106.168.255.168.45s-.056.348-.168.454c-.111.106-.27.156-.475.156h-.554zm-17.508 2.336v.554h.445v-.554z" fill="#c382ff" fill-opacity="1"/><path style="line-height:120.00000477%" d="M271.973 236.467v3.389h.402v-1.38c0-.238.064-.426.188-.564.125-.138.296-.206.512-.206.18 0 .315.057.405.172.09.115.136.289.136.52v1.458h.4v-1.471c0-.337-.07-.593-.214-.766-.144-.174-.358-.26-.638-.26a.907.907 0 0 0-.45.109.98.98 0 0 0-.339.326v-1.327zm2.84.256v.693h-.293v.313h.293v1.325c0 .305.06.513.177.63.118.114.33.172.64.172h.413v-.335h-.413c-.167 0-.279-.03-.334-.086-.054-.057-.079-.183-.079-.381v-1.325h.826v-.313h-.826v-.693zm2.93.635a.93.93 0 0 0-.457.107.897.897 0 0 0-.326.33v-.38h-.405v2.44h.405v-1.379c0-.236.06-.423.18-.561a.613.613 0 0 1 .489-.21c.172 0 .298.057.381.17.083.112.125.288.125.523v1.458h.403v-1.38c0-.238.06-.426.18-.564a.623.623 0 0 1 .494-.206c.17 0 .296.056.379.17.082.113.122.288.122.522v1.458h.403v-1.471c0-.328-.069-.583-.207-.76-.138-.179-.333-.267-.588-.267a.918.918 0 0 0-.49.128c-.14.086-.261.22-.361.4a.782.782 0 0 0-.277-.392.74.74 0 0 0-.45-.136zm-18.406 7.137v3.388h.403v-3.388zm2.095.89c-.13 0-.267.016-.405.045a2.59 2.59 0 0 0-.425.126v.37a1.623 1.623 0 0 1 .789-.2c.219 0 .388.05.509.15.122.101.183.245.183.43v.038h-.562c-.364 0-.638.07-.823.21-.183.139-.274.344-.274.619 0 .235.073.423.22.564.148.14.345.209.595.209.197 0 .365-.035.502-.105a.882.882 0 0 0 .342-.329v.371h.4v-1.39-.002c-.001-.37-.088-.649-.262-.831-.174-.183-.436-.274-.789-.274zm3.054 0a.908.908 0 0 0-.45.11.972.972 0 0 0-.336.327v-.379h-.405v2.44h.405v-1.38c0-.237.06-.423.185-.56a.658.658 0 0 1 .512-.21c.18 0 .315.058.405.173.09.114.136.289.136.52v1.457h.4v-1.47c0-.337-.07-.593-.214-.766-.144-.174-.358-.261-.638-.261zm2.48 0c-.3 0-.541.115-.724.343-.183.228-.275.532-.275.91 0 .375.092.675.275.903a.883.883 0 0 0 .723.342c.18 0 .336-.036.465-.107a.821.821 0 0 0 .316-.321v.198c0 .278-.065.486-.196.622-.13.138-.327.206-.59.206a1.35 1.35 0 0 1-.35-.047 1.573 1.573 0 0 1-.348-.14v.388c.118.044.239.077.364.097.125.022.258.031.4.031.38 0 .661-.1.846-.303.184-.201.277-.512.277-.927v-2.137h-.403v.371a.82.82 0 0 0-.316-.321.952.952 0 0 0-.465-.107zm.098.335c.217 0 .383.08.502.24.12.16.18.384.18.675 0 .288-.06.514-.18.673a.589.589 0 0 1-.502.24.597.597 0 0 1-.504-.24c-.119-.16-.177-.385-.177-.673 0-.29.058-.515.177-.674.12-.16.29-.24.504-.24zm-5.38.938h.399v.089c0 .261-.069.471-.204.63a.664.664 0 0 1-.533.235.564.564 0 0 1-.384-.126.435.435 0 0 1-.138-.34c0-.178.063-.304.188-.378.125-.074.347-.11.671-.11zm5.245 13.892v3.388h.402v-1.376c0-.238.063-.427.188-.565a.658.658 0 0 1 .512-.208c.18 0 .315.057.405.172.09.115.136.289.136.52v1.457h.4v-1.47c0-.337-.071-.593-.215-.766-.144-.174-.357-.26-.637-.26a.917.917 0 0 0-.452.109.982.982 0 0 0-.337.329v-1.33zm12.484.256v.695h-.293v.311h.293v1.324c0 .305.06.516.177.633.118.114.331.17.64.17h.41v-.335h-.41c-.167 0-.279-.03-.334-.086-.054-.057-.081-.183-.081-.382v-1.324h.826v-.31h-.826v-.696zm-13.874.635c-.38 0-.68.114-.899.342-.218.228-.326.54-.326.938 0 .392.107.704.324.935.216.231.507.348.875.348.135 0 .262-.014.381-.04.12-.026.236-.065.348-.117v-.371c-.114.062-.228.11-.343.141-.113.03-.226.047-.342.047-.26 0-.462-.084-.606-.248-.144-.166-.217-.397-.217-.695 0-.298.073-.528.217-.692.144-.166.346-.248.606-.248.116 0 .23.015.342.047.115.03.23.078.343.14v-.375a1.596 1.596 0 0 0-.343-.113 1.655 1.655 0 0 0-.36-.039zm5.091 0c-.13 0-.264.015-.402.044a2.59 2.59 0 0 0-.426.126v.37a1.618 1.618 0 0 1 .789-.2c.22 0 .389.05.51.151.121.1.182.244.182.429v.039h-.561c-.365 0-.641.07-.826.209-.183.14-.274.347-.274.621 0 .236.075.424.222.565.148.14.346.209.596.209.197 0 .365-.035.501-.105a.882.882 0 0 0 .342-.329v.368h.4v-1.39c0-.371-.087-.65-.261-.833-.174-.183-.439-.274-.792-.274zm3.09 0c-.193 0-.358.037-.493.11a.815.815 0 0 0-.33.329v-.379h-.402v2.437h.403v-1.285c0-.276.062-.485.183-.632.122-.148.296-.222.522-.222a.71.71 0 0 1 .172.018.528.528 0 0 1 .15.058l-.003-.413c-.041-.007-.077-.01-.11-.013-.033-.004-.064-.008-.091-.008zm1.403 0c-.299 0-.53.063-.692.188-.163.125-.243.301-.243.53 0 .19.054.338.165.447.11.108.29.188.538.24l.141.032c.248.053.408.111.48.17.075.058.11.139.11.248 0 .117-.05.211-.151.277-.102.064-.248.094-.436.094a1.66 1.66 0 0 1-.426-.055 2.226 2.226 0 0 1-.44-.175v.413c.158.05.307.09.448.114.142.027.279.04.41.04.313 0 .56-.067.739-.199a.632.632 0 0 0 .269-.538c0-.199-.06-.355-.18-.465-.12-.112-.322-.198-.606-.259l-.136-.03c-.215-.049-.36-.098-.431-.15a.26.26 0 0 1-.107-.22c0-.121.05-.213.149-.274.1-.06.25-.091.449-.091a1.558 1.558 0 0 1 .731.172v-.378a1.768 1.768 0 0 0-.36-.097 2.568 2.568 0 0 0-.42-.034zm2.574 0c-.366 0-.657.117-.873.353-.215.233-.324.551-.324.95 0 .387.113.691.34.918.228.226.538.342.927.342a2.393 2.393 0 0 0 .901-.188v-.38a1.988 1.988 0 0 1-.43.17 1.748 1.748 0 0 1-.447.058c-.266 0-.473-.073-.622-.217-.148-.145-.23-.356-.248-.632h1.841v-.196c0-.363-.095-.649-.287-.86-.19-.211-.45-.318-.778-.318zm.005.34c.197 0 .356.065.475.196.12.13.18.305.183.525l-1.426.002c.02-.23.096-.406.23-.533.135-.126.314-.19.538-.19zm-6.818.932h.4v.09c0 .26-.07.47-.204.629a.664.664 0 0 1-.533.235.562.562 0 0 1-.384-.123.435.435 0 0 1-.139-.34c0-.178.06-.304.186-.378.125-.075.35-.113.674-.113z" fill="#f7fd93"/><path style="line-height:120.00000477%" d="M247.736 244.495v3.388h.402v-1.38c0-.237.064-.423.188-.56a.658.658 0 0 1 .512-.21c.18 0 .315.058.405.173.09.114.134.289.134.52v1.457h.402v-1.47c0-.337-.073-.593-.217-.766-.144-.174-.355-.261-.635-.261a.919.919 0 0 0-.452.11.972.972 0 0 0-.337.326v-1.327zm8.945 0v3.388h.4v-3.388zm-6.105.256v.692h-.296v.314h.296v1.324c0 .305.06.514.177.63.118.115.33.172.64.172h.41v-.334h-.41c-.167 0-.279-.03-.334-.086-.054-.057-.081-.183-.081-.382v-1.324h.825v-.314h-.825v-.692zm2.928.635a.919.919 0 0 0-.455.107.911.911 0 0 0-.329.332v-.382h-.402v2.44h.402v-1.38c0-.236.063-.423.183-.56a.608.608 0 0 1 .486-.21c.173 0 .301.057.384.17.083.112.125.287.125.523v1.457h.403v-1.38c0-.237.06-.423.18-.56a.62.62 0 0 1 .491-.21c.17 0 .296.057.379.17.083.113.125.289.125.523v1.457h.402v-1.47c0-.329-.068-.584-.206-.76-.138-.18-.334-.267-.588-.267a.927.927 0 0 0-.493.128c-.14.086-.258.22-.358.4a.782.782 0 0 0-.277-.392.748.748 0 0 0-.452-.136zm-5.768 7.137v3.388h.402v-1.377c0-.238.064-.426.188-.564a.658.658 0 0 1 .512-.21c.18 0 .315.059.405.173.09.115.134.29.134.52v1.458h.402v-1.47c0-.338-.073-.594-.217-.766-.144-.175-.355-.262-.635-.262a.917.917 0 0 0-.452.11.98.98 0 0 0-.337.33v-1.33zm9.932 0v1.319a.823.823 0 0 0-.321-.321.938.938 0 0 0-.463-.108.877.877 0 0 0-.72.353c-.185.235-.275.544-.275.927 0 .384.09.693.274.928a.88.88 0 0 0 .721.355c.18 0 .335-.037.463-.107a.84.84 0 0 0 .321-.324v.366h.4v-3.388zm-6.063.89c-.366 0-.659.118-.875.353-.215.234-.322.55-.322.948 0 .387.114.693.34.92.228.226.536.34.925.34.155 0 .308-.016.46-.048.15-.031.297-.077.441-.138v-.379a1.989 1.989 0 0 1-.431.17 1.747 1.747 0 0 1-.447.055c-.265 0-.472-.07-.621-.214-.149-.146-.231-.357-.249-.633h1.842v-.195c0-.363-.096-.65-.287-.86-.19-.212-.448-.319-.776-.319zm2.578 0c-.13 0-.267.016-.405.045a2.59 2.59 0 0 0-.426.125v.371a1.623 1.623 0 0 1 .79-.201c.219 0 .388.05.509.151.122.1.183.245.183.429v.04h-.562c-.364 0-.638.069-.823.208-.183.14-.274.345-.274.62 0 .234.073.423.22.563.147.14.345.21.595.21.197 0 .365-.035.501-.105a.875.875 0 0 0 .343-.327v.369h.4v-1.39c0-.372-.088-.65-.262-.833-.174-.183-.436-.275-.789-.275zm2.8.335c.213 0 .38.085.502.253.122.167.183.398.183.692 0 .295-.06.527-.183.695a.588.588 0 0 1-.501.251.588.588 0 0 1-.502-.25c-.12-.17-.18-.4-.18-.696 0-.294.06-.525.18-.692a.587.587 0 0 1 .502-.253zm-5.376.005c.198 0 .357.065.476.196.12.13.182.306.185.525l-1.429.003c.02-.23.097-.407.23-.533a.757.757 0 0 1 .538-.19zm2.827.933h.4v.089c0 .261-.07.47-.204.63a.664.664 0 0 1-.533.234.562.562 0 0 1-.384-.123.44.44 0 0 1-.139-.342c0-.178.064-.304.189-.379.125-.074.347-.11.67-.11zm4.14 6.12v.695h-.295v.311h.295v1.325c0 .305.058.516.175.632.118.115.331.17.64.17h.413v-.335h-.413c-.166 0-.276-.03-.331-.086-.054-.057-.081-.183-.081-.381v-1.325h.825v-.31h-.825v-.696zm-5.914.635a.919.919 0 0 0-.454.107.911.911 0 0 0-.33.332v-.379h-.402v2.438h.402v-1.377c0-.237.06-.424.18-.562a.615.615 0 0 1 .49-.211c.172 0 .3.059.383.172.083.112.123.285.123.52v1.458h.402v-1.377c0-.238.06-.426.18-.564a.625.625 0 0 1 .494-.21c.17 0 .296.06.38.173.082.113.124.286.124.52v1.458h.403v-1.471c0-.328-.069-.58-.207-.758-.138-.178-.336-.269-.59-.269a.918.918 0 0 0-.491.128c-.14.086-.26.22-.36.4a.778.778 0 0 0-.275-.392.748.748 0 0 0-.452-.136zm4.198 0c-.366 0-.659.118-.875.353-.215.234-.321.551-.321.95 0 .387.113.691.34.918.227.226.535.342.924.342a2.393 2.393 0 0 0 .901-.188v-.379a1.988 1.988 0 0 1-.43.17 1.748 1.748 0 0 1-.447.057c-.266 0-.473-.073-.622-.217-.148-.145-.23-.356-.248-.632h1.841v-.196c0-.363-.095-.649-.287-.86-.19-.211-.448-.318-.776-.318zm4.329 0c-.13 0-.265.016-.403.045a2.617 2.617 0 0 0-.428.125v.37a1.618 1.618 0 0 1 .789-.2c.22 0 .389.05.51.151.121.1.182.244.182.429v.039h-.561c-.365 0-.639.07-.823.209-.183.14-.275.347-.275.622 0 .235.073.423.22.564.148.14.348.209.598.209.198 0 .365-.035.502-.105a.876.876 0 0 0 .34-.329v.369h.402v-1.39c0-.372-.087-.65-.262-.834-.174-.183-.438-.274-.791-.274zm-4.326.34c.197 0 .356.065.475.196.12.13.182.306.186.525l-1.43.002c.021-.229.097-.406.23-.532.136-.127.315-.191.539-.191zm4.58.932h.396v.09c0 .26-.066.47-.2.629a.664.664 0 0 1-.534.235.562.562 0 0 1-.384-.123.435.435 0 0 1-.138-.34c0-.178.06-.304.185-.378.125-.074.35-.113.674-.113zm-8.2 5.865v.507h.399v-.507zm2.988 0v3.388h.4v-3.388zm37.836 0v.507h.4v-.507zm2.989 0v3.388h.4v-3.388zm-45.572.259v.692h-.295v.31h.295v1.325c0 .305.057.516.175.632.118.115.333.17.643.17h.41v-.334h-.41c-.167 0-.28-.027-.335-.084-.053-.056-.08-.185-.08-.384v-1.324h.825v-.311h-.826v-.692zm2.989 0v.692h-.296v.31h.296v1.325c0 .305.057.516.175.632.117.115.33.17.64.17h.412v-.334h-.412c-.167 0-.277-.027-.332-.084-.054-.056-.081-.185-.081-.384v-1.324h.825v-.311h-.825v-.692zm37.836 0v.692h-.292v.31h.292v1.325c0 .305.06.516.178.632.117.115.33.17.64.17h.41v-.334h-.41c-.167 0-.28-.027-.335-.084-.053-.056-.08-.185-.08-.384v-1.324h.825v-.311h-.825v-.692zm2.989 0v.692h-.293v.31h.293v1.325c0 .305.06.516.177.632.118.115.331.17.64.17h.41v-.334h-.41c-.167 0-.279-.027-.334-.084-.054-.056-.081-.185-.081-.384v-1.324h.825v-.311h-.825v-.692zm-36.81.632c-.366 0-.657.117-.873.352-.215.234-.321.552-.321.951 0 .387.113.693.34.92.227.226.535.34.924.34a2.392 2.392 0 0 0 .901-.188v-.38a1.988 1.988 0 0 1-.43.17 1.748 1.748 0 0 1-.447.058c-.266 0-.473-.073-.622-.217-.148-.145-.23-.356-.248-.632h1.841v-.196c0-.363-.095-.649-.287-.86-.19-.211-.45-.318-.778-.318zm40.827 0c-.366 0-.658.117-.875.352-.215.234-.321.552-.321.951 0 .387.113.693.34.92.227.226.535.34.924.34a2.393 2.393 0 0 0 .901-.188v-.38a1.988 1.988 0 0 1-.43.17 1.748 1.748 0 0 1-.447.058c-.266 0-.472-.073-.622-.217-.148-.145-.23-.356-.248-.632h1.842v-.196c0-.363-.096-.649-.288-.86-.19-.211-.447-.318-.776-.318zm-46.073.06v2.437h.4v-2.437zm40.825 0v2.437h.4v-2.437zm-35.574.28c.197 0 .356.065.475.195.12.131.182.306.186.525l-1.43.003c.021-.23.097-.407.23-.533a.757.757 0 0 1 .539-.19zm40.825 0c.197 0 .356.065.475.195.12.131.183.306.186.525l-1.429.003c.02-.23.096-.407.23-.533a.757.757 0 0 1 .538-.19zm-50.073 6.797v3.39h.403v-1.379c0-.238.063-.426.188-.564.125-.138.295-.207.512-.207.18 0 .315.058.405.173.09.115.133.286.133.517v1.46h.402v-1.473c0-.337-.073-.593-.217-.765-.143-.175-.354-.262-.635-.262a.917.917 0 0 0-.451.11.98.98 0 0 0-.337.33v-1.33zm9.932 0v1.319a.823.823 0 0 0-.321-.322.938.938 0 0 0-.462-.107.877.877 0 0 0-.721.353c-.185.235-.275.544-.275.927 0 .384.09.695.275.93a.877.877 0 0 0 .72.353c.18 0 .335-.035.463-.104a.847.847 0 0 0 .321-.327v.368h.4v-3.39zm-6.063.89c-.366 0-.659.118-.875.353-.215.234-.321.552-.321.95 0 .387.113.694.34.92.227.227.535.34.924.34a2.383 2.383 0 0 0 .901-.188v-.379a1.989 1.989 0 0 1-.43.17 1.748 1.748 0 0 1-.447.058c-.266 0-.473-.073-.622-.217-.148-.145-.23-.357-.248-.632h1.841v-.196c0-.363-.095-.65-.287-.86-.19-.212-.448-.319-.776-.319zm2.578 0c-.13 0-.266.016-.404.045a2.59 2.59 0 0 0-.426.125v.371a1.623 1.623 0 0 1 .789-.201c.219 0 .389.053.51.154.121.1.182.241.182.426v.04h-.562c-.364 0-.638.069-.823.208-.183.14-.274.347-.274.622 0 .235.073.423.22.564.148.14.345.209.595.209.198 0 .365-.035.502-.104a.882.882 0 0 0 .342-.33v.371h.4v-1.392c0-.372-.087-.65-.262-.833-.174-.183-.436-.275-.789-.275zm2.8.337c.213 0 .38.083.502.251.122.167.183.398.183.692 0 .295-.06.527-.183.695a.588.588 0 0 1-.501.251.588.588 0 0 1-.502-.25c-.12-.17-.18-.4-.18-.696 0-.294.06-.525.18-.692a.585.585 0 0 1 .502-.25zm-5.375.003c.197 0 .356.065.475.196.12.13.182.306.186.525l-1.43.003c.021-.23.097-.407.23-.533a.757.757 0 0 1 .539-.19zm2.826.933h.4v.088c0 .262-.069.472-.204.63a.664.664 0 0 1-.533.235.562.562 0 0 1-.384-.123.435.435 0 0 1-.138-.34c0-.178.063-.304.188-.378.125-.074.347-.112.671-.112zm-8.205 5.864v3.391h.402v-.366c.085.146.191.253.319.324.13.07.284.105.462.105a.869.869 0 0 0 .719-.353c.186-.235.28-.544.28-.927 0-.384-.094-.695-.28-.93a.869.869 0 0 0-.719-.353.946.946 0 0 0-.462.107.833.833 0 0 0-.319.324v-1.322zm7.179 0v1.322a.83.83 0 0 0-.322-.324.928.928 0 0 0-.46-.107.877.877 0 0 0-.72.353c-.185.235-.277.546-.277.93 0 .383.092.692.277.927a.877.877 0 0 0 .72.353c.18 0 .333-.035.46-.105a.84.84 0 0 0 .322-.324v.366h.4v-3.39zm-3.389.891c-.35 0-.623.113-.822.34-.198.226-.296.542-.296.943 0 .399.098.712.296.94.199.227.473.34.822.34s.624-.113.823-.34c.2-.228.298-.541.298-.94 0-.401-.099-.717-.298-.943-.199-.227-.474-.34-.823-.34zm4.326.06l.988 2.4-.073.184c-.074.194-.14.316-.201.368a.38.38 0 0 1-.256.078h-.238v.337h.321c.18 0 .324-.044.431-.133.108-.088.219-.279.332-.57l1.071-2.664h-.426l-.76 1.907-.763-1.907zm-7.032.277c.212 0 .379.082.499.25.122.168.183.4.183.696 0 .294-.06.526-.183.695a.58.58 0 0 1-.499.248.586.586 0 0 1-.501-.248c-.121-.169-.18-.4-.18-.695 0-.295.06-.528.18-.695a.585.585 0 0 1 .501-.251zm5.41 0c.212 0 .38.082.502.25.122.168.183.4.183.696 0 .294-.061.526-.183.695a.586.586 0 0 1-.502.248.586.586 0 0 1-.501-.248c-.12-.169-.18-.4-.18-.695 0-.295.059-.528.18-.695a.585.585 0 0 1 .501-.251zm-2.704.003c.214 0 .385.086.51.256.125.168.185.398.185.687 0 .29-.06.518-.185.687a.603.603 0 0 1-.51.253.605.605 0 0 1-.512-.25c-.123-.169-.182-.398-.182-.69 0-.292.06-.523.185-.69a.601.601 0 0 1 .51-.253zm-2.283 9.475v3.39h.403v-.365c.084.145.19.252.318.324.13.07.281.104.46.104a.873.873 0 0 0 .721-.353c.186-.235.28-.544.28-.927s-.094-.692-.28-.927a.876.876 0 0 0-.72-.356.935.935 0 0 0-.46.107.833.833 0 0 0-.32.324v-1.321zm7.179 0v1.321a.83.83 0 0 0-.321-.324.928.928 0 0 0-.46-.107.88.88 0 0 0-.721.356c-.185.235-.277.544-.277.927s.092.692.277.927a.877.877 0 0 0 .72.353c.18 0 .333-.035.46-.104a.84.84 0 0 0 .322-.324v.365h.4v-3.39zm-3.388.89c-.35 0-.624.116-.823.343-.198.226-.295.54-.295.94 0 .4.097.712.295.94.199.227.473.34.823.34.348 0 .624-.113.823-.34.199-.228.297-.54.297-.94 0-.4-.098-.714-.297-.94-.2-.227-.475-.343-.823-.343zm4.326.06l.987 2.401-.073.183c-.074.195-.14.319-.201.37a.387.387 0 0 1-.259.08h-.235v.334h.321c.18 0 .324-.045.431-.134.108-.088.219-.276.332-.566l1.071-2.668h-.426l-.76 1.907-.762-1.907zm-7.033.277a.58.58 0 0 1 .5.254c.121.167.182.397.182.692 0 .295-.06.526-.183.695a.582.582 0 0 1-.499.25.588.588 0 0 1-.501-.25c-.12-.169-.18-.4-.18-.695 0-.295.06-.525.18-.692a.587.587 0 0 1 .501-.254zm5.41 0c.212 0 .38.085.502.254.122.167.183.397.183.692 0 .295-.06.526-.183.695a.588.588 0 0 1-.502.25.588.588 0 0 1-.501-.25c-.12-.169-.18-.4-.18-.695 0-.295.06-.525.18-.692a.587.587 0 0 1 .501-.254zm-2.703.006a.6.6 0 0 1 .51.253c.124.168.185.398.185.687 0 .29-.061.519-.186.687a.603.603 0 0 1-.51.254.605.605 0 0 1-.511-.251c-.124-.169-.183-.398-.183-.69 0-.292.06-.523.185-.69a.599.599 0 0 1 .51-.25zm-3.79 6.797v3.388h.402v-1.38c0-.237.063-.426.188-.564.125-.137.295-.206.512-.206.18 0 .315.058.405.173.09.114.133.286.133.517v1.46h.402v-1.473c0-.337-.073-.59-.217-.763-.143-.174-.354-.261-.635-.261a.916.916 0 0 0-.451.107.98.98 0 0 0-.337.329v-1.327zm8.944 0v3.388h.4v-3.388zm-6.105.256v.692h-.295v.311h.295v1.324c0 .305.06.516.178.633.117.114.33.172.64.172h.41v-.334h-.41c-.167 0-.28-.03-.335-.086-.054-.057-.08-.186-.08-.384v-1.325h.825v-.31h-.826v-.693zm2.928.635a.918.918 0 0 0-.454.104.91.91 0 0 0-.33.332v-.379h-.402v2.44h.403v-1.38c0-.236.06-.423.18-.56a.613.613 0 0 1 .488-.21c.173 0 .302.057.384.17.083.112.126.284.126.52v1.46h.402v-1.38c0-.237.06-.426.18-.564a.617.617 0 0 1 .491-.206c.17 0 .296.057.38.17.082.113.124.286.124.52v1.46h.403v-1.473c0-.329-.069-.58-.207-.758-.138-.179-.333-.266-.587-.266a.927.927 0 0 0-.494.128c-.14.085-.258.217-.358.397a.782.782 0 0 0-.277-.392.747.747 0 0 0-.452-.133z" fill="#66efff" fill-opacity="1"/><path style="line-height:120.00000477%" d="M275.79 245.386c-.366 0-.66.117-.876.352-.214.234-.32.55-.32.949 0 .386.112.693.339.92.228.226.535.339.924.339.156 0 .31-.015.46-.047.151-.032.3-.078.444-.139v-.378a1.988 1.988 0 0 1-.43.17 1.747 1.747 0 0 1-.447.054c-.266 0-.475-.07-.625-.214-.148-.145-.23-.356-.248-.632h1.844v-.196c0-.363-.098-.649-.29-.86-.19-.212-.447-.318-.775-.318zm2.9 0a.919.919 0 0 0-.453.11.972.972 0 0 0-.337.326v-.379h-.405v2.44h.405v-1.38c0-.237.06-.423.186-.56a.658.658 0 0 1 .512-.21c.18 0 .315.058.405.173.09.114.136.289.136.52v1.457h.402v-1.47c0-.337-.073-.593-.217-.766-.144-.174-.355-.261-.635-.261zm-2.898.34c.198 0 .357.065.476.195.12.131.182.306.185.525l-1.429.003c.02-.23.099-.406.233-.533a.75.75 0 0 1 .535-.19zm22.346 14.903c-.323 0-.577.076-.763.227a.755.755 0 0 0-.277.616c0 .186.052.344.157.473.106.13.255.218.444.264a.877.877 0 0 0-.496.287.802.802 0 0 0-.18.528c0 .315.095.558.287.726.193.169.47.254.828.254s.634-.085.825-.254c.193-.168.29-.41.29-.726a.8.8 0 0 0-.177-.528.873.873 0 0 0-.497-.287.79.79 0 0 0 .44-.264.722.722 0 0 0 .159-.473.755.755 0 0 0-.277-.616c-.185-.151-.44-.227-.763-.227zm-11.207.06v2.03c0 .423.104.742.314.958.21.217.521.327.932.327.41 0 .718-.11.927-.327.211-.216.317-.535.317-.959v-2.03h-.442v1.976c0 .348-.062.598-.188.752-.126.152-.332.23-.614.23-.283 0-.487-.078-.614-.23-.126-.154-.188-.404-.188-.752v-1.975zm2.868 0v.368h1.155v2.881h.441v-2.881h1.155v-.368zm3.177 0v3.25h.441v-1.552h1.288v-.371h-1.288v-.959h1.427v-.368zm5.162.287c.189 0 .335.05.441.144a.498.498 0 0 1 .162.394.492.492 0 0 1-.162.392c-.106.094-.252.144-.441.144-.19 0-.338-.05-.444-.144a.5.5 0 0 1-.157-.392c0-.168.052-.3.157-.394.106-.095.254-.144.444-.144zm0 1.419c.21 0 .374.055.494.167.12.112.182.266.182.462 0 .195-.062.35-.182.462-.121.112-.285.168-.494.168-.21 0-.373-.056-.494-.168-.119-.111-.178-.266-.178-.462s.059-.35.178-.462c.12-.112.285-.167.494-.167zm-2.811.143v.358h1.173v-.358z" fill="#f8bebe"/><path style="line-height:120.00000477%" d="M263.964 268.716v3.25h.903c.628 0 1.091-.129 1.388-.392.296-.263.444-.675.444-1.235 0-.558-.15-.967-.444-1.228-.295-.263-.757-.395-1.388-.395zm21.347.12v.693h-.295v.31h.295v1.325c0 .305.06.516.178.632.118.115.33.17.64.17h.41v-.334h-.41c-.167 0-.28-.027-.334-.084-.054-.057-.081-.185-.081-.384v-1.324h.825v-.311h-.825v-.693zm-20.906.24h.53c.45 0 .778.103.985.306.21.202.314.52.314.957 0 .438-.105.758-.314.96-.207.204-.536.306-.985.306h-.53zm3.919.393c-.35 0-.624.113-.823.34-.198.226-.295.539-.295.94 0 .399.097.715.295.943.199.226.473.34.823.34.348 0 .624-.114.822-.34.2-.228.298-.544.298-.943 0-.401-.099-.714-.298-.94-.198-.227-.474-.34-.822-.34zm2.834 0c-.38 0-.68.114-.899.342-.218.228-.326.54-.326.938 0 .392.107.704.324.935.216.23.507.347.875.347a1.629 1.629 0 0 0 .729-.157v-.37c-.114.062-.225.109-.34.14-.113.031-.229.048-.345.048-.26 0-.462-.085-.606-.249-.144-.165-.214-.397-.214-.694 0-.298.07-.529.214-.693.144-.165.346-.248.606-.248a1.49 1.49 0 0 1 .684.188v-.373a1.679 1.679 0 0 0-.703-.154zm5.407 0a.919.919 0 0 0-.454.107.911.911 0 0 0-.33.332v-.38h-.402v2.44h.403v-1.379c0-.236.062-.423.183-.561a.608.608 0 0 1 .485-.21c.173 0 .302.057.384.17.083.112.126.285.126.52v1.46h.402v-1.379c0-.238.06-.426.18-.564a.617.617 0 0 1 .491-.206c.17 0 .296.056.38.17.082.113.125.286.125.52v1.46h.402v-1.474c0-.328-.069-.58-.207-.757-.137-.179-.333-.27-.587-.27a.927.927 0 0 0-.494.129c-.14.085-.258.22-.358.4a.782.782 0 0 0-.277-.393.748.748 0 0 0-.452-.135zm4.198 0c-.366 0-.656.117-.872.352-.215.234-.324.552-.324.951 0 .386.113.693.34.92.228.226.538.34.927.34a2.392 2.392 0 0 0 .901-.188v-.38a1.988 1.988 0 0 1-.43.17 1.748 1.748 0 0 1-.448.058c-.265 0-.472-.073-.621-.217-.148-.145-.234-.356-.251-.632h1.844v-.196c0-.363-.095-.65-.287-.86-.19-.212-.45-.318-.779-.318zm2.9 0a.918.918 0 0 0-.452.11.98.98 0 0 0-.337.328v-.378h-.402v2.437h.402v-1.377c0-.238.063-.426.188-.564.125-.138.296-.206.512-.206.18 0 .315.055.405.17.09.114.133.288.133.52v1.457h.403v-1.47c0-.338-.073-.593-.217-.766-.144-.174-.355-.261-.635-.261zm-11.141.06v1.476c0 .335.071.59.216.765.146.174.36.261.64.261.17 0 .32-.036.447-.107a.995.995 0 0 0 .34-.332v.374h.4v-2.437h-.4v1.382c0 .238-.065.426-.191.564-.125.138-.296.206-.512.206-.18 0-.315-.057-.405-.172-.09-.116-.133-.29-.133-.52v-1.46zm-4.198.28c.213 0 .384.085.509.255.125.169.185.396.185.685 0 .29-.06.52-.185.69a.603.603 0 0 1-.51.253.6.6 0 0 1-.509-.251c-.123-.169-.185-.4-.185-.692 0-.292.06-.52.185-.687a.601.601 0 0 1 .51-.254zm12.445 0c.197 0 .356.064.475.195.12.13.18.306.183.525l-1.429.003c.02-.23.099-.407.232-.533a.757.757 0 0 1 .539-.19z" fill="#f8f8f8" fill-opacity=".974"/></g></g></svg>