<svg xmlns:osb="http://www.openswatchbook.org/uri/2009/osb" xmlns="http://www.w3.org/2000/svg" xmlns:xlink="http://www.w3.org/1999/xlink" height="128" viewBox="0 0 128 128" width="128"><title>Template icons dark</title><defs><linearGradient id="g" osb:paint="solid"><stop offset="0" stop-opacity=".196"/></linearGradient><linearGradient id="f" osb:paint="solid"><stop offset="0" stop-color="#fff" stop-opacity=".782"/></linearGradient><linearGradient id="e" osb:paint="solid"><stop offset="0" stop-opacity=".079"/></linearGradient><linearGradient id="d" osb:paint="solid"><stop offset="0" stop-opacity=".14"/></linearGradient><linearGradient id="b"><stop offset="0" stop-color="#fff"/><stop offset="1" stop-color="#eee"/></linearGradient><linearGradient id="a"><stop offset="0" stop-color="#f3f3f3"/><stop offset="1" stop-color="#fff"/></linearGradient><linearGradient id="h"><stop offset="0" stop-color="#fff" stop-opacity=".25"/><stop offset="1" stop-color="#fff" stop-opacity=".283"/></linearGradient><linearGradient id="c"><stop offset="0" stop-opacity="0"/><stop offset="1" stop-opacity=".024"/></linearGradient><linearGradient gradientTransform="translate(58.667 56.167) scale(1.33333)" xlink:href="#e" id="j" x1="125" y1="161.5" x2="195" y2="161.5" gradientUnits="userSpaceOnUse"/><linearGradient gradientTransform="translate(58.667 56.167) scale(1.33333)" xlink:href="#d" id="k" x1="126" y1="161.5" x2="194" y2="161.5" gradientUnits="userSpaceOnUse"/><linearGradient xlink:href="#a" id="l" gradientUnits="userSpaceOnUse" gradientTransform="matrix(2.92579 0 0 2.9282 201.838 201.731)" x1="24.117" y1="4.931" x2="24.058" y2="42.556"/><linearGradient xlink:href="#c" id="m" gradientUnits="userSpaceOnUse" gradientTransform="matrix(2.92579 0 0 2.9282 201.838 201.731)" x1="23.981" y1="23.144" x2="45.855" y2="45"/><linearGradient xlink:href="#c" id="n" gradientUnits="userSpaceOnUse" gradientTransform="matrix(2.92579 0 0 2.9282 201.838 201.731)" x1="23.981" y1="23.144" x2="2.106" y2="45"/><linearGradient xlink:href="#c" id="o" gradientUnits="userSpaceOnUse" gradientTransform="matrix(2.92579 0 0 2.9282 201.838 201.731)" x1="23.981" y1="23.144" x2="45.855" y2="1.287"/><linearGradient xlink:href="#c" id="p" gradientUnits="userSpaceOnUse" gradientTransform="matrix(2.92579 0 0 2.9282 201.838 201.731)" x1="23.981" y1="23.144" x2="2.106" y2="1.287"/><linearGradient gradientTransform="translate(58.667 56.167) scale(1.33333)" xlink:href="#f" id="q" x1="127" y1="120.5" x2="169" y2="120.5" gradientUnits="userSpaceOnUse"/><linearGradient gradientTransform="translate(58.667 56.167) scale(1.33333)" xlink:href="#g" id="r" x1="166" y1="133.472" x2="193" y2="133.472" gradientUnits="userSpaceOnUse"/><linearGradient xlink:href="#b" id="s" gradientUnits="userSpaceOnUse" gradientTransform="matrix(3.34375 0 0 2.9282 188.009 201.41)" x1="33.094" y1="10.504" x2="29.904" y2="14.147"/><linearGradient id="i" osb:paint="solid"><stop offset="0"/></linearGradient></defs><path d="M226 214h58l34 34v81h-92z" style="isolation:auto;mix-blend-mode:normal;marker:none" color="#000" overflow="visible" fill="url(#j)" stroke-width="1.172" paint-order="fill markers stroke" transform="translate(-208 -208)"/><path style="isolation:auto;mix-blend-mode:normal;marker:none" d="M227 215h57l33 33v80h-90z" color="#000" overflow="visible" fill="url(#k)" stroke-width="1.136" paint-order="fill markers stroke" transform="translate(-208 -208)"/><path d="M228 216h56l32 32v79h-88V216z" style="isolation:auto;mix-blend-mode:normal;marker:none" color="#000" overflow="visible" fill="url(#l)" stroke-width="1.105" paint-order="fill markers stroke" transform="translate(-208 -208)"/><path style="isolation:auto;mix-blend-mode:normal;marker:none" d="M228 216h56l32 32v79h-88z" color="#000" overflow="visible" fill="url(#m)" stroke-width="1.105" paint-order="fill markers stroke" transform="translate(-208 -208)"/><path d="M228 216h56l32 32v79h-88z" style="isolation:auto;mix-blend-mode:normal;marker:none" color="#000" overflow="visible" fill="url(#n)" stroke-width="1.105" paint-order="fill markers stroke" transform="translate(-208 -208)"/><path style="isolation:auto;mix-blend-mode:normal;marker:none" d="M228 216h56l32 32v79h-88z" color="#000" overflow="visible" fill="url(#o)" stroke-width="1.105" paint-order="fill markers stroke" transform="translate(-208 -208)"/><path d="M228 216h56l32 32v79h-88z" style="isolation:auto;mix-blend-mode:normal;marker:none" color="#000" overflow="visible" fill="url(#p)" stroke-width="1.105" paint-order="fill markers stroke" transform="translate(-208 -208)"/><path style="isolation:auto;mix-blend-mode:normal;marker:none" d="M228 216h56v1h-56z" color="#000" display="block" overflow="visible" fill="url(#q)" stroke-width=".267" paint-order="fill markers stroke" transform="translate(-208 -208)"/><path d="M284 216l32 32-36 4z" fill="url(#r)" fill-rule="evenodd" stroke-width="2.927" transform="translate(-208 -208)"/><path d="M284 216l32 32h-32z" fill="url(#s)" fill-rule="evenodd" stroke-width="3.129" transform="translate(-208 -208)"/></svg>