<svg xmlns:osb="http://www.openswatchbook.org/uri/2009/osb" xmlns="http://www.w3.org/2000/svg" xmlns:xlink="http://www.w3.org/1999/xlink" height="128" viewBox="0 0 128 128" width="128"><title>Template icons dark</title><defs><linearGradient id="g" osb:paint="solid"><stop offset="0" stop-opacity=".196"/></linearGradient><linearGradient id="f" osb:paint="solid"><stop offset="0" stop-color="#fff" stop-opacity=".333"/></linearGradient><linearGradient id="e" osb:paint="solid"><stop offset="0" stop-opacity=".009"/></linearGradient><linearGradient id="d" osb:paint="solid"><stop offset="0" stop-opacity=".031"/></linearGradient><linearGradient id="b"><stop offset="0" stop-color="#5ebfff"/><stop offset="1" stop-color="#40b3ff"/></linearGradient><linearGradient id="a"><stop offset="0" stop-color="#36afff"/><stop offset="1" stop-color="#0090ee"/></linearGradient><linearGradient id="c"><stop offset="0" stop-opacity="0"/><stop offset="1" stop-opacity=".102"/></linearGradient><linearGradient gradientTransform="translate(58.667 56.167) scale(1.33333)" xlink:href="#e" id="i" x1="125" y1="161.5" x2="195" y2="161.5" gradientUnits="userSpaceOnUse"/><linearGradient gradientTransform="translate(58.667 56.167) scale(1.33333)" xlink:href="#d" id="j" x1="126" y1="161.5" x2="194" y2="161.5" gradientUnits="userSpaceOnUse"/><linearGradient xlink:href="#a" id="k" gradientUnits="userSpaceOnUse" gradientTransform="matrix(2.92579 0 0 2.9282 201.838 201.731)" x1="24.117" y1="4.931" x2="24.058" y2="42.556"/><linearGradient xlink:href="#c" id="l" gradientUnits="userSpaceOnUse" gradientTransform="matrix(2.92579 0 0 2.9282 201.838 201.731)" x1="23.981" y1="23.144" x2="45.855" y2="45"/><linearGradient xlink:href="#c" id="m" gradientUnits="userSpaceOnUse" gradientTransform="matrix(2.92579 0 0 2.9282 201.838 201.731)" x1="23.981" y1="23.144" x2="2.106" y2="45"/><linearGradient xlink:href="#c" id="n" gradientUnits="userSpaceOnUse" gradientTransform="matrix(2.92579 0 0 2.9282 201.838 201.731)" x1="23.981" y1="23.144" x2="45.855" y2="1.287"/><linearGradient xlink:href="#c" id="o" gradientUnits="userSpaceOnUse" gradientTransform="matrix(2.92579 0 0 2.9282 201.838 201.731)" x1="23.981" y1="23.144" x2="2.106" y2="1.287"/><linearGradient gradientTransform="translate(58.667 56.167) scale(1.33333)" xlink:href="#f" id="p" x1="127" y1="120.5" x2="169" y2="120.5" gradientUnits="userSpaceOnUse"/><linearGradient gradientTransform="translate(58.667 56.167) scale(1.33333)" xlink:href="#g" id="r" x1="166" y1="133.472" x2="193" y2="133.472" gradientUnits="userSpaceOnUse"/><linearGradient xlink:href="#b" id="s" gradientUnits="userSpaceOnUse" gradientTransform="matrix(3.34375 0 0 2.9282 188.009 201.41)" x1="33.094" y1="10.504" x2="29.904" y2="14.147"/><linearGradient id="h" osb:paint="solid"><stop offset="0" stop-color="#fff" stop-opacity=".278"/></linearGradient><linearGradient gradientTransform="matrix(1.33315 0 0 1.33744 58.69 55.498)" xlink:href="#h" id="q" gradientUnits="userSpaceOnUse" x1="188" y1="173.5" x2="189" y2="173.5"/></defs><path d="M226 214h58l34 34v81h-92z" style="isolation:auto;mix-blend-mode:normal;marker:none" color="#000" overflow="visible" fill="url(#i)" stroke-width="1.172" paint-order="fill markers stroke" transform="translate(-208 -208)"/><path style="isolation:auto;mix-blend-mode:normal;marker:none" d="M227 215h57l33 33v80h-90z" color="#000" overflow="visible" fill="url(#j)" stroke-width="1.136" paint-order="fill markers stroke" transform="translate(-208 -208)"/><path d="M228 216h56l32 32v79h-88V216z" style="isolation:auto;mix-blend-mode:normal;marker:none" color="#000" overflow="visible" fill="url(#k)" stroke-width="1.105" paint-order="fill markers stroke" transform="translate(-208 -208)"/><path style="isolation:auto;mix-blend-mode:normal;marker:none" d="M228 216h56l32 32v79h-88z" color="#000" overflow="visible" fill="url(#l)" stroke-width="1.105" paint-order="fill markers stroke" transform="translate(-208 -208)"/><path d="M228 216h56l32 32v79h-88z" style="isolation:auto;mix-blend-mode:normal;marker:none" color="#000" overflow="visible" fill="url(#m)" stroke-width="1.105" paint-order="fill markers stroke" transform="translate(-208 -208)"/><path style="isolation:auto;mix-blend-mode:normal;marker:none" d="M228 216h56l32 32v79h-88z" color="#000" overflow="visible" fill="url(#n)" stroke-width="1.105" paint-order="fill markers stroke" transform="translate(-208 -208)"/><path d="M228 216h56l32 32v79h-88z" style="isolation:auto;mix-blend-mode:normal;marker:none" color="#000" overflow="visible" fill="url(#o)" stroke-width="1.105" paint-order="fill markers stroke" transform="translate(-208 -208)"/><path style="isolation:auto;mix-blend-mode:normal;marker:none" d="M228 216h56v1h-56z" color="#000" display="block" overflow="visible" fill="url(#p)" stroke-width=".267" paint-order="fill markers stroke" transform="translate(-208 -208)"/><path style="isolation:auto;mix-blend-mode:normal;marker:none" d="M229.333 215.991v4.012H228v1.338h1.333v4.012H228v1.338h1.333v4.012H228v1.337h1.333v4.013H228v1.337h1.333v4.012H228v1.338h1.333v4.012H228v1.338h1.333v4.012H228v1.337h1.333v4.013H228v1.337h1.333v4.012H228v1.338h1.333v4.012H228v1.338h1.333v4.012H228v1.337h1.333v4.013H228v1.337h1.333v4.012H228v1.338h1.333v4.012H228v1.338h1.333v4.012H228v1.337h1.333v4.013H228v1.337h1.333v4.013H228v1.337h1.333v4.012H228v1.338h1.333v4.012H228v1.338h1.333v4.012H228v1.337h1.333V327h1.334v-4.013h4V327h1.332v-4.013h4V327h1.333v-4.013h4V327h1.332v-4.013h4V327h1.333v-4.013h4V327h1.333v-4.013h4V327h1.332v-4.013h4V327h1.333v-4.013h4V327h1.333v-4.013h3.999V327h1.333v-4.013h4V327h1.333v-4.013h4V327h1.332v-4.013h4V327h1.333v-4.013h4v3.887h1.333v-3.887h3.999V327h1.333v-4.013h4V327h1.333v-4.013h5.332v-1.337h-5.332v-4.012h5.332v-1.338h-5.332v-4.012h5.332v-1.338h-5.332v-4.012h5.332V305.6h-5.332v-4.013h5.332v-1.337h-5.332v-4.013h5.332V294.9h-5.332v-4.012h5.332v-1.338h-5.332v-4.012h5.332V284.2h-5.332v-4.012h5.332v-1.337h-5.332v-4.013h5.332v-1.337h-5.332v-4.012h5.332v-1.338h-5.332v-4.012h5.332V262.8h-5.332v-4.012h5.332v-1.337h-5.332v-4.013h5.332v-1.337h-5.332v-4.012h-1.333v4.012h-4v-4.012h-1.333v4.012h-4v-4.138h-1.333v4.138h-3.999v-4.012h-1.333v4.012h-4v-4.012h-1.333v4.012h-4V215.99h-1.332v4.012h-4v-4.012h-1.333v4.012h-4v-4.012h-1.333v4.012h-4v-4.012h-1.332v4.012h-4v-4.012h-1.333v4.012h-4v-4.012h-1.332v4.012h-4v-4.012h-1.333v4.012h-4v-4.012h-1.333v4.012h-4v-4.012H240v4.012h-4v-4.012h-1.333v4.012h-4v-4.012zm1.334 5.35h4v4.012h-4zm5.332 0h4v4.012h-4zm5.333 0h4v4.012h-4zm5.332 0h4v4.012h-4zm5.333 0h4v4.012h-4zm5.333 0h4v4.012h-4zm5.332 0h4v4.012h-4zm5.333 0h4v4.012h-4zm5.333 0h3.999v4.012h-4zm5.332 0h4v4.012h-4zm-47.993 5.35h4v4.012h-4zm5.332 0h4v4.012h-4zm5.333 0h4v4.012h-4zm5.332 0h4v4.012h-4zm5.333 0h4v4.012h-4zm5.333 0h4v4.012h-4zm5.332 0h4v4.012h-4zm5.333 0h4v4.012h-4zm5.333 0h3.999v4.012h-4zm5.332 0h4v4.012h-4zm-47.993 5.35h4v4.012h-4zm5.332 0h4v4.012h-4zm5.333 0h4v4.012h-4zm5.332 0h4v4.012h-4zm5.333 0h4v4.012h-4zm5.333 0h4v4.012h-4zm5.332 0h4v4.012h-4zm5.333 0h4v4.012h-4zm5.333 0h3.999v4.012h-4zm5.332 0h4v4.012h-4zm-47.993 5.35h4v4.011h-4zm5.332 0h4v4.011h-4zm5.333 0h4v4.011h-4zm5.332 0h4v4.011h-4zm5.333 0h4v4.011h-4zm5.333 0h4v4.011h-4zm5.332 0h4v4.011h-4zm5.333 0h4v4.011h-4zm5.333 0h3.999v4.011h-4zm5.332 0h4v4.011h-4zm-47.993 5.349h4v4.012h-4zm5.332 0h4v4.012h-4zm5.333 0h4v4.012h-4zm5.332 0h4v4.012h-4zm5.333 0h4v4.012h-4zm5.333 0h4v4.012h-4zm5.332 0h4v4.012h-4zm5.333 0h4v4.012h-4zm5.333 0h3.999v4.012h-4zm5.332 0h4v4.012h-4zm-47.993 5.35h4v4.012h-4zm5.332 0h4v4.012h-4zm5.333 0h4v4.012h-4zm5.332 0h4v4.012h-4zm5.333 0h4v4.012h-4zm5.333 0h4v4.012h-4zm5.332 0h4v4.012h-4zm5.333 0h4v4.012h-4zm5.333 0h3.999v4.012h-4zm5.332 0h4v4.012h-4zm-47.993 5.35h4v4.012h-4zm5.332 0h4v4.012h-4zm5.333 0h4v4.012h-4zm5.332 0h4v4.012h-4zm5.333 0h4v4.012h-4zm5.333 0h4v4.012h-4zm5.332 0h4v4.012h-4zm5.333 0h4v4.012h-4zm5.333 0h3.999v4.012h-4zm5.332 0h4v4.012h-4zm5.333 0h4v4.012h-4zm5.332 0h4v4.012h-4zm5.333 0h4v4.012h-4zm5.333 0h3.999v4.012h-4zm5.332 0h4v4.012h-4zm-74.656 5.35h4v4.011h-4zm5.332 0h4v4.011h-4zm5.333 0h4v4.011h-4zm5.332 0h4v4.011h-4zm5.333 0h4v4.011h-4zm5.333 0h4v4.011h-4zm5.332 0h4v4.011h-4zm5.333 0h4v4.011h-4zm5.333 0h3.999v4.011h-4zm5.332 0h4v4.011h-4zm5.333 0h4v4.011h-4zm5.332 0h4v4.011h-4zm5.333 0h4v4.011h-4zm5.333 0h3.999v4.011h-4zm5.332 0h4v4.011h-4zm-74.656 5.349h4v4.012h-4zm5.332 0h4v4.012h-4zm5.333 0h4v4.012h-4zm5.332 0h4v4.012h-4zm5.333 0h4v4.012h-4zm5.333 0h4v4.012h-4zm5.332 0h4v4.012h-4zm5.333 0h4v4.012h-4zm5.333 0h3.999v4.012h-4zm5.332 0h4v4.012h-4zm5.333 0h4v4.012h-4zm5.332 0h4v4.012h-4zm5.333 0h4v4.012h-4zm5.333 0h3.999v4.012h-4zm5.332 0h4v4.012h-4zm-74.656 5.35h4v4.012h-4zm5.332 0h4v4.012h-4zm5.333 0h4v4.012h-4zm5.332 0h4v4.012h-4zm5.333 0h4v4.012h-4zm5.333 0h4v4.012h-4zm5.332 0h4v4.012h-4zm5.333 0h4v4.012h-4zm5.333 0h3.999v4.012h-4zm5.332 0h4v4.012h-4zm5.333 0h4v4.012h-4zm5.332 0h4v4.012h-4zm5.333 0h4v4.012h-4zm5.333 0h3.999v4.012h-4zm5.332 0h4v4.012h-4zm-74.656 5.35h4v4.012h-4zm5.332 0h4v4.012h-4zm5.333 0h4v4.012h-4zm5.332 0h4v4.012h-4zm5.333 0h4v4.012h-4zm5.333 0h4v4.012h-4zm5.332 0h4v4.012h-4zm5.333 0h4v4.012h-4zm5.333 0h3.999v4.012h-4zm5.332 0h4v4.012h-4zm5.333 0h4v4.012h-4zm5.332 0h4v4.012h-4zm5.333 0h4v4.012h-4zm5.333 0h3.999v4.012h-4zm5.332 0h4v4.012h-4zm-74.656 5.35h4v4.011h-4zm5.332 0h4v4.011h-4zm5.333 0h4v4.011h-4zm5.332 0h4v4.011h-4zm5.333 0h4v4.011h-4zm5.333 0h4v4.011h-4zm5.332 0h4v4.011h-4zm5.333 0h4v4.011h-4zm5.333 0h3.999v4.011h-4zm5.332 0h4v4.011h-4zm5.333 0h4v4.011h-4zm5.332 0h4v4.011h-4zm5.333 0h4v4.011h-4zm5.333 0h3.999v4.011h-4zm5.332 0h4v4.011h-4zm-74.656 5.349h4v4.012h-4zm5.332 0h4v4.012h-4zm5.333 0h4v4.012h-4zm5.332 0h4v4.012h-4zm5.333 0h4v4.012h-4zm5.333 0h4v4.012h-4zm5.332 0h4v4.012h-4zm5.333 0h4v4.012h-4zm5.333 0h3.999v4.012h-4zm5.332 0h4v4.012h-4zm5.333 0h4v4.012h-4zm5.332 0h4v4.012h-4zm5.333 0h4v4.012h-4zm5.333 0h3.999v4.012h-4zm5.332 0h4v4.012h-4zm-74.656 5.35h4v4.012h-4zm5.332 0h4v4.012h-4zm5.333 0h4v4.012h-4zm5.332 0h4v4.012h-4zm5.333 0h4v4.012h-4zm5.333 0h4v4.012h-4zm5.332 0h4v4.012h-4zm5.333 0h4v4.012h-4zm5.333 0h3.999v4.012h-4zm5.332 0h4v4.012h-4zm5.333 0h4v4.012h-4zm5.332 0h4v4.012h-4zm5.333 0h4v4.012h-4zm5.333 0h3.999v4.012h-4zm5.332 0h4v4.012h-4zm-74.656 5.35h4v4.012h-4zm5.332 0h4v4.012h-4zm5.333 0h4v4.012h-4zm5.332 0h4v4.012h-4zm5.333 0h4v4.012h-4zm5.333 0h4v4.012h-4zm5.332 0h4v4.012h-4zm5.333 0h4v4.012h-4zm5.333 0h3.999v4.012h-4zm5.332 0h4v4.012h-4zm5.333 0h4v4.012h-4zm5.332 0h4v4.012h-4zm5.333 0h4v4.012h-4zm5.333 0h3.999v4.012h-4zm5.332 0h4v4.012h-4zm-74.656 5.35h4v4.012h-4zm5.332 0h4v4.012h-4zm5.333 0h4v4.012h-4zm5.332 0h4v4.012h-4zm5.333 0h4v4.012h-4zm5.333 0h4v4.012h-4zm5.332 0h4v4.012h-4zm5.333 0h4v4.012h-4zm5.333 0h3.999v4.012h-4zm5.332 0h4v4.012h-4zm5.333 0h4v4.012h-4zm5.332 0h4v4.012h-4zm5.333 0h4v4.012h-4zm5.333 0h3.999v4.012h-4zm5.332 0h4v4.012h-4zm-74.656 5.349h4v4.012h-4zm5.332 0h4v4.012h-4zm5.333 0h4v4.012h-4zm5.332 0h4v4.012h-4zm5.333 0h4v4.012h-4zm5.333 0h4v4.012h-4zm5.332 0h4v4.012h-4zm5.333 0h4v4.012h-4zm5.333 0h3.999v4.012h-4zm5.332 0h4v4.012h-4zm5.333 0h4v4.012h-4zm5.332 0h4v4.012h-4zm5.333 0h4v4.012h-4zm5.333 0h3.999v4.012h-4zm5.332 0h4v4.012h-4zm-74.656 5.35h4v4.012h-4zm5.332 0h4v4.012h-4zm5.333 0h4v4.012h-4zm5.332 0h4v4.012h-4zm5.333 0h4v4.012h-4zm5.333 0h4v4.012h-4zm5.332 0h4v4.012h-4zm5.333 0h4v4.012h-4zm5.333 0h3.999v4.012h-4zm5.332 0h4v4.012h-4zm5.333 0h4v4.012h-4zm5.332 0h4v4.012h-4zm5.333 0h4v4.012h-4zm5.333 0h3.999v4.012h-4zm5.332 0h4v4.012h-4zm-74.656 5.35h4v4.012h-4zm5.332 0h4v4.012h-4zm5.333 0h4v4.012h-4zm5.332 0h4v4.012h-4zm5.333 0h4v4.012h-4zm5.333 0h4v4.012h-4zm5.332 0h4v4.012h-4zm5.333 0h4v4.012h-4zm5.333 0h3.999v4.012h-4zm5.332 0h4v4.012h-4zm5.333 0h4v4.012h-4zm5.332 0h4v4.012h-4zm5.333 0h4v4.012h-4zm5.333 0h3.999v4.012h-4zm5.332 0h4v4.012h-4z" color="#000" overflow="visible" opacity=".4" fill="url(#q)" stroke-width="1.122" stroke-opacity=".344" paint-order="fill markers stroke" transform="translate(-208 -208)"/><path style="isolation:auto;mix-blend-mode:normal;marker:none" d="M26.685 13.338h48.143l26.03 26.63.716 73.684h-74.89z" color="#000" overflow="visible" fill="none" stroke="#b3d4ee" stroke-width="2.669" stroke-opacity=".214" paint-order="fill markers stroke"/><path d="M33.375 86.9h53.497V56.139z" fill="none" fill-rule="evenodd" stroke="#b8eff9" stroke-width="2.675"/><path style="line-height:normal;font-variant-ligatures:normal;font-variant-position:normal;font-variant-caps:normal;font-variant-numeric:normal;font-variant-alternates:normal;font-feature-settings:normal;text-indent:0;text-align:start;text-decoration-line:none;text-decoration-style:solid;text-decoration-color:#000;text-transform:none;text-orientation:mixed;shape-padding:0;isolation:auto;mix-blend-mode:normal" d="M86.029 44.507l-.303 2.233-2.08-.87-.135.324 2.165.907-.047.347L26.565 81.55l.177-1.3-.347-.05-.214 1.572-.614.356.065.114-1.62-.679-.135.324 2.165.91-.316 2.324.35.05.303-2.234 2.077.87.138-.324-2.168-.909.055-.4 59.064-34.102-.185 1.356.35.047.222-1.627.643-.371 1.517.637.136-.326-1.424-.596-.182-.316-.24.139-.32-.134.317-2.327zm6.52 7.228l-.21.269 1.584 1.225v.209l-1.594 1.212.207.272 1.387-1.056v34.147l-1.602-1.241-.198.256 1.633 1.264-1.644 1.249.196.256 1.711-1.3 1.7 1.313.2-.253-1.453-1.124v-.277l1.463-1.112-.196-.256-1.267.964V53.649l1.664 1.286.209-.267-1.721-1.332 1.731-1.317-.206-.271-1.682 1.277h-.246zm-36.456 3.618l-1.711.987.935 1.62c.09-.125.185-.235.285-.327.102-.093.21-.173.326-.24.25-.144.485-.194.706-.147.22.048.395.183.525.408.13.224.158.446.089.66-.07.216-.23.395-.478.539a1.958 1.958 0 0 1-.959.274l.25.439c.177-.04.341-.091.494-.149a2.98 2.98 0 0 0 .437-.204c.392-.226.641-.499.747-.815.104-.317.056-.648-.144-.995-.194-.337-.455-.543-.778-.619-.324-.076-.665-.009-1.024.199a1.328 1.328 0 0 0-.342.285l-.458-.792 1.312-.758zm-2.837 1.893c-.295-.052-.609.017-.943.21a2.143 2.143 0 0 0-.39.297 4.013 4.013 0 0 0-.399.444l.256.44c.117-.197.237-.362.36-.497a1.68 1.68 0 0 1 .393-.321c.192-.112.38-.15.561-.11a.621.621 0 0 1 .423.316c.06.105.095.226.102.368.008.14-.013.33-.062.567-.026.126-.098.415-.217.87-.119.452-.21.812-.277 1.079l.211.368 2.046-1.183-.212-.366-1.52.878c.144-.561.253-.996.332-1.306.077-.312.124-.5.136-.562a2.06 2.06 0 0 0 .026-.575 1.105 1.105 0 0 0-.142-.42.957.957 0 0 0-.684-.497zm-3.289 1.64l-.436.254-.679.601.227.397.687-.603 1.419 2.458-.713.413.211.365 1.857-1.07-.211-.37-.713.414zm51.306 11.361c-.417 0-.737.166-.958.497-.22.329-.33.806-.33 1.434 0 .626.11 1.106.33 1.436.22.33.541.494.958.494.417 0 .735-.165.954-.494.22-.33.332-.81.332-1.436 0-.628-.111-1.105-.332-1.434-.22-.331-.537-.497-.954-.497zm-4.323.066v1.87c.14-.063.277-.109.41-.139.135-.03.268-.044.403-.044.287 0 .516.073.684.225.168.15.25.357.25.616 0 .26-.082.465-.25.617-.168.15-.397.227-.684.227a1.956 1.956 0 0 1-.97-.243v.507c.173.053.34.09.502.117.163.027.322.042.478.042.454 0 .806-.11 1.055-.332.25-.222.374-.534.374-.935 0-.389-.123-.697-.366-.925-.242-.227-.572-.342-.987-.342-.073 0-.144.008-.217.021-.073.012-.146.03-.22.055v-.912h1.516v-.426zm4.323.331c.261 0 .456.128.586.384.13.255.195.638.195 1.15 0 .51-.064.893-.195 1.15-.13.253-.325.38-.586.38-.259 0-.456-.127-.587-.38-.13-.257-.194-.64-.194-1.15 0-.512.064-.895.194-1.15.13-.256.328-.384.587-.384zM26.097 82.397l-.005.036-.034-.013zm5.104 11.501l-.269.206 1.26 1.654v.293l-1.275 1.648.269.209 1.332-1.719 1.317 1.73.269-.207-1.244-1.633h52.453l-1.18 1.528.255.199 1.262-1.633 1.251 1.643.256-.196-1.18-1.551v-.316l1.193-1.544-.256-.199-1.084 1.4h-.355L84.4 94l-.256.196.925 1.215H33.119l1-1.294-.269-.208-1.162 1.502h-.335zm29.445 6.024c-.417 0-.735.165-.956.496-.22.33-.33.809-.33 1.437 0 .626.11 1.103.33 1.434.221.329.539.494.956.494.417 0 .737-.165.956-.494.221-.33.33-.808.33-1.434 0-.628-.109-1.108-.33-1.437-.22-.33-.539-.496-.956-.496zm3.25 0c-.417 0-.735.165-.956.496-.22.33-.33.809-.33 1.437 0 .626.11 1.103.33 1.434.22.329.539.494.956.494.417 0 .736-.165.956-.494.22-.33.331-.808.331-1.434 0-.628-.11-1.108-.331-1.437-.22-.33-.54-.496-.956-.496zm-6.672.068l-.89.18v.457l.895-.18v2.84h-.823v.423h2.145v-.424h-.823V99.99zm3.422.332c.26 0 .456.128.585.384.131.254.199.637.199 1.149 0 .51-.068.89-.199 1.147-.13.254-.324.381-.585.381-.26 0-.454-.127-.585-.381-.13-.256-.196-.637-.196-1.147 0-.512.066-.895.196-1.15.131-.255.326-.383.585-.383zm3.25 0c.26 0 .458.128.587.384.132.254.196.637.196 1.149 0 .51-.064.89-.196 1.147-.13.254-.327.381-.587.381-.26 0-.454-.127-.586-.381-.13-.256-.193-.637-.193-1.147 0-.512.064-.895.193-1.15.132-.255.326-.383.586-.383z" color="#000" font-weight="400" font-family="sans-serif" white-space="normal" overflow="visible" fill="#f8f8f8" fill-rule="evenodd" stroke-width=".34"/><path d="M49.844 24.329v4.513h.533V24.33zm-16.415.182v.494h1.538v3.837h.588v-3.837h1.539v-.494zm21.697.16v.922h-.392v.415h.392v1.763c0 .406.078.687.235.841.156.153.44.23.851.23h.549v-.446h-.549c-.222 0-.368-.037-.441-.113-.072-.075-.11-.247-.11-.512v-1.763h1.1v-.415h-1.1v-.922zm-17.136.843c-.488 0-.875.157-1.163.47-.286.312-.43.733-.43 1.265 0 .514.152.923.454 1.225.303.302.712.452 1.23.452.207 0 .413-.02.614-.063.201-.042.396-.104.588-.185v-.507c-.19.1-.382.177-.575.227-.191.05-.388.076-.593.076-.354 0-.631-.096-.83-.287-.198-.194-.306-.474-.33-.841h2.453v-.262c0-.483-.129-.866-.384-1.146-.253-.283-.597-.424-1.034-.424zm3.855 0c-.234 0-.436.05-.606.144-.17.095-.317.24-.439.439v-.504h-.538v3.25h.538v-1.837c0-.315.08-.566.24-.75.161-.185.379-.277.651-.277.23 0 .4.074.51.225.11.149.164.382.164.695v1.943h.538v-1.836c0-.317.08-.569.24-.752.161-.184.38-.275.656-.275.226 0 .394.074.504.225.11.15.168.384.168.695v1.943h.535v-1.961c0-.437-.093-.773-.277-1.009-.184-.238-.442-.358-.78-.358-.252 0-.47.059-.657.173-.185.114-.347.29-.48.53a1.043 1.043 0 0 0-.368-.522.985.985 0 0 0-.599-.18zm5.784 0c-.238 0-.445.05-.617.144a1.1 1.1 0 0 0-.423.429v-.494h-.535v4.485h.535v-1.724c.112.193.253.339.423.434.172.092.379.138.617.138.394 0 .713-.157.958-.47.248-.313.371-.725.371-1.236 0-.51-.123-.922-.37-1.235a1.16 1.16 0 0 0-.96-.47zm5.002 0c-.174 0-.352.02-.535.058a3.47 3.47 0 0 0-.57.17v.493a2.15 2.15 0 0 1 1.05-.269c.292 0 .519.069.68.204.162.134.242.324.242.57v.052h-.747c-.485 0-.851.091-1.097.277-.244.185-.366.462-.366.828 0 .313.098.562.293.75.197.185.461.279.794.279.263 0 .487-.046.669-.138.182-.095.332-.242.454-.44v.494h.533v-1.854c0-.495-.115-.864-.347-1.108-.232-.243-.583-.366-1.053-.366zm6.196 0c-.487 0-.874.157-1.162.47-.286.312-.431.733-.431 1.265 0 .514.15.923.452 1.225.303.302.714.452 1.233.452.207 0 .412-.02.613-.063.202-.042.397-.104.588-.185v-.507c-.19.1-.381.177-.574.227-.192.05-.388.076-.593.076-.354 0-.632-.096-.831-.287-.197-.194-.309-.474-.332-.841h2.456v-.262c0-.483-.13-.866-.384-1.146-.254-.283-.598-.424-1.035-.424zm-11.329.447c.282 0 .503.113.664.337.162.222.243.53.243.922 0 .393-.081.7-.243.925a.774.774 0 0 1-.664.334.785.785 0 0 1-.669-.334c-.16-.224-.24-.532-.24-.925 0-.392.08-.7.24-.922a.783.783 0 0 1 .67-.337zm-9.503.005c.263 0 .474.087.632.261.16.174.245.408.248.7l-1.904.003c.027-.305.13-.542.308-.71.18-.168.418-.253.716-.253zm20.837 0c.263 0 .474.087.633.261.16.174.244.408.248.7l-1.905.003c.028-.305.13-.542.309-.71.18-.168.418-.253.715-.253zm-5.864 1.244h.53v.117c0 .348-.089.628-.269.839a.887.887 0 0 1-.71.313c-.215 0-.387-.054-.512-.164a.58.58 0 0 1-.186-.452c0-.238.085-.409.251-.507.166-.099.465-.146.896-.146z" style="line-height:1000%" font-family="sans-serif" letter-spacing="0" word-spacing="0" fill="#fff" fill-opacity=".531" stroke-width=".371"/><path d="M284 216l32 32-36 4z" fill="url(#r)" fill-rule="evenodd" stroke-width="2.927" transform="translate(-208 -208)"/><path d="M284 216l32 32h-32z" fill="url(#s)" fill-rule="evenodd" stroke-width="3.129" transform="translate(-208 -208)"/></svg>