<svg xmlns:osb="http://www.openswatchbook.org/uri/2009/osb" xmlns="http://www.w3.org/2000/svg" xmlns:xlink="http://www.w3.org/1999/xlink" height="128" viewBox="0 0 128 128" width="128"><title>Template icons dark</title><defs><linearGradient id="g" osb:paint="solid"><stop offset="0" stop-opacity=".196"/></linearGradient><linearGradient id="f" osb:paint="solid"><stop offset="0" stop-color="#fff" stop-opacity=".208"/></linearGradient><linearGradient id="e" osb:paint="solid"><stop offset="0" stop-opacity=".004"/></linearGradient><linearGradient id="d" osb:paint="solid"><stop offset="0" stop-opacity=".026"/></linearGradient><linearGradient id="b"><stop offset="0" stop-color="#bf72f7"/><stop offset="1" stop-color="#ae37d5"/></linearGradient><linearGradient id="a"><stop offset="0" stop-color="#e730f4"/><stop offset="1" stop-color="#894bed"/></linearGradient><linearGradient id="c"><stop offset="0" stop-opacity="0"/><stop offset="1" stop-opacity=".102"/></linearGradient><linearGradient gradientTransform="translate(58.667 56.167) scale(1.33333)" xlink:href="#e" id="n" x1="125" y1="161.5" x2="195" y2="161.5" gradientUnits="userSpaceOnUse"/><linearGradient gradientTransform="translate(58.667 56.167) scale(1.33333)" xlink:href="#d" id="o" x1="126" y1="161.5" x2="194" y2="161.5" gradientUnits="userSpaceOnUse"/><linearGradient xlink:href="#a" id="p" gradientUnits="userSpaceOnUse" gradientTransform="matrix(2.92579 0 0 2.9282 201.838 201.731)" x1="24.117" y1="4.931" x2="24.058" y2="42.556"/><linearGradient xlink:href="#c" id="q" gradientUnits="userSpaceOnUse" gradientTransform="matrix(2.92579 0 0 2.9282 201.838 201.731)" x1="23.981" y1="23.144" x2="45.855" y2="45"/><linearGradient xlink:href="#c" id="r" gradientUnits="userSpaceOnUse" gradientTransform="matrix(2.92579 0 0 2.9282 201.838 201.731)" x1="23.981" y1="23.144" x2="2.106" y2="45"/><linearGradient xlink:href="#c" id="s" gradientUnits="userSpaceOnUse" gradientTransform="matrix(2.92579 0 0 2.9282 201.838 201.731)" x1="23.981" y1="23.144" x2="45.855" y2="1.287"/><linearGradient xlink:href="#c" id="t" gradientUnits="userSpaceOnUse" gradientTransform="matrix(2.92579 0 0 2.9282 201.838 201.731)" x1="23.981" y1="23.144" x2="2.106" y2="1.287"/><linearGradient gradientTransform="translate(58.667 56.167) scale(1.33333)" xlink:href="#f" id="u" x1="127" y1="120.5" x2="169" y2="120.5" gradientUnits="userSpaceOnUse"/><linearGradient gradientTransform="translate(58.667 56.167) scale(1.33333)" xlink:href="#g" id="C" x1="166" y1="133.472" x2="193" y2="133.472" gradientUnits="userSpaceOnUse"/><linearGradient xlink:href="#b" id="D" gradientUnits="userSpaceOnUse" gradientTransform="matrix(3.34375 0 0 2.9282 188.009 201.41)" x1="33.094" y1="10.504" x2="29.904" y2="14.147"/><linearGradient id="m"><stop offset="0" stop-color="#fff"/><stop offset="1" stop-color="#b5b2b5"/></linearGradient><linearGradient id="h"><stop offset="0" stop-color="#1d1f23"/><stop offset=".361" stop-color="#515359"/><stop offset="1" stop-color="#484848"/></linearGradient><linearGradient id="i"><stop offset="0" stop-color="#a5a6ad"/><stop offset="1" stop-color="#ded7de"/></linearGradient><linearGradient id="j"><stop offset="0" stop-color="#ada6ad"/><stop offset="1" stop-color="#ded7de"/></linearGradient><linearGradient id="k"><stop offset="0" stop-color="#242424"/><stop offset="1" stop-color="#3a333a"/></linearGradient><linearGradient id="l"><stop offset="0" stop-color="#211721"/><stop offset="1" stop-color="#332f39"/></linearGradient><linearGradient xlink:href="#h" id="B" gradientUnits="userSpaceOnUse" gradientTransform="matrix(.8233 0 0 .8233 222.347 210.309)" x1="14.128" y1="36.045" x2="14.128" y2="11.771"/><linearGradient xlink:href="#i" id="A" x1="64.483" y1="994.038" x2="64.483" y2="980.267" gradientUnits="userSpaceOnUse" gradientTransform="matrix(.8233 0 0 .8233 225.311 -576.97)"/><linearGradient xlink:href="#i" id="z" gradientUnits="userSpaceOnUse" gradientTransform="matrix(.8233 0 0 .8233 227.922 -577.132)" x1="64.483" y1="994.038" x2="64.483" y2="980.267"/><linearGradient xlink:href="#j" id="y" gradientUnits="userSpaceOnUse" gradientTransform="matrix(.8233 0 0 .8233 227.922 -577.132)" x1="40.574" y1="978.823" x2="40.574" y2="962.158"/><linearGradient xlink:href="#j" id="x" gradientUnits="userSpaceOnUse" gradientTransform="matrix(.8233 0 0 .8233 225.311 -576.97)" x1="40.574" y1="978.823" x2="40.574" y2="962.158"/><linearGradient xlink:href="#k" id="w" gradientUnits="userSpaceOnUse" gradientTransform="matrix(.8233 0 0 .77184 222.347 -527.49)" x1="52.891" y1="995.124" x2="52.891" y2="980.244"/><linearGradient xlink:href="#l" id="v" x1="49.087" y1="22.098" x2="49.087" y2="7.789" gradientUnits="userSpaceOnUse" gradientTransform="matrix(.8233 0 0 .8233 222.347 209.486)"/><radialGradient xlink:href="#m" id="E" cx="-3.76" cy="21.906" fx="-3.76" fy="21.906" r="3.906" gradientUnits="userSpaceOnUse" gradientTransform="matrix(.61744 -.58938 .59105 .6192 223.129 212.943)"/></defs><g transform="translate(-208 -208)"><path d="M226 214h58l34 34v81h-92z" style="isolation:auto;mix-blend-mode:normal;marker:none" color="#000" overflow="visible" fill="url(#n)" stroke-width="1.172" paint-order="fill markers stroke"/><path style="isolation:auto;mix-blend-mode:normal;marker:none" d="M227 215h57l33 33v80h-90z" color="#000" overflow="visible" fill="url(#o)" stroke-width="1.136" paint-order="fill markers stroke"/><path d="M228 216h56l32 32v79h-88V216z" style="isolation:auto;mix-blend-mode:normal;marker:none" color="#000" overflow="visible" fill="url(#p)" stroke-width="1.105" paint-order="fill markers stroke"/><path style="isolation:auto;mix-blend-mode:normal;marker:none" d="M228 216h56l32 32v79h-88z" color="#000" overflow="visible" fill="url(#q)" stroke-width="1.105" paint-order="fill markers stroke"/><path d="M228 216h56l32 32v79h-88z" style="isolation:auto;mix-blend-mode:normal;marker:none" color="#000" overflow="visible" fill="url(#r)" stroke-width="1.105" paint-order="fill markers stroke"/><path style="isolation:auto;mix-blend-mode:normal;marker:none" d="M228 216h56l32 32v79h-88z" color="#000" overflow="visible" fill="url(#s)" stroke-width="1.105" paint-order="fill markers stroke"/><path d="M228 216h56l32 32v79h-88z" style="isolation:auto;mix-blend-mode:normal;marker:none" color="#000" overflow="visible" fill="url(#t)" stroke-width="1.105" paint-order="fill markers stroke"/><path style="isolation:auto;mix-blend-mode:normal;marker:none" d="M228 216h56v1h-56z" color="#000" display="block" overflow="visible" fill="url(#u)" stroke-width=".267" paint-order="fill markers stroke"/><path d="M228.029 216v13.334h69.336L284.031 216z" fill="url(#v)" stroke-width=".823"/><path d="M228.029 229.334h69.336l13.334 13.334h-82.67z" fill="url(#w)" stroke-width=".823"/><path d="M229.247 216.866l.115 25.802 12.544.076-.089-13.428z" fill-opacity=".995" stroke-width=".823"/><path d="M242.696 216l13.334 13.334h13.334L256.03 216z" fill="url(#x)" stroke-width=".823"/><path d="M270.698 216l13.333 13.334h12.99L283.917 216z" fill="url(#y)" stroke-width=".823"/><path d="M284.031 229.334l-13.333 13.334h13.333l13.334-13.334z" fill="url(#z)" stroke-width=".823"/><path d="M256.03 229.334l-13.334 13.334h13.334l13.334-13.334z" fill="url(#A)" stroke-width=".823"/><path d="M227.913 216.866l.116 25.802 12.544.076-.09-13.428z" fill="url(#B)" stroke-width=".823"/><path d="M284 216l32 32-36 4z" fill="url(#C)" fill-rule="evenodd" stroke-width="2.927"/><path d="M284 216l32 32h-32z" fill="url(#D)" fill-rule="evenodd" stroke-width="3.129"/><circle cx="233.849" cy="231.01" r="3.344" fill-opacity=".245" stroke-width=".856"/><circle cx="233.849" cy="230.039" r="3.344" fill="url(#E)" stroke-width=".856"/><path style="isolation:auto;mix-blend-mode:normal;marker:none" color="#000" display="block" overflow="visible" fill-opacity=".224" stroke-width=".947" stroke-dasharray="5.68252932,5.68252932" stroke-opacity=".667" paint-order="fill markers stroke" d="M228.029 242.668h56.003v2.691h-56.003z"/><path style="isolation:auto;mix-blend-mode:normal;marker:none" color="#000" display="block" overflow="visible" fill-opacity=".224" stroke-width=".672" stroke-dasharray="4.03322945,4.03322945" stroke-opacity=".667" paint-order="fill markers stroke" d="M228.029 242.668h56.003v1.356h-56.003z"/></g></svg>